<?xml version="1.0" encoding="UTF-8"?>
<svg xmlns="http://www.w3.org/2000/svg" width="360" height="504" viewBox="0 0 360 504">
  <defs>
    <style>
      .uuid-38603698-e146-49e8-9f1a-111adb7e07af {
        fill: #fff;
      }

      .uuid-9300ec61-c48c-41f6-bd3e-9c69863e3b09 {
        fill: #1c838e;
      }
    </style>
  </defs>
  <g id="uuid-5e73bf7b-05bf-4900-8c84-1dbdeb8d071c" data-name="bg">
    <rect class="uuid-38603698-e146-49e8-9f1a-111adb7e07af" y="0" width="360" height="504"/>
  </g>
  <g id="uuid-50c9164c-8271-4968-9d02-36df2c5ecd76" data-name="Layer 1">
    <polygon class="uuid-9300ec61-c48c-41f6-bd3e-9c69863e3b09" points="213.33 145.41 204.69 147.62 195.92 149.77 186.95 151.1 178.27 153.64 169.41 155.41 160.56 157.24 151.8 159.43 143.07 161.74 134.29 163.86 125.56 166.2 116.77 168.29 108 170.3 104.83 161.43 104.1 151.94 105.2 142.46 109.4 133.91 115.25 126.47 121.82 119.61 129.8 114.47 137.26 109.51 145.62 106.29 153.9 102.93 162.46 100.31 171.14 98.12 180.02 96.94 188.73 94.72 197.62 93.53 206.63 93.74 215.51 92.54 224.46 92.18 233.32 92.01 239.18 99.29 245.06 106.68 250.51 114.39 255 122.74 260.56 130.38 265.3 138.54 269.59 146.94 274.06 155.28 277.01 164.27 279.75 173.3 281.21 182.63 280.77 191.66 279.63 200.58 277.21 209.29 272.33 216.9 266.99 224.26 259.72 229.72 252.05 234.51 243.67 239.14 241.56 230.22 238.09 221.94 235.59 213.34 232.88 204.81 230.28 196.25 227.87 187.62 224.97 179.15 221.96 170.72 218.74 162.36 215.73 153.93 213.33 145.41"/>
    <polygon class="uuid-9300ec61-c48c-41f6-bd3e-9c69863e3b09" points="67.83 239.66 74.97 233.36 81.12 226.27 88.21 220.16 94.97 213.7 101.57 207.06 108.9 201.24 115.63 194.72 122.95 188.88 130.65 183.54 138.75 178.86 146.82 174.23 155.23 170.17 164.32 167.82 173.72 167.44 182.91 169.26 191.79 171.1 200.18 174.58 207.68 179.71 214.08 186.18 218.25 194.25 221.44 202.71 223.26 211.67 222.36 220.43 213.76 219.23 204.85 217.97 196.09 215.75 187.16 214.58 178.15 214.33 169.18 213.48 160.18 213.66 151.34 215.32 142.64 217.29 134.77 221.34 128.2 227.16 123.52 234.69 120.68 243.25 120.65 252.25 121.8 261.02 125.36 269.04 131.06 275.85 139.18 279.53 147.54 282.6 156.34 284.4 165.33 284.2 174.27 284.06 183.26 284.15 192.09 282.41 201.07 281.9 210.23 279.78 210.39 289.69 210.16 299.13 208.14 308.43 202.96 316.42 196.26 323.25 187.56 327.33 178.16 328.93 168.69 329.98 159.21 328.87 150.52 327.12 142.14 324.3 134.09 320.73 126.26 316.67 119.12 311.46 112.77 305.31 106.61 298.98 100.59 292.47 95.14 285.47 90.17 278.12 86.23 270.14 80.66 263.15 76.92 255.08 72.51 247.41 67.83 239.66"/>
    <polygon class="uuid-9300ec61-c48c-41f6-bd3e-9c69863e3b09" points="204.2 245.93 201.42 236.91 194.95 229.88 186.23 225.89 176.64 225.6 168.11 229.73 161.37 236.13 156.75 244.47 156.57 254.12 160.73 262.67 167.23 269.28 175.56 273.38 184.93 273.82 193.89 270.72 200.96 264.24 205 255.45 204.2 245.93"/>
    <polygon class="uuid-9300ec61-c48c-41f6-bd3e-9c69863e3b09" points="214.26 358.98 215.27 350.09 217.05 340.87 217.19 331.47 219.04 322.26 219.23 312.86 220.82 303.62 221.53 294.28 222.36 284.96 223.02 275.62 224.77 266.39 225.47 257.05 226.88 247.93 235.24 248.93 243.81 251.19 252.32 253.87 260.08 258.37 266.27 264.83 271.88 271.68 276.67 279.24 278.76 287.93 281.01 296.59 280.49 305.53 280.87 314.68 278.99 323.64 277.45 332.6 275.05 341.35 271.99 349.9 269.16 358.62 264.79 366.66 259.8 374.3 254.2 381.52 249.62 389.46 244.3 396.89 238.38 404.03 229.04 403.61 219.88 403.91 210.72 404.13 201.55 405.04 192.38 404.76 183.23 404.02 174.12 403.01 164.93 402.71 155.85 401.24 146.94 398.93 138.58 395.07 130.11 391.64 121.86 387.54 114.5 381.68 108.45 374.49 103.18 366.77 99.59 358.13 97.37 349.06 96.23 339.79 95.55 330.42 96.89 320.51 105.52 323.27 113.83 326.3 122.14 329.31 130.49 332.23 138.98 334.69 147.33 337.58 155.7 340.43 164.12 343.11 172.44 346.11 180.85 348.83 189.44 350.97 197.78 353.92 206.16 356.73 214.26 358.98"/>
  </g>
</svg>