<?xml version="1.0" encoding="UTF-8"?>
<svg xmlns="http://www.w3.org/2000/svg" width="504" height="360" viewBox="0 0 504 360">
  <defs>
    <style>
      .uuid-9c59dd35-02d3-4e88-9eb7-523cc77dc293 {
        fill: #fff;
      }

      .uuid-b0826525-6bf9-4931-b9d9-731a48f94bbc {
        fill: #1c838e;
      }
    </style>
  </defs>
  <g id="uuid-d650e7c5-0855-46cb-b974-7e8e716109f3" data-name="bg">
    <rect class="uuid-9c59dd35-02d3-4e88-9eb7-523cc77dc293" x="72" y="-72.05" width="360" height="504" transform="translate(431.95 -72.05) rotate(90)"/>
  </g>
  <g id="uuid-734b54c9-544f-41e9-bbf9-26be904944aa" data-name="Layer 1">
    <g>
      <polygon class="uuid-b0826525-6bf9-4931-b9d9-731a48f94bbc" points="333.63 88.18 327.33 88.83 321.12 90.37 316.02 94.25 312.14 99.23 309.09 104.79 307.59 110.88 301.51 110.64 295.41 110.09 289.31 109.59 283.22 108.98 277.1 108.61 271.05 107.55 264.93 107.19 258.86 106.34 252.75 105.93 246.69 105.03 240.53 105.11 234.46 104.31 228.38 103.51 222.23 103.58 216.16 102.65 210.07 102 203.98 101.41 197.91 100.54 191.73 100.83 185.64 100.21 179.55 99.59 173.47 98.9 167.39 98.1 161.29 97.56 155.15 97.41 149.07 96.7 143.26 96.23 143.38 102.43 143.38 108.91 142.93 115.4 143.07 121.88 143.09 128.37 143.86 134.84 143.82 141.16 149.71 140.27 155.83 139.88 161.97 139.54 167.97 138.08 174.08 137.61 180.16 136.79 186.27 136.25 192.32 135.21 198.39 134.39 204.52 133.99 210.6 133.23 216.68 132.4 222.78 131.8 228.91 131.44 234.97 130.45 241.02 129.45 247.18 129.35 253.21 128.12 259.35 127.82 265.42 126.98 271.48 125.97 277.57 125.33 283.7 124.96 289.75 123.92 295.87 123.41 301.93 122.47 308.07 121.47 309.58 127.78 313.15 132.91 316.79 138 322.37 140.9 328.44 142.1 334.59 142.81 340.8 142.33 346.78 140.58 352.42 137.78 356.34 132.86 359.35 127.39 360.28 121.21 360.61 115.02 360.36 108.83 358.34 102.99 355.67 97.39 351.18 93.07 345.68 90.28 339.82 88.34 333.63 88.18"/>
      <polygon class="uuid-b0826525-6bf9-4931-b9d9-731a48f94bbc" points="333.75 198.08 331.82 192.29 330.05 186.42 328.55 180.41 325.45 175.06 322.75 169.54 318.77 164.84 314.76 160.22 310.35 155.89 304.82 153.1 299.43 150.19 293.8 147.69 287.84 146.14 281.8 145 275.84 143.38 269.74 142.51 263.57 142.3 257.44 141.63 251.27 142.04 245.12 141.67 238.97 141.87 232.83 142.25 226.66 142.14 220.55 142.98 214.36 142.68 208.26 143.64 202.1 143.94 195.68 144.52 199.7 149.75 204.16 154.21 208.56 158.7 212.97 163.18 217.79 167.2 222.66 171.17 227.47 175.25 232.97 178.35 238.04 182.11 243.67 184.93 249.38 187.57 254.72 191 260.72 193.01 266.53 195.42 272.35 197.88 278.36 199.8 284.57 200.98 290.71 202.33 296.71 204.14 296.59 204.91 290.36 204.26 284.19 203.21 277.92 203.01 271.73 202.09 265.57 200.86 259.3 200.72 253.07 200.26 246.84 199.68 240.62 199.04 234.41 198.29 228.13 198.46 221.94 197.26 215.66 197.58 209.41 197.36 203.16 197.31 196.92 196.75 190.67 196.87 184.41 196.86 178.39 197.44 172.4 198.13 166.44 199.08 160.64 200.82 155.35 203.77 150.61 207.51 147.34 212.55 144.77 217.96 143.78 223.91 143.26 229.96 144.32 235.94 145.89 241.76 147.07 247.71 153.1 246.84 158.99 245.33 164.91 243.94 170.79 242.37 176.87 241.77 182.8 240.41 188.77 239.29 194.72 238.03 200.56 236.3 206.52 235.1 212.56 234.3 218.52 233.07 224.35 231.26 230.28 229.93 236.26 228.86 242.22 227.64 248.09 226.03 254.13 225.22 260.1 224.09 266 222.62 272.05 221.83 278 220.58 283.84 218.84 289.84 217.84 295.75 216.28 295.8 216.8 290.77 220.1 285.54 223.12 280.18 225.9 274.85 228.75 269.59 231.73 264.08 234.22 258.92 237.38 253.49 240.04 248.08 242.72 242.77 245.6 237.32 248.21 232.29 251.61 226.88 254.31 221.52 257.09 216.18 259.91 210.77 262.59 205.7 265.93 200.34 268.72 194.62 270.95 194.95 272.34 201.27 272.62 207.56 273.77 213.95 273.49 220.29 273.87 226.63 274.48 232.97 274.97 239.33 274.98 245.69 274.73 252.04 275.16 258.4 275.18 264.76 275.39 271.11 274.74 277.47 274.87 283.6 274.97 289.7 274.31 295.76 273.4 301.8 272.55 307.83 271.51 313.5 269.22 319.27 267.08 323.96 263.1 328.31 258.76 331.32 253.39 333.18 247.55 334.73 241.6 334.89 235.46 335.35 228.98 337.16 222.72 339.78 216.78 344.46 212.28 350.04 208.98 356.18 206.99 362.59 206.32 368.9 205.17 375.28 204.53 381.48 203.78 378.62 198.78 375.03 194.06 371.19 189.5 366.5 185.77 360.9 183.63 354.97 183.19 348.04 183.71 342.09 187.25 337.73 192.52 333.75 198.08"/>
    </g>
  </g>
</svg>