<?xml version="1.0" encoding="UTF-8"?>
<svg xmlns="http://www.w3.org/2000/svg" width="504" height="360" viewBox="0 0 504 360">
  <defs>
    <style>
      .uuid-78a2cd88-05db-4e3f-baf4-41e18a334560 {
        fill: #231f20;
      }

      .uuid-1f235999-4720-4870-898d-769fbf89763e {
        fill: #fff;
      }

      .uuid-b22c0683-63dc-46f8-a241-2003de09ce09 {
        fill: #221f1f;
      }
    </style>
  </defs>
  <g id="uuid-c625c24a-b993-4c80-9a3a-7f2373bcc27d" data-name="bg">
    <rect class="uuid-1f235999-4720-4870-898d-769fbf89763e" x="72" y="-72" width="360" height="504" transform="translate(432 -72) rotate(90)"/>
  </g>
  <g id="uuid-544018cb-a4e4-4611-9d99-6c9b668fd665" data-name="Layer 1">
    <polygon class="uuid-b22c0683-63dc-46f8-a241-2003de09ce09" points="267.44 171.33 270.51 168.7 273.64 166.25 276.64 163.66 279.8 161.24 282.71 158.55 285.97 155.99 283.41 153.1 281.1 150.24 278.57 147.57 276.3 144.67 274 141.8 271.55 139.06 268.94 136.45 266.8 133.44 264.42 130.64 261.77 128.06 259.49 125.17 257.17 122.43 254.37 125.19 251.2 127.66 248.47 130.61 245.48 133.28 242.7 136.18 239.54 138.66 236.75 141.55 233.59 144.03 230.9 147.03 227.85 149.63 225.14 152.43 227.8 155.07 230.46 157.88 233.18 160.64 236.03 163.26 238.48 166.29 241.33 168.91 244.05 171.64 240.23 171.71 236.37 172.14 232.53 172.72 228.71 173.4 224.97 174.43 221.2 175.34 217.53 176.63 214.17 178.58 210.85 180.64 208.3 183.59 206.24 186.88 204.81 190.52 204.73 194.43 205.29 198.4 206.49 202.19 208.38 205.7 211.17 208.57 214.24 211.14 217.7 213.17 221.37 214.8 224.85 216.4 227.69 213.79 230.27 210.85 233.24 208.27 235.95 205.46 238.67 202.65 241.07 199.53 243.77 196.7 246.51 193.9 249.36 191.21 251.9 188.23 254.67 185.34 257.15 188.66 259.93 191.39 262.18 194.57 264.89 197.36 267.4 200.32 270.08 203.14 272.31 206.34 275.17 209 277.62 212.01 280.13 214.97 282.74 217.87 285.39 215.27 288.25 212.93 291.16 210.65 293.96 208.22 296.39 205.41 298.25 202.21 299.74 198.87 300.68 195.32 301.13 191.65 300.62 187.74 298.68 184.35 296.37 181.28 293.68 178.47 290.41 176.32 286.7 175.04 283.04 173.74 279.29 172.65 275.41 172.25 271.55 171.73 267.44 171.33"/>
    <polygon class="uuid-b22c0683-63dc-46f8-a241-2003de09ce09" points="191.74 175.91 193.67 172.23 195.13 168.53 196.91 164.95 198.1 161.14 198.67 157.17 198.51 153.18 197.86 149.27 196.59 145.52 194.92 141.93 192.9 138.5 196.72 138.47 200.53 138.52 204.31 139 208.13 139.41 211.72 140.81 214.72 143.2 217.65 145.64 219.25 149.1 220.74 152.62 220.8 156.46 220.62 160.47 219.43 164.29 217.76 167.95 214.8 170.67 211.54 172.97 207.8 174.38 203.93 175.4 199.94 175.86 195.93 175.97 191.74 175.91"/>
    <polygon class="uuid-b22c0683-63dc-46f8-a241-2003de09ce09" points="290.58 172.29 290.62 168.51 290.72 164.77 290.38 161.04 290.24 157.31 290.12 153.57 290.27 149.83 289.79 146.1 290 142.36 289.94 138.69 293.62 138.89 297.39 138.61 301.14 138.91 304.89 139.24 308.64 139.21 312.4 139.42 316.08 139.7 316.49 143.26 316.35 147.02 316.52 150.79 315.73 154.48 315.08 158.2 313.25 161.51 311.26 164.67 308.53 167.26 305.31 169.21 301.76 170.45 298.1 171.2 294.41 171.83 290.58 172.29"/>
    <polygon class="uuid-b22c0683-63dc-46f8-a241-2003de09ce09" points="272.34 229.82 268.55 229.62 264.85 229.53 261.16 229.23 257.46 229.42 253.76 229.28 250.06 229.27 246.36 229.16 242.66 229.62 238.97 229.15 235.26 229.33 235.16 225.46 235.12 221.61 236.15 217.88 237.06 214.15 239.06 210.88 241.25 207.71 244.53 205.71 247.87 203.81 251.63 202.88 255.49 202.61 259.3 203.47 262.84 204.95 265.89 207.36 268.08 210.61 269.62 214.21 270.36 218.06 271.22 221.85 272.02 225.67 272.34 229.82"/>
    <path class="uuid-b22c0683-63dc-46f8-a241-2003de09ce09" d="M357.79,178.95v3.89s1.18,3.7,1.18,3.7l1.34,3.59,1.97,3.3,2.51,2.92,3.06,2.35,3.25,2.14,3.65,1.38,3.85.62,3.81.85,3.9-.16,3.65-.03,3.61-.5,3.63-.41,3.51-1.09,3.07-2,2.77-2.42,1.2-3.47.8-3.57-.58-3.86-1.11-3.74-2.86-2.62-3.2-2.19-3.7-1.26-3.83-.71-3.87-.44-3.88-.28-3.86-.49-3.89-.17h-3.73s2.46-3.01,2.46-3.01l2.89-2.69,2.63-2.94,2.62-2.95,2.71-2.87,2.7-2.88,2.57-2.99,2.81-2.72-2.29-3.04-2.23-3.12-2.32-3.05-2.18-3.16-2.56-2.87-2.07-3.24-2.41-2.98-2.48-3.04,4.1-.24,3.87-.06,3.87-.17,3.87.19,3.89-.26,3.84.64,3.9.09,3.83.67,3.75,1.01,3.72,1.12,3.49,1.71,3.63,1.4,3.05,2.42,3.19,2.2,2.74,2.48,2.3,2.9,1.88,3.18,1.94,3.14,1.16,3.51,1.1,3.5,1.1,3.51.68,3.62.76,3.62-.2,3.71.34,3.67-.2,3.85.16,3.86-.45,3.83-.73,3.79-.83,3.75-.83,3.76-1.31,3.63-1.84,3.38-1.99,3.28-2.1,3.25-2.64,2.63-2.64,2.63-3.18,1.97-2.95,2.24-3.12,2.04-3.36,1.61-3.54,1.16-3.55,1.07-3.46,1.45-3.72.38-3.64.77-3.69.49-3.71.37-3.73-.15-3.86-.38-3.83-.43-3.84-.5-3.84-.66-3.63-1.4-3.56-1.55-3.33-1.98-3.42-1.81-3.08-2.35-2.96-2.48-2.67-2.79-2.86-2.66-1.86-3.43-2.12-3.24-1.58-3.54-1.57-3.56-.62-3.85-.95-3.76-.16-3.88-.47-3.86.48-3.8-.06-3.82.5-3.79.86-3.73,1.58-3.49,1.52-3.47,1.81-3.36,2.46-2.94,2.92-2.48,3.46-1.62,3.49-1.47,3.66-1.1,3.82-.16,3.82-.23,3.79.5,3.77.63,3.57,1.39,3.72.94.29.62-3.87,1.38-3.46,2.07-3.47,2.02-3.4,2.18-2.7,3-2.47,3.14-1.77,3.57-1.46,3.75-.28,4.02-.25,4ZM426.36,155.35l-.67-4.21-2.55-3.42-2.44-2.16-3.02-1.28-3.27-.47-4.45.83-4.14,1.99-2.59,4.01-.36,4.72.3,4.18,2.22,3.56,2.69,2.26,3.35,1.09,3.48.67,3.66-.55,3.12-1.94,2.77-2.38,1.33-3.39.6-3.52Z"/>
    <polygon class="uuid-b22c0683-63dc-46f8-a241-2003de09ce09" points="386.74 235.09 384.27 237.79 381.41 240.34 379.25 243.48 377.22 246.69 374.91 249.73 373.3 253.18 371.8 256.67 370.71 260.32 370.75 264.36 370.87 268.4 372.99 271.84 375.83 274.72 379.6 276.2 383.52 277.13 387.26 277.29 391.01 277.51 394.69 276.67 398.1 275.07 400.76 272.44 402.72 269.32 404.03 265.84 404.3 262.16 403.33 258.6 402.23 255.1 400.5 251.87 398.85 248.59 396.48 245.76 394.47 242.69 391.83 240.13 389.3 237.49 386.74 235.09"/>
    <g>
      <polygon class="uuid-78a2cd88-05db-4e3f-baf4-41e18a334560" points="84 230.82 80.86 228.93 77.59 227.09 74.24 225.38 71.18 223.19 67.86 221.43 64.71 219.4 61.41 217.48 61.7 213.47 61.3 209.64 61.47 205.8 61.67 201.97 61.76 198.14 61.95 194.31 61.96 190.48 61.76 186.64 62.22 182.82 62.2 178.99 62.72 175.18 62.8 171.35 62.91 167.51 63.67 163.73 64.1 159.93 64.8 156.16 65.61 152.42 66.07 148.6 67.03 144.88 68.49 141.33 69.98 137.8 71.93 134.49 74.49 131.65 77.56 129.36 81.24 128.37 85 127.75 88.69 128.39 92.36 129.26 95.39 131.54 97.78 134.47 99.48 137.83 100.86 141.35 101.48 145.02 103.33 141.62 105.33 138.27 106.92 134.7 108.57 131.16 110.78 127.93 112.38 124.36 114.24 121.06 116.03 124.31 118.02 127.55 119.71 130.97 121.33 134.43 123.17 137.76 125.16 141.02 127.21 144.16 128.07 140.73 129.69 137.35 131.81 134.28 134.22 131.47 137.27 129.36 140.84 128.28 144.55 128.19 148.28 128.25 151.87 129.36 154.99 131.41 157.58 134.11 159.44 137.35 161.38 140.57 162.32 144.22 163.73 147.71 164.45 151.4 165.05 155.11 165.93 158.76 166.22 162.51 166.58 166.24 167.17 169.95 167.49 173.69 167.54 177.44 168.05 181.17 167.93 184.93 168.38 188.66 168.35 192.42 168.87 196.15 168.5 199.91 168.88 203.65 168.94 207.4 168.82 211.15 169.12 214.9 169 218.61 165.82 220.2 162.73 222 159.64 223.81 156.46 225.43 153.29 227.09 150.23 228.93 146.98 230.53 146.85 226.69 146.71 222.99 146.86 219.28 147.01 215.57 146.69 211.87 146.54 208.16 146.53 204.45 146.56 200.74 146.1 197.05 145.99 193.34 145.67 189.65 145.35 185.96 145.1 182.25 144.44 178.6 143.97 174.93 143.35 171.02 142.1 167.24 140.14 163.77 137.13 161.18 134.22 158.46 130.53 156.98 126.76 155.75 122.83 155.2 118.9 154.82 114.94 154.6 111.18 154.62 107.47 155.33 103.83 156.21 100.29 157.4 96.98 159.14 93.85 161.26 91.39 164.14 89.78 167.55 88.21 170.92 86.83 174.42 86.23 178.14 86.07 181.93 85.58 185.69 84.95 189.43 84.96 193.23 84.79 197.01 84.57 200.79 84.36 204.57 84.42 208.36 84.03 212.14 84.24 215.93 83.81 219.71 84.19 223.5 83.79 227.28 84 230.82"/>
      <polygon class="uuid-78a2cd88-05db-4e3f-baf4-41e18a334560" points="95.78 182.07 99.71 181.62 103.67 181.71 107.64 182.03 111.61 181.92 115.58 181.57 119.55 181.65 123.52 181.96 127.48 181.67 131.45 181.62 135.44 181.67 137.13 185.29 138.63 188.94 139.24 192.85 139.92 196.73 139.35 200.64 138.92 204.57 137.06 208.05 134.98 211.36 132.47 214.41 129.18 216.62 125.65 218.35 121.88 219.42 118.04 220.21 114.12 220.75 110.4 220.1 106.77 219.26 103.35 217.78 100.05 215.99 97.39 213.34 94.89 210.52 93.13 207.18 91.9 203.6 91.43 199.87 91.35 196.12 91.54 192.35 92.72 188.28 93.97 185.13 95.78 182.07"/>
    </g>
  </g>
</svg>