<?xml version="1.0" encoding="UTF-8"?>
<svg xmlns="http://www.w3.org/2000/svg" width="360" height="503.91" viewBox="0 0 360 503.91">
  <defs>
    <style>
      .uuid-a7b4c5c2-bee0-4f6b-96fc-c9e9691325ba {
        fill: #fff;
      }

      .uuid-77fa2daf-0f8b-4f9b-913f-3bdfe7a31227 {
        fill: #1c838e;
      }
    </style>
  </defs>
  <g id="uuid-d4a5e418-9e1f-410e-bf5d-40811f61dd18" data-name="bg">
    <rect class="uuid-a7b4c5c2-bee0-4f6b-96fc-c9e9691325ba" y="-.05" width="360" height="504"/>
  </g>
  <g id="uuid-356d5b11-9dd1-49dd-94fe-22f6326d1f73" data-name="Layer 1">
    <g>
      <polygon class="uuid-77fa2daf-0f8b-4f9b-913f-3bdfe7a31227" points="162.93 370.37 157.49 366.85 152.19 362.93 146.36 359.83 140.69 356.36 135.02 352.78 129.86 349.02 132.31 343.28 135.98 337.52 139.65 332.24 143.15 327.06 147.29 322.37 152.1 318.38 156.84 314.39 161.86 310.72 167.32 307.73 173.14 305.52 178.99 303.31 185.17 302.35 191.37 301.57 197.62 301.58 204.23 302.04 210.89 302.16 217.38 303.61 223.91 304.95 230.1 307.43 235.85 310.8 241.21 314.72 246.1 319.22 250.38 324.3 253.98 329.87 257.34 335.56 260.56 341.34 263.9 347.15 258.84 351.28 253.2 354.6 248.23 358.8 243.22 362.96 237.58 366.28 232.52 370.18 230.23 364.93 227.05 359.77 223.95 354.54 220.16 349.79 215.29 346.14 210.6 342.31 204.76 340.69 198.78 339.62 192.46 340.22 186.38 341.93 180.94 345.07 176.1 349.04 172.3 354.02 168.85 359.26 165.26 364.5 162.93 370.37"/>
      <polygon class="uuid-77fa2daf-0f8b-4f9b-913f-3bdfe7a31227" points="145.42 305.84 140.68 310.52 136.79 315.79 131.94 320.21 128.16 325.56 123.78 330.38 119.51 335.2 115.15 340.16 109.29 336.91 103.73 333.31 97.82 330.34 92.21 326.85 86.29 323.83 80.61 320.43 74.96 317.11 68.99 314.3 63.38 310.6 57.97 306.6 52.39 303.31 55.6 298.29 58.96 293.48 63 288.56 68.53 285 74.81 283.27 81.23 282.54 87.72 283.3 93.59 286.18 99.3 289.23 104.03 292.29 108.77 295.34 113.16 298.49 113.26 292.04 112.49 285.42 112.35 278.79 112.19 272.15 112.47 265.5 111.99 258.87 111.58 252.25 111.43 245.61 111.03 238.98 110.5 232.36 110.62 225.71 110.89 219.06 109.95 212.45 110.07 205.8 109.58 199.18 109.46 192.9 109.48 186.62 110.4 180.4 112.09 174.33 115.37 168.94 120.2 164.95 125.71 161.9 131.98 161.02 138.28 161.06 144.8 162.1 144.74 168.72 144.89 175.24 144.16 181.77 144.21 188.29 144.55 194.81 144.26 201.34 144.67 207.86 144.65 214.38 145.13 220.91 144.39 227.43 144.43 233.96 145.06 240.48 144.83 247 144.71 253.53 145.14 260.05 144.89 266.57 144.78 273.1 144.54 279.62 145.2 286.15 145.02 292.67 145.51 299.18 145.42 305.84"/>
      <polygon class="uuid-77fa2daf-0f8b-4f9b-913f-3bdfe7a31227" points="156.83 299.06 156.59 292.52 156.83 286.05 157.13 279.59 157.33 273.13 156.66 266.67 156.44 260.21 156.42 253.75 156.38 247.29 156.49 240.83 156.67 234.37 156.71 227.91 156.98 221.44 156.53 214.98 156.26 208.53 156.2 202.06 156.42 195.6 156.14 189.14 156.27 182.68 156.15 176.22 156.03 169.76 156.03 163.3 156.2 156.83 156.15 150.37 156.09 143.91 156.09 137.54 162.9 137.21 169.79 137.32 176.69 137.59 183.58 137.54 190.47 138.06 197.23 138.2 197.44 144.21 197.47 150.66 196.43 157.04 195.89 163.44 195.19 169.83 193.87 176.12 192.64 182.43 190.47 188.49 188.26 194.52 185.55 200.34 182.53 206.01 178.91 211.32 175.45 216.77 171.05 221.48 167.04 226.01 173.72 226.17 180.5 226.98 187.3 227.05 194.13 226.99 194.59 233.34 194.36 239.61 193.46 245.83 192.78 252.03 191.88 258.21 190.97 264.43 188.99 270.41 186.03 275.97 182.27 280.99 178.34 285.88 173.54 289.95 168.41 293.58 162.71 296.24 156.83 299.06"/>
      <polygon class="uuid-77fa2daf-0f8b-4f9b-913f-3bdfe7a31227" points="205.16 168.87 205.72 175.02 206.16 181.13 206.87 187.26 208.83 193.11 210.12 199.13 210.78 205.24 211.48 211.31 211.95 217.44 211.38 223.98 209.39 230.24 207.39 236.46 205.33 242.67 202.6 248.64 200.73 254.92 199.66 261.38 198.32 267.79 198.86 274.63 199.58 281.49 203.15 287.38 208.29 291.95 215.08 293.01 221.1 292.55 226.8 290.72 231.83 287.32 234.6 281.89 236.55 276.18 237.61 270.22 238.94 264.21 237.96 257.69 237.42 251.16 235.68 244.83 234.75 238.34 233.89 231.87 233.29 225.34 234.89 218.94 237.38 212.85 240.63 207.12 243.46 201.17 246.46 195.3 248.48 189 250.94 182.89 252.27 176.39 251.71 169.82 251.09 163.3 248.74 157.15 244.21 152.46 238.46 149.59 232.07 148.6 225.84 148.7 219.74 150.07 214.07 152.78 209.65 157.26 206.39 162.66 205.16 168.87"/>
      <polygon class="uuid-77fa2daf-0f8b-4f9b-913f-3bdfe7a31227" points="237.47 298.43 239.09 292.45 241.51 286.66 244.13 280.96 246.63 275.21 248.93 269.37 250.62 263.29 253.31 257.62 255.71 251.82 257.89 245.94 260.52 240.24 262.26 234.18 264.81 228.45 267.09 222.61 269.85 216.96 271.64 210.92 274.04 205.12 276.73 199.49 278.31 199.74 278.71 205.92 278.52 212.22 278.59 218.51 278.49 224.8 278.33 231.09 278.74 237.38 278.5 243.67 278.75 249.97 278.47 256.26 278.91 262.55 278.27 268.84 278.69 275.13 278.43 281.42 278.82 287.72 278.79 294.01 278.48 300.3 278.47 306.62 272.26 308.12 266 308.84 259.69 308.51 253.46 307.5 247.64 305.06 242.22 301.93 237.47 298.43"/>
    </g>
  </g>
</svg>