<?xml version="1.0" encoding="UTF-8"?>
<svg xmlns="http://www.w3.org/2000/svg" width="504" height="360" viewBox="0 0 504 360">
  <defs>
    <style>
      .uuid-5b3b5c26-0da1-4a72-b53f-0dbd498555b3 {
        fill: #fff;
      }

      .uuid-dfd9a881-0aab-4b7f-8f1c-c323651831f1 {
        fill: #221f1f;
      }
    </style>
  </defs>
  <g id="uuid-c921ca08-2f78-4014-bb3d-ee19314f69c5" data-name="bg">
    <rect class="uuid-5b3b5c26-0da1-4a72-b53f-0dbd498555b3" x="72" y="-72.05" width="360" height="504" transform="translate(431.95 -72.05) rotate(90)"/>
  </g>
  <g id="uuid-34ac0eca-74c4-4c12-a94d-1948e738cf84" data-name="Layer 1">
    <path class="uuid-dfd9a881-0aab-4b7f-8f1c-c323651831f1" d="M340.3,109.45l-3.4,4.97-3.58,4.91-4.1,4.51-3.12,5.25-4.15,4.47-3.09,5.28-3.62,4.88-4.29,4.37-3.19,5.2-3.8,4.74-3.64,4.86-3.48,4.98-3.77,4.76-3.71,4.81-3.66,4.82,5.84,1.84,5.96,1.6,6.05,1.17,6.11.77,6.14.55,6.16-.09,6.19-.05,6.1-1.03,6.03-1.32,6.13-1.01,5.82-2.15,5.85-2.01,5.67-2.44.62,1.23-.8,6.08-1.32,6.1-1.56,6.05-2.08,5.9-3.03,5.47-3.28,5.34-4.54,4.33-5.17,3.52-5.8,2.32-6.03,1.58-5.89.41-5.94.2-5.66-1.78-5.46-2.15-5.14-2.86-4.9-3.33-4.22-4.17-3.69-4.64-3.11-5.2-1.37.94,2.15,5.77,2.77,5.48,1.91,5.8,1.96,5.78,1.78,5.84,2.75,5.49,1.48,5.96,2.33,5.64,2.21,5.69,1.78,5.84,2.32,5.65,2.53,5.57,2.23,5.68,2.02,5.82-1.33.56-4.28-3.93-4.68-3.6-4.08-4.23-4.09-4.22-4.06-4.25-4.7-3.58-3.96-4.36-4.52-3.76-4.37-3.93-4.33-3.97-3.82-4.5-4.45-3.84-4.55-3.74-3.81-4.55-1.08.23-.75,6.01-1.14,5.92-1.2,5.91-.88,5.97-1.06,5.94-1.21,5.91-1.23,5.91-.53,6.03-1.28,5.9-1.54,5.74-5.03-2.06-5.31-2.25-4.91-3.06-4.13-4.04-4.07-4.15-2.17-5.4-1.99-5.38-.54-5.71-.48-5.78,1.47-5.95,1.74-5.81,2.42-5.55,3.22-5.16,4.21-4.41,4.48-4.14,4.79-3.9-.85-1.02-5.16,3.52-5.48,2.73-5.82,1.92-5.81,1.87-5.9,1.56-5.92,1.49-6.07.71-5.99,1.21-6.07.67-6.09.38-6.09.56-6.11-.52-5.83-.34-5.87-.65-5.63-1.9-4.82-3.45-4.35-3.92-3.72-4.5-3.49-4.78-1.97-5.59-1.13-5.78-.83-5.83,6.22.63,6.23.23,6.26-.42,6.22.63,6.23.38,6.23.29,6.24.12,6.25-.1,6.22.56,6.23.34,6.22.54,6.23.39,6.26-.33,6.21.7,6.25-.07,6.2.16.29-.92-5.98-1.93-5.48-3.01-5.82-2.3-5.46-3.04-5.34-3.24-5.01-3.74-4.82-3.95-4.76-4.01-4.63-4.16-4.53-4.26-4.46-4.35-4.03-4.38-3.7-4.66-3.5-4.84-3.18-5.1-2.21-5.59-1.67-5.76-1.21-5.86-.53-5.95-.52-6.18,6-.42,5.74-.46,5.75-.28,5.8.13,5.64,1.39,5.39,2.11,5.33,2.32,4.48,3.71,4.52,3.57,4.59,3.88,4.3,4.23,3.46,4.94,3.21,5.09,3.04,5.18,3.12,5.13,3.35,5.03,2.72,5.37,2.42,5.52,2.94,5.19h.37s-.64-6-.64-6l-1.02-5.93-.87-5.96-.58-5.99-.71-5.98-.06-6.03-.33-6.01v-6.02s0-6.02,0-6.02l.39-6,.03-6.04,1.21-5.91.77-5.98,1.76-5.76,1.94-5.69,2.69-5.37,3.43-4.56,4.02-4.06,5.04-2.7,5.46-1.6,5.59-1.25,5.73-.18,5.73.05,6.02.7-1.57,5.85-1.05,5.84-1.71,5.71-.69,5.92-1.51,5.75-.96,5.86-1.68,5.71-1.01,5.85-1.14,5.82-1.09,5.84-1.03,5.85-1.63,5.72-1.46,5.76-.97,5.86-1.12,5.83-1.46,5.79,1.08,1.11,5.29-3.46,5.48-3.03,5.34-3.25,5.1-3.66,5.48-3.03,5.19-3.5,5.67-2.72,5.25-3.41,5.22-3.45,5.45-3.08,5.5-2.99,5.03-3.79,5.58-2.87,5.3-3.33,5.38-3.24.72,1.38ZM281.62,193.62l-1.22-6.26-2.34-5.89-2.79-5.76-4.77-4.26-5.03-3.94-6.33-.64-5.59.61-5.66,1.05-4.56,3.52-4.14,3.89-3.08,4.8-1.85,5.37-.93,5.57.7,5.53,2.17,5.14,3.55,4.29,4.55,3.16,5.24,1.76,5.51.5,6.12-.14,6.01-1.08,5.85-1.8,4.64-3.98,2.7-5.41,1.25-6.02Z"/>
  </g>
</svg>