<?xml version="1.0" encoding="UTF-8"?>
<svg xmlns="http://www.w3.org/2000/svg" width="360" height="504" viewBox="0 0 360 504">
  <defs>
    <style>
      .uuid-9419de2d-79c0-431d-9186-1dd3dc51f422 {
        fill: #fff;
      }

      .uuid-0c06528b-1ef9-4e43-97b4-07729e380aa5 {
        fill: #1c838e;
      }
    </style>
  </defs>
  <g id="uuid-f1f1de44-4098-450b-bb1e-9deb1f41eb39" data-name="bg">
    <rect class="uuid-9419de2d-79c0-431d-9186-1dd3dc51f422" x="0" width="360" height="504"/>
  </g>
  <g id="uuid-c587b88f-4c6e-4921-bc58-a1917ebc3782" data-name="Layer 1">
    <polygon class="uuid-0c06528b-1ef9-4e43-97b4-07729e380aa5" points="139.1 178.64 139.71 172.52 141.21 166.56 143.07 160.63 146.38 155.35 150.51 150.68 155.51 146.92 161.12 144.2 166.99 142.07 173.22 141.61 179.39 140.82 185.62 141.36 191.85 142.07 197.66 144.44 203.49 146.78 208.47 150.61 212.34 154.19 215.71 158.28 218.28 162.92 219.93 167.95 221 173.1 221.63 178.35 220.96 184.4 219.71 190.33 217.92 196.09 215.43 201.6 212.19 206.75 208.1 210.56 203.31 213.4 198.16 215.49 192.72 216.49 187.31 217.92 181.74 217.93 176.12 217.96 170.55 217.2 165.17 215.55 159.92 213.75 154.58 211.95 150.07 208.56 146.65 204.28 143.43 199.86 141.2 194.85 140.05 189.49 139.47 184.07 139.1 178.64"/>
    <polygon class="uuid-0c06528b-1ef9-4e43-97b4-07729e380aa5" points="222.05 377.53 216.4 377.58 210.64 377.21 204.88 377.19 199.12 377.65 193.36 377.12 187.6 377.51 181.84 377.74 176.08 377.53 170.33 377.79 164.56 377.5 158.81 377.87 153.05 377.56 147.28 377.56 141.49 377.59 145.17 382.15 149.01 386.42 153.1 390.48 156.8 394.88 159.77 399.83 163.59 404.18 166.24 409.3 169.33 414.16 171.42 419.55 174.14 424.63 175.74 430.17 177.98 435.48 179.5 441.02 181.31 446.48 182.28 452.35 184.14 452.31 185.29 446.63 186.5 441.08 187.58 435.49 189.19 430.03 191.64 424.87 193.69 419.58 196.22 414.49 198.84 409.44 202.19 404.83 205.36 400.12 208.7 395.54 211.99 390.9 215.17 386.19 219.01 381.96 222.05 377.53"/>
    <path class="uuid-0c06528b-1ef9-4e43-97b4-07729e380aa5" d="M218.73,286.7l-.04-5.75-.23-5.86.26-5.86.39-5.86.03-5.86-.17-5.95-4.86-3.42-4.68-3.51-4.9-3.2-4.84-3.29-4.39-3.91-4.92-3.18-4.78-3.38-4.63-3.51-4.75,3.27-5,2.95-5.15,2.71-4.75,3.35-5.2,2.62-4.82,3.23-4.74,3.36-4.96,2.87-.3,5.4.32,5.48-.2,5.48.16,5.48.14,5.48-.34,5.48.11,5.44,5.49-.26,5.53.49,5.53-.45,5.53.08,5.53.37,5.53-.42,5.53.16,5.53.38,5.53-.07,5.53-.25,5.53-.04,5.53.26,5.53-.03,5.41-.29Z"/>
    <polygon class="uuid-0c06528b-1ef9-4e43-97b4-07729e380aa5" points="180 134.59 175.85 130.14 171.62 125.99 166.86 122.4 163 117.85 158.69 113.79 154.2 109.91 149.87 105.86 145.55 101.8 140.99 97.99 136.62 93.89 138 88.23 139.84 82.91 142.77 78.11 145.82 73.39 150.19 69.86 154.55 66.28 159.84 64.29 165.34 63.25 170.85 62.36 176.43 61.59 182.08 61.96 187.73 62.35 193.33 63.26 198.6 65.35 203.9 67.3 208.59 70.47 212.44 74.6 216.09 78.89 219.2 83.63 221.51 88.81 223.38 94.14 218.93 98.03 214.48 101.94 210.64 106.49 206.26 110.47 201.45 113.99 197.57 118.51 193.25 122.55 188.69 126.33 184.44 130.46 180 134.59"/>
    <polygon class="uuid-0c06528b-1ef9-4e43-97b4-07729e380aa5" points="181.6 370.8 176.72 367.53 172.15 364.04 167.25 361.03 162.7 357.51 158.5 353.58 154.09 349.86 150.37 345.45 146.87 340.86 144.44 335.62 142.41 330.29 140.49 324.86 140.44 319.1 140.52 313.76 141.33 308.46 143.42 303.51 147.27 299.82 152.23 298.09 157.48 297.15 162.71 297.95 166.8 301.16 170.35 305.02 172.86 309.66 176.39 313.57 181.38 315.33 186.53 312.57 190.75 308.47 194.31 303.73 198.8 299.84 204.45 298.57 209.87 299.17 214.68 301.74 217.73 306.33 219.36 311.62 220.21 317.12 220.08 322.67 219.2 328.34 216.92 333.6 214.18 338.6 210.89 343.29 207.5 347.93 203.43 351.99 199.17 355.84 195.06 359.85 190.57 363.42 186.42 367.44 181.6 370.8"/>
  </g>
</svg>