<?xml version="1.0" encoding="UTF-8"?>
<svg xmlns="http://www.w3.org/2000/svg" width="504" height="360" viewBox="0 0 504 360">
  <defs>
    <style>
      .uuid-e89dc96b-dd21-438b-871c-4fc2dd53bc9b {
        fill: #fff;
      }

      .uuid-b28a2d4e-ccdf-4244-95d8-bb1bda0ca99d {
        fill: #221f1f;
      }
    </style>
  </defs>
  <g id="uuid-04bab830-46f7-400f-aedb-9b7d0e752ba9" data-name="bg">
    <rect class="uuid-e89dc96b-dd21-438b-871c-4fc2dd53bc9b" x="72" y="-72.05" width="360" height="504" transform="translate(431.95 -72.05) rotate(90)"/>
  </g>
  <g id="uuid-a03f227f-5ffb-4cf2-a561-0ffd5e119717" data-name="Layer 1">
    <polygon class="uuid-b28a2d4e-ccdf-4244-95d8-bb1bda0ca99d" points="166.92 108.93 164.46 114.26 162.3 120.01 159.93 125.68 157.3 131.24 155.13 136.98 153.25 142.85 150.39 148.31 148.07 154 145.73 159.67 143.83 165.53 140.99 171.01 139.03 176.82 145.06 177.09 151.1 176.89 157.14 177.15 163.18 176.67 169.22 176.98 175.26 176.71 181.3 176.43 187.34 176.92 193.38 176.58 199.42 176.33 205.46 176.34 211.5 176.82 217.54 176.19 223.58 176.18 229.62 176.33 235.69 176.83 235.73 176.08 231.88 171.43 227.1 167.69 222.69 163.58 218.89 158.85 214.34 154.87 209.8 150.9 205.98 146.18 201.3 142.35 197.1 138.02 192.95 133.64 188.47 129.6 184.26 125.29 179.86 121.17 175.2 117.31 171.25 112.73 166.92 108.93"/>
    <polygon class="uuid-b28a2d4e-ccdf-4244-95d8-bb1bda0ca99d" points="287.42 79.19 281.56 76.94 275.29 76.88 269.45 78.95 264.31 82.58 260.74 87.81 258.38 93.66 255.97 99.46 254.09 105.39 252.09 99.89 250.25 94.24 247.38 89.02 244.41 83.91 240.65 79.39 235.89 76.02 230.23 74.64 224.45 75.78 219.28 79.02 215.21 83.66 213.64 89.7 214 95.87 214.24 102.09 215.9 108.08 218.04 113.91 220.91 119.48 223.11 125.35 226.09 130.85 229.36 136.18 232.37 141.66 234.83 147.44 238.62 152.47 241.23 158.18 244.41 163.56 247.49 169.04 248.29 168.92 253.06 165.04 257.18 160.42 261.54 156.04 265.39 151.2 269.23 146.36 273.42 141.78 276.72 136.53 279.85 131.2 283.05 125.92 286.04 120.53 289.1 115.59 291.34 110.24 292.9 104.65 294.48 99.11 295.65 93.39 294.74 87.6 292.07 82.47 287.42 79.19"/>
    <polygon class="uuid-b28a2d4e-ccdf-4244-95d8-bb1bda0ca99d" points="331.98 126.25 328.21 128.8 322.42 132.19 315.54 136.96 309.83 141.15 305.02 144.72 300.44 148.53 295.54 151.86 290.62 155.18 285.9 158.78 280.8 161.84 276.02 165.35 271.4 169.09 266.17 171.97 261.45 175.58 256.84 179.28 256.8 179.29 262.62 181.32 268.6 182.89 274.41 185.08 280.5 186.26 286.34 188.33 292.27 190.08 298.2 191.84 304.2 193.34 310.17 194.97 316.12 196.66 321.96 198.72 327.88 200.5 333.64 201.91 339.26 203.41 345.2 204.87 347.91 199.54 350.17 193.73 352.62 188.05 353.67 182.01 353.77 175.74 353.87 169.46 353.31 163.39 352.43 157.3 350.55 151.27 347.95 145.42 344.56 140.01 340.28 135.21 336.13 130.54 331.98 126.25"/>
    <polygon class="uuid-b28a2d4e-ccdf-4244-95d8-bb1bda0ca99d" points="250.72 190.68 251.84 190.1 256.24 194.74 260.46 199.52 265.12 203.89 270.67 207.04 276.11 210.41 282.38 211.76 287.89 214.11 293.68 215.56 298.97 218.31 304.32 220.85 309.14 224.29 313.74 227.99 317.32 232.68 320.82 237.54 322.26 243.25 323.33 249.05 322.51 255 321.92 260.84 319.38 266.12 316.31 271.25 311.97 275.4 307.05 278.83 301.78 281.36 296.65 283.78 291.3 285.57 285.65 286.49 279.76 286.29 273.82 284.79 268.15 282.45 263.38 279.04 259.54 274.69 256 269.48 253.49 263.7 251.88 257.63 251.06 251.35 252.01 245.07 252.93 238.82 253.65 232.51 255 226.56 255.45 220.48 256.14 214.41 255.1 208.37 254.23 202.38 252.72 196.51 250.72 190.68"/>
    <polygon class="uuid-b28a2d4e-ccdf-4244-95d8-bb1bda0ca99d" points="236.78 188.81 230.57 189.38 224.5 190.93 218.38 192.2 212.47 194.28 206.31 195.52 200.5 197.86 194.65 200.07 189.27 203.31 183.5 205.76 178.29 209.23 173.64 213.41 168.77 217.32 164.9 222.21 161.59 227.49 159.61 233.37 157.87 239.41 159.2 245.56 160.46 251.63 163.17 257.24 166.91 262.23 171.51 266.45 177.13 269.17 183.11 270.72 189.22 271.42 195.45 271.8 201.43 269.95 207.5 268.36 213.06 265.32 217.47 260.78 221.47 255.94 224.57 250.48 227.6 244.97 229.96 239.13 231.76 233.08 233.2 226.94 234.2 220.72 235.56 214.56 235.89 208.25 236.74 202 237.61 195.73 237.85 189.34 236.78 188.81"/>
  </g>
</svg>