<?xml version="1.0" encoding="UTF-8"?>
<svg xmlns="http://www.w3.org/2000/svg" width="360" height="504" viewBox="0 0 360 504">
  <defs>
    <style>
      .uuid-91d8af30-0610-4b1a-88fe-b2435c08c99b {
        fill: #fff;
      }

      .uuid-7af386a4-dbe1-43f8-aa16-e798cd04b363 {
        fill: #221f1f;
      }
    </style>
  </defs>
  <g id="uuid-249de565-e403-4ab1-a617-45360df15fa9" data-name="bg">
    <rect class="uuid-91d8af30-0610-4b1a-88fe-b2435c08c99b" x="0" y="0" width="360" height="504"/>
  </g>
  <g id="uuid-52929cae-ec87-4b52-88a3-4c7cf676494b" data-name="Layer 1">
    <path class="uuid-7af386a4-dbe1-43f8-aa16-e798cd04b363" d="M105.09,185.28l-.69-5.79v-5.79s-.05-5.78-.05-5.78l-.48-5.76.28-5.78-.38-5.77.16-5.77.67-5.74.14-5.78.61-5.75,1.27-5.65,2.29-5.32,3.4-4.68,5.47-1.7,5.73,1.35,3.7,4.74,2.07,5.65,1.26,5.86,1.74,5.73.84,5.94,1.37,5.92,1.25-.3-.73-5.82-.03-5.74.15-5.74.49-5.72v-5.75s.48-5.72.48-5.72l1.52-5.57.67-5.71,2.36-5.22,2.8-4.89,5.15-2.06,5.62,1.89,2.79,5.31,2.6,5.44,1.16,5.91.88,5.95.7,5.97.88,5.85.22.02.43-5.82.49-5.9.23-5.91.03-5.93.61-5.9,1.07-5.83,1.77-5.65,2.33-5.36,3.3-4.92,5.79-1.69,5.47,2.17,3.53,4.54,2.69,5.26,1.28,5.78.72,5.87,1.12,5.81.43,5.9.15,5.91.7,5.88.46,5.82.25.04,1.16-5.66,1.75-5.59,1.48-5.66,1.91-5.53,2.62-5.21,2.95-5.09,5.52-1.8,5.28,2.26,2.98,5.1,1.64,5.71,1.1,5.85.33,5.95.51,5.94.28,5.96-.63,5.95.25,5.96-.25,5.94.91.45,1.93-6.08,2.38-5.82,2.59-5.71,2.76-5.62,3.38-5.3,5.43-3.05,5.27,2.67,3.37,5.08,1.06,6.02.87,6.01.51,6.06.17,6.08-.42,6.07.2,6.09-.17,6.08-.86,6.04v6.09s-1.12,6.01-1.12,6.01l-.45,5.83-5.52.81-5.78.24-5.74.83-5.36,2.22-5.02,2.74-4.8,3.26-2.96,4.99-2.23,5.29-1.08,5.65-1.23,5.68-.08,5.8.66,6.09-5.95-.19-5.84-.51-5.84.19h-5.84s-5.84.36-5.84.36l-5.84.17-5.84-.49-5.84.04-5.84.06-5.84.26-5.84.08h-5.94s.79-6.22.79-6.22l-.04-5.98-.13-5.97-1.01-5.88-1.82-5.64-2.92-5.12-4.43-3.9-5.18-3.04-5.95-.88-5.86-1.01-5.91-.79-5.99-.51ZM206.87,170.24l-.69-6.13-1.1-6.07-2.53-5.68-4.32-4.46-5.08-3.62-6.06-1.46-6.16-.57-6.25.15-5.88,2.13-5.13,3.42-4.03,4.61-2.87,5.45-1.24,6.06-.63,6.16.51,6.16,1.72,5.9,2.68,5.47,3.78,4.84,5.36,3.01,5.75,2.33,6.22.55,6.16-.59,5.57-2.6,5-3.36,4.04-4.47,3.08-5.25,1.29-5.96.81-6.04Z"/>
    <polygon class="uuid-7af386a4-dbe1-43f8-aa16-e798cd04b363" points="221.4 348.19 216.23 350.37 211.12 352.83 206.23 355.7 201.26 358.49 197.2 362.49 193.36 366.62 189.87 371.08 187.51 376.21 185.79 381.6 185.56 387.24 185.86 393.07 186.65 398.85 188.6 404.35 191.27 409.52 194.18 414.65 198.12 419.06 202.83 422.64 207.57 426.11 212.44 429.43 216.81 424.99 220.67 420.12 224.94 415.6 228.54 410.5 232.83 405.99 236.74 401.17 241.32 396.92 245.09 391.96 249.47 387.54 253.05 382.42 257.71 377.96 253.1 374.01 248.5 370.4 243.95 366.74 239.59 362.84 234.74 359.54 230.39 355.62 226.19 351.53 221.4 348.19"/>
    <polygon class="uuid-7af386a4-dbe1-43f8-aa16-e798cd04b363" points="100.97 371.92 105.99 368.29 110.37 364.38 115.45 361.45 119.98 357.69 125.44 355.48 130.58 352.67 136.25 351.19 142.04 350.69 147.93 350.61 153.36 352.88 158.71 355.28 163.19 359.08 167.77 362.76 171.5 367.68 175.15 372.65 177.19 378.46 178.53 384.48 177.94 390.61 176.82 396.67 174.49 402.38 171.84 407.95 168.36 413.04 164.62 417.92 160.93 422.83 157.14 428.18 152.78 423.72 148.64 419.24 144.53 414.73 139.92 410.72 135.59 406.43 131.74 401.67 127.1 397.68 122.81 393.35 118.77 388.77 113.97 384.95 109.8 380.49 105.74 375.92 100.97 371.92"/>
    <polygon class="uuid-7af386a4-dbe1-43f8-aa16-e798cd04b363" points="151.17 265.55 147.71 270.44 143.32 274.41 139.84 279.16 136.08 283.67 131.65 287.59 127.92 292.13 124.43 296.87 120.6 301.32 116.38 305.43 112.87 310.16 108.87 314.46 104.82 318.72 100.98 323.17 106.14 326.54 111.09 330.2 116.11 333.75 121.38 336.94 127.03 339.4 132.55 342.1 138.49 343.65 144.61 344.32 150.54 342.78 156.12 340.38 161.12 336.86 165.93 333 169.27 328.05 172.89 323.34 174.79 317.72 176.17 311.92 175.8 305.94 174.07 300.23 171.96 294.68 169.33 289.34 165.9 284.49 162.81 279.4 159 274.84 155 270.44 151.17 265.55"/>
    <polygon class="uuid-7af386a4-dbe1-43f8-aa16-e798cd04b363" points="209.21 265.22 204.93 269.77 200.15 273.48 196.44 278.24 192.75 282.96 188.72 287.49 185.97 292.87 184.28 298.65 183.15 304.48 182.75 310.46 184.55 316.18 186.87 321.66 190.05 326.75 194.1 331.2 198.78 335.03 203.62 338.64 209 341.42 214.92 342.84 220.95 342.38 226.9 341.36 232.43 338.89 237.72 335.92 242.25 331.88 246.87 327.98 251.22 323.78 255.69 319.64 259.03 314.94 253.67 312.67 247.92 310.56 242.69 307.35 237.49 304.16 232.39 300.78 227.88 296.64 223.81 292.09 219.77 287.47 216.79 282.11 213.7 276.83 210.97 271.34 209.21 265.22"/>
  </g>
</svg>