<?xml version="1.0" encoding="UTF-8"?>
<svg xmlns="http://www.w3.org/2000/svg" width="400" height="925" xmlns:xlink="http://www.w3.org/1999/xlink" viewBox="0 0 400 925">
  <defs>
    <style>
      .cls-1 {
        fill: #491f6c;
      }

      .cls-2 {
        fill: url(#linear-gradient);
      }

      .cls-3 {
        fill: #fad9be;
      }

      .cls-4 {
        fill: #fff;
      }

      .cls-5 {
        fill: #3774ce;
      }

      .cls-6 {
        fill: #f08025;
      }

      .cls-7 {
        fill: #87ace2;
      }

      .cls-8 {
        fill: #f6b37c;
      }

      .cls-9 {
        fill: #4ab780;
      }

      .cls-10 {
        fill: #92d4b3;
      }

      .cls-11 {
        fill: none;
        stroke: #000;
        stroke-miterlimit: 10;
        stroke-width: 2px;
      }

      .cls-12 {
        fill: #f2c800;
      }
    </style>
    <linearGradient id="linear-gradient" x1="200" y1="925" x2="200" y2="0" gradientUnits="userSpaceOnUse">
      <stop offset="0" stop-color="#fff" stop-opacity="0"/>
      <stop offset=".01" stop-color="#fff" stop-opacity=".2"/>
      <stop offset=".02" stop-color="#fff" stop-opacity=".41"/>
      <stop offset=".04" stop-color="#fff" stop-opacity=".59"/>
      <stop offset=".05" stop-color="#fff" stop-opacity=".74"/>
      <stop offset=".06" stop-color="#fff" stop-opacity=".85"/>
      <stop offset=".08" stop-color="#fff" stop-opacity=".93"/>
      <stop offset=".09" stop-color="#fff" stop-opacity=".98"/>
      <stop offset=".1" stop-color="#fff"/>
      <stop offset=".9" stop-color="#fff"/>
      <stop offset=".91" stop-color="#fff" stop-opacity=".98"/>
      <stop offset=".92" stop-color="#fff" stop-opacity=".93"/>
      <stop offset=".94" stop-color="#fff" stop-opacity=".85"/>
      <stop offset=".95" stop-color="#fff" stop-opacity=".74"/>
      <stop offset=".96" stop-color="#fff" stop-opacity=".59"/>
      <stop offset=".98" stop-color="#fff" stop-opacity=".41"/>
      <stop offset=".99" stop-color="#fff" stop-opacity=".2"/>
      <stop offset="1" stop-color="#fff" stop-opacity="0"/>
    </linearGradient>
  </defs>
  <g id="bg">
    <rect class="cls-2" width="400" height="925"/>
  </g>
  <g id="tanggung">
    <rect class="cls-1" x="80" y="645" width="240" height="40"/>
    <rect class="cls-1" x="80" y="285" width="240" height="40"/>
    <rect class="cls-5" x="80" y="685" width="240" height="40"/>
    <rect class="cls-5" x="80" y="605" width="240" height="40"/>
    <rect class="cls-1" x="80" y="445" width="240" height="40"/>
    <rect class="cls-5" x="80" y="485" width="240" height="40"/>
    <rect class="cls-5" x="80" y="245" width="240" height="40"/>
    <rect class="cls-9" x="80" y="805" width="240" height="40"/>
    <rect class="cls-9" x="80" y="725" width="240" height="40"/>
    <rect class="cls-9" x="80" y="205" width="240" height="40"/>
    <rect class="cls-12" x="80" y="765" width="240" height="40"/>
    <rect class="cls-6" x="80" y="525" width="240" height="40"/>
    <rect class="cls-6" x="80" y="565" width="240" height="40"/>
    <rect class="cls-12" x="80" y="365" width="240" height="40"/>
    <rect class="cls-12" x="80" y="165" width="240" height="40"/>
    <rect class="cls-6" x="80" y="405" width="240" height="40"/>
    <rect class="cls-6" x="80" y="325" width="240" height="40"/>
  </g>
  <g id="dadi">
    <rect class="cls-1" x="160" y="645" width="40" height="20"/>
    <rect class="cls-1" x="160" y="225" width="40" height="20"/>
    <rect class="cls-5" x="160" y="665" width="40" height="20"/>
    <rect class="cls-5" x="160" y="625" width="40" height="20"/>
    <rect class="cls-1" x="160" y="525" width="40" height="20"/>
    <rect class="cls-5" x="160" y="545" width="40" height="20"/>
    <rect class="cls-7" x="160" y="565" width="40" height="20"/>
    <rect class="cls-5" x="160" y="485" width="40" height="20"/>
    <rect class="cls-5" x="160" y="445" width="40" height="20"/>
    <rect class="cls-5" x="160" y="205" width="40" height="20"/>
    <rect class="cls-5" x="160" y="745" width="40" height="20"/>
    <rect class="cls-9" x="160" y="765" width="40" height="20"/>
    <rect class="cls-9" x="160" y="805" width="40" height="20"/>
    <rect class="cls-9" x="160" y="685" width="40" height="20"/>
    <rect class="cls-10" x="160" y="705" width="40" height="20"/>
    <rect class="cls-10" x="160" y="825" width="40" height="20"/>
    <rect class="cls-1" x="160" y="385" width="40" height="20"/>
    <rect class="cls-1" x="160" y="465" width="40" height="20"/>
    <rect class="cls-5" x="160" y="405" width="40" height="20"/>
    <rect class="cls-9" x="160" y="425" width="40" height="20"/>
    <rect class="cls-9" x="160" y="185" width="40" height="20"/>
    <rect class="cls-12" x="160" y="785" width="40" height="20"/>
    <rect class="cls-12" x="160" y="265" width="40" height="20"/>
    <rect class="cls-6" x="160" y="725" width="40" height="20"/>
    <rect class="cls-6" x="160" y="585" width="40" height="20"/>
    <rect class="cls-6" x="160" y="605" width="40" height="20"/>
    <rect class="cls-6" x="160" y="505" width="40" height="20"/>
    <rect class="cls-12" x="160" y="345" width="40" height="20"/>
    <rect class="cls-12" x="160" y="165" width="40" height="20"/>
    <rect class="cls-6" x="160" y="365" width="40" height="20"/>
    <rect class="cls-6" x="160" y="285" width="40" height="20"/>
    <rect class="cls-8" x="160" y="305" width="40" height="20"/>
    <rect class="cls-3" x="170" y="315" width="20" height="40" transform="translate(515 155) rotate(90)"/>
    <rect class="cls-6" x="160" y="245" width="40" height="20"/>
    <rect class="cls-1" x="280" y="645" width="40" height="20"/>
    <rect class="cls-1" x="280" y="225" width="40" height="20"/>
    <rect class="cls-5" x="280" y="665" width="40" height="20"/>
    <rect class="cls-5" x="280" y="625" width="40" height="20"/>
    <rect class="cls-1" x="280" y="525" width="40" height="20"/>
    <rect class="cls-5" x="280" y="545" width="40" height="20"/>
    <rect class="cls-7" x="280" y="565" width="40" height="20"/>
    <rect class="cls-5" x="280" y="485" width="40" height="20"/>
    <rect class="cls-5" x="280" y="445" width="40" height="20"/>
    <rect class="cls-5" x="280" y="205" width="40" height="20"/>
    <rect class="cls-5" x="280" y="745" width="40" height="20"/>
    <rect class="cls-9" x="280" y="765" width="40" height="20"/>
    <rect class="cls-9" x="280" y="805" width="40" height="20"/>
    <rect class="cls-9" x="280" y="685" width="40" height="20"/>
    <rect class="cls-10" x="280" y="705" width="40" height="20"/>
    <rect class="cls-10" x="280" y="825" width="40" height="20"/>
    <rect class="cls-1" x="280" y="385" width="40" height="20"/>
    <rect class="cls-1" x="280" y="465" width="40" height="20"/>
    <rect class="cls-5" x="280" y="405" width="40" height="20"/>
    <rect class="cls-9" x="280" y="425" width="40" height="20"/>
    <rect class="cls-9" x="280" y="185" width="40" height="20"/>
    <rect class="cls-12" x="280" y="785" width="40" height="20"/>
    <rect class="cls-12" x="280" y="265" width="40" height="20"/>
    <rect class="cls-6" x="280" y="725" width="40" height="20"/>
    <rect class="cls-6" x="280" y="585" width="40" height="20"/>
    <rect class="cls-6" x="280" y="605" width="40" height="20"/>
    <rect class="cls-6" x="280" y="505" width="40" height="20"/>
    <rect class="cls-12" x="280" y="345" width="40" height="20"/>
    <rect class="cls-12" x="280" y="165" width="40" height="20"/>
    <rect class="cls-6" x="280" y="365" width="40" height="20"/>
    <rect class="cls-6" x="280" y="285" width="40" height="20"/>
    <rect class="cls-8" x="280" y="305" width="40" height="20"/>
    <rect class="cls-3" x="290" y="315" width="20" height="40" transform="translate(635 35) rotate(90)"/>
    <rect class="cls-6" x="280" y="245" width="40" height="20"/>
  </g>
  <g id="text">
    <path class="cls-4" d="M98.95,235.27c-.68,0-1.38-.03-2.08-.09s-1.39-.14-2.05-.24c-.67-.1-1.3-.22-1.89-.36l.59-3.05c.83.18,1.68.32,2.55.43.87.11,1.75.16,2.63.16.81,0,1.5-.06,2.07-.19.57-.13,1.04-.31,1.4-.57.37-.25.64-.56.82-.92.18-.36.27-.77.27-1.24,0-.92-.25-1.59-.76-2.01s-1.2-.63-2.08-.63h-4.56l2-2.65h3.29c1.22,0,2.28.18,3.17.54.89.36,1.58.94,2.07,1.73.49.79.73,1.82.73,3.08,0,1.01-.18,1.89-.54,2.65s-.89,1.38-1.59,1.88c-.7.5-1.56.87-2.57,1.12s-2.17.38-3.48.38ZM93.09,218.93v-3.1h12.55l-1.43,2.48-2.11.62h-9.02ZM95.65,226.55v-1.19l8.48-9.53h2.78v1.21l-8.42,9.4-2.83.11Z"/>
    <path class="cls-4" d="M174.91,221.76v-.48c0-.84.08-1.59.23-2.26.15-.67.4-1.28.73-1.81.33-.54.78-1.03,1.34-1.47.56-.44,1.24-.85,2.05-1.23.51-.25.93-.48,1.27-.68.34-.2.62-.39.84-.56.22-.17.38-.33.49-.48.11-.15.19-.3.24-.44.04-.14.07-.29.07-.46,0-.32-.1-.59-.3-.81-.2-.22-.51-.39-.91-.49-.41-.11-.92-.16-1.56-.16-.57,0-1.18.04-1.83.13-.65.09-1.28.22-1.89.38l-.51-2.17c.7-.2,1.44-.37,2.22-.49.79-.13,1.58-.19,2.39-.19,1.14,0,2.11.14,2.9.41s1.39.67,1.8,1.2c.41.53.62,1.18.62,1.97,0,.34-.04.66-.12.96-.08.3-.21.58-.4.85s-.43.54-.74.8c-.31.26-.7.53-1.17.8s-1.03.56-1.67.86c-.72.35-1.31.71-1.76,1.05-.45.35-.8.72-1.04,1.12-.24.4-.4.85-.47,1.37s-.11,1.11-.09,1.8l-2.72.49ZM175.17,221.76l.04-.55,1.25-1.77h8.53v2.32h-9.82Z"/>
    <path class="cls-4" d="M176.15,231.6v-1.33l4.94-2h.72l-1.04,3.33h-4.62ZM179.92,241.76v-11.46l1.41-2.03h1.52v13.49h-2.93Z"/>
    <path class="cls-4" d="M179.27,201.94c-.49,0-1-.02-1.51-.06-.51-.04-1.01-.09-1.49-.17-.48-.08-.94-.16-1.37-.27l.46-2.26c.58.14,1.19.24,1.81.31.63.07,1.27.1,1.93.1.54,0,1.01-.04,1.41-.13.39-.09.71-.21.96-.37.25-.16.43-.36.54-.6.11-.24.17-.52.17-.84,0-.63-.17-1.09-.49-1.36s-.78-.41-1.35-.41h-3.29l1.33-1.96h2.62c.85,0,1.58.13,2.19.39.61.26,1.09.66,1.42,1.21.33.54.49,1.26.49,2.15,0,.71-.13,1.33-.38,1.86-.25.53-.63.98-1.12,1.34-.49.36-1.11.63-1.83.8-.73.17-1.56.26-2.5.26ZM175.09,190.59v-2.32h8.89l-.93,1.77-1.65.55h-6.31ZM176.82,195.89v-.87l6.1-6.75h2.05v.91l-6.08,6.65-2.07.06Z"/>
    <path class="cls-4" d="M180.38,261.95c-1.3,0-2.4-.24-3.3-.73-.89-.49-1.57-1.21-2.02-2.16-.46-.95-.68-2.1-.68-3.46,0-1.61.28-2.97.83-4.09.55-1.12,1.36-1.97,2.42-2.55,1.06-.58,2.36-.86,3.88-.86.58,0,1.15.03,1.7.1.55.06,1.07.16,1.55.29l-.44,2.2c-.41-.1-.83-.17-1.26-.22-.44-.04-.88-.07-1.34-.07-.96,0-1.77.18-2.41.55-.65.37-1.13.94-1.46,1.71-.33.77-.49,1.76-.49,2.96,0,.98.12,1.76.36,2.36.24.6.59,1.03,1.04,1.3s1,.41,1.63.41c.38,0,.72-.05,1.01-.15.29-.1.53-.25.73-.44.2-.19.35-.42.46-.68.11-.27.16-.57.16-.91s-.05-.66-.16-.9c-.11-.25-.27-.45-.49-.62-.21-.16-.48-.29-.8-.36-.32-.08-.69-.11-1.12-.11-.73,0-1.42.06-2.06.18-.64.12-1.27.31-1.89.58l-.15-1.58c.62-.34,1.33-.64,2.13-.88s1.68-.37,2.66-.37c.77-.01,1.46.07,2.05.24s1.1.43,1.5.77c.41.34.71.77.92,1.27.21.51.31,1.1.31,1.77s-.12,1.32-.36,1.87c-.24.55-.59,1.02-1.04,1.41-.45.39-1,.68-1.65.88-.65.2-1.39.3-2.21.3Z"/>
    <path class="cls-4" d="M179.17,281.94c-.75,0-1.49-.05-2.23-.14-.74-.09-1.43-.23-2.06-.41l.46-2.24c.59.15,1.2.27,1.82.34.62.08,1.25.11,1.9.11.56,0,1.03-.04,1.42-.13.39-.09.7-.22.95-.38.25-.16.43-.37.55-.62.12-.25.18-.53.18-.85,0-.61-.16-1.05-.48-1.34s-.77-.43-1.35-.43h-3.74v-2.13h4.22c.9,0,1.67.14,2.31.41s1.13.69,1.46,1.25c.34.56.5,1.29.5,2.18,0,.72-.12,1.36-.37,1.9-.25.54-.61,1-1.1,1.37-.49.37-1.1.64-1.84.83s-1.61.28-2.59.28ZM175.37,275.86v-7.58h2.81v7.58h-2.81ZM175.51,270.73v-2.45h9.1v2.45h-9.1Z"/>
    <path class="cls-4" d="M180.38,301.95c-1.3,0-2.4-.24-3.3-.73-.89-.49-1.57-1.21-2.02-2.16-.46-.95-.68-2.1-.68-3.46,0-1.61.28-2.97.83-4.09.55-1.12,1.36-1.97,2.42-2.55,1.06-.58,2.36-.86,3.88-.86.58,0,1.15.03,1.7.1.55.06,1.07.16,1.55.29l-.44,2.2c-.41-.1-.83-.17-1.26-.22-.44-.04-.88-.07-1.34-.07-.96,0-1.77.18-2.41.55-.65.37-1.13.94-1.46,1.71-.33.77-.49,1.76-.49,2.96,0,.98.12,1.76.36,2.36.24.6.59,1.03,1.04,1.3s1,.41,1.63.41c.38,0,.72-.05,1.01-.15.29-.1.53-.25.73-.44.2-.19.35-.42.46-.68.11-.27.16-.57.16-.91s-.05-.66-.16-.9c-.11-.25-.27-.45-.49-.62-.21-.16-.48-.29-.8-.36-.32-.08-.69-.11-1.12-.11-.73,0-1.42.06-2.06.18-.64.12-1.27.31-1.89.58l-.15-1.58c.62-.34,1.33-.64,2.13-.88s1.68-.37,2.66-.37c.77-.01,1.46.07,2.05.24s1.1.43,1.5.77c.41.34.71.77.92,1.27.21.51.31,1.1.31,1.77s-.12,1.32-.36,1.87c-.24.55-.59,1.02-1.04,1.41-.45.39-1,.68-1.65.88-.65.2-1.39.3-2.21.3Z"/>
    <path class="cls-4" d="M179.99,317.74c-.51,0-.97-.12-1.38-.37-.41-.25-.74-.58-.99-.99-.25-.41-.37-.87-.37-1.38s.12-.97.37-1.38c.25-.41.58-.74.99-.99.41-.25.87-.37,1.38-.37s.97.12,1.38.37c.41.25.74.58.99.99.25.41.37.87.37,1.38s-.12.97-.37,1.38c-.25.41-.58.74-.99.99-.41.25-.87.37-1.38.37Z"/>
    <path class="cls-4" d="M179.99,337.74c-.51,0-.97-.12-1.38-.37-.41-.25-.74-.58-.99-.99-.25-.41-.37-.87-.37-1.38s.12-.97.37-1.38c.25-.41.58-.74.99-.99.41-.25.87-.37,1.38-.37s.97.12,1.38.37c.41.25.74.58.99.99.25.41.37.87.37,1.38s-.12.97-.37,1.38c-.25.41-.58.74-.99.99-.41.25-.87.37-1.38.37Z"/>
    <path class="cls-4" d="M179.17,361.94c-.75,0-1.49-.05-2.23-.14-.74-.09-1.43-.23-2.06-.41l.46-2.24c.59.15,1.2.27,1.82.34.62.08,1.25.11,1.9.11.56,0,1.03-.04,1.42-.13.39-.09.7-.22.95-.38.25-.16.43-.37.55-.62.12-.25.18-.53.18-.85,0-.61-.16-1.05-.48-1.34s-.77-.43-1.35-.43h-3.74v-2.13h4.22c.9,0,1.67.14,2.31.41s1.13.69,1.46,1.25c.34.56.5,1.29.5,2.18,0,.72-.12,1.36-.37,1.9-.25.54-.61,1-1.1,1.37-.49.37-1.1.64-1.84.83s-1.61.28-2.59.28ZM175.37,355.86v-7.58h2.81v7.58h-2.81ZM175.51,350.73v-2.45h9.1v2.45h-9.1Z"/>
    <path class="cls-4" d="M179.17,181.94c-.75,0-1.49-.05-2.23-.14-.74-.09-1.43-.23-2.06-.41l.46-2.24c.59.15,1.2.27,1.82.34.62.08,1.25.11,1.9.11.56,0,1.03-.04,1.42-.13.39-.09.7-.22.95-.38.25-.16.43-.37.55-.62.12-.25.18-.53.18-.85,0-.61-.16-1.05-.48-1.34s-.77-.43-1.35-.43h-3.74v-2.13h4.22c.9,0,1.67.14,2.31.41s1.13.69,1.46,1.25c.34.56.5,1.29.5,2.18,0,.72-.12,1.36-.37,1.9-.25.54-.61,1-1.1,1.37-.49.37-1.1.64-1.84.83s-1.61.28-2.59.28ZM175.37,175.86v-7.58h2.81v7.58h-2.81ZM175.51,170.73v-2.45h9.1v2.45h-9.1Z"/>
    <path class="cls-4" d="M180.38,381.95c-1.3,0-2.4-.24-3.3-.73-.89-.49-1.57-1.21-2.02-2.16-.46-.95-.68-2.1-.68-3.46,0-1.61.28-2.97.83-4.09.55-1.12,1.36-1.97,2.42-2.55,1.06-.58,2.36-.86,3.88-.86.58,0,1.15.03,1.7.1.55.06,1.07.16,1.55.29l-.44,2.2c-.41-.1-.83-.17-1.26-.22-.44-.04-.88-.07-1.34-.07-.96,0-1.77.18-2.41.55-.65.37-1.13.94-1.46,1.71-.33.77-.49,1.76-.49,2.96,0,.98.12,1.76.36,2.36.24.6.59,1.03,1.04,1.3s1,.41,1.63.41c.38,0,.72-.05,1.01-.15.29-.1.53-.25.73-.44.2-.19.35-.42.46-.68.11-.27.16-.57.16-.91s-.05-.66-.16-.9c-.11-.25-.27-.45-.49-.62-.21-.16-.48-.29-.8-.36-.32-.08-.69-.11-1.12-.11-.73,0-1.42.06-2.06.18-.64.12-1.27.31-1.89.58l-.15-1.58c.62-.34,1.33-.64,2.13-.88s1.68-.37,2.66-.37c.77-.01,1.46.07,2.05.24s1.1.43,1.5.77c.41.34.71.77.92,1.27.21.51.31,1.1.31,1.77s-.12,1.32-.36,1.87c-.24.55-.59,1.02-1.04,1.41-.45.39-1,.68-1.65.88-.65.2-1.39.3-2.21.3Z"/>
    <path class="cls-4" d="M176.15,391.6v-1.33l4.94-2h.72l-1.04,3.33h-4.62ZM179.92,401.76v-11.46l1.41-2.03h1.52v13.49h-2.93Z"/>
    <path class="cls-4" d="M174.91,421.76v-.48c0-.84.08-1.59.23-2.26.15-.67.4-1.28.73-1.81.33-.54.78-1.03,1.34-1.47.56-.44,1.24-.85,2.05-1.23.51-.25.93-.48,1.27-.68.34-.2.62-.39.84-.56.22-.17.38-.33.49-.48.11-.15.19-.3.24-.44.04-.14.07-.29.07-.46,0-.32-.1-.59-.3-.81-.2-.22-.51-.39-.91-.49-.41-.11-.92-.16-1.56-.16-.57,0-1.18.04-1.83.13-.65.09-1.28.22-1.89.38l-.51-2.17c.7-.2,1.44-.37,2.22-.49.79-.13,1.58-.19,2.39-.19,1.14,0,2.11.14,2.9.41s1.39.67,1.8,1.2c.41.53.62,1.18.62,1.97,0,.34-.04.66-.12.96-.08.3-.21.58-.4.85s-.43.54-.74.8c-.31.26-.7.53-1.17.8s-1.03.56-1.67.86c-.72.35-1.31.71-1.76,1.05-.45.35-.8.72-1.04,1.12-.24.4-.4.85-.47,1.37s-.11,1.11-.09,1.8l-2.72.49ZM175.17,421.76l.04-.55,1.25-1.77h8.53v2.32h-9.82Z"/>
    <path class="cls-4" d="M179.27,441.94c-.49,0-1-.02-1.51-.06-.51-.04-1.01-.09-1.49-.17-.48-.08-.94-.16-1.37-.27l.46-2.26c.58.14,1.19.24,1.81.31.63.07,1.27.1,1.93.1.54,0,1.01-.04,1.41-.13.39-.09.71-.21.96-.37.25-.16.43-.36.54-.6.11-.24.17-.52.17-.84,0-.63-.17-1.09-.49-1.36s-.78-.41-1.35-.41h-3.29l1.33-1.96h2.62c.85,0,1.58.13,2.19.39.61.26,1.09.66,1.42,1.21.33.54.49,1.26.49,2.15,0,.71-.13,1.33-.38,1.86-.25.53-.63.98-1.12,1.34-.49.36-1.11.63-1.83.8-.73.17-1.56.26-2.5.26ZM175.09,430.59v-2.32h8.89l-.93,1.77-1.65.55h-6.31ZM176.82,435.89v-.87l6.1-6.75h2.05v.91l-6.08,6.65-2.07.06Z"/>
    <path class="cls-4" d="M174.91,461.76v-.48c0-.84.08-1.59.23-2.26.15-.67.4-1.28.73-1.81.33-.54.78-1.03,1.34-1.47.56-.44,1.24-.85,2.05-1.23.51-.25.93-.48,1.27-.68.34-.2.62-.39.84-.56.22-.17.38-.33.49-.48.11-.15.19-.3.24-.44.04-.14.07-.29.07-.46,0-.32-.1-.59-.3-.81-.2-.22-.51-.39-.91-.49-.41-.11-.92-.16-1.56-.16-.57,0-1.18.04-1.83.13-.65.09-1.28.22-1.89.38l-.51-2.17c.7-.2,1.44-.37,2.22-.49.79-.13,1.58-.19,2.39-.19,1.14,0,2.11.14,2.9.41s1.39.67,1.8,1.2c.41.53.62,1.18.62,1.97,0,.34-.04.66-.12.96-.08.3-.21.58-.4.85s-.43.54-.74.8c-.31.26-.7.53-1.17.8s-1.03.56-1.67.86c-.72.35-1.31.71-1.76,1.05-.45.35-.8.72-1.04,1.12-.24.4-.4.85-.47,1.37s-.11,1.11-.09,1.8l-2.72.49ZM175.17,461.76l.04-.55,1.25-1.77h8.53v2.32h-9.82Z"/>
    <path class="cls-4" d="M176.15,471.6v-1.33l4.94-2h.72l-1.04,3.33h-4.62ZM179.92,481.76v-11.46l1.41-2.03h1.52v13.49h-2.93Z"/>
    <path class="cls-4" d="M174.91,501.76v-.48c0-.84.08-1.59.23-2.26.15-.67.4-1.28.73-1.81.33-.54.78-1.03,1.34-1.47.56-.44,1.24-.85,2.05-1.23.51-.25.93-.48,1.27-.68.34-.2.62-.39.84-.56.22-.17.38-.33.49-.48.11-.15.19-.3.24-.44.04-.14.07-.29.07-.46,0-.32-.1-.59-.3-.81-.2-.22-.51-.39-.91-.49-.41-.11-.92-.16-1.56-.16-.57,0-1.18.04-1.83.13-.65.09-1.28.22-1.89.38l-.51-2.17c.7-.2,1.44-.37,2.22-.49.79-.13,1.58-.19,2.39-.19,1.14,0,2.11.14,2.9.41s1.39.67,1.8,1.2c.41.53.62,1.18.62,1.97,0,.34-.04.66-.12.96-.08.3-.21.58-.4.85s-.43.54-.74.8c-.31.26-.7.53-1.17.8s-1.03.56-1.67.86c-.72.35-1.31.71-1.76,1.05-.45.35-.8.72-1.04,1.12-.24.4-.4.85-.47,1.37s-.11,1.11-.09,1.8l-2.72.49ZM175.17,501.76l.04-.55,1.25-1.77h8.53v2.32h-9.82Z"/>
    <path class="cls-4" d="M180.38,521.95c-1.3,0-2.4-.24-3.3-.73-.89-.49-1.57-1.21-2.02-2.16-.46-.95-.68-2.1-.68-3.46,0-1.61.28-2.97.83-4.09.55-1.12,1.36-1.97,2.42-2.55,1.06-.58,2.36-.86,3.88-.86.58,0,1.15.03,1.7.1.55.06,1.07.16,1.55.29l-.44,2.2c-.41-.1-.83-.17-1.26-.22-.44-.04-.88-.07-1.34-.07-.96,0-1.77.18-2.41.55-.65.37-1.13.94-1.46,1.71-.33.77-.49,1.76-.49,2.96,0,.98.12,1.76.36,2.36.24.6.59,1.03,1.04,1.3s1,.41,1.63.41c.38,0,.72-.05,1.01-.15.29-.1.53-.25.73-.44.2-.19.35-.42.46-.68.11-.27.16-.57.16-.91s-.05-.66-.16-.9c-.11-.25-.27-.45-.49-.62-.21-.16-.48-.29-.8-.36-.32-.08-.69-.11-1.12-.11-.73,0-1.42.06-2.06.18-.64.12-1.27.31-1.89.58l-.15-1.58c.62-.34,1.33-.64,2.13-.88s1.68-.37,2.66-.37c.77-.01,1.46.07,2.05.24s1.1.43,1.5.77c.41.34.71.77.92,1.27.21.51.31,1.1.31,1.77s-.12,1.32-.36,1.87c-.24.55-.59,1.02-1.04,1.41-.45.39-1,.68-1.65.88-.65.2-1.39.3-2.21.3Z"/>
    <path class="cls-4" d="M176.15,531.6v-1.33l4.94-2h.72l-1.04,3.33h-4.62ZM179.92,541.76v-11.46l1.41-2.03h1.52v13.49h-2.93Z"/>
    <path class="cls-4" d="M174.91,561.76v-.48c0-.84.08-1.59.23-2.26.15-.67.4-1.28.73-1.81.33-.54.78-1.03,1.34-1.47.56-.44,1.24-.85,2.05-1.23.51-.25.93-.48,1.27-.68.34-.2.62-.39.84-.56.22-.17.38-.33.49-.48.11-.15.19-.3.24-.44.04-.14.07-.29.07-.46,0-.32-.1-.59-.3-.81-.2-.22-.51-.39-.91-.49-.41-.11-.92-.16-1.56-.16-.57,0-1.18.04-1.83.13-.65.09-1.28.22-1.89.38l-.51-2.17c.7-.2,1.44-.37,2.22-.49.79-.13,1.58-.19,2.39-.19,1.14,0,2.11.14,2.9.41s1.39.67,1.8,1.2c.41.53.62,1.18.62,1.97,0,.34-.04.66-.12.96-.08.3-.21.58-.4.85s-.43.54-.74.8c-.31.26-.7.53-1.17.8s-1.03.56-1.67.86c-.72.35-1.31.71-1.76,1.05-.45.35-.8.72-1.04,1.12-.24.4-.4.85-.47,1.37s-.11,1.11-.09,1.8l-2.72.49ZM175.17,561.76l.04-.55,1.25-1.77h8.53v2.32h-9.82Z"/>
    <path class="cls-4" d="M179.99,577.74c-.51,0-.97-.12-1.38-.37-.41-.25-.74-.58-.99-.99-.25-.41-.37-.87-.37-1.38s.12-.97.37-1.38c.25-.41.58-.74.99-.99.41-.25.87-.37,1.38-.37s.97.12,1.38.37c.41.25.74.58.99.99.25.41.37.87.37,1.38s-.12.97-.37,1.38c-.25.41-.58.74-.99.99-.41.25-.87.37-1.38.37Z"/>
    <path class="cls-4" d="M180.38,601.95c-1.3,0-2.4-.24-3.3-.73-.89-.49-1.57-1.21-2.02-2.16-.46-.95-.68-2.1-.68-3.46,0-1.61.28-2.97.83-4.09.55-1.12,1.36-1.97,2.42-2.55,1.06-.58,2.36-.86,3.88-.86.58,0,1.15.03,1.7.1.55.06,1.07.16,1.55.29l-.44,2.2c-.41-.1-.83-.17-1.26-.22-.44-.04-.88-.07-1.34-.07-.96,0-1.77.18-2.41.55-.65.37-1.13.94-1.46,1.71-.33.77-.49,1.76-.49,2.96,0,.98.12,1.76.36,2.36.24.6.59,1.03,1.04,1.3s1,.41,1.63.41c.38,0,.72-.05,1.01-.15.29-.1.53-.25.73-.44.2-.19.35-.42.46-.68.11-.27.16-.57.16-.91s-.05-.66-.16-.9c-.11-.25-.27-.45-.49-.62-.21-.16-.48-.29-.8-.36-.32-.08-.69-.11-1.12-.11-.73,0-1.42.06-2.06.18-.64.12-1.27.31-1.89.58l-.15-1.58c.62-.34,1.33-.64,2.13-.88s1.68-.37,2.66-.37c.77-.01,1.46.07,2.05.24s1.1.43,1.5.77c.41.34.71.77.92,1.27.21.51.31,1.1.31,1.77s-.12,1.32-.36,1.87c-.24.55-.59,1.02-1.04,1.41-.45.39-1,.68-1.65.88-.65.2-1.39.3-2.21.3Z"/>
    <path class="cls-4" d="M180.38,621.95c-1.3,0-2.4-.24-3.3-.73-.89-.49-1.57-1.21-2.02-2.16-.46-.95-.68-2.1-.68-3.46,0-1.61.28-2.97.83-4.09.55-1.12,1.36-1.97,2.42-2.55,1.06-.58,2.36-.86,3.88-.86.58,0,1.15.03,1.7.1.55.06,1.07.16,1.55.29l-.44,2.2c-.41-.1-.83-.17-1.26-.22-.44-.04-.88-.07-1.34-.07-.96,0-1.77.18-2.41.55-.65.37-1.13.94-1.46,1.71-.33.77-.49,1.76-.49,2.96,0,.98.12,1.76.36,2.36.24.6.59,1.03,1.04,1.3s1,.41,1.63.41c.38,0,.72-.05,1.01-.15.29-.1.53-.25.73-.44.2-.19.35-.42.46-.68.11-.27.16-.57.16-.91s-.05-.66-.16-.9c-.11-.25-.27-.45-.49-.62-.21-.16-.48-.29-.8-.36-.32-.08-.69-.11-1.12-.11-.73,0-1.42.06-2.06.18-.64.12-1.27.31-1.89.58l-.15-1.58c.62-.34,1.33-.64,2.13-.88s1.68-.37,2.66-.37c.77-.01,1.46.07,2.05.24s1.1.43,1.5.77c.41.34.71.77.92,1.27.21.51.31,1.1.31,1.77s-.12,1.32-.36,1.87c-.24.55-.59,1.02-1.04,1.41-.45.39-1,.68-1.65.88-.65.2-1.39.3-2.21.3Z"/>
    <path class="cls-4" d="M174.91,641.76v-.48c0-.84.08-1.59.23-2.26.15-.67.4-1.28.73-1.81.33-.54.78-1.03,1.34-1.47.56-.44,1.24-.85,2.05-1.23.51-.25.93-.48,1.27-.68.34-.2.62-.39.84-.56.22-.17.38-.33.49-.48.11-.15.19-.3.24-.44.04-.14.07-.29.07-.46,0-.32-.1-.59-.3-.81-.2-.22-.51-.39-.91-.49-.41-.11-.92-.16-1.56-.16-.57,0-1.18.04-1.83.13-.65.09-1.28.22-1.89.38l-.51-2.17c.7-.2,1.44-.37,2.22-.49.79-.13,1.58-.19,2.39-.19,1.14,0,2.11.14,2.9.41s1.39.67,1.8,1.2c.41.53.62,1.18.62,1.97,0,.34-.04.66-.12.96-.08.3-.21.58-.4.85s-.43.54-.74.8c-.31.26-.7.53-1.17.8s-1.03.56-1.67.86c-.72.35-1.31.71-1.76,1.05-.45.35-.8.72-1.04,1.12-.24.4-.4.85-.47,1.37s-.11,1.11-.09,1.8l-2.72.49ZM175.17,641.76l.04-.55,1.25-1.77h8.53v2.32h-9.82Z"/>
    <path class="cls-4" d="M176.15,651.6v-1.33l4.94-2h.72l-1.04,3.33h-4.62ZM179.92,661.76v-11.46l1.41-2.03h1.52v13.49h-2.93Z"/>
    <path class="cls-4" d="M174.91,681.76v-.48c0-.84.08-1.59.23-2.26.15-.67.4-1.28.73-1.81.33-.54.78-1.03,1.34-1.47.56-.44,1.24-.85,2.05-1.23.51-.25.93-.48,1.27-.68.34-.2.62-.39.84-.56.22-.17.38-.33.49-.48.11-.15.19-.3.24-.44.04-.14.07-.29.07-.46,0-.32-.1-.59-.3-.81-.2-.22-.51-.39-.91-.49-.41-.11-.92-.16-1.56-.16-.57,0-1.18.04-1.83.13-.65.09-1.28.22-1.89.38l-.51-2.17c.7-.2,1.44-.37,2.22-.49.79-.13,1.58-.19,2.39-.19,1.14,0,2.11.14,2.9.41s1.39.67,1.8,1.2c.41.53.62,1.18.62,1.97,0,.34-.04.66-.12.96-.08.3-.21.58-.4.85s-.43.54-.74.8c-.31.26-.7.53-1.17.8s-1.03.56-1.67.86c-.72.35-1.31.71-1.76,1.05-.45.35-.8.72-1.04,1.12-.24.4-.4.85-.47,1.37s-.11,1.11-.09,1.8l-2.72.49ZM175.17,681.76l.04-.55,1.25-1.77h8.53v2.32h-9.82Z"/>
    <path class="cls-4" d="M179.27,701.94c-.49,0-1-.02-1.51-.06-.51-.04-1.01-.09-1.49-.17-.48-.08-.94-.16-1.37-.27l.46-2.26c.58.14,1.19.24,1.81.31.63.07,1.27.1,1.93.1.54,0,1.01-.04,1.41-.13.39-.09.71-.21.96-.37.25-.16.43-.36.54-.6.11-.24.17-.52.17-.84,0-.63-.17-1.09-.49-1.36s-.78-.41-1.35-.41h-3.29l1.33-1.96h2.62c.85,0,1.58.13,2.19.39.61.26,1.09.66,1.42,1.21.33.54.49,1.26.49,2.15,0,.71-.13,1.33-.38,1.86-.25.53-.63.98-1.12,1.34-.49.36-1.11.63-1.83.8-.73.17-1.56.26-2.5.26ZM175.09,690.59v-2.32h8.89l-.93,1.77-1.65.55h-6.31ZM176.82,695.89v-.87l6.1-6.75h2.05v.91l-6.08,6.65-2.07.06Z"/>
    <path class="cls-4" d="M179.99,717.74c-.51,0-.97-.12-1.38-.37-.41-.25-.74-.58-.99-.99-.25-.41-.37-.87-.37-1.38s.12-.97.37-1.38c.25-.41.58-.74.99-.99.41-.25.87-.37,1.38-.37s.97.12,1.38.37c.41.25.74.58.99.99.25.41.37.87.37,1.38s-.12.97-.37,1.38c-.25.41-.58.74-.99.99-.41.25-.87.37-1.38.37Z"/>
    <path class="cls-4" d="M180.38,741.95c-1.3,0-2.4-.24-3.3-.73-.89-.49-1.57-1.21-2.02-2.16-.46-.95-.68-2.1-.68-3.46,0-1.61.28-2.97.83-4.09.55-1.12,1.36-1.97,2.42-2.55,1.06-.58,2.36-.86,3.88-.86.58,0,1.15.03,1.7.1.55.06,1.07.16,1.55.29l-.44,2.2c-.41-.1-.83-.17-1.26-.22-.44-.04-.88-.07-1.34-.07-.96,0-1.77.18-2.41.55-.65.37-1.13.94-1.46,1.71-.33.77-.49,1.76-.49,2.96,0,.98.12,1.76.36,2.36.24.6.59,1.03,1.04,1.3s1,.41,1.63.41c.38,0,.72-.05,1.01-.15.29-.1.53-.25.73-.44.2-.19.35-.42.46-.68.11-.27.16-.57.16-.91s-.05-.66-.16-.9c-.11-.25-.27-.45-.49-.62-.21-.16-.48-.29-.8-.36-.32-.08-.69-.11-1.12-.11-.73,0-1.42.06-2.06.18-.64.12-1.27.31-1.89.58l-.15-1.58c.62-.34,1.33-.64,2.13-.88s1.68-.37,2.66-.37c.77-.01,1.46.07,2.05.24s1.1.43,1.5.77c.41.34.71.77.92,1.27.21.51.31,1.1.31,1.77s-.12,1.32-.36,1.87c-.24.55-.59,1.02-1.04,1.41-.45.39-1,.68-1.65.88-.65.2-1.39.3-2.21.3Z"/>
    <path class="cls-4" d="M174.91,761.76v-.48c0-.84.08-1.59.23-2.26.15-.67.4-1.28.73-1.81.33-.54.78-1.03,1.34-1.47.56-.44,1.24-.85,2.05-1.23.51-.25.93-.48,1.27-.68.34-.2.62-.39.84-.56.22-.17.38-.33.49-.48.11-.15.19-.3.24-.44.04-.14.07-.29.07-.46,0-.32-.1-.59-.3-.81-.2-.22-.51-.39-.91-.49-.41-.11-.92-.16-1.56-.16-.57,0-1.18.04-1.83.13-.65.09-1.28.22-1.89.38l-.51-2.17c.7-.2,1.44-.37,2.22-.49.79-.13,1.58-.19,2.39-.19,1.14,0,2.11.14,2.9.41s1.39.67,1.8,1.2c.41.53.62,1.18.62,1.97,0,.34-.04.66-.12.96-.08.3-.21.58-.4.85s-.43.54-.74.8c-.31.26-.7.53-1.17.8s-1.03.56-1.67.86c-.72.35-1.31.71-1.76,1.05-.45.35-.8.72-1.04,1.12-.24.4-.4.85-.47,1.37s-.11,1.11-.09,1.8l-2.72.49ZM175.17,761.76l.04-.55,1.25-1.77h8.53v2.32h-9.82Z"/>
    <path class="cls-4" d="M179.27,781.94c-.49,0-1-.02-1.51-.06-.51-.04-1.01-.09-1.49-.17-.48-.08-.94-.16-1.37-.27l.46-2.26c.58.14,1.19.24,1.81.31.63.07,1.27.1,1.93.1.54,0,1.01-.04,1.41-.13.39-.09.71-.21.96-.37.25-.16.43-.36.54-.6.11-.24.17-.52.17-.84,0-.63-.17-1.09-.49-1.36s-.78-.41-1.35-.41h-3.29l1.33-1.96h2.62c.85,0,1.58.13,2.19.39.61.26,1.09.66,1.42,1.21.33.54.49,1.26.49,2.15,0,.71-.13,1.33-.38,1.86-.25.53-.63.98-1.12,1.34-.49.36-1.11.63-1.83.8-.73.17-1.56.26-2.5.26ZM175.09,770.59v-2.32h8.89l-.93,1.77-1.65.55h-6.31ZM176.82,775.89v-.87l6.1-6.75h2.05v.91l-6.08,6.65-2.07.06Z"/>
    <path class="cls-4" d="M179.17,801.94c-.75,0-1.49-.05-2.23-.14-.74-.09-1.43-.23-2.06-.41l.46-2.24c.59.15,1.2.27,1.82.34.62.08,1.25.11,1.9.11.56,0,1.03-.04,1.42-.13.39-.09.7-.22.95-.38.25-.16.43-.37.55-.62.12-.25.18-.53.18-.85,0-.61-.16-1.05-.48-1.34s-.77-.43-1.35-.43h-3.74v-2.13h4.22c.9,0,1.67.14,2.31.41s1.13.69,1.46,1.25c.34.56.5,1.29.5,2.18,0,.72-.12,1.36-.37,1.9-.25.54-.61,1-1.1,1.37-.49.37-1.1.64-1.84.83s-1.61.28-2.59.28ZM175.37,795.86v-7.58h2.81v7.58h-2.81ZM175.51,790.73v-2.45h9.1v2.45h-9.1Z"/>
    <path class="cls-4" d="M179.27,821.94c-.49,0-1-.02-1.51-.06-.51-.04-1.01-.09-1.49-.17-.48-.08-.94-.16-1.37-.27l.46-2.26c.58.14,1.19.24,1.81.31.63.07,1.27.1,1.93.1.54,0,1.01-.04,1.41-.13.39-.09.71-.21.96-.37.25-.16.43-.36.54-.6.11-.24.17-.52.17-.84,0-.63-.17-1.09-.49-1.36s-.78-.41-1.35-.41h-3.29l1.33-1.96h2.62c.85,0,1.58.13,2.19.39.61.26,1.09.66,1.42,1.21.33.54.49,1.26.49,2.15,0,.71-.13,1.33-.38,1.86-.25.53-.63.98-1.12,1.34-.49.36-1.11.63-1.83.8-.73.17-1.56.26-2.5.26ZM175.09,810.59v-2.32h8.89l-.93,1.77-1.65.55h-6.31ZM176.82,815.89v-.87l6.1-6.75h2.05v.91l-6.08,6.65-2.07.06Z"/>
    <path class="cls-4" d="M179.99,837.74c-.51,0-.97-.12-1.38-.37-.41-.25-.74-.58-.99-.99-.25-.41-.37-.87-.37-1.38s.12-.97.37-1.38c.25-.41.58-.74.99-.99.41-.25.87-.37,1.38-.37s.97.12,1.38.37c.41.25.74.58.99.99.25.41.37.87.37,1.38s-.12.97-.37,1.38c-.25.41-.58.74-.99.99-.41.25-.87.37-1.38.37Z"/>
    <path class="cls-4" d="M92.97,275v-.7c0-1.21.11-2.29.32-3.24s.56-1.81,1.04-2.58c.48-.76,1.11-1.46,1.89-2.08s1.73-1.19,2.85-1.71c.7-.34,1.3-.66,1.78-.94.49-.29.88-.55,1.19-.78.31-.23.54-.46.7-.67.16-.22.27-.43.32-.65.05-.22.08-.44.08-.67,0-.52-.14-.94-.43-1.27-.29-.32-.72-.57-1.31-.73s-1.31-.24-2.17-.24c-.81,0-1.68.06-2.61.19-.93.13-1.82.32-2.69.59l-.73-2.92c.97-.32,2.01-.58,3.12-.76,1.11-.18,2.23-.27,3.36-.27,1.55,0,2.87.19,3.96.57s1.92.94,2.5,1.7c.58.76.86,1.7.86,2.83,0,.49-.05.94-.15,1.38s-.28.84-.54,1.23c-.26.39-.61.76-1.04,1.12-.43.36-.97.73-1.62,1.12-.65.39-1.41.79-2.29,1.2-1.04.5-1.89,1.01-2.54,1.51-.65.5-1.13,1.05-1.46,1.63-.32.58-.54,1.25-.66,2-.12.75-.17,1.62-.15,2.63l-3.59.51ZM93.34,275l.08-.7,1.81-2.46h11.72v3.16h-13.61Z"/>
    <path class="cls-4" d="M94.73,300.28v-1.7l6.91-2.75h1.05l-1.51,4.46h-6.45ZM99.95,315v-16.33l1.94-2.83h1.92v19.17h-3.86Z"/>
    <path class="cls-4" d="M100.51,355.3c-1.8,0-3.32-.35-4.55-1.07-1.23-.71-2.17-1.74-2.82-3.08-.65-1.34-.97-2.96-.97-4.85,0-2.32.4-4.28,1.2-5.87.8-1.59,1.94-2.8,3.43-3.63,1.49-.83,3.28-1.24,5.39-1.24.79,0,1.55.04,2.28.13.73.09,1.43.23,2.09.41l-.62,2.97c-.56-.14-1.13-.25-1.73-.32-.59-.07-1.2-.11-1.81-.11-1.37,0-2.52.28-3.47.85-.95.57-1.66,1.41-2.13,2.54-.48,1.13-.71,2.56-.71,4.31,0,1.35.17,2.46.53,3.33.35.87.85,1.52,1.51,1.93s1.45.62,2.39.62c.54,0,1.03-.07,1.46-.2.43-.14.8-.35,1.09-.63.3-.29.52-.63.67-1.03.15-.4.23-.85.23-1.35s-.08-.97-.24-1.35c-.16-.38-.4-.69-.7-.93-.31-.24-.69-.43-1.15-.55-.46-.13-.99-.19-1.61-.19-1.03,0-2,.1-2.92.31-.92.21-1.83.53-2.73.96l-.16-2.24c.88-.49,1.88-.9,2.98-1.26s2.34-.54,3.69-.55c1.06,0,2.01.12,2.83.36s1.53.6,2.11,1.08c.58.48,1.01,1.07,1.3,1.78.29.71.43,1.54.43,2.5,0,1.01-.17,1.9-.5,2.69-.33.78-.82,1.45-1.47,2-.65.55-1.42.97-2.31,1.26-.89.29-1.89.43-3.01.43Z"/>
    <path class="cls-4" d="M98.79,395.27c-1.03,0-2.04-.07-3.05-.22-1.01-.14-1.96-.35-2.86-.62l.67-2.97c.83.22,1.67.38,2.51.49.85.11,1.72.16,2.62.16.79,0,1.48-.06,2.05-.19.58-.13,1.05-.31,1.42-.57.37-.25.64-.56.81-.93.17-.37.26-.8.26-1.28,0-.94-.24-1.62-.73-2.04-.49-.42-1.17-.63-2.05-.63h-5.08v-2.92h5.56c1.33,0,2.45.2,3.36.59.91.4,1.6,1,2.08,1.81.48.81.72,1.85.72,3.13,0,1.03-.18,1.93-.53,2.7s-.87,1.42-1.57,1.93c-.69.51-1.55.9-2.58,1.16s-2.23.39-3.62.39ZM93.55,386.47v-10.64h3.75v10.64h-3.75ZM93.74,379.12v-3.29h12.64v3.29h-12.64Z"/>
    <path class="cls-4" d="M98.79,195.27c-1.03,0-2.04-.07-3.05-.22-1.01-.14-1.96-.35-2.86-.62l.67-2.97c.83.22,1.67.38,2.51.49.85.11,1.72.16,2.62.16.79,0,1.48-.06,2.05-.19.58-.13,1.05-.31,1.42-.57.37-.25.64-.56.81-.93.17-.37.26-.8.26-1.28,0-.94-.24-1.62-.73-2.04-.49-.42-1.17-.63-2.05-.63h-5.08v-2.92h5.56c1.33,0,2.45.2,3.36.59.91.4,1.6,1,2.08,1.81.48.81.72,1.85.72,3.13,0,1.03-.18,1.93-.53,2.7s-.87,1.42-1.57,1.93c-.69.51-1.55.9-2.58,1.16s-2.23.39-3.62.39ZM93.55,186.47v-10.64h3.75v10.64h-3.75ZM93.74,179.12v-3.29h12.64v3.29h-12.64Z"/>
    <path class="cls-4" d="M100.51,435.3c-1.8,0-3.32-.35-4.55-1.07-1.23-.71-2.17-1.74-2.82-3.08-.65-1.34-.97-2.96-.97-4.85,0-2.32.4-4.28,1.2-5.87.8-1.59,1.94-2.8,3.43-3.63,1.49-.83,3.28-1.24,5.39-1.24.79,0,1.55.04,2.28.13.73.09,1.43.23,2.09.41l-.62,2.97c-.56-.14-1.13-.25-1.73-.32-.59-.07-1.2-.11-1.81-.11-1.37,0-2.52.28-3.47.85-.95.57-1.66,1.41-2.13,2.54-.48,1.13-.71,2.56-.71,4.31,0,1.35.17,2.46.53,3.33.35.87.85,1.52,1.51,1.93s1.45.62,2.39.62c.54,0,1.03-.07,1.46-.2.43-.14.8-.35,1.09-.63.3-.29.52-.63.67-1.03.15-.4.23-.85.23-1.35s-.08-.97-.24-1.35c-.16-.38-.4-.69-.7-.93-.31-.24-.69-.43-1.15-.55-.46-.13-.99-.19-1.61-.19-1.03,0-2,.1-2.92.31-.92.21-1.83.53-2.73.96l-.16-2.24c.88-.49,1.88-.9,2.98-1.26s2.34-.54,3.69-.55c1.06,0,2.01.12,2.83.36s1.53.6,2.11,1.08c.58.48,1.01,1.07,1.3,1.78.29.71.43,1.54.43,2.5,0,1.01-.17,1.9-.5,2.69-.33.78-.82,1.45-1.47,2-.65.55-1.42.97-2.31,1.26-.89.29-1.89.43-3.01.43Z"/>
    <path class="cls-4" d="M94.73,460.28v-1.7l6.91-2.75h1.05l-1.51,4.46h-6.45ZM99.95,475v-16.33l1.94-2.83h1.92v19.17h-3.86Z"/>
    <path class="cls-4" d="M92.97,515v-.7c0-1.21.11-2.29.32-3.24s.56-1.81,1.04-2.58c.48-.76,1.11-1.46,1.89-2.08s1.73-1.19,2.85-1.71c.7-.34,1.3-.66,1.78-.94.49-.29.88-.55,1.19-.78.31-.23.54-.46.7-.67.16-.22.27-.43.32-.65.05-.22.08-.44.08-.67,0-.52-.14-.94-.43-1.27-.29-.32-.72-.57-1.31-.73s-1.31-.24-2.17-.24c-.81,0-1.68.06-2.61.19-.93.13-1.82.32-2.69.59l-.73-2.92c.97-.32,2.01-.58,3.12-.76,1.11-.18,2.23-.27,3.36-.27,1.55,0,2.87.19,3.96.57s1.92.94,2.5,1.7c.58.76.86,1.7.86,2.83,0,.49-.05.94-.15,1.38s-.28.84-.54,1.23c-.26.39-.61.76-1.04,1.12-.43.36-.97.73-1.62,1.12-.65.39-1.41.79-2.29,1.2-1.04.5-1.89,1.01-2.54,1.51-.65.5-1.13,1.05-1.46,1.63-.32.58-.54,1.25-.66,2-.12.75-.17,1.62-.15,2.63l-3.59.51ZM93.34,515l.08-.7,1.81-2.46h11.72v3.16h-13.61Z"/>
    <path class="cls-4" d="M100.51,555.3c-1.8,0-3.32-.35-4.55-1.07-1.23-.71-2.17-1.74-2.82-3.08-.65-1.34-.97-2.96-.97-4.85,0-2.32.4-4.28,1.2-5.87.8-1.59,1.94-2.8,3.43-3.63,1.49-.83,3.28-1.24,5.39-1.24.79,0,1.55.04,2.28.13.73.09,1.43.23,2.09.41l-.62,2.97c-.56-.14-1.13-.25-1.73-.32-.59-.07-1.2-.11-1.81-.11-1.37,0-2.52.28-3.47.85-.95.57-1.66,1.41-2.13,2.54-.48,1.13-.71,2.56-.71,4.31,0,1.35.17,2.46.53,3.33.35.87.85,1.52,1.51,1.93s1.45.62,2.39.62c.54,0,1.03-.07,1.46-.2.43-.14.8-.35,1.09-.63.3-.29.52-.63.67-1.03.15-.4.23-.85.23-1.35s-.08-.97-.24-1.35c-.16-.38-.4-.69-.7-.93-.31-.24-.69-.43-1.15-.55-.46-.13-.99-.19-1.61-.19-1.03,0-2,.1-2.92.31-.92.21-1.83.53-2.73.96l-.16-2.24c.88-.49,1.88-.9,2.98-1.26s2.34-.54,3.69-.55c1.06,0,2.01.12,2.83.36s1.53.6,2.11,1.08c.58.48,1.01,1.07,1.3,1.78.29.71.43,1.54.43,2.5,0,1.01-.17,1.9-.5,2.69-.33.78-.82,1.45-1.47,2-.65.55-1.42.97-2.31,1.26-.89.29-1.89.43-3.01.43Z"/>
    <path class="cls-4" d="M100.51,595.3c-1.8,0-3.32-.35-4.55-1.07-1.23-.71-2.17-1.74-2.82-3.08-.65-1.34-.97-2.96-.97-4.85,0-2.32.4-4.28,1.2-5.87.8-1.59,1.94-2.8,3.43-3.63,1.49-.83,3.28-1.24,5.39-1.24.79,0,1.55.04,2.28.13.73.09,1.43.23,2.09.41l-.62,2.97c-.56-.14-1.13-.25-1.73-.32-.59-.07-1.2-.11-1.81-.11-1.37,0-2.52.28-3.47.85-.95.57-1.66,1.41-2.13,2.54-.48,1.13-.71,2.56-.71,4.31,0,1.35.17,2.46.53,3.33.35.87.85,1.52,1.51,1.93s1.45.62,2.39.62c.54,0,1.03-.07,1.46-.2.43-.14.8-.35,1.09-.63.3-.29.52-.63.67-1.03.15-.4.23-.85.23-1.35s-.08-.97-.24-1.35c-.16-.38-.4-.69-.7-.93-.31-.24-.69-.43-1.15-.55-.46-.13-.99-.19-1.61-.19-1.03,0-2,.1-2.92.31-.92.21-1.83.53-2.73.96l-.16-2.24c.88-.49,1.88-.9,2.98-1.26s2.34-.54,3.69-.55c1.06,0,2.01.12,2.83.36s1.53.6,2.11,1.08c.58.48,1.01,1.07,1.3,1.78.29.71.43,1.54.43,2.5,0,1.01-.17,1.9-.5,2.69-.33.78-.82,1.45-1.47,2-.65.55-1.42.97-2.31,1.26-.89.29-1.89.43-3.01.43Z"/>
    <path class="cls-4" d="M92.97,635v-.7c0-1.21.11-2.29.32-3.24s.56-1.81,1.04-2.58c.48-.76,1.11-1.46,1.89-2.08s1.73-1.19,2.85-1.71c.7-.34,1.3-.66,1.78-.94.49-.29.88-.55,1.19-.78.31-.23.54-.46.7-.67.16-.22.27-.43.32-.65.05-.22.08-.44.08-.67,0-.52-.14-.94-.43-1.27-.29-.32-.72-.57-1.31-.73s-1.31-.24-2.17-.24c-.81,0-1.68.06-2.61.19-.93.13-1.82.32-2.69.59l-.73-2.92c.97-.32,2.01-.58,3.12-.76,1.11-.18,2.23-.27,3.36-.27,1.55,0,2.87.19,3.96.57s1.92.94,2.5,1.7c.58.76.86,1.7.86,2.83,0,.49-.05.94-.15,1.38s-.28.84-.54,1.23c-.26.39-.61.76-1.04,1.12-.43.36-.97.73-1.62,1.12-.65.39-1.41.79-2.29,1.2-1.04.5-1.89,1.01-2.54,1.51-.65.5-1.13,1.05-1.46,1.63-.32.58-.54,1.25-.66,2-.12.75-.17,1.62-.15,2.63l-3.59.51ZM93.34,635l.08-.7,1.81-2.46h11.72v3.16h-13.61Z"/>
    <path class="cls-4" d="M94.73,660.28v-1.7l6.91-2.75h1.05l-1.51,4.46h-6.45ZM99.95,675v-16.33l1.94-2.83h1.92v19.17h-3.86Z"/>
    <path class="cls-4" d="M92.97,715v-.7c0-1.21.11-2.29.32-3.24s.56-1.81,1.04-2.58c.48-.76,1.11-1.46,1.89-2.08s1.73-1.19,2.85-1.71c.7-.34,1.3-.66,1.78-.94.49-.29.88-.55,1.19-.78.31-.23.54-.46.7-.67.16-.22.27-.43.32-.65.05-.22.08-.44.08-.67,0-.52-.14-.94-.43-1.27-.29-.32-.72-.57-1.31-.73s-1.31-.24-2.17-.24c-.81,0-1.68.06-2.61.19-.93.13-1.82.32-2.69.59l-.73-2.92c.97-.32,2.01-.58,3.12-.76,1.11-.18,2.23-.27,3.36-.27,1.55,0,2.87.19,3.96.57s1.92.94,2.5,1.7c.58.76.86,1.7.86,2.83,0,.49-.05.94-.15,1.38s-.28.84-.54,1.23c-.26.39-.61.76-1.04,1.12-.43.36-.97.73-1.62,1.12-.65.39-1.41.79-2.29,1.2-1.04.5-1.89,1.01-2.54,1.51-.65.5-1.13,1.05-1.46,1.63-.32.58-.54,1.25-.66,2-.12.75-.17,1.62-.15,2.63l-3.59.51ZM93.34,715l.08-.7,1.81-2.46h11.72v3.16h-13.61Z"/>
    <path class="cls-4" d="M98.95,755.27c-.68,0-1.38-.03-2.08-.09s-1.39-.14-2.05-.24c-.67-.1-1.3-.22-1.89-.36l.59-3.05c.83.18,1.68.32,2.55.43.87.11,1.75.16,2.63.16.81,0,1.5-.06,2.07-.19.57-.13,1.04-.31,1.4-.57.37-.25.64-.56.82-.92.18-.36.27-.77.27-1.24,0-.92-.25-1.59-.76-2.01s-1.2-.63-2.08-.63h-4.56l2-2.65h3.29c1.22,0,2.28.18,3.17.54.89.36,1.58.94,2.07,1.73.49.79.73,1.82.73,3.08,0,1.01-.18,1.89-.54,2.65s-.89,1.38-1.59,1.88c-.7.5-1.56.87-2.57,1.12s-2.17.38-3.48.38ZM93.09,738.93v-3.1h12.55l-1.43,2.48-2.11.62h-9.02ZM95.65,746.55v-1.19l8.48-9.53h2.78v1.21l-8.42,9.4-2.83.11Z"/>
    <path class="cls-4" d="M98.79,795.27c-1.03,0-2.04-.07-3.05-.22-1.01-.14-1.96-.35-2.86-.62l.67-2.97c.83.22,1.67.38,2.51.49.85.11,1.72.16,2.62.16.79,0,1.48-.06,2.05-.19.58-.13,1.05-.31,1.42-.57.37-.25.64-.56.81-.93.17-.37.26-.8.26-1.28,0-.94-.24-1.62-.73-2.04-.49-.42-1.17-.63-2.05-.63h-5.08v-2.92h5.56c1.33,0,2.45.2,3.36.59.91.4,1.6,1,2.08,1.81.48.81.72,1.85.72,3.13,0,1.03-.18,1.93-.53,2.7s-.87,1.42-1.57,1.93c-.69.51-1.55.9-2.58,1.16s-2.23.39-3.62.39ZM93.55,786.47v-10.64h3.75v10.64h-3.75ZM93.74,779.12v-3.29h12.64v3.29h-12.64Z"/>
    <path class="cls-4" d="M98.95,835.27c-.68,0-1.38-.03-2.08-.09s-1.39-.14-2.05-.24c-.67-.1-1.3-.22-1.89-.36l.59-3.05c.83.18,1.68.32,2.55.43.87.11,1.75.16,2.63.16.81,0,1.5-.06,2.07-.19.57-.13,1.04-.31,1.4-.57.37-.25.64-.56.82-.92.18-.36.27-.77.27-1.24,0-.92-.25-1.59-.76-2.01s-1.2-.63-2.08-.63h-4.56l2-2.65h3.29c1.22,0,2.28.18,3.17.54.89.36,1.58.94,2.07,1.73.49.79.73,1.82.73,3.08,0,1.01-.18,1.89-.54,2.65s-.89,1.38-1.59,1.88c-.7.5-1.56.87-2.57,1.12s-2.17.38-3.48.38ZM93.09,818.93v-3.1h12.55l-1.43,2.48-2.11.62h-9.02ZM95.65,826.55v-1.19l8.48-9.53h2.78v1.21l-8.42,9.4-2.83.11Z"/>
    <g>
      <path d="M82.16,65.88l-.14-2.71h2.58l-.11,2.71h-2.32ZM82.12,80v-12.14h2.37v12.14h-2.37Z"/>
      <path d="M88.72,80v-12.14h1.45l.92,2.85v9.29h-2.37ZM90.69,72.29v-1.59l3.73-2.85h1.06v2.55l-4.78,1.89Z"/>
      <path d="M101.04,80.25c-.67,0-1.28-.15-1.81-.46s-.94-.74-1.24-1.29c-.3-.55-.45-1.19-.45-1.91,0-.55.09-1.05.26-1.51.18-.45.44-.84.79-1.16.35-.32.79-.58,1.31-.76s1.13-.29,1.82-.32l3.36-.12v1.68l-3.24.11c-.44.02-.82.12-1.14.32s-.55.44-.7.74c-.15.29-.23.59-.23.9,0,.37.07.69.22.98s.37.5.67.66c.3.15.66.23,1.07.23.67,0,1.28-.16,1.83-.48.54-.32,1.05-.67,1.51-1.06l.18,1.17c-.38.43-.79.81-1.22,1.15-.43.34-.89.61-1.39.82-.5.21-1.03.31-1.6.31ZM105.69,80l-.92-1.75v-5.82c0-.4-.05-.77-.14-1.12-.09-.34-.25-.65-.47-.91s-.53-.46-.92-.6c-.39-.14-.89-.21-1.48-.21-.52,0-1.04.04-1.55.13-.51.08-1.03.2-1.55.36l-.39-1.91c.58-.17,1.21-.31,1.89-.41s1.33-.16,1.96-.16c.95,0,1.75.11,2.39.35.64.23,1.16.56,1.55.99.39.43.67.94.84,1.53.17.59.25,1.25.25,1.99v7.54h-1.45Z"/>
      <path d="M111.37,80v-12.14h1.45l.92,1.75v10.4h-2.37ZM118.94,80v-8.05c0-.78-.18-1.37-.55-1.76s-.87-.59-1.52-.59c-.43,0-.84.07-1.22.21-.38.14-.75.32-1.1.55s-.71.49-1.06.78l-.23-1.29c.74-.69,1.45-1.23,2.15-1.63.7-.4,1.47-.6,2.31-.6.75,0,1.39.17,1.92.49.53.33.94.8,1.23,1.41.29.61.44,1.34.44,2.19v8.28h-2.37ZM126.51,80v-8.05c0-.78-.18-1.37-.55-1.76s-.87-.59-1.52-.59-1.23.15-1.77.45c-.54.3-1.07.66-1.61,1.09l-.23-1.29c.74-.69,1.45-1.23,2.15-1.63.7-.4,1.48-.6,2.33-.6.74,0,1.37.16,1.9.47.53.31.94.78,1.23,1.39.29.61.44,1.36.44,2.23v8.28h-2.37Z"/>
      <path d="M135.61,80.25c-.67,0-1.28-.15-1.81-.46s-.94-.74-1.24-1.29c-.3-.55-.45-1.19-.45-1.91,0-.55.09-1.05.26-1.51.18-.45.44-.84.79-1.16.35-.32.79-.58,1.31-.76s1.13-.29,1.82-.32l3.36-.12v1.68l-3.24.11c-.44.02-.82.12-1.14.32s-.55.44-.7.74c-.15.29-.23.59-.23.9,0,.37.07.69.22.98s.37.5.67.66c.3.15.66.23,1.07.23.67,0,1.28-.16,1.83-.48.54-.32,1.05-.67,1.51-1.06l.18,1.17c-.38.43-.79.81-1.22,1.15-.43.34-.89.61-1.39.82-.5.21-1.03.31-1.6.31ZM140.26,80l-.92-1.75v-5.82c0-.4-.05-.77-.14-1.12-.09-.34-.25-.65-.47-.91s-.53-.46-.92-.6c-.39-.14-.89-.21-1.48-.21-.52,0-1.04.04-1.55.13-.51.08-1.03.2-1.55.36l-.39-1.91c.58-.17,1.21-.31,1.89-.41s1.33-.16,1.96-.16c.95,0,1.75.11,2.39.35.64.23,1.16.56,1.55.99.39.43.67.94.84,1.53.17.59.25,1.25.25,1.99v7.54h-1.45Z"/>
      <path d="M150.98,69.79v-1.93h8.46v1.93h-8.46ZM152.54,68.15l1.52-3.59h1.1v3.7l-2.62-.12ZM157.69,80.25c-.87,0-1.62-.11-2.24-.34s-1.13-.55-1.53-.97c-.4-.41-.69-.91-.87-1.48-.18-.58-.28-1.21-.28-1.9v-6.65l2.39-.48v7.13c0,.41.05.79.15,1.13.1.34.26.62.48.85s.51.41.85.53c.34.12.75.18,1.23.18.25,0,.48,0,.71-.02.23-.02.46-.04.69-.07l.21,1.91c-.28.05-.56.09-.86.13s-.61.06-.93.06Z"/>
      <path d="M164.94,80.25c-.67,0-1.28-.15-1.81-.46s-.94-.74-1.24-1.29c-.3-.55-.45-1.19-.45-1.91,0-.55.09-1.05.26-1.51.18-.45.44-.84.79-1.16.35-.32.79-.58,1.31-.76s1.13-.29,1.82-.32l3.36-.12v1.68l-3.24.11c-.44.02-.82.12-1.14.32s-.55.44-.7.74c-.15.29-.23.59-.23.9,0,.37.07.69.22.98s.37.5.67.66c.3.15.66.23,1.07.23.67,0,1.28-.16,1.83-.48.54-.32,1.05-.67,1.51-1.06l.18,1.17c-.38.43-.79.81-1.22,1.15-.43.34-.89.61-1.39.82-.5.21-1.03.31-1.6.31ZM169.58,80l-.92-1.75v-5.82c0-.4-.05-.77-.14-1.12-.09-.34-.25-.65-.47-.91s-.53-.46-.92-.6c-.39-.14-.89-.21-1.48-.21-.52,0-1.04.04-1.55.13-.51.08-1.03.2-1.55.36l-.39-1.91c.58-.17,1.21-.31,1.89-.41s1.33-.16,1.96-.16c.95,0,1.75.11,2.39.35.64.23,1.16.56,1.55.99.39.43.67.94.84,1.53.17.59.25,1.25.25,1.99v7.54h-1.45Z"/>
      <path d="M175.27,80v-12.14h1.45l.92,1.75v10.4h-2.37ZM183.02,80v-8.23c0-.69-.19-1.22-.56-1.6-.38-.38-.9-.56-1.58-.56-.41,0-.82.07-1.22.2-.4.13-.79.31-1.17.54-.38.23-.75.49-1.1.78l-.23-1.27c.74-.69,1.49-1.24,2.25-1.64.77-.41,1.58-.61,2.44-.61,1.09,0,1.96.31,2.6.94.64.63.97,1.57.97,2.83v8.62h-2.39Z"/>
      <path d="M193.99,84.32c-.91,0-1.68-.08-2.33-.23-.65-.15-1.18-.37-1.6-.64-.41-.28-.72-.6-.92-.97-.2-.37-.3-.77-.3-1.22,0-.61.13-1.14.4-1.59.27-.44.59-.87.96-1.29l.97.48c-.11.25-.2.48-.28.71s-.12.48-.12.74c0,.34.07.64.2.91.13.27.33.49.6.68.27.18.62.33,1.05.43.43.1.93.15,1.52.15.67,0,1.25-.04,1.72-.13.48-.08.87-.21,1.18-.37.31-.16.54-.35.69-.57.15-.22.22-.49.22-.79,0-.37-.11-.66-.32-.86s-.54-.31-.99-.31h-4.3c-.61,0-1.14-.09-1.59-.26-.45-.18-.79-.44-1.02-.78-.24-.34-.36-.79-.36-1.32,0-.48.08-.91.25-1.3.17-.39.39-.75.67-1.07.28-.32.58-.6.9-.83l.6.74c-.11.21-.22.47-.33.77-.12.3-.17.61-.17.93,0,.4.11.71.33.94.22.23.59.34,1.09.34h3.77c1.15,0,2.01.25,2.59.75.58.5.86,1.21.86,2.13,0,.55-.1,1.06-.3,1.53-.2.47-.53.87-.99,1.22-.46.35-1.07.61-1.82.81-.75.19-1.7.29-2.83.29ZM194.08,75.72c-1.07,0-1.97-.16-2.7-.49-.73-.33-1.28-.8-1.64-1.4-.37-.61-.55-1.31-.55-2.13s.18-1.55.54-2.16.9-1.09,1.63-1.43c.73-.34,1.64-.51,2.73-.51s1.93.16,2.67.48c.74.32,1.3.78,1.7,1.38.4.6.6,1.33.6,2.19s-.2,1.61-.6,2.22c-.4.61-.97,1.07-1.7,1.38-.74.31-1.63.47-2.67.47ZM194.08,74.07c.55,0,1.05-.08,1.48-.23.44-.15.78-.4,1.04-.74s.38-.8.38-1.38c0-.54-.13-.97-.38-1.31s-.59-.59-1.02-.76c-.43-.17-.93-.25-1.5-.25-.52,0-1,.08-1.43.23-.43.15-.77.4-1.01.75s-.37.82-.37,1.41c0,.52.13.95.39,1.29s.6.59,1.02.75c.42.16.89.24,1.39.24ZM197.53,65.69h2.39v1.06l-2.05,2.19-1.47-.07,1.13-3.17Z"/>
      <path d="M207.44,84.32c-.91,0-1.68-.08-2.33-.23-.65-.15-1.18-.37-1.6-.64-.41-.28-.72-.6-.92-.97-.2-.37-.3-.77-.3-1.22,0-.61.13-1.14.4-1.59.27-.44.59-.87.96-1.29l.97.48c-.11.25-.2.48-.28.71s-.12.48-.12.74c0,.34.07.64.2.91.13.27.33.49.6.68.27.18.62.33,1.05.43.43.1.93.15,1.52.15.67,0,1.25-.04,1.72-.13.48-.08.87-.21,1.18-.37.31-.16.54-.35.69-.57.15-.22.22-.49.22-.79,0-.37-.11-.66-.32-.86s-.54-.31-.99-.31h-4.3c-.61,0-1.14-.09-1.59-.26-.45-.18-.79-.44-1.02-.78-.24-.34-.36-.79-.36-1.32,0-.48.08-.91.25-1.3.17-.39.39-.75.67-1.07.28-.32.58-.6.9-.83l.6.74c-.11.21-.22.47-.33.77-.12.3-.17.61-.17.93,0,.4.11.71.33.94.22.23.59.34,1.09.34h3.77c1.15,0,2.01.25,2.59.75.58.5.86,1.21.86,2.13,0,.55-.1,1.06-.3,1.53-.2.47-.53.87-.99,1.22-.46.35-1.07.61-1.82.81-.75.19-1.7.29-2.83.29ZM207.53,75.72c-1.07,0-1.97-.16-2.7-.49-.73-.33-1.28-.8-1.64-1.4-.37-.61-.55-1.31-.55-2.13s.18-1.55.54-2.16.9-1.09,1.63-1.43c.73-.34,1.64-.51,2.73-.51s1.93.16,2.67.48c.74.32,1.3.78,1.7,1.38.4.6.6,1.33.6,2.19s-.2,1.61-.6,2.22c-.4.61-.97,1.07-1.7,1.38-.74.31-1.63.47-2.67.47ZM207.53,74.07c.55,0,1.05-.08,1.48-.23.44-.15.78-.4,1.04-.74s.38-.8.38-1.38c0-.54-.13-.97-.38-1.31s-.59-.59-1.02-.76c-.43-.17-.93-.25-1.5-.25-.52,0-1,.08-1.43.23-.43.15-.77.4-1.01.75s-.37.82-.37,1.41c0,.52.13.95.39,1.29s.6.59,1.02.75c.42.16.89.24,1.39.24ZM210.98,65.69h2.39v1.06l-2.05,2.19-1.47-.07,1.13-3.17Z"/>
      <path d="M220.07,80.25c-1.07,0-1.93-.36-2.58-1.09-.64-.73-.97-1.74-.97-3.05v-8.26h2.37v8.07c0,.75.19,1.33.56,1.72.38.4.89.6,1.55.6.41,0,.81-.07,1.17-.21.37-.14.73-.32,1.08-.55.35-.23.71-.48,1.08-.76l.23,1.24c-.63.66-1.32,1.2-2.08,1.63-.76.43-1.57.64-2.43.64ZM225.01,80l-.92-1.75v-10.4h2.37v12.14h-1.45Z"/>
      <path d="M230.69,80v-12.14h1.45l.92,1.75v10.4h-2.37ZM238.45,80v-8.23c0-.69-.19-1.22-.56-1.6-.38-.38-.9-.56-1.58-.56-.41,0-.82.07-1.22.2-.4.13-.79.31-1.17.54-.38.23-.75.49-1.1.78l-.23-1.27c.74-.69,1.49-1.24,2.25-1.64.77-.41,1.58-.61,2.44-.61,1.09,0,1.96.31,2.6.94.64.63.97,1.57.97,2.83v8.62h-2.39Z"/>
      <path d="M249.42,84.32c-.91,0-1.68-.08-2.33-.23-.65-.15-1.18-.37-1.6-.64-.41-.28-.72-.6-.92-.97-.2-.37-.3-.77-.3-1.22,0-.61.13-1.14.4-1.59.27-.44.59-.87.96-1.29l.97.48c-.11.25-.2.48-.28.71s-.12.48-.12.74c0,.34.07.64.2.91.13.27.33.49.6.68.27.18.62.33,1.05.43.43.1.93.15,1.52.15.67,0,1.25-.04,1.72-.13.48-.08.87-.21,1.18-.37.31-.16.54-.35.69-.57.15-.22.22-.49.22-.79,0-.37-.11-.66-.32-.86s-.54-.31-.99-.31h-4.3c-.61,0-1.14-.09-1.59-.26-.45-.18-.79-.44-1.02-.78-.24-.34-.36-.79-.36-1.32,0-.48.08-.91.25-1.3.17-.39.39-.75.67-1.07.28-.32.58-.6.9-.83l.6.74c-.11.21-.22.47-.33.77-.12.3-.17.61-.17.93,0,.4.11.71.33.94.22.23.59.34,1.09.34h3.77c1.15,0,2.01.25,2.59.75.58.5.86,1.21.86,2.13,0,.55-.1,1.06-.3,1.53-.2.47-.53.87-.99,1.22-.46.35-1.07.61-1.82.81-.75.19-1.7.29-2.83.29ZM249.51,75.72c-1.07,0-1.97-.16-2.7-.49-.73-.33-1.28-.8-1.64-1.4-.37-.61-.55-1.31-.55-2.13s.18-1.55.54-2.16.9-1.09,1.63-1.43c.73-.34,1.64-.51,2.73-.51s1.93.16,2.67.48c.74.32,1.3.78,1.7,1.38.4.6.6,1.33.6,2.19s-.2,1.61-.6,2.22c-.4.61-.97,1.07-1.7,1.38-.74.31-1.63.47-2.67.47ZM249.51,74.07c.55,0,1.05-.08,1.48-.23.44-.15.78-.4,1.04-.74s.38-.8.38-1.38c0-.54-.13-.97-.38-1.31s-.59-.59-1.02-.76c-.43-.17-.93-.25-1.5-.25-.52,0-1,.08-1.43.23-.43.15-.77.4-1.01.75s-.37.82-.37,1.41c0,.52.13.95.39,1.29s.6.59,1.02.75c.42.16.89.24,1.39.24ZM252.96,65.69h2.39v1.06l-2.05,2.19-1.47-.07,1.13-3.17Z"/>
    </g>
    <g>
      <path d="M162.16,105.88l-.14-2.71h2.58l-.11,2.71h-2.32ZM162.12,120v-12.14h2.37v12.14h-2.37Z"/>
      <path d="M168.72,120v-12.14h1.45l.92,2.85v9.29h-2.37ZM170.69,112.29v-1.59l3.73-2.85h1.06v2.55l-4.78,1.89Z"/>
      <path d="M181.04,120.25c-.67,0-1.28-.15-1.81-.46s-.94-.74-1.24-1.29c-.3-.55-.45-1.19-.45-1.91,0-.55.09-1.05.26-1.51.18-.45.44-.84.79-1.16.35-.32.79-.58,1.31-.76s1.13-.29,1.82-.32l3.36-.12v1.68l-3.24.11c-.44.02-.82.12-1.14.32s-.55.44-.7.74c-.15.29-.23.59-.23.9,0,.37.07.69.22.98s.37.5.67.66c.3.15.66.23,1.07.23.67,0,1.28-.16,1.83-.48.54-.32,1.05-.67,1.51-1.06l.18,1.17c-.38.43-.79.81-1.22,1.15-.43.34-.89.61-1.39.82-.5.21-1.03.31-1.6.31ZM185.69,120l-.92-1.75v-5.82c0-.4-.05-.77-.14-1.12-.09-.34-.25-.65-.47-.91s-.53-.46-.92-.6c-.39-.14-.89-.21-1.48-.21-.52,0-1.04.04-1.55.13-.51.08-1.03.2-1.55.36l-.39-1.91c.58-.17,1.21-.31,1.89-.41s1.33-.16,1.96-.16c.95,0,1.75.11,2.39.35.64.23,1.16.56,1.55.99.39.43.67.94.84,1.53.17.59.25,1.25.25,1.99v7.54h-1.45Z"/>
      <path d="M191.37,120v-12.14h1.45l.92,1.75v10.4h-2.37ZM198.94,120v-8.05c0-.78-.18-1.37-.55-1.76s-.87-.59-1.52-.59c-.43,0-.84.07-1.22.21-.38.14-.75.32-1.1.55s-.71.49-1.06.78l-.23-1.29c.74-.69,1.45-1.23,2.15-1.63.7-.4,1.47-.6,2.31-.6.75,0,1.39.17,1.92.49.53.33.94.8,1.23,1.41.29.61.44,1.34.44,2.19v8.28h-2.37ZM206.51,120v-8.05c0-.78-.18-1.37-.55-1.76s-.87-.59-1.52-.59-1.23.15-1.77.45c-.54.3-1.07.66-1.61,1.09l-.23-1.29c.74-.69,1.45-1.23,2.15-1.63.7-.4,1.48-.6,2.33-.6.74,0,1.37.16,1.9.47.53.31.94.78,1.23,1.39.29.61.44,1.36.44,2.23v8.28h-2.37Z"/>
      <path d="M215.61,120.25c-.67,0-1.28-.15-1.81-.46s-.94-.74-1.24-1.29c-.3-.55-.45-1.19-.45-1.91,0-.55.09-1.05.26-1.51.18-.45.44-.84.79-1.16.35-.32.79-.58,1.31-.76s1.13-.29,1.82-.32l3.36-.12v1.68l-3.24.11c-.44.02-.82.12-1.14.32s-.55.44-.7.74c-.15.29-.23.59-.23.9,0,.37.07.69.22.98s.37.5.67.66c.3.15.66.23,1.07.23.67,0,1.28-.16,1.83-.48.54-.32,1.05-.67,1.51-1.06l.18,1.17c-.38.43-.79.81-1.22,1.15-.43.34-.89.61-1.39.82-.5.21-1.03.31-1.6.31ZM220.26,120l-.92-1.75v-5.82c0-.4-.05-.77-.14-1.12-.09-.34-.25-.65-.47-.91s-.53-.46-.92-.6c-.39-.14-.89-.21-1.48-.21-.52,0-1.04.04-1.55.13-.51.08-1.03.2-1.55.36l-.39-1.91c.58-.17,1.21-.31,1.89-.41s1.33-.16,1.96-.16c.95,0,1.75.11,2.39.35.64.23,1.16.56,1.55.99.39.43.67.94.84,1.53.17.59.25,1.25.25,1.99v7.54h-1.45Z"/>
      <path d="M236.27,120.25c-.69,0-1.33-.13-1.91-.39-.58-.26-1.09-.65-1.52-1.16-.43-.51-.76-1.15-1-1.91s-.36-1.64-.36-2.63c0-1.43.23-2.63.68-3.6s1.08-1.71,1.89-2.21c.81-.5,1.71-.75,2.7-.75.8,0,1.52.11,2.16.35.64.23,1.25.53,1.82.9l-.85,1.33c-.38-.17-.8-.31-1.24-.41-.45-.11-.91-.16-1.38-.16-.67,0-1.27.17-1.77.51-.51.34-.9.83-1.18,1.48-.28.65-.42,1.45-.42,2.38,0,.71.07,1.33.21,1.86.14.54.34.98.6,1.33.26.35.59.62.98.81.39.18.82.28,1.3.28.51,0,1.08-.15,1.72-.44.64-.29,1.24-.82,1.79-1.59l.09,1.36c-.43.67-.89,1.21-1.38,1.6-.49.39-.99.67-1.5.83-.51.16-.98.24-1.43.24ZM240.61,120l-.92-1.75v-15.5h2.39v17.25h-1.47Z"/>
      <path d="M248.8,120.25c-.67,0-1.28-.15-1.81-.46s-.94-.74-1.24-1.29c-.3-.55-.45-1.19-.45-1.91,0-.55.09-1.05.26-1.51.18-.45.44-.84.79-1.16.35-.32.79-.58,1.31-.76s1.13-.29,1.82-.32l3.36-.12v1.68l-3.24.11c-.44.02-.82.12-1.14.32s-.55.44-.7.74c-.15.29-.23.59-.23.9,0,.37.07.69.22.98s.37.5.67.66c.3.15.66.23,1.07.23.67,0,1.28-.16,1.83-.48.54-.32,1.05-.67,1.51-1.06l.18,1.17c-.38.43-.79.81-1.22,1.15-.43.34-.89.61-1.39.82-.5.21-1.03.31-1.6.31ZM253.45,120l-.92-1.75v-5.82c0-.4-.05-.77-.14-1.12-.09-.34-.25-.65-.47-.91s-.53-.46-.92-.6c-.39-.14-.89-.21-1.48-.21-.52,0-1.04.04-1.55.13-.51.08-1.03.2-1.55.36l-.39-1.91c.58-.17,1.21-.31,1.89-.41s1.33-.16,1.96-.16c.95,0,1.75.11,2.39.35.64.23,1.16.56,1.55.99.39.43.67.94.84,1.53.17.59.25,1.25.25,1.99v7.54h-1.45Z"/>
      <path d="M262.97,120.25c-.69,0-1.33-.13-1.91-.39-.58-.26-1.09-.65-1.52-1.16-.43-.51-.76-1.15-1-1.91s-.36-1.64-.36-2.63c0-1.43.23-2.63.68-3.6s1.08-1.71,1.89-2.21c.81-.5,1.71-.75,2.7-.75.8,0,1.52.11,2.16.35.64.23,1.25.53,1.82.9l-.85,1.33c-.38-.17-.8-.31-1.24-.41-.45-.11-.91-.16-1.38-.16-.67,0-1.27.17-1.77.51-.51.34-.9.83-1.18,1.48-.28.65-.42,1.45-.42,2.38,0,.71.07,1.33.21,1.86.14.54.34.98.6,1.33.26.35.59.62.98.81.39.18.82.28,1.3.28.51,0,1.08-.15,1.72-.44.64-.29,1.24-.82,1.79-1.59l.09,1.36c-.43.67-.89,1.21-1.38,1.6-.49.39-.99.67-1.5.83-.51.16-.98.24-1.43.24ZM267.32,120l-.92-1.75v-15.5h2.39v17.25h-1.47Z"/>
      <path d="M273.04,105.88l-.14-2.71h2.58l-.11,2.71h-2.32ZM273,120v-12.14h2.37v12.14h-2.37Z"/>
    </g>
    <g>
      <line class="cls-11" x1="100" y1="152.82" x2="100" y2="90"/>
      <polygon points="104.99 151.36 100 160 95.01 151.36 104.99 151.36"/>
    </g>
    <g>
      <line class="cls-11" x1="180" y1="152.82" x2="180" y2="130"/>
      <polygon points="184.99 151.36 180 160 175.01 151.36 184.99 151.36"/>
    </g>
  </g>
</svg>