<?xml version="1.0" encoding="UTF-8"?>
<svg xmlns="http://www.w3.org/2000/svg" width="460" height="420" viewBox="0 0 460 420">
  <defs>
    <style>
      .cls-1 {
        fill: #9f1f11;
      }

      .cls-2 {
        fill: #332019;
      }
    </style>
  </defs>
  <g id="connectors">
    <path id="ll" class="cls-1" d="M265.48,64.84c-.26,0-.52-.11-.71-.29-.18-.19-.29-.45-.29-.71s.11-.52.29-.71c.28-.27.73-.36,1.09-.21.13.05.24.12.33.21.18.19.29.45.29.71,0,.07,0,.13-.02.2-.01.06-.03.12-.06.18-.02.06-.05.12-.09.18-.03.05-.07.1-.12.15-.09.09-.2.16-.33.21-.12.05-.25.08-.38.08ZM265.8,81.74h0c.56,0,1-.46.99-1.01h0c-.01-.56-.47-1-1.02-.98h0c-.55,0-.99.46-.99,1.01.02.55.46.98,1.01.98ZM265.71,77.52h.03c.55,0,.99-.47.98-1.02h0c0-.55-.47-.99-1.02-.98h0c-.55.01-.99.47-.98,1.02,0,.54.45.98.99.98ZM265.64,73.29h.02c.55,0,.99-.46.98-1.01h0c0-.56-.47-1-1.02-.99h0c-.55,0-.99.47-.98,1.02s.45.98,1,.98ZM265.56,69.07h.02c.55,0,.99-.47.98-1.02h0c0-.55-.47-.99-1.02-.98h0c-.55.01-.99.46-.98,1.02,0,.54.46.98,1,.98ZM266.26,85.89c.12-.05.23-.12.32-.21.19-.19.29-.45.29-.71,0-.06,0-.13-.02-.19,0-.07-.03-.13-.05-.19-.03-.06-.06-.12-.09-.17-.04-.06-.08-.11-.13-.16-.09-.09-.2-.16-.32-.21-.37-.15-.81-.07-1.09.21-.19.19-.3.45-.3.71s.11.52.3.71c.18.18.44.29.7.29.13,0,.26-.03.39-.08Z"/>
    <path id="tl" class="cls-1" d="M250.47,34.8c-.27,0-.52-.11-.71-.29-.18-.19-.29-.45-.29-.71,0-.13.02-.26.07-.38.06-.13.13-.23.22-.33.28-.28.72-.37,1.09-.21.12.05.23.12.33.21.18.19.29.45.29.71,0,.07,0,.13-.02.2-.01.06-.03.12-.06.18-.02.06-.05.12-.09.17-.04.06-.08.11-.12.16-.1.09-.21.16-.33.21-.12.06-.25.08-.38.08ZM250.59,59.97h0c.55,0,1-.45,1-1h0c0-.55-.46-1-1.01-.99h0c-.55,0-1,.45-1,1,0,.55.45.99,1,.99ZM250.58,55.78h0c.55,0,1-.45.99-1h0c0-.56-.45-1-1-1h0c-.55,0-1,.45-1,1,.01.56.46,1,1.01,1ZM250.56,51.58h0c.55,0,1-.45.99-1h0c0-.55-.45-1-1-1h0c-.56.01-1,.46-1,1.01,0,.55.46,1,1.01.99ZM250.54,47.39h0c.55-.01,1-.46.99-1.01h0c0-.55-.45-1-1-.99h0c-.56,0-1,.45-1,1s.45,1,1.01,1ZM250.52,43.19h0c.55,0,.99-.45.99-1h0c0-.56-.45-1-1-1h0c-.56,0-1,.45-1,1.01s.45.99,1.01.99ZM250.49,38.99h0c.56,0,1-.45,1-1h0c0-.55-.45-1-1-.99h0c-.56,0-1,.45-1,1s.45.99,1,.99ZM251.32,63.88c.19-.19.3-.45.3-.71s-.11-.52-.3-.71c-.04-.04-.09-.08-.15-.12-.05-.04-.11-.07-.17-.09-.06-.03-.13-.05-.19-.06-.2-.04-.39-.02-.58.06-.12.05-.23.12-.32.21-.19.19-.3.45-.3.71s.11.52.3.71c.09.09.2.16.32.21.13.05.25.08.39.08.26,0,.52-.11.7-.29Z"/>
    <path id="sm" class="cls-1" d="M67.14,164.51c-.26,0-.52-.11-.7-.29-.1-.1-.17-.21-.22-.33s-.07-.25-.07-.38.02-.26.07-.38c.05-.13.12-.24.22-.33.09-.09.2-.16.32-.21.25-.11.52-.11.77,0,.12.05.23.12.32.21.19.19.3.45.3.71s-.11.52-.3.71c-.09.09-.2.16-.32.21-.13.05-.25.08-.39.08ZM67.77,184.11h0s.02,0,.04,0h0c.55-.01.98-.47.96-1.03h0c0-.55-.48-.98-1.03-.96h0c-.55.01-.98.48-.96,1.03.01.54.46.97.99.97ZM67.65,180.19h.03c.55-.02.99-.48.97-1.04h0c-.02-.55-.48-.98-1.03-.96h0c-.55.01-.99.48-.97,1.03.02.54.46.97,1,.97ZM67.52,176.27h.03c.56-.02.99-.48.97-1.04h0c-.02-.55-.48-.98-1.03-.96h0c-.55,0-.99.48-.97,1.03.02.54.46.97,1,.97ZM67.39,172.35h.04c.55-.02.98-.48.97-1.04h0c-.02-.55-.48-.98-1.04-.96h0c-.55.02-.98.48-.96,1.03,0,.54.46.97.99.97ZM67.27,168.43h.03c.55-.02.99-.48.97-1.03h0c-.02-.56-.48-.99-1.03-.97h0c-.55.02-.99.48-.97,1.03.02.54.46.97,1,.97ZM68.28,187.95c.12-.05.23-.13.33-.22.09-.09.16-.2.21-.32.05-.13.08-.25.08-.39,0-.13-.03-.26-.08-.38s-.12-.23-.21-.32c-.1-.1-.21-.17-.33-.22-.24-.1-.52-.1-.76,0-.13.05-.24.12-.33.22-.18.19-.29.44-.29.7s.11.52.29.71c.09.09.2.17.33.22.12.05.25.07.38.07s.26-.02.38-.07Z"/>
  </g>
  <g id="shapes">
    <g id="do">
      <polygon id="o" class="cls-1" points="304.13 237.52 297.73 289.25 318.6 288.69 308.61 238.03 304.13 237.52"/>
      <polygon id="d" class="cls-1" points="289.9 186.49 312.86 184.87 304.24 226.57 326.22 220.7 326.77 244.84 305.31 242.92 291.23 217.31 289.9 186.49"/>
    </g>
    <g id="to">
      <polygon id="o-2" data-name="o" class="cls-1" points="272.42 291.06 268.87 269.96 273.49 267.57 290.06 281.92 272.42 291.06"/>
      <polygon id="t" class="cls-1" points="218.7 268.85 296.25 246.92 303.03 257.34 228.96 289.44 218.7 268.85"/>
    </g>
    <g id="what">
      <polygon id="t-2" data-name="t" class="cls-1" points="263.77 238.88 292.85 217.52 272.67 200.98 259.94 236.47 263.77 238.88"/>
      <polygon id="a" class="cls-1" points="254.33 247.88 263.44 237.37 275.33 244.21 266.94 256.7 254.33 247.88"/>
      <path id="h" class="cls-1" d="M263.62,227.15l.16,11.73-29.44-3.17-14.47-1.56-.32-13.18c-.11-4.63-.22-9.67-.33-13.96,5.06-.05,8.74-.09,14.83-.15,5.57-.06,9.59-.1,14.43-.15-.14,3.05-.36,7.66-.53,11.45-.2,4.23-.34,7.24-.49,10.45h-9.3c-.94-.94-1.35-2.23-1.35-3.48,0-1.82.5-2.9,2.22-2.9,1.63,0,2.08,1.14,2.08,2.92,0,1.38-.22,1.73-.72,2.56l23.23-.55Z"/>
      <polygon id="w" class="cls-1" points="241.77 229.36 208.83 258.25 208.82 233 185.63 238.67 202.49 292.32 247.32 233.33 241.77 229.36"/>
    </g>
    <g id="me">
      <polygon id="e" class="cls-1" points="296.72 149.7 295.2 129.77 316.55 128.44 316.96 148.27 296.72 149.7"/>
      <polygon id="m" class="cls-1" points="270.64 180.06 273.6 133.97 330 168.31 312.45 186.66 285.52 152.77 289.58 177.83 270.64 180.06"/>
    </g>
    <g id="tell">
      <polygon id="l" class="cls-1" points="255.46 179.34 272.89 178.07 274.58 203.67 255.99 202.77 255.46 179.34"/>
      <polygon id="l-2" data-name="l" class="cls-1" points="241.2 160.59 257.53 159.23 257.99 180.82 242.44 182.44 241.2 160.59"/>
      <polygon id="e-2" data-name="e" class="cls-1" points="195.48 144.6 214.02 127.68 230.13 147.27 210 161.25 195.48 144.6"/>
      <polygon id="t-3" data-name="t" class="cls-1" points="197.26 202.13 239.76 128.85 254.23 134.53 220.54 209.45 197.26 202.13"/>
    </g>
    <g id="someone">
      <polygon id="e-3" data-name="e" class="cls-1" points="131.64 151.22 133.95 131.32 174.28 128.77 174.26 151.74 131.64 151.22"/>
      <polygon id="n" class="cls-1" points="191.49 233.11 171.67 149.56 197.4 143.73 198.42 237.63 191.49 233.11"/>
      <polygon id="eo" class="cls-1" points="167.78 199.74 158.99 261 177.17 287.35 197.63 272.88 175.23 252.59 169.23 199.61 170.28 169.79 136.05 165.59 136.17 189.3 158.1 186.88 167.78 199.74"/>
      <polygon id="m-2" data-name="m" class="cls-1" points="198.42 237.63 152.39 207.62 166.88 188.51 198.37 230.8 198.42 237.63"/>
      <polygon id="o-3" data-name="o" class="cls-1" points="140.87 229.71 133.61 289.67 156.03 290.48 147.37 229 140.87 229.71"/>
      <polygon id="s" class="cls-1" points="154.55 206.06 155.81 230.22 131.03 232.86 130 205.34 154.55 206.06"/>
    </g>
  </g>
  <g id="words">
    <g id="do-2" data-name="do">
      <path class="cls-2" d="M297.91,321.43c-.87,0-1.66-.16-2.38-.47-.72-.31-1.34-.77-1.86-1.36-.52-.6-.92-1.32-1.21-2.17-.29-.85-.43-1.8-.43-2.86,0-1.58.28-2.92.85-4.03.56-1.11,1.33-1.95,2.31-2.54.98-.58,2.08-.87,3.29-.87.97,0,1.85.14,2.63.42.78.28,1.53.63,2.24,1.07l-.99,1.53c-.49-.21-1.01-.38-1.57-.51s-1.14-.2-1.73-.2c-.85,0-1.59.2-2.22.6-.63.4-1.13.96-1.48,1.69-.36.73-.53,1.59-.53,2.6,0,.73.09,1.39.26,1.98.17.59.42,1.09.75,1.51s.74.74,1.22.96c.48.23,1.03.34,1.64.34.64,0,1.37-.17,2.2-.52s1.59-1,2.3-1.95l-.03,1.64c-.54.83-1.11,1.48-1.73,1.94s-1.23.78-1.83.95c-.61.17-1.17.26-1.69.26ZM303.22,321.15l-1.07-1.92v-17.58h2.78v19.5h-1.72Z"/>
      <path class="cls-2" d="M315.83,321.43c-1.3,0-2.47-.28-3.5-.85-1.03-.56-1.85-1.38-2.46-2.44-.61-1.07-.91-2.35-.91-3.86s.3-2.79.91-3.86c.61-1.07,1.43-1.88,2.46-2.44s2.2-.85,3.5-.85,2.47.28,3.5.85,1.85,1.38,2.46,2.44c.61,1.07.91,2.35.91,3.86s-.3,2.79-.91,3.86c-.61,1.07-1.43,1.88-2.46,2.44-1.03.56-2.2.85-3.5.85ZM315.83,319.12c.83,0,1.56-.2,2.17-.6s1.1-.96,1.44-1.69c.35-.73.52-1.58.52-2.55s-.17-1.82-.52-2.55c-.35-.73-.83-1.29-1.44-1.69-.62-.4-1.34-.6-2.17-.6s-1.53.2-2.16.6c-.62.4-1.11.96-1.46,1.69-.35.73-.52,1.58-.52,2.55s.17,1.82.52,2.55c.35.73.83,1.29,1.46,1.69s1.34.6,2.16.6Z"/>
    </g>
    <g id="to-2" data-name="to">
      <path class="cls-2" d="M254.84,311.04v-2.24h10.4v2.24h-10.4ZM256.79,309.14l1.79-4.06h1.27v4.06h-3.07ZM263.11,322.82c-1.08,0-1.99-.14-2.76-.42-.76-.28-1.39-.67-1.87-1.17s-.84-1.1-1.07-1.79c-.22-.69-.34-1.45-.34-2.26v-7.02l2.78-.62v7.62c0,.52.07.99.2,1.4s.33.77.61,1.05c.28.29.63.51,1.07.66.43.16.95.23,1.56.23.29,0,.58,0,.87-.03.29-.02.57-.04.85-.08l.23,2.24c-.33.05-.67.1-1.03.13-.36.04-.72.05-1.11.05Z"/>
      <path class="cls-2" d="M274.58,322.82c-1.3,0-2.47-.28-3.5-.85-1.03-.56-1.85-1.38-2.46-2.44-.61-1.07-.91-2.35-.91-3.86s.3-2.79.91-3.86c.61-1.07,1.43-1.88,2.46-2.44s2.2-.85,3.5-.85,2.47.28,3.5.85,1.85,1.38,2.46,2.44c.61,1.07.91,2.35.91,3.86s-.3,2.79-.91,3.86c-.61,1.07-1.43,1.88-2.46,2.44-1.03.56-2.2.85-3.5.85ZM274.58,320.5c.83,0,1.56-.2,2.17-.6s1.1-.96,1.44-1.69c.35-.73.52-1.58.52-2.55s-.17-1.82-.52-2.55c-.35-.73-.83-1.29-1.44-1.69-.62-.4-1.34-.6-2.17-.6s-1.53.2-2.16.6c-.62.4-1.11.96-1.46,1.69-.35.73-.52,1.58-.52,2.55s.17,1.82.52,2.55c.35.73.83,1.29,1.46,1.69s1.34.6,2.16.6Z"/>
    </g>
    <g id="what-2" data-name="what">
      <path class="cls-2" d="M227.19,302.79l-3.35-13.23v-.49h2.63l2.34,9.31v4.42h-1.61ZM227.84,302.79l-.47-1.9,4.58-9.65h1.25l4.55,9.59-.47,1.95h-.91l-3.93-8.58-.39-.99h1.04l-.39.99-3.9,8.58h-.96ZM236.37,302.79l-.03-4.39,2.37-9.33h2.6v.49l-3.35,13.23h-1.59Z"/>
      <path class="cls-2" d="M244.82,302.79v-19.5h2.78v19.5h-2.78ZM254.36,302.79v-8.76c0-.97-.23-1.7-.7-2.2-.47-.49-1.14-.74-2-.74-.5,0-1.01.08-1.51.25-.5.17-1,.39-1.48.66-.49.28-.95.59-1.4.94l-.16-1.53c.9-.81,1.82-1.46,2.74-1.92.93-.47,1.9-.7,2.92-.7,1.33,0,2.4.45,3.19,1.34.79.89,1.18,2.14,1.18,3.73v8.94h-2.78Z"/>
      <path class="cls-2" d="M265.36,303.08c-.82,0-1.54-.18-2.17-.53-.63-.35-1.13-.84-1.48-1.47s-.53-1.33-.53-2.13c0-.61.1-1.16.3-1.66.2-.5.5-.94.91-1.31.41-.37.92-.67,1.53-.88.62-.22,1.34-.34,2.17-.38l4.26-.16v1.98l-4.21.16c-.52.02-.96.14-1.31.36-.36.23-.62.5-.79.82-.17.32-.26.64-.26.95,0,.4.09.75.26,1.07.17.31.44.56.79.73.36.17.79.26,1.31.26.87,0,1.64-.2,2.33-.58.68-.39,1.31-.8,1.89-1.24l.16,1.4c-.47.49-.97.93-1.5,1.33-.53.4-1.1.72-1.7.95-.61.23-1.26.35-1.95.35ZM271.08,302.79l-1.07-1.92v-6.37c0-.47-.06-.91-.17-1.33-.11-.42-.3-.78-.57-1.09-.27-.31-.65-.55-1.13-.73-.49-.17-1.1-.26-1.85-.26-.64,0-1.27.05-1.9.16s-1.26.25-1.9.44l-.44-2.24c.69-.21,1.45-.37,2.26-.49.81-.12,1.59-.18,2.34-.18,1.18,0,2.16.14,2.94.42.78.28,1.41.68,1.89,1.2.48.52.81,1.13,1.01,1.83.2.7.3,1.49.3,2.35v8.22h-1.72Z"/>
      <path class="cls-2" d="M276.17,291.3v-2.24h10.4v2.24h-10.4ZM278.12,289.4l1.79-4.06h1.27v4.06h-3.07ZM284.44,303.08c-1.08,0-1.99-.14-2.76-.42-.76-.28-1.39-.67-1.87-1.17s-.84-1.1-1.07-1.79c-.22-.69-.34-1.45-.34-2.26v-7.02l2.78-.62v7.62c0,.52.07.99.2,1.4s.33.77.61,1.05c.28.29.63.51,1.07.66.43.16.95.23,1.56.23.29,0,.58,0,.87-.03.29-.02.57-.04.85-.08l.23,2.24c-.33.05-.67.1-1.03.13-.36.03-.72.05-1.11.05Z"/>
    </g>
    <g id="me-2" data-name="me">
      <path class="cls-2" d="M280.26,214.96v-13.73h1.72l1.07,1.92v11.8h-2.78ZM289.54,214.96v-8.76c0-.97-.23-1.7-.69-2.2-.46-.49-1.1-.74-1.91-.74-.54,0-1.04.08-1.52.25-.48.17-.94.39-1.38.66-.44.28-.89.59-1.34.94l-.16-1.53c.9-.81,1.77-1.46,2.61-1.92s1.77-.7,2.79-.7c.9,0,1.68.2,2.33.6.65.4,1.15.98,1.51,1.73s.53,1.67.53,2.74v8.94h-2.78ZM298.82,214.96v-8.76c0-.97-.23-1.7-.69-2.2s-1.1-.74-1.91-.74-1.53.18-2.21.55c-.68.36-1.35.8-2.03,1.3l-.16-1.53c.9-.81,1.77-1.46,2.61-1.92.84-.47,1.77-.7,2.79-.7.9,0,1.68.2,2.33.6.65.4,1.15.98,1.51,1.73.35.75.53,1.67.53,2.74v8.94h-2.78Z"/>
      <path class="cls-2" d="M313.25,215.24c-1.79,0-3.24-.3-4.35-.9-1.12-.6-1.94-1.43-2.47-2.48-.53-1.06-.79-2.27-.79-3.64s.29-2.6.86-3.71c.57-1.1,1.38-1.97,2.42-2.61s2.26-.96,3.67-.96c.92,0,1.72.14,2.42.42.69.28,1.27.68,1.73,1.21.46.53.8,1.16,1.03,1.89s.34,1.55.34,2.47v2.11l-10.63.03v-1.98h8.61l-.55.99v-1.2c0-.45-.04-.87-.12-1.25-.08-.38-.19-.71-.34-1-.15-.29-.34-.53-.59-.74-.24-.21-.53-.36-.86-.47s-.7-.16-1.12-.16c-.8,0-1.51.2-2.13.58-.62.39-1.11.95-1.47,1.69-.36.74-.53,1.63-.53,2.69s.17,1.88.52,2.59.89,1.23,1.62,1.59c.74.36,1.67.53,2.79.53.69,0,1.35-.06,1.96-.17.61-.11,1.23-.26,1.86-.46l.6,2.13c-.69.24-1.43.44-2.22.58s-1.54.22-2.25.22Z"/>
    </g>
    <g id="tell-2" data-name="tell">
      <path class="cls-2" d="M217.45,229.94v-2.24h10.4v2.24h-10.4ZM219.4,228.04l1.79-4.06h1.27v4.06h-3.07ZM225.71,241.72c-1.08,0-1.99-.14-2.76-.42-.76-.28-1.39-.67-1.87-1.17s-.84-1.1-1.07-1.79c-.22-.69-.34-1.45-.34-2.26v-7.02l2.78-.62v7.62c0,.52.07.99.2,1.4s.33.77.61,1.05c.28.29.63.51,1.07.66.43.16.95.23,1.56.23.29,0,.58,0,.87-.03.29-.02.57-.04.85-.08l.23,2.24c-.33.05-.67.1-1.03.13-.36.03-.72.05-1.11.05Z"/>
      <path class="cls-2" d="M237.93,241.72c-1.79,0-3.24-.3-4.35-.9-1.12-.6-1.94-1.43-2.47-2.48-.53-1.06-.79-2.27-.79-3.64s.29-2.6.86-3.71c.57-1.1,1.38-1.97,2.42-2.61s2.26-.96,3.67-.96c.92,0,1.72.14,2.42.42.69.28,1.27.68,1.73,1.21.46.53.8,1.16,1.03,1.89s.34,1.55.34,2.47v2.11l-10.63.03v-1.98h8.61l-.55.99v-1.2c0-.45-.04-.87-.12-1.25-.08-.38-.19-.71-.34-1-.15-.29-.34-.53-.59-.74-.24-.21-.53-.36-.86-.47s-.7-.16-1.12-.16c-.8,0-1.51.2-2.13.58-.62.39-1.11.95-1.47,1.69-.36.74-.53,1.63-.53,2.69s.17,1.88.52,2.59.89,1.23,1.62,1.59c.74.36,1.67.53,2.79.53.69,0,1.35-.06,1.96-.17.61-.11,1.23-.26,1.86-.46l.6,2.13c-.69.24-1.43.44-2.22.58s-1.54.22-2.25.22Z"/>
      <path class="cls-2" d="M246.8,241.43v-19.5h2.78v19.5h-2.78Z"/>
      <path class="cls-2" d="M254.78,241.43v-19.5h2.78v19.5h-2.78Z"/>
    </g>
    <g id="someone-2" data-name="someone">
      <path class="cls-2" d="M108.79,323.94c-.87,0-1.69-.06-2.47-.17-.78-.11-1.51-.26-2.18-.46l.47-2.21c.66.17,1.33.3,2.03.39s1.41.13,2.16.13,1.31-.08,1.79-.23c.49-.16.85-.38,1.09-.66.24-.29.36-.62.36-1,0-.57-.16-.99-.47-1.25-.31-.26-.77-.43-1.38-.52l-2.29-.31c-.75-.1-1.39-.33-1.94-.68-.55-.35-.96-.79-1.25-1.33s-.43-1.13-.43-1.77c0-.94.25-1.72.74-2.35s1.18-1.11,2.07-1.42c.88-.31,1.89-.47,3.02-.47.76,0,1.5.04,2.2.13.7.09,1.41.22,2.12.42l-.47,2.21c-.61-.14-1.23-.25-1.88-.33s-1.28-.12-1.88-.12c-.68,0-1.25.07-1.72.2-.47.13-.82.32-1.05.58-.23.26-.35.61-.35,1.04,0,.54.14.92.43,1.16.29.23.7.39,1.24.46l2.78.39c.95.12,1.74.51,2.37,1.16.62.65.94,1.52.94,2.61,0,.73-.13,1.37-.4,1.91s-.66,1.01-1.18,1.38c-.52.37-1.15.65-1.9.83s-1.59.27-2.55.27Z"/>
      <path class="cls-2" d="M124.52,323.94c-1.3,0-2.47-.28-3.5-.85-1.03-.56-1.85-1.38-2.46-2.44-.61-1.07-.91-2.35-.91-3.86s.3-2.79.91-3.86c.61-1.07,1.43-1.88,2.46-2.44s2.2-.85,3.5-.85,2.47.28,3.5.85,1.85,1.38,2.46,2.44c.61,1.07.91,2.35.91,3.86s-.3,2.79-.91,3.86c-.61,1.07-1.43,1.88-2.46,2.44-1.03.56-2.2.85-3.5.85ZM124.52,321.63c.83,0,1.56-.2,2.17-.6s1.1-.96,1.44-1.69c.35-.73.52-1.58.52-2.55s-.17-1.82-.52-2.55c-.35-.73-.83-1.29-1.44-1.69-.62-.4-1.34-.6-2.17-.6s-1.53.2-2.16.6c-.62.4-1.11.96-1.46,1.69-.35.73-.52,1.58-.52,2.55s.17,1.82.52,2.55c.35.73.83,1.29,1.46,1.69s1.34.6,2.16.6Z"/>
      <path class="cls-2" d="M135.41,323.65v-13.73h1.72l1.07,1.92v11.8h-2.78ZM144.69,323.65v-8.76c0-.97-.23-1.7-.69-2.2-.46-.49-1.1-.74-1.91-.74-.54,0-1.04.08-1.52.25s-.94.39-1.38.66c-.44.28-.89.59-1.34.94l-.16-1.53c.9-.81,1.77-1.46,2.61-1.92s1.77-.7,2.79-.7c.9,0,1.68.2,2.33.6s1.15.97,1.51,1.73.53,1.67.53,2.74v8.94h-2.78ZM153.97,323.65v-8.76c0-.97-.23-1.7-.69-2.2s-1.1-.74-1.91-.74-1.53.18-2.21.55c-.68.36-1.35.8-2.03,1.3l-.16-1.53c.9-.81,1.77-1.46,2.61-1.92.84-.47,1.77-.7,2.79-.7.9,0,1.68.2,2.33.6.65.4,1.15.97,1.51,1.73.35.75.53,1.67.53,2.74v8.94h-2.78Z"/>
      <path class="cls-2" d="M168.4,323.94c-1.79,0-3.24-.3-4.35-.9-1.12-.6-1.94-1.43-2.47-2.48-.53-1.06-.79-2.27-.79-3.64s.29-2.6.86-3.71c.57-1.1,1.38-1.97,2.42-2.61,1.04-.64,2.26-.96,3.67-.96.92,0,1.72.14,2.42.42.69.28,1.27.68,1.73,1.21.46.53.8,1.16,1.03,1.89.23.73.34,1.55.34,2.47v2.11l-10.63.03v-1.98h8.61l-.55.99v-1.2c0-.45-.04-.87-.12-1.25s-.19-.71-.34-1c-.15-.29-.34-.53-.59-.74-.24-.21-.53-.36-.86-.47-.33-.1-.7-.16-1.12-.16-.8,0-1.51.2-2.13.58s-1.11.95-1.47,1.69c-.36.74-.53,1.63-.53,2.69s.17,1.88.52,2.59.89,1.23,1.62,1.59c.74.36,1.67.53,2.79.53.69,0,1.35-.06,1.96-.17.61-.11,1.23-.26,1.86-.46l.6,2.13c-.69.24-1.43.44-2.22.58-.79.15-1.54.22-2.25.22Z"/>
      <path class="cls-2" d="M182.96,323.94c-1.3,0-2.47-.28-3.5-.85-1.03-.56-1.85-1.38-2.46-2.44-.61-1.07-.91-2.35-.91-3.86s.3-2.79.91-3.86c.61-1.07,1.43-1.88,2.46-2.44s2.2-.85,3.5-.85,2.47.28,3.5.85,1.85,1.38,2.46,2.44c.61,1.07.91,2.35.91,3.86s-.3,2.79-.91,3.86c-.61,1.07-1.43,1.88-2.46,2.44-1.03.56-2.2.85-3.5.85ZM182.96,321.63c.83,0,1.56-.2,2.17-.6s1.1-.96,1.44-1.69c.35-.73.52-1.58.52-2.55s-.17-1.82-.52-2.55c-.35-.73-.83-1.29-1.44-1.69-.62-.4-1.34-.6-2.17-.6s-1.53.2-2.16.6c-.62.4-1.11.96-1.46,1.69-.35.73-.52,1.58-.52,2.55s.17,1.82.52,2.55c.35.73.83,1.29,1.46,1.69s1.34.6,2.16.6Z"/>
      <path class="cls-2" d="M193.86,323.65v-13.73h1.72l1.07,1.92v11.8h-2.78ZM203.4,323.65v-9c0-.85-.23-1.51-.7-1.99-.47-.48-1.14-.71-2-.71-.5,0-1.01.08-1.51.25s-1,.39-1.48.66c-.49.28-.95.59-1.4.94l-.16-1.53c.9-.81,1.82-1.46,2.74-1.92.93-.47,1.9-.7,2.92-.7,1.33,0,2.4.38,3.19,1.14.79.76,1.18,1.92,1.18,3.46v9.41h-2.78Z"/>
      <path class="cls-2" d="M217.83,323.94c-1.79,0-3.24-.3-4.35-.9-1.12-.6-1.94-1.43-2.47-2.48-.53-1.06-.79-2.27-.79-3.64s.29-2.6.86-3.71c.57-1.1,1.38-1.97,2.42-2.61,1.04-.64,2.26-.96,3.67-.96.92,0,1.72.14,2.42.42.69.28,1.27.68,1.73,1.21.46.53.8,1.16,1.03,1.89.23.73.34,1.55.34,2.47v2.11l-10.63.03v-1.98h8.61l-.55.99v-1.2c0-.45-.04-.87-.12-1.25s-.19-.71-.34-1c-.15-.29-.34-.53-.59-.74-.24-.21-.53-.36-.86-.47-.33-.1-.7-.16-1.12-.16-.8,0-1.51.2-2.13.58s-1.11.95-1.47,1.69c-.36.74-.53,1.63-.53,2.69s.17,1.88.52,2.59.89,1.23,1.62,1.59c.74.36,1.67.53,2.79.53.69,0,1.35-.06,1.96-.17.61-.11,1.23-.26,1.86-.46l.6,2.13c-.69.24-1.43.44-2.22.58-.79.15-1.54.22-2.25.22Z"/>
    </g>
  </g>
  <g id="letters">
    <g id="do-3" data-name="do">
      <path class="cls-2" d="M423.62,272.95c-1.14,0-2.18-.17-3.11-.51-.93-.34-1.73-.84-2.39-1.52-.66-.67-1.17-1.51-1.52-2.52-.35-1-.53-2.17-.53-3.51s.18-2.5.53-3.51c.35-1,.86-1.84,1.52-2.52.66-.67,1.46-1.18,2.39-1.52s1.97-.51,3.11-.51,2.2.17,3.12.51,1.71.84,2.37,1.52c.65.67,1.15,1.51,1.51,2.52.35,1,.53,2.17.53,3.51s-.18,2.5-.53,3.51c-.35,1-.85,1.84-1.51,2.52-.65.67-1.45,1.18-2.38,1.52-.93.34-1.97.51-3.11.51ZM423.64,270.35c.63,0,1.21-.11,1.74-.33.53-.22.98-.55,1.36-.99.38-.44.68-1,.89-1.68s.32-1.5.32-2.45-.11-1.75-.32-2.43c-.21-.68-.51-1.25-.89-1.69-.38-.45-.84-.78-1.36-1-.53-.22-1.11-.33-1.74-.33-.66.02-1.26.13-1.79.34-.54.21-.99.54-1.38.99-.38.45-.68,1.01-.89,1.69-.21.68-.32,1.49-.32,2.43s.11,1.77.32,2.45.51,1.24.9,1.68c.39.44.85.77,1.38.99.53.22,1.12.33,1.78.33Z"/>
      <path class="cls-2" d="M374.46,209.86v-15.62h3.17v15.62h-3.17ZM376.03,209.86v-2.6h4.33c.81,0,1.5-.12,2.08-.36.58-.24,1.05-.59,1.42-1.04.37-.45.64-1,.81-1.64.18-.64.26-1.35.26-2.12,0-1.1-.17-2.04-.5-2.82-.33-.78-.83-1.38-1.51-1.8-.67-.42-1.53-.64-2.55-.64h-3.59v-2.6h3.7c1.66,0,3.06.3,4.2.91,1.14.61,2,1.5,2.58,2.66.58,1.17.87,2.59.87,4.28,0,1.13-.15,2.17-.44,3.11-.29.95-.75,1.77-1.36,2.46-.62.7-1.42,1.24-2.4,1.62-.98.38-2.16.57-3.54.57h-4.38Z"/>
    </g>
    <g id="to-3" data-name="to">
      <path class="cls-2" d="M329.97,356.28c-1.14,0-2.18-.17-3.11-.51s-1.73-.84-2.39-1.52c-.66-.67-1.17-1.51-1.52-2.52-.35-1-.53-2.17-.53-3.51s.18-2.5.53-3.51c.35-1,.86-1.84,1.52-2.52.66-.67,1.46-1.18,2.39-1.52.93-.34,1.97-.51,3.11-.51s2.2.17,3.12.51c.92.34,1.71.84,2.37,1.52.65.67,1.15,1.51,1.51,2.52.35,1,.53,2.17.53,3.51s-.18,2.5-.53,3.51c-.35,1-.85,1.84-1.51,2.52-.65.67-1.45,1.18-2.38,1.52-.93.34-1.97.51-3.11.51ZM330,353.68c.63,0,1.21-.11,1.74-.33.53-.22.98-.55,1.36-.99.38-.44.68-1,.89-1.68.21-.68.32-1.5.32-2.45s-.11-1.75-.32-2.43c-.21-.68-.51-1.25-.89-1.69-.38-.45-.84-.78-1.36-1-.53-.22-1.11-.33-1.74-.33-.66.01-1.26.13-1.79.34-.54.21-.99.54-1.38.99-.38.45-.68,1.01-.89,1.69-.21.68-.32,1.49-.32,2.43s.11,1.77.32,2.45c.21.68.51,1.24.9,1.68.39.44.85.77,1.38.99.53.22,1.12.33,1.78.33Z"/>
      <path class="cls-2" d="M287.69,311.57v-2.79h12.98v2.79h-12.98ZM292.62,324.4v-15.62h3.17v15.62h-3.17Z"/>
    </g>
    <g id="what-3" data-name="what">
      <path class="cls-2" d="M288.63,206.31v-2.79h12.98v2.79h-12.98ZM293.56,219.13v-15.62h3.17v15.62h-3.17Z"/>
      <path class="cls-2" d="M264.22,256.48v-.66l6.18-14.96h2.97l6.14,14.92v.7h-3.12l-4.66-11.9-.07-1.03h.46l-.11,1.03-4.71,11.9h-3.08ZM267.57,253.68v-2.29h8.89v2.29h-8.89Z"/>
      <path class="cls-2" d="M235.16,174.34v-15.62h3.17v15.62h-3.17ZM236.12,167.87v-2.79h10.45v2.79h-10.45ZM245.08,174.34v-15.62h3.17v15.62h-3.17Z"/>
      <path class="cls-2" d="M185.2,248.1l-2.82-14.92v-.7h3.08l2.16,11.09-.33,4.53h-2.09ZM185.35,248.1l.99-2.99,4.69-10.21h1.36l4.73,10.25.9,2.95h-2.27l-4.11-8.58-.42-1.21h.95l-.44,1.21-4.14,8.58h-2.24ZM196.11,248.1l-.33-4.53,2.18-11.09h3.08v.7l-2.86,14.92h-2.07Z"/>
    </g>
    <g id="me-3" data-name="me">
      <path class="cls-2" d="M418.04,47.62v-15.62h3.17v15.62h-3.17ZM418.5,34.7v-2.71h10.78v2.71h-10.78ZM418.5,40.89v-2.33h10.08v2.33h-10.08ZM418.5,47.62v-2.71h10.78v2.71h-10.78Z"/>
      <path class="cls-2" d="M354.87,68.37v-15.62h2.27l.84,5.87v9.75h-3.1ZM361.87,64.14l-5.06-7.72-1.87-3.67h2.44l4.97,7.39.75,1.54h-1.14l.75-1.54,4.93-7.39h2.46l-1.8,3.56-5.13,7.83h-1.3ZM367.04,68.37v-9.75l.79-5.87h2.31v15.62h-3.1Z"/>
    </g>
    <g id="tell-3" data-name="tell">
      <path class="cls-2" d="M265.74,109.67v-15.62h3.17v15.62h-3.17ZM266.2,109.67v-2.79h10.08v2.79h-10.08Z"/>
      <path class="cls-2" d="M250.46,88.48v-15.62h3.17v15.62h-3.17ZM250.92,88.48v-2.79h10.08v2.79h-10.08Z"/>
      <path class="cls-2" d="M214.67,32.66v-15.62h3.17v15.62h-3.17ZM215.13,19.75v-2.71h10.78v2.71h-10.78ZM215.13,25.93v-2.33h10.08v2.33h-10.08ZM215.13,32.66v-2.71h10.78v2.71h-10.78Z"/>
      <path class="cls-2" d="M203,80.37v-2.79h12.98v2.79h-12.98ZM207.93,93.2v-15.62h3.17v15.62h-3.17Z"/>
    </g>
    <g id="someone-3" data-name="someone">
      <path class="cls-2" d="M101.21,84.15v-15.62h3.17v15.62h-3.17ZM101.68,71.23v-2.71h10.78v2.71h-10.78ZM101.68,77.42v-2.33h10.08v2.33h-10.08ZM101.68,84.15v-2.71h10.78v2.71h-10.78Z"/>
      <path class="cls-2" d="M117.82,161.69v-15.62h2.13l.97,4.95v10.67h-3.1ZM128.89,161.69l-9.2-11.55-1.72-4.07h1.98l8.82,11,1.98,4.62h-1.87ZM128.91,161.69l-1.12-5.54v-10.08h3.12v15.62h-2Z"/>
      <g>
        <path class="cls-2" d="M56.12,130.92v-15.62h3.17v15.62h-3.17ZM56.58,118v-2.71h10.78v2.71h-10.78ZM56.58,124.18v-2.33h10.08v2.33h-10.08ZM56.58,130.92v-2.71h10.78v2.71h-10.78Z"/>
        <path class="cls-2" d="M78.03,131.16c-1.14,0-2.18-.17-3.11-.51-.93-.34-1.73-.84-2.39-1.52-.66-.67-1.17-1.51-1.52-2.52-.35-1-.53-2.17-.53-3.51s.18-2.5.53-3.51c.35-1,.86-1.84,1.52-2.52.66-.67,1.46-1.18,2.39-1.52s1.97-.51,3.11-.51,2.2.17,3.12.51,1.71.84,2.37,1.52c.65.67,1.15,1.51,1.51,2.52.35,1,.53,2.17.53,3.51s-.18,2.5-.53,3.51c-.35,1-.85,1.84-1.51,2.52-.65.67-1.45,1.18-2.38,1.52-.93.34-1.97.51-3.11.51ZM78.05,128.56c.63,0,1.21-.11,1.74-.33.53-.22.98-.55,1.36-.99.38-.44.68-1,.89-1.68s.32-1.5.32-2.45-.11-1.75-.32-2.43c-.21-.68-.51-1.25-.89-1.69-.38-.45-.84-.78-1.36-1-.53-.22-1.11-.33-1.74-.33-.66.02-1.26.13-1.79.34-.54.21-.99.54-1.38.99-.38.45-.68,1.01-.89,1.69-.21.68-.32,1.49-.32,2.43s.11,1.77.32,2.45.51,1.24.9,1.68c.39.44.85.77,1.38.99.53.22,1.12.33,1.78.33Z"/>
      </g>
      <path class="cls-2" d="M65.69,213.73v-15.62h2.27l.84,5.87v9.75h-3.1ZM72.69,209.5l-5.06-7.72-1.87-3.67h2.44l4.97,7.39.75,1.54h-1.14l.75-1.54,4.93-7.39h2.46l-1.8,3.56-5.13,7.83h-1.3ZM77.86,213.73v-9.75l.79-5.87h2.31v15.62h-3.1Z"/>
      <path class="cls-2" d="M73.73,235.9c-1.14,0-2.18-.17-3.11-.51-.93-.34-1.73-.84-2.39-1.52-.66-.67-1.17-1.51-1.52-2.52-.35-1-.53-2.17-.53-3.51s.18-2.5.53-3.51c.35-1,.86-1.84,1.52-2.52.66-.67,1.46-1.18,2.39-1.52s1.97-.51,3.11-.51,2.2.17,3.12.51,1.71.84,2.37,1.52c.65.67,1.15,1.51,1.51,2.52.35,1,.53,2.17.53,3.51s-.18,2.5-.53,3.51c-.35,1-.85,1.84-1.51,2.52-.65.67-1.45,1.18-2.38,1.52-.93.34-1.97.51-3.11.51ZM73.75,233.3c.63,0,1.21-.11,1.74-.33.53-.22.98-.55,1.36-.99.38-.44.68-1,.89-1.68s.32-1.5.32-2.45-.11-1.75-.32-2.43c-.21-.68-.51-1.25-.89-1.69-.38-.45-.84-.78-1.36-1-.53-.22-1.11-.33-1.74-.33-.66.02-1.26.13-1.79.34-.54.21-.99.54-1.38.99-.38.45-.68,1.01-.89,1.69-.21.68-.32,1.49-.32,2.43s.11,1.77.32,2.45.51,1.24.9,1.68c.39.44.85.77,1.38.99.53.22,1.12.33,1.78.33Z"/>
      <path class="cls-2" d="M54.97,178.18c-.97,0-1.91-.06-2.83-.18s-1.81-.29-2.7-.51l.53-2.44c.79.19,1.6.34,2.42.45.82.11,1.64.17,2.44.17.88,0,1.58-.09,2.11-.26.53-.18.91-.42,1.13-.74.23-.31.34-.69.34-1.13,0-.25-.04-.48-.12-.69-.08-.21-.2-.4-.36-.55-.16-.15-.36-.28-.58-.38s-.5-.19-.8-.26l-3.19-.84c-.48-.12-.96-.27-1.42-.47-.46-.2-.87-.46-1.23-.79s-.65-.73-.87-1.21c-.22-.48-.33-1.04-.33-1.71,0-1,.27-1.83.8-2.51.54-.67,1.29-1.18,2.27-1.53.97-.34,2.12-.52,3.44-.52.84,0,1.69.05,2.55.15.87.1,1.69.26,2.49.46l-.55,2.44c-.46-.12-.92-.22-1.4-.3-.48-.08-.96-.14-1.44-.19s-.98-.07-1.5-.07c-.72,0-1.33.07-1.85.2-.51.13-.91.34-1.19.64-.28.29-.42.69-.42,1.19,0,.31.05.58.17.8s.26.41.46.55c.2.14.44.25.71.32l3.94.92c.57.12,1.08.29,1.53.53.45.23.82.52,1.13.87.31.34.55.76.73,1.23s.26,1.04.26,1.71c0,1.01-.26,1.86-.79,2.55-.53.69-1.29,1.21-2.29,1.56-1,.35-2.2.53-3.61.53Z"/>
    </g>
  </g>
</svg>