<?xml version="1.0" encoding="utf-8"?>
<!-- Generator: Adobe Illustrator 27.2.0, SVG Export Plug-In . SVG Version: 6.00 Build 0)  -->
<svg version="1.1" id="Layer_1" xmlns="http://www.w3.org/2000/svg" xmlns:xlink="http://www.w3.org/1999/xlink" x="0px" y="0px"
	 viewBox="0 0 1125 1125" style="enable-background:new 0 0 1125 1125;" xml:space="preserve">
<style type="text/css">
	.st0{fill:#FFFFFF;}
</style>
<rect class="st0" width="1125" height="1125"/>
<g>
	<circle cx="150" cy="1012.5" r="37.5"/>
</g>
<g>
	<circle cx="225" cy="1012.5" r="37.5"/>
</g>
<g>
	<circle cx="300" cy="1012.5" r="37.5"/>
</g>
<g>
	<circle cx="450" cy="1012.5" r="37.5"/>
</g>
<g>
	<circle cx="525" cy="1012.5" r="37.5"/>
</g>
<g>
	<circle cx="675" cy="1012.5" r="37.5"/>
</g>
<g>
	<circle cx="825" cy="1012.5" r="37.5"/>
</g>
<g>
	<circle cx="900" cy="1012.5" r="37.5"/>
</g>
<g>
	<path d="M150,900c-20.71,0-37.5,16.79-37.5,37.5h75C187.5,916.79,170.71,900,150,900z"/>
</g>
<g>
	<circle cx="300" cy="937.5" r="37.5"/>
</g>
<g>
	<circle cx="225" cy="937.5" r="37.5"/>
</g>
<g>
	<path d="M375,975c20.71,0,37.5-16.79,37.5-37.5h-75C337.5,958.21,354.29,975,375,975z"/>
</g>
<g>
	<path d="M450,900c-20.71,0-37.5,16.79-37.5,37.5h75C487.5,916.79,470.71,900,450,900z"/>
</g>
<g>
	<path d="M600,975c20.71,0,37.5-16.79,37.5-37.5h-75C562.5,958.21,579.29,975,600,975z"/>
</g>
<g>
	<circle cx="525" cy="937.5" r="37.5"/>
</g>
<g>
	<path d="M750,975c20.71,0,37.5-16.79,37.5-37.5h-75C712.5,958.21,729.29,975,750,975z"/>
</g>
<g>
	<path d="M675,900c-20.71,0-37.5,16.79-37.5,37.5h75C712.5,916.79,695.71,900,675,900z"/>
</g>
<g>
	<path d="M825,900c-20.71,0-37.5,16.79-37.5,37.5h75C862.5,916.79,845.71,900,825,900z"/>
</g>
<g>
	<path d="M975,975c20.71,0,37.5-16.79,37.5-37.5h-75C937.5,958.21,954.29,975,975,975z"/>
</g>
<g>
	<circle cx="900" cy="937.5" r="37.5"/>
</g>
<g>
	<circle cx="300" cy="862.5" r="37.5"/>
</g>
<g>
	<path d="M375,900c20.71,0,37.5-16.79,37.5-37.5h-75C337.5,883.21,354.29,900,375,900z"/>
</g>
<g>
	<path d="M225,825c-20.71,0-37.5,16.79-37.5,37.5h75C262.5,841.79,245.71,825,225,825z"/>
</g>
<g>
	<path d="M600,900c20.71,0,37.5-16.79,37.5-37.5h-75C562.5,883.21,579.29,900,600,900z"/>
</g>
<g>
	<circle cx="450" cy="862.5" r="37.5"/>
</g>
<g>
	<circle cx="675" cy="862.5" r="37.5"/>
</g>
<g>
	<path d="M525,825c-20.71,0-37.5,16.79-37.5,37.5h75C562.5,841.79,545.71,825,525,825z"/>
</g>
<g>
	<path d="M975,900c20.71,0,37.5-16.79,37.5-37.5h-75C937.5,883.21,954.29,900,975,900z"/>
</g>
<g>
	<circle cx="825" cy="862.5" r="37.5"/>
</g>
<g>
	<circle cx="150" cy="862.5" r="37.5"/>
</g>
<g>
	<path d="M900,825c-20.71,0-37.5,16.79-37.5,37.5h75C937.5,841.79,920.71,825,900,825z"/>
</g>
<g>
	<path d="M375,825c20.71,0,37.5-16.79,37.5-37.5h-75C337.5,808.21,354.29,825,375,825z"/>
</g>
<g>
	<path d="M300,750c-20.71,0-37.5,16.79-37.5,37.5h75C337.5,766.79,320.71,750,300,750z"/>
</g>
<g>
	<circle cx="675" cy="787.5" r="37.5"/>
</g>
<g>
	<circle cx="450" cy="787.5" r="37.5"/>
</g>
<g>
	<path d="M750,825c20.71,0,37.5-16.79,37.5-37.5h-75C712.5,808.21,729.29,825,750,825z"/>
</g>
<g>
	<circle cx="525" cy="787.5" r="37.5"/>
</g>
<g>
	<circle cx="150" cy="787.5" r="37.5"/>
</g>
<g>
	<path d="M825,750c-20.71,0-37.5,16.79-37.5,37.5h75C862.5,766.79,845.71,750,825,750z"/>
</g>
<g>
	<circle cx="225" cy="787.5" r="37.5"/>
</g>
<g>
	<circle cx="900" cy="787.5" r="37.5"/>
</g>
<g>
	<path d="M150,675c-20.71,0-37.5,16.79-37.5,37.5h75C187.5,691.79,170.71,675,150,675z"/>
</g>
<g>
	<path d="M600,750c20.71,0,37.5-16.79,37.5-37.5h-75C562.5,733.21,579.29,750,600,750z"/>
</g>
<g>
	<path d="M750,750c20.71,0,37.5-16.79,37.5-37.5h-75C712.5,733.21,729.29,750,750,750z"/>
</g>
<g>
	<circle cx="450" cy="712.5" r="37.5"/>
</g>
<g>
	<circle cx="525" cy="712.5" r="37.5"/>
</g>
<g>
	<path d="M975,750c20.71,0,37.5-16.79,37.5-37.5h-75C937.5,733.21,954.29,750,975,750z"/>
</g>
<g>
	<path d="M675,675c-20.71,0-37.5,16.79-37.5,37.5h75C712.5,691.79,695.71,675,675,675z"/>
</g>
<g>
	<circle cx="225" cy="712.5" r="37.5"/>
</g>
<g>
	<circle cx="825" cy="712.5" r="37.5"/>
</g>
<g>
	<circle cx="300" cy="712.5" r="37.5"/>
</g>
<g>
	<path d="M900,675c-20.71,0-37.5,16.79-37.5,37.5h75C937.5,691.79,920.71,675,900,675z"/>
</g>
<g>
	<circle cx="150" cy="637.5" r="37.5"/>
</g>
<g>
	<path d="M600,675c20.71,0,37.5-16.79,37.5-37.5h-75C562.5,658.21,579.29,675,600,675z"/>
</g>
<g>
	<path d="M225,600c-20.71,0-37.5,16.79-37.5,37.5h75C262.5,616.79,245.71,600,225,600z"/>
</g>
<g>
	<path d="M450,600c-20.71,0-37.5,16.79-37.5,37.5h75C487.5,616.79,470.71,600,450,600z"/>
</g>
<g>
	<circle cx="525" cy="637.5" r="37.5"/>
</g>
<g>
	<circle cx="675" cy="637.5" r="37.5"/>
</g>
<g>
	<circle cx="300" cy="637.5" r="37.5"/>
</g>
<g>
	<circle cx="825" cy="637.5" r="37.5"/>
</g>
<g>
	<path d="M375,675c20.71,0,37.5-16.79,37.5-37.5h-75C337.5,658.21,354.29,675,375,675z"/>
</g>
<g>
	<circle cx="900" cy="637.5" r="37.5"/>
</g>
<g>
	<path d="M600,600c20.71,0,37.5-16.79,37.5-37.5h-75C562.5,583.21,579.29,600,600,600z"/>
</g>
<g>
	<path d="M150,525c-20.71,0-37.5,16.79-37.5,37.5h75C187.5,541.79,170.71,525,150,525z"/>
</g>
<g>
	<circle cx="675" cy="562.5" r="37.5"/>
</g>
<g>
	<path d="M750,600c20.71,0,37.5-16.79,37.5-37.5h-75C712.5,583.21,729.29,600,750,600z"/>
</g>
<g>
	<path d="M300,525c-20.71,0-37.5,16.79-37.5,37.5h75C337.5,541.79,320.71,525,300,525z"/>
</g>
<g>
	<circle cx="450" cy="562.5" r="37.5"/>
</g>
<g>
	<path d="M975,600c20.71,0,37.5-16.79,37.5-37.5h-75C937.5,583.21,954.29,600,975,600z"/>
</g>
<g>
	<path d="M525,525c-20.71,0-37.5,16.79-37.5,37.5h75C562.5,541.79,545.71,525,525,525z"/>
</g>
<g>
	<circle cx="225" cy="562.5" r="37.5"/>
</g>
<g>
	<path d="M375,600c20.71,0,37.5-16.79,37.5-37.5h-75C337.5,583.21,354.29,600,375,600z"/>
</g>
<g>
	<path d="M825,525c-20.71,0-37.5,16.79-37.5,37.5h75C862.5,541.79,845.71,525,825,525z"/>
</g>
<g>
	<circle cx="900" cy="562.5" r="37.5"/>
</g>
<g>
	<circle cx="675" cy="487.5" r="37.5"/>
</g>
<g>
	<path d="M750,525c20.71,0,37.5-16.79,37.5-37.5h-75C712.5,508.21,729.29,525,750,525z"/>
</g>
<g>
	<path d="M225,450c-20.71,0-37.5,16.79-37.5,37.5h75C262.5,466.79,245.71,450,225,450z"/>
</g>
<g>
	<path d="M975,525c20.71,0,37.5-16.79,37.5-37.5h-75C937.5,508.21,954.29,525,975,525z"/>
</g>
<g>
	<circle cx="450" cy="487.5" r="37.5"/>
</g>
<g>
	<circle cx="150" cy="487.5" r="37.5"/>
</g>
<g>
	<circle cx="525" cy="487.5" r="37.5"/>
</g>
<g>
	<circle cx="300" cy="487.5" r="37.5"/>
</g>
<g>
	<circle cx="825" cy="487.5" r="37.5"/>
</g>
<g>
	<path d="M900,450c-20.71,0-37.5,16.79-37.5,37.5h75C937.5,466.79,920.71,450,900,450z"/>
</g>
<g>
	<path d="M750,450c20.71,0,37.5-16.79,37.5-37.5h-75C712.5,433.21,729.29,450,750,450z"/>
</g>
<g>
	<circle cx="150" cy="412.5" r="37.5"/>
</g>
<g>
	<path d="M300,375c-20.71,0-37.5,16.79-37.5,37.5h75C337.5,391.79,320.71,375,300,375z"/>
</g>
<g>
	<path d="M450,375c-20.71,0-37.5,16.79-37.5,37.5h75C487.5,391.79,470.71,375,450,375z"/>
</g>
<g>
	<circle cx="225" cy="412.5" r="37.5"/>
</g>
<g>
	<circle cx="525" cy="412.5" r="37.5"/>
</g>
<g>
	<path d="M375,450c20.71,0,37.5-16.79,37.5-37.5h-75C337.5,433.21,354.29,450,375,450z"/>
</g>
<g>
	<path d="M675,375c-20.71,0-37.5,16.79-37.5,37.5h75C712.5,391.79,695.71,375,675,375z"/>
</g>
<g>
	<circle cx="825" cy="412.5" r="37.5"/>
</g>
<g>
	<path d="M600,450c20.71,0,37.5-16.79,37.5-37.5h-75C562.5,433.21,579.29,450,600,450z"/>
</g>
<g>
	<circle cx="900" cy="412.5" r="37.5"/>
</g>
<g>
	<path d="M150,300c-20.71,0-37.5,16.79-37.5,37.5h75C187.5,316.79,170.71,300,150,300z"/>
</g>
<g>
	<circle cx="225" cy="337.5" r="37.5"/>
</g>
<g>
	<path d="M975,375c20.71,0,37.5-16.79,37.5-37.5h-75C937.5,358.21,954.29,375,975,375z"/>
</g>
<g>
	<circle cx="300" cy="337.5" r="37.5"/>
</g>
<g>
	<path d="M525,300c-20.71,0-37.5,16.79-37.5,37.5h75C562.5,316.79,545.71,300,525,300z"/>
</g>
<g>
	<circle cx="450" cy="337.5" r="37.5"/>
</g>
<g>
	<path d="M600,375c20.71,0,37.5-16.79,37.5-37.5h-75C562.5,358.21,579.29,375,600,375z"/>
</g>
<g>
	<circle cx="825" cy="337.5" r="37.5"/>
</g>
<g>
	<circle cx="675" cy="337.5" r="37.5"/>
</g>
<g>
	<circle cx="900" cy="337.5" r="37.5"/>
</g>
<g>
	<circle cx="150" cy="262.5" r="37.5"/>
</g>
<g>
	<path d="M975,300c20.71,0,37.5-16.79,37.5-37.5h-75C937.5,283.21,954.29,300,975,300z"/>
</g>
<g>
	<path d="M262.5,262.5h-75c0-20.71,16.79-37.5,37.5-37.5S262.5,241.79,262.5,262.5z"/>
</g>
<g>
	<circle cx="300" cy="262.5" r="37.5"/>
</g>
<g>
	<path d="M450,225c-20.71,0-37.5,16.79-37.5,37.5h75C487.5,241.79,470.71,225,450,225z"/>
</g>
<g>
	<path d="M375,300c20.71,0,37.5-16.79,37.5-37.5h-75C337.5,283.21,354.29,300,375,300z"/>
</g>
<g>
	<circle cx="525" cy="262.5" r="37.5"/>
</g>
<g>
	<circle cx="675" cy="262.5" r="37.5"/>
</g>
<g>
	<path d="M825,225c-20.71,0-37.5,16.79-37.5,37.5h75C862.5,241.79,845.71,225,825,225z"/>
</g>
<g>
	<path d="M750,300c20.71,0,37.5-16.79,37.5-37.5h-75C712.5,283.21,729.29,300,750,300z"/>
</g>
<g>
	<circle cx="900" cy="262.5" r="37.5"/>
</g>
<g>
	<path d="M975,225c20.71,0,37.5-16.79,37.5-37.5h-75C937.5,208.21,954.29,225,975,225z"/>
</g>
<g>
	<circle cx="150" cy="187.5" r="37.5"/>
</g>
<g>
	<circle cx="225" cy="187.5" r="37.5"/>
</g>
<g>
	<path d="M300,150c-20.71,0-37.5,16.79-37.5,37.5h75C337.5,166.79,320.71,150,300,150z"/>
</g>
<g>
	<path d="M375,225c20.71,0,37.5-16.79,37.5-37.5h-75C337.5,208.21,354.29,225,375,225z"/>
</g>
<g>
	<circle cx="450" cy="187.5" r="37.5"/>
</g>
<g>
	<path d="M525,150c-20.71,0-37.5,16.79-37.5,37.5h75C562.5,166.79,545.71,150,525,150z"/>
</g>
<g>
	<path d="M600,225c20.71,0,37.5-16.79,37.5-37.5h-75C562.5,208.21,579.29,225,600,225z"/>
</g>
<g>
	<path d="M675,150c-20.71,0-37.5,16.79-37.5,37.5h75C712.5,166.79,695.71,150,675,150z"/>
</g>
<g>
	<path d="M750,225c20.71,0,37.5-16.79,37.5-37.5h-75C712.5,208.21,729.29,225,750,225z"/>
</g>
<g>
	<circle cx="825" cy="187.5" r="37.5"/>
</g>
<g>
	<path d="M900,150c-20.71,0-37.5,16.79-37.5,37.5h75C937.5,166.79,920.71,150,900,150z"/>
</g>
<g>
	<circle cx="150" cy="112.5" r="37.5"/>
</g>
<g>
	<circle cx="225" cy="112.5" r="37.5"/>
</g>
<g>
	<circle cx="300" cy="112.5" r="37.5"/>
</g>
<g>
	<circle cx="450" cy="112.5" r="37.5"/>
</g>
<g>
	<circle cx="525" cy="112.5" r="37.5"/>
</g>
<g>
	<circle cx="675" cy="112.5" r="37.5"/>
</g>
<g>
	<circle cx="825" cy="112.5" r="37.5"/>
</g>
<g>
	<circle cx="900" cy="112.5" r="37.5"/>
</g>
</svg>
