<?xml version="1.0" encoding="UTF-8"?>
<svg xmlns="http://www.w3.org/2000/svg" width="5.31in" height="5.73in" viewBox="0 0 382.39 412.9">
  <defs>
    <style>
      .cls-1 {
        opacity: .1;
      }
    </style>
  </defs>
  <g id="Layer_2" data-name="Layer 2" class="cls-1">
    <path d="M0,15.25h30.51C30.51,6.83,23.68,0,15.25,0S0,6.83,0,15.25Z"/>
    <path d="M31.99,15.25h30.51C62.5,6.83,55.67,0,47.24,0s-15.25,6.83-15.25,15.25Z"/>
    <path d="M63.98,15.25h30.51C94.49,6.83,87.66,0,79.23,0s-15.25,6.83-15.25,15.25Z"/>
    <path d="M127.96,15.25h30.51C158.47,6.83,151.64,0,143.21,0s-15.25,6.83-15.25,15.25Z"/>
    <path d="M159.95,15.25h30.51C190.45,6.83,183.62,0,175.2,0s-15.25,6.83-15.25,15.25Z"/>
    <path d="M223.92,15.25h30.51C254.43,6.83,247.6,0,239.18,0s-15.25,6.83-15.25,15.25Z"/>
    <path d="M287.9,15.25h30.51C318.41,6.83,311.58,0,303.16,0s-15.25,6.83-15.25,15.25Z"/>
    <path d="M319.89,15.25h30.51C350.4,6.83,343.57,0,335.15,0s-15.25,6.83-15.25,15.25Z"/>
    <path d="M0,47.12h30.51c0-8.42-6.83-15.25-15.25-15.25S0,38.7,0,47.12Z"/>
    <path d="M31.99,47.12h30.51c0-8.42-6.83-15.25-15.25-15.25s-15.25,6.83-15.25,15.25Z"/>
    <path d="M63.98,47.12h30.51c0-8.42-6.83-15.25-15.25-15.25s-15.25,6.83-15.25,15.25Z"/>
    <path d="M127.96,47.12h30.51c0-8.42-6.83-15.25-15.25-15.25s-15.25,6.83-15.25,15.25Z"/>
    <path d="M159.95,47.12h30.51c0-8.42-6.83-15.25-15.25-15.25s-15.25,6.83-15.25,15.25Z"/>
    <path d="M223.92,47.12h30.51c0-8.42-6.83-15.25-15.25-15.25s-15.25,6.83-15.25,15.25Z"/>
    <path d="M287.9,47.12h30.51c0-8.42-6.83-15.25-15.25-15.25s-15.25,6.83-15.25,15.25Z"/>
    <path d="M319.89,47.12h30.51c0-8.42-6.83-15.25-15.25-15.25s-15.25,6.83-15.25,15.25Z"/>
    <path d="M0,78.99h30.51c0-8.42-6.83-15.25-15.25-15.25S0,70.56,0,78.99Z"/>
    <path d="M31.99,78.99h30.51c0-8.42-6.83-15.25-15.25-15.25s-15.25,6.83-15.25,15.25Z"/>
    <path d="M63.98,78.99h30.51c0-8.42-6.83-15.25-15.25-15.25s-15.25,6.83-15.25,15.25Z"/>
    <path d="M127.96,78.99h30.51c0-8.42-6.83-15.25-15.25-15.25s-15.25,6.83-15.25,15.25Z"/>
    <path d="M159.95,78.99h30.51c0-8.42-6.83-15.25-15.25-15.25s-15.25,6.83-15.25,15.25Z"/>
    <path d="M223.92,78.99h30.51c0-8.42-6.83-15.25-15.25-15.25s-15.25,6.83-15.25,15.25Z"/>
    <path d="M287.9,78.99h30.51c0-8.42-6.83-15.25-15.25-15.25s-15.25,6.83-15.25,15.25Z"/>
    <path d="M319.89,78.99h30.51c0-8.42-6.83-15.25-15.25-15.25s-15.25,6.83-15.25,15.25Z"/>
    <path d="M0,110.85h30.51c0-8.42-6.83-15.25-15.25-15.25S0,102.43,0,110.85Z"/>
    <path d="M31.99,110.85h30.51c0-8.42-6.83-15.25-15.25-15.25s-15.25,6.83-15.25,15.25Z"/>
    <path d="M63.98,110.85h30.51c0-8.42-6.83-15.25-15.25-15.25s-15.25,6.83-15.25,15.25Z"/>
    <path d="M127.96,110.85h30.51c0-8.42-6.83-15.25-15.25-15.25s-15.25,6.83-15.25,15.25Z"/>
    <path d="M159.95,110.85h30.51c0-8.42-6.83-15.25-15.25-15.25s-15.25,6.83-15.25,15.25Z"/>
    <path d="M223.92,110.85h30.51c0-8.42-6.83-15.25-15.25-15.25s-15.25,6.83-15.25,15.25Z"/>
    <path d="M287.9,110.85h30.51c0-8.42-6.83-15.25-15.25-15.25s-15.25,6.83-15.25,15.25Z"/>
    <path d="M319.89,110.85h30.51c0-8.42-6.83-15.25-15.25-15.25s-15.25,6.83-15.25,15.25Z"/>
    <path d="M0,142.72h30.51c0-8.42-6.83-15.25-15.25-15.25S0,134.29,0,142.72Z"/>
    <path d="M31.99,142.72h30.51c0-8.42-6.83-15.25-15.25-15.25s-15.25,6.83-15.25,15.25Z"/>
    <path d="M63.98,142.72h30.51c0-8.42-6.83-15.25-15.25-15.25s-15.25,6.83-15.25,15.25Z"/>
    <path d="M127.96,142.72h30.51c0-8.42-6.83-15.25-15.25-15.25s-15.25,6.83-15.25,15.25Z"/>
    <path d="M159.95,142.72h30.51c0-8.42-6.83-15.25-15.25-15.25s-15.25,6.83-15.25,15.25Z"/>
    <path d="M223.92,142.72h30.51c0-8.42-6.83-15.25-15.25-15.25s-15.25,6.83-15.25,15.25Z"/>
    <path d="M287.9,142.72h30.51c0-8.42-6.83-15.25-15.25-15.25s-15.25,6.83-15.25,15.25Z"/>
    <path d="M319.89,142.72h30.51c0-8.42-6.83-15.25-15.25-15.25s-15.25,6.83-15.25,15.25Z"/>
    <path d="M0,174.58h30.51c0-8.42-6.83-15.25-15.25-15.25S0,166.16,0,174.58Z"/>
    <path d="M31.99,174.58h30.51c0-8.42-6.83-15.25-15.25-15.25s-15.25,6.83-15.25,15.25Z"/>
    <path d="M63.98,174.58h30.51c0-8.42-6.83-15.25-15.25-15.25s-15.25,6.83-15.25,15.25Z"/>
    <path d="M127.96,174.58h30.51c0-8.42-6.83-15.25-15.25-15.25s-15.25,6.83-15.25,15.25Z"/>
    <path d="M159.95,174.58h30.51c0-8.42-6.83-15.25-15.25-15.25s-15.25,6.83-15.25,15.25Z"/>
    <path d="M223.92,174.58h30.51c0-8.42-6.83-15.25-15.25-15.25s-15.25,6.83-15.25,15.25Z"/>
    <path d="M287.9,174.58h30.51c0-8.42-6.83-15.25-15.25-15.25s-15.25,6.83-15.25,15.25Z"/>
    <path d="M319.89,174.58h30.51c0-8.42-6.83-15.25-15.25-15.25s-15.25,6.83-15.25,15.25Z"/>
    <path d="M0,206.45h30.51c0-8.42-6.83-15.25-15.25-15.25S0,198.02,0,206.45Z"/>
    <path d="M31.99,206.45h30.51c0-8.42-6.83-15.25-15.25-15.25s-15.25,6.83-15.25,15.25Z"/>
    <path d="M63.98,206.45h30.51c0-8.42-6.83-15.25-15.25-15.25s-15.25,6.83-15.25,15.25Z"/>
    <path d="M127.96,206.45h30.51c0-8.42-6.83-15.25-15.25-15.25s-15.25,6.83-15.25,15.25Z"/>
    <path d="M159.95,206.45h30.51c0-8.42-6.83-15.25-15.25-15.25s-15.25,6.83-15.25,15.25Z"/>
    <path d="M223.92,206.45h30.51c0-8.42-6.83-15.25-15.25-15.25s-15.25,6.83-15.25,15.25Z"/>
    <path d="M287.9,206.45h30.51c0-8.42-6.83-15.25-15.25-15.25s-15.25,6.83-15.25,15.25Z"/>
    <path d="M319.89,206.45h30.51c0-8.42-6.83-15.25-15.25-15.25s-15.25,6.83-15.25,15.25Z"/>
    <path d="M0,238.31h30.51c0-8.42-6.83-15.25-15.25-15.25S0,229.89,0,238.31Z"/>
    <path d="M31.99,238.31h30.51c0-8.42-6.83-15.25-15.25-15.25s-15.25,6.83-15.25,15.25Z"/>
    <path d="M63.98,238.31h30.51c0-8.42-6.83-15.25-15.25-15.25s-15.25,6.83-15.25,15.25Z"/>
    <path d="M127.96,238.31h30.51c0-8.42-6.83-15.25-15.25-15.25s-15.25,6.83-15.25,15.25Z"/>
    <path d="M159.95,238.31h30.51c0-8.42-6.83-15.25-15.25-15.25s-15.25,6.83-15.25,15.25Z"/>
    <path d="M223.92,238.31h30.51c0-8.42-6.83-15.25-15.25-15.25s-15.25,6.83-15.25,15.25Z"/>
    <path d="M287.9,238.31h30.51c0-8.42-6.83-15.25-15.25-15.25s-15.25,6.83-15.25,15.25Z"/>
    <path d="M319.89,238.31h30.51c0-8.42-6.83-15.25-15.25-15.25s-15.25,6.83-15.25,15.25Z"/>
    <path d="M0,270.18h30.51c0-8.42-6.83-15.25-15.25-15.25S0,261.76,0,270.18Z"/>
    <path d="M31.99,270.18h30.51c0-8.42-6.83-15.25-15.25-15.25s-15.25,6.83-15.25,15.25Z"/>
    <path d="M63.98,270.18h30.51c0-8.42-6.83-15.25-15.25-15.25s-15.25,6.83-15.25,15.25Z"/>
    <path d="M127.96,270.18h30.51c0-8.42-6.83-15.25-15.25-15.25s-15.25,6.83-15.25,15.25Z"/>
    <path d="M159.95,270.18h30.51c0-8.42-6.83-15.25-15.25-15.25s-15.25,6.83-15.25,15.25Z"/>
    <path d="M223.92,270.18h30.51c0-8.42-6.83-15.25-15.25-15.25s-15.25,6.83-15.25,15.25Z"/>
    <path d="M287.9,270.18h30.51c0-8.42-6.83-15.25-15.25-15.25s-15.25,6.83-15.25,15.25Z"/>
    <path d="M319.89,270.18h30.51c0-8.42-6.83-15.25-15.25-15.25s-15.25,6.83-15.25,15.25Z"/>
    <path d="M0,302.05h30.51c0-8.42-6.83-15.25-15.25-15.25S0,293.62,0,302.05Z"/>
    <path d="M31.99,302.05h30.51c0-8.42-6.83-15.25-15.25-15.25s-15.25,6.83-15.25,15.25Z"/>
    <path d="M63.98,302.05h30.51c0-8.42-6.83-15.25-15.25-15.25s-15.25,6.83-15.25,15.25Z"/>
    <path d="M127.96,302.05h30.51c0-8.42-6.83-15.25-15.25-15.25s-15.25,6.83-15.25,15.25Z"/>
    <path d="M159.95,302.05h30.51c0-8.42-6.83-15.25-15.25-15.25s-15.25,6.83-15.25,15.25Z"/>
    <path d="M223.92,302.05h30.51c0-8.42-6.83-15.25-15.25-15.25s-15.25,6.83-15.25,15.25Z"/>
    <path d="M287.9,302.05h30.51c0-8.42-6.83-15.25-15.25-15.25s-15.25,6.83-15.25,15.25Z"/>
    <path d="M319.89,302.05h30.51c0-8.42-6.83-15.25-15.25-15.25s-15.25,6.83-15.25,15.25Z"/>
    <path d="M0,333.91h30.51c0-8.42-6.83-15.25-15.25-15.25S0,325.49,0,333.91Z"/>
    <path d="M31.99,333.91h30.51c0-8.42-6.83-15.25-15.25-15.25s-15.25,6.83-15.25,15.25Z"/>
    <path d="M63.98,333.91h30.51c0-8.42-6.83-15.25-15.25-15.25s-15.25,6.83-15.25,15.25Z"/>
    <path d="M127.96,333.91h30.51c0-8.42-6.83-15.25-15.25-15.25s-15.25,6.83-15.25,15.25Z"/>
    <path d="M159.95,333.91h30.51c0-8.42-6.83-15.25-15.25-15.25s-15.25,6.83-15.25,15.25Z"/>
    <path d="M223.92,333.91h30.51c0-8.42-6.83-15.25-15.25-15.25s-15.25,6.83-15.25,15.25Z"/>
    <path d="M287.9,333.91h30.51c0-8.42-6.83-15.25-15.25-15.25s-15.25,6.83-15.25,15.25Z"/>
    <path d="M319.89,333.91h30.51c0-8.42-6.83-15.25-15.25-15.25s-15.25,6.83-15.25,15.25Z"/>
    <path d="M0,365.78h30.51c0-8.42-6.83-15.25-15.25-15.25S0,357.35,0,365.78Z"/>
    <path d="M31.99,365.78h30.51c0-8.42-6.83-15.25-15.25-15.25s-15.25,6.83-15.25,15.25Z"/>
    <path d="M63.98,365.78h30.51c0-8.42-6.83-15.25-15.25-15.25s-15.25,6.83-15.25,15.25Z"/>
    <path d="M127.96,365.78h30.51c0-8.42-6.83-15.25-15.25-15.25s-15.25,6.83-15.25,15.25Z"/>
    <path d="M159.95,365.78h30.51c0-8.42-6.83-15.25-15.25-15.25s-15.25,6.83-15.25,15.25Z"/>
    <path d="M223.92,365.78h30.51c0-8.42-6.83-15.25-15.25-15.25s-15.25,6.83-15.25,15.25Z"/>
    <path d="M287.9,365.78h30.51c0-8.42-6.83-15.25-15.25-15.25s-15.25,6.83-15.25,15.25Z"/>
    <path d="M319.89,365.78h30.51c0-8.42-6.83-15.25-15.25-15.25s-15.25,6.83-15.25,15.25Z"/>
    <path d="M0,397.64h30.51c0-8.42-6.83-15.25-15.25-15.25S0,389.22,0,397.64Z"/>
    <path d="M31.99,397.64h30.51c0-8.42-6.83-15.25-15.25-15.25s-15.25,6.83-15.25,15.25Z"/>
    <path d="M63.98,397.64h30.51c0-8.42-6.83-15.25-15.25-15.25s-15.25,6.83-15.25,15.25Z"/>
    <path d="M127.96,397.64h30.51c0-8.42-6.83-15.25-15.25-15.25s-15.25,6.83-15.25,15.25Z"/>
    <path d="M159.95,397.64h30.51c0-8.42-6.83-15.25-15.25-15.25s-15.25,6.83-15.25,15.25Z"/>
    <path d="M223.92,397.64h30.51c0-8.42-6.83-15.25-15.25-15.25s-15.25,6.83-15.25,15.25Z"/>
    <path d="M287.9,397.64h30.51c0-8.42-6.83-15.25-15.25-15.25s-15.25,6.83-15.25,15.25Z"/>
    <path d="M319.89,397.64h30.51c0-8.42-6.83-15.25-15.25-15.25s-15.25,6.83-15.25,15.25Z"/>
  </g>
  <g id="Layer_2_copy" data-name="Layer 2 copy">
    <path d="M0,15.25h30.51c0,8.42-6.83,15.25-15.25,15.25S0,23.68,0,15.25Z"/>
    <path d="M31.99,15.25h30.51c0,8.42-6.83,15.25-15.25,15.25s-15.25-6.83-15.25-15.25Z"/>
    <path d="M63.98,15.25h30.51c0,8.42-6.83,15.25-15.25,15.25s-15.25-6.83-15.25-15.25Z"/>
    <path d="M127.96,15.25h30.51c0,8.42-6.83,15.25-15.25,15.25s-15.25-6.83-15.25-15.25Z"/>
    <path d="M159.95,15.25h30.51c0,8.42-6.83,15.25-15.25,15.25s-15.25-6.83-15.25-15.25Z"/>
    <path d="M223.92,15.25h30.51c0,8.42-6.83,15.25-15.25,15.25s-15.25-6.83-15.25-15.25Z"/>
    <path d="M287.9,15.25h30.51c0,8.42-6.83,15.25-15.25,15.25s-15.25-6.83-15.25-15.25Z"/>
    <path d="M319.89,15.25h30.51c0,8.42-6.83,15.25-15.25,15.25s-15.25-6.83-15.25-15.25Z"/>
    <path d="M351.88,47.12h30.51c0,8.42-6.83,15.25-15.25,15.25s-15.25-6.83-15.25-15.25Z"/>
    <path d="M0,47.12h30.51c0,8.42-6.83,15.25-15.25,15.25S0,55.54,0,47.12Z"/>
    <path d="M31.99,47.12h30.51c0,8.42-6.83,15.25-15.25,15.25s-15.25-6.83-15.25-15.25Z"/>
    <path d="M95.97,47.12h30.51c0,8.42-6.83,15.25-15.25,15.25s-15.25-6.83-15.25-15.25Z"/>
    <path d="M127.96,47.12h30.51c0,8.42-6.83,15.25-15.25,15.25s-15.25-6.83-15.25-15.25Z"/>
    <path d="M191.93,47.12h30.51c0,8.42-6.83,15.25-15.25,15.25s-15.25-6.83-15.25-15.25Z"/>
    <path d="M255.91,47.12h30.51c0,8.42-6.83,15.25-15.25,15.25s-15.25-6.83-15.25-15.25Z"/>
    <path d="M287.9,47.12h30.51c0,8.42-6.83,15.25-15.25,15.25s-15.25-6.83-15.25-15.25Z"/>
    <path d="M319.89,78.99h30.51c0,8.42-6.83,15.25-15.25,15.25s-15.25-6.83-15.25-15.25Z"/>
    <path d="M351.88,78.99h30.51c0,8.42-6.83,15.25-15.25,15.25s-15.25-6.83-15.25-15.25Z"/>
    <path d="M0,78.99h30.51c0,8.42-6.83,15.25-15.25,15.25S0,87.41,0,78.99Z"/>
    <path d="M63.98,78.99h30.51c0,8.42-6.83,15.25-15.25,15.25s-15.25-6.83-15.25-15.25Z"/>
    <path d="M95.97,78.99h30.51c0,8.42-6.83,15.25-15.25,15.25s-15.25-6.83-15.25-15.25Z"/>
    <path d="M159.95,78.99h30.51c0,8.42-6.83,15.25-15.25,15.25s-15.25-6.83-15.25-15.25Z"/>
    <path d="M223.92,78.99h30.51c0,8.42-6.83,15.25-15.25,15.25s-15.25-6.83-15.25-15.25Z"/>
    <path d="M255.91,78.99h30.51c0,8.42-6.83,15.25-15.25,15.25s-15.25-6.83-15.25-15.25Z"/>
    <path d="M287.9,110.85h30.51c0,8.42-6.83,15.25-15.25,15.25s-15.25-6.83-15.25-15.25Z"/>
    <path d="M319.89,110.85h30.51c0,8.42-6.83,15.25-15.25,15.25s-15.25-6.83-15.25-15.25Z"/>
    <path d="M351.88,110.85h30.51c0,8.42-6.83,15.25-15.25,15.25s-15.25-6.83-15.25-15.25Z"/>
    <path d="M31.99,110.85h30.51c0,8.42-6.83,15.25-15.25,15.25s-15.25-6.83-15.25-15.25Z"/>
    <path d="M63.98,110.85h30.51c0,8.42-6.83,15.25-15.25,15.25s-15.25-6.83-15.25-15.25Z"/>
    <path d="M127.96,110.85h30.51c0,8.42-6.83,15.25-15.25,15.25s-15.25-6.83-15.25-15.25Z"/>
    <path d="M191.93,110.85h30.51c0,8.42-6.83,15.25-15.25,15.25s-15.25-6.83-15.25-15.25Z"/>
    <path d="M223.92,110.85h30.51c0,8.42-6.83,15.25-15.25,15.25s-15.25-6.83-15.25-15.25Z"/>
    <path d="M255.91,142.72h30.51c0,8.42-6.83,15.25-15.25,15.25s-15.25-6.83-15.25-15.25Z"/>
    <path d="M287.9,142.72h30.51c0,8.42-6.83,15.25-15.25,15.25s-15.25-6.83-15.25-15.25Z"/>
    <path d="M319.89,142.72h30.51c0,8.42-6.83,15.25-15.25,15.25s-15.25-6.83-15.25-15.25Z"/>
    <path d="M0,142.72h30.51c0,8.42-6.83,15.25-15.25,15.25S0,151.14,0,142.72Z"/>
    <path d="M31.99,142.72h30.51c0,8.42-6.83,15.25-15.25,15.25s-15.25-6.83-15.25-15.25Z"/>
    <path d="M95.97,142.72h30.51c0,8.42-6.83,15.25-15.25,15.25s-15.25-6.83-15.25-15.25Z"/>
    <path d="M159.95,142.72h30.51c0,8.42-6.83,15.25-15.25,15.25s-15.25-6.83-15.25-15.25Z"/>
    <path d="M191.93,142.72h30.51c0,8.42-6.83,15.25-15.25,15.25s-15.25-6.83-15.25-15.25Z"/>
    <path d="M223.92,174.58h30.51c0,8.42-6.83,15.25-15.25,15.25s-15.25-6.83-15.25-15.25Z"/>
    <path d="M255.91,174.58h30.51c0,8.42-6.83,15.25-15.25,15.25s-15.25-6.83-15.25-15.25Z"/>
    <path d="M287.9,174.58h30.51c0,8.42-6.83,15.25-15.25,15.25s-15.25-6.83-15.25-15.25Z"/>
    <path d="M351.88,174.58h30.51c0,8.42-6.83,15.25-15.25,15.25s-15.25-6.83-15.25-15.25Z"/>
    <path d="M0,174.58h30.51c0,8.42-6.83,15.25-15.25,15.25S0,183.01,0,174.58Z"/>
    <path d="M63.98,174.58h30.51c0,8.42-6.83,15.25-15.25,15.25s-15.25-6.83-15.25-15.25Z"/>
    <path d="M127.96,174.58h30.51c0,8.42-6.83,15.25-15.25,15.25s-15.25-6.83-15.25-15.25Z"/>
    <path d="M159.95,174.58h30.51c0,8.42-6.83,15.25-15.25,15.25s-15.25-6.83-15.25-15.25Z"/>
    <path d="M191.93,206.45h30.51c0,8.42-6.83,15.25-15.25,15.25s-15.25-6.83-15.25-15.25Z"/>
    <path d="M223.92,206.45h30.51c0,8.42-6.83,15.25-15.25,15.25s-15.25-6.83-15.25-15.25Z"/>
    <path d="M255.91,206.45h30.51c0,8.42-6.83,15.25-15.25,15.25s-15.25-6.83-15.25-15.25Z"/>
    <path d="M319.89,206.45h30.51c0,8.42-6.83,15.25-15.25,15.25s-15.25-6.83-15.25-15.25Z"/>
    <path d="M351.88,206.45h30.51c0,8.42-6.83,15.25-15.25,15.25s-15.25-6.83-15.25-15.25Z"/>
    <path d="M31.99,206.45h30.51c0,8.42-6.83,15.25-15.25,15.25s-15.25-6.83-15.25-15.25Z"/>
    <path d="M95.97,206.45h30.51c0,8.42-6.83,15.25-15.25,15.25s-15.25-6.83-15.25-15.25Z"/>
    <path d="M127.96,206.45h30.51c0,8.42-6.83,15.25-15.25,15.25s-15.25-6.83-15.25-15.25Z"/>
    <path d="M159.95,238.31h30.51c0,8.42-6.83,15.25-15.25,15.25s-15.25-6.83-15.25-15.25Z"/>
    <path d="M191.93,238.31h30.51c0,8.42-6.83,15.25-15.25,15.25s-15.25-6.83-15.25-15.25Z"/>
    <path d="M223.92,238.31h30.51c0,8.42-6.83,15.25-15.25,15.25s-15.25-6.83-15.25-15.25Z"/>
    <path d="M287.9,238.31h30.51c0,8.42-6.83,15.25-15.25,15.25s-15.25-6.83-15.25-15.25Z"/>
    <path d="M319.89,238.31h30.51c0,8.42-6.83,15.25-15.25,15.25s-15.25-6.83-15.25-15.25Z"/>
    <path d="M0,238.31h30.51c0,8.42-6.83,15.25-15.25,15.25S0,246.74,0,238.31Z"/>
    <path d="M63.98,238.31h30.51c0,8.42-6.83,15.25-15.25,15.25s-15.25-6.83-15.25-15.25Z"/>
    <path d="M95.97,238.31h30.51c0,8.42-6.83,15.25-15.25,15.25s-15.25-6.83-15.25-15.25Z"/>
    <path d="M127.96,270.18h30.51c0,8.42-6.83,15.25-15.25,15.25s-15.25-6.83-15.25-15.25Z"/>
    <path d="M159.95,270.18h30.51c0,8.42-6.83,15.25-15.25,15.25s-15.25-6.83-15.25-15.25Z"/>
    <path d="M191.93,270.18h30.51c0,8.42-6.83,15.25-15.25,15.25s-15.25-6.83-15.25-15.25Z"/>
    <path d="M255.91,270.18h30.51c0,8.42-6.83,15.25-15.25,15.25s-15.25-6.83-15.25-15.25Z"/>
    <path d="M287.9,270.18h30.51c0,8.42-6.83,15.25-15.25,15.25s-15.25-6.83-15.25-15.25Z"/>
    <path d="M351.88,270.18h30.51c0,8.42-6.83,15.25-15.25,15.25s-15.25-6.83-15.25-15.25Z"/>
    <path d="M31.99,270.18h30.51c0,8.42-6.83,15.25-15.25,15.25s-15.25-6.83-15.25-15.25Z"/>
    <path d="M63.98,270.18h30.51c0,8.42-6.83,15.25-15.25,15.25s-15.25-6.83-15.25-15.25Z"/>
    <path d="M95.97,302.05h30.51c0,8.42-6.83,15.25-15.25,15.25s-15.25-6.83-15.25-15.25Z"/>
    <path d="M127.96,302.05h30.51c0,8.42-6.83,15.25-15.25,15.25s-15.25-6.83-15.25-15.25Z"/>
    <path d="M159.95,302.05h30.51c0,8.42-6.83,15.25-15.25,15.25s-15.25-6.83-15.25-15.25Z"/>
    <path d="M223.92,302.05h30.51c0,8.42-6.83,15.25-15.25,15.25s-15.25-6.83-15.25-15.25Z"/>
    <path d="M255.91,302.05h30.51c0,8.42-6.83,15.25-15.25,15.25s-15.25-6.83-15.25-15.25Z"/>
    <path d="M319.89,302.05h30.51c0,8.42-6.83,15.25-15.25,15.25s-15.25-6.83-15.25-15.25Z"/>
    <path d="M0,302.05h30.51c0,8.42-6.83,15.25-15.25,15.25S0,310.47,0,302.05Z"/>
    <path d="M31.99,302.05h30.51c0,8.42-6.83,15.25-15.25,15.25s-15.25-6.83-15.25-15.25Z"/>
    <path d="M63.98,333.91h30.51c0,8.42-6.83,15.25-15.25,15.25s-15.25-6.83-15.25-15.25Z"/>
    <path d="M95.97,333.91h30.51c0,8.42-6.83,15.25-15.25,15.25s-15.25-6.83-15.25-15.25Z"/>
    <path d="M127.96,333.91h30.51c0,8.42-6.83,15.25-15.25,15.25s-15.25-6.83-15.25-15.25Z"/>
    <path d="M191.93,333.91h30.51c0,8.42-6.83,15.25-15.25,15.25s-15.25-6.83-15.25-15.25Z"/>
    <path d="M223.92,333.91h30.51c0,8.42-6.83,15.25-15.25,15.25s-15.25-6.83-15.25-15.25Z"/>
    <path d="M287.9,333.91h30.51c0,8.42-6.83,15.25-15.25,15.25s-15.25-6.83-15.25-15.25Z"/>
    <path d="M351.88,333.91h30.51c0,8.42-6.83,15.25-15.25,15.25s-15.25-6.83-15.25-15.25Z"/>
    <path d="M0,333.91h30.51c0,8.42-6.83,15.25-15.25,15.25s-15.25-6.83-15.25-15.25Z"/>
    <path d="M31.99,365.78h30.51c0,8.42-6.83,15.25-15.25,15.25s-15.25-6.83-15.25-15.25Z"/>
    <path d="M63.98,365.78h30.51c0,8.42-6.83,15.25-15.25,15.25s-15.25-6.83-15.25-15.25Z"/>
    <path d="M95.97,365.78h30.51c0,8.42-6.83,15.25-15.25,15.25s-15.25-6.83-15.25-15.25Z"/>
    <path d="M159.95,365.78h30.51c0,8.42-6.83,15.25-15.25,15.25s-15.25-6.83-15.25-15.25Z"/>
    <path d="M191.93,365.78h30.51c0,8.42-6.83,15.25-15.25,15.25s-15.25-6.83-15.25-15.25Z"/>
    <path d="M255.91,365.78h30.51c0,8.42-6.83,15.25-15.25,15.25s-15.25-6.83-15.25-15.25Z"/>
    <path d="M319.89,365.78h30.51c0,8.42-6.83,15.25-15.25,15.25s-15.25-6.83-15.25-15.25Z"/>
    <path d="M351.88,365.78h30.51c0,8.42-6.83,15.25-15.25,15.25s-15.25-6.83-15.25-15.25Z"/>
    <path d="M0,397.64h30.51c0,8.42-6.83,15.25-15.25,15.25S0,406.07,0,397.64Z"/>
    <path d="M31.99,397.64h30.51c0,8.42-6.83,15.25-15.25,15.25s-15.25-6.83-15.25-15.25Z"/>
    <path d="M63.98,397.64h30.51c0,8.42-6.83,15.25-15.25,15.25s-15.25-6.83-15.25-15.25Z"/>
    <path d="M127.96,397.64h30.51c0,8.42-6.83,15.25-15.25,15.25s-15.25-6.83-15.25-15.25Z"/>
    <path d="M159.95,397.64h30.51c0,8.42-6.83,15.25-15.25,15.25s-15.25-6.83-15.25-15.25Z"/>
    <path d="M223.92,397.64h30.51c0,8.42-6.83,15.25-15.25,15.25s-15.25-6.83-15.25-15.25Z"/>
    <path d="M287.9,397.64h30.51c0,8.42-6.83,15.25-15.25,15.25s-15.25-6.83-15.25-15.25Z"/>
    <path d="M319.89,397.64h30.51c0,8.42-6.83,15.25-15.25,15.25s-15.25-6.83-15.25-15.25Z"/>
  </g>
</svg>