<?xml version="1.0" encoding="UTF-8"?>
<svg id="Layer_2" data-name="Layer 2" xmlns="http://www.w3.org/2000/svg" viewBox="0 0 164.21 164.21">
  <defs>
    <style>
      .cls-1 {
        fill: #60889a;
      }

      .cls-2 {
        stroke: #60889a;
      }

      .cls-2, .cls-3 {
        fill: none;
        stroke-miterlimit: 10;
        stroke-width: 10px;
      }

      .cls-3 {
        stroke: #332019;
      }
    </style>
  </defs>
  <path class="cls-3" d="M159.21,82.1c0,45.06-26.01,77.1-77.1,77.1S5,137.24,5,82.1,30.64,5,82.1,5s77.1,32.75,77.1,77.1Z"/>
  <g>
    <path class="cls-2" d="M82.1,126.98c26.03,0,44.87-18.85,44.87-44.87s-18.85-44.87-44.87-44.87-44.87,18.85-44.87,44.87,18.85,44.87,44.87,44.87Z"/>
    <path class="cls-1" d="M90.25,98.61l-2.58-8.04h-11.99l-2.54,8.04h-7.73v-.45l15.09-34.5h4l14.31,34.5v.45h-8.56ZM86.29,86.19l-4.69-14.62-4.56,14.62h9.25Z"/>
  </g>
</svg>