<?xml version="1.0" encoding="UTF-8"?>
<svg id="Layer_2" data-name="Layer 2" xmlns="http://www.w3.org/2000/svg" width="477.19" height="167.4" viewBox="0 0 477.19 167.4">
  <defs>
    <style>
      .cls-1 {
        fill: #b05f57;
      }

      .cls-2 {
        fill: #60889a;
      }

      .cls-3 {
        fill: #fff;
      }

      .cls-4 {
        fill: none;
        stroke: #332019;
        stroke-miterlimit: 10;
        stroke-width: 10px;
      }
    </style>
  </defs>
  <g>
    <path class="cls-2" d="M102.68,128.57c26.03,0,44.87-18.85,44.87-44.87s-18.85-44.87-44.87-44.87-44.87,18.85-44.87,44.87,18.85,44.87,44.87,44.87Z"/>
    <path class="cls-3" d="M110.82,100.21l-2.58-8.04h-11.99l-2.54,8.04h-7.73v-.45l15.09-34.5h4l14.31,34.5v.45h-8.56ZM106.87,87.79l-4.69-14.62-4.56,14.62h9.25Z"/>
  </g>
  <rect class="cls-4" x="23.98" y="-13.98" width="157.4" height="195.35" transform="translate(186.38 -18.98) rotate(90)"/>
  <rect class="cls-4" x="200.35" y="5" width="157.4" height="157.4" transform="translate(558.11 167.4) rotate(180)"/>
  <g>
    <path class="cls-1" d="M279.05,128.57c26.03,0,44.87-18.85,44.87-44.87s-18.85-44.87-44.87-44.87-44.87,18.85-44.87,44.87,18.85,44.87,44.87,44.87Z"/>
    <path class="cls-3" d="M268.09,65.71h10.15c3.94,0,6.98.77,9.12,2.3,2.14,1.53,3.21,3.56,3.21,6.08,0,1.92-.55,3.55-1.66,4.91-1.11,1.36-2.64,2.25-4.58,2.68v.45c2.52.43,4.35,1.37,5.51,2.82,1.16,1.44,1.74,3.12,1.74,5.04,0,1.3-.28,2.55-.84,3.74-.56,1.19-1.38,2.28-2.46,3.26-1.08.98-2.52,1.76-4.33,2.35-1.81.58-3.86.88-6.15.88h-9.7l1.06-18.13-1.06-16.37ZM275.35,82.08l.74,12.6h2.45c1.96,0,3.48-.51,4.55-1.54,1.07-1.03,1.61-2.44,1.61-4.26,0-1.12-.28-2.09-.85-2.91-.57-.82-1.25-1.42-2.04-1.81-.79-.39-1.68-.66-2.67-.81v-2.65c1.51-.28,2.67-.79,3.48-1.5s1.21-1.8,1.21-3.23c0-1.27-.48-2.34-1.45-3.21s-2.46-1.3-4.48-1.3h-1.84l-.7,10.62Z"/>
  </g>
  <rect class="cls-4" x="357.76" y="5" width="114.43" height="157.4" transform="translate(829.95 167.4) rotate(180)"/>
</svg>