<?xml version="1.0" encoding="UTF-8"?>
<svg id="Layer_1" xmlns="http://www.w3.org/2000/svg" version="1.1" viewBox="0 0 1000 1000">
  <!-- Generator: Adobe Illustrator 29.1.0, SVG Export Plug-In . SVG Version: 2.1.0 Build 142)  -->
  <defs>
    <style>
      .st0 {
        display: none;
        fill: #cbd0d7;
      }

      .st1 {
        fill: #af4109;
      }
    </style>
  </defs>
  <rect class="st0" x="-433.93" y="-194.88" width="1919.91" height="1664.99"/>
  <g>
    <path class="st1" d="M748.2,508.44l-116.26-18.85-35.61-70.18c-7.77,1.07-15.62,2-23.54,2.8-10.4,23.37-18.37,46.22-23.97,68.34,129.84,1.37,199.41,61.35,199.41,141.44,0,70.18-52.37,107.88-112.07,107.88h-.01c-49.73.01-87.88-27.35-105.89-85.41-7.46.38-14.43.56-20.83.56-23.39,0-42.82-2.55-58.85-6.86-7.33,69.3-47.67,133.61-128.64,133.61h.03c-67.03-.01-104.73-38.76-104.73-101.61,0-80.65,68.07-116.26,149.78-105.79l-15.72,113.12c-37.7-10.47-60.75-12.57-75.41-12.57-31.41,0-40.84,10.49-40.84,24.1,0,15.7,23.03,30.37,75.41,30.37,77.97,0,117.28-38.66,125.21-86.1-39.75-15.55-52.96-43.59-52.96-65.77s13.61-33.51,30.37-33.51c22,0,38.76,19.91,38.76,80.65,0,1.28-.01,2.56-.03,3.84,2.7.22,5.5.35,8.44.35,15.59,0,35.33-3.34,61.47-14.78-1.87-14.37-2.84-30.02-2.84-47s.7-33.62,2.13-50.77c-11.83.32-24.39,1.16-37.74,2.58l-3.14-24.09c15.12-1.91,29.62-3.15,43.53-3.77,2.7-21.64,6.58-43.66,11.72-66.1-11.22.51-22.64.78-34.32.78-63.89,0-108.94-26.19-108.94-81.7,0-45.04,30.37-65.99,68.08-65.99s68.08,24.08,73.33,87.98l-53.42,11.51c-1.05-67.04-11.53-81.7-26.19-81.7-13.61,0-21.99,12.57-21.99,41.89,0,42.93,18.85,67.03,87.98,67.03,6.86,0,13.69-.14,20.51-.39,27.93-107.13,84.56-223.78,178.64-353.92C652.88,18.12,578.56,0,500,0,223.86,0,0,223.86,0,500s223.86,500,500,500c145.93,0,277.25-62.52,368.65-162.23-59.13-111.03-94.91-212.06-120.45-329.33ZM343.93,507.35c-15.72,0-27.23-11.51-27.23-27.23s11.51-27.23,27.23-27.23,27.23,11.51,27.23,27.23-11.51,27.23-27.23,27.23ZM494.96,436.02c13.61,0,23.04,9.43,23.04,23.04s-9.43,23.04-23.04,23.04-23.04-9.43-23.04-23.04,9.43-23.04,23.04-23.04ZM440.38,442.42c13.61,0,23.04,9.43,23.04,23.04s-9.43,23.04-23.04,23.04-23.04-9.43-23.04-23.04,9.43-23.04,23.04-23.04ZM466.46,496.88l3.14,24.09-72.28,9.43-3.14-24.09,72.28-9.43ZM64.28,362.82c0-76.45,52.37-128.83,137.21-128.83,102.65,0,166.53,84.84,209.48,253.47l-18.85,6.28c-51.31-148.73-113.11-181.2-191.67-181.2s-116.26,30.38-116.26,63.89c0,20.95,13.61,41.89,60.75,41.89,34.56,0,87.98-11.53,144.53-45.04l14.66,112.07c-30.38,7.32-62.83,11.51-91.11,11.51h0-.01s0,0,.01,0c-107.89,0-148.73-61.79-148.73-134.06ZM354.4,896.98l-68.08-9.43c10.47-23.04,14.66-41.89,14.66-53.42,0-16.76-7.34-24.1-18.85-24.1-14.66,0-29.33,16.76-32.46,72.27l-45.04-6.28h-.01c11.51-56.54,35.61-83.77,78.56-83.77s73.33,30.37,71.23,104.73ZM796.39,832.06c-59.7-41.89-115.21-55.52-180.15-54.46l-1.04-20.95h0c67.03-8.39,133.02-6.3,199.01,7.33l-17.81,68.08Z"/>
    <path class="st1" d="M582.65,401.36c17.98-1.8,36.33-4.24,55.58-7.12l9.43,83.79,102.65-17.81c39.04,111.3,97.86,202.83,183.72,288.18,41.97-73.18,65.97-157.98,65.97-248.4,0-150.96-66.9-286.3-172.68-377.98-119.34,92.76-199.69,189.42-244.68,279.34ZM732.51,449.64c-15.72,0-27.23-11.51-27.23-27.23s11.51-27.23,27.23-27.23,27.23,11.51,27.23,27.23-11.51,27.23-27.23,27.23Z"/>
    <path class="st1" d="M418.32,580.66c-8.38,0-12.57,5.23-12.57,13.61,0,12.75,10.32,26.11,31.4,31.76,0-.46.02-.92.02-1.39,0-33.51-9.42-43.99-18.85-43.99Z"/>
    <path class="st1" d="M616.25,694.85c37.7,0,67.03-25.15,67.03-73.33,0-54.33-37.87-101.83-139.98-105.18-3.04,17.47-4.55,34.41-4.55,50.72,0,13.72.74,26.27,2.16,37.67,20.94-11.08,45.42-26.89,74.31-49.23l21.99,82.75c-30.6,7.49-58.96,12.01-83.54,14.43,13.39,28.64,35.13,42.16,62.58,42.16Z"/>
  </g>
</svg>