<?xml version="1.0" encoding="UTF-8"?>
<svg id="Layer_1" xmlns="http://www.w3.org/2000/svg" version="1.1" viewBox="0 0 1000 905.56">
  <!-- Generator: Adobe Illustrator 29.1.0, SVG Export Plug-In . SVG Version: 2.1.0 Build 142)  -->
  <defs>
    <style>
      .st0 {
        display: none;
        fill: #cbd0d7;
      }
    </style>
  </defs>
  <rect class="st0" x="-433.93" y="-194.88" width="1919.91" height="1664.99"/>
  <g>
    <path d="M584.44,756.67c71.11-8.89,141.11-6.67,211.11,7.78l-18.89,72.22c-63.33-44.44-122.22-58.89-191.11-57.78l-1.11-22.22h0Z"/>
    <path d="M148.89,883.33c12.22-60,37.78-88.89,83.33-88.89s77.78,32.22,75.56,111.11l-72.22-10c11.11-24.44,15.56-44.44,15.56-56.67,0-17.78-7.78-25.56-20-25.56-15.56,0-31.11,17.78-34.44,76.67l-47.78-6.67h0Z"/>
    <path d="M273.33,783.33c95.56,0,137.78-84.44,137.78-166.67,0-64.44-17.78-85.56-41.11-85.56-17.78,0-32.22,12.22-32.22,35.56,0,34.44,30,82.22,134.44,82.22,33.33,0,81.11-4.44,135.56-17.78l-23.33-87.78c-83.33,64.44-132.22,77.78-164.44,77.78-38.89,0-57.78-18.89-57.78-36.67,0-8.89,4.44-14.44,13.33-14.44,10,0,20,11.11,20,46.67,0,58.89-41.11,111.11-134.44,111.11-55.56,0-80-15.56-80-32.22,0-14.44,10-25.56,43.33-25.56,15.56,0,40,2.22,80,13.33l16.67-120c-86.67-11.11-158.89,26.67-158.89,112.22,0,66.67,40,107.78,111.11,107.78h-.01Z"/>
  </g>
  <g>
    <path d="M267.78,463.33c0,16.67,12.22,28.89,28.89,28.89s28.89-12.22,28.89-28.89-12.22-28.89-28.89-28.89-28.89,12.22-28.89,28.89h0Z"/>
    <path d="M456.89,465.44c14.44,0,24.44-10,24.44-24.44s-10-24.44-24.44-24.44-24.44,10-24.44,24.44,10,24.44,24.44,24.44Z"/>
    <rect x="351.33" y="486.01" width="77.32" height="25.77" transform="translate(-61.24 54.62) rotate(-7.43)"/>
    <path d="M606.67,738.89c63.33,0,118.89-40,118.89-114.44,0-98.89-100-168.89-284.44-145.56l3.33,25.56c156.67-16.67,212.22,41.11,212.22,108.89,0,51.11-31.11,77.78-71.11,77.78-50,0-82.22-42.22-82.22-135.56,0-137.78,101.11-317.78,322.22-484.44L700,0c-156.67,214.44-217.78,394.44-217.78,555.56,0,125.56,50,183.33,124.44,183.33h0Z"/>
    <path d="M157.78,481.11c30,0,64.44-4.44,96.67-12.22l-15.56-118.89c-60,35.56-116.67,47.78-153.33,47.78-50,0-64.44-22.22-64.44-44.44,0-35.56,40-67.78,123.33-67.78s148.89,34.44,203.33,192.22l20-6.67c-45.56-178.89-113.33-268.89-222.22-268.89-90,0-145.56,55.56-145.56,136.67,0,76.67,43.33,142.22,157.78,142.22h0Z"/>
  </g>
  <g>
    <path d="M423.44,447.78c0-14.44-10-24.44-24.44-24.44s-24.44,10-24.44,24.44,10,24.44,24.44,24.44,24.44-10,24.44-24.44Z"/>
    <path d="M680,402.11c0,16.67,12.22,28.89,28.89,28.89s28.89-12.22,28.89-28.89-12.22-28.89-28.89-28.89-28.89,12.22-28.89,28.89Z"/>
    <path d="M874.44,881.11l125.56-63.33c-134.44-111.11-220-226.67-272.22-375.56l-108.89,18.89-10-88.89c-44.44,6.67-84.44,11.11-125.56,11.11-73.33,0-93.33-25.56-93.33-71.11,0-31.11,8.89-44.44,23.33-44.44,15.56,0,26.67,15.56,27.78,86.67l56.67-12.22c-5.56-67.78-37.78-93.33-77.78-93.33s-72.22,22.22-72.22,70c0,58.89,47.78,86.67,115.56,86.67,35.56,0,68.89-2.22,101.11-6.67l37.78,74.44,123.33,20c30,137.78,73.33,254.44,148.89,387.78h-.01Z"/>
  </g>
</svg>