<?xml version="1.0" encoding="UTF-8"?>
<svg id="Layer_1" xmlns="http://www.w3.org/2000/svg" version="1.1" viewBox="0 0 100 100">
  <!-- Generator: Adobe Illustrator 30.0.0, SVG Export Plug-In . SVG Version: 2.1.1 Build 123)  -->
  <defs>
    <style>
      .st0 {
        fill: #fff;
      }

      .st1 {
        fill: #ed4a00;
      }
    </style>
  </defs>
  <rect class="st0" width="100" height="100"/>
  <polygon class="st1" points="56.8 31.8 63.9 85.5 49.5 85.9 56.8 31.8"/>
  <path class="st1" d="M66.6,88.4V12.6l26.1,1.8v72.7l-26.1,1.4ZM71.4,80.7l14.5.8-2.4-38.1-11.2,1.6-1,35.7Z"/>
  <circle class="st1" cx="57" cy="25" r="6.9"/>
  <circle class="st1" cx="18.7" cy="44.4" r="4"/>
  <path class="st1" d="M7.3,87.4V14.2l39.7-3.9v79.4l-39.7-2.4ZM14.3,82.3l9.5.8,3.2-61.7-15,1.6,2.4,59.3ZM30.3,31.8l6.3,40,6.5-39.3-12.8-.7ZM36.6,81.5c2.7,0,4.8-2.1,4.8-4.8s-2.1-4.8-4.8-4.8-4.8,2.1-4.8,4.8c0,2.8,2.1,4.8,4.8,4.8Z"/>
  <circle class="st1" cx="78.2" cy="73.8" r="4.5"/>
</svg>