<?xml version="1.0" encoding="utf-8"?>
<!-- Generator: Adobe Illustrator 27.2.0, SVG Export Plug-In . SVG Version: 6.00 Build 0)  -->
<svg version="1.1" id="Layer_1" xmlns="http://www.w3.org/2000/svg" xmlns:xlink="http://www.w3.org/1999/xlink" x="0px" y="0px"
	 viewBox="0 0 100 100" style="enable-background:new 0 0 100 100;" xml:space="preserve">
<style type="text/css">
	.st0{fill:#ED4A00;}
</style>
<polygon class="st0" points="57.92,28.72 66.23,91.6 49.43,92.02 "/>
<path class="st0" d="M69.45,95V6.15L100,8.3v85.07L69.45,95z M75.05,85.93l17.03,0.93l-2.76-44.63l-13.12,1.91L75.05,85.93z"/>
<circle class="st0" cx="58.22" cy="20.69" r="8.05"/>
<circle class="st0" cx="13.4" cy="43.49" r="4.72"/>
<path class="st0" d="M0,93.73V8.09l46.44-4.59v93.02L0,93.73z M8.25,87.78l11.13,0.93l3.7-72.23L5.47,18.33L8.25,87.78z
	 M26.97,28.72l7.38,46.85l7.56-46.03L26.97,28.72z M34.36,86.85c3.21,0,5.64-2.43,5.64-5.64c0-3.21-2.43-5.64-5.64-5.64
	c-3.21,0-5.64,2.43-5.64,5.64C28.72,84.43,31.14,86.85,34.36,86.85z"/>
<circle class="st0" cx="83.06" cy="77.86" r="5.25"/>
</svg>
