<?xml version="1.0" encoding="UTF-8"?>
<svg id="Layer_1" xmlns="http://www.w3.org/2000/svg" version="1.1" viewBox="0 0 1152 962">
  <!-- Generator: Adobe Illustrator 30.0.0, SVG Export Plug-In . SVG Version: 2.1.1 Build 123)  -->
  <defs>
    <style>
      .st0 {
        fill: none;
        stroke: #000;
        stroke-miterlimit: 10;
        stroke-width: 2px;
      }
    </style>
  </defs>
  <rect class="st0" x="1" y="1" width="130" height="210"/>
  <rect class="st0" x="1021" y="751" width="130" height="210"/>
  <rect class="st0" x="681" y="891" width="130" height="70"/>
  <rect class="st0" x="681" y="751" width="130" height="140"/>
  <rect class="st0" x="341" y="751" width="100" height="210"/>
  <rect class="st0" x="351" y="761" width="80" height="130"/>
  <rect class="st0" x="361" y="771" width="60" height="110"/>
  <rect class="st0" x="441" y="751" width="30" height="210"/>
  <rect class="st0" x="1" y="751" width="130" height="210"/>
  <rect class="st0" x="1" y="501" width="130" height="140"/>
  <rect class="st0" x="171" y="251" width="130" height="30"/>
  <rect class="st0" x="681" y="171" width="130" height="40"/>
  <rect class="st0" x="681" y="1" width="130" height="160"/>
  <rect class="st0" x="731" y="121" width="70" height="20"/>
  <rect class="st0" x="511" y="1" width="130" height="210"/>
  <rect class="st0" x="341" y="1" width="90" height="210"/>
  <rect class="st0" x="171" y="1" width="130" height="210"/>
  <rect class="st0" x="851" y="1" width="130" height="210"/>
  <rect class="st0" x="181" y="41" width="70" height="60"/>
  <rect class="st0" x="431" y="1" width="40" height="210"/>
  <rect class="st0" x="521" y="41" width="110" height="60"/>
  <rect class="st0" x="531" y="51" width="40" height="40"/>
  <rect class="st0" x="861" y="121" width="90" height="20"/>
  <rect class="st0" x="951" y="121" width="20" height="20"/>
  <rect class="st0" x="1021" y="81" width="130" height="130"/>
  <rect class="st0" x="1021" y="1" width="130" height="80"/>
  <rect class="st0" x="1031" y="11" width="40" height="60"/>
  <rect class="st0" x="1" y="251" width="20" height="210"/>
  <rect class="st0" x="21" y="251" width="110" height="210"/>
  <rect class="st0" x="31" y="391" width="90" height="60"/>
  <rect class="st0" x="171" y="291" width="130" height="170"/>
  <rect class="st0" x="181" y="351" width="90" height="100"/>
  <rect class="st0" x="211" y="361" width="50" height="50"/>
  <rect class="st0" x="341" y="251" width="130" height="210"/>
  <rect class="st0" x="351" y="261" width="110" height="150"/>
  <rect class="st0" x="361" y="311" width="90" height="90"/>
  <rect class="st0" x="371" y="321" width="70" height="30"/>
  <rect class="st0" x="511" y="331" width="90" height="130"/>
  <rect class="st0" x="511" y="251" width="130" height="70"/>
  <rect class="st0" x="581" y="261" width="40" height="50"/>
  <rect class="st0" x="601" y="331" width="40" height="130"/>
  <rect class="st0" x="681" y="251" width="130" height="210"/>
  <rect class="st0" x="691" y="411" width="110" height="40"/>
  <rect class="st0" x="691" y="261" width="110" height="30"/>
  <rect class="st0" x="701" y="271" width="90" height="10"/>
  <rect class="st0" x="851" y="251" width="40" height="210"/>
  <rect class="st0" x="901" y="251" width="80" height="210"/>
  <rect class="st0" x="911" y="261" width="60" height="20"/>
  <rect class="st0" x="911" y="281" width="60" height="40"/>
  <rect class="st0" x="1021" y="251" width="130" height="120"/>
  <rect class="st0" x="1021" y="381" width="130" height="80"/>
  <rect class="st0" x="1081" y="391" width="40" height="60"/>
  <rect class="st0" x="1081" y="261" width="40" height="100"/>
  <rect class="st0" x="1091" y="321" width="20" height="20"/>
  <rect class="st0" x="1" y="641" width="40" height="70"/>
  <rect class="st0" x="41" y="641" width="90" height="70"/>
  <rect class="st0" x="171" y="501" width="130" height="210"/>
  <rect class="st0" x="181" y="601" width="110" height="80"/>
  <rect class="st0" x="191" y="631" width="60" height="10"/>
  <rect class="st0" x="191" y="611" width="60" height="20"/>
  <rect class="st0" x="341" y="501" width="40" height="210"/>
  <rect class="st0" x="391" y="501" width="80" height="30"/>
  <rect class="st0" x="391" y="531" width="80" height="180"/>
  <rect class="st0" x="401" y="541" width="60" height="60"/>
  <rect class="st0" x="511" y="501" width="130" height="210"/>
  <rect class="st0" x="521" y="561" width="70" height="140"/>
  <rect class="st0" x="591" y="561" width="40" height="140"/>
  <rect class="st0" x="601" y="631" width="20" height="30"/>
  <rect class="st0" x="681" y="501" width="130" height="10"/>
  <rect class="st0" x="681" y="511" width="130" height="20"/>
  <rect class="st0" x="681" y="541" width="130" height="170"/>
  <rect class="st0" x="691" y="551" width="110" height="100"/>
  <rect class="st0" x="701" y="561" width="90" height="40"/>
  <rect class="st0" x="851" y="501" width="130" height="120"/>
  <rect class="st0" x="851" y="631" width="130" height="80"/>
  <rect class="st0" x="861" y="511" width="110" height="100"/>
  <rect class="st0" x="861" y="641" width="50" height="20"/>
  <rect class="st0" x="861" y="661" width="50" height="40"/>
  <rect class="st0" x="1021" y="501" width="100" height="210"/>
  <rect class="st0" x="1131" y="501" width="20" height="210"/>
  <rect class="st0" x="1031" y="511" width="80" height="190"/>
  <rect class="st0" x="1041" y="521" width="60" height="170"/>
  <rect class="st0" x="1071" y="591" width="20" height="90"/>
  <rect class="st0" x="61" y="811" width="60" height="30"/>
  <rect class="st0" x="61" y="841" width="60" height="110"/>
  <rect class="st0" x="71" y="901" width="20" height="20"/>
  <rect class="st0" x="171" y="921" width="130" height="40"/>
  <rect class="st0" x="181" y="931" width="110" height="20"/>
  <rect class="st0" x="171" y="871" width="130" height="40"/>
  <rect class="st0" x="181" y="881" width="110" height="20"/>
  <rect class="st0" x="171" y="751" width="130" height="120"/>
  <rect class="st0" x="511" y="751" width="130" height="20"/>
  <rect class="st0" x="511" y="781" width="130" height="180"/>
  <rect class="st0" x="521" y="791" width="110" height="20"/>
  <rect class="st0" x="521" y="821" width="110" height="60"/>
  <rect class="st0" x="531" y="831" width="90" height="20"/>
  <rect class="st0" x="751" y="851" width="30" height="30"/>
  <rect class="st0" x="751" y="901" width="30" height="30"/>
  <rect class="st0" x="851" y="881" width="130" height="80"/>
  <rect class="st0" x="861" y="891" width="80" height="30"/>
  <rect class="st0" x="941" y="891" width="30" height="30"/>
  <rect class="st0" x="851" y="751" width="30" height="120"/>
  <rect class="st0" x="881" y="751" width="100" height="120"/>
  <rect class="st0" x="1121" y="761" width="20" height="30"/>
  <rect class="st0" x="1031" y="881" width="110" height="70"/>
  <rect class="st0" x="1041" y="891" width="40" height="50"/>
  <rect class="st0" x="1051" y="901" width="20" height="20"/>
</svg>