<?xml version="1.0" encoding="UTF-8"?>
<svg id="Layer_1" xmlns="http://www.w3.org/2000/svg" viewBox="0 0 1310 1120">
  <defs>
    <style>
      .cls-1 {
        fill: #1c757a;
      }

      .cls-2 {
        fill: #a3c681;
      }

      .cls-3 {
        fill: #de7094;
      }

      .cls-4 {
        fill: #69a232;
      }

      .cls-5 {
        fill: #73570c;
      }

      .cls-6 {
        fill: #203139;
      }

      .cls-7 {
        fill: #e46520;
      }

      .cls-8 {
        fill: #2e0027;
      }

      .cls-9 {
        fill: #274f14;
      }

      .cls-10 {
        fill: #46760b;
      }

      .cls-11 {
        fill: #1f5259;
      }

      .cls-12 {
        fill: #dbb23b;
      }

      .cls-13 {
        fill: #64adbb;
      }

      .cls-14 {
        fill: #6f0044;
      }

      .cls-15 {
        fill: #d03712;
      }

      .cls-16 {
        fill: #4e0035;
      }

      .cls-17 {
        fill: #1b2f1b;
      }

      .cls-18 {
        fill: #3f2b00;
      }

      .cls-19 {
        fill: #ffd662;
      }

      .cls-20 {
        fill: #a73a67;
      }

      .cls-21 {
        fill: #b58817;
      }

      .cls-22 {
        fill: #932712;
      }

      .cls-23 {
        fill: #5d1f12;
      }
    </style>
  </defs>
  <rect y="0" width="1309.96" height="1120"/>
  <rect class="cls-12" x="80" y="80" width="130" height="210"/>
  <rect class="cls-6" x="1100" y="830" width="130" height="210"/>
  <rect class="cls-1" x="760" y="970" width="130" height="70"/>
  <rect class="cls-15" x="760" y="830" width="130" height="140"/>
  <rect class="cls-1" x="420" y="830" width="100" height="210"/>
  <rect class="cls-4" x="430" y="840" width="80" height="130"/>
  <rect class="cls-2" x="440" y="850" width="60" height="110"/>
  <rect class="cls-6" x="520" y="830" width="30" height="210"/>
  <rect class="cls-9" x="80" y="830" width="130" height="210"/>
  <rect class="cls-15" x="80" y="580" width="130" height="140"/>
  <rect class="cls-23" x="250" y="330" width="130" height="30"/>
  <rect class="cls-7" x="760" y="250" width="130" height="40"/>
  <rect class="cls-10" x="760" y="80" width="130" height="160"/>
  <rect class="cls-2" x="810" y="200" width="70" height="20"/>
  <rect class="cls-6" x="590" y="80" width="130" height="210"/>
  <rect class="cls-15" x="420" y="80" width="90" height="210"/>
  <rect class="cls-16" x="250" y="80" width="130" height="210"/>
  <rect class="cls-23" x="930" y="80" width="130" height="210"/>
  <rect class="cls-3" x="260" y="120" width="70" height="60"/>
  <rect class="cls-17" x="510" y="80" width="40" height="210"/>
  <rect class="cls-5" x="600" y="120" width="110" height="60"/>
  <rect class="cls-21" x="610" y="130" width="40" height="40"/>
  <rect class="cls-11" x="940" y="200" width="90" height="20"/>
  <rect class="cls-3" x="1030" y="200" width="20" height="20"/>
  <rect class="cls-15" x="1100" y="160" width="130" height="130"/>
  <rect class="cls-22" x="1100" y="80" width="130" height="80"/>
  <rect class="cls-1" x="1110" y="90" width="40" height="60"/>
  <rect class="cls-14" x="80" y="330" width="20" height="210" transform="translate(180 870) rotate(180)"/>
  <rect class="cls-1" x="100" y="330" width="110" height="210" transform="translate(310 870) rotate(180)"/>
  <rect class="cls-13" x="110" y="470" width="90" height="60"/>
  <rect class="cls-21" x="250" y="370" width="130" height="170"/>
  <rect class="cls-12" x="260" y="430" width="90" height="100"/>
  <rect class="cls-17" x="290" y="440" width="50" height="50"/>
  <rect class="cls-14" x="420" y="330" width="130" height="210"/>
  <rect class="cls-15" x="430" y="340" width="110" height="150"/>
  <rect class="cls-7" x="440" y="390" width="90" height="90"/>
  <rect class="cls-19" x="450" y="400" width="70" height="30"/>
  <rect class="cls-11" x="590" y="410" width="90" height="130"/>
  <rect class="cls-1" x="590" y="330" width="130" height="70"/>
  <rect class="cls-4" x="660" y="340" width="40" height="50"/>
  <rect class="cls-17" x="680" y="410" width="40" height="130"/>
  <rect class="cls-23" x="760" y="330" width="130" height="210" transform="translate(1650 870) rotate(180)"/>
  <rect class="cls-1" x="770" y="490" width="110" height="40" transform="translate(1650 1020) rotate(180)"/>
  <rect class="cls-1" x="770" y="340" width="110" height="30" transform="translate(1650 710) rotate(180)"/>
  <rect class="cls-13" x="780" y="350" width="90" height="10" transform="translate(1650 710) rotate(180)"/>
  <rect class="cls-19" x="930" y="330" width="40" height="210"/>
  <rect class="cls-6" x="980" y="330" width="80" height="210"/>
  <rect class="cls-5" x="990" y="340" width="60" height="20"/>
  <rect class="cls-21" x="990" y="360" width="60" height="40"/>
  <rect class="cls-9" x="1100" y="330" width="130" height="120" transform="translate(2330 780) rotate(180)"/>
  <rect class="cls-10" x="1100" y="460" width="130" height="80" transform="translate(2330 1000) rotate(180)"/>
  <rect class="cls-22" x="1160" y="470" width="40" height="60" transform="translate(2360 1000) rotate(180)"/>
  <rect class="cls-22" x="1160" y="340" width="40" height="100" transform="translate(2360 780) rotate(180)"/>
  <rect class="cls-7" x="1170" y="400" width="20" height="20" transform="translate(2360 820) rotate(180)"/>
  <rect class="cls-5" x="80" y="720" width="40" height="70"/>
  <rect class="cls-11" x="120" y="720" width="90" height="70"/>
  <rect class="cls-3" x="250" y="580" width="130" height="210"/>
  <rect class="cls-8" x="260" y="680" width="110" height="80"/>
  <rect class="cls-1" x="270" y="710" width="60" height="10"/>
  <rect class="cls-13" x="270" y="690" width="60" height="20"/>
  <rect class="cls-18" x="420" y="580" width="40" height="210" transform="translate(880 1370) rotate(180)"/>
  <rect class="cls-5" x="470" y="580" width="80" height="30" transform="translate(1020 1190) rotate(180)"/>
  <rect class="cls-4" x="470" y="610" width="80" height="180" transform="translate(1020 1400) rotate(180)"/>
  <rect class="cls-2" x="480" y="620" width="60" height="60" transform="translate(1020 1300) rotate(180)"/>
  <rect class="cls-1" x="590" y="580" width="130" height="210"/>
  <rect class="cls-23" x="600" y="640" width="70" height="140"/>
  <rect class="cls-8" x="670" y="640" width="40" height="140"/>
  <rect class="cls-12" x="680" y="710" width="20" height="30"/>
  <rect class="cls-15" x="760" y="580" width="130" height="10"/>
  <rect class="cls-17" x="760" y="590" width="130" height="20"/>
  <rect class="cls-16" x="760" y="620" width="130" height="170"/>
  <rect class="cls-14" x="770" y="630" width="110" height="100"/>
  <rect class="cls-20" x="780" y="640" width="90" height="40"/>
  <rect class="cls-19" x="930" y="580" width="130" height="120"/>
  <rect class="cls-19" x="930" y="710" width="130" height="80"/>
  <rect class="cls-6" x="940" y="590" width="110" height="100"/>
  <rect class="cls-23" x="940" y="720" width="50" height="20"/>
  <rect class="cls-15" x="940" y="740" width="50" height="40"/>
  <rect class="cls-11" x="1100" y="580" width="100" height="210"/>
  <rect class="cls-12" x="1210" y="580" width="20" height="210"/>
  <rect class="cls-13" x="1110" y="590" width="80" height="190"/>
  <rect class="cls-11" x="1120" y="600" width="60" height="170"/>
  <rect class="cls-7" x="1150" y="670" width="20" height="90"/>
  <rect class="cls-8" x="140" y="890" width="60" height="30"/>
  <rect class="cls-21" x="140" y="920" width="60" height="110"/>
  <rect class="cls-19" x="150" y="980" width="20" height="20"/>
  <rect class="cls-15" x="250" y="1000" width="130" height="40"/>
  <rect class="cls-23" x="260" y="1010" width="110" height="20"/>
  <rect class="cls-15" x="250" y="950" width="130" height="40"/>
  <rect class="cls-23" x="260" y="960" width="110" height="20"/>
  <rect class="cls-16" x="250" y="830" width="130" height="120"/>
  <rect class="cls-16" x="590" y="830" width="130" height="20"/>
  <rect class="cls-14" x="590" y="860" width="130" height="180"/>
  <rect class="cls-1" x="600" y="870" width="110" height="20"/>
  <rect class="cls-11" x="600" y="900" width="110" height="60"/>
  <rect class="cls-3" x="610" y="910" width="90" height="20"/>
  <rect class="cls-19" x="830" y="930" width="30" height="30"/>
  <rect class="cls-19" x="830" y="980" width="30" height="30"/>
  <rect class="cls-17" x="930" y="960" width="130" height="80"/>
  <rect class="cls-21" x="940" y="970" width="80" height="30"/>
  <rect class="cls-5" x="1020" y="970" width="30" height="30"/>
  <rect class="cls-5" x="930" y="830" width="30" height="120"/>
  <rect class="cls-21" x="960" y="830" width="100" height="120"/>
  <rect class="cls-1" x="1200" y="840" width="20" height="30"/>
  <rect class="cls-18" x="1110" y="960" width="110" height="70"/>
  <rect class="cls-5" x="1120" y="970" width="40" height="50"/>
  <rect class="cls-21" x="1130" y="980" width="20" height="20"/>
</svg>