<?xml version="1.0" encoding="UTF-8"?>
<svg id="fade" xmlns="http://www.w3.org/2000/svg" xmlns:xlink="http://www.w3.org/1999/xlink" viewBox="0 0 795.97 450">
  <defs>
    <style>
      .cls-1 {
        mask: url(#mask);
      }

      .cls-2 {
        fill: #9eb7c3;
      }

      .cls-3 {
        stroke-width: 30px;
      }

      .cls-3, .cls-4, .cls-5, .cls-6 {
        fill: none;
      }

      .cls-3, .cls-5 {
        stroke: #9eb7c3;
        stroke-miterlimit: 20;
      }

      .cls-7 {
        fill: url(#linear-gradient);
      }

      .cls-8 {
        fill: #60889a;
      }

      .cls-4 {
        stroke: #60889a;
      }

      .cls-4, .cls-6 {
        stroke-miterlimit: 10;
        stroke-width: 4px;
      }

      .cls-5 {
        stroke-width: 2px;
      }

      .cls-6 {
        stroke: #000;
      }
    </style>
    <linearGradient id="linear-gradient" x1="0" y1="1640.43" x2="795.97" y2="1640.43" gradientUnits="userSpaceOnUse">
      <stop offset="0" stop-color="#000"/>
      <stop offset=".23" stop-color="#fff"/>
      <stop offset=".79" stop-color="#fff"/>
      <stop offset="1" stop-color="#000"/>
    </linearGradient>
    <mask id="mask" x="-1170" y="-235.66" width="2100" height="3752.19" maskUnits="userSpaceOnUse">
      <rect class="cls-7" x="0" y="-235.66" width="795.97" height="3752.19"/>
    </mask>
  </defs>
  <g class="cls-1">
    <g>
      <path d="M512.2,11.22v-2.52l10.24-4.08h1.56l-2.24,6.6h-9.56ZM519.92,33.02V8.82l2.88-4.2h2.84v28.4h-5.72Z"/>
      <path class="cls-2" d="M429.58,33.02v-1.04c0-1.79.16-3.39.48-4.8.32-1.41.83-2.69,1.54-3.82.71-1.13,1.64-2.16,2.8-3.08,1.16-.92,2.57-1.77,4.22-2.54,1.04-.51,1.92-.97,2.64-1.4.72-.43,1.31-.81,1.76-1.16.45-.35.8-.68,1.04-1,.24-.32.4-.64.48-.96.08-.32.12-.65.12-1,0-.77-.21-1.4-.64-1.88-.43-.48-1.07-.84-1.94-1.08-.87-.24-1.94-.36-3.22-.36-1.2,0-2.49.09-3.86.28s-2.7.48-3.98.88l-1.08-4.32c1.44-.48,2.98-.85,4.62-1.12,1.64-.27,3.3-.4,4.98-.4,2.29,0,4.25.28,5.86.84,1.61.56,2.85,1.4,3.7,2.52s1.28,2.52,1.28,4.2c0,.72-.07,1.4-.22,2.04-.15.64-.41,1.25-.8,1.82-.39.57-.9,1.13-1.54,1.66-.64.53-1.44,1.09-2.4,1.66-.96.57-2.09,1.17-3.4,1.78-1.55.75-2.8,1.49-3.76,2.24-.96.75-1.68,1.55-2.16,2.42-.48.87-.81,1.85-.98,2.96-.17,1.11-.25,2.41-.22,3.9l-5.32.76ZM430.14,33.02l.12-1.04,2.68-3.64h17.36v4.68h-20.16Z"/>
      <path class="cls-2" d="M358.44,33.42c-1.01,0-2.04-.05-3.08-.14-1.04-.09-2.05-.21-3.04-.36-.99-.15-1.92-.33-2.8-.54l.88-4.52c1.23.27,2.49.48,3.78.64s2.59.24,3.9.24c1.2,0,2.22-.09,3.06-.28.84-.19,1.53-.47,2.08-.84.54-.37.95-.83,1.22-1.36.27-.53.4-1.15.4-1.84,0-1.36-.37-2.35-1.12-2.98-.75-.63-1.77-.94-3.08-.94h-6.76l2.96-3.92h4.88c1.81,0,3.38.27,4.7.8,1.32.53,2.34,1.39,3.06,2.56.72,1.17,1.08,2.69,1.08,4.56,0,1.49-.27,2.8-.8,3.92s-1.32,2.05-2.36,2.78c-1.04.73-2.31,1.29-3.8,1.66-1.49.37-3.21.56-5.16.56ZM349.76,9.22v-4.6h18.6l-2.12,3.68-3.12.92h-13.36ZM353.56,20.5v-1.76l12.56-14.12h4.12v1.8l-12.48,13.92-4.2.16Z"/>
      <path class="cls-2" d="M267.42,28.1v-3.2l14.36-20.28h2.32l.96,3.8-13.64,19.68h-4ZM268.66,28.1l1.4-4.2h22.52v4.2h-23.92ZM283.3,33.02V8.78l.28-4.16h5.24v28.4h-5.52Z"/>
      <path class="cls-2" d="M198.2,33.42c-1.52,0-3.03-.11-4.52-.32-1.49-.21-2.91-.52-4.24-.92l1-4.4c1.23.32,2.47.56,3.72.72,1.25.16,2.55.24,3.88.24,1.17,0,2.19-.09,3.04-.28.85-.19,1.55-.47,2.1-.84.55-.37.95-.83,1.2-1.38.25-.55.38-1.18.38-1.9,0-1.39-.36-2.39-1.08-3.02-.72-.63-1.73-.94-3.04-.94h-7.52v-4.32h8.24c1.97,0,3.63.29,4.98.88,1.35.59,2.37,1.48,3.08,2.68.71,1.2,1.06,2.75,1.06,4.64,0,1.52-.26,2.85-.78,4s-1.29,2.1-2.32,2.86c-1.03.76-2.3,1.33-3.82,1.72-1.52.39-3.31.58-5.36.58ZM190.44,20.38V4.62h5.56v15.76h-5.56ZM190.72,9.5v-4.88h18.72v4.88h-18.72Z"/>
      <line class="cls-3" x1="520" y1="52.36" x2="520" y2="450"/>
      <line class="cls-5" x1="440" y1="52.36" x2="440" y2="450"/>
      <line class="cls-5" x1="360" y1="52.36" x2="360" y2="450"/>
      <line class="cls-5" x1="280" y1="52.36" x2="280" y2="450"/>
      <line class="cls-5" x1="200" y1="52.36" x2="200" y2="450"/>
      <path d="M512.2,11.22v-2.52l10.24-4.08h1.56l-2.24,6.6h-9.56ZM519.92,33.02V8.82l2.88-4.2h2.84v28.4h-5.72Z"/>
      <path class="cls-2" d="M429.58,33.02v-1.04c0-1.79.16-3.39.48-4.8.32-1.41.83-2.69,1.54-3.82.71-1.13,1.64-2.16,2.8-3.08,1.16-.92,2.57-1.77,4.22-2.54,1.04-.51,1.92-.97,2.64-1.4.72-.43,1.31-.81,1.76-1.16.45-.35.8-.68,1.04-1,.24-.32.4-.64.48-.96.08-.32.12-.65.12-1,0-.77-.21-1.4-.64-1.88-.43-.48-1.07-.84-1.94-1.08-.87-.24-1.94-.36-3.22-.36-1.2,0-2.49.09-3.86.28s-2.7.48-3.98.88l-1.08-4.32c1.44-.48,2.98-.85,4.62-1.12,1.64-.27,3.3-.4,4.98-.4,2.29,0,4.25.28,5.86.84,1.61.56,2.85,1.4,3.7,2.52s1.28,2.52,1.28,4.2c0,.72-.07,1.4-.22,2.04-.15.64-.41,1.25-.8,1.82-.39.57-.9,1.13-1.54,1.66-.64.53-1.44,1.09-2.4,1.66-.96.57-2.09,1.17-3.4,1.78-1.55.75-2.8,1.49-3.76,2.24-.96.75-1.68,1.55-2.16,2.42-.48.87-.81,1.85-.98,2.96-.17,1.11-.25,2.41-.22,3.9l-5.32.76ZM430.14,33.02l.12-1.04,2.68-3.64h17.36v4.68h-20.16Z"/>
      <path class="cls-2" d="M358.44,33.42c-1.01,0-2.04-.05-3.08-.14-1.04-.09-2.05-.21-3.04-.36-.99-.15-1.92-.33-2.8-.54l.88-4.52c1.23.27,2.49.48,3.78.64s2.59.24,3.9.24c1.2,0,2.22-.09,3.06-.28.84-.19,1.53-.47,2.08-.84.54-.37.95-.83,1.22-1.36.27-.53.4-1.15.4-1.84,0-1.36-.37-2.35-1.12-2.98-.75-.63-1.77-.94-3.08-.94h-6.76l2.96-3.92h4.88c1.81,0,3.38.27,4.7.8,1.32.53,2.34,1.39,3.06,2.56.72,1.17,1.08,2.69,1.08,4.56,0,1.49-.27,2.8-.8,3.92s-1.32,2.05-2.36,2.78c-1.04.73-2.31,1.29-3.8,1.66-1.49.37-3.21.56-5.16.56ZM349.76,9.22v-4.6h18.6l-2.12,3.68-3.12.92h-13.36ZM353.56,20.5v-1.76l12.56-14.12h4.12v1.8l-12.48,13.92-4.2.16Z"/>
      <path class="cls-2" d="M267.42,28.1v-3.2l14.36-20.28h2.32l.96,3.8-13.64,19.68h-4ZM268.66,28.1l1.4-4.2h22.52v4.2h-23.92ZM283.3,33.02V8.78l.28-4.16h5.24v28.4h-5.52Z"/>
      <path class="cls-2" d="M198.2,33.42c-1.52,0-3.03-.11-4.52-.32-1.49-.21-2.91-.52-4.24-.92l1-4.4c1.23.32,2.47.56,3.72.72,1.25.16,2.55.24,3.88.24,1.17,0,2.19-.09,3.04-.28.85-.19,1.55-.47,2.1-.84.55-.37.95-.83,1.2-1.38.25-.55.38-1.18.38-1.9,0-1.39-.36-2.39-1.08-3.02-.72-.63-1.73-.94-3.04-.94h-7.52v-4.32h8.24c1.97,0,3.63.29,4.98.88,1.35.59,2.37,1.48,3.08,2.68.71,1.2,1.06,2.75,1.06,4.64,0,1.52-.26,2.85-.78,4s-1.29,2.1-2.32,2.86c-1.03.76-2.3,1.33-3.82,1.72-1.52.39-3.31.58-5.36.58ZM190.44,20.38V4.62h5.56v15.76h-5.56ZM190.72,9.5v-4.88h18.72v4.88h-18.72Z"/>
      <line class="cls-4" x1="40" y1="129.37" x2="-40" y2="369.37"/>
      <line class="cls-4" x1="40" y1="129.37" x2="-120" y2="269.37"/>
      <line class="cls-4" x1="120" y1="249.37" x2="40" y2="129.37"/>
      <line class="cls-4" x1="120" y1="249.37" x2="-40" y2="369.37"/>
      <line class="cls-4" x1="120" y1="249.37" x2="-200" y2="161.37"/>
      <line class="cls-4" x1="280" y1="147.37" x2="200" y2="349.37"/>
      <line class="cls-4" x1="280" y1="147.37" x2="40" y2="129.37"/>
      <line class="cls-4" x1="360" y1="249.37" x2="280" y2="147.37"/>
      <line class="cls-4" x1="360" y1="249.37" x2="200" y2="349.37"/>
      <line class="cls-4" x1="360" y1="249.37" x2="-40" y2="369.37"/>
      <line class="cls-4" x1="440" y1="369.37" x2="360" y2="249.37"/>
      <line class="cls-4" x1="440" y1="369.37" x2="200" y2="349.37"/>
      <line class="cls-4" x1="520" y1="129.37" x2="360" y2="249.37"/>
      <line class="cls-4" x1="680" y1="247.37" x2="440" y2="369.37"/>
      <line class="cls-4" x1="680" y1="247.37" x2="280" y2="147.37"/>
      <line class="cls-6" x1="600" y1="369.37" x2="520" y2="129.37"/>
      <circle class="cls-8" cx="40" cy="129.37" r="10"/>
      <circle class="cls-8" cx="120" cy="249.37" r="10"/>
      <circle class="cls-8" cx="200" cy="349.37" r="10"/>
      <circle class="cls-8" cx="280" cy="147.37" r="10"/>
      <circle class="cls-8" cx="360" cy="249.37" r="10"/>
      <circle class="cls-8" cx="440" cy="369.37" r="10"/>
      <circle cx="520" cy="129.37" r="10"/>
      <circle cx="600" cy="369.37" r="10"/>
      <circle class="cls-8" cx="680" cy="247.37" r="10"/>
      <path d="M590.54,415.37v-28.4h5.76v28.4h-5.76ZM591.38,391.89v-4.92h19.6v4.92h-19.6ZM591.38,403.13v-4.24h18.32v4.24h-18.32ZM591.38,415.37v-4.92h19.6v4.92h-19.6Z"/>
    </g>
  </g>
</svg>