<?xml version="1.0" encoding="UTF-8"?>
<svg id="Layer_1" xmlns="http://www.w3.org/2000/svg" version="1.1" viewBox="0 0 4340 260">
  <!-- Generator: Adobe Illustrator 29.1.0, SVG Export Plug-In . SVG Version: 2.1.0 Build 142)  -->
  <defs>
    <style>
      .st0 {
        fill: none;
        stroke: #000;
        stroke-linecap: round;
        stroke-miterlimit: 20;
        stroke-width: 4px;
      }
    </style>
  </defs>
  <line class="st0" x1="90" y1="56.7" x2="10" y2="10"/>
  <line class="st0" x1="90" y1="56.7" x2="10" y2="70"/>
  <line class="st0" x1="90" y1="56.7" x2="10" y2="130"/>
  <line class="st0" x1="170" y1="170" x2="10" y2="70"/>
  <line class="st0" x1="170" y1="170" x2="10" y2="130"/>
  <line class="st0" x1="250" y1="10" x2="170" y2="170"/>
  <line class="st0" x1="250" y1="10" x2="90" y2="56.7"/>
  <line class="st0" x1="410" y1="83.3" x2="330" y2="250"/>
  <line class="st0" x1="410" y1="83.3" x2="250" y2="10"/>
  <line class="st0" x1="410" y1="83.3" x2="170" y2="170"/>
  <line class="st0" x1="490" y1="40" x2="250" y2="10"/>
  <line class="st0" x1="570" y1="208.7" x2="410" y2="83.3"/>
  <line class="st0" x1="570" y1="208.7" x2="170" y2="170"/>
  <line class="st0" x1="650" y1="10" x2="490" y2="40"/>
  <line class="st0" x1="810" y1="192" x2="410" y2="83.3"/>
  <line class="st0" x1="970" y1="90" x2="650" y2="10"/>
  <line class="st0" x1="970" y1="90" x2="570" y2="208.7"/>
  <line class="st0" x1="1050" y1="35" x2="970" y2="90"/>
  <line class="st0" x1="1050" y1="35" x2="650" y2="10"/>
  <line class="st0" x1="1130" y1="180" x2="810" y2="192"/>
  <line class="st0" x1="1210" y1="141" x2="1050" y2="35"/>
  <line class="st0" x1="1290" y1="10" x2="1210" y2="141"/>
  <line class="st0" x1="1450" y1="102" x2="1210" y2="141"/>
  <line class="st0" x1="1450" y1="102" x2="1050" y2="35"/>
  <line class="st0" x1="1530" y1="250" x2="1450" y2="102"/>
  <line class="st0" x1="1530" y1="250" x2="1370" y2="160"/>
  <line class="st0" x1="1530" y1="250" x2="1130" y2="180"/>
  <line class="st0" x1="1690" y1="90" x2="1530" y2="250"/>
  <line class="st0" x1="1690" y1="90" x2="1290" y2="10"/>
  <line class="st0" x1="1770" y1="10" x2="1450" y2="102"/>
  <line class="st0" x1="1850" y1="200" x2="1610" y2="250"/>
  <line class="st0" x1="1850" y1="200" x2="1450" y2="102"/>
  <line class="st0" x1="1930" y1="74" x2="1690" y2="90"/>
  <line class="st0" x1="1930" y1="74" x2="1530" y2="250"/>
  <line class="st0" x1="2010" y1="194" x2="1690" y2="90"/>
  <line class="st0" x1="2090" y1="10" x2="2010" y2="194"/>
  <line class="st0" x1="2090" y1="10" x2="1930" y2="74"/>
  <line class="st0" x1="2250" y1="180" x2="2010" y2="194"/>
  <line class="st0" x1="2330" y1="38" x2="2250" y2="180"/>
  <line class="st0" x1="2330" y1="38" x2="2090" y2="10"/>
  <line class="st0" x1="2330" y1="38" x2="2010" y2="194"/>
  <line class="st0" x1="2410" y1="210" x2="2330" y2="38"/>
  <line class="st0" x1="2410" y1="210" x2="2170" y2="250"/>
  <line class="st0" x1="2410" y1="210" x2="2090" y2="10"/>
  <line class="st0" x1="2570" y1="10" x2="2490" y2="110"/>
  <line class="st0" x1="2650" y1="250" x2="2570" y2="10"/>
  <line class="st0" x1="2650" y1="250" x2="2410" y2="210"/>
  <line class="st0" x1="2730" y1="118" x2="2650" y2="250"/>
  <line class="st0" x1="2730" y1="118" x2="2490" y2="110"/>
  <line class="st0" x1="2810" y1="70" x2="2570" y2="10"/>
  <line class="st0" x1="2890" y1="220" x2="2810" y2="70"/>
  <line class="st0" x1="2890" y1="220" x2="2730" y2="118"/>
  <line class="st0" x1="2890" y1="220" x2="2490" y2="110"/>
  <line class="st0" x1="3050" y1="10" x2="2810" y2="70"/>
  <line class="st0" x1="3130" y1="128" x2="3050" y2="10"/>
  <line class="st0" x1="3130" y1="128" x2="2890" y2="220"/>
  <line class="st0" x1="3130" y1="128" x2="2730" y2="118"/>
  <line class="st0" x1="3210" y1="250" x2="2890" y2="220"/>
  <line class="st0" x1="3290" y1="42" x2="3050" y2="10"/>
  <line class="st0" x1="3290" y1="42" x2="2970" y2="80"/>
  <line class="st0" x1="3370" y1="200" x2="3210" y2="250"/>
  <line class="st0" x1="3530" y1="250" x2="3370" y2="200"/>
  <line class="st0" x1="3610" y1="10" x2="3530" y2="250"/>
  <line class="st0" x1="3610" y1="10" x2="3290" y2="42"/>
  <line class="st0" x1="3690" y1="102" x2="3290" y2="42"/>
  <line class="st0" x1="3770" y1="200" x2="3690" y2="102"/>
  <line class="st0" x1="3770" y1="200" x2="3530" y2="250"/>
  <line class="st0" x1="3930" y1="10" x2="3850" y2="177"/>
  <line class="st0" x1="3930" y1="10" x2="3690" y2="102"/>
  <line class="st0" x1="4010" y1="96" x2="3930" y2="10"/>
  <line class="st0" x1="4010" y1="96" x2="3850" y2="177"/>
  <line class="st0" x1="4010" y1="96" x2="3610" y2="10"/>
  <line class="st0" x1="4090" y1="250" x2="4010" y2="96"/>
  <line class="st0" x1="4090" y1="250" x2="3850" y2="177"/>
  <line class="st0" x1="4170" y1="10" x2="4010" y2="96"/>
  <line class="st0" x1="4250" y1="230" x2="4170" y2="10"/>
  <line class="st0" x1="4330" y1="118" x2="4090" y2="250"/>
  <line class="st0" x1="4330" y1="118" x2="3930" y2="10"/>
  <circle cx="10" cy="250" r="10"/>
  <circle cx="10" cy="190" r="10"/>
  <circle cx="10" cy="130" r="10"/>
  <circle cx="10" cy="70" r="10"/>
  <circle cx="10" cy="10" r="10"/>
  <circle cx="90" cy="56.7" r="10"/>
  <circle cx="170" cy="170" r="10"/>
  <circle cx="250" cy="10" r="10"/>
  <circle cx="330" cy="250" r="10"/>
  <circle cx="410" cy="83.3" r="10"/>
  <circle cx="490" cy="40" r="10"/>
  <circle cx="570" cy="208.7" r="10"/>
  <circle cx="650" cy="10" r="10"/>
  <circle cx="730" cy="224.3" r="10"/>
  <circle cx="810" cy="192" r="10"/>
  <circle cx="890" cy="250" r="10"/>
  <circle cx="970" cy="90" r="10"/>
  <circle cx="1050" cy="35" r="10"/>
  <circle cx="1130" cy="180" r="10"/>
  <circle cx="1210" cy="141" r="10"/>
  <circle cx="1290" cy="10" r="10"/>
  <circle cx="1370" cy="160" r="10"/>
  <circle cx="1450" cy="102" r="10"/>
  <circle cx="1530" cy="250" r="10"/>
  <circle cx="1610" cy="250" r="10"/>
  <circle cx="1690" cy="90" r="10"/>
  <circle cx="1770" cy="10" r="10"/>
  <circle cx="1850" cy="200" r="10"/>
  <circle cx="1930" cy="74" r="10"/>
  <circle cx="2010" cy="194" r="10"/>
  <circle cx="2090" cy="10" r="10"/>
  <circle cx="2170" cy="250" r="10"/>
  <circle cx="2250" cy="180" r="10"/>
  <circle cx="2330" cy="38" r="10"/>
  <circle cx="2410" cy="210" r="10"/>
  <circle cx="2490" cy="110" r="10"/>
  <circle cx="2570" cy="10" r="10"/>
  <circle cx="2650" cy="250" r="10"/>
  <circle cx="2730" cy="118" r="10"/>
  <circle cx="2810" cy="70" r="10"/>
  <circle cx="2890" cy="220" r="10"/>
  <circle cx="2970" cy="80" r="10"/>
  <circle cx="3050" cy="10" r="10"/>
  <circle cx="3130" cy="128" r="10"/>
  <circle cx="3210" cy="250" r="10"/>
  <circle cx="3290" cy="42" r="10"/>
  <circle cx="3370" cy="200" r="10"/>
  <circle cx="3450" cy="130" r="10"/>
  <circle cx="3530" cy="250" r="10"/>
  <circle cx="3610" cy="10" r="10"/>
  <circle cx="3690" cy="102" r="10"/>
  <circle cx="3770" cy="200" r="10"/>
  <circle cx="3850" cy="177" r="10"/>
  <circle cx="3930" cy="10" r="10"/>
  <circle cx="4010" cy="96" r="10"/>
  <circle cx="4090" cy="250" r="10"/>
  <circle cx="4170" cy="10" r="10"/>
  <circle cx="4250" cy="230" r="10"/>
  <circle cx="4330" cy="118" r="10"/>
</svg>