<?xml version="1.0" encoding="UTF-8"?>
<svg id="Layer_1" xmlns="http://www.w3.org/2000/svg" version="1.1" viewBox="0 0 1372 1140.6">
  <!-- Generator: Adobe Illustrator 29.1.0, SVG Export Plug-In . SVG Version: 2.1.0 Build 142)  -->
  <defs>
    <style>
      .st0 {
        fill: none;
        stroke: #000;
        stroke-linecap: round;
        stroke-miterlimit: 20;
        stroke-width: 4px;
      }
    </style>
  </defs>
  <g>
    <line class="st0" x1="62" y1="149.8" x2="-18" y2="103.1"/>
    <line class="st0" x1="62" y1="149.8" x2="-18" y2="163.1"/>
    <line class="st0" x1="62" y1="149.8" x2="-18" y2="223.1"/>
    <line class="st0" x1="142" y1="263.1" x2="-18" y2="163.1"/>
    <line class="st0" x1="142" y1="263.1" x2="-18" y2="223.1"/>
    <line class="st0" x1="222" y1="103.1" x2="142" y2="263.1"/>
    <line class="st0" x1="222" y1="103.1" x2="62" y2="149.8"/>
    <line class="st0" x1="382" y1="176.4" x2="302" y2="343.1"/>
    <line class="st0" x1="382" y1="176.4" x2="222" y2="103.1"/>
    <line class="st0" x1="382" y1="176.4" x2="142" y2="263.1"/>
    <line class="st0" x1="462" y1="133.1" x2="222" y2="103.1"/>
    <line class="st0" x1="542" y1="301.8" x2="382" y2="176.4"/>
    <line class="st0" x1="542" y1="301.8" x2="142" y2="263.1"/>
    <line class="st0" x1="622" y1="103.1" x2="462" y2="133.1"/>
    <line class="st0" x1="782" y1="285.1" x2="382" y2="176.4"/>
    <line class="st0" x1="942" y1="183.1" x2="622" y2="103.1"/>
    <line class="st0" x1="942" y1="183.1" x2="542" y2="301.8"/>
    <line class="st0" x1="1022" y1="128.1" x2="942" y2="183.1"/>
    <line class="st0" x1="1022" y1="128.1" x2="622" y2="103.1"/>
    <line class="st0" x1="1102" y1="273.1" x2="782" y2="285.1"/>
    <line class="st0" x1="1182" y1="234.1" x2="1022" y2="128.1"/>
    <line class="st0" x1="1262" y1="103.1" x2="1182" y2="234.1"/>
    <line class="st0" x1="1422" y1="195.1" x2="1182" y2="234.1"/>
    <line class="st0" x1="1422" y1="195.1" x2="1022" y2="128.1"/>
    <line class="st0" x1="1502" y1="343.1" x2="1422" y2="195.1"/>
    <line class="st0" x1="1502" y1="343.1" x2="1342" y2="253.1"/>
    <line class="st0" x1="1502" y1="343.1" x2="1102" y2="273.1"/>
    <line class="st0" x1="1662" y1="183.1" x2="1502" y2="343.1"/>
    <line class="st0" x1="1662" y1="183.1" x2="1262" y2="103.1"/>
    <line class="st0" x1="1742" y1="103.1" x2="1422" y2="195.1"/>
    <line class="st0" x1="1822" y1="293.1" x2="1582" y2="343.1"/>
    <line class="st0" x1="1822" y1="293.1" x2="1422" y2="195.1"/>
    <line class="st0" x1="1902" y1="167.1" x2="1662" y2="183.1"/>
    <line class="st0" x1="1902" y1="167.1" x2="1502" y2="343.1"/>
    <line class="st0" x1="1982" y1="287.1" x2="1662" y2="183.1"/>
    <line class="st0" x1="2062" y1="103.1" x2="1982" y2="287.1"/>
    <line class="st0" x1="2062" y1="103.1" x2="1902" y2="167.1"/>
    <line class="st0" x1="2222" y1="273.1" x2="1982" y2="287.1"/>
    <line class="st0" x1="2302" y1="131.1" x2="2222" y2="273.1"/>
    <line class="st0" x1="2302" y1="131.1" x2="2062" y2="103.1"/>
    <line class="st0" x1="2302" y1="131.1" x2="1982" y2="287.1"/>
    <line class="st0" x1="2382" y1="303.1" x2="2302" y2="131.1"/>
    <line class="st0" x1="2382" y1="303.1" x2="2142" y2="343.1"/>
    <line class="st0" x1="2382" y1="303.1" x2="2062" y2="103.1"/>
    <line class="st0" x1="2542" y1="103.1" x2="2462" y2="203.1"/>
    <line class="st0" x1="2622" y1="343.1" x2="2542" y2="103.1"/>
    <line class="st0" x1="2622" y1="343.1" x2="2382" y2="303.1"/>
    <line class="st0" x1="2702" y1="211.1" x2="2622" y2="343.1"/>
    <line class="st0" x1="2702" y1="211.1" x2="2462" y2="203.1"/>
    <line class="st0" x1="2782" y1="163.1" x2="2542" y2="103.1"/>
    <line class="st0" x1="2862" y1="313.1" x2="2782" y2="163.1"/>
    <line class="st0" x1="2862" y1="313.1" x2="2702" y2="211.1"/>
    <line class="st0" x1="2862" y1="313.1" x2="2462" y2="203.1"/>
    <line class="st0" x1="3022" y1="103.1" x2="2782" y2="163.1"/>
    <line class="st0" x1="3102" y1="221.1" x2="3022" y2="103.1"/>
    <line class="st0" x1="3102" y1="221.1" x2="2862" y2="313.1"/>
    <line class="st0" x1="3102" y1="221.1" x2="2702" y2="211.1"/>
    <line class="st0" x1="3182" y1="343.1" x2="2862" y2="313.1"/>
    <line class="st0" x1="3262" y1="135.1" x2="3022" y2="103.1"/>
    <line class="st0" x1="3262" y1="135.1" x2="2942" y2="173.1"/>
    <line class="st0" x1="3342" y1="293.1" x2="3182" y2="343.1"/>
    <line class="st0" x1="3502" y1="343.1" x2="3342" y2="293.1"/>
    <line class="st0" x1="3582" y1="103.1" x2="3502" y2="343.1"/>
    <line class="st0" x1="3582" y1="103.1" x2="3262" y2="135.1"/>
    <line class="st0" x1="3662" y1="195.1" x2="3262" y2="135.1"/>
    <line class="st0" x1="3742" y1="293.1" x2="3662" y2="195.1"/>
    <line class="st0" x1="3742" y1="293.1" x2="3502" y2="343.1"/>
    <line class="st0" x1="3902" y1="103.1" x2="3822" y2="270.1"/>
    <line class="st0" x1="3902" y1="103.1" x2="3662" y2="195.1"/>
    <line class="st0" x1="3982" y1="189.1" x2="3902" y2="103.1"/>
    <line class="st0" x1="3982" y1="189.1" x2="3822" y2="270.1"/>
    <line class="st0" x1="3982" y1="189.1" x2="3582" y2="103.1"/>
    <line class="st0" x1="4062" y1="343.1" x2="3982" y2="189.1"/>
    <line class="st0" x1="4062" y1="343.1" x2="3822" y2="270.1"/>
    <line class="st0" x1="4142" y1="103.1" x2="3982" y2="189.1"/>
    <line class="st0" x1="4222" y1="323.1" x2="4142" y2="103.1"/>
    <line class="st0" x1="4302" y1="211.1" x2="4062" y2="343.1"/>
    <line class="st0" x1="4302" y1="211.1" x2="3902" y2="103.1"/>
    <circle cx="-18" cy="343.1" r="10"/>
    <circle cx="-18" cy="283.1" r="10"/>
    <circle cx="-18" cy="223.1" r="10"/>
    <circle cx="-18" cy="163.1" r="10"/>
    <circle cx="-18" cy="103.1" r="10"/>
    <circle cx="62" cy="149.8" r="10"/>
    <circle cx="142" cy="263.1" r="10"/>
    <circle cx="222" cy="103.1" r="10"/>
    <circle cx="302" cy="343.1" r="10"/>
    <circle cx="382" cy="176.4" r="10"/>
    <circle cx="462" cy="133.1" r="10"/>
    <circle cx="542" cy="301.8" r="10"/>
    <circle cx="622" cy="103.1" r="10"/>
    <circle cx="702" cy="317.4" r="10"/>
    <circle cx="782" cy="285.1" r="10"/>
    <circle cx="862" cy="343.1" r="10"/>
    <circle cx="942" cy="183.1" r="10"/>
    <circle cx="1022" cy="128.1" r="10"/>
    <circle cx="1102" cy="273.1" r="10"/>
    <circle cx="1182" cy="234.1" r="10"/>
    <circle cx="1262" cy="103.1" r="10"/>
    <circle cx="1342" cy="253.1" r="10"/>
    <circle cx="1422" cy="195.1" r="10"/>
    <circle cx="1502" cy="343.1" r="10"/>
    <circle cx="1582" cy="343.1" r="10"/>
    <circle cx="1662" cy="183.1" r="10"/>
    <circle cx="1742" cy="103.1" r="10"/>
    <circle cx="1822" cy="293.1" r="10"/>
    <circle cx="1902" cy="167.1" r="10"/>
    <circle cx="1982" cy="287.1" r="10"/>
    <circle cx="2062" cy="103.1" r="10"/>
    <circle cx="2142" cy="343.1" r="10"/>
    <circle cx="2222" cy="273.1" r="10"/>
    <circle cx="2302" cy="131.1" r="10"/>
    <circle cx="2382" cy="303.1" r="10"/>
    <circle cx="2462" cy="203.1" r="10"/>
    <circle cx="2542" cy="103.1" r="10"/>
    <circle cx="2622" cy="343.1" r="10"/>
    <circle cx="2702" cy="211.1" r="10"/>
    <circle cx="2782" cy="163.1" r="10"/>
    <circle cx="2862" cy="313.1" r="10"/>
    <circle cx="2942" cy="173.1" r="10"/>
    <circle cx="3022" cy="103.1" r="10"/>
    <circle cx="3102" cy="221.1" r="10"/>
    <circle cx="3182" cy="343.1" r="10"/>
    <circle cx="3262" cy="135.1" r="10"/>
    <circle cx="3342" cy="293.1" r="10"/>
    <circle cx="3422" cy="223.1" r="10"/>
    <circle cx="3502" cy="343.1" r="10"/>
    <circle cx="3582" cy="103.1" r="10"/>
    <circle cx="3662" cy="195.1" r="10"/>
    <circle cx="3742" cy="293.1" r="10"/>
    <circle cx="3822" cy="270.1" r="10"/>
    <circle cx="3902" cy="103.1" r="10"/>
    <circle cx="3982" cy="189.1" r="10"/>
    <circle cx="4062" cy="343.1" r="10"/>
    <circle cx="4142" cy="103.1" r="10"/>
    <circle cx="4222" cy="323.1" r="10"/>
    <circle cx="4302" cy="211.1" r="10"/>
  </g>
  <g>
    <line class="st0" x1="-1318" y1="543.6" x2="-1398" y2="496.9"/>
    <line class="st0" x1="-1318" y1="543.6" x2="-1398" y2="556.9"/>
    <line class="st0" x1="-1318" y1="543.6" x2="-1398" y2="616.9"/>
    <line class="st0" x1="-1238" y1="656.9" x2="-1398" y2="556.9"/>
    <line class="st0" x1="-1238" y1="656.9" x2="-1398" y2="616.9"/>
    <line class="st0" x1="-1158" y1="496.9" x2="-1238" y2="656.9"/>
    <line class="st0" x1="-1158" y1="496.9" x2="-1318" y2="543.6"/>
    <line class="st0" x1="-998" y1="570.2" x2="-1078" y2="736.9"/>
    <line class="st0" x1="-998" y1="570.2" x2="-1158" y2="496.9"/>
    <line class="st0" x1="-998" y1="570.2" x2="-1238" y2="656.9"/>
    <line class="st0" x1="-918" y1="526.9" x2="-1158" y2="496.9"/>
    <line class="st0" x1="-838" y1="695.6" x2="-998" y2="570.2"/>
    <line class="st0" x1="-838" y1="695.6" x2="-1238" y2="656.9"/>
    <line class="st0" x1="-758" y1="496.9" x2="-918" y2="526.9"/>
    <line class="st0" x1="-598" y1="678.9" x2="-998" y2="570.2"/>
    <line class="st0" x1="-438" y1="576.9" x2="-758" y2="496.9"/>
    <line class="st0" x1="-438" y1="576.9" x2="-838" y2="695.6"/>
    <line class="st0" x1="-358" y1="521.9" x2="-438" y2="576.9"/>
    <line class="st0" x1="-358" y1="521.9" x2="-758" y2="496.9"/>
    <line class="st0" x1="-278" y1="666.9" x2="-598" y2="678.9"/>
    <line class="st0" x1="-198" y1="627.9" x2="-358" y2="521.9"/>
    <line class="st0" x1="-118" y1="496.9" x2="-198" y2="627.9"/>
    <line class="st0" x1="42" y1="588.9" x2="-198" y2="627.9"/>
    <line class="st0" x1="42" y1="588.9" x2="-358" y2="521.9"/>
    <line class="st0" x1="122" y1="736.9" x2="42" y2="588.9"/>
    <line class="st0" x1="122" y1="736.9" x2="-38" y2="646.9"/>
    <line class="st0" x1="122" y1="736.9" x2="-278" y2="666.9"/>
    <line class="st0" x1="282" y1="576.9" x2="122" y2="736.9"/>
    <line class="st0" x1="282" y1="576.9" x2="-118" y2="496.9"/>
    <line class="st0" x1="362" y1="496.9" x2="42" y2="588.9"/>
    <line class="st0" x1="442" y1="686.9" x2="202" y2="736.9"/>
    <line class="st0" x1="442" y1="686.9" x2="42" y2="588.9"/>
    <line class="st0" x1="522" y1="560.9" x2="282" y2="576.9"/>
    <line class="st0" x1="522" y1="560.9" x2="122" y2="736.9"/>
    <line class="st0" x1="602" y1="680.9" x2="282" y2="576.9"/>
    <line class="st0" x1="682" y1="496.9" x2="602" y2="680.9"/>
    <line class="st0" x1="682" y1="496.9" x2="522" y2="560.9"/>
    <line class="st0" x1="842" y1="666.9" x2="602" y2="680.9"/>
    <line class="st0" x1="922" y1="524.9" x2="842" y2="666.9"/>
    <line class="st0" x1="922" y1="524.9" x2="682" y2="496.9"/>
    <line class="st0" x1="922" y1="524.9" x2="602" y2="680.9"/>
    <line class="st0" x1="1002" y1="696.9" x2="922" y2="524.9"/>
    <line class="st0" x1="1002" y1="696.9" x2="762" y2="736.9"/>
    <line class="st0" x1="1002" y1="696.9" x2="682" y2="496.9"/>
    <line class="st0" x1="1162" y1="496.9" x2="1082" y2="596.9"/>
    <line class="st0" x1="1242" y1="736.9" x2="1162" y2="496.9"/>
    <line class="st0" x1="1242" y1="736.9" x2="1002" y2="696.9"/>
    <line class="st0" x1="1322" y1="604.9" x2="1242" y2="736.9"/>
    <line class="st0" x1="1322" y1="604.9" x2="1082" y2="596.9"/>
    <line class="st0" x1="1402" y1="556.9" x2="1162" y2="496.9"/>
    <line class="st0" x1="1482" y1="706.9" x2="1402" y2="556.9"/>
    <line class="st0" x1="1482" y1="706.9" x2="1322" y2="604.9"/>
    <line class="st0" x1="1482" y1="706.9" x2="1082" y2="596.9"/>
    <line class="st0" x1="1642" y1="496.9" x2="1402" y2="556.9"/>
    <line class="st0" x1="1722" y1="614.9" x2="1642" y2="496.9"/>
    <line class="st0" x1="1722" y1="614.9" x2="1482" y2="706.9"/>
    <line class="st0" x1="1722" y1="614.9" x2="1322" y2="604.9"/>
    <line class="st0" x1="1802" y1="736.9" x2="1482" y2="706.9"/>
    <line class="st0" x1="1882" y1="528.9" x2="1642" y2="496.9"/>
    <line class="st0" x1="1882" y1="528.9" x2="1562" y2="566.9"/>
    <line class="st0" x1="1962" y1="686.9" x2="1802" y2="736.9"/>
    <line class="st0" x1="2122" y1="736.9" x2="1962" y2="686.9"/>
    <line class="st0" x1="2202" y1="496.9" x2="2122" y2="736.9"/>
    <line class="st0" x1="2202" y1="496.9" x2="1882" y2="528.9"/>
    <line class="st0" x1="2282" y1="588.9" x2="1882" y2="528.9"/>
    <line class="st0" x1="2362" y1="686.9" x2="2282" y2="588.9"/>
    <line class="st0" x1="2362" y1="686.9" x2="2122" y2="736.9"/>
    <line class="st0" x1="2522" y1="496.9" x2="2442" y2="663.9"/>
    <line class="st0" x1="2522" y1="496.9" x2="2282" y2="588.9"/>
    <line class="st0" x1="2602" y1="582.9" x2="2522" y2="496.9"/>
    <line class="st0" x1="2602" y1="582.9" x2="2442" y2="663.9"/>
    <line class="st0" x1="2602" y1="582.9" x2="2202" y2="496.9"/>
    <line class="st0" x1="2682" y1="736.9" x2="2602" y2="582.9"/>
    <line class="st0" x1="2682" y1="736.9" x2="2442" y2="663.9"/>
    <line class="st0" x1="2762" y1="496.9" x2="2602" y2="582.9"/>
    <line class="st0" x1="2842" y1="716.9" x2="2762" y2="496.9"/>
    <line class="st0" x1="2922" y1="604.9" x2="2682" y2="736.9"/>
    <line class="st0" x1="2922" y1="604.9" x2="2522" y2="496.9"/>
    <circle cx="-1398" cy="736.9" r="10"/>
    <circle cx="-1398" cy="676.9" r="10"/>
    <circle cx="-1398" cy="616.9" r="10"/>
    <circle cx="-1398" cy="556.9" r="10"/>
    <circle cx="-1398" cy="496.9" r="10"/>
    <circle cx="-1318" cy="543.6" r="10"/>
    <circle cx="-1238" cy="656.9" r="10"/>
    <circle cx="-1158" cy="496.9" r="10"/>
    <circle cx="-1078" cy="736.9" r="10"/>
    <circle cx="-998" cy="570.2" r="10"/>
    <circle cx="-918" cy="526.9" r="10"/>
    <circle cx="-838" cy="695.6" r="10"/>
    <circle cx="-758" cy="496.9" r="10"/>
    <circle cx="-678" cy="711.2" r="10"/>
    <circle cx="-598" cy="678.9" r="10"/>
    <circle cx="-518" cy="736.9" r="10"/>
    <circle cx="-438" cy="576.9" r="10"/>
    <circle cx="-358" cy="521.9" r="10"/>
    <circle cx="-278" cy="666.9" r="10"/>
    <circle cx="-198" cy="627.9" r="10"/>
    <circle cx="-118" cy="496.9" r="10"/>
    <circle cx="-38" cy="646.9" r="10"/>
    <circle cx="42" cy="588.9" r="10"/>
    <circle cx="122" cy="736.9" r="10"/>
    <circle cx="202" cy="736.9" r="10"/>
    <circle cx="282" cy="576.9" r="10"/>
    <circle cx="362" cy="496.9" r="10"/>
    <circle cx="442" cy="686.9" r="10"/>
    <circle cx="522" cy="560.9" r="10"/>
    <circle cx="602" cy="680.9" r="10"/>
    <circle cx="682" cy="496.9" r="10"/>
    <circle cx="762" cy="736.9" r="10"/>
    <circle cx="842" cy="666.9" r="10"/>
    <circle cx="922" cy="524.9" r="10"/>
    <circle cx="1002" cy="696.9" r="10"/>
    <circle cx="1082" cy="596.9" r="10"/>
    <circle cx="1162" cy="496.9" r="10"/>
    <circle cx="1242" cy="736.9" r="10"/>
    <circle cx="1322" cy="604.9" r="10"/>
    <circle cx="1402" cy="556.9" r="10"/>
    <circle cx="1482" cy="706.9" r="10"/>
    <circle cx="1562" cy="566.9" r="10"/>
    <circle cx="1642" cy="496.9" r="10"/>
    <circle cx="1722" cy="614.9" r="10"/>
    <circle cx="1802" cy="736.9" r="10"/>
    <circle cx="1882" cy="528.9" r="10"/>
    <circle cx="1962" cy="686.9" r="10"/>
    <circle cx="2042" cy="616.9" r="10"/>
    <circle cx="2122" cy="736.9" r="10"/>
    <circle cx="2202" cy="496.9" r="10"/>
    <circle cx="2282" cy="588.9" r="10"/>
    <circle cx="2362" cy="686.9" r="10"/>
    <circle cx="2442" cy="663.9" r="10"/>
    <circle cx="2522" cy="496.9" r="10"/>
    <circle cx="2602" cy="582.9" r="10"/>
    <circle cx="2682" cy="736.9" r="10"/>
    <circle cx="2762" cy="496.9" r="10"/>
    <circle cx="2842" cy="716.9" r="10"/>
    <circle cx="2922" cy="604.9" r="10"/>
  </g>
  <g>
    <line class="st0" x1="-2688" y1="937.3" x2="-2768" y2="890.6"/>
    <line class="st0" x1="-2688" y1="937.3" x2="-2768" y2="950.6"/>
    <line class="st0" x1="-2688" y1="937.3" x2="-2768" y2="1010.6"/>
    <line class="st0" x1="-2608" y1="1050.6" x2="-2768" y2="950.6"/>
    <line class="st0" x1="-2608" y1="1050.6" x2="-2768" y2="1010.6"/>
    <line class="st0" x1="-2528" y1="890.6" x2="-2608" y2="1050.6"/>
    <line class="st0" x1="-2528" y1="890.6" x2="-2688" y2="937.3"/>
    <line class="st0" x1="-2368" y1="963.9" x2="-2448" y2="1130.6"/>
    <line class="st0" x1="-2368" y1="963.9" x2="-2528" y2="890.6"/>
    <line class="st0" x1="-2368" y1="963.9" x2="-2608" y2="1050.6"/>
    <line class="st0" x1="-2288" y1="920.6" x2="-2528" y2="890.6"/>
    <line class="st0" x1="-2208" y1="1089.3" x2="-2368" y2="963.9"/>
    <line class="st0" x1="-2208" y1="1089.3" x2="-2608" y2="1050.6"/>
    <line class="st0" x1="-2128" y1="890.6" x2="-2288" y2="920.6"/>
    <line class="st0" x1="-1968" y1="1072.6" x2="-2368" y2="963.9"/>
    <line class="st0" x1="-1808" y1="970.6" x2="-2128" y2="890.6"/>
    <line class="st0" x1="-1808" y1="970.6" x2="-2208" y2="1089.3"/>
    <line class="st0" x1="-1728" y1="915.6" x2="-1808" y2="970.6"/>
    <line class="st0" x1="-1728" y1="915.6" x2="-2128" y2="890.6"/>
    <line class="st0" x1="-1648" y1="1060.6" x2="-1968" y2="1072.6"/>
    <line class="st0" x1="-1568" y1="1021.6" x2="-1728" y2="915.6"/>
    <line class="st0" x1="-1488" y1="890.6" x2="-1568" y2="1021.6"/>
    <line class="st0" x1="-1328" y1="982.6" x2="-1568" y2="1021.6"/>
    <line class="st0" x1="-1328" y1="982.6" x2="-1728" y2="915.6"/>
    <line class="st0" x1="-1248" y1="1130.6" x2="-1328" y2="982.6"/>
    <line class="st0" x1="-1248" y1="1130.6" x2="-1408" y2="1040.6"/>
    <line class="st0" x1="-1248" y1="1130.6" x2="-1648" y2="1060.6"/>
    <line class="st0" x1="-1088" y1="970.6" x2="-1248" y2="1130.6"/>
    <line class="st0" x1="-1088" y1="970.6" x2="-1488" y2="890.6"/>
    <line class="st0" x1="-1008" y1="890.6" x2="-1328" y2="982.6"/>
    <line class="st0" x1="-928" y1="1080.6" x2="-1168" y2="1130.6"/>
    <line class="st0" x1="-928" y1="1080.6" x2="-1328" y2="982.6"/>
    <line class="st0" x1="-848" y1="954.6" x2="-1088" y2="970.6"/>
    <line class="st0" x1="-848" y1="954.6" x2="-1248" y2="1130.6"/>
    <line class="st0" x1="-768" y1="1074.6" x2="-1088" y2="970.6"/>
    <line class="st0" x1="-688" y1="890.6" x2="-768" y2="1074.6"/>
    <line class="st0" x1="-688" y1="890.6" x2="-848" y2="954.6"/>
    <line class="st0" x1="-528" y1="1060.6" x2="-768" y2="1074.6"/>
    <line class="st0" x1="-448" y1="918.6" x2="-528" y2="1060.6"/>
    <line class="st0" x1="-448" y1="918.6" x2="-688" y2="890.6"/>
    <line class="st0" x1="-448" y1="918.6" x2="-768" y2="1074.6"/>
    <line class="st0" x1="-368" y1="1090.6" x2="-448" y2="918.6"/>
    <line class="st0" x1="-368" y1="1090.6" x2="-608" y2="1130.6"/>
    <line class="st0" x1="-368" y1="1090.6" x2="-688" y2="890.6"/>
    <line class="st0" x1="-208" y1="890.6" x2="-288" y2="990.6"/>
    <line class="st0" x1="-128" y1="1130.6" x2="-208" y2="890.6"/>
    <line class="st0" x1="-128" y1="1130.6" x2="-368" y2="1090.6"/>
    <line class="st0" x1="-48" y1="998.6" x2="-128" y2="1130.6"/>
    <line class="st0" x1="-48" y1="998.6" x2="-288" y2="990.6"/>
    <line class="st0" x1="32" y1="950.6" x2="-208" y2="890.6"/>
    <line class="st0" x1="112" y1="1100.6" x2="32" y2="950.6"/>
    <line class="st0" x1="112" y1="1100.6" x2="-48" y2="998.6"/>
    <line class="st0" x1="112" y1="1100.6" x2="-288" y2="990.6"/>
    <line class="st0" x1="272" y1="890.6" x2="32" y2="950.6"/>
    <line class="st0" x1="352" y1="1008.6" x2="272" y2="890.6"/>
    <line class="st0" x1="352" y1="1008.6" x2="112" y2="1100.6"/>
    <line class="st0" x1="352" y1="1008.6" x2="-48" y2="998.6"/>
    <line class="st0" x1="432" y1="1130.6" x2="112" y2="1100.6"/>
    <line class="st0" x1="512" y1="922.6" x2="272" y2="890.6"/>
    <line class="st0" x1="512" y1="922.6" x2="192" y2="960.6"/>
    <line class="st0" x1="592" y1="1080.6" x2="432" y2="1130.6"/>
    <line class="st0" x1="752" y1="1130.6" x2="592" y2="1080.6"/>
    <line class="st0" x1="832" y1="890.6" x2="752" y2="1130.6"/>
    <line class="st0" x1="832" y1="890.6" x2="512" y2="922.6"/>
    <line class="st0" x1="912" y1="982.6" x2="512" y2="922.6"/>
    <line class="st0" x1="992" y1="1080.6" x2="912" y2="982.6"/>
    <line class="st0" x1="992" y1="1080.6" x2="752" y2="1130.6"/>
    <line class="st0" x1="1152" y1="890.6" x2="1072" y2="1057.6"/>
    <line class="st0" x1="1152" y1="890.6" x2="912" y2="982.6"/>
    <line class="st0" x1="1232" y1="976.6" x2="1152" y2="890.6"/>
    <line class="st0" x1="1232" y1="976.6" x2="1072" y2="1057.6"/>
    <line class="st0" x1="1232" y1="976.6" x2="832" y2="890.6"/>
    <line class="st0" x1="1312" y1="1130.6" x2="1232" y2="976.6"/>
    <line class="st0" x1="1312" y1="1130.6" x2="1072" y2="1057.6"/>
    <line class="st0" x1="1392" y1="890.6" x2="1232" y2="976.6"/>
    <line class="st0" x1="1472" y1="1110.6" x2="1392" y2="890.6"/>
    <line class="st0" x1="1552" y1="998.6" x2="1312" y2="1130.6"/>
    <line class="st0" x1="1552" y1="998.6" x2="1152" y2="890.6"/>
    <circle cx="-2768" cy="1130.6" r="10"/>
    <circle cx="-2768" cy="1070.6" r="10"/>
    <circle cx="-2768" cy="1010.6" r="10"/>
    <circle cx="-2768" cy="950.6" r="10"/>
    <circle cx="-2768" cy="890.6" r="10"/>
    <circle cx="-2688" cy="937.3" r="10"/>
    <circle cx="-2608" cy="1050.6" r="10"/>
    <circle cx="-2528" cy="890.6" r="10"/>
    <circle cx="-2448" cy="1130.6" r="10"/>
    <circle cx="-2368" cy="963.9" r="10"/>
    <circle cx="-2288" cy="920.6" r="10"/>
    <circle cx="-2208" cy="1089.3" r="10"/>
    <circle cx="-2128" cy="890.6" r="10"/>
    <circle cx="-2048" cy="1104.9" r="10"/>
    <circle cx="-1968" cy="1072.6" r="10"/>
    <circle cx="-1888" cy="1130.6" r="10"/>
    <circle cx="-1808" cy="970.6" r="10"/>
    <circle cx="-1728" cy="915.6" r="10"/>
    <circle cx="-1648" cy="1060.6" r="10"/>
    <circle cx="-1568" cy="1021.6" r="10"/>
    <circle cx="-1488" cy="890.6" r="10"/>
    <circle cx="-1408" cy="1040.6" r="10"/>
    <circle cx="-1328" cy="982.6" r="10"/>
    <circle cx="-1248" cy="1130.6" r="10"/>
    <circle cx="-1168" cy="1130.6" r="10"/>
    <circle cx="-1088" cy="970.6" r="10"/>
    <circle cx="-1008" cy="890.6" r="10"/>
    <circle cx="-928" cy="1080.6" r="10"/>
    <circle cx="-848" cy="954.6" r="10"/>
    <circle cx="-768" cy="1074.6" r="10"/>
    <circle cx="-688" cy="890.6" r="10"/>
    <circle cx="-608" cy="1130.6" r="10"/>
    <circle cx="-528" cy="1060.6" r="10"/>
    <circle cx="-448" cy="918.6" r="10"/>
    <circle cx="-368" cy="1090.6" r="10"/>
    <circle cx="-288" cy="990.6" r="10"/>
    <circle cx="-208" cy="890.6" r="10"/>
    <circle cx="-128" cy="1130.6" r="10"/>
    <circle cx="-48" cy="998.6" r="10"/>
    <circle cx="32" cy="950.6" r="10"/>
    <circle cx="112" cy="1100.6" r="10"/>
    <circle cx="192" cy="960.6" r="10"/>
    <circle cx="272" cy="890.6" r="10"/>
    <circle cx="352" cy="1008.6" r="10"/>
    <circle cx="432" cy="1130.6" r="10"/>
    <circle cx="512" cy="922.6" r="10"/>
    <circle cx="592" cy="1080.6" r="10"/>
    <circle cx="672" cy="1010.6" r="10"/>
    <circle cx="752" cy="1130.6" r="10"/>
    <circle cx="832" cy="890.6" r="10"/>
    <circle cx="912" cy="982.6" r="10"/>
    <circle cx="992" cy="1080.6" r="10"/>
    <circle cx="1072" cy="1057.6" r="10"/>
    <circle cx="1152" cy="890.6" r="10"/>
    <circle cx="1232" cy="976.6" r="10"/>
    <circle cx="1312" cy="1130.6" r="10"/>
    <circle cx="1392" cy="890.6" r="10"/>
    <circle cx="1472" cy="1110.6" r="10"/>
    <circle cx="1552" cy="998.6" r="10"/>
  </g>
</svg>