<?xml version="1.0" encoding="UTF-8"?>
<svg id="Layer_1" xmlns="http://www.w3.org/2000/svg" version="1.1" viewBox="0 0 1372 1047.5">
  <!-- Generator: Adobe Illustrator 30.0.0, SVG Export Plug-In . SVG Version: 2.1.1 Build 123)  -->
  <defs>
    <style>
      .st0 {
        fill: none;
        stroke: #000;
        stroke-linecap: round;
        stroke-miterlimit: 20;
        stroke-width: 4px;
      }
    </style>
  </defs>
  <g>
    <line class="st0" x1="62" y1="56.7" x2="-18" y2="10"/>
    <line class="st0" x1="62" y1="56.7" x2="-18" y2="70"/>
    <line class="st0" x1="62" y1="56.7" x2="-18" y2="130"/>
    <line class="st0" x1="142" y1="170" x2="-18" y2="70"/>
    <line class="st0" x1="142" y1="170" x2="-18" y2="130"/>
    <line class="st0" x1="222" y1="10" x2="142" y2="170"/>
    <line class="st0" x1="222" y1="10" x2="62" y2="56.7"/>
    <line class="st0" x1="382" y1="83.3" x2="302" y2="250"/>
    <line class="st0" x1="382" y1="83.3" x2="222" y2="10"/>
    <line class="st0" x1="382" y1="83.3" x2="142" y2="170"/>
    <line class="st0" x1="462" y1="40" x2="222" y2="10"/>
    <line class="st0" x1="542" y1="208.7" x2="382" y2="83.3"/>
    <line class="st0" x1="542" y1="208.7" x2="142" y2="170"/>
    <line class="st0" x1="622" y1="10" x2="462" y2="40"/>
    <line class="st0" x1="782" y1="192" x2="382" y2="83.3"/>
    <line class="st0" x1="942" y1="90" x2="622" y2="10"/>
    <line class="st0" x1="942" y1="90" x2="542" y2="208.7"/>
    <line class="st0" x1="1022" y1="35" x2="942" y2="90"/>
    <line class="st0" x1="1022" y1="35" x2="622" y2="10"/>
    <line class="st0" x1="1102" y1="180" x2="782" y2="192"/>
    <line class="st0" x1="1182" y1="141" x2="1022" y2="35"/>
    <line class="st0" x1="1262" y1="10" x2="1182" y2="141"/>
    <line class="st0" x1="1422" y1="102" x2="1182" y2="141"/>
    <line class="st0" x1="1422" y1="102" x2="1022" y2="35"/>
    <line class="st0" x1="1502" y1="250" x2="1422" y2="102"/>
    <line class="st0" x1="1502" y1="250" x2="1342" y2="160"/>
    <line class="st0" x1="1502" y1="250" x2="1102" y2="180"/>
    <line class="st0" x1="1662" y1="90" x2="1502" y2="250"/>
    <line class="st0" x1="1662" y1="90" x2="1262" y2="10"/>
    <line class="st0" x1="1742" y1="10" x2="1422" y2="102"/>
    <line class="st0" x1="1822" y1="200" x2="1582" y2="250"/>
    <line class="st0" x1="1822" y1="200" x2="1422" y2="102"/>
    <line class="st0" x1="1902" y1="74" x2="1662" y2="90"/>
    <line class="st0" x1="1902" y1="74" x2="1502" y2="250"/>
    <line class="st0" x1="1982" y1="194" x2="1662" y2="90"/>
    <line class="st0" x1="2062" y1="10" x2="1982" y2="194"/>
    <line class="st0" x1="2062" y1="10" x2="1902" y2="74"/>
    <line class="st0" x1="2222" y1="180" x2="1982" y2="194"/>
    <line class="st0" x1="2302" y1="38" x2="2222" y2="180"/>
    <line class="st0" x1="2302" y1="38" x2="2062" y2="10"/>
    <line class="st0" x1="2302" y1="38" x2="1982" y2="194"/>
    <line class="st0" x1="2382" y1="210" x2="2302" y2="38"/>
    <line class="st0" x1="2382" y1="210" x2="2142" y2="250"/>
    <line class="st0" x1="2382" y1="210" x2="2062" y2="10"/>
    <line class="st0" x1="2542" y1="10" x2="2462" y2="110"/>
    <line class="st0" x1="2622" y1="250" x2="2542" y2="10"/>
    <line class="st0" x1="2622" y1="250" x2="2382" y2="210"/>
    <line class="st0" x1="2702" y1="118" x2="2622" y2="250"/>
    <line class="st0" x1="2702" y1="118" x2="2462" y2="110"/>
    <line class="st0" x1="2782" y1="70" x2="2542" y2="10"/>
    <line class="st0" x1="2862" y1="220" x2="2782" y2="70"/>
    <line class="st0" x1="2862" y1="220" x2="2702" y2="118"/>
    <line class="st0" x1="2862" y1="220" x2="2462" y2="110"/>
    <line class="st0" x1="3022" y1="10" x2="2782" y2="70"/>
    <line class="st0" x1="3102" y1="128" x2="3022" y2="10"/>
    <line class="st0" x1="3102" y1="128" x2="2862" y2="220"/>
    <line class="st0" x1="3102" y1="128" x2="2702" y2="118"/>
    <line class="st0" x1="3182" y1="250" x2="2862" y2="220"/>
    <line class="st0" x1="3262" y1="42" x2="3022" y2="10"/>
    <line class="st0" x1="3262" y1="42" x2="2942" y2="80"/>
    <line class="st0" x1="3342" y1="200" x2="3182" y2="250"/>
    <line class="st0" x1="3502" y1="250" x2="3342" y2="200"/>
    <line class="st0" x1="3582" y1="10" x2="3502" y2="250"/>
    <line class="st0" x1="3582" y1="10" x2="3262" y2="42"/>
    <line class="st0" x1="3662" y1="102" x2="3262" y2="42"/>
    <line class="st0" x1="3742" y1="200" x2="3662" y2="102"/>
    <line class="st0" x1="3742" y1="200" x2="3502" y2="250"/>
    <line class="st0" x1="3902" y1="10" x2="3822" y2="177"/>
    <line class="st0" x1="3902" y1="10" x2="3662" y2="102"/>
    <line class="st0" x1="3982" y1="96" x2="3902" y2="10"/>
    <line class="st0" x1="3982" y1="96" x2="3822" y2="177"/>
    <line class="st0" x1="3982" y1="96" x2="3582" y2="10"/>
    <line class="st0" x1="4062" y1="250" x2="3982" y2="96"/>
    <line class="st0" x1="4062" y1="250" x2="3822" y2="177"/>
    <line class="st0" x1="4142" y1="10" x2="3982" y2="96"/>
    <line class="st0" x1="4222" y1="230" x2="4142" y2="10"/>
    <line class="st0" x1="4302" y1="118" x2="4062" y2="250"/>
    <line class="st0" x1="4302" y1="118" x2="3902" y2="10"/>
    <circle cx="-18" cy="250" r="10"/>
    <circle cx="-18" cy="190" r="10"/>
    <circle cx="-18" cy="130" r="10"/>
    <circle cx="-18" cy="70" r="10"/>
    <circle cx="-18" cy="10" r="10"/>
    <circle cx="62" cy="56.7" r="10"/>
    <circle cx="142" cy="170" r="10"/>
    <circle cx="222" cy="10" r="10"/>
    <circle cx="302" cy="250" r="10"/>
    <circle cx="382" cy="83.3" r="10"/>
    <circle cx="462" cy="40" r="10"/>
    <circle cx="542" cy="208.7" r="10"/>
    <circle cx="622" cy="10" r="10"/>
    <circle cx="702" cy="224.3" r="10"/>
    <circle cx="782" cy="192" r="10"/>
    <circle cx="862" cy="250" r="10"/>
    <circle cx="942" cy="90" r="10"/>
    <circle cx="1022" cy="35" r="10"/>
    <circle cx="1102" cy="180" r="10"/>
    <circle cx="1182" cy="141" r="10"/>
    <circle cx="1262" cy="10" r="10"/>
    <circle cx="1342" cy="160" r="10"/>
    <circle cx="1422" cy="102" r="10"/>
    <circle cx="1502" cy="250" r="10"/>
    <circle cx="1582" cy="250" r="10"/>
    <circle cx="1662" cy="90" r="10"/>
    <circle cx="1742" cy="10" r="10"/>
    <circle cx="1822" cy="200" r="10"/>
    <circle cx="1902" cy="74" r="10"/>
    <circle cx="1982" cy="194" r="10"/>
    <circle cx="2062" cy="10" r="10"/>
    <circle cx="2142" cy="250" r="10"/>
    <circle cx="2222" cy="180" r="10"/>
    <circle cx="2302" cy="38" r="10"/>
    <circle cx="2382" cy="210" r="10"/>
    <circle cx="2462" cy="110" r="10"/>
    <circle cx="2542" cy="10" r="10"/>
    <circle cx="2622" cy="250" r="10"/>
    <circle cx="2702" cy="118" r="10"/>
    <circle cx="2782" cy="70" r="10"/>
    <circle cx="2862" cy="220" r="10"/>
    <circle cx="2942" cy="80" r="10"/>
    <circle cx="3022" cy="10" r="10"/>
    <circle cx="3102" cy="128" r="10"/>
    <circle cx="3182" cy="250" r="10"/>
    <circle cx="3262" cy="42" r="10"/>
    <circle cx="3342" cy="200" r="10"/>
    <circle cx="3422" cy="130" r="10"/>
    <circle cx="3502" cy="250" r="10"/>
    <circle cx="3582" cy="10" r="10"/>
    <circle cx="3662" cy="102" r="10"/>
    <circle cx="3742" cy="200" r="10"/>
    <circle cx="3822" cy="177" r="10"/>
    <circle cx="3902" cy="10" r="10"/>
    <circle cx="3982" cy="96" r="10"/>
    <circle cx="4062" cy="250" r="10"/>
    <circle cx="4142" cy="10" r="10"/>
    <circle cx="4222" cy="230" r="10"/>
    <circle cx="4302" cy="118" r="10"/>
  </g>
  <g>
    <line class="st0" x1="-1318" y1="450.5" x2="-1398" y2="403.8"/>
    <line class="st0" x1="-1318" y1="450.5" x2="-1398" y2="463.8"/>
    <line class="st0" x1="-1318" y1="450.5" x2="-1398" y2="523.8"/>
    <line class="st0" x1="-1238" y1="563.8" x2="-1398" y2="463.8"/>
    <line class="st0" x1="-1238" y1="563.8" x2="-1398" y2="523.8"/>
    <line class="st0" x1="-1158" y1="403.8" x2="-1238" y2="563.8"/>
    <line class="st0" x1="-1158" y1="403.8" x2="-1318" y2="450.5"/>
    <line class="st0" x1="-998" y1="477.1" x2="-1078" y2="643.8"/>
    <line class="st0" x1="-998" y1="477.1" x2="-1158" y2="403.8"/>
    <line class="st0" x1="-998" y1="477.1" x2="-1238" y2="563.8"/>
    <line class="st0" x1="-918" y1="433.8" x2="-1158" y2="403.8"/>
    <line class="st0" x1="-838" y1="602.5" x2="-998" y2="477.1"/>
    <line class="st0" x1="-838" y1="602.5" x2="-1238" y2="563.8"/>
    <line class="st0" x1="-758" y1="403.8" x2="-918" y2="433.8"/>
    <line class="st0" x1="-598" y1="585.8" x2="-998" y2="477.1"/>
    <line class="st0" x1="-438" y1="483.8" x2="-758" y2="403.8"/>
    <line class="st0" x1="-438" y1="483.8" x2="-838" y2="602.5"/>
    <line class="st0" x1="-358" y1="428.8" x2="-438" y2="483.8"/>
    <line class="st0" x1="-358" y1="428.8" x2="-758" y2="403.8"/>
    <line class="st0" x1="-278" y1="573.8" x2="-598" y2="585.8"/>
    <line class="st0" x1="-198" y1="534.8" x2="-358" y2="428.8"/>
    <line class="st0" x1="-118" y1="403.8" x2="-198" y2="534.8"/>
    <line class="st0" x1="42" y1="495.8" x2="-198" y2="534.8"/>
    <line class="st0" x1="42" y1="495.8" x2="-358" y2="428.8"/>
    <line class="st0" x1="122" y1="643.8" x2="42" y2="495.8"/>
    <line class="st0" x1="122" y1="643.8" x2="-38" y2="553.8"/>
    <line class="st0" x1="122" y1="643.8" x2="-278" y2="573.8"/>
    <line class="st0" x1="282" y1="483.8" x2="122" y2="643.8"/>
    <line class="st0" x1="282" y1="483.8" x2="-118" y2="403.8"/>
    <line class="st0" x1="362" y1="403.8" x2="42" y2="495.8"/>
    <line class="st0" x1="442" y1="593.8" x2="202" y2="643.8"/>
    <line class="st0" x1="442" y1="593.8" x2="42" y2="495.8"/>
    <line class="st0" x1="522" y1="467.8" x2="282" y2="483.8"/>
    <line class="st0" x1="522" y1="467.8" x2="122" y2="643.8"/>
    <line class="st0" x1="602" y1="587.8" x2="282" y2="483.8"/>
    <line class="st0" x1="682" y1="403.8" x2="602" y2="587.8"/>
    <line class="st0" x1="682" y1="403.8" x2="522" y2="467.8"/>
    <line class="st0" x1="842" y1="573.8" x2="602" y2="587.8"/>
    <line class="st0" x1="922" y1="431.8" x2="842" y2="573.8"/>
    <line class="st0" x1="922" y1="431.8" x2="682" y2="403.8"/>
    <line class="st0" x1="922" y1="431.8" x2="602" y2="587.8"/>
    <line class="st0" x1="1002" y1="603.8" x2="922" y2="431.8"/>
    <line class="st0" x1="1002" y1="603.8" x2="762" y2="643.8"/>
    <line class="st0" x1="1002" y1="603.8" x2="682" y2="403.8"/>
    <line class="st0" x1="1162" y1="403.8" x2="1082" y2="503.8"/>
    <line class="st0" x1="1242" y1="643.8" x2="1162" y2="403.8"/>
    <line class="st0" x1="1242" y1="643.8" x2="1002" y2="603.8"/>
    <line class="st0" x1="1322" y1="511.8" x2="1242" y2="643.8"/>
    <line class="st0" x1="1322" y1="511.8" x2="1082" y2="503.8"/>
    <line class="st0" x1="1402" y1="463.8" x2="1162" y2="403.8"/>
    <line class="st0" x1="1482" y1="613.8" x2="1402" y2="463.8"/>
    <line class="st0" x1="1482" y1="613.8" x2="1322" y2="511.8"/>
    <line class="st0" x1="1482" y1="613.8" x2="1082" y2="503.8"/>
    <line class="st0" x1="1642" y1="403.8" x2="1402" y2="463.8"/>
    <line class="st0" x1="1722" y1="521.8" x2="1642" y2="403.8"/>
    <line class="st0" x1="1722" y1="521.8" x2="1482" y2="613.8"/>
    <line class="st0" x1="1722" y1="521.8" x2="1322" y2="511.8"/>
    <line class="st0" x1="1802" y1="643.8" x2="1482" y2="613.8"/>
    <line class="st0" x1="1882" y1="435.8" x2="1642" y2="403.8"/>
    <line class="st0" x1="1882" y1="435.8" x2="1562" y2="473.8"/>
    <line class="st0" x1="1962" y1="593.8" x2="1802" y2="643.8"/>
    <line class="st0" x1="2122" y1="643.8" x2="1962" y2="593.8"/>
    <line class="st0" x1="2202" y1="403.8" x2="2122" y2="643.8"/>
    <line class="st0" x1="2202" y1="403.8" x2="1882" y2="435.8"/>
    <line class="st0" x1="2282" y1="495.8" x2="1882" y2="435.8"/>
    <line class="st0" x1="2362" y1="593.8" x2="2282" y2="495.8"/>
    <line class="st0" x1="2362" y1="593.8" x2="2122" y2="643.8"/>
    <line class="st0" x1="2522" y1="403.8" x2="2442" y2="570.8"/>
    <line class="st0" x1="2522" y1="403.8" x2="2282" y2="495.8"/>
    <line class="st0" x1="2602" y1="489.8" x2="2522" y2="403.8"/>
    <line class="st0" x1="2602" y1="489.8" x2="2442" y2="570.8"/>
    <line class="st0" x1="2602" y1="489.8" x2="2202" y2="403.8"/>
    <line class="st0" x1="2682" y1="643.8" x2="2602" y2="489.8"/>
    <line class="st0" x1="2682" y1="643.8" x2="2442" y2="570.8"/>
    <line class="st0" x1="2762" y1="403.8" x2="2602" y2="489.8"/>
    <line class="st0" x1="2842" y1="623.8" x2="2762" y2="403.8"/>
    <line class="st0" x1="2922" y1="511.8" x2="2682" y2="643.8"/>
    <line class="st0" x1="2922" y1="511.8" x2="2522" y2="403.8"/>
    <circle cx="-1398" cy="643.8" r="10"/>
    <circle cx="-1398" cy="583.8" r="10"/>
    <circle cx="-1398" cy="523.8" r="10"/>
    <circle cx="-1398" cy="463.8" r="10"/>
    <circle cx="-1398" cy="403.8" r="10"/>
    <circle cx="-1318" cy="450.5" r="10"/>
    <circle cx="-1238" cy="563.8" r="10"/>
    <circle cx="-1158" cy="403.8" r="10"/>
    <circle cx="-1078" cy="643.8" r="10"/>
    <circle cx="-998" cy="477.1" r="10"/>
    <circle cx="-918" cy="433.8" r="10"/>
    <circle cx="-838" cy="602.5" r="10"/>
    <circle cx="-758" cy="403.8" r="10"/>
    <circle cx="-678" cy="618.1" r="10"/>
    <circle cx="-598" cy="585.8" r="10"/>
    <circle cx="-518" cy="643.8" r="10"/>
    <circle cx="-438" cy="483.8" r="10"/>
    <circle cx="-358" cy="428.8" r="10"/>
    <circle cx="-278" cy="573.8" r="10"/>
    <circle cx="-198" cy="534.8" r="10"/>
    <circle cx="-118" cy="403.8" r="10"/>
    <circle cx="-38" cy="553.8" r="10"/>
    <circle cx="42" cy="495.8" r="10"/>
    <circle cx="122" cy="643.8" r="10"/>
    <circle cx="202" cy="643.8" r="10"/>
    <circle cx="282" cy="483.8" r="10"/>
    <circle cx="362" cy="403.8" r="10"/>
    <circle cx="442" cy="593.8" r="10"/>
    <circle cx="522" cy="467.8" r="10"/>
    <circle cx="602" cy="587.8" r="10"/>
    <circle cx="682" cy="403.8" r="10"/>
    <circle cx="762" cy="643.8" r="10"/>
    <circle cx="842" cy="573.8" r="10"/>
    <circle cx="922" cy="431.8" r="10"/>
    <circle cx="1002" cy="603.8" r="10"/>
    <circle cx="1082" cy="503.8" r="10"/>
    <circle cx="1162" cy="403.8" r="10"/>
    <circle cx="1242" cy="643.8" r="10"/>
    <circle cx="1322" cy="511.8" r="10"/>
    <circle cx="1402" cy="463.8" r="10"/>
    <circle cx="1482" cy="613.8" r="10"/>
    <circle cx="1562" cy="473.8" r="10"/>
    <circle cx="1642" cy="403.8" r="10"/>
    <circle cx="1722" cy="521.8" r="10"/>
    <circle cx="1802" cy="643.8" r="10"/>
    <circle cx="1882" cy="435.8" r="10"/>
    <circle cx="1962" cy="593.8" r="10"/>
    <circle cx="2042" cy="523.8" r="10"/>
    <circle cx="2122" cy="643.8" r="10"/>
    <circle cx="2202" cy="403.8" r="10"/>
    <circle cx="2282" cy="495.8" r="10"/>
    <circle cx="2362" cy="593.8" r="10"/>
    <circle cx="2442" cy="570.8" r="10"/>
    <circle cx="2522" cy="403.8" r="10"/>
    <circle cx="2602" cy="489.8" r="10"/>
    <circle cx="2682" cy="643.8" r="10"/>
    <circle cx="2762" cy="403.8" r="10"/>
    <circle cx="2842" cy="623.8" r="10"/>
    <circle cx="2922" cy="511.8" r="10"/>
  </g>
  <g>
    <line class="st0" x1="-2688" y1="844.2" x2="-2768" y2="797.5"/>
    <line class="st0" x1="-2688" y1="844.2" x2="-2768" y2="857.5"/>
    <line class="st0" x1="-2688" y1="844.2" x2="-2768" y2="917.5"/>
    <line class="st0" x1="-2608" y1="957.5" x2="-2768" y2="857.5"/>
    <line class="st0" x1="-2608" y1="957.5" x2="-2768" y2="917.5"/>
    <line class="st0" x1="-2528" y1="797.5" x2="-2608" y2="957.5"/>
    <line class="st0" x1="-2528" y1="797.5" x2="-2688" y2="844.2"/>
    <line class="st0" x1="-2368" y1="870.8" x2="-2448" y2="1037.5"/>
    <line class="st0" x1="-2368" y1="870.8" x2="-2528" y2="797.5"/>
    <line class="st0" x1="-2368" y1="870.8" x2="-2608" y2="957.5"/>
    <line class="st0" x1="-2288" y1="827.5" x2="-2528" y2="797.5"/>
    <line class="st0" x1="-2208" y1="996.2" x2="-2368" y2="870.8"/>
    <line class="st0" x1="-2208" y1="996.2" x2="-2608" y2="957.5"/>
    <line class="st0" x1="-2128" y1="797.5" x2="-2288" y2="827.5"/>
    <line class="st0" x1="-1968" y1="979.5" x2="-2368" y2="870.8"/>
    <line class="st0" x1="-1808" y1="877.5" x2="-2128" y2="797.5"/>
    <line class="st0" x1="-1808" y1="877.5" x2="-2208" y2="996.2"/>
    <line class="st0" x1="-1728" y1="822.5" x2="-1808" y2="877.5"/>
    <line class="st0" x1="-1728" y1="822.5" x2="-2128" y2="797.5"/>
    <line class="st0" x1="-1648" y1="967.5" x2="-1968" y2="979.5"/>
    <line class="st0" x1="-1568" y1="928.5" x2="-1728" y2="822.5"/>
    <line class="st0" x1="-1488" y1="797.5" x2="-1568" y2="928.5"/>
    <line class="st0" x1="-1328" y1="889.5" x2="-1568" y2="928.5"/>
    <line class="st0" x1="-1328" y1="889.5" x2="-1728" y2="822.5"/>
    <line class="st0" x1="-1248" y1="1037.5" x2="-1328" y2="889.5"/>
    <line class="st0" x1="-1248" y1="1037.5" x2="-1408" y2="947.5"/>
    <line class="st0" x1="-1248" y1="1037.5" x2="-1648" y2="967.5"/>
    <line class="st0" x1="-1088" y1="877.5" x2="-1248" y2="1037.5"/>
    <line class="st0" x1="-1088" y1="877.5" x2="-1488" y2="797.5"/>
    <line class="st0" x1="-1008" y1="797.5" x2="-1328" y2="889.5"/>
    <line class="st0" x1="-928" y1="987.5" x2="-1168" y2="1037.5"/>
    <line class="st0" x1="-928" y1="987.5" x2="-1328" y2="889.5"/>
    <line class="st0" x1="-848" y1="861.5" x2="-1088" y2="877.5"/>
    <line class="st0" x1="-848" y1="861.5" x2="-1248" y2="1037.5"/>
    <line class="st0" x1="-768" y1="981.5" x2="-1088" y2="877.5"/>
    <line class="st0" x1="-688" y1="797.5" x2="-768" y2="981.5"/>
    <line class="st0" x1="-688" y1="797.5" x2="-848" y2="861.5"/>
    <line class="st0" x1="-528" y1="967.5" x2="-768" y2="981.5"/>
    <line class="st0" x1="-448" y1="825.5" x2="-528" y2="967.5"/>
    <line class="st0" x1="-448" y1="825.5" x2="-688" y2="797.5"/>
    <line class="st0" x1="-448" y1="825.5" x2="-768" y2="981.5"/>
    <line class="st0" x1="-368" y1="997.5" x2="-448" y2="825.5"/>
    <line class="st0" x1="-368" y1="997.5" x2="-608" y2="1037.5"/>
    <line class="st0" x1="-368" y1="997.5" x2="-688" y2="797.5"/>
    <line class="st0" x1="-208" y1="797.5" x2="-288" y2="897.5"/>
    <line class="st0" x1="-128" y1="1037.5" x2="-208" y2="797.5"/>
    <line class="st0" x1="-128" y1="1037.5" x2="-368" y2="997.5"/>
    <line class="st0" x1="-48" y1="905.5" x2="-128" y2="1037.5"/>
    <line class="st0" x1="-48" y1="905.5" x2="-288" y2="897.5"/>
    <line class="st0" x1="32" y1="857.5" x2="-208" y2="797.5"/>
    <line class="st0" x1="112" y1="1007.5" x2="32" y2="857.5"/>
    <line class="st0" x1="112" y1="1007.5" x2="-48" y2="905.5"/>
    <line class="st0" x1="112" y1="1007.5" x2="-288" y2="897.5"/>
    <line class="st0" x1="272" y1="797.5" x2="32" y2="857.5"/>
    <line class="st0" x1="352" y1="915.5" x2="272" y2="797.5"/>
    <line class="st0" x1="352" y1="915.5" x2="112" y2="1007.5"/>
    <line class="st0" x1="352" y1="915.5" x2="-48" y2="905.5"/>
    <line class="st0" x1="432" y1="1037.5" x2="112" y2="1007.5"/>
    <line class="st0" x1="512" y1="829.5" x2="272" y2="797.5"/>
    <line class="st0" x1="512" y1="829.5" x2="192" y2="867.5"/>
    <line class="st0" x1="592" y1="987.5" x2="432" y2="1037.5"/>
    <line class="st0" x1="752" y1="1037.5" x2="592" y2="987.5"/>
    <line class="st0" x1="832" y1="797.5" x2="752" y2="1037.5"/>
    <line class="st0" x1="832" y1="797.5" x2="512" y2="829.5"/>
    <line class="st0" x1="912" y1="889.5" x2="512" y2="829.5"/>
    <line class="st0" x1="992" y1="987.5" x2="912" y2="889.5"/>
    <line class="st0" x1="992" y1="987.5" x2="752" y2="1037.5"/>
    <line class="st0" x1="1152" y1="797.5" x2="1072" y2="964.5"/>
    <line class="st0" x1="1152" y1="797.5" x2="912" y2="889.5"/>
    <line class="st0" x1="1232" y1="883.5" x2="1152" y2="797.5"/>
    <line class="st0" x1="1232" y1="883.5" x2="1072" y2="964.5"/>
    <line class="st0" x1="1232" y1="883.5" x2="832" y2="797.5"/>
    <line class="st0" x1="1312" y1="1037.5" x2="1232" y2="883.5"/>
    <line class="st0" x1="1312" y1="1037.5" x2="1072" y2="964.5"/>
    <line class="st0" x1="1392" y1="797.5" x2="1232" y2="883.5"/>
    <line class="st0" x1="1472" y1="1017.5" x2="1392" y2="797.5"/>
    <line class="st0" x1="1552" y1="905.5" x2="1312" y2="1037.5"/>
    <line class="st0" x1="1552" y1="905.5" x2="1152" y2="797.5"/>
    <circle cx="-2768" cy="1037.5" r="10"/>
    <circle cx="-2768" cy="977.5" r="10"/>
    <circle cx="-2768" cy="917.5" r="10"/>
    <circle cx="-2768" cy="857.5" r="10"/>
    <circle cx="-2768" cy="797.5" r="10"/>
    <circle cx="-2688" cy="844.2" r="10"/>
    <circle cx="-2608" cy="957.5" r="10"/>
    <circle cx="-2528" cy="797.5" r="10"/>
    <circle cx="-2448" cy="1037.5" r="10"/>
    <circle cx="-2368" cy="870.8" r="10"/>
    <circle cx="-2288" cy="827.5" r="10"/>
    <circle cx="-2208" cy="996.2" r="10"/>
    <circle cx="-2128" cy="797.5" r="10"/>
    <circle cx="-2048" cy="1011.8" r="10"/>
    <circle cx="-1968" cy="979.5" r="10"/>
    <circle cx="-1888" cy="1037.5" r="10"/>
    <circle cx="-1808" cy="877.5" r="10"/>
    <circle cx="-1728" cy="822.5" r="10"/>
    <circle cx="-1648" cy="967.5" r="10"/>
    <circle cx="-1568" cy="928.5" r="10"/>
    <circle cx="-1488" cy="797.5" r="10"/>
    <circle cx="-1408" cy="947.5" r="10"/>
    <circle cx="-1328" cy="889.5" r="10"/>
    <circle cx="-1248" cy="1037.5" r="10"/>
    <circle cx="-1168" cy="1037.5" r="10"/>
    <circle cx="-1088" cy="877.5" r="10"/>
    <circle cx="-1008" cy="797.5" r="10"/>
    <circle cx="-928" cy="987.5" r="10"/>
    <circle cx="-848" cy="861.5" r="10"/>
    <circle cx="-768" cy="981.5" r="10"/>
    <circle cx="-688" cy="797.5" r="10"/>
    <circle cx="-608" cy="1037.5" r="10"/>
    <circle cx="-528" cy="967.5" r="10"/>
    <circle cx="-448" cy="825.5" r="10"/>
    <circle cx="-368" cy="997.5" r="10"/>
    <circle cx="-288" cy="897.5" r="10"/>
    <circle cx="-208" cy="797.5" r="10"/>
    <circle cx="-128" cy="1037.5" r="10"/>
    <circle cx="-48" cy="905.5" r="10"/>
    <circle cx="32" cy="857.5" r="10"/>
    <circle cx="112" cy="1007.5" r="10"/>
    <circle cx="192" cy="867.5" r="10"/>
    <circle cx="272" cy="797.5" r="10"/>
    <circle cx="352" cy="915.5" r="10"/>
    <circle cx="432" cy="1037.5" r="10"/>
    <circle cx="512" cy="829.5" r="10"/>
    <circle cx="592" cy="987.5" r="10"/>
    <circle cx="672" cy="917.5" r="10"/>
    <circle cx="752" cy="1037.5" r="10"/>
    <circle cx="832" cy="797.5" r="10"/>
    <circle cx="912" cy="889.5" r="10"/>
    <circle cx="992" cy="987.5" r="10"/>
    <circle cx="1072" cy="964.5" r="10"/>
    <circle cx="1152" cy="797.5" r="10"/>
    <circle cx="1232" cy="883.5" r="10"/>
    <circle cx="1312" cy="1037.5" r="10"/>
    <circle cx="1392" cy="797.5" r="10"/>
    <circle cx="1472" cy="1017.5" r="10"/>
    <circle cx="1552" cy="905.5" r="10"/>
  </g>
</svg>