<?xml version="1.0" encoding="UTF-8"?>
<svg xmlns="http://www.w3.org/2000/svg" width="8in" height="8in" viewBox="0 0 576 576">
  <defs>
    <style>
      .cls-1 {
        fill: #ffd800;
      }

      .cls-2 {
        fill: #080025;
      }

      .cls-3 {
        fill: none;
        stroke: #fff;
        stroke-miterlimit: 10;
        stroke-width: .5px;
      }

      .cls-4 {
        fill: #fff;
      }

      .cls-5 {
        opacity: .3;
      }
    </style>
  </defs>
  <g id="blue">
    <rect class="cls-2" width="576" height="576"/>
  </g>
  <g id="rays" class="cls-5">
    <g>
      <line class="cls-3" x1="288" y1="288" x2="288" y2="719.16"/>
      <line class="cls-3" x1="288" y1="288" x2="322.69" y2="717.76"/>
      <line class="cls-3" x1="288" y1="288" x2="357.16" y2="713.58"/>
      <line class="cls-3" x1="288" y1="288" x2="391.18" y2="706.63"/>
      <line class="cls-3" x1="288" y1="288" x2="424.54" y2="696.97"/>
      <line class="cls-3" x1="288" y1="288" x2="457" y2="684.66"/>
      <line class="cls-3" x1="288" y1="288" x2="488.37" y2="669.77"/>
      <line class="cls-3" x1="288" y1="288" x2="518.44" y2="652.41"/>
      <line class="cls-3" x1="288" y1="288" x2="547.02" y2="632.69"/>
      <line class="cls-3" x1="288" y1="288" x2="573.91" y2="610.73"/>
      <line class="cls-3" x1="288" y1="288" x2="598.96" y2="586.68"/>
      <line class="cls-3" x1="288" y1="288" x2="621.98" y2="560.69"/>
      <line class="cls-3" x1="288" y1="288" x2="642.84" y2="532.93"/>
      <line class="cls-3" x1="288" y1="288" x2="661.4" y2="503.58"/>
      <line class="cls-3" x1="288" y1="288" x2="677.53" y2="472.84"/>
      <line class="cls-3" x1="288" y1="288" x2="691.14" y2="440.89"/>
      <line class="cls-3" x1="288" y1="288" x2="702.14" y2="407.96"/>
      <line class="cls-3" x1="288" y1="288" x2="710.45" y2="374.24"/>
      <line class="cls-3" x1="288" y1="288" x2="716.02" y2="339.97"/>
      <line class="cls-3" x1="288" y1="288" x2="718.81" y2="305.36"/>
      <line class="cls-3" x1="288" y1="288" x2="718.81" y2="270.64"/>
      <line class="cls-3" x1="288" y1="288" x2="716.02" y2="236.03"/>
      <line class="cls-3" x1="288" y1="288" x2="710.45" y2="201.76"/>
      <line class="cls-3" x1="288" y1="288" x2="702.14" y2="168.04"/>
      <line class="cls-3" x1="288" y1="288" x2="691.14" y2="135.11"/>
      <line class="cls-3" x1="288" y1="288" x2="677.53" y2="103.16"/>
      <line class="cls-3" x1="288" y1="288" x2="661.4" y2="72.42"/>
      <line class="cls-3" x1="288" y1="288" x2="642.84" y2="43.07"/>
      <line class="cls-3" x1="288" y1="288" x2="621.98" y2="15.31"/>
      <line class="cls-3" x1="288" y1="288" x2="598.96" y2="-10.68"/>
      <line class="cls-3" x1="288" y1="288" x2="573.91" y2="-34.73"/>
      <line class="cls-3" x1="288" y1="288" x2="547.02" y2="-56.69"/>
      <line class="cls-3" x1="288" y1="288" x2="518.44" y2="-76.41"/>
      <line class="cls-3" x1="288" y1="288" x2="488.37" y2="-93.77"/>
      <line class="cls-3" x1="288" y1="288" x2="457" y2="-108.66"/>
      <line class="cls-3" x1="288" y1="288" x2="424.54" y2="-120.97"/>
      <line class="cls-3" x1="288" y1="288" x2="391.18" y2="-130.63"/>
      <line class="cls-3" x1="288" y1="288" x2="357.16" y2="-137.58"/>
      <line class="cls-3" x1="288" y1="288" x2="322.69" y2="-141.76"/>
      <line class="cls-3" x1="288" y1="288" x2="288" y2="-143.16"/>
      <line class="cls-3" x1="288" y1="288" x2="253.31" y2="-141.76"/>
      <line class="cls-3" x1="288" y1="288" x2="218.84" y2="-137.58"/>
      <line class="cls-3" x1="288" y1="288" x2="184.82" y2="-130.63"/>
      <line class="cls-3" x1="288" y1="288" x2="151.46" y2="-120.97"/>
      <line class="cls-3" x1="288" y1="288" x2="119" y2="-108.66"/>
      <line class="cls-3" x1="288" y1="288" x2="87.63" y2="-93.77"/>
      <line class="cls-3" x1="288" y1="288" x2="57.56" y2="-76.41"/>
      <line class="cls-3" x1="288" y1="288" x2="28.98" y2="-56.69"/>
      <line class="cls-3" x1="288" y1="288" x2="2.09" y2="-34.73"/>
      <line class="cls-3" x1="288" y1="288" x2="-22.96" y2="-10.68"/>
      <line class="cls-3" x1="288" y1="288" x2="-45.98" y2="15.31"/>
      <line class="cls-3" x1="288" y1="288" x2="-66.84" y2="43.07"/>
      <line class="cls-3" x1="288" y1="288" x2="-85.4" y2="72.42"/>
      <line class="cls-3" x1="288" y1="288" x2="-101.53" y2="103.16"/>
      <line class="cls-3" x1="288" y1="288" x2="-115.14" y2="135.11"/>
      <line class="cls-3" x1="288" y1="288" x2="-126.14" y2="168.04"/>
      <line class="cls-3" x1="288" y1="288" x2="-134.45" y2="201.76"/>
      <line class="cls-3" x1="288" y1="288" x2="-140.02" y2="236.03"/>
      <line class="cls-3" x1="288" y1="288" x2="-142.81" y2="270.64"/>
      <line class="cls-3" x1="288" y1="288" x2="-142.81" y2="305.36"/>
      <line class="cls-3" x1="288" y1="288" x2="-140.02" y2="339.97"/>
      <line class="cls-3" x1="288" y1="288" x2="-134.45" y2="374.24"/>
      <line class="cls-3" x1="288" y1="288" x2="-126.14" y2="407.96"/>
      <line class="cls-3" x1="288" y1="288" x2="-115.14" y2="440.89"/>
      <line class="cls-3" x1="288" y1="288" x2="-101.53" y2="472.84"/>
      <line class="cls-3" x1="288" y1="288" x2="-85.4" y2="503.58"/>
      <line class="cls-3" x1="288" y1="288" x2="-66.84" y2="532.93"/>
      <line class="cls-3" x1="288" y1="288" x2="-45.98" y2="560.69"/>
      <line class="cls-3" x1="288" y1="288" x2="-22.96" y2="586.68"/>
      <line class="cls-3" x1="288" y1="288" x2="2.09" y2="610.73"/>
      <line class="cls-3" x1="288" y1="288" x2="28.98" y2="632.69"/>
      <line class="cls-3" x1="288" y1="288" x2="57.56" y2="652.41"/>
      <line class="cls-3" x1="288" y1="288" x2="87.63" y2="669.77"/>
      <line class="cls-3" x1="288" y1="288" x2="119" y2="684.66"/>
      <line class="cls-3" x1="288" y1="288" x2="151.46" y2="696.97"/>
      <line class="cls-3" x1="288" y1="288" x2="184.82" y2="706.63"/>
      <line class="cls-3" x1="288" y1="288" x2="218.84" y2="713.58"/>
      <line class="cls-3" x1="288" y1="288" x2="253.31" y2="717.76"/>
    </g>
  </g>
  <g id="lines">
    <path class="cls-4" d="M285.54,145.02c-6.47-.06-12.91-1.25-18.96-3.53,6.47.05,12.91,1.26,18.96,3.53h0Z"/>
    <path class="cls-4" d="M295.71,183.92c-3.5-11.74-5.93-23.8-7.22-35.98,3.51,11.74,5.92,23.8,7.22,35.98h0Z"/>
    <path class="cls-4" d="M293.71,186.57c-9.07,1.86-18.36,2.61-27.62,2.22,9.07-1.87,18.36-2.6,27.62-2.22h0Z"/>
    <path class="cls-4" d="M310.95,144.09c-3.57,13.65-8.22,27.01-13.92,39.92,3.56-13.65,8.22-27.01,13.92-39.92h0Z"/>
    <path class="cls-4" d="M319.87,188.8c-3.67-14.67-6.23-29.55-7.67-44.61,3.67,14.67,6.22,29.55,7.67,44.61h0Z"/>
    <path class="cls-4" d="M298.66,186.87c6.56.19,13.07,1.5,19.18,3.9-6.56-.18-13.07-1.51-19.18-3.9h0Z"/>
    <path class="cls-4" d="M346.57,144.48c-10.82.27-21.66-.58-32.3-2.56,10.82-.28,21.66.59,32.3,2.56h0Z"/>
    <path class="cls-4" d="M298.55,185.49c16.8-7.54,34-14.04,51.59-19.47-16.79,7.55-34,14.03-51.59,19.47h0Z"/>
    <path class="cls-4" d="M349.47,147.15c1.96,4.91,2.86,10.23,2.59,15.52-1.97-4.91-2.85-10.24-2.59-15.52h0Z"/>
    <path class="cls-4" d="M322.24,189.69c8.7-8.51,18.18-16.22,28.3-22.97-8.69,8.52-18.18,16.21-28.3,22.97h0Z"/>
    <path class="cls-4" d="M322.72,190.67c14.66-4.8,29.61-8.53,44.81-11.14-14.66,4.81-29.61,8.52-44.81,11.14h0Z"/>
    <path class="cls-4" d="M369.55,176.45c-8.28-42.12-15.55-84.91-21.62-127.41,8.29,42.12,15.54,84.91,21.62,127.41h0Z"/>
    <path class="cls-4" d="M353.44,210.44c-10.86-4.98-21.25-10.98-30.98-17.91,10.86,4.97,21.24,10.98,30.98,17.91h0Z"/>
    <path class="cls-4" d="M372.38,178.24c12.94-4.8,26.26-8.55,39.81-11.17-12.94,4.81-26.27,8.54-39.81,11.17h0Z"/>
    <path class="cls-4" d="M411.34,97.43c15.34,16.33,29.83,33.38,43.44,51.17-15.35-16.32-29.82-33.38-43.44-51.17h0Z"/>
    <path class="cls-4" d="M376.04,234.53c-3.05-17.58-4.99-35.29-5.8-53.12,3.06,17.58,4.98,35.29,5.8,53.12h0Z"/>
    <path class="cls-4" d="M431.39,191.32c.11,9.32-.9,18.65-3.04,27.72-.12-9.32.91-18.65,3.04-27.72h0Z"/>
    <path class="cls-4" d="M385.42,250.43c12.89-10.1,26.42-19.27,40.58-27.5-12.89,10.1-26.43,19.26-40.58,27.5h0Z"/>
    <path class="cls-4" d="M384.87,249.85c14.2-20.36,29.28-40.04,45.27-59.03-14.19,20.37-29.29,40.04-45.27,59.03h0Z"/>
    <path class="cls-4" d="M480.61,248.26c-31.42,2.27-63.26,3.45-94.76,3.49,31.42-2.28,63.26-3.44,94.76-3.49h0Z"/>
    <path class="cls-4" d="M481.47,246.28c-16.9-17.78-32.97-36.29-48.17-55.55,16.91,17.77,32.96,36.3,48.17,55.55h0Z"/>
    <path class="cls-4" d="M383.95,254.27c2.64,6.01,4.23,12.46,4.67,19.01-2.64-6.01-4.22-12.46-4.67-19.01h0Z"/>
    <path class="cls-4" d="M434.06,281.68c-14.24-.76-28.42-2.64-42.36-5.64,14.24.75,28.42,2.65,42.36,5.64h0Z"/>
    <path class="cls-4" d="M428.42,224.01c3.7,18.35,6.3,36.86,7.77,55.52-3.71-18.35-6.3-36.86-7.77-55.52h0Z"/>
    <path class="cls-4" d="M437.98,284.07c2.77,2,4.82,4.92,5.75,8.22-2.78-2-4.82-4.92-5.75-8.22h0Z"/>
    <path class="cls-4" d="M391.71,300.02c16.87-2.93,33.86-4.75,50.97-5.43-16.86,2.94-33.86,4.74-50.97,5.43h0Z"/>
    <path class="cls-4" d="M389.22,278.21c1.12,6.46,1.13,13.11,0,19.57-1.13-6.46-1.12-13.11,0-19.57h0Z"/>
    <path class="cls-4" d="M446.72,296.3c13.25,14.94,25.63,30.57,37.11,46.91-13.26-14.93-25.62-30.58-37.11-46.91h0Z"/>
    <path class="cls-4" d="M444.68,321.6c-8.2,5.59-17.03,10.25-26.28,13.84,8.2-5.6,17.03-10.24,26.28-13.84h0Z"/>
    <path class="cls-4" d="M418.67,336.92c21.54,1.53,42.96,4.17,64.22,7.94-21.55-1.52-42.96-4.18-64.22-7.94h0Z"/>
    <path class="cls-4" d="M446.84,322.94c.87,12.5.62,25.08-.77,37.54-.88-12.5-.61-25.08.77-37.54h0Z"/>
    <path class="cls-4" d="M448.3,361.95c11.1-6.26,22.76-11.54,34.79-15.75-11.1,6.27-22.76,11.54-34.79,15.75h0Z"/>
    <path class="cls-4" d="M527.16,426.65c-24.3-6.98-48.56-15.11-72.15-24.22,24.3,6.97,48.56,15.12,72.15,24.22h0Z"/>
    <path class="cls-4" d="M417.41,338.8c12.31,19.67,23.66,39.88,34,60.66-12.32-19.66-23.65-39.89-34-60.66h0Z"/>
    <path class="cls-4" d="M453.89,399.47c9.1-17.94,19.17-35.33,30.23-52.13-9.09,17.95-19.18,35.32-30.23,52.13h0Z"/>
    <path class="cls-4" d="M450.46,400.39c-27.55-14.52-54.88-30.2-81.31-46.66,27.55,14.52,54.87,30.21,81.31,46.66h0Z"/>
    <path class="cls-4" d="M389.65,384.96c-7.99-9.47-15.11-19.66-21.24-30.43,7.99,9.47,15.1,19.67,21.24,30.43h0Z"/>
    <path class="cls-4" d="M415.06,338.85c-6.61,15.8-14.23,31.12-22.87,45.92,6.6-15.81,14.24-31.12,22.87-45.92h0Z"/>
    <path class="cls-4" d="M434.97,453.37c-15.04-20.71-29.34-42.32-42.51-64.27,15.05,20.71,29.33,42.32,42.51,64.27h0Z"/>
    <path class="cls-4" d="M437.08,453.06c3.87-16.66,8.8-33.02,14.83-49.03-3.86,16.67-8.81,33.01-14.83,49.03h0Z"/>
    <path class="cls-4" d="M527.13,428.17c-29.02,9.89-58.72,18.82-88.38,26.57,29.02-9.9,58.72-18.82,88.38-26.57h0Z"/>
    <path class="cls-4" d="M399.52,434.53c-3.77-14.82-6.45-29.84-8-45.05,3.78,14.81,6.44,29.84,8,45.05h0Z"/>
    <path class="cls-4" d="M450.55,403.03c-15.54,11.79-31.71,22.65-48.51,32.57,15.54-11.8,31.72-22.65,48.51-32.57h0Z"/>
    <path class="cls-4" d="M402.57,467.03c-1.92-9.04-2.73-18.3-2.39-27.54,1.92,9.04,2.72,18.31,2.39,27.54h0Z"/>
    <path class="cls-4" d="M337.24,379.98c20.95,17.54,41.42,36.13,60.87,55.33-20.96-17.53-41.41-36.14-60.87-55.33h0Z"/>
    <path class="cls-4" d="M365.04,354.06c-8.5,8.4-17.78,16-27.71,22.64,8.49-8.4,17.79-15.99,27.71-22.64h0Z"/>
    <path class="cls-4" d="M388.61,386.62c-17.09-1.54-34.01-4.18-50.75-7.95,17.09,1.53,34.01,4.19,50.75,7.95h0Z"/>
    <path class="cls-4" d="M389.22,388.68c-12.69,12.9-26.13,24.97-40.33,36.19,12.68-12.91,26.14-24.97,40.33-36.19h0Z"/>
    <path class="cls-4" d="M322.6,383.75c2.96-2.49,6.64-4.06,10.49-4.47-2.96,2.49-6.64,4.06-10.49,4.47h0Z"/>
    <path class="cls-4" d="M398.31,438.88c-17.54,21.78-36.16,43.1-55.39,63.4,17.54-21.78,36.16-43.09,55.39-63.4h0Z"/>
    <path class="cls-4" d="M326.33,508.35c3.79-2.23,8.14-3.46,12.54-3.51-3.79,2.24-8.14,3.45-12.54,3.51h0Z"/>
    <path class="cls-4" d="M308.63,512.86c3.93-2.15,8.38-3.27,12.86-3.22-3.93,2.15-8.38,3.26-12.86,3.22h0Z"/>
    <path class="cls-4" d="M320.02,387.22c-3.39,41.21-7.93,82.79-13.55,123.76,3.38-41.22,7.94-82.79,13.55-123.76h0Z"/>
    <path class="cls-4" d="M317.81,385.03c-11.67,2.55-23.58,3.99-35.53,4.29,11.67-2.55,23.58-3.99,35.53-4.29h0Z"/>
    <path class="cls-4" d="M261.13,455.16c4.91-21.35,10.9-42.4,17.98-63.13-4.9,21.35-10.91,42.39-17.98,63.13h0Z"/>
    <path class="cls-4" d="M262.03,459.5c15.07,16.63,29.27,33.97,42.59,52.02-15.07-16.62-29.26-33.97-42.59-52.02h0Z"/>
    <path class="cls-4" d="M257.6,408c-1.68-6.78-2.26-13.82-1.69-20.78,1.69,6.78,2.25,13.82,1.69,20.78h0Z"/>
    <path class="cls-4" d="M229.68,425.91c7.28-13.62,15.5-26.65,24.69-39.06-7.27,13.62-15.51,26.65-24.69,39.06h0Z"/>
    <path class="cls-4" d="M230.49,426.75c7.78-5.94,16.23-10.97,25.16-14.97-7.77,5.94-16.23,10.97-25.16,14.97h0Z"/>
    <path class="cls-4" d="M253.4,383.75c-3.85-.42-7.53-1.98-10.49-4.47,3.85.41,7.53,1.99,10.49,4.47h0Z"/>
    <path class="cls-4" d="M256.63,408.29c-5.92-8.7-10.91-18.03-14.84-27.79,5.93,8.7,10.9,18.03,14.84,27.79h0Z"/>
    <path class="cls-4" d="M238.44,377.04c-1.28.52-2.59-.23-2.77-1.6,1.29-.52,2.58.23,2.77,1.6h0Z"/>
    <path class="cls-4" d="M226.84,426.02c-7.45-8.09-14.08-16.94-19.73-26.38,7.46,8.09,14.07,16.94,19.73,26.38h0Z"/>
    <path class="cls-4" d="M238.42,379.5c-9.63,6.61-19.89,12.29-30.61,16.92,9.62-6.62,19.89-12.28,30.61-16.92h0Z"/>
    <path class="cls-4" d="M231.57,372.59c-5.72-3.22-10.87-7.42-15.15-12.39,5.72,3.21,10.86,7.42,15.15,12.39h0Z"/>
    <path class="cls-4" d="M147.54,403c20.91-15.2,42.71-29.66,64.85-43-20.9,15.21-42.71,29.66-64.85,43h0Z"/>
    <path class="cls-4" d="M178.67,408.31c-10.34-.09-20.66-1.3-30.73-3.63,10.34.08,20.66,1.31,30.73,3.63h0Z"/>
    <path class="cls-4" d="M212.89,356.68c-3.21-2.15-5.75-5.24-7.21-8.83,3.22,2.15,5.74,5.25,7.21,8.83h0Z"/>
    <path class="cls-4" d="M203.23,348.27c-6.02,19.71-13.08,39.05-21.22,57.99,6.01-19.72,13.09-39.04,21.22-57.99h0Z"/>
    <path class="cls-4" d="M202.84,343.75c-2.83-2.64-4.84-6.1-5.71-9.87,2.83,2.64,4.83,6.1,5.71,9.87h0Z"/>
    <path class="cls-4" d="M126.08,349.7c22.17-6.88,44.63-12.67,67.37-17.36-22.17,6.89-44.64,12.67-67.37,17.36h0Z"/>
    <path class="cls-4" d="M144.51,402.07c-7.68-16.05-14.34-32.52-19.93-49.41,7.69,16.04,14.33,32.53,19.93,49.41h0Z"/>
    <path class="cls-4" d="M121.99,348.45c-3.12-1.83-5.62-4.64-7.05-7.97,3.13,1.83,5.61,4.65,7.05,7.97h0Z"/>
    <path class="cls-4" d="M46.46,336.34c10.19-8.19,21.08-15.51,32.53-21.82-10.19,8.2-21.09,15.5-32.53,21.82h0Z"/>
    <path class="cls-4" d="M111.32,337.05c-10.1-6.55-19.59-14.05-28.29-22.37,10.11,6.55,19.58,14.05,28.29,22.37h0Z"/>
    <path class="cls-4" d="M195.27,329.28c-3.93-11.28-6.81-22.93-8.55-34.75,3.94,11.28,6.8,22.93,8.55,34.75h0Z"/>
    <path class="cls-4" d="M116,281.35c22.72,2.35,45.28,5.8,67.66,10.38-22.72-2.34-45.28-5.81-67.66-10.38h0Z"/>
    <path class="cls-4" d="M111.75,282.73c-8.82,10.32-18.49,19.92-28.9,28.63,8.81-10.33,18.5-19.91,28.9-28.63h0Z"/>
    <path class="cls-4" d="M113.29,336.1c-1.05-17.55-.99-35.1.22-52.63,1.06,17.55.98,35.1-.22,52.63h0Z"/>
    <path class="cls-4" d="M43.55,258.79c22.87,6.07,45.4,13.2,67.59,21.43-22.87-6.06-45.4-13.21-67.59-21.43h0Z"/>
    <path class="cls-4" d="M44.28,335.23c-2.13-24.85-3.14-49.76-3.01-74.7,2.14,24.85,3.13,49.76,3.01,74.7h0Z"/>
    <path class="cls-4" d="M115.21,279.12c5.34-7.53,11.59-14.4,18.6-20.4-5.33,7.53-11.6,14.39-18.6,20.4h0Z"/>
    <path class="cls-4" d="M186.53,289.63c.79-11.92,2.7-23.76,5.72-35.32-.78,11.92-2.71,23.76-5.72,35.32h0Z"/>
    <path class="cls-4" d="M134.29,215.38c19.34,10.76,38.09,22.46,56.24,35.13-19.35-10.75-38.09-22.47-56.24-35.13h0Z"/>
    <path class="cls-4" d="M135.3,254.37c-2.1-12.49-3.1-25.16-2.94-37.82,2.11,12.49,3.09,25.16,2.94,37.82h0Z"/>
    <path class="cls-4" d="M118.69,172.37c-14.7-1.63-29.28-4.37-43.56-8.23,14.7,1.62,29.28,4.38,43.56,8.23h0Z"/>
    <path class="cls-4" d="M134.67,214.16c25.7-.08,51.69.96,77.31,3.12-25.7.09-51.69-.97-77.31-3.12h0Z"/>
    <path class="cls-4" d="M193.99,249.72c5.41-10.65,11.82-20.79,19.14-30.23-5.4,10.66-11.83,20.79-19.14,30.23h0Z"/>
    <path class="cls-4" d="M160.19,181.16c-1.29-20.47-1.47-40.95-.5-61.43,1.3,20.47,1.46,40.95.5,61.43h0Z"/>
    <path class="cls-4" d="M161.63,118.78c13.04,8.95,25.4,18.77,37.04,29.48-13.05-8.94-25.39-18.78-37.04-29.48h0Z"/>
    <path class="cls-4" d="M213.97,214.92c-5.38-20.65-9.67-41.54-12.84-62.64,5.39,20.65,9.66,41.54,12.84,62.64h0Z"/>
    <path class="cls-4" d="M216.47,215.87c6.67-6.43,14.11-12.04,22.14-16.66-6.66,6.43-14.12,12.03-22.14,16.66h0Z"/>
    <path class="cls-4" d="M239.86,195.32c-8.97-24.75-16.98-50.16-23.81-75.58,8.98,24.75,16.97,50.16,23.81,75.58h0Z"/>
    <path class="cls-4" d="M214.26,119.63c-3.16,9.73-7.39,19.11-12.61,27.92,3.15-9.74,7.39-19.11,12.61-27.92h0Z"/>
    <path class="cls-4" d="M242.95,196.82c5.65-3.34,11.86-5.71,18.3-6.94-5.64,3.35-11.86,5.7-18.3,6.94h0Z"/>
    <path class="cls-4" d="M202.75,151.15c20.17,11.22,39.75,23.38,58.72,36.52-20.17-11.21-39.74-23.39-58.72-36.52h0Z"/>
    <path class="cls-4" d="M264.09,143.54c.97,14.3.82,28.68-.46,42.95-.98-14.3-.82-28.67.46-42.95h0Z"/>
    <path class="cls-4" d="M217.55,118.44c15.26,6.15,30.04,13.31,44.32,21.5-15.26-6.14-30.04-13.32-44.32-21.5h0Z"/>
    <path class="cls-4" d="M191.57,249.58c-11.11-20.73-21.22-41.95-30.29-63.65,11.12,20.73,21.21,41.95,30.29,63.65h0Z"/>
    <path class="cls-4" d="M198.71,151.44c-11.47,11.07-23.66,21.29-36.58,30.62,11.46-11.07,23.66-21.28,36.58-30.62h0Z"/>
    <path class="cls-4" d="M131.52,211.64c-4.32-11.81-7.59-24-9.72-36.39,4.33,11.8,7.58,24,9.72,36.39h0Z"/>
    <path class="cls-4" d="M122.57,170.77c10.96-17.8,22.85-34.97,35.67-51.49-10.96,17.81-22.86,34.97-35.67,51.49h0Z"/>
    <path class="cls-4" d="M416.94,165.51c11.94-5.75,24.37-10.48,37.12-14.11-11.94,5.76-24.38,10.47-37.12,14.11h0Z"/>
  </g>
  <g id="dots">
    <circle class="cls-1" cx="288" cy="145.48" r="5.26"/>
    <circle class="cls-4" cx="277.91" cy="163.04" r="5.26"/>
    <circle class="cls-4" cx="264.12" cy="141.03" r="5.26"/>
    <circle class="cls-4" cx="263.6" cy="188.99" r="5.26"/>
    <circle class="cls-4" cx="222.11" cy="90.64" r="5.26"/>
    <circle class="cls-4" cx="215.29" cy="117.35" r="5.26"/>
    <circle class="cls-4" cx="240.61" cy="197.71" r="5.26"/>
    <circle class="cls-4" cx="200.57" cy="149.74" r="5.26"/>
    <circle class="cls-4" cx="159.67" cy="117.23" r="5.26"/>
    <circle class="cls-4" cx="188.61" cy="175.81" r="5.26"/>
    <circle class="cls-4" cx="214.47" cy="217.38" r="5.26"/>
    <circle class="cls-4" cx="160.21" cy="183.66" r="5.26"/>
    <circle class="cls-4" cx="121.15" cy="172.83" r="5.26"/>
    <circle class="cls-4" cx="72.66" cy="163.68" r="5.26"/>
    <circle class="cls-4" cx="132.16" cy="214.05" r="5.26"/>
    <circle class="cls-4" cx="192.65" cy="251.84" r="5.26"/>
    <circle class="cls-4" cx="163.79" cy="252.02" r="5.26"/>
    <circle class="cls-4" cx="135.5" cy="256.87" r="5.26"/>
    <circle class="cls-4" cx="41.16" cy="258.03" r="5.26"/>
    <circle class="cls-4" cx="113.52" cy="280.97" r="5.26"/>
    <circle class="cls-4" cx="186.13" cy="292.11" r="5.26"/>
    <circle class="cls-4" cx="81.07" cy="313.13" r="5.26"/>
    <circle class="cls-4" cx="44.38" cy="337.74" r="5.26"/>
    <circle class="cls-4" cx="113.28" cy="338.61" r="5.26"/>
    <circle class="cls-4" cx="123.65" cy="350.33" r="5.26"/>
    <circle class="cls-4" cx="195.87" cy="331.72" r="5.26"/>
    <circle class="cls-4" cx="96.68" cy="398.46" r="5.26"/>
    <circle class="cls-4" cx="204.09" cy="345.92" r="5.26"/>
    <circle class="cls-4" cx="145.45" cy="404.39" r="5.26"/>
    <circle class="cls-4" cx="214.47" cy="358.62" r="5.26"/>
    <circle class="cls-4" cx="181.15" cy="408.61" r="5.26"/>
    <circle class="cls-4" cx="205.62" cy="397.63" r="5.26"/>
    <circle class="cls-4" cx="233.5" cy="374.18" r="5.26"/>
    <circle class="cls-4" cx="240.61" cy="378.29" r="5.26"/>
    <circle class="cls-4" cx="228.34" cy="428.03" r="5.26"/>
    <circle class="cls-4" cx="255.71" cy="384.73" r="5.26"/>
    <circle class="cls-4" cx="257.81" cy="410.5" r="5.26"/>
    <circle class="cls-4" cx="260.44" cy="457.57" r="5.26"/>
    <circle class="cls-4" cx="279.8" cy="389.63" r="5.26"/>
    <circle class="cls-4" cx="288" cy="419.87" r="5.26"/>
    <circle class="cls-4" cx="306.2" cy="513.47" r="5.26"/>
    <circle class="cls-4" cx="323.92" cy="509.02" r="5.26"/>
    <circle class="cls-4" cx="341.28" cy="504.16" r="5.26"/>
    <circle class="cls-4" cx="320.29" cy="384.73" r="5.26"/>
    <circle class="cls-4" cx="347.03" cy="426.54" r="5.26"/>
    <circle class="cls-4" cx="335.39" cy="378.29" r="5.26"/>
    <circle class="cls-4" cx="402.79" cy="469.52" r="5.26"/>
    <circle class="cls-4" cx="399.96" cy="436.99" r="5.26"/>
    <circle class="cls-4" cx="436.35" cy="455.45" r="5.26"/>
    <circle class="cls-4" cx="391.08" cy="387.01" r="5.26"/>
    <circle class="cls-4" cx="366.97" cy="352.48" r="5.26"/>
    <circle class="cls-4" cx="452.63" cy="401.64" r="5.26"/>
    <circle class="cls-4" cx="529.53" cy="427.45" r="5.26"/>
    <circle class="cls-4" cx="446.02" cy="362.98" r="5.26"/>
    <circle class="cls-4" cx="416.18" cy="336.61" r="5.26"/>
    <circle class="cls-4" cx="485.37" cy="345.17" r="5.26"/>
    <circle class="cls-4" cx="446.89" cy="320.44" r="5.26"/>
    <circle class="cls-4" cx="389.22" cy="300.29" r="5.26"/>
    <circle class="cls-4" cx="445.16" cy="294.33" r="5.26"/>
    <circle class="cls-4" cx="436.54" cy="282.01" r="5.26"/>
    <circle class="cls-4" cx="389.22" cy="275.71" r="5.26"/>
    <circle class="cls-4" cx="483.11" cy="248.17" r="5.26"/>
    <circle class="cls-4" cx="498.42" cy="227.05" r="5.26"/>
    <circle class="cls-4" cx="383.35" cy="251.84" r="5.26"/>
    <circle class="cls-4" cx="428.08" cy="221.53" r="5.26"/>
    <circle class="cls-4" cx="376.31" cy="237.02" r="5.26"/>
    <circle class="cls-4" cx="431.67" cy="188.83" r="5.26"/>
    <circle class="cls-4" cx="456.4" cy="150.5" r="5.26"/>
    <circle class="cls-4" cx="414.6" cy="166.4" r="5.26"/>
    <circle class="cls-4" cx="355.61" cy="211.69" r="5.26"/>
    <circle class="cls-4" cx="369.97" cy="178.92" r="5.26"/>
    <circle class="cls-4" cx="409.72" cy="95.52" r="5.26"/>
    <circle class="cls-4" cx="352.48" cy="165.14" r="5.26"/>
    <circle class="cls-4" cx="349.06" cy="144.68" r="5.26"/>
    <circle class="cls-4" cx="320.29" cy="191.27" r="5.26"/>
    <circle class="cls-4" cx="347.51" cy="46.58" r="5.26"/>
    <circle class="cls-4" cx="311.77" cy="141.73" r="5.26"/>
    <circle class="cls-4" cx="296.2" cy="186.37" r="5.26"/>
  </g>
  <g id="letters">
    <g>
      <path class="cls-2" d="M285.35,143.5v-1.14h5.31v1.14h-5.31ZM287.36,148.74v-6.39h1.3v6.39h-1.3Z"/>
      <path class="cls-2" d="M285.35,143.5v-1.14h5.31v1.14h-5.31ZM287.36,148.74v-6.39h1.3v6.39h-1.3Z"/>
    </g>
    <path class="cls-2" d="M293.53,189.69v-6.39h1.3v6.39h-1.3ZM293.92,187.05v-1.14h4.28v1.14h-4.28ZM297.59,189.69v-6.39h1.3v6.39h-1.3Z"/>
    <path class="cls-2" d="M309.64,144.99v-6.39h1.3v6.39h-1.3ZM309.83,139.71v-1.11h4.41v1.11h-4.41ZM309.83,142.24v-.95h4.12v.95h-4.12ZM309.83,144.99v-1.11h4.41v1.11h-4.41Z"/>
    <path class="cls-2" d="M317.71,194.53v-6.39h1.3v6.39h-1.3ZM318.35,194.53v-1.06h1.77c.33,0,.61-.05.85-.15.24-.1.43-.24.58-.43.15-.19.26-.41.33-.67.07-.26.11-.55.11-.87,0-.45-.07-.83-.2-1.15-.13-.32-.34-.56-.62-.74-.28-.17-.62-.26-1.04-.26h-1.47v-1.06h1.51c.68,0,1.25.12,1.72.37s.82.61,1.06,1.09c.24.48.36,1.06.36,1.75,0,.46-.06.89-.18,1.27-.12.39-.31.72-.56,1.01-.25.29-.58.51-.98.66-.4.16-.89.23-1.45.23h-1.79Z"/>
    <path class="cls-2" d="M345.93,147.94v-.27l2.53-6.12h1.21l2.51,6.1v.29h-1.28l-1.91-4.87-.03-.42h.19l-.04.42-1.93,4.87h-1.26ZM347.3,146.8v-.94h3.64v.94h-3.64Z"/>
    <path class="cls-2" d="M352.03,166.49l-2.51-4.17v-.31h1.24l1.76,3.12.04.23h-.14l.03-.23,1.77-3.12h1.22v.31l-2.49,4.16h-.92ZM351.85,168.4v-2.75h1.28v2.75s-1.28,0-1.28,0Z"/>
    <path class="cls-2" d="M367.37,182.18l-1.15-6.1v-.29h1.26l.88,4.54-.14,1.85h-.85ZM367.43,182.18l.41-1.22,1.92-4.18h.56l1.93,4.19.37,1.21h-.93l-1.68-3.51-.17-.5h.39l-.18.5-1.69,3.51h-.92ZM371.83,182.18l-.13-1.85.89-4.54h1.26v.29l-1.17,6.1h-.85Z"/>
    <path class="cls-2" d="M354.96,214.95v-6.39h1.3v6.39h-1.3Z"/>
    <path class="cls-2" d="M411.95,164.41v-1.14h5.31v1.14h-5.31ZM413.96,169.66v-6.39h1.3v6.39h-1.3Z"/>
    <path class="cls-2" d="M453.73,153.76v-6.39h1.3v6.39h-1.3ZM454.12,151.12v-1.14h4.28v1.14h-4.28ZM457.79,153.76v-6.39h1.3v6.39h-1.3Z"/>
    <path class="cls-2" d="M425.42,219.55v-1.14h5.31v1.14h-5.31ZM427.44,224.79v-6.39h1.3v6.39h-1.3Z"/>
    <path class="cls-2" d="M375.66,240.28v-6.39h1.3v6.39h-1.3Z"/>
    <path class="cls-2" d="M383.17,255.2c-.4,0-.78-.02-1.16-.07-.38-.05-.74-.12-1.1-.21l.22-1c.32.08.65.14.99.18s.67.07,1,.07c.36,0,.65-.04.86-.11.22-.07.37-.17.46-.3s.14-.28.14-.46c0-.1-.02-.2-.05-.28-.03-.09-.08-.16-.15-.23-.07-.06-.15-.12-.24-.16s-.2-.08-.33-.11l-1.31-.34c-.2-.05-.39-.11-.58-.19-.19-.08-.36-.19-.5-.32-.15-.13-.27-.3-.36-.5-.09-.19-.13-.43-.13-.7,0-.41.11-.75.33-1.03s.53-.48.93-.63c.4-.14.87-.21,1.41-.21.34,0,.69.02,1.04.06.35.04.69.1,1.02.19l-.22,1c-.19-.05-.38-.09-.57-.12-.19-.03-.39-.06-.59-.08-.2-.02-.4-.03-.61-.03-.29,0-.55.03-.76.08-.21.05-.37.14-.49.26-.11.12-.17.28-.17.49,0,.13.02.24.07.33.04.09.11.17.19.23s.18.1.29.13l1.61.38c.23.05.44.12.62.22.18.1.34.21.46.36s.22.31.3.5c.07.2.11.43.11.7,0,.41-.11.76-.32,1.04-.22.28-.53.49-.94.64-.41.14-.9.22-1.48.22Z"/>
    <path class="cls-2" d="M386.08,278.97v-.27l2.53-6.12h1.21l2.51,6.1v.29h-1.28l-1.91-4.87-.03-.42h.19l-.04.42-1.93,4.87h-1.26ZM387.45,277.83v-.94h3.64v.94h-3.64Z"/>
    <path class="cls-2" d="M484.01,251.53c-.54,0-1.02-.07-1.44-.21-.42-.14-.77-.35-1.05-.63s-.5-.62-.65-1.02c-.15-.41-.23-.87-.23-1.39,0-.57.08-1.06.24-1.48s.39-.76.69-1.04c.3-.28.66-.48,1.08-.62.42-.13.88-.2,1.4-.2.27,0,.54.01.8.04.26.03.51.08.74.14l-.21,1.07c-.19-.04-.39-.07-.6-.09-.21-.02-.42-.03-.63-.03-.35,0-.67.05-.94.14-.28.1-.51.24-.69.43-.19.19-.33.42-.42.69s-.14.59-.14.94c0,.33.05.63.14.89.09.26.23.48.41.67.18.18.41.32.68.42.27.1.59.14.94.14.22,0,.43-.01.65-.03.22-.02.44-.06.67-.11l.21,1.08c-.25.07-.51.12-.78.15-.27.03-.56.05-.86.05Z"/>
    <path class="cls-2" d="M434.03,285.28v-6.39h1.3v6.39h-1.3ZM434.41,283.04v-.96h3.36l-.18.96h-3.18ZM437.68,282.93l-.56-.81c.3-.1.54-.24.73-.45.19-.2.28-.46.28-.76s-.09-.55-.27-.72c-.18-.17-.43-.25-.76-.25h-2.06v-1.05h2.19c.49,0,.89.08,1.21.24.32.16.57.38.73.67.16.29.25.62.25,1,0,.34-.07.64-.22.91-.15.27-.35.51-.61.71-.26.2-.57.37-.91.51ZM438.19,285.28l-1.77-2.75,1.52-.08,1.54,2.53v.3h-1.29Z"/>
    <path class="cls-2" d="M443.03,297.6v-6.39h1.3v6.39h-1.3ZM443.22,292.31v-1.11h4.41v1.11h-4.41ZM443.22,294.84v-.95h4.12v.95h-4.12ZM443.22,297.6v-1.11h4.41v1.11h-4.41Z"/>
    <path class="cls-2" d="M389.04,303.65c-.4,0-.78-.02-1.16-.07s-.74-.12-1.1-.21l.22-1c.32.08.65.14.99.18s.67.07,1,.07c.36,0,.65-.04.86-.11.22-.07.37-.17.46-.3s.14-.28.14-.46c0-.1-.02-.2-.05-.28-.03-.09-.08-.16-.15-.23-.07-.06-.15-.12-.24-.16s-.2-.08-.33-.11l-1.31-.34c-.2-.05-.39-.11-.58-.19-.19-.08-.36-.19-.5-.32-.15-.13-.27-.3-.36-.5-.09-.19-.13-.43-.13-.7,0-.41.11-.75.33-1.03.22-.28.53-.48.93-.63.4-.14.87-.21,1.41-.21.34,0,.69.02,1.04.06.35.04.69.11,1.02.19l-.22,1c-.19-.05-.38-.09-.57-.12-.19-.03-.39-.06-.59-.08-.2-.02-.4-.03-.61-.03-.29,0-.55.03-.76.08s-.37.14-.49.26c-.11.12-.17.28-.17.49,0,.13.02.24.07.33.04.09.11.17.19.23.08.06.18.1.29.13l1.61.38c.23.05.44.12.62.22.18.1.34.21.46.36.13.14.22.31.3.5s.11.43.11.7c0,.41-.11.76-.32,1.04s-.53.5-.94.64c-.41.14-.9.22-1.48.22Z"/>
    <path class="cls-2" d="M413.5,339.88v-6.39h.87l.39,2.03v4.37h-1.27ZM418.03,339.88l-3.76-4.73-.7-1.67h.81l3.61,4.5.81,1.89h-.77ZM418.04,339.88l-.46-2.27v-4.12h1.28v6.39h-.82Z"/>
    <path class="cls-2" d="M482.24,348.43v-.27l2.53-6.12h1.21l2.51,6.1v.29h-1.28l-1.91-4.87-.03-.42h.19l-.04.42-1.93,4.87h-1.26ZM483.61,347.29v-.94h3.64v.94h-3.64Z"/>
    <path class="cls-2" d="M443.44,366.24v-6.39h1.3v6.39h-1.3ZM444.07,366.24v-1.06h1.77c.33,0,.61-.05.85-.15.24-.1.43-.24.58-.43.15-.19.26-.41.33-.67s.11-.55.11-.87c0-.45-.07-.83-.2-1.15s-.34-.56-.62-.74c-.28-.17-.62-.26-1.04-.26h-1.47v-1.06h1.51c.68,0,1.25.12,1.72.37s.82.61,1.06,1.09.36,1.06.36,1.75c0,.46-.06.89-.18,1.27-.12.39-.31.72-.56,1.01s-.58.5-.98.66c-.4.16-.89.23-1.45.23h-1.79Z"/>
    <path class="cls-2" d="M364.85,355.74v-6.39h1.3v6.39h-1.3ZM365.04,350.46v-1.11h4.41v1.11h-4.41ZM365.04,352.99v-.95h4.12v.95h-4.12ZM365.04,355.74v-1.11h4.41v1.11h-4.41Z"/>
    <path class="cls-2" d="M388.67,390.27v-6.39h1.3v6.39h-1.3ZM389.05,388.04v-.96h3.36l-.18.96h-3.18ZM392.32,387.92l-.56-.81c.3-.1.54-.24.73-.45.19-.2.28-.46.28-.76s-.09-.55-.27-.72c-.18-.17-.43-.25-.76-.25h-2.06v-1.05h2.19c.49,0,.89.08,1.21.24.32.16.57.38.73.67.16.29.25.62.25,1,0,.34-.07.64-.22.91-.15.27-.35.51-.61.71-.26.2-.57.37-.91.51ZM392.83,390.27l-1.77-2.75,1.52-.08,1.54,2.53v.3h-1.29Z"/>
    <path class="cls-2" d="M450.19,404.9v-6.39h1.3v6.39h-1.3ZM450.92,403.14v-1.04h2.04c.28,0,.51-.05.7-.15.18-.1.32-.25.41-.44s.13-.42.13-.67-.05-.48-.14-.68c-.09-.2-.23-.35-.41-.45-.18-.11-.41-.16-.69-.16h-1.99v-1.04h2.04c.56,0,1.03.1,1.39.29.36.19.64.46.82.81.18.35.27.76.27,1.23,0,.44-.09.84-.27,1.19-.18.35-.45.62-.81.82-.37.2-.83.3-1.4.3h-2.1Z"/>
    <path class="cls-2" d="M398.09,440.25v-6.39h1.3v6.39h-1.3ZM398.28,440.25v-1.14h4.12v1.14h-4.12Z"/>
    <path class="cls-2" d="M433.91,458.72v-6.39h1.3v6.39h-1.3ZM434.65,456.96v-1.04h2.04c.28,0,.51-.05.7-.15.18-.1.32-.25.41-.44s.13-.42.13-.67-.05-.48-.14-.68c-.09-.2-.23-.35-.41-.45-.18-.11-.41-.16-.69-.16h-1.99v-1.04h2.04c.56,0,1.03.1,1.39.29.36.19.64.46.82.81.18.35.27.76.27,1.23,0,.44-.09.84-.27,1.19-.18.35-.45.62-.81.82-.37.2-.83.3-1.4.3h-2.1Z"/>
    <path class="cls-2" d="M400.66,472.78v-6.39h1.3v6.39h-1.3ZM400.85,467.5v-1.11h4.41v1.11h-4.41ZM400.85,470.03v-.95h4.12v.95h-4.12ZM400.85,472.78v-1.11h4.41v1.11h-4.41Z"/>
    <path class="cls-2" d="M340.63,507.43v-6.39h1.3v6.39h-1.3Z"/>
    <path class="cls-2" d="M321.79,512.29v-6.39h1.3v6.39h-1.3ZM321.98,507v-1.11h4.41v1.11h-4.41ZM321.98,509.53v-.95h4.12v.95h-4.12ZM321.98,512.29v-1.11h4.41v1.11h-4.41Z"/>
    <path class="cls-2" d="M306.02,516.83c-.4,0-.78-.02-1.16-.07s-.74-.12-1.1-.21l.22-1c.32.08.65.14.99.18s.67.07,1,.07c.36,0,.65-.04.86-.11.22-.07.37-.17.46-.3s.14-.28.14-.46c0-.1-.02-.2-.05-.28-.03-.09-.08-.16-.15-.23-.07-.06-.15-.12-.24-.16s-.2-.08-.33-.11l-1.31-.34c-.2-.05-.39-.11-.58-.19-.19-.08-.36-.19-.5-.32-.15-.13-.27-.3-.36-.5-.09-.19-.13-.43-.13-.7,0-.41.11-.75.33-1.03.22-.28.53-.48.93-.63.4-.14.87-.21,1.41-.21.34,0,.69.02,1.04.06.35.04.69.11,1.02.19l-.22,1c-.19-.05-.38-.09-.57-.12-.19-.03-.39-.06-.59-.08-.2-.02-.4-.03-.61-.03-.29,0-.55.03-.76.08s-.37.14-.49.26c-.11.12-.17.28-.17.49,0,.13.02.24.07.33.04.09.11.17.19.23.08.06.18.1.29.13l1.61.38c.23.05.44.12.62.22.18.1.34.21.46.36.13.14.22.31.3.5s.11.43.11.7c0,.41-.11.76-.32,1.04s-.53.5-.94.64c-.41.14-.9.22-1.48.22Z"/>
    <path class="cls-2" d="M346.38,429.81v-6.39h1.3v6.39h-1.3Z"/>
    <path class="cls-2" d="M332.46,381.55v-.31l2.36-3.2.75.83-1.84,2.69h-1.27ZM336.98,381.55l-1.76-2.4-.26-.41-.27-.32-2.13-2.94v-.31h1.34l1.65,2.29.13.26.4.48,2.25,3.04v.31h-1.33ZM335.93,378.7l-.74-.86,1.83-2.67h1.26v.31l-2.35,3.22Z"/>
    <path class="cls-2" d="M317.64,382.75v-1.14h5.31v1.14h-5.31ZM319.65,387.99v-6.39h1.3v6.39h-1.3Z"/>
    <path class="cls-2" d="M279.15,392.89v-6.39h1.3v6.39h-1.3Z"/>
    <path class="cls-2" d="M260.26,460.93c-.4,0-.78-.02-1.16-.07-.38-.05-.74-.12-1.1-.21l.22-1c.32.08.65.14.99.18s.67.07,1,.07c.36,0,.65-.04.86-.11.22-.07.37-.17.46-.3s.14-.28.14-.46c0-.1-.02-.2-.05-.28-.03-.09-.08-.16-.15-.23-.07-.06-.15-.12-.24-.16s-.2-.08-.33-.11l-1.31-.34c-.2-.05-.39-.11-.58-.19-.19-.08-.36-.19-.5-.32-.15-.13-.27-.3-.36-.5s-.13-.43-.13-.7c0-.41.11-.75.33-1.03.22-.28.53-.48.93-.63.4-.14.87-.21,1.41-.21.34,0,.69.02,1.04.06.35.04.69.1,1.02.19l-.22,1c-.19-.05-.38-.09-.57-.12-.19-.03-.39-.06-.59-.08-.2-.02-.4-.03-.61-.03-.29,0-.55.03-.76.08-.21.05-.37.14-.49.26s-.17.28-.17.49c0,.13.02.24.07.33s.11.17.19.23c.08.06.18.1.29.13l1.61.38c.23.05.44.12.62.22.18.1.34.21.46.36.13.14.22.31.3.5s.11.43.11.7c0,.41-.11.76-.32,1.04s-.53.5-.94.64c-.41.14-.9.22-1.48.22Z"/>
    <path class="cls-2" d="M225.66,431.29v-6.39h.87l.4,2.03v4.37h-1.27ZM230.19,431.29l-3.76-4.73-.7-1.67h.81l3.61,4.5.81,1.89h-.77ZM230.2,431.29l-.46-2.27v-4.12h1.28v6.39h-.82Z"/>
    <path class="cls-2" d="M253.58,387.99v-6.39h1.3v6.39h-1.3ZM253.77,382.71v-1.11h4.41v1.11h-4.41ZM253.77,385.24v-.95h4.12v.95h-4.12ZM253.77,387.99v-1.11h4.41v1.11h-4.41Z"/>
    <path class="cls-2" d="M231.38,377.44v-6.39h1.3v6.39h-1.3ZM231.56,372.16v-1.11h4.41v1.11h-4.41ZM231.56,374.69v-.95h4.12v.95h-4.12ZM231.56,377.44v-1.11h4.41v1.11h-4.41Z"/>
    <path class="cls-2" d="M211.34,361.88v-.27l2.53-6.12h1.21l2.51,6.1v.29h-1.28l-1.91-4.87-.03-.42h.19l-.04.42-1.93,4.87h-1.26ZM212.71,360.74v-.94h3.64v.94h-3.64Z"/>
    <path class="cls-2" d="M201.51,349.18v-6.39h1.3v6.39h-1.3ZM202.14,349.18v-1.06h1.77c.33,0,.61-.05.85-.15.24-.1.43-.24.58-.43.15-.19.26-.41.33-.67s.11-.55.11-.87c0-.45-.07-.83-.2-1.15s-.34-.56-.62-.74-.62-.26-1.04-.26h-1.47v-1.06h1.51c.68,0,1.25.12,1.72.37.47.25.82.61,1.06,1.09.24.48.36,1.06.36,1.75,0,.46-.06.89-.18,1.27-.12.39-.31.72-.56,1.01s-.58.5-.98.66-.88.23-1.45.23h-1.79Z"/>
    <path class="cls-2" d="M193.22,329.73v-1.14h5.31v1.14h-5.31ZM195.23,334.98v-6.39h1.3v6.39h-1.3Z"/>
    <path class="cls-2" d="M185.48,295.37v-6.39h1.3v6.39h-1.3Z"/>
    <path class="cls-2" d="M114,284.33c-.54,0-1.02-.07-1.44-.22s-.77-.36-1.05-.64c-.29-.28-.5-.63-.65-1.04s-.22-.88-.22-1.41.08-1,.24-1.4c.16-.41.39-.75.69-1.03.3-.28.67-.49,1.1-.63.44-.14.93-.21,1.49-.21.31,0,.61.02.91.05.3.04.61.1.91.18l-.23,1.03c-.25-.06-.51-.1-.77-.13s-.53-.04-.8-.04c-.38,0-.71.05-.99.14-.28.1-.52.24-.7.43-.19.19-.33.42-.42.7-.1.28-.14.59-.14.94,0,.47.08.88.23,1.21.15.33.38.58.67.76.3.17.68.26,1.14.26.16,0,.31,0,.47-.02.16-.01.31-.03.45-.06v-1.49l-1.34-.35v-.68h2.53v3.36c-.22.07-.45.12-.69.17s-.47.08-.71.1c-.24.02-.47.03-.69.03Z"/>
    <path class="cls-2" d="M38.49,261.29v-6.39h1.3v6.39h-1.3ZM38.88,258.64v-1.14h4.28v1.14h-4.28ZM42.55,261.29v-6.39h1.3v6.39h-1.3Z"/>
    <path class="cls-2" d="M132.84,254.88v-1.14h5.31v1.14h-5.31ZM134.86,260.13v-6.39h1.3v6.39h-1.3Z"/>
    <path class="cls-2" d="M192,255.1v-6.39h1.3v6.39h-1.3Z"/>
    <path class="cls-2" d="M211.88,220.64l-1.15-6.1v-.29h1.26l.88,4.54-.14,1.85h-.85ZM211.94,220.64l.41-1.22,1.92-4.18h.56l1.93,4.19.37,1.21h-.93l-1.68-3.51-.17-.5h.39l-.18.5-1.69,3.51h-.92ZM216.34,220.64l-.13-1.85.89-4.54h1.26v.29l-1.17,6.1h-.85Z"/>
    <path class="cls-2" d="M240.61,201.07c-.47,0-.89-.07-1.27-.21-.38-.14-.71-.35-.98-.62-.27-.28-.48-.62-.62-1.03-.14-.41-.22-.89-.22-1.44s.07-1.02.22-1.44c.14-.41.35-.75.62-1.03.27-.28.6-.48.98-.62.38-.14.81-.21,1.27-.21s.9.07,1.28.21c.38.14.7.35.97.62.27.28.47.62.62,1.03s.22.89.22,1.44-.07,1.02-.22,1.44c-.14.41-.35.75-.62,1.03-.27.28-.59.48-.97.62-.38.14-.8.21-1.27.21ZM240.62,200.01c.26,0,.49-.04.71-.14.22-.09.4-.23.56-.4.16-.18.28-.41.36-.69.09-.28.13-.61.13-1s-.04-.72-.13-.99-.21-.51-.36-.69-.34-.32-.56-.41c-.22-.09-.45-.13-.71-.13-.27,0-.51.05-.73.14-.22.09-.41.22-.56.41-.16.18-.28.41-.36.69s-.13.61-.13.99.04.72.13,1c.09.28.21.51.37.69.16.18.35.31.56.4.22.09.46.14.73.14Z"/>
    <path class="cls-2" d="M263.6,192.35c-.56,0-1.05-.1-1.45-.29-.4-.19-.71-.49-.92-.88s-.32-.87-.32-1.45v-3.87h1.31v3.92c0,.47.11.84.33,1.11.22.27.57.4,1.05.4s.8-.13,1.02-.4.33-.64.33-1.11v-3.92h1.31v3.87c0,.58-.1,1.06-.32,1.45s-.52.68-.92.88c-.4.19-.87.29-1.43.29Z"/>
    <path class="cls-2" d="M263.94,144.39c-.4,0-.78-.02-1.16-.07-.38-.05-.74-.12-1.1-.21l.22-1c.32.08.65.14.99.18s.67.07,1,.07c.36,0,.65-.04.86-.11.22-.07.37-.17.46-.3s.14-.28.14-.46c0-.1-.02-.2-.05-.28-.03-.09-.08-.16-.15-.23-.07-.06-.15-.12-.24-.16s-.2-.08-.33-.11l-1.31-.34c-.2-.05-.39-.11-.58-.19-.19-.08-.36-.19-.5-.32-.15-.13-.27-.3-.36-.5-.09-.19-.13-.43-.13-.7,0-.41.11-.75.33-1.03s.53-.48.93-.63c.4-.14.87-.21,1.41-.21.34,0,.69.02,1.04.06.35.04.69.1,1.02.19l-.22,1c-.19-.05-.38-.09-.57-.12-.19-.03-.39-.06-.59-.08-.2-.02-.4-.03-.61-.03-.29,0-.55.03-.76.08-.21.05-.37.14-.49.26-.11.12-.17.28-.17.49,0,.13.02.24.07.33.04.09.11.17.19.23s.18.1.29.13l1.61.38c.23.05.44.12.62.22.18.1.34.21.46.36s.22.31.3.5c.07.2.11.43.11.7,0,.41-.11.76-.32,1.04-.22.28-.53.49-.94.64-.41.14-.9.22-1.48.22Z"/>
    <path class="cls-2" d="M131.98,217.42c-.4,0-.78-.02-1.16-.07-.38-.05-.74-.12-1.1-.21l.22-1c.32.08.65.14.99.18s.67.07,1,.07c.36,0,.65-.04.86-.11.22-.07.37-.17.46-.3s.14-.28.14-.46c0-.1-.02-.2-.05-.28-.03-.09-.08-.16-.15-.23-.07-.06-.15-.12-.24-.16s-.2-.08-.33-.11l-1.31-.34c-.2-.05-.39-.11-.58-.19-.19-.08-.36-.19-.5-.32-.15-.13-.27-.3-.36-.5-.09-.19-.13-.43-.13-.7,0-.41.11-.75.33-1.03s.53-.48.93-.63c.4-.14.87-.21,1.41-.21.34,0,.69.02,1.04.06.35.04.69.1,1.02.19l-.22,1c-.19-.05-.38-.09-.57-.12-.19-.03-.39-.06-.59-.08-.2-.02-.4-.03-.61-.03-.29,0-.55.03-.76.08-.21.05-.37.14-.49.26-.11.12-.17.28-.17.49,0,.13.02.24.07.33.04.09.11.17.19.23s.18.1.29.13l1.61.38c.23.05.44.12.62.22.18.1.34.21.46.36s.22.31.3.5c.07.2.11.43.11.7,0,.41-.11.76-.32,1.04-.22.28-.53.49-.94.64-.41.14-.9.22-1.48.22Z"/>
    <path class="cls-2" d="M160.21,187.02c-.47,0-.89-.07-1.27-.21-.38-.14-.71-.35-.98-.62-.27-.28-.48-.62-.62-1.03-.14-.41-.22-.89-.22-1.44s.07-1.02.22-1.44c.14-.41.35-.75.62-1.03.27-.28.6-.48.98-.62.38-.14.81-.21,1.27-.21s.9.07,1.28.21c.38.14.7.35.97.62.27.28.47.62.62,1.03s.22.89.22,1.44-.07,1.02-.22,1.44c-.14.41-.35.75-.62,1.03-.27.28-.59.48-.97.62-.38.14-.8.21-1.27.21ZM160.22,185.96c.26,0,.49-.04.71-.14.22-.09.4-.23.56-.4.16-.18.28-.41.36-.69.09-.28.13-.61.13-1s-.04-.72-.13-.99-.21-.51-.36-.69-.34-.32-.56-.41c-.22-.09-.45-.13-.71-.13-.27,0-.51.05-.73.14-.22.09-.41.22-.56.41-.16.18-.28.41-.36.69s-.13.61-.13.99.04.72.13,1c.09.28.21.51.37.69.16.18.35.31.56.4.22.09.46.14.73.14Z"/>
    <path class="cls-2" d="M198.13,153v-6.39h1.3v6.39h-1.3ZM198.87,151.25v-1.04h2.04c.28,0,.51-.05.7-.15.18-.1.32-.25.41-.44.09-.19.13-.42.13-.68s-.05-.48-.14-.68c-.09-.2-.23-.35-.41-.45-.18-.11-.41-.16-.69-.16h-1.99v-1.04h2.04c.56,0,1.03.1,1.39.29.36.19.64.46.82.81.18.35.27.76.27,1.23,0,.44-.09.84-.27,1.19-.18.35-.45.62-.81.82-.37.2-.83.3-1.4.3h-2.1Z"/>
    <path class="cls-2" d="M212.62,120.61v-6.39h.87l.4,2.02v4.37h-1.27ZM217.14,120.61l-3.76-4.73-.7-1.67h.81l3.61,4.5.81,1.89h-.77ZM217.15,120.61l-.46-2.27v-4.12h1.28v6.39h-.82Z"/>
    <path class="cls-2" d="M118.47,176.09v-6.39h.87l.4,2.02v4.37h-1.27ZM123,176.09l-3.76-4.73-.7-1.67h.81l3.61,4.5.81,1.89h-.77ZM123.01,176.09l-.46-2.27v-4.12h1.28v6.39h-.82Z"/>
    <path class="cls-2" d="M159.68,120.59c-.56,0-1.05-.1-1.45-.29-.4-.19-.71-.49-.92-.88s-.32-.87-.32-1.45v-3.87h1.31v3.92c0,.47.11.84.33,1.11.22.27.57.4,1.05.4s.8-.13,1.02-.4.33-.64.33-1.11v-3.92h1.31v3.87c0,.58-.1,1.06-.32,1.45s-.52.68-.92.88c-.4.19-.87.29-1.43.29Z"/>
    <path class="cls-2" d="M120.97,353.59v-6.39h1.3v6.39h-1.3ZM121.37,350.95v-1.14h4.28v1.14h-4.28ZM125.03,353.59v-6.39h1.3v6.39h-1.3Z"/>
    <path class="cls-2" d="M111.15,341.87v-6.39h1.3v6.39h-1.3ZM111.34,336.59v-1.11h4.41v1.11h-4.41ZM111.34,339.12v-.95h4.12v.95h-4.12ZM111.34,341.87v-1.11h4.41v1.11h-4.41Z"/>
    <path class="cls-2" d="M78.39,316.39v-6.39h.87l.4,2.02v4.37h-1.27ZM82.92,316.39l-3.76-4.72-.7-1.67h.81l3.61,4.5.81,1.89h-.77ZM82.92,316.39l-.46-2.27v-4.12h1.28v6.39h-.82Z"/>
    <path class="cls-2" d="M238.03,381.55v-6.39h1.3v6.39h-1.3ZM238.67,381.55v-1.06h1.77c.33,0,.61-.05.85-.15.24-.1.43-.24.58-.43.15-.19.26-.41.33-.67s.11-.55.11-.87c0-.45-.07-.83-.2-1.15s-.34-.56-.62-.74c-.28-.17-.62-.26-1.04-.26h-1.47v-1.06h1.51c.68,0,1.25.12,1.72.37s.82.61,1.06,1.09.36,1.06.36,1.75c0,.46-.06.89-.18,1.27-.12.39-.31.72-.56,1.01s-.58.5-.98.66c-.4.16-.89.23-1.45.23h-1.79Z"/>
    <path class="cls-2" d="M203.03,400.89v-6.39h1.3v6.39h-1.3ZM203.67,400.89v-1.06h1.77c.33,0,.61-.05.85-.15.24-.1.43-.24.58-.43.15-.19.26-.41.33-.67s.11-.55.11-.87c0-.45-.07-.83-.2-1.15s-.34-.56-.62-.74c-.28-.17-.62-.26-1.04-.26h-1.47v-1.06h1.51c.68,0,1.25.12,1.72.37s.82.61,1.06,1.09.36,1.06.36,1.75c0,.46-.06.89-.18,1.27-.12.39-.31.72-.56,1.01s-.58.5-.98.66c-.4.16-.89.23-1.45.23h-1.79Z"/>
    <path class="cls-2" d="M142.77,407.65v-6.39h.87l.4,2.03v4.37h-1.27ZM147.3,407.65l-3.76-4.73-.7-1.67h.81l3.61,4.5.81,1.89h-.77ZM147.31,407.65l-.46-2.27v-4.12h1.28v6.39h-.82Z"/>
  </g>
  <g id="spaces">
    <path class="cls-2" d="M345.66,50.2v-.84h3.7v.84h-3.7Z"/>
    <path class="cls-2" d="M407.87,99.14v-.84h3.7v.84h-3.7Z"/>
    <path class="cls-2" d="M429.82,192.46v-.84h3.7v.84h-3.7Z"/>
    <path class="cls-2" d="M496.57,230.67v-.84h3.7v.84h-3.7Z"/>
    <path class="cls-2" d="M445.04,324.06v-.84h3.7v.84h-3.7Z"/>
    <path class="cls-2" d="M527.68,431.07v-.84h3.7v.84h-3.7Z"/>
    <path class="cls-2" d="M286.15,423.49v-.84h3.7v.84h-3.7Z"/>
    <path class="cls-2" d="M255.96,414.09v-.84h3.7v.84h-3.7Z"/>
    <path class="cls-2" d="M161.94,255.65v-.84h3.7v.84h-3.7Z"/>
    <path class="cls-2" d="M276.06,166.66v-.84h3.7v.84h-3.7Z"/>
    <path class="cls-2" d="M186.76,179.44v-.84h3.7v.84h-3.7Z"/>
    <path class="cls-2" d="M220.26,94.26v-.84h3.7v.84h-3.7Z"/>
    <path class="cls-2" d="M70.81,167.3v-.84h3.7v.84h-3.7Z"/>
    <path class="cls-2" d="M42.53,341.36v-.84h3.7v.84h-3.7Z"/>
    <path class="cls-2" d="M94.83,402.08v-.84h3.7v.84h-3.7Z"/>
    <path class="cls-2" d="M179.3,412.23v-.84h3.7v.84h-3.7Z"/>
  </g>
  <g id="sun">
    <path class="cls-4" d="M287.76,224.05l.24-.16.24.16c1.39.96,3.21,1.03,4.68.19l.25-.14.22.18c1.31,1.07,3.12,1.29,4.64.56l.26-.12.21.2c1.22,1.17,3,1.53,4.58.94l.27-.1.19.21c1.12,1.26,2.87,1.77,4.49,1.3l.27-.08.17.23c1.02,1.35,2.72,1.99,4.37,1.66l.28-.06.15.24c.91,1.43,2.55,2.21,4.23,2.01l.28-.03.13.25c.79,1.49,2.36,2.4,4.05,2.34h.29s.11.25.11.25c.67,1.55,2.16,2.59,3.85,2.66h.29s.09.28.09.28c.54,1.6,1.95,2.75,3.62,2.96l.28.04.07.28c.41,1.64,1.72,2.9,3.37,3.24l.28.06.05.28c.27,1.67,1.48,3.03,3.1,3.5l.27.08.02.29c.14,1.68,1.23,3.14,2.81,3.74l.27.1v.29c0,1.69.98,3.23,2.5,3.95l.26.12-.02.29c-.13,1.68.71,3.3,2.17,4.14l.25.14-.05.28c-.27,1.67.45,3.34,1.83,4.3l.24.16-.07.28c-.4,1.64.18,3.37,1.48,4.44l.22.18-.09.27c-.53,1.6-.1,3.37,1.12,4.54l.21.2-.11.26c-.66,1.56-.37,3.35.75,4.62l.19.21-.13.25c-.78,1.5-.64,3.31.38,4.66l.17.23-.15.24c-.9,1.43-.9,3.25,0,4.68l.15.24-.17.23c-1.01,1.35-1.16,3.17-.38,4.66l.13.25-.19.21c-1.12,1.27-1.41,3.06-.75,4.62l.11.26-.21.2c-1.22,1.17-1.65,2.94-1.12,4.54l.09.27-.22.18c-1.31,1.07-1.88,2.8-1.48,4.44l.07.28-.24.16c-1.39.96-2.1,2.64-1.83,4.3l.05.28-.25.14c-1.46.85-2.31,2.46-2.17,4.14l.02.29-.26.12c-1.52.73-2.5,2.27-2.5,3.95v.29s-.27.1-.27.1c-1.58.6-2.67,2.06-2.81,3.74l-.02.29-.27.08c-1.62.47-2.83,1.84-3.1,3.5l-.05.28-.28.06c-1.65.34-2.97,1.6-3.37,3.24l-.07.28-.28.04c-1.68.21-3.09,1.36-3.62,2.96l-.09.27h-.29c-1.69.08-3.19,1.12-3.85,2.67l-.11.26h-.29c-1.69-.08-3.26.83-4.05,2.33l-.13.25-.28-.03c-1.68-.2-3.32.58-4.23,2.01l-.15.24-.28-.06c-1.66-.33-3.36.31-4.37,1.66l-.17.23-.27-.08c-1.62-.47-3.37.04-4.49,1.3l-.19.21-.27-.1c-1.58-.6-3.36-.23-4.58.94l-.21.2-.26-.12c-1.53-.72-3.33-.5-4.64.56l-.22.18-.25-.14c-1.46-.84-3.28-.77-4.68.19l-.24.16-.24-.16c-1.39-.96-3.21-1.03-4.68-.19l-.25.14-.22-.18c-1.31-1.07-3.12-1.29-4.64-.56l-.26.12-.21-.2c-1.22-1.17-3-1.53-4.58-.94l-.27.1-.19-.21c-1.12-1.26-2.87-1.77-4.49-1.3l-.27.08-.17-.23c-1.02-1.35-2.72-1.99-4.37-1.66l-.28.06-.15-.24c-.91-1.43-2.55-2.21-4.23-2.01l-.28.03-.13-.25c-.79-1.49-2.36-2.4-4.05-2.34h-.29s-.11-.25-.11-.25c-.67-1.55-2.16-2.59-3.85-2.66h-.29s-.09-.28-.09-.28c-.54-1.6-1.95-2.75-3.62-2.96l-.28-.04-.07-.28c-.41-1.64-1.72-2.9-3.37-3.24l-.28-.06-.05-.28c-.27-1.67-1.48-3.03-3.1-3.5l-.27-.08-.02-.29c-.14-1.68-1.23-3.14-2.81-3.74l-.27-.1v-.29c0-1.69-.98-3.23-2.5-3.95l-.26-.12.02-.29c.13-1.68-.71-3.3-2.17-4.14l-.25-.14.05-.28c.27-1.67-.45-3.34-1.83-4.3l-.24-.16.07-.28c.4-1.64-.18-3.37-1.48-4.44l-.22-.18.09-.27c.53-1.6.1-3.37-1.12-4.54l-.21-.2.11-.26c.66-1.56.37-3.35-.75-4.62l-.19-.21.13-.25c.78-1.5.64-3.31-.38-4.66l-.17-.23.15-.24c.9-1.43.9-3.25,0-4.68l-.15-.24.17-.23c1.01-1.35,1.16-3.17.38-4.66l-.13-.25.19-.21c1.12-1.27,1.41-3.06.75-4.62l-.11-.26.21-.2c1.22-1.17,1.65-2.94,1.12-4.54l-.09-.27.22-.18c1.31-1.07,1.88-2.8,1.48-4.44l-.07-.28.24-.16c1.39-.96,2.1-2.64,1.83-4.3l-.05-.28.25-.14c1.46-.85,2.31-2.46,2.17-4.14l-.02-.29.26-.12c1.52-.73,2.5-2.27,2.5-3.95v-.29s.27-.1.27-.1c1.58-.6,2.67-2.06,2.81-3.74l.02-.29.27-.08c1.62-.47,2.83-1.84,3.1-3.5l.05-.28.28-.06c1.65-.34,2.97-1.6,3.37-3.24l.07-.28.28-.04c1.68-.21,3.09-1.36,3.62-2.96l.09-.27h.29c1.69-.08,3.19-1.12,3.85-2.67l.11-.26h.29c1.69.08,3.26-.83,4.05-2.33l.13-.25.28.03c1.68.2,3.32-.58,4.23-2.01l.15-.24.28.06c1.66.33,3.36-.31,4.37-1.66l.17-.23.27.08c1.62.47,3.37-.04,4.49-1.3l.19-.21.27.1c1.58.6,3.36.23,4.58-.94l.21-.2.26.12c1.53.72,3.33.5,4.64-.56l.22-.18.25.14c1.46.84,3.28.77,4.68-.19Z"/>
  </g>
</svg>