<?xml version="1.0" encoding="UTF-8"?>
<svg xmlns="http://www.w3.org/2000/svg" xmlns:xlink="http://www.w3.org/1999/xlink" viewBox="0 0 465.45 181.13">
  <defs>
    <style>
      .cls-1 {
        fill: #84a0ae;
      }

      .cls-2, .cls-3, .cls-4, .cls-5, .cls-6, .cls-7 {
        stroke: #84a0ae;
      }

      .cls-2, .cls-3, .cls-4, .cls-5, .cls-6, .cls-7, .cls-8 {
        fill: none;
        stroke-miterlimit: 10;
      }

      .cls-2, .cls-4, .cls-5, .cls-6, .cls-7 {
        stroke-width: 2px;
      }

      .cls-9 {
        fill: url(#linear-gradient);
      }

      .cls-4 {
        stroke-dasharray: 2 2;
      }

      .cls-5 {
        stroke-dasharray: 1.99 1.99;
      }

      .cls-6 {
        stroke-dasharray: 2.01 2.01;
      }

      .cls-10 {
        fill: #cbd0d7;
      }

      .cls-7 {
        stroke-dasharray: 2.03 2.03;
      }

      .cls-8 {
        stroke: #a9adb3;
        stroke-width: .83px;
      }
    </style>
    <linearGradient id="linear-gradient" x1="-102.14" y1="-784.67" x2="693.83" y2="-784.67" gradientUnits="userSpaceOnUse">
      <stop offset="0" stop-color="#000"/>
      <stop offset=".23" stop-color="#fff"/>
      <stop offset=".79" stop-color="#fff"/>
      <stop offset="1" stop-color="#000"/>
    </linearGradient>
    <mask id="mask" x="-1272.14" y="-2660.76" width="2100" height="3752.19" maskUnits="userSpaceOnUse">
      <rect class="cls-9" x="-102.14" y="-2660.76" width="795.97" height="3752.19"/>
    </mask>
  </defs>
  <g id="bg">
    <rect class="cls-10" x="-1273.67" y="-2597.62" width="2123.05" height="3347.64"/>
  </g>
  <g id="fade">
    <g>
      <line class="cls-8" x1="209.62" y1="27.29" x2="209.62" y2="181.13"/>
      <line class="cls-3" x1="209.62" y1="27.29" x2="209.62" y2="181.13"/>
    </g>
    <g>
      <line class="cls-8" x1="383.3" y1="27.29" x2="383.3" y2="181.13"/>
      <line class="cls-3" x1="383.3" y1="27.29" x2="383.3" y2="181.13"/>
    </g>
    <g>
      <line class="cls-8" x1="421.19" y1="27.29" x2="421.19" y2="181.13"/>
      <line class="cls-3" x1="421.19" y1="27.29" x2="421.19" y2="181.13"/>
    </g>
    <path d="M205.86,4.58v-1.26l4.92-2h.74l-1.08,3.26h-4.58ZM209.54,15.52V3.42l1.42-2.1h1.38v14.2h-2.8Z"/>
    <path d="M143.73,52.99l-.02-.52c0-.88.08-1.67.23-2.37s.4-1.33.74-1.89c.34-.56.79-1.07,1.34-1.53.55-.46,1.22-.9,2.01-1.31.49-.27.91-.51,1.26-.73.35-.22.63-.42.85-.6s.39-.35.5-.51.19-.32.23-.48.06-.33.06-.5c0-.39-.1-.7-.31-.94-.21-.24-.52-.42-.94-.54-.42-.12-.94-.18-1.55-.18-.56,0-1.17.04-1.82.13s-1.28.22-1.88.41l-.52-2.12c.69-.23,1.43-.4,2.2-.53s1.56-.19,2.36-.19c1.12,0,2.07.14,2.85.42s1.38.7,1.79,1.25.62,1.24.62,2.07c0,.35-.03.68-.1.99-.07.31-.19.61-.38.9-.19.29-.43.56-.74.83s-.69.55-1.15.85c-.46.3-1,.61-1.61.93-.73.37-1.33.75-1.79,1.13-.46.38-.81.79-1.04,1.23-.23.44-.39.94-.48,1.49s-.12,1.2-.11,1.95l-2.6.36ZM143.99,52.99l.06-.54,1.3-1.76h8.32v2.3h-9.68Z"/>
    <path d="M147.92,82.3c-.48,0-.97-.02-1.46-.07s-.97-.11-1.44-.18-.91-.16-1.34-.25l.44-2.22c.57.12,1.16.22,1.77.29s1.22.11,1.85.11c.57,0,1.06-.05,1.47-.14.41-.09.74-.23,1-.42s.46-.42.59-.69c.13-.27.2-.58.2-.93,0-.68-.18-1.18-.55-1.5-.37-.32-.88-.48-1.53-.48h-3.12l1.38-1.94h2.28c.88,0,1.65.14,2.3.41s1.16.7,1.51,1.28c.35.58.53,1.34.53,2.27,0,.75-.13,1.4-.39,1.96-.26.56-.64,1.02-1.14,1.39-.5.37-1.11.64-1.84.83s-1.56.28-2.51.28ZM143.8,70.16v-2.26h8.88l-1,1.82-1.48.44h-6.4ZM145.6,75.82v-.86l6.02-7.06h2.04v.88l-6,6.98-2.06.06Z"/>
    <path d="M142.67,108.75v-1.6l6.84-10.14h1.18l.42,1.88-6.5,9.86h-1.94ZM143.29,108.75l.64-2.08h10.84v2.08h-11.48ZM150.29,111.21v-12.22l.12-1.98h2.56v14.2h-2.68Z"/>
    <path d="M147.83,140.53c-.73,0-1.45-.05-2.16-.16-.71-.11-1.37-.25-2-.44l.48-2.16c.57.15,1.16.26,1.75.33.59.07,1.21.11,1.85.11.56,0,1.04-.05,1.45-.14.41-.09.74-.23,1-.42.26-.19.45-.42.58-.69s.19-.59.19-.95c0-.71-.18-1.22-.53-1.53-.35-.31-.85-.47-1.49-.47h-3.52v-2.14h3.88c.95,0,1.75.15,2.42.44.67.29,1.17.74,1.52,1.33.35.59.52,1.36.52,2.31,0,.76-.13,1.43-.38,2-.25.57-.63,1.05-1.13,1.43s-1.12.67-1.85.86c-.73.19-1.59.29-2.58.29ZM144.15,134v-7.88h2.72v7.88h-2.72ZM144.29,128.54v-2.42h8.98v2.42h-8.98Z"/>
    <path d="M3.17,42.05v-1.26l4.92-2h.74l-1.08,3.26H3.17ZM6.85,52.99v-12.1l1.42-2.1h1.38v14.2h-2.8Z"/>
    <path d="M1.93,82.1l-.02-.52c0-.88.08-1.67.23-2.37s.4-1.33.74-1.89c.34-.56.79-1.07,1.34-1.53.55-.46,1.22-.9,2.01-1.31.49-.27.91-.51,1.26-.73s.63-.42.85-.6c.22-.18.39-.35.5-.51s.19-.32.23-.48.06-.33.06-.5c0-.39-.1-.7-.31-.94-.21-.24-.52-.42-.94-.54s-.94-.18-1.55-.18c-.56,0-1.17.04-1.82.13s-1.28.22-1.88.41l-.52-2.12c.69-.23,1.43-.4,2.2-.53.77-.13,1.56-.19,2.36-.19,1.12,0,2.07.14,2.85.42.78.28,1.38.7,1.79,1.25.41.55.62,1.24.62,2.07,0,.35-.03.68-.1.99-.07.31-.19.61-.38.9-.19.29-.43.56-.74.83s-.69.55-1.15.85-1,.61-1.61.93c-.73.37-1.33.75-1.79,1.13-.46.38-.81.79-1.04,1.23-.23.44-.39.94-.48,1.49s-.12,1.2-.11,1.95l-2.6.36ZM2.19,82.1l.06-.54,1.3-1.76h8.32v2.3H2.19Z"/>
    <path d="M6.12,111.42c-.48,0-.97-.02-1.46-.07s-.97-.11-1.44-.18c-.47-.07-.91-.16-1.34-.25l.44-2.22c.57.12,1.16.22,1.77.29s1.22.11,1.85.11c.57,0,1.06-.05,1.47-.14.41-.09.74-.23,1-.42.26-.19.46-.42.59-.69.13-.27.2-.58.2-.93,0-.68-.18-1.18-.55-1.5-.37-.32-.88-.48-1.53-.48h-3.12l1.38-1.94h2.28c.88,0,1.65.14,2.3.41.65.27,1.16.7,1.51,1.28s.53,1.34.53,2.27c0,.75-.13,1.4-.39,1.96-.26.56-.64,1.02-1.14,1.39-.5.37-1.11.64-1.84.83s-1.56.28-2.51.28ZM2,99.27v-2.26h8.88l-1,1.82-1.48.44H2ZM3.8,104.93v-.86l6.02-7.06h2.04v.88l-6,6.98-2.06.06Z"/>
    <path d="M.87,137.87v-1.6l6.84-10.14h1.18l.42,1.88-6.5,9.86H.87ZM1.49,137.87l.64-2.08h10.84v2.08H1.49ZM8.49,140.33v-12.22l.12-1.98h2.56v14.2h-2.68Z"/>
    <path d="M6.03,169.64c-.73,0-1.45-.05-2.16-.16-.71-.11-1.37-.25-2-.44l.48-2.16c.57.15,1.16.26,1.75.33.59.07,1.21.11,1.85.11.56,0,1.04-.05,1.45-.14.41-.09.74-.23,1-.42.26-.19.45-.42.58-.69s.19-.59.19-.95c0-.71-.18-1.22-.53-1.53-.35-.31-.85-.47-1.49-.47h-3.52v-2.14h3.88c.95,0,1.75.15,2.42.44.67.29,1.17.74,1.52,1.33.35.59.52,1.36.52,2.31,0,.76-.13,1.43-.38,2-.25.57-.63,1.05-1.13,1.43s-1.12.67-1.85.86c-.73.19-1.59.29-2.58.29ZM2.35,163.12v-7.88h2.72v7.88h-2.72ZM2.49,157.66v-2.42h8.98v2.42H2.49Z"/>
    <path d="M378.3,15.52l-.02-.52c0-.88.08-1.67.23-2.37.15-.7.4-1.33.74-1.89.34-.56.79-1.07,1.34-1.53.55-.46,1.22-.9,2.01-1.31.49-.27.91-.51,1.26-.73s.63-.42.85-.6c.22-.18.39-.35.5-.51s.19-.32.23-.48.06-.33.06-.5c0-.39-.1-.7-.31-.94-.21-.24-.52-.42-.94-.54-.42-.12-.94-.18-1.55-.18-.56,0-1.17.04-1.82.13-.65.09-1.28.22-1.88.41l-.52-2.12c.69-.23,1.43-.4,2.2-.53.77-.13,1.56-.19,2.36-.19,1.12,0,2.07.14,2.85.42.78.28,1.38.7,1.79,1.25.41.55.62,1.24.62,2.07,0,.35-.03.68-.1.99-.07.31-.19.61-.38.9-.19.29-.43.56-.74.83s-.69.55-1.15.85c-.46.3-1,.61-1.61.93-.73.37-1.33.75-1.79,1.13s-.81.79-1.04,1.23c-.23.44-.39.94-.48,1.49-.09.55-.12,1.2-.11,1.95l-2.6.36ZM378.56,15.52l.06-.54,1.3-1.76h8.32v2.3h-9.68Z"/>
    <path d="M417.43,4.58v-1.26l4.92-2h.74l-1.08,3.26h-4.58ZM421.11,15.52V3.42l1.42-2.1h1.38v14.2h-2.8Z"/>
    <path d="M321.6,53.19c-.48,0-.97-.02-1.46-.07-.49-.05-.97-.11-1.44-.18-.47-.07-.91-.16-1.34-.25l.44-2.22c.57.12,1.16.22,1.77.29.61.07,1.22.11,1.85.11.57,0,1.06-.05,1.47-.14.41-.09.74-.23,1-.42.26-.19.46-.42.59-.69.13-.27.2-.58.2-.93,0-.68-.18-1.18-.55-1.5-.37-.32-.88-.48-1.53-.48h-3.12l1.38-1.94h2.28c.88,0,1.65.14,2.3.41.65.27,1.16.7,1.51,1.28.35.58.53,1.34.53,2.27,0,.75-.13,1.4-.39,1.96-.26.56-.64,1.02-1.14,1.39-.5.37-1.11.64-1.84.83-.73.19-1.56.28-2.51.28ZM317.48,41.05v-2.26h8.88l-1,1.82-1.48.44h-6.4ZM319.28,46.71v-.86l6.02-7.06h2.04v.88l-6,6.98-2.06.06Z"/>
    <path d="M316.35,79.64v-1.6l6.84-10.14h1.18l.42,1.88-6.5,9.86h-1.94ZM316.97,79.64l.64-2.08h10.84v2.08h-11.48ZM323.97,82.1v-12.22l.12-1.98h2.56v14.2h-2.68Z"/>
    <path d="M321.51,111.42c-.73,0-1.45-.05-2.16-.16s-1.37-.25-2-.44l.48-2.16c.57.15,1.16.26,1.75.33.59.07,1.21.11,1.85.11.56,0,1.04-.05,1.45-.14.41-.09.74-.23,1-.42.26-.19.45-.42.58-.69.13-.27.19-.59.19-.95,0-.71-.18-1.22-.53-1.53-.35-.31-.85-.47-1.49-.47h-3.52v-2.14h3.88c.95,0,1.75.15,2.42.44.67.29,1.17.74,1.52,1.33.35.59.52,1.36.52,2.31,0,.76-.13,1.43-.38,2-.25.57-.63,1.05-1.13,1.43s-1.12.67-1.85.86c-.73.19-1.59.29-2.58.29ZM317.83,104.89v-7.88h2.72v7.88h-2.72ZM317.97,99.43v-2.42h8.98v2.42h-8.98Z"/>
    <circle class="cls-1" cx="421.19" cy="146.84" r="6.37"/>
    <line class="cls-2" x1="209.62" y1="75.1" x2="171.73" y2="75.1"/>
    <line class="cls-2" x1="421.19" y1="146.84" x2="383.3" y2="75.1"/>
    <g>
      <line class="cls-2" x1="245.29" y1="142.66" x2="244.83" y2="141.78"/>
      <line class="cls-5" x1="243.9" y1="140.02" x2="212.84" y2="81.2"/>
      <line class="cls-2" x1="212.37" y1="80.33" x2="211.91" y2="79.44"/>
    </g>
    <line class="cls-2" x1="421.19" y1="146.84" x2="345.41" y2="104.21"/>
    <path class="cls-1" d="M247.5,142.47c2.41,0,4.37,1.96,4.37,4.37s-1.96,4.37-4.37,4.37-4.37-1.96-4.37-4.37,1.96-4.37,4.37-4.37M247.5,140.47c-3.52,0-6.37,2.85-6.37,6.37s2.85,6.37,6.37,6.37,6.37-2.85,6.37-6.37-2.85-6.37-6.37-6.37h0Z"/>
    <g>
      <line class="cls-2" x1="243.27" y1="144.46" x2="242.4" y2="143.97"/>
      <line class="cls-7" x1="240.63" y1="142.98" x2="177.82" y2="107.64"/>
      <line class="cls-2" x1="176.94" y1="107.15" x2="176.07" y2="106.66"/>
    </g>
    <line class="cls-2" x1="383.3" y1="75.1" x2="345.41" y2="75.1"/>
    <circle class="cls-1" cx="171.73" cy="45.99" r="6.37"/>
    <circle class="cls-1" cx="171.73" cy="75.1" r="6.37"/>
    <circle class="cls-1" cx="171.73" cy="104.21" r="6.37"/>
    <circle class="cls-1" cx="171.73" cy="133.32" r="6.37"/>
    <circle class="cls-1" cx="171.73" cy="162.43" r="6.37"/>
    <circle class="cls-1" cx="29.93" cy="45.99" r="6.37"/>
    <circle class="cls-1" cx="29.93" cy="75.1" r="6.37"/>
    <circle class="cls-1" cx="29.93" cy="104.21" r="6.37"/>
    <circle class="cls-1" cx="29.93" cy="133.32" r="6.37"/>
    <circle class="cls-1" cx="29.93" cy="162.43" r="6.37"/>
    <circle class="cls-1" cx="209.62" cy="75.1" r="6.37"/>
    <path class="cls-1" d="M67.82,70.73c2.41,0,4.37,1.96,4.37,4.37s-1.96,4.37-4.37,4.37-4.37-1.96-4.37-4.37,1.96-4.37,4.37-4.37M67.82,68.73c-3.52,0-6.37,2.85-6.37,6.37s2.85,6.37,6.37,6.37,6.37-2.85,6.37-6.37-2.85-6.37-6.37-6.37h0Z"/>
    <circle class="cls-1" cx="345.41" cy="45.99" r="6.37"/>
    <circle class="cls-1" cx="345.41" cy="75.1" r="6.37"/>
    <circle class="cls-1" cx="345.41" cy="104.21" r="6.37"/>
    <circle class="cls-1" cx="345.41" cy="133.32" r="6.37"/>
    <circle class="cls-1" cx="345.41" cy="162.43" r="6.37"/>
    <circle class="cls-1" cx="383.3" cy="75.1" r="6.37"/>
    <path class="cls-1" d="M459.07,97.48c2.41,0,4.37,1.96,4.37,4.37s-1.96,4.37-4.37,4.37-4.37-1.96-4.37-4.37,1.96-4.37,4.37-4.37M459.07,95.48c-3.52,0-6.37,2.85-6.37,6.37s2.85,6.37,6.37,6.37,6.37-2.85,6.37-6.37-2.85-6.37-6.37-6.37h0Z"/>
    <g>
      <line class="cls-2" x1="62.95" y1="75.1" x2="61.95" y2="75.1"/>
      <line class="cls-6" x1="59.95" y1="75.1" x2="36.87" y2="75.1"/>
      <line class="cls-2" x1="35.87" y1="75.1" x2="34.87" y2="75.1"/>
    </g>
    <g>
      <line class="cls-2" x1="350.35" y1="104.11" x2="351.35" y2="104.09"/>
      <line class="cls-4" x1="353.35" y1="104.05" x2="452.44" y2="101.99"/>
      <line class="cls-2" x1="453.44" y1="101.97" x2="454.44" y2="101.95"/>
    </g>
  </g>
</svg>