<?xml version="1.0" encoding="UTF-8"?>
<svg xmlns="http://www.w3.org/2000/svg" viewBox="0 0 627.86 627.86">
  <defs>
    <style>
      .cls-1 {
        fill: #c49726;
      }
    </style>
  </defs>
  <g id="Lines">
    <path class="cls-1" d="M313.93,13.93c-21.07,12.25-42.81,23.33-65.12,33.14,21.06-12.26,42.82-23.32,65.12-33.14h0Z"/>
    <path class="cls-1" d="M330.52,37.1c-6.61-6.87-12.22-14.69-16.59-23.17,6.61,6.87,12.21,14.7,16.59,23.17h0Z"/>
    <path class="cls-1" d="M330.52,37.1c-10.27,5.41-21.17,9.61-32.42,12.46,10.26-5.42,21.17-9.6,32.42-12.46h0Z"/>
    <path class="cls-1" d="M330.52,37.1c5.29-3.1,11.25-4.99,17.36-5.47-5.28,3.11-11.25,4.98-17.36,5.47h0Z"/>
    <path class="cls-1" d="M373.22,71c-25.4-5.83-50.48-12.98-75.12-21.45,25.4,5.82,50.48,12.99,75.12,21.45h0Z"/>
    <path class="cls-1" d="M373.22,71c-5.14-4.3-9.38-9.64-12.36-15.64,5.15,4.29,9.37,9.65,12.36,15.64h0Z"/>
    <path class="cls-1" d="M313.93,13.93c29.66,3.09,59.18,7.52,88.43,13.33-29.66-3.08-59.17-7.53-88.43-13.33h0Z"/>
    <path class="cls-1" d="M405.8,69.16c-2.51-13.81-3.67-27.86-3.44-41.9,2.52,13.81,3.66,27.86,3.44,41.9h0Z"/>
    <path class="cls-1" d="M405.8,69.16c-10.73,1.98-21.7,2.61-32.58,1.85,10.73-1.99,21.7-2.6,32.58-1.85h0Z"/>
    <path class="cls-1" d="M432.39,47.88c-7.97,8.13-16.91,15.3-26.59,21.28,7.96-8.14,16.91-15.29,26.59-21.28h0Z"/>
    <path class="cls-1" d="M432.39,47.88c-10.74-5.71-20.84-12.63-30.03-20.62,10.75,5.71,20.84,12.64,30.03,20.62h0Z"/>
    <path class="cls-1" d="M432.39,47.88c-23.68,3.85-47.57,6.37-71.53,7.49,23.68-3.87,47.57-6.36,71.53-7.49h0Z"/>
    <path class="cls-1" d="M432.39,47.88c12.08,1.5,23.98,4.35,35.41,8.52-12.08-1.49-23.98-4.36-35.41-8.52h0Z"/>
    <path class="cls-1" d="M405.8,69.16c17.15,11.63,33.52,24.39,48.98,38.19-17.15-11.62-33.52-24.4-48.98-38.19h0Z"/>
    <path class="cls-1" d="M485.96,117.03c2.5-13.81,6.34-27.36,11.49-40.42-2.49,13.81-6.35,27.36-11.49,40.42h0Z"/>
    <path class="cls-1" d="M432.39,47.88c18.93,22.2,36.82,45.27,53.58,69.15-18.94-22.19-36.81-45.28-53.58-69.15h0Z"/>
    <path class="cls-1" d="M467.8,56.4c17.12,16.46,33.29,33.89,48.39,52.22-17.13-16.45-33.28-33.9-48.39-52.22h0Z"/>
    <path class="cls-1" d="M516.2,108.62c-20.47.95-41.01.54-61.42-1.27,20.47-.96,41-.53,61.42,1.27h0Z"/>
    <path class="cls-1" d="M485.96,117.03c5.8,9.25,10.45,19.22,13.76,29.62-5.81-9.24-10.44-19.22-13.76-29.62h0Z"/>
    <path class="cls-1" d="M454.78,107.35c15.86,12.05,30.89,25.18,44.94,39.3-15.87-12.04-30.89-25.19-44.94-39.3h0Z"/>
    <path class="cls-1" d="M499.72,146.65c15.71-7.85,32.02-14.47,48.76-19.76-15.7,7.86-32.03,14.46-48.76,19.76h0Z"/>
    <path class="cls-1" d="M548.48,126.89c-2.4,16.62-6.14,33.04-11.22,49.04,2.38-16.62,6.15-33.03,11.22-49.04h0Z"/>
    <path class="cls-1" d="M499.72,146.65c26.53,7.06,52.7,15.44,78.39,25.12-26.53-7.05-52.7-15.45-78.39-25.12h0Z"/>
    <path class="cls-1" d="M537.26,175.92c13.43-2.74,27.14-4.15,40.85-4.15-13.43,2.75-27.14,4.14-40.85,4.15h0Z"/>
    <path class="cls-1" d="M578.11,171.77c-.8,7.88-2.97,15.61-6.42,22.75.79-7.89,2.98-15.61,6.42-22.75h0Z"/>
    <path class="cls-1" d="M537.26,175.92c9.01,12.99,16.9,26.76,23.53,41.12-9.02-12.99-16.89-26.77-23.53-41.12h0Z"/>
    <path class="cls-1" d="M560.79,217.05c-5.46-29.85-9.58-59.94-12.31-90.16,5.47,29.85,9.56,59.94,12.31,90.16h0Z"/>
    <path class="cls-1" d="M571.69,194.52c11.95,13.8,22.86,28.49,32.6,43.93-11.96-13.8-22.85-28.5-32.6-43.93h0Z"/>
    <path class="cls-1" d="M571.12,263.27c-7.53-8.02-14.05-16.98-19.36-26.62,7.54,8.02,14.04,16.98,19.36,26.62h0Z"/>
    <path class="cls-1" d="M571.12,263.27c-1.18-22.9-1-45.87.57-68.75,1.19,22.9.99,45.87-.57,68.75h0Z"/>
    <path class="cls-1" d="M594.36,275.95c1.97-12.8,5.29-25.39,9.92-37.49-1.96,12.8-5.3,25.39-9.92,37.49h0Z"/>
    <path class="cls-1" d="M594.36,275.95c-12.37-18.93-23.59-38.6-33.57-58.9,12.38,18.93,23.58,38.61,33.57,58.9h0Z"/>
    <path class="cls-1" d="M604.28,238.46c4.56,23.46,7.78,47.16,9.62,70.99-4.57-23.45-7.77-47.17-9.62-70.99h0Z"/>
    <path class="cls-1" d="M587.04,326.2c8.18-6.72,17.23-12.37,26.86-16.75-8.18,6.73-17.23,12.36-26.86,16.75h0Z"/>
    <path class="cls-1" d="M587.04,326.2c-5.09-10.11-8.96-20.83-11.47-31.87,5.1,10.11,8.95,20.83,11.47,31.87h0Z"/>
    <path class="cls-1" d="M587.04,326.2c3.85,5.1,6.58,11.02,7.93,17.27-3.86-5.1-6.57-11.03-7.93-17.27h0Z"/>
    <path class="cls-1" d="M557.72,369.57c4.11-5.21,9.3-9.54,15.17-12.64-4.1,5.22-9.3,9.54-15.17,12.64h0Z"/>
    <path class="cls-1" d="M575.57,294.33c-4.61,25.38-10.56,50.51-17.85,75.25,4.6-25.38,10.57-50.5,17.85-75.25h0Z"/>
    <path class="cls-1" d="M613.9,309.44c-2.64,29.7-6.64,59.28-12,88.62,2.63-29.7,6.65-59.28,12-88.62h0Z"/>
    <path class="cls-1" d="M559.58,401.96c13.94-2.66,28.12-3.98,42.31-3.9-13.93,2.67-28.12,3.97-42.31,3.9h0Z"/>
    <path class="cls-1" d="M559.58,401.96c-1.99-10.66-2.63-21.56-1.87-32.38,2,10.66,2.62,21.56,1.87,32.38h0Z"/>
    <path class="cls-1" d="M581.71,428.39c-8.39-7.89-15.84-16.77-22.13-26.43,8.4,7.88,15.83,16.78,22.13,26.43h0Z"/>
    <path class="cls-1" d="M581.71,428.39c5.56-10.83,12.33-21.02,20.19-30.33-5.55,10.83-12.34,21.02-20.19,30.33h0Z"/>
    <path class="cls-1" d="M581.71,428.39c-4.3-23.63-7.25-47.49-8.82-71.45,4.31,23.62,7.24,47.49,8.82,71.45h0Z"/>
    <path class="cls-1" d="M573.74,463.93c1.31-12.1,3.98-24.05,7.97-35.55-1.3,12.1-3.99,24.05-7.97,35.55h0Z"/>
    <path class="cls-1" d="M522.6,451.67c11.21-17.37,23.57-33.99,36.99-49.71-11.2,17.37-23.57,33.98-36.99,49.71h0Z"/>
    <path class="cls-1" d="M518.85,487.63c1.84-5.11,4.98-9.71,9.08-13.27-1.83,5.11-4.99,9.71-9.08,13.27h0Z"/>
    <path class="cls-1" d="M518.85,487.63c-.12-12.08,1.13-24.16,3.75-35.96.13,12.08-1.14,24.16-3.75,35.96h0Z"/>
    <path class="cls-1" d="M518.85,487.63c17.73-9.15,36.07-17.08,54.89-23.7-17.72,9.16-36.08,17.07-54.89,23.7h0Z"/>
    <path class="cls-1" d="M546.4,430.2c-3.86,30.56-9.06,60.95-15.63,91.05,3.85-30.57,9.07-60.95,15.63-91.05h0Z"/>
    <path class="cls-1" d="M483.98,497.2c16.19,6.78,31.86,14.82,46.79,24.06-16.2-6.77-31.85-14.83-46.79-24.06h0Z"/>
    <path class="cls-1" d="M483.98,497.2c11.22-4.5,22.93-7.72,34.88-9.57-11.21,4.51-22.94,7.71-34.88,9.57h0Z"/>
    <path class="cls-1" d="M495.07,534.23c11.39-5.6,23.37-9.97,35.7-12.98-11.38,5.61-23.38,9.96-35.7,12.98h0Z"/>
    <path class="cls-1" d="M495.07,534.23c6.69-16.13,14.64-31.73,23.78-46.6-6.68,16.13-14.65,31.72-23.78,46.6h0Z"/>
    <path class="cls-1" d="M475.44,566.75c5.35-11.51,11.93-22.43,19.63-32.52-5.34,11.51-11.94,22.43-19.63,32.52h0Z"/>
    <path class="cls-1" d="M439.66,539.42c12.73,8,24.72,17.15,35.78,27.33-12.73-7.99-24.72-17.15-35.78-27.33h0Z"/>
    <path class="cls-1" d="M439.66,539.42c13.81-15.05,28.61-29.17,44.32-42.22-13.8,15.05-28.62,29.16-44.32,42.22h0Z"/>
    <path class="cls-1" d="M422.43,539.23c5.66-1.31,11.6-1.25,17.23.19-5.66,1.32-11.6,1.24-17.23-.19h0Z"/>
    <path class="cls-1" d="M423.12,580.35c17.06-5.85,34.56-10.41,52.32-13.6-17.06,5.86-34.56,10.4-52.32,13.6h0Z"/>
    <path class="cls-1" d="M495.07,534.23c-23.23,16.51-47.24,31.92-71.95,46.12,23.22-16.52,47.24-31.91,71.95-46.12h0Z"/>
    <path class="cls-1" d="M393.74,603.12c14.18-22.02,29.5-43.29,45.91-63.7-14.17,22.02-29.51,43.29-45.91,63.7h0Z"/>
    <path class="cls-1" d="M371.58,585.14c8.2,4.89,15.69,10.95,22.16,17.98-8.21-4.88-15.69-10.96-22.16-17.98h0Z"/>
    <path class="cls-1" d="M371.58,585.14c9.67-5.42,20-9.63,30.71-12.5-9.67,5.43-20.01,9.62-30.71,12.5h0Z"/>
    <path class="cls-1" d="M356.27,594.8c4.29-4.33,9.55-7.66,15.31-9.66-4.29,4.34-9.56,7.65-15.31,9.66h0Z"/>
    <path class="cls-1" d="M321.41,563.82c5.73,1.22,11.14,3.8,15.69,7.5-5.73-1.21-11.14-3.81-15.69-7.5h0Z"/>
    <path class="cls-1" d="M402.29,572.64c-27.09-1.58-54.09-4.51-80.88-8.82,27.09,1.57,54.09,4.52,80.88,8.82h0Z"/>
    <path class="cls-1" d="M393.74,603.12c-29.41,4.92-59.05,8.49-88.79,10.68,29.41-4.93,59.05-8.48,88.79-10.68h0Z"/>
    <path class="cls-1" d="M291,568.75c5.95,14.57,10.64,29.66,13.96,45.05-5.96-14.57-10.63-29.66-13.96-45.05h0Z"/>
    <path class="cls-1" d="M291,568.75c9.86-2.99,20.11-4.66,30.41-4.93-9.86,3-20.11,4.65-30.41,4.93h0Z"/>
    <path class="cls-1" d="M270.49,602.15c5.64-11.81,12.52-23.03,20.51-33.4-5.63,11.82-12.53,23.02-20.51,33.4h0Z"/>
    <path class="cls-1" d="M270.49,602.15c11.88,2.57,23.47,6.47,34.47,11.65-11.88-2.56-23.46-6.48-34.47-11.65h0Z"/>
    <path class="cls-1" d="M270.49,602.15c21.61-11.51,43.85-21.81,66.61-30.82-21.6,11.52-43.85,21.8-66.61,30.82h0Z"/>
    <path class="cls-1" d="M240,581.82c10.88,5.61,21.13,12.43,30.49,20.33-10.89-5.6-21.13-12.44-30.49-20.33h0Z"/>
    <path class="cls-1" d="M233.11,550.58c19.68,4.74,39.04,10.8,57.89,18.17-19.68-4.73-39.03-10.81-57.89-18.17h0Z"/>
    <path class="cls-1" d="M183.77,584.22c7.44-5.19,15.65-9.25,24.3-11.97-7.43,5.2-15.65,9.24-24.3,11.97h0Z"/>
    <path class="cls-1" d="M183.77,584.22c18.65-2.17,37.46-2.98,56.23-2.4-18.65,2.18-37.46,2.97-56.23,2.4h0Z"/>
    <path class="cls-1" d="M270.49,602.15c-29.17-4.63-58.11-10.6-86.72-17.93,29.17,4.62,58.11,10.61,86.72,17.93h0Z"/>
    <path class="cls-1" d="M180.47,553.29c2.45,10.11,3.58,20.53,3.3,30.93-2.47-10.11-3.56-20.53-3.3-30.93h0Z"/>
    <path class="cls-1" d="M260.1,567.18c-26.76-3.28-53.35-7.9-79.63-13.88,26.76,3.27,53.34,7.91,79.63,13.88h0Z"/>
    <path class="cls-1" d="M240,581.82c-21.15-18.05-41.41-37.13-60.67-57.18,21.15,18.04,41.4,37.14,60.67,57.18h0Z"/>
    <path class="cls-1" d="M137.6,556.64c13.05-11.73,27.01-22.45,41.73-32-13.04,11.74-27.01,22.44-41.73,32h0Z"/>
    <path class="cls-1" d="M137.6,556.64c14.14-2.48,28.52-3.61,42.88-3.35-14.14,2.49-28.52,3.6-42.88,3.35h0Z"/>
    <path class="cls-1" d="M146.2,517.93c-1.52,13.16-4.39,26.15-8.6,38.71,1.51-13.16,4.41-26.15,8.6-38.71h0Z"/>
    <path class="cls-1" d="M146.2,517.93c11.26.88,22.41,3.13,33.13,6.71-11.27-.87-22.41-3.14-33.13-6.71h0Z"/>
    <path class="cls-1" d="M183.77,584.22c-13.7-21.4-26.26-43.54-37.57-66.29,13.71,21.4,26.25,43.54,37.57,66.29h0Z"/>
    <path class="cls-1" d="M97.09,521.25c16.24-2.47,32.68-3.59,49.1-3.32-16.24,2.48-32.68,3.58-49.1,3.32h0Z"/>
    <path class="cls-1" d="M123.22,475.58c-7.5,15.87-16.24,31.16-26.13,45.67,7.49-15.88,16.25-31.15,26.13-45.67h0Z"/>
    <path class="cls-1" d="M137.6,556.64c-6.14-26.76-10.95-53.82-14.38-81.05,6.15,26.76,10.93,53.82,14.38,81.05h0Z"/>
    <path class="cls-1" d="M73.89,493.88c15.93-7.37,32.44-13.5,49.33-18.29-15.93,7.38-32.44,13.49-49.33,18.29h0Z"/>
    <path class="cls-1" d="M87.02,463.72c4.7,18.91,8.08,38.15,10.08,57.53-4.71-18.91-8.07-38.15-10.08-57.53h0Z"/>
    <path class="cls-1" d="M146.2,517.93c-20.64-17.05-40.4-35.14-59.18-54.21,20.64,17.04,40.39,35.15,59.18,54.21h0Z"/>
    <path class="cls-1" d="M45.62,448.13c10.57,14.5,20.04,29.8,28.27,45.75-10.58-14.5-20.03-29.81-28.27-45.75h0Z"/>
    <path class="cls-1" d="M83.99,412.21c5.66,8.25,10.19,17.26,13.4,26.74-5.67-8.24-10.18-17.27-13.4-26.74h0Z"/>
    <path class="cls-1" d="M83.99,412.21c-2.01,27.37-5.37,54.63-10.1,81.67,1.99-27.37,5.38-54.63,10.1-81.67h0Z"/>
    <path class="cls-1" d="M49.11,408.83c.21,13.18-.95,26.37-3.49,39.3-.22-13.18.96-26.37,3.49-39.3h0Z"/>
    <path class="cls-1" d="M49.11,408.83c13.75,17.5,26.42,35.83,37.91,54.89-13.76-17.49-26.41-35.84-37.91-54.89h0Z"/>
    <path class="cls-1" d="M21.45,380.69c21.44,9.28,42.34,19.8,62.54,31.52-21.44-9.27-42.33-19.81-62.54-31.52h0Z"/>
    <path class="cls-1" d="M67.27,354.89c-14.57,9.78-29.9,18.42-45.82,25.8,14.57-9.79,29.9-18.41,45.82-25.8h0Z"/>
    <path class="cls-1" d="M67.27,354.89c-.92,11.26-3.2,22.39-6.82,33.09.91-11.26,3.21-22.39,6.82-33.09h0Z"/>
    <path class="cls-1" d="M27.8,344.01c-.76,12.41-2.88,24.74-6.35,36.68.75-12.42,2.89-24.74,6.35-36.68h0Z"/>
    <path class="cls-1" d="M27.8,344.01c11.97,13.82,22.9,28.52,32.65,43.98-11.97-13.81-22.89-28.53-32.65-43.98h0Z"/>
    <path class="cls-1" d="M60.45,387.99c-7.75-25.7-14.19-51.78-19.27-78.13,7.76,25.69,14.18,51.78,19.27,78.13h0Z"/>
    <path class="cls-1" d="M14.77,291.51c9.54,4.96,18.44,11.12,26.41,18.34-9.55-4.95-18.44-11.13-26.41-18.34h0Z"/>
    <path class="cls-1" d="M14.77,291.51c1.19,11.93,1.02,23.99-.54,35.88-1.2-11.93-1.01-23.99.54-35.88h0Z"/>
    <path class="cls-1" d="M23.58,238.46c11.56,7.1,22.4,15.36,32.28,24.64-11.56-7.09-22.39-15.37-32.28-24.64h0Z"/>
    <path class="cls-1" d="M23.58,238.46c7.19,23.45,13.08,47.29,17.6,71.4-7.2-23.45-13.07-47.29-17.6-71.4h0Z"/>
    <path class="cls-1" d="M62.68,232.3c-12.78,3.4-25.9,5.48-39.1,6.16,12.77-3.41,25.9-5.47,39.1-6.16h0Z"/>
    <path class="cls-1" d="M54.54,193.57c4.05,12.58,6.79,25.58,8.14,38.73-4.06-12.58-6.78-25.58-8.14-38.73h0Z"/>
    <path class="cls-1" d="M54.54,193.57c-9.17,15.71-19.52,30.74-30.96,44.89,9.16-15.72,19.53-30.73,30.96-44.89h0Z"/>
    <path class="cls-1" d="M80.4,188.26c-4.62,15.15-10.55,29.91-17.72,44.03,4.61-15.16,10.56-29.9,17.72-44.03h0Z"/>
    <path class="cls-1" d="M58.73,156.23c8.33,9.87,15.62,20.62,21.67,32.04-8.34-9.87-15.61-20.63-21.67-32.04h0Z"/>
    <path class="cls-1" d="M58.73,156.23c-10.45,27.93-22.17,55.38-35.15,82.23,10.44-27.93,22.18-55.38,35.15-82.23h0Z"/>
    <path class="cls-1" d="M100.84,163.93c-5.73,8.95-12.61,17.15-20.44,24.33,5.72-8.96,12.61-17.15,20.44-24.33h0Z"/>
    <path class="cls-1" d="M100.84,163.93c-14.67,11.02-30.15,20.94-46.3,29.64,14.66-11.02,30.16-20.93,46.3-29.64h0Z"/>
    <path class="cls-1" d="M81.15,222.57c5.25-19.96,11.83-39.56,19.69-58.64-5.24,19.96-11.84,39.56-19.69,58.64h0Z"/>
    <path class="cls-1" d="M86.91,132.88c5.87,9.74,10.57,20.18,13.94,31.05-5.88-9.74-10.56-20.18-13.94-31.05h0Z"/>
    <path class="cls-1" d="M86.91,132.88c-8.48,8.8-17.94,16.66-28.18,23.34,8.47-8.81,17.95-16.65,28.18-23.34h0Z"/>
    <path class="cls-1" d="M128.15,146.65c-14.14-3.28-27.97-7.88-41.24-13.76,14.14,3.26,27.97,7.89,41.24,13.76h0Z"/>
    <path class="cls-1" d="M103.39,100.22c9.44,14.8,17.74,30.33,24.75,46.43-9.45-14.8-17.73-30.34-24.75-46.43h0Z"/>
    <path class="cls-1" d="M103.39,100.22c.52,21.26-.32,42.56-2.55,63.71-.53-21.26.33-42.56,2.55-63.71h0Z"/>
    <path class="cls-1" d="M149.45,125.66c-15.98-7.26-31.4-15.77-46.05-25.44,15.99,7.25,31.39,15.78,46.05,25.44h0Z"/>
    <path class="cls-1" d="M149.45,125.66c-20.66,3.77-41.56,6.19-62.54,7.22,20.66-3.78,41.56-6.18,62.54-7.22h0Z"/>
    <path class="cls-1" d="M164.96,95.43c-10.33-2.83-20.28-6.99-29.55-12.36,10.33,2.82,20.28,7,29.55,12.36h0Z"/>
    <path class="cls-1" d="M164.96,95.43c-20.39,2.96-40.97,4.57-61.57,4.79,20.39-2.97,40.97-4.56,61.57-4.79h0Z"/>
    <path class="cls-1" d="M164.96,95.43c-25.41,13.71-51.46,26.22-78.06,37.45,25.4-13.72,51.46-26.21,78.06-37.45h0Z"/>
    <path class="cls-1" d="M128.15,146.65c9.34-30.52,19.98-60.64,31.92-90.25-9.33,30.53-19.99,60.64-31.92,90.25h0Z"/>
    <path class="cls-1" d="M175.74,47.66c-4.47,4.06-9.86,7.08-15.68,8.74,4.47-4.07,9.87-7.07,15.68-8.74h0Z"/>
    <path class="cls-1" d="M175.74,47.66c-2.25,16.19-5.85,32.19-10.78,47.78,2.24-16.19,5.86-32.19,10.78-47.78h0Z"/>
    <path class="cls-1" d="M212.22,85.49c-18.03-8.49-35.47-18.2-52.16-29.09,18.03,8.48,35.47,18.21,52.16,29.09h0Z"/>
    <path class="cls-1" d="M212.22,85.49c-15.44,4.65-31.26,7.99-47.26,9.94,15.43-4.66,31.26-7.98,47.26-9.94h0Z"/>
    <path class="cls-1" d="M234.9,57.72c-6.47,10.08-14.08,19.42-22.68,27.77,6.46-10.09,14.09-19.42,22.68-27.77h0Z"/>
    <path class="cls-1" d="M248.81,47.07c-3.72,4.58-8.51,8.26-13.91,10.65,3.72-4.59,8.52-8.25,13.91-10.65h0Z"/>
    <path class="cls-1" d="M248.81,47.07c-24.32,1.56-48.73,1.77-73.07.59,24.32-1.57,48.73-1.76,73.07-.59h0Z"/>
    <path class="cls-1" d="M260.36,18.75c-2.56,9.9-6.45,19.45-11.56,28.32,2.55-9.91,6.46-19.45,11.56-28.32h0Z"/>
    <path class="cls-1" d="M284.08,65.7c-16.58-1.3-33.04-3.96-49.18-7.97,16.58,1.29,33.04,3.97,49.18,7.97h0Z"/>
    <path class="cls-1" d="M284.08,65.7c-23.57,7.91-47.56,14.53-71.86,19.79,23.56-7.92,47.56-14.52,71.86-19.79h0Z"/>
    <path class="cls-1" d="M55.86,263.1c-12.89,10.58-26.64,20.1-41.09,28.41,12.88-10.59,26.65-20.09,41.09-28.41h0Z"/>
  </g>
  <g id="Dots">
    <circle class="cls-1" cx="313.93" cy="13.93" r="2.5"/>
    <circle class="cls-1" cx="330.52" cy="37.1" r="2.5"/>
    <circle class="cls-1" cx="347.88" cy="31.63" r="2.5"/>
    <circle class="cls-1" cx="360.86" cy="55.36" r="2.5"/>
    <circle class="cls-1" cx="373.22" cy="71" r="2.5"/>
    <circle class="cls-1" cx="402.36" cy="27.26" r="2.5"/>
    <circle class="cls-1" cx="405.8" cy="69.16" r="2.5"/>
    <circle class="cls-1" cx="432.39" cy="47.88" r="2.5"/>
    <circle class="cls-1" cx="438.81" cy="73.31" r="2.5"/>
    <circle class="cls-1" cx="467.8" cy="56.4" r="2.5"/>
    <circle class="cls-1" cx="454.78" cy="107.35" r="2.5"/>
    <circle class="cls-1" cx="497.45" cy="76.61" r="2.5"/>
    <circle class="cls-1" cx="485.96" cy="117.03" r="2.5"/>
    <circle class="cls-1" cx="516.2" cy="108.62" r="2.5"/>
    <circle class="cls-1" cx="499.72" cy="146.65" r="2.5"/>
    <circle class="cls-1" cx="548.48" cy="126.89" r="2.5"/>
    <circle class="cls-1" cx="523.71" cy="166.26" r="2.5"/>
    <circle class="cls-1" cx="537.26" cy="175.92" r="2.5"/>
    <circle class="cls-1" cx="578.11" cy="171.77" r="2.5"/>
    <circle class="cls-1" cx="571.69" cy="194.52" r="2.5"/>
    <circle class="cls-1" cx="560.79" cy="217.05" r="2.5"/>
    <circle class="cls-1" cx="551.76" cy="236.66" r="2.5"/>
    <circle class="cls-1" cx="604.28" cy="238.46" r="2.5"/>
    <circle class="cls-1" cx="571.12" cy="263.27" r="2.5"/>
    <circle class="cls-1" cx="594.36" cy="275.95" r="2.5"/>
    <circle class="cls-1" cx="575.57" cy="294.33" r="2.5"/>
    <circle class="cls-1" cx="613.9" cy="309.44" r="2.5"/>
    <circle class="cls-1" cx="587.04" cy="326.2" r="2.5"/>
    <circle class="cls-1" cx="594.96" cy="343.47" r="2.5"/>
    <circle class="cls-1" cx="572.89" cy="356.93" r="2.5"/>
    <circle class="cls-1" cx="557.72" cy="369.57" r="2.5"/>
    <circle class="cls-1" cx="601.89" cy="398.06" r="2.5"/>
    <circle class="cls-1" cx="559.58" cy="401.96" r="2.5"/>
    <circle class="cls-1" cx="581.71" cy="428.39" r="2.5"/>
    <circle class="cls-1" cx="546.4" cy="430.2" r="2.5"/>
    <circle class="cls-1" cx="573.74" cy="463.93" r="2.5"/>
    <circle class="cls-1" cx="522.6" cy="451.67" r="2.5"/>
    <circle class="cls-1" cx="527.94" cy="474.36" r="2.5"/>
    <circle class="cls-1" cx="518.85" cy="487.63" r="2.5"/>
    <circle class="cls-1" cx="530.77" cy="521.25" r="2.5"/>
    <circle class="cls-1" cx="483.98" cy="497.2" r="2.5"/>
    <circle class="cls-1" cx="495.07" cy="534.23" r="2.5"/>
    <circle class="cls-1" cx="471.7" cy="531.07" r="2.5"/>
    <circle class="cls-1" cx="475.44" cy="566.75" r="2.5"/>
    <circle class="cls-1" cx="439.66" cy="539.42" r="2.5"/>
    <circle class="cls-1" cx="422.43" cy="539.23" r="2.5"/>
    <circle class="cls-1" cx="423.12" cy="580.35" r="2.5"/>
    <circle class="cls-1" cx="402.29" cy="572.64" r="2.5"/>
    <circle class="cls-1" cx="393.74" cy="603.12" r="2.5"/>
    <circle class="cls-1" cx="371.58" cy="585.14" r="2.5"/>
    <circle class="cls-1" cx="356.27" cy="594.8" r="2.5"/>
    <circle class="cls-1" cx="337.1" cy="571.33" r="2.5"/>
    <circle class="cls-1" cx="321.41" cy="563.82" r="2.5"/>
    <circle class="cls-1" cx="304.96" cy="613.8" r="2.5"/>
    <circle class="cls-1" cx="291" cy="568.75" r="2.5"/>
    <circle class="cls-1" cx="270.49" cy="602.15" r="2.5"/>
    <circle class="cls-1" cx="260.1" cy="567.18" r="2.5"/>
    <circle class="cls-1" cx="240" cy="581.82" r="2.5"/>
    <circle class="cls-1" cx="233.11" cy="550.58" r="2.5"/>
    <circle class="cls-1" cx="208.06" cy="572.25" r="2.5"/>
    <circle class="cls-1" cx="183.77" cy="584.22" r="2.5"/>
    <circle class="cls-1" cx="180.47" cy="553.29" r="2.5"/>
    <circle class="cls-1" cx="179.33" cy="524.64" r="2.5"/>
    <circle class="cls-1" cx="137.6" cy="556.64" r="2.5"/>
    <circle class="cls-1" cx="146.2" cy="517.93" r="2.5"/>
    <circle class="cls-1" cx="143.89" cy="497.2" r="2.5"/>
    <circle class="cls-1" cx="97.09" cy="521.25" r="2.5"/>
    <circle class="cls-1" cx="123.22" cy="475.58" r="2.5"/>
    <circle class="cls-1" cx="73.89" cy="493.88" r="2.5"/>
    <circle class="cls-1" cx="87.02" cy="463.72" r="2.5"/>
    <circle class="cls-1" cx="97.39" cy="438.95" r="2.5"/>
    <circle class="cls-1" cx="45.62" cy="448.13" r="2.5"/>
    <circle class="cls-1" cx="83.99" cy="412.21" r="2.5"/>
    <circle class="cls-1" cx="49.11" cy="408.83" r="2.5"/>
    <circle class="cls-1" cx="60.45" cy="387.99" r="2.5"/>
    <circle class="cls-1" cx="21.45" cy="380.69" r="2.5"/>
    <circle class="cls-1" cx="67.27" cy="354.89" r="2.5"/>
    <circle class="cls-1" cx="27.8" cy="344.01" r="2.5"/>
    <circle class="cls-1" cx="14.23" cy="327.39" r="2.5"/>
    <circle class="cls-1" cx="41.19" cy="309.85" r="2.5"/>
    <circle class="cls-1" cx="14.77" cy="291.51" r="2.5"/>
    <circle class="cls-1" cx="56.24" cy="279.03" r="2.5"/>
    <circle class="cls-1" cx="55.86" cy="263.1" r="2.5"/>
    <circle class="cls-1" cx="23.58" cy="238.46" r="2.5"/>
    <circle class="cls-1" cx="62.68" cy="232.3" r="2.5"/>
    <circle class="cls-1" cx="81.15" cy="222.57" r="2.5"/>
    <circle class="cls-1" cx="54.54" cy="193.57" r="2.5"/>
    <circle class="cls-1" cx="80.4" cy="188.26" r="2.5"/>
    <circle class="cls-1" cx="58.73" cy="156.23" r="2.5"/>
    <circle class="cls-1" cx="100.84" cy="163.93" r="2.5"/>
    <circle class="cls-1" cx="86.91" cy="132.88" r="2.5"/>
    <circle class="cls-1" cx="128.15" cy="146.65" r="2.5"/>
    <circle class="cls-1" cx="103.39" cy="100.22" r="2.5"/>
    <circle class="cls-1" cx="149.45" cy="125.66" r="2.5"/>
    <circle class="cls-1" cx="135.41" cy="83.07" r="2.5"/>
    <circle class="cls-1" cx="164.96" cy="95.43" r="2.5"/>
    <circle class="cls-1" cx="160.06" cy="56.4" r="2.5"/>
    <circle class="cls-1" cx="175.74" cy="47.66" r="2.5"/>
    <circle class="cls-1" cx="212.22" cy="85.49" r="2.5"/>
    <circle class="cls-1" cx="218.28" cy="59.06" r="2.5"/>
    <circle class="cls-1" cx="234.9" cy="57.72" r="2.5"/>
    <circle class="cls-1" cx="248.81" cy="47.07" r="2.5"/>
    <circle class="cls-1" cx="260.36" cy="18.75" r="2.5"/>
    <circle class="cls-1" cx="284.08" cy="65.7" r="2.5"/>
    <circle class="cls-1" cx="298.09" cy="49.56" r="2.5"/>
  </g>
</svg>