<?xml version="1.0" encoding="UTF-8"?>
<svg xmlns="http://www.w3.org/2000/svg" viewBox="0 0 1783.74 350">
  <defs>
    <style>
      .cls-1 {
        fill: #60889a;
      }

      .cls-2 {
        fill: none;
        stroke: #60889a;
        stroke-miterlimit: 10;
        stroke-width: 4px;
      }
    </style>
  </defs>
  <g id="Lines">
    <line class="cls-2" x1="90" y1="208.62" x2="10" y2="55"/>
    <line class="cls-2" x1="90" y1="208.62" x2="10" y2="115"/>
    <line class="cls-2" x1="170" y1="75" x2="90" y2="208.62"/>
    <line class="cls-2" x1="250" y1="295" x2="90" y2="208.62"/>
    <line class="cls-2" x1="330" y1="217.67" x2="10" y2="55"/>
    <line class="cls-2" x1="330" y1="217.67" x2="10" y2="115"/>
    <line class="cls-2" x1="410" y1="145" x2="90" y2="208.62"/>
    <line class="cls-2" x1="490" y1="55" x2="410" y2="145"/>
    <line class="cls-2" x1="490" y1="55" x2="90" y2="208.62"/>
    <line class="cls-2" x1="570" y1="264.67" x2="410" y2="145"/>
    <line class="cls-2" x1="570" y1="264.67" x2="330" y2="217.67"/>
    <line class="cls-2" x1="570" y1="264.67" x2="250" y2="295"/>
    <line class="cls-2" x1="730" y1="186.33" x2="410" y2="145"/>
    <line class="cls-2" x1="730" y1="186.33" x2="330" y2="217.67"/>
    <line class="cls-2" x1="810" y1="275" x2="730" y2="186.33"/>
    <line class="cls-2" x1="810" y1="275" x2="410" y2="145"/>
    <line class="cls-2" x1="890" y1="87" x2="490" y2="55"/>
    <line class="cls-2" x1="970" y1="195" x2="810" y2="275"/>
    <line class="cls-2" x1="1050" y1="295" x2="650" y2="105"/>
    <line class="cls-2" x1="1130" y1="55" x2="1050" y2="295"/>
    <line class="cls-2" x1="1130" y1="55" x2="970" y2="195"/>
    <line class="cls-2" x1="1210" y1="175" x2="1130" y2="55"/>
    <line class="cls-2" x1="1210" y1="175" x2="1050" y2="295"/>
    <line class="cls-2" x1="1210" y1="175" x2="890" y2="87"/>
    <line class="cls-2" x1="1370" y1="73" x2="1290" y2="275"/>
    <line class="cls-2" x1="1370" y1="73" x2="1130" y2="55"/>
    <line class="cls-2" x1="1450" y1="175" x2="1370" y2="73"/>
    <line class="cls-2" x1="1450" y1="175" x2="1290" y2="275"/>
    <line class="cls-2" x1="1450" y1="175" x2="1050" y2="295"/>
    <line class="cls-2" x1="1530" y1="295" x2="1450" y2="175"/>
    <line class="cls-2" x1="1530" y1="295" x2="1290" y2="275"/>
    <line class="cls-2" x1="1610" y1="55" x2="1450" y2="175"/>
    <line class="cls-2" x1="1690" y1="295" x2="1610" y2="55"/>
    <line class="cls-2" x1="1770" y1="173" x2="1530" y2="295"/>
    <line class="cls-2" x1="1770" y1="173" x2="1370" y2="73"/>
  </g>
  <g id="Dots">
    <circle class="cls-1" cx="10" cy="295" r="10"/>
    <circle class="cls-1" cx="10" cy="235" r="10"/>
    <circle class="cls-1" cx="10" cy="175" r="10"/>
    <circle class="cls-1" cx="10" cy="115" r="10"/>
    <circle class="cls-1" cx="10" cy="55" r="10"/>
    <circle class="cls-1" cx="90" cy="208.62" r="10"/>
    <circle class="cls-1" cx="170" cy="75" r="10"/>
    <circle class="cls-1" cx="250" cy="295" r="10"/>
    <circle class="cls-1" cx="330" cy="217.67" r="10"/>
    <circle class="cls-1" cx="410" cy="145" r="10"/>
    <circle class="cls-1" cx="490" cy="55" r="10"/>
    <circle class="cls-1" cx="570" cy="264.67" r="10"/>
    <circle class="cls-1" cx="650" cy="105" r="10"/>
    <circle class="cls-1" cx="730" cy="186.33" r="10"/>
    <circle class="cls-1" cx="810" cy="275" r="10"/>
    <circle class="cls-1" cx="890" cy="87" r="10"/>
    <circle class="cls-1" cx="970" cy="195" r="10"/>
    <circle class="cls-1" cx="1050" cy="295" r="10"/>
    <circle class="cls-1" cx="1130" cy="55" r="10"/>
    <circle class="cls-1" cx="1210" cy="175" r="10"/>
    <circle class="cls-1" cx="1290" cy="275" r="10"/>
    <circle class="cls-1" cx="1370" cy="73" r="10"/>
    <circle class="cls-1" cx="1450" cy="175" r="10"/>
    <circle class="cls-1" cx="1530" cy="295" r="10"/>
    <circle class="cls-1" cx="1610" cy="55" r="10"/>
    <circle class="cls-1" cx="1690" cy="295" r="10"/>
    <circle class="cls-1" cx="1770" cy="173" r="10"/>
  </g>
  <g id="Text">
    <path d="M78.52,254.62v-28.4h3.32l1.48,7.4v21h-4.8ZM98.56,254.62l-16.44-21.2-3.52-7.2h3.24l15.76,20.12,3.8,8.28h-2.84ZM98.56,254.62l-1.88-8.6v-19.8h4.84v28.4h-2.96Z"/>
    <path d="M161.14,57v-28.4h4.84v28.4h-4.84ZM161.98,32.88v-4.28h18.6v4.28h-18.6ZM161.98,44.56v-4h17.28v4h-17.28ZM161.98,57v-4.28h18.6v4.28h-18.6Z"/>
    <path d="M479.64,37V8.6h4.84v28.4h-4.84ZM481.16,26.72v-3.92h14l-.92,3.92h-13.08ZM494.4,26.24l-2.08-3.32c1.55-.37,2.8-1.02,3.76-1.94s1.44-2.09,1.44-3.5c0-1.52-.46-2.68-1.38-3.48s-2.21-1.2-3.86-1.2h-8.56v-4.2h8.76c2.16,0,3.97.36,5.44,1.08,1.47.72,2.58,1.73,3.34,3.02.76,1.29,1.14,2.79,1.14,4.5,0,1.44-.33,2.76-1,3.96-.67,1.2-1.59,2.23-2.78,3.08-1.19.85-2.59,1.52-4.22,2ZM497.8,37l-7.72-12.36,5.56-.16,7,11.56v.96h-4.84Z"/>
    <path d="M238.64,316.92v-4.32h22.72v4.32h-22.72ZM247.6,341v-28.4h4.88v28.4h-4.88Z"/>
    <path d="M318.84,263.67l-5.32-27.56v-.84h4.76l4.16,20.68-.08,7.72h-3.52ZM318.92,263.67l1.68-4.72,8.76-19.2h2.12l8.8,19.24,1.56,4.68h-3.72l-7.92-16.88-.56-1.8h1.52l-.64,1.8-7.88,16.88h-3.72ZM338.48,263.67l-.08-7.72,4.16-20.68h4.76v.84l-5.4,27.56h-3.44Z"/>
    <path d="M410,191.44c-2,0-3.83-.33-5.48-.98-1.65-.65-3.09-1.61-4.3-2.86s-2.15-2.79-2.8-4.6c-.65-1.81-.98-3.89-.98-6.24s.33-4.38.98-6.18c.65-1.8,1.59-3.33,2.8-4.58,1.21-1.25,2.65-2.21,4.3-2.86,1.65-.65,3.48-.98,5.48-.98s3.83.33,5.48.98c1.65.65,3.08,1.61,4.28,2.86,1.2,1.25,2.13,2.78,2.78,4.58.65,1.8.98,3.86.98,6.18s-.33,4.43-.98,6.24c-.65,1.81-1.58,3.35-2.78,4.6-1.2,1.25-2.63,2.21-4.28,2.86-1.65.65-3.48.98-5.48.98ZM410.04,187.24c1.23,0,2.36-.23,3.4-.7,1.04-.47,1.95-1.14,2.72-2.02.77-.88,1.37-1.97,1.8-3.26.43-1.29.64-2.79.64-4.5s-.21-3.12-.64-4.4c-.43-1.28-1.02-2.37-1.78-3.26-.76-.89-1.67-1.57-2.72-2.04-1.05-.47-2.19-.7-3.42-.7-1.28.03-2.45.27-3.5.72-1.05.45-1.97,1.13-2.74,2.02-.77.89-1.37,1.98-1.8,3.26-.43,1.28-.64,2.75-.64,4.4s.21,3.21.64,4.5c.43,1.29,1.03,2.38,1.8,3.26s1.69,1.55,2.74,2.02c1.05.47,2.22.7,3.5.7Z"/>
    <path d="M559.8,311v-28.4h4.92v28.4h-4.92ZM562.56,298.88l15.56-16.28h5v.96l-14.52,15.32h-6.04ZM562.68,298.88l6.84-4.24.52,4.24h-7.36ZM578.2,311l-12.84-14.76,4.96-1.72,13.24,15.52v.96h-5.36Z"/>
    <path d="M799.64,321v-28.4h4.84v28.4h-4.84ZM801.16,310.72v-3.92h14l-.92,3.92h-13.08ZM814.4,310.24l-2.08-3.32c1.55-.37,2.8-1.02,3.76-1.94s1.44-2.09,1.44-3.5c0-1.52-.46-2.68-1.38-3.48s-2.21-1.2-3.86-1.2h-8.56v-4.2h8.76c2.16,0,3.97.36,5.44,1.08s2.58,1.73,3.34,3.02c.76,1.29,1.14,2.79,1.14,4.5,0,1.44-.33,2.76-1,3.96-.67,1.2-1.59,2.23-2.78,3.08s-2.59,1.52-4.22,2ZM817.8,321l-7.72-12.36,5.56-.16,7,11.56v.96h-4.84Z"/>
    <path d="M704.84,232.33l-5.32-27.56v-.84h4.76l4.16,20.68-.08,7.72h-3.52ZM704.92,232.33l1.68-4.72,8.76-19.2h2.12l8.8,19.24,1.56,4.68h-3.72l-7.92-16.88-.56-1.8h1.52l-.64,1.8-7.88,16.88h-3.72ZM724.48,232.33l-.08-7.72,4.16-20.68h4.76v.84l-5.4,27.56h-3.44Z"/>
    <g>
      <path d="M579.42,141.33c-1.06,0-2.05-.07-2.98-.2s-1.81-.3-2.65-.52l.6-2.91c.76.18,1.56.32,2.39.42.83.1,1.67.15,2.5.15.78,0,1.42-.08,1.92-.23s.86-.36,1.1-.65c.23-.28.34-.6.34-.96,0-.5-.15-.88-.44-1.15s-.75-.47-1.36-.58l-2.43-.54c-1-.24-1.83-.57-2.5-.99-.67-.42-1.17-.93-1.48-1.53-.32-.6-.48-1.26-.48-1.98,0-1.04.27-1.92.82-2.66.55-.73,1.35-1.29,2.42-1.68,1.06-.39,2.32-.58,3.78-.58.92,0,1.82.05,2.71.15.89.1,1.77.26,2.65.48l-.63,2.94c-.74-.16-1.5-.29-2.26-.38-.77-.09-1.52-.14-2.24-.14s-1.35.07-1.81.2c-.47.13-.82.32-1.05.57-.23.25-.35.58-.35.98,0,.48.15.84.44,1.08.29.24.71.42,1.27.54l2.85.57c1.3.3,2.32.82,3.06,1.56.74.74,1.11,1.73,1.11,2.97,0,.8-.15,1.52-.45,2.15-.3.63-.76,1.17-1.37,1.6-.61.44-1.37.77-2.28.99-.91.22-1.98.33-3.2.33Z"/>
      <path d="M590.82,146.43v-21.36h2.67l1.44,2.64v18.72h-4.11ZM599.16,141.33c-1.08,0-2.08-.16-3.01-.46-.93-.31-1.8-.69-2.6-1.16l1.05-2.31c.54.2,1.1.36,1.68.48s1.18.18,1.8.18c.84,0,1.57-.19,2.2-.57.63-.38,1.11-.95,1.46-1.7.34-.75.51-1.68.51-2.8,0-.84-.09-1.58-.25-2.21-.17-.63-.42-1.15-.74-1.54s-.72-.71-1.2-.92-1.01-.32-1.59-.32c-.68,0-1.42.15-2.22.45-.8.3-1.54.83-2.22,1.59l-.45-1.98c.6-.84,1.24-1.5,1.94-1.98.69-.48,1.39-.82,2.11-1.03s1.42-.31,2.1-.31c.98,0,1.88.17,2.69.51.81.34,1.51.85,2.1,1.53.59.68,1.04,1.52,1.36,2.52.32,1,.48,2.18.48,3.54,0,1.8-.3,3.33-.88,4.59-.59,1.26-1.43,2.23-2.51,2.9-1.08.67-2.35,1-3.81,1Z"/>
      <path d="M614.25,141.33c-.98,0-1.85-.2-2.6-.58-.75-.39-1.33-.95-1.74-1.67-.41-.72-.62-1.56-.62-2.52,0-.78.11-1.46.35-2.04.23-.58.58-1.08,1.06-1.5s1.08-.74,1.81-.96c.73-.22,1.58-.35,2.56-.39l5.19-.18v2.4l-4.74.18c-.52.02-.96.15-1.31.38-.35.23-.61.52-.78.85-.17.34-.26.67-.26.99,0,.42.09.79.27,1.12.18.33.45.58.81.75s.81.25,1.35.25c.84,0,1.61-.17,2.31-.51.7-.34,1.36-.71,1.98-1.11l.3,1.68c-.52.54-1.09,1.03-1.73,1.46-.63.43-1.3.77-2.01,1.02-.71.25-1.46.38-2.23.38ZM620.76,141l-1.44-2.58v-7.02c0-.52-.06-.99-.19-1.42-.13-.43-.35-.8-.66-1.11s-.73-.54-1.26-.71c-.53-.16-1.2-.24-2-.24-.74,0-1.48.06-2.21.17-.73.11-1.47.27-2.21.46l-.57-3.03c.86-.24,1.79-.43,2.79-.57,1-.14,1.98-.21,2.94-.21,1.42,0,2.6.15,3.55.46s1.71.75,2.3,1.33c.58.58.99,1.28,1.24,2.1.25.82.38,1.75.38,2.79v9.57h-2.67Z"/>
      <path d="M636.09,141.33c-1.42,0-2.66-.2-3.72-.58-1.06-.39-1.95-.96-2.65-1.7-.71-.74-1.25-1.62-1.61-2.64-.36-1.02-.54-2.17-.54-3.45s.19-2.4.57-3.42c.38-1.02.93-1.88,1.65-2.6.72-.71,1.61-1.25,2.69-1.63,1.07-.38,2.28-.57,3.65-.57.78,0,1.52.06,2.23.16.71.11,1.37.27,1.97.47l-.75,3.12c-.48-.14-.98-.25-1.49-.32-.51-.07-1.05-.1-1.6-.1-.78,0-1.47.11-2.07.33-.6.22-1.11.54-1.52.96-.41.42-.72.94-.93,1.56-.21.62-.32,1.33-.32,2.13s.1,1.54.3,2.15c.2.61.51,1.12.93,1.55.42.42.93.73,1.53.94s1.29.31,2.07.31c.6,0,1.17-.04,1.73-.12.55-.08,1.08-.19,1.6-.33l.72,3.09c-.66.2-1.36.36-2.08.49-.73.13-1.52.2-2.35.2Z"/>
      <path d="M652.49,141.33c-2.04,0-3.73-.33-5.05-.99-1.33-.66-2.33-1.6-3-2.82-.67-1.22-1-2.66-1-4.32s.33-3.15.99-4.43c.66-1.27,1.59-2.26,2.81-2.97,1.21-.71,2.65-1.06,4.33-1.06,1.12,0,2.1.16,2.94.48s1.53.78,2.08,1.38c.55.6.96,1.31,1.21,2.13.26.82.39,1.75.39,2.79v2.7l-12.6.03v-2.49h9.63l-.72,1.32v-1.89c0-.42-.04-.81-.1-1.17-.07-.36-.18-.67-.33-.94s-.35-.5-.58-.69c-.24-.19-.52-.33-.84-.43-.32-.1-.69-.15-1.11-.15-.8,0-1.5.2-2.11.58-.61.39-1.08.99-1.41,1.79-.33.8-.5,1.81-.5,3.03,0,1.14.19,2.08.56,2.83.37.75.95,1.31,1.74,1.68.79.37,1.77.56,2.95.56.78,0,1.52-.05,2.22-.17.7-.11,1.42-.26,2.16-.46l.66,2.79c-.82.28-1.69.5-2.61.66-.92.16-1.82.24-2.7.24Z"/>
    </g>
    <path d="M887.58,133v-28.4h4.84v28.4h-4.84Z"/>
    <path d="M958.64,216.92v-4.32h22.72v4.32h-22.72ZM967.6,241v-28.4h4.88v28.4h-4.88Z"/>
    <path d="M1047.58,341v-28.4h4.84v28.4h-4.84Z"/>
    <path d="M1118.52,37V8.6h3.32l1.48,7.4v21h-4.8ZM1138.56,37l-16.44-21.2-3.52-7.2h3.24l15.76,20.12,3.8,8.28h-2.84ZM1138.56,37l-1.88-8.6V8.6h4.84v28.4h-2.96Z"/>
    <path d="M1212.26,221.44c-2.35,0-4.43-.34-6.26-1.02-1.83-.68-3.36-1.66-4.6-2.94s-2.19-2.82-2.84-4.62c-.65-1.8-.98-3.83-.98-6.1s.35-4.39,1.06-6.2c.71-1.81,1.73-3.34,3.06-4.58,1.33-1.24,2.94-2.19,4.82-2.84,1.88-.65,3.99-.98,6.34-.98,1.25,0,2.51.08,3.76.24,1.25.16,2.53.43,3.84.8l-.96,4.04c-1.04-.29-2.1-.5-3.18-.62s-2.19-.18-3.34-.18c-1.73,0-3.25.24-4.56.72s-2.4,1.17-3.28,2.08c-.88.91-1.55,2-2,3.28-.45,1.28-.68,2.71-.68,4.28,0,2.11.37,3.95,1.1,5.52.73,1.57,1.82,2.79,3.26,3.64,1.44.85,3.24,1.28,5.4,1.28.75,0,1.49-.04,2.24-.12s1.45-.19,2.12-.32v-7l-6.12-1.84v-2.44h10.52v14.56c-.93.29-1.91.55-2.92.76-1.01.21-2.01.37-3,.46-.99.09-1.92.14-2.8.14Z"/>
    <g>
      <path d="M1253.42,311.33c-1.06,0-2.05-.07-2.99-.2s-1.82-.3-2.66-.53l.6-2.91c.76.18,1.56.32,2.39.42.83.1,1.67.15,2.5.15.78,0,1.42-.08,1.92-.22.5-.15.87-.37,1.1-.65.23-.28.34-.6.34-.96,0-.5-.14-.88-.43-1.15-.29-.27-.75-.47-1.36-.58l-2.43-.54c-1-.24-1.83-.57-2.5-.99s-1.17-.93-1.48-1.53c-.32-.6-.48-1.26-.48-1.98,0-1.04.27-1.92.82-2.66.55-.73,1.36-1.29,2.42-1.68,1.06-.39,2.32-.58,3.78-.58.92,0,1.83.05,2.71.15.89.1,1.78.26,2.66.48l-.63,2.94c-.74-.16-1.5-.29-2.26-.38-.77-.09-1.51-.13-2.24-.13s-1.35.07-1.81.2c-.47.13-.82.32-1.05.57-.23.25-.34.58-.34.98,0,.48.15.84.43,1.08.29.24.71.42,1.28.54l2.85.57c1.3.3,2.32.82,3.06,1.56s1.11,1.73,1.11,2.97c0,.8-.15,1.51-.45,2.14-.3.63-.76,1.17-1.37,1.61-.61.44-1.37.77-2.28.99-.91.22-1.98.33-3.2.33Z"/>
      <path d="M1264.82,316.43v-21.36h2.67l1.44,2.64v18.72h-4.11ZM1273.16,311.33c-1.08,0-2.08-.16-3.01-.46-.93-.31-1.79-.7-2.6-1.16l1.05-2.31c.54.2,1.1.36,1.68.48s1.18.18,1.8.18c.84,0,1.57-.19,2.2-.57s1.11-.95,1.46-1.7c.34-.75.51-1.68.51-2.8,0-.84-.09-1.58-.26-2.21-.17-.63-.42-1.15-.73-1.54-.32-.4-.72-.71-1.2-.92s-1.01-.32-1.59-.32c-.68,0-1.42.15-2.22.45-.8.3-1.54.83-2.22,1.59l-.45-1.98c.6-.84,1.24-1.5,1.93-1.98.69-.48,1.39-.83,2.11-1.04.72-.21,1.42-.31,2.1-.31.98,0,1.88.17,2.68.51.81.34,1.51.85,2.1,1.53.59.68,1.04,1.52,1.36,2.52s.48,2.18.48,3.54c0,1.8-.29,3.33-.88,4.59s-1.43,2.23-2.51,2.9c-1.08.67-2.35,1-3.81,1Z"/>
      <path d="M1288.25,311.33c-.98,0-1.85-.2-2.6-.58-.75-.39-1.33-.95-1.74-1.67-.41-.72-.62-1.56-.62-2.52,0-.78.12-1.46.35-2.04.23-.58.58-1.08,1.06-1.5.48-.42,1.08-.74,1.82-.96.73-.22,1.58-.35,2.57-.39l5.19-.18v2.4l-4.74.18c-.52.02-.96.15-1.3.38-.35.23-.61.52-.78.86-.17.34-.26.67-.26.99,0,.42.09.79.27,1.12.18.33.45.58.81.75s.81.25,1.35.25c.84,0,1.61-.17,2.31-.51.7-.34,1.36-.71,1.98-1.11l.3,1.68c-.52.54-1.09,1.03-1.72,1.46-.63.43-1.3.77-2.01,1.02-.71.25-1.46.38-2.23.38ZM1294.76,311l-1.44-2.58v-7.02c0-.52-.07-.99-.19-1.42-.13-.43-.35-.8-.66-1.11s-.73-.54-1.26-.71c-.53-.16-1.2-.24-2-.24-.74,0-1.47.05-2.21.17s-1.46.26-2.21.46l-.57-3.03c.86-.24,1.79-.43,2.79-.57s1.98-.21,2.94-.21c1.42,0,2.61.15,3.55.46.95.31,1.71.75,2.3,1.33.58.58,1,1.28,1.25,2.1.25.82.38,1.75.38,2.79v9.57h-2.67Z"/>
      <path d="M1310.09,311.33c-1.42,0-2.66-.2-3.72-.58-1.06-.39-1.95-.96-2.65-1.7-.71-.74-1.25-1.62-1.61-2.64-.36-1.02-.54-2.17-.54-3.45s.19-2.4.57-3.42c.38-1.02.93-1.88,1.65-2.6.72-.71,1.62-1.25,2.69-1.63,1.07-.38,2.28-.57,3.64-.57.78,0,1.53.05,2.23.16.71.11,1.37.27,1.97.47l-.75,3.12c-.48-.14-.98-.25-1.49-.32s-1.04-.11-1.61-.11c-.78,0-1.47.11-2.07.33-.6.22-1.11.54-1.51.96-.41.42-.72.94-.93,1.56-.21.62-.32,1.33-.32,2.13s.1,1.54.3,2.14c.2.61.51,1.12.93,1.55.42.42.93.73,1.53.94s1.29.32,2.07.32c.6,0,1.18-.04,1.73-.12s1.08-.19,1.6-.33l.72,3.09c-.66.2-1.36.37-2.08.5-.73.13-1.51.2-2.35.2Z"/>
      <path d="M1326.49,311.33c-2.04,0-3.72-.33-5.05-.99s-2.33-1.6-3-2.82c-.67-1.22-1-2.66-1-4.32s.33-3.16.99-4.43c.66-1.27,1.59-2.26,2.81-2.97,1.21-.71,2.65-1.06,4.33-1.06,1.12,0,2.1.16,2.94.48.84.32,1.53.78,2.08,1.38.55.6.96,1.31,1.21,2.13.26.82.39,1.75.39,2.79v2.7l-12.6.03v-2.49h9.63l-.72,1.32v-1.89c0-.42-.04-.81-.1-1.17-.07-.36-.18-.67-.33-.94-.15-.27-.35-.5-.59-.69-.24-.19-.52-.33-.84-.43-.32-.1-.69-.15-1.11-.15-.8,0-1.51.2-2.12.58-.61.39-1.08.99-1.41,1.79s-.5,1.81-.5,3.03c0,1.14.18,2.08.56,2.83.37.75.95,1.31,1.74,1.68.79.37,1.77.55,2.95.55.78,0,1.52-.05,2.22-.17.7-.11,1.42-.26,2.16-.46l.66,2.79c-.82.28-1.69.5-2.61.66s-1.82.24-2.7.24Z"/>
    </g>
    <path d="M1369.26,55.44c-1.6,0-3.19-.1-4.76-.3-1.57-.2-3.12-.5-4.64-.9l.88-4.04c1.44.35,2.86.61,4.26.8,1.4.19,2.79.28,4.18.28,1.6,0,2.9-.18,3.9-.54,1-.36,1.73-.86,2.18-1.5.45-.64.68-1.41.68-2.32,0-.56-.09-1.07-.26-1.52-.17-.45-.42-.83-.74-1.14-.32-.31-.71-.56-1.16-.76-.45-.2-.97-.35-1.56-.46l-5.2-.92c-.91-.16-1.78-.41-2.62-.76-.84-.35-1.57-.83-2.2-1.44-.63-.61-1.13-1.37-1.52-2.26-.39-.89-.58-1.94-.58-3.14,0-1.92.48-3.49,1.44-4.72.96-1.23,2.27-2.14,3.94-2.74,1.67-.6,3.55-.9,5.66-.9,1.39,0,2.81.09,4.28.26,1.47.17,2.87.45,4.2.82l-.92,4.08c-.77-.21-1.57-.39-2.38-.54-.81-.15-1.63-.26-2.46-.34-.83-.08-1.71-.12-2.64-.12-1.23,0-2.31.13-3.26.4-.95.27-1.69.7-2.22,1.3s-.8,1.43-.8,2.5c0,.64.11,1.2.32,1.68.21.48.52.87.92,1.16.4.29.85.49,1.36.6l7,1.2c.91.13,1.74.38,2.5.74.76.36,1.42.84,1.98,1.44.56.6,1,1.35,1.32,2.26.32.91.48,2.03.48,3.36,0,1.87-.48,3.43-1.44,4.7-.96,1.27-2.3,2.21-4.02,2.84s-3.75.94-6.1.94Z"/>
    <path d="M1448.08,148.28l-10.88-18.68v-1h4.76l8.2,14.64.28,1.04h-.76l.2-1.04,8.24-14.64h4.64v1l-10.8,18.68h-3.88ZM1447.6,157v-12.08h4.88v12.08h-4.88Z"/>
    <path d="M1529.26,341.44c-1.6,0-3.19-.1-4.76-.3s-3.12-.5-4.64-.9l.88-4.04c1.44.35,2.86.61,4.26.8s2.79.28,4.18.28c1.6,0,2.9-.18,3.9-.54,1-.36,1.73-.86,2.18-1.5.45-.64.68-1.41.68-2.32,0-.56-.09-1.07-.26-1.52-.17-.45-.42-.83-.74-1.14-.32-.31-.71-.56-1.16-.76-.45-.2-.97-.35-1.56-.46l-5.2-.92c-.91-.16-1.78-.41-2.62-.76-.84-.35-1.57-.83-2.2-1.44-.63-.61-1.13-1.37-1.52-2.26s-.58-1.94-.58-3.14c0-1.92.48-3.49,1.44-4.72.96-1.23,2.27-2.14,3.94-2.74,1.67-.6,3.55-.9,5.66-.9,1.39,0,2.81.09,4.28.26,1.47.17,2.87.45,4.2.82l-.92,4.08c-.77-.21-1.57-.39-2.38-.54-.81-.15-1.63-.26-2.46-.34-.83-.08-1.71-.12-2.64-.12-1.23,0-2.31.13-3.26.4-.95.27-1.69.7-2.22,1.3-.53.6-.8,1.43-.8,2.5,0,.64.11,1.2.32,1.68.21.48.52.87.92,1.16.4.29.85.49,1.36.6l7,1.2c.91.13,1.74.38,2.5.74.76.36,1.42.84,1.98,1.44s1,1.35,1.32,2.26c.32.91.48,2.03.48,3.36,0,1.87-.48,3.43-1.44,4.7-.96,1.27-2.3,2.21-4.02,2.84-1.72.63-3.75.94-6.1.94Z"/>
    <path d="M1598.64,12.92v-4.32h22.72v4.32h-22.72ZM1607.6,37V8.6h4.88v28.4h-4.88Z"/>
    <path d="M1681.14,341.44v-28.4h4.84v28.4h-4.84ZM1681.98,317.32v-4.28h18.6v4.28h-18.6ZM1681.98,329v-4h17.28v4h-17.28ZM1681.98,341.44v-4.28h18.6v4.28h-18.6Z"/>
    <path d="M1756.26,219v-28.4h3.48l1.32,9.64v18.76h-4.8ZM1768.94,211.32l-9.28-13.92-3.36-6.8h3.8l9.68,14.56,1.16,2.44h-1.8l1.12-2.44,9.64-14.56h3.8l-3.2,6.52-9.44,14.2h-2.12ZM1778.94,219v-18.8l1.28-9.6h3.52v28.4h-4.8Z"/>
  </g>
</svg>