<?xml version="1.0" encoding="UTF-8"?>
<svg id="Layer_2" data-name="Layer 2" xmlns="http://www.w3.org/2000/svg" width="320.41" height="226.67" viewBox="0 0 320.41 226.67">
  <defs>
    <style>
      .cls-1 {
        fill: none;
        stroke: #332019;
        stroke-miterlimit: 10;
        stroke-width: 10px;
      }
    </style>
  </defs>
  <path class="cls-1" d="M148.98,113.33c0,39.21,22.64,67.1,67.1,67.1,44.4,0,67.1-19.12,67.1-67.1,0-45.84-22.32-67.1-67.1-67.1-43.7,0-67.1,28.51-67.1,67.1Z"/>
  <path class="cls-1" d="M217.08,148.21c20.38,0,34.87-11.76,34.87-34.87,0-23.08-9.94-34.87-34.87-34.87s-34.87,11.6-34.87,34.87c0,22.71,14.81,34.87,34.87,34.87Z"/>
  <path class="cls-1" d="M124.98,111.88c0-28.17-15.75-43.43-45.24-43.43s-44.5,16.54-44.5,47.11c0,30.66,16.73,42.64,46.43,42.64,32.05,0,43.32-19.29,43.32-46.32Z"/>
  <path class="cls-1" d="M5,113.33c0,76.79,54.81,108.33,161.23,108.33s149.19-32.25,149.19-108.33c0-80.53-50.33-108.33-146.32-108.33C46.51,5,5,35.65,5,113.33Z"/>
</svg>