<?xml version="1.0" encoding="UTF-8"?>
<svg id="Layer_2" data-name="Layer 2" xmlns="http://www.w3.org/2000/svg" width="349.56" height="205.35" viewBox="0 0 349.56 205.35">
  <defs>
    <style>
      .cls-1 {
        fill: none;
        stroke: #332019;
        stroke-miterlimit: 10;
        stroke-width: 10px;
      }
    </style>
  </defs>
  <path class="cls-1" d="M139.21,102.68c0-39.21-22.64-67.1-67.1-67.1-44.4,0-67.1,19.12-67.1,67.1,0,45.84,22.32,67.1,67.1,67.1,43.7,0,67.1-28.51,67.1-67.1Z"/>
  <path class="cls-1" d="M71.1,67.8c-20.38,0-34.87,11.76-34.87,34.87,0,23.08,9.94,34.87,34.87,34.87s34.87-11.6,34.87-34.87c0-22.71-14.81-34.87-34.87-34.87Z"/>
  <path class="cls-1" d="M243.73,5c-61.31,0-94.52,34.29-94.52,98.48s36,96.87,102.53,96.87c66.73,0,92.82-36.41,92.82-101.07,0-69.76-41.99-94.29-100.83-94.29Z"/>
</svg>