<?xml version="1.0" encoding="UTF-8"?>
<svg id="Layer_2" data-name="Layer 2" xmlns="http://www.w3.org/2000/svg" width="164.21" height="263.95" viewBox="0 0 164.21 263.95">
  <defs>
    <style>
      .cls-1 {
        fill: #60889a;
      }

      .cls-2 {
        fill: #fff;
      }

      .cls-3 {
        fill: none;
        stroke: #332019;
        stroke-miterlimit: 10;
        stroke-width: 10px;
      }
    </style>
  </defs>
  <path class="cls-1" d="M82.1,126.98c26.03,0,44.87-18.85,44.87-44.87s-18.85-44.87-44.87-44.87-44.87,18.85-44.87,44.87,18.85,44.87,44.87,44.87Z"/>
  <path class="cls-2" d="M90.25,98.61l-2.58-8.04h-11.99l-2.54,8.04h-7.73v-.45l15.09-34.5h4l14.31,34.5v.45h-8.56ZM86.29,86.19l-4.69-14.62-4.56,14.62h9.25Z"/>
  <path class="cls-3" d="M37.23,214.08c0-26.22,15.14-44.87,44.87-44.87,29.69,0,44.87,12.79,44.87,44.87,0,30.66-14.92,44.87-44.87,44.87-29.23,0-44.87-19.06-44.87-44.87Z"/>
  <path class="cls-3" d="M79.62,159.21c-48.39,0-74.62-27.07-74.62-77.74S33.42,5,85.94,5s73.27,28.74,73.27,79.78c0,55.07-33.15,74.43-79.59,74.43Z"/>
</svg>