<?xml version="1.0" encoding="UTF-8"?>
<svg id="Layer_1" data-name="Layer 1" xmlns="http://www.w3.org/2000/svg" width="512" height="512" viewBox="0 0 512 512">
  <defs>
    <style>
      .cls-1 {
        fill: #d74c00;
      }
    </style>
  </defs>
  <path class="cls-1" d="M432.61,339.97c-31.32,0-52.44-18.94-52.44-56.81s21.12-56.81,52.44-56.81,52.44,18.94,52.44,56.81-21.12,56.81-52.44,56.81ZM0,198.68h332.84c6.55-79.39-28.4-137.65-134.01-127.45v88.85L0,104v94.68ZM64.09,314.48h269.47v-45.88c-81.57-1.46-105.6-14.57-107.79-50.25h-53.89c-2.18,35.69-26.22,48.8-107.79,50.25v45.88ZM163.14,441.93c25.49,0,50.98-9.47,69.92-29.13,18.94,19.66,44.43,29.13,69.92,29.13,10.2,0,20.39-1.46,30.59-4.37v-108.52c-32.77,32.05-68.46,43.7-100.51,43.7s-67.73-11.65-100.51-43.7v108.52c10.2,2.91,20.39,4.37,30.59,4.37ZM432.61,441.93c55.35,0,79.39-32.77,79.39-103.42v-164.6c0-70.65-24.03-103.42-79.39-103.42s-79.39,32.77-79.39,103.42v164.6c0,70.65,24.76,103.42,79.39,103.42Z"/>
</svg>