<?xml version="1.0" encoding="UTF-8"?>
<svg id="uuid-1799b701-29c2-47f9-b5db-23d36e4bc13c" data-name="Layer 1" xmlns="http://www.w3.org/2000/svg" width="512" height="512" viewBox="0 0 512 512">
  <defs>
    <style>
      .uuid-f3da7369-0129-48cd-9981-6b409cdedfed {
        fill: #d74c00;
      }
    </style>
  </defs>
  <path class="uuid-f3da7369-0129-48cd-9981-6b409cdedfed" d="M189.26,429.63c32.58,0,56.15-19.41,66.55-53.38,10.4,33.97,33.97,53.38,66.55,53.38,4.85,0,10.4-.69,14.56-1.39v-106.07c-27.04,10.4-53.38,14.56-81.11,14.56s-54.07-4.16-81.11-14.56v106.07c4.16.69,9.71,1.39,14.56,1.39Z"/>
  <path class="uuid-f3da7369-0129-48cd-9981-6b409cdedfed" d="M512,254.24v-73.43c0-67.25-22.88-98.44-75.57-98.44s-75.57,31.2-75.57,98.44v150.38c0,67.25,23.57,98.44,75.57,98.44s75.57-31.2,75.57-98.44v-29.81c-23.57,15.25-48.53,22.18-71.41,22.18-31.89,0-54.07-15.25-54.07-45.76s22.18-45.76,54.07-45.76c22.88,0,47.84,6.93,71.41,22.18Z"/>
  <path class="uuid-f3da7369-0129-48cd-9981-6b409cdedfed" d="M189.26,195.74c-4.85,0-10.4.69-14.56,1.39v106.07c27.04-10.4,53.38-14.56,81.11-14.56s54.07,4.16,81.11,14.56v-106.07c-4.16-.69-9.71-1.39-14.56-1.39-32.58,0-56.15,19.41-66.55,53.38-10.4-33.97-33.97-53.38-66.55-53.38Z"/>
  <path class="uuid-f3da7369-0129-48cd-9981-6b409cdedfed" d="M0,171.8h336.93v-27.73c-58.11-41.6-133.25-61.7-213.09-61.7-40.13,0-82.33,5.55-123.84,15.95v73.49Z"/>
  <path class="uuid-f3da7369-0129-48cd-9981-6b409cdedfed" d="M111.94,296.96c24.96,0,40.9-14.56,40.9-42.98s-15.95-42.98-40.9-42.98-40.9,14.56-40.9,42.98,15.95,42.98,40.9,42.98Z"/>
  <path class="uuid-f3da7369-0129-48cd-9981-6b409cdedfed" d="M111.94,414.38c24.96,0,40.9-14.56,40.9-42.98s-15.95-42.98-40.9-42.98-40.9,14.56-40.9,42.98,15.95,42.98,40.9,42.98Z"/>
</svg>