<?xml version="1.0" encoding="utf-8"?>
<!-- Generator: Adobe Illustrator 27.2.0, SVG Export Plug-In . SVG Version: 6.00 Build 0)  -->
<svg version="1.1" id="Layer_1" xmlns="http://www.w3.org/2000/svg" xmlns:xlink="http://www.w3.org/1999/xlink" x="0px" y="0px"
	 viewBox="0 0 900 975" style="enable-background:new 0 0 900 975;" xml:space="preserve">
<g>
	<circle cx="37.5" cy="937.5" r="37.5"/>
</g>
<g>
	<circle cx="112.5" cy="937.5" r="37.5"/>
</g>
<g>
	<circle cx="187.5" cy="937.5" r="37.5"/>
</g>
<g>
	<circle cx="337.5" cy="937.5" r="37.5"/>
</g>
<g>
	<circle cx="412.5" cy="937.5" r="37.5"/>
</g>
<g>
	<circle cx="562.5" cy="937.5" r="37.5"/>
</g>
<g>
	<circle cx="712.5" cy="937.5" r="37.5"/>
</g>
<g>
	<circle cx="787.5" cy="937.5" r="37.5"/>
</g>
<g>
	<path d="M37.5,825C16.79,825,0,841.79,0,862.5h75C75,841.79,58.21,825,37.5,825z"/>
</g>
<g>
	<circle cx="187.5" cy="862.5" r="37.5"/>
</g>
<g>
	<circle cx="112.5" cy="862.5" r="37.5"/>
</g>
<g>
	<path d="M262.5,900c20.71,0,37.5-16.79,37.5-37.5h-75C225,883.21,241.79,900,262.5,900z"/>
</g>
<g>
	<path d="M337.5,825c-20.71,0-37.5,16.79-37.5,37.5h75C375,841.79,358.21,825,337.5,825z"/>
</g>
<g>
	<path d="M487.5,900c20.71,0,37.5-16.79,37.5-37.5h-75C450,883.21,466.79,900,487.5,900z"/>
</g>
<g>
	<circle cx="412.5" cy="862.5" r="37.5"/>
</g>
<g>
	<path d="M637.5,900c20.71,0,37.5-16.79,37.5-37.5h-75C600,883.21,616.79,900,637.5,900z"/>
</g>
<g>
	<path d="M562.5,825c-20.71,0-37.5,16.79-37.5,37.5h75C600,841.79,583.21,825,562.5,825z"/>
</g>
<g>
	<path d="M712.5,825c-20.71,0-37.5,16.79-37.5,37.5h75C750,841.79,733.21,825,712.5,825z"/>
</g>
<g>
	<path d="M862.5,900c20.71,0,37.5-16.79,37.5-37.5h-75C825,883.21,841.79,900,862.5,900z"/>
</g>
<g>
	<circle cx="787.5" cy="862.5" r="37.5"/>
</g>
<g>
	<circle cx="187.5" cy="787.5" r="37.5"/>
</g>
<g>
	<path d="M262.5,825c20.71,0,37.5-16.79,37.5-37.5h-75C225,808.21,241.79,825,262.5,825z"/>
</g>
<g>
	<path d="M112.5,750C91.79,750,75,766.79,75,787.5h75C150,766.79,133.21,750,112.5,750z"/>
</g>
<g>
	<path d="M487.5,825c20.71,0,37.5-16.79,37.5-37.5h-75C450,808.21,466.79,825,487.5,825z"/>
</g>
<g>
	<circle cx="337.5" cy="787.5" r="37.5"/>
</g>
<g>
	<circle cx="562.5" cy="787.5" r="37.5"/>
</g>
<g>
	<path d="M412.5,750c-20.71,0-37.5,16.79-37.5,37.5h75C450,766.79,433.21,750,412.5,750z"/>
</g>
<g>
	<path d="M862.5,825c20.71,0,37.5-16.79,37.5-37.5h-75C825,808.21,841.79,825,862.5,825z"/>
</g>
<g>
	<circle cx="712.5" cy="787.5" r="37.5"/>
</g>
<g>
	<circle cx="37.5" cy="787.5" r="37.5"/>
</g>
<g>
	<path d="M787.5,750c-20.71,0-37.5,16.79-37.5,37.5h75C825,766.79,808.21,750,787.5,750z"/>
</g>
<g>
	<path d="M262.5,750c20.71,0,37.5-16.79,37.5-37.5h-75C225,733.21,241.79,750,262.5,750z"/>
</g>
<g>
	<path d="M187.5,675c-20.71,0-37.5,16.79-37.5,37.5h75C225,691.79,208.21,675,187.5,675z"/>
</g>
<g>
	<circle cx="562.5" cy="712.5" r="37.5"/>
</g>
<g>
	<circle cx="337.5" cy="712.5" r="37.5"/>
</g>
<g>
	<path d="M637.5,750c20.71,0,37.5-16.79,37.5-37.5h-75C600,733.21,616.79,750,637.5,750z"/>
</g>
<g>
	<circle cx="412.5" cy="712.5" r="37.5"/>
</g>
<g>
	<circle cx="37.5" cy="712.5" r="37.5"/>
</g>
<g>
	<path d="M712.5,675c-20.71,0-37.5,16.79-37.5,37.5h75C750,691.79,733.21,675,712.5,675z"/>
</g>
<g>
	<circle cx="112.5" cy="712.5" r="37.5"/>
</g>
<g>
	<circle cx="787.5" cy="712.5" r="37.5"/>
</g>
<g>
	<path d="M37.5,600C16.79,600,0,616.79,0,637.5h75C75,616.79,58.21,600,37.5,600z"/>
</g>
<g>
	<path d="M487.5,675c20.71,0,37.5-16.79,37.5-37.5h-75C450,658.21,466.79,675,487.5,675z"/>
</g>
<g>
	<path d="M637.5,675c20.71,0,37.5-16.79,37.5-37.5h-75C600,658.21,616.79,675,637.5,675z"/>
</g>
<g>
	<circle cx="337.5" cy="637.5" r="37.5"/>
</g>
<g>
	<circle cx="412.5" cy="637.5" r="37.5"/>
</g>
<g>
	<path d="M862.5,675c20.71,0,37.5-16.79,37.5-37.5h-75C825,658.21,841.79,675,862.5,675z"/>
</g>
<g>
	<path d="M562.5,600c-20.71,0-37.5,16.79-37.5,37.5h75C600,616.79,583.21,600,562.5,600z"/>
</g>
<g>
	<circle cx="112.5" cy="637.5" r="37.5"/>
</g>
<g>
	<circle cx="712.5" cy="637.5" r="37.5"/>
</g>
<g>
	<circle cx="187.5" cy="637.5" r="37.5"/>
</g>
<g>
	<path d="M787.5,600c-20.71,0-37.5,16.79-37.5,37.5h75C825,616.79,808.21,600,787.5,600z"/>
</g>
<g>
	<circle cx="37.5" cy="562.5" r="37.5"/>
</g>
<g>
	<path d="M487.5,600c20.71,0,37.5-16.79,37.5-37.5h-75C450,583.21,466.79,600,487.5,600z"/>
</g>
<g>
	<path d="M112.5,525C91.79,525,75,541.79,75,562.5h75C150,541.79,133.21,525,112.5,525z"/>
</g>
<g>
	<path d="M337.5,525c-20.71,0-37.5,16.79-37.5,37.5h75C375,541.79,358.21,525,337.5,525z"/>
</g>
<g>
	<circle cx="412.5" cy="562.5" r="37.5"/>
</g>
<g>
	<circle cx="562.5" cy="562.5" r="37.5"/>
</g>
<g>
	<circle cx="187.5" cy="562.5" r="37.5"/>
</g>
<g>
	<circle cx="712.5" cy="562.5" r="37.5"/>
</g>
<g>
	<path d="M262.5,600c20.71,0,37.5-16.79,37.5-37.5h-75C225,583.21,241.79,600,262.5,600z"/>
</g>
<g>
	<circle cx="787.5" cy="562.5" r="37.5"/>
</g>
<g>
	<path d="M487.5,525c20.71,0,37.5-16.79,37.5-37.5h-75C450,508.21,466.79,525,487.5,525z"/>
</g>
<g>
	<path d="M37.5,450C16.79,450,0,466.79,0,487.5h75C75,466.79,58.21,450,37.5,450z"/>
</g>
<g>
	<circle cx="562.5" cy="487.5" r="37.5"/>
</g>
<g>
	<path d="M637.5,525c20.71,0,37.5-16.79,37.5-37.5h-75C600,508.21,616.79,525,637.5,525z"/>
</g>
<g>
	<path d="M187.5,450c-20.71,0-37.5,16.79-37.5,37.5h75C225,466.79,208.21,450,187.5,450z"/>
</g>
<g>
	<circle cx="337.5" cy="487.5" r="37.5"/>
</g>
<g>
	<path d="M862.5,525c20.71,0,37.5-16.79,37.5-37.5h-75C825,508.21,841.79,525,862.5,525z"/>
</g>
<g>
	<path d="M412.5,450c-20.71,0-37.5,16.79-37.5,37.5h75C450,466.79,433.21,450,412.5,450z"/>
</g>
<g>
	<circle cx="112.5" cy="487.5" r="37.5"/>
</g>
<g>
	<path d="M262.5,525c20.71,0,37.5-16.79,37.5-37.5h-75C225,508.21,241.79,525,262.5,525z"/>
</g>
<g>
	<path d="M712.5,450c-20.71,0-37.5,16.79-37.5,37.5h75C750,466.79,733.21,450,712.5,450z"/>
</g>
<g>
	<circle cx="787.5" cy="487.5" r="37.5"/>
</g>
<g>
	<circle cx="562.5" cy="412.5" r="37.5"/>
</g>
<g>
	<path d="M637.5,450c20.71,0,37.5-16.79,37.5-37.5h-75C600,433.21,616.79,450,637.5,450z"/>
</g>
<g>
	<path d="M112.5,375C91.79,375,75,391.79,75,412.5h75C150,391.79,133.21,375,112.5,375z"/>
</g>
<g>
	<path d="M862.5,450c20.71,0,37.5-16.79,37.5-37.5h-75C825,433.21,841.79,450,862.5,450z"/>
</g>
<g>
	<circle cx="337.5" cy="412.5" r="37.5"/>
</g>
<g>
	<circle cx="37.5" cy="412.5" r="37.5"/>
</g>
<g>
	<circle cx="412.5" cy="412.5" r="37.5"/>
</g>
<g>
	<circle cx="187.5" cy="412.5" r="37.5"/>
</g>
<g>
	<circle cx="712.5" cy="412.5" r="37.5"/>
</g>
<g>
	<path d="M787.5,375c-20.71,0-37.5,16.79-37.5,37.5h75C825,391.79,808.21,375,787.5,375z"/>
</g>
<g>
	<path d="M637.5,375c20.71,0,37.5-16.79,37.5-37.5h-75C600,358.21,616.79,375,637.5,375z"/>
</g>
<g>
	<circle cx="37.5" cy="337.5" r="37.5"/>
</g>
<g>
	<path d="M187.5,300c-20.71,0-37.5,16.79-37.5,37.5h75C225,316.79,208.21,300,187.5,300z"/>
</g>
<g>
	<path d="M337.5,300c-20.71,0-37.5,16.79-37.5,37.5h75C375,316.79,358.21,300,337.5,300z"/>
</g>
<g>
	<circle cx="112.5" cy="337.5" r="37.5"/>
</g>
<g>
	<circle cx="412.5" cy="337.5" r="37.5"/>
</g>
<g>
	<path d="M262.5,375c20.71,0,37.5-16.79,37.5-37.5h-75C225,358.21,241.79,375,262.5,375z"/>
</g>
<g>
	<path d="M562.5,300c-20.71,0-37.5,16.79-37.5,37.5h75C600,316.79,583.21,300,562.5,300z"/>
</g>
<g>
	<circle cx="712.5" cy="337.5" r="37.5"/>
</g>
<g>
	<path d="M487.5,375c20.71,0,37.5-16.79,37.5-37.5h-75C450,358.21,466.79,375,487.5,375z"/>
</g>
<g>
	<circle cx="787.5" cy="337.5" r="37.5"/>
</g>
<g>
	<path d="M37.5,225C16.79,225,0,241.79,0,262.5h75C75,241.79,58.21,225,37.5,225z"/>
</g>
<g>
	<circle cx="112.5" cy="262.5" r="37.5"/>
</g>
<g>
	<path d="M862.5,300c20.71,0,37.5-16.79,37.5-37.5h-75C825,283.21,841.79,300,862.5,300z"/>
</g>
<g>
	<circle cx="187.5" cy="262.5" r="37.5"/>
</g>
<g>
	<path d="M412.5,225c-20.71,0-37.5,16.79-37.5,37.5h75C450,241.79,433.21,225,412.5,225z"/>
</g>
<g>
	<circle cx="337.5" cy="262.5" r="37.5"/>
</g>
<g>
	<path d="M487.5,300c20.71,0,37.5-16.79,37.5-37.5h-75C450,283.21,466.79,300,487.5,300z"/>
</g>
<g>
	<circle cx="712.5" cy="262.5" r="37.5"/>
</g>
<g>
	<circle cx="562.5" cy="262.5" r="37.5"/>
</g>
<g>
	<circle cx="787.5" cy="262.5" r="37.5"/>
</g>
<g>
	<circle cx="37.5" cy="187.5" r="37.5"/>
</g>
<g>
	<path d="M862.5,225c20.71,0,37.5-16.79,37.5-37.5h-75C825,208.21,841.79,225,862.5,225z"/>
</g>
<g>
	<path d="M150,187.5H75c0-20.71,16.79-37.5,37.5-37.5S150,166.79,150,187.5z"/>
</g>
<g>
	<circle cx="187.5" cy="187.5" r="37.5"/>
</g>
<g>
	<path d="M337.5,150c-20.71,0-37.5,16.79-37.5,37.5h75C375,166.79,358.21,150,337.5,150z"/>
</g>
<g>
	<path d="M262.5,225c20.71,0,37.5-16.79,37.5-37.5h-75C225,208.21,241.79,225,262.5,225z"/>
</g>
<g>
	<circle cx="412.5" cy="187.5" r="37.5"/>
</g>
<g>
	<circle cx="562.5" cy="187.5" r="37.5"/>
</g>
<g>
	<path d="M712.5,150c-20.71,0-37.5,16.79-37.5,37.5h75C750,166.79,733.21,150,712.5,150z"/>
</g>
<g>
	<path d="M637.5,225c20.71,0,37.5-16.79,37.5-37.5h-75C600,208.21,616.79,225,637.5,225z"/>
</g>
<g>
	<circle cx="787.5" cy="187.5" r="37.5"/>
</g>
<g>
	<path d="M862.5,150c20.71,0,37.5-16.79,37.5-37.5h-75C825,133.21,841.79,150,862.5,150z"/>
</g>
<g>
	<circle cx="37.5" cy="112.5" r="37.5"/>
</g>
<g>
	<circle cx="112.5" cy="112.5" r="37.5"/>
</g>
<g>
	<path d="M187.5,75c-20.71,0-37.5,16.79-37.5,37.5h75C225,91.79,208.21,75,187.5,75z"/>
</g>
<g>
	<path d="M262.5,150c20.71,0,37.5-16.79,37.5-37.5h-75C225,133.21,241.79,150,262.5,150z"/>
</g>
<g>
	<circle cx="337.5" cy="112.5" r="37.5"/>
</g>
<g>
	<path d="M412.5,75c-20.71,0-37.5,16.79-37.5,37.5h75C450,91.79,433.21,75,412.5,75z"/>
</g>
<g>
	<path d="M487.5,150c20.71,0,37.5-16.79,37.5-37.5h-75C450,133.21,466.79,150,487.5,150z"/>
</g>
<g>
	<path d="M562.5,75c-20.71,0-37.5,16.79-37.5,37.5h75C600,91.79,583.21,75,562.5,75z"/>
</g>
<g>
	<path d="M637.5,150c20.71,0,37.5-16.79,37.5-37.5h-75C600,133.21,616.79,150,637.5,150z"/>
</g>
<g>
	<circle cx="712.5" cy="112.5" r="37.5"/>
</g>
<g>
	<path d="M787.5,75c-20.71,0-37.5,16.79-37.5,37.5h75C825,91.79,808.21,75,787.5,75z"/>
</g>
<g>
	<circle cx="37.5" cy="37.5" r="37.5"/>
</g>
<g>
	<circle cx="112.5" cy="37.5" r="37.5"/>
</g>
<g>
	<circle cx="187.5" cy="37.5" r="37.5"/>
</g>
<g>
	<circle cx="337.5" cy="37.5" r="37.5"/>
</g>
<g>
	<circle cx="412.5" cy="37.5" r="37.5"/>
</g>
<g>
	<circle cx="562.5" cy="37.5" r="37.5"/>
</g>
<g>
	<circle cx="712.5" cy="37.5" r="37.5"/>
</g>
<g>
	<circle cx="787.5" cy="37.5" r="37.5"/>
</g>
</svg>
