<?xml version="1.0" encoding="UTF-8"?>
<svg xmlns="http://www.w3.org/2000/svg" width="460" height="420" viewBox="0 0 460 420">
  <defs>
    <style>
      .cls-1 {
        fill: #9f1f11;
      }

      .cls-2 {
        fill: #fff;
      }

      .cls-3 {
        fill: #332019;
      }

      .cls-4 {
        opacity: 0;
      }
    </style>
  </defs>
  <g id="shapes">
    <g data-morph-id="s-do">
      <polygon data-morph-id="s6-2o" class="cls-1" points="304.13 237.52 297.73 289.25 318.6 288.69 308.61 238.03 304.13 237.52"/>
      <polygon data-morph-id="s6-1d" class="cls-1" points="289.9 186.49 312.86 184.87 304.24 226.57 326.22 220.7 326.77 244.84 305.31 242.92 291.23 217.31 289.9 186.49"/>
    </g>
    <g data-morph-id="s-to">
      <polygon data-morph-id="s5-2o" class="cls-1" points="272.42 291.06 268.87 269.96 273.49 267.57 290.06 281.92 272.42 291.06"/>
      <polygon data-morph-id="s5-1t" class="cls-1" points="218.7 268.85 296.25 246.92 303.03 257.34 228.96 289.44 218.7 268.85"/>
    </g>
    <g data-morph-id="s-what">
      <polygon data-morph-id="s4-4t" class="cls-1" points="263.77 238.88 292.85 217.52 272.67 200.98 259.94 236.47 263.77 238.88"/>
      <polygon data-morph-id="s4-3a" class="cls-1" points="254.33 247.88 263.44 237.37 275.33 244.21 266.94 256.7 254.33 247.88"/>
      <polygon data-morph-id="s4-2h" class="cls-1" points="263.77 238.88 219.86 234.15 219.22 207.01 248.48 206.71 247.36 228.62 263.62 227.15 263.77 238.88"/>
      <polygon data-morph-id="s4-1w" class="cls-1" points="241.77 229.36 208.83 258.25 208.82 233 185.63 238.67 202.49 292.32 247.32 233.33 241.77 229.36"/>
    </g>
    <g data-morph-id="s-me">
      <polygon data-morph-id="s3-2e" class="cls-1" points="296.72 149.7 295.2 129.77 316.55 128.44 316.96 148.27 296.72 149.7"/>
      <polygon data-morph-id="s3-1m" class="cls-1" points="270.64 180.06 273.6 133.97 330 168.31 312.45 186.66 285.52 152.77 289.58 177.83 270.64 180.06"/>
    </g>
    <g data-morph-id="s-tell">
      <polygon data-morph-id="s2-4l" class="cls-1" points="255.46 179.34 272.89 178.07 274.58 203.67 255.99 202.77 255.46 179.34"/>
      <polygon data-morph-id="s2-3l" class="cls-1" points="241.2 160.59 257.53 159.23 257.99 180.82 242.44 182.44 241.2 160.59"/>
      <polygon data-morph-id="s2-2e" class="cls-1" points="195.48 144.6 214.02 127.68 230.13 147.27 210 161.25 195.48 144.6"/>
      <polygon data-morph-id="s2-1t" class="cls-1" points="197.26 202.13 239.76 128.85 254.23 134.53 220.54 209.45 197.26 202.13"/>
    </g>
    <g data-morph-id="s-someone">a
      <polygon data-morph-id="s1-6e" class="cls-1" points="131.64 151.22 133.95 131.32 174.28 128.77 174.26 151.74 131.64 151.22"/>
      <polygon data-morph-id="s1-5n" class="cls-1" points="191.49 233.11 171.67 149.56 197.4 143.73 198.42 237.63 191.49 233.11"/>
      <polygon data-morph-id="s1-4eo" class="cls-1" points="167.78 199.74 158.99 261 177.17 287.35 197.63 272.88 175.23 252.59 169.23 199.61 170.28 169.79 136.05 165.59 136.17 189.3 158.1 186.88 167.78 199.74"/>
      <polygon data-morph-id="s1-3m" class="cls-1" points="198.42 237.63 152.39 207.62 166.88 188.51 198.37 230.8 198.42 237.63"/>
      <polygon data-morph-id="s1-2o" class="cls-1" points="140.87 229.71 133.61 289.67 156.03 290.48 147.37 229 140.87 229.71"/>
      <polygon data-morph-id="s1-1s" class="cls-1" points="154.55 206.06 155.81 230.22 131.03 232.86 130 205.34 154.55 206.06"/>
    </g>
  </g>
  <g id="words" class="cls-4">
    <g data-morph-id="w-do">
      <path class="cls-3" d="M297.91,321.43c-.87,0-1.66-.16-2.38-.47-.72-.31-1.34-.77-1.86-1.36-.52-.6-.92-1.32-1.21-2.17-.29-.85-.43-1.8-.43-2.86,0-1.58.28-2.92.85-4.03.56-1.11,1.33-1.95,2.31-2.54.98-.58,2.08-.87,3.29-.87.97,0,1.85.14,2.63.42.78.28,1.53.63,2.24,1.07l-.99,1.53c-.49-.21-1.01-.38-1.57-.51s-1.14-.2-1.73-.2c-.85,0-1.59.2-2.22.6-.63.4-1.13.96-1.48,1.69-.36.73-.53,1.59-.53,2.6,0,.73.09,1.39.26,1.98.17.59.42,1.09.75,1.51s.74.74,1.22.96c.48.23,1.03.34,1.64.34.64,0,1.37-.17,2.2-.52s1.59-1,2.3-1.95l-.03,1.64c-.54.83-1.11,1.48-1.73,1.94s-1.23.78-1.83.95c-.61.17-1.17.26-1.69.26ZM303.22,321.15l-1.07-1.92v-17.58h2.78v19.5h-1.72Z"/>
      <path class="cls-3" d="M315.83,321.43c-1.3,0-2.47-.28-3.5-.85-1.03-.56-1.85-1.38-2.46-2.44-.61-1.07-.91-2.35-.91-3.86s.3-2.79.91-3.86c.61-1.07,1.43-1.88,2.46-2.44s2.2-.85,3.5-.85,2.47.28,3.5.85,1.85,1.38,2.46,2.44c.61,1.07.91,2.35.91,3.86s-.3,2.79-.91,3.86c-.61,1.07-1.43,1.88-2.46,2.44-1.03.56-2.2.85-3.5.85ZM315.83,319.12c.83,0,1.56-.2,2.17-.6s1.1-.96,1.44-1.69c.35-.73.52-1.58.52-2.55s-.17-1.82-.52-2.55c-.35-.73-.83-1.29-1.44-1.69-.62-.4-1.34-.6-2.17-.6s-1.53.2-2.16.6c-.62.4-1.11.96-1.46,1.69-.35.73-.52,1.58-.52,2.55s.17,1.82.52,2.55c.35.73.83,1.29,1.46,1.69s1.34.6,2.16.6Z"/>
    </g>
    <g data-morph-id="w-to">
      <path class="cls-3" d="M254.84,311.04v-2.24h10.4v2.24h-10.4ZM256.79,309.14l1.79-4.06h1.27v4.06h-3.07ZM263.11,322.82c-1.08,0-1.99-.14-2.76-.42-.76-.28-1.39-.67-1.87-1.17s-.84-1.1-1.07-1.79c-.22-.69-.34-1.45-.34-2.26v-7.02l2.78-.62v7.62c0,.52.07.99.2,1.4s.33.77.61,1.05c.28.29.63.51,1.07.66.43.16.95.23,1.56.23.29,0,.58,0,.87-.03.29-.02.57-.04.85-.08l.23,2.24c-.33.05-.67.1-1.03.13-.36.04-.72.05-1.11.05Z"/>
      <path class="cls-3" d="M274.58,322.82c-1.3,0-2.47-.28-3.5-.85-1.03-.56-1.85-1.38-2.46-2.44-.61-1.07-.91-2.35-.91-3.86s.3-2.79.91-3.86c.61-1.07,1.43-1.88,2.46-2.44s2.2-.85,3.5-.85,2.47.28,3.5.85,1.85,1.38,2.46,2.44c.61,1.07.91,2.35.91,3.86s-.3,2.79-.91,3.86c-.61,1.07-1.43,1.88-2.46,2.44-1.03.56-2.2.85-3.5.85ZM274.58,320.5c.83,0,1.56-.2,2.17-.6s1.1-.96,1.44-1.69c.35-.73.52-1.58.52-2.55s-.17-1.82-.52-2.55c-.35-.73-.83-1.29-1.44-1.69-.62-.4-1.34-.6-2.17-.6s-1.53.2-2.16.6c-.62.4-1.11.96-1.46,1.69-.35.73-.52,1.58-.52,2.55s.17,1.82.52,2.55c.35.73.83,1.29,1.46,1.69s1.34.6,2.16.6Z"/>
    </g>
    <g data-morph-id="w-what">
      <path class="cls-3" d="M227.19,302.79l-3.35-13.23v-.49h2.63l2.34,9.31v4.42h-1.61ZM227.84,302.79l-.47-1.9,4.58-9.65h1.25l4.55,9.59-.47,1.95h-.91l-3.93-8.58-.39-.99h1.04l-.39.99-3.9,8.58h-.96ZM236.37,302.79l-.03-4.39,2.37-9.33h2.6v.49l-3.35,13.23h-1.59Z"/>
      <path class="cls-3" d="M244.82,302.79v-19.5h2.78v19.5h-2.78ZM254.36,302.79v-8.76c0-.97-.23-1.7-.7-2.2-.47-.49-1.14-.74-2-.74-.5,0-1.01.08-1.51.25-.5.17-1,.39-1.48.66-.49.28-.95.59-1.4.94l-.16-1.53c.9-.81,1.82-1.46,2.74-1.92.93-.47,1.9-.7,2.92-.7,1.33,0,2.4.45,3.19,1.34.79.89,1.18,2.14,1.18,3.73v8.94h-2.78Z"/>
      <path class="cls-3" d="M265.36,303.08c-.82,0-1.54-.18-2.17-.53-.63-.35-1.13-.84-1.48-1.47s-.53-1.33-.53-2.13c0-.61.1-1.16.3-1.66.2-.5.5-.94.91-1.31.41-.37.92-.67,1.53-.88.62-.22,1.34-.34,2.17-.38l4.26-.16v1.98l-4.21.16c-.52.02-.96.14-1.31.36-.36.23-.62.5-.79.82-.17.32-.26.64-.26.95,0,.4.09.75.26,1.07.17.31.44.56.79.73.36.17.79.26,1.31.26.87,0,1.64-.2,2.33-.58.68-.39,1.31-.8,1.89-1.24l.16,1.4c-.47.49-.97.93-1.5,1.33-.53.4-1.1.72-1.7.95-.61.23-1.26.35-1.95.35ZM271.08,302.79l-1.07-1.92v-6.37c0-.47-.06-.91-.17-1.33-.11-.42-.3-.78-.57-1.09-.27-.31-.65-.55-1.13-.73-.49-.17-1.1-.26-1.85-.26-.64,0-1.27.05-1.9.16s-1.26.25-1.9.44l-.44-2.24c.69-.21,1.45-.37,2.26-.49.81-.12,1.59-.18,2.34-.18,1.18,0,2.16.14,2.94.42.78.28,1.41.68,1.89,1.2.48.52.81,1.13,1.01,1.83.2.7.3,1.49.3,2.35v8.22h-1.72Z"/>
      <path class="cls-3" d="M276.17,291.3v-2.24h10.4v2.24h-10.4ZM278.12,289.4l1.79-4.06h1.27v4.06h-3.07ZM284.44,303.08c-1.08,0-1.99-.14-2.76-.42-.76-.28-1.39-.67-1.87-1.17s-.84-1.1-1.07-1.79c-.22-.69-.34-1.45-.34-2.26v-7.02l2.78-.62v7.62c0,.52.07.99.2,1.4s.33.77.61,1.05c.28.29.63.51,1.07.66.43.16.95.23,1.56.23.29,0,.58,0,.87-.03.29-.02.57-.04.85-.08l.23,2.24c-.33.05-.67.1-1.03.13-.36.03-.72.05-1.11.05Z"/>
    </g>
    <g data-morph-id="w-me">
      <path class="cls-3" d="M280.26,214.96v-13.73h1.72l1.07,1.92v11.8h-2.78ZM289.54,214.96v-8.76c0-.97-.23-1.7-.69-2.2-.46-.49-1.1-.74-1.91-.74-.54,0-1.04.08-1.52.25-.48.17-.94.39-1.38.66-.44.28-.89.59-1.34.94l-.16-1.53c.9-.81,1.77-1.46,2.61-1.92s1.77-.7,2.79-.7c.9,0,1.68.2,2.33.6.65.4,1.15.98,1.51,1.73s.53,1.67.53,2.74v8.94h-2.78ZM298.82,214.96v-8.76c0-.97-.23-1.7-.69-2.2s-1.1-.74-1.91-.74-1.53.18-2.21.55c-.68.36-1.35.8-2.03,1.3l-.16-1.53c.9-.81,1.77-1.46,2.61-1.92.84-.47,1.77-.7,2.79-.7.9,0,1.68.2,2.33.6.65.4,1.15.98,1.51,1.73.35.75.53,1.67.53,2.74v8.94h-2.78Z"/>
      <path class="cls-3" d="M313.25,215.24c-1.79,0-3.24-.3-4.35-.9-1.12-.6-1.94-1.43-2.47-2.48-.53-1.06-.79-2.27-.79-3.64s.29-2.6.86-3.71c.57-1.1,1.38-1.97,2.42-2.61s2.26-.96,3.67-.96c.92,0,1.72.14,2.42.42.69.28,1.27.68,1.73,1.21.46.53.8,1.16,1.03,1.89s.34,1.55.34,2.47v2.11l-10.63.03v-1.98h8.61l-.55.99v-1.2c0-.45-.04-.87-.12-1.25-.08-.38-.19-.71-.34-1-.15-.29-.34-.53-.59-.74-.24-.21-.53-.36-.86-.47s-.7-.16-1.12-.16c-.8,0-1.51.2-2.13.58-.62.39-1.11.95-1.47,1.69-.36.74-.53,1.63-.53,2.69s.17,1.88.52,2.59.89,1.23,1.62,1.59c.74.36,1.67.53,2.79.53.69,0,1.35-.06,1.96-.17.61-.11,1.23-.26,1.86-.46l.6,2.13c-.69.24-1.43.44-2.22.58s-1.54.22-2.25.22Z"/>
    </g>
    <g data-morph-id="w-tell">
      <path class="cls-3" d="M217.45,229.94v-2.24h10.4v2.24h-10.4ZM219.4,228.04l1.79-4.06h1.27v4.06h-3.07ZM225.71,241.72c-1.08,0-1.99-.14-2.76-.42-.76-.28-1.39-.67-1.87-1.17s-.84-1.1-1.07-1.79c-.22-.69-.34-1.45-.34-2.26v-7.02l2.78-.62v7.62c0,.52.07.99.2,1.4s.33.77.61,1.05c.28.29.63.51,1.07.66.43.16.95.23,1.56.23.29,0,.58,0,.87-.03.29-.02.57-.04.85-.08l.23,2.24c-.33.05-.67.1-1.03.13-.36.03-.72.05-1.11.05Z"/>
      <path class="cls-3" d="M237.93,241.72c-1.79,0-3.24-.3-4.35-.9-1.12-.6-1.94-1.43-2.47-2.48-.53-1.06-.79-2.27-.79-3.64s.29-2.6.86-3.71c.57-1.1,1.38-1.97,2.42-2.61s2.26-.96,3.67-.96c.92,0,1.72.14,2.42.42.69.28,1.27.68,1.73,1.21.46.53.8,1.16,1.03,1.89s.34,1.55.34,2.47v2.11l-10.63.03v-1.98h8.61l-.55.99v-1.2c0-.45-.04-.87-.12-1.25-.08-.38-.19-.71-.34-1-.15-.29-.34-.53-.59-.74-.24-.21-.53-.36-.86-.47s-.7-.16-1.12-.16c-.8,0-1.51.2-2.13.58-.62.39-1.11.95-1.47,1.69-.36.74-.53,1.63-.53,2.69s.17,1.88.52,2.59.89,1.23,1.62,1.59c.74.36,1.67.53,2.79.53.69,0,1.35-.06,1.96-.17.61-.11,1.23-.26,1.86-.46l.6,2.13c-.69.24-1.43.44-2.22.58s-1.54.22-2.25.22Z"/>
      <path class="cls-3" d="M246.8,241.43v-19.5h2.78v19.5h-2.78Z"/>
      <path class="cls-3" d="M254.78,241.43v-19.5h2.78v19.5h-2.78Z"/>
    </g>
    <g data-morph-id="w-someone">
      <path class="cls-3" d="M108.79,323.94c-.87,0-1.69-.06-2.47-.17-.78-.11-1.51-.26-2.18-.46l.47-2.21c.66.17,1.33.3,2.03.39s1.41.13,2.16.13,1.31-.08,1.79-.23c.49-.16.85-.38,1.09-.66.24-.29.36-.62.36-1,0-.57-.16-.99-.47-1.25-.31-.26-.77-.43-1.38-.52l-2.29-.31c-.75-.1-1.39-.33-1.94-.68-.55-.35-.96-.79-1.25-1.33s-.43-1.13-.43-1.77c0-.94.25-1.72.74-2.35s1.18-1.11,2.07-1.42c.88-.31,1.89-.47,3.02-.47.76,0,1.5.04,2.2.13.7.09,1.41.22,2.12.42l-.47,2.21c-.61-.14-1.23-.25-1.88-.33s-1.28-.12-1.88-.12c-.68,0-1.25.07-1.72.2-.47.13-.82.32-1.05.58-.23.26-.35.61-.35,1.04,0,.54.14.92.43,1.16.29.23.7.39,1.24.46l2.78.39c.95.12,1.74.51,2.37,1.16.62.65.94,1.52.94,2.61,0,.73-.13,1.37-.4,1.91s-.66,1.01-1.18,1.38c-.52.37-1.15.65-1.9.83s-1.59.27-2.55.27Z"/>
      <path class="cls-3" d="M124.52,323.94c-1.3,0-2.47-.28-3.5-.85-1.03-.56-1.85-1.38-2.46-2.44-.61-1.07-.91-2.35-.91-3.86s.3-2.79.91-3.86c.61-1.07,1.43-1.88,2.46-2.44s2.2-.85,3.5-.85,2.47.28,3.5.85,1.85,1.38,2.46,2.44c.61,1.07.91,2.35.91,3.86s-.3,2.79-.91,3.86c-.61,1.07-1.43,1.88-2.46,2.44-1.03.56-2.2.85-3.5.85ZM124.52,321.63c.83,0,1.56-.2,2.17-.6s1.1-.96,1.44-1.69c.35-.73.52-1.58.52-2.55s-.17-1.82-.52-2.55c-.35-.73-.83-1.29-1.44-1.69-.62-.4-1.34-.6-2.17-.6s-1.53.2-2.16.6c-.62.4-1.11.96-1.46,1.69-.35.73-.52,1.58-.52,2.55s.17,1.82.52,2.55c.35.73.83,1.29,1.46,1.69s1.34.6,2.16.6Z"/>
      <path class="cls-3" d="M135.41,323.65v-13.73h1.72l1.07,1.92v11.8h-2.78ZM144.69,323.65v-8.76c0-.97-.23-1.7-.69-2.2-.46-.49-1.1-.74-1.91-.74-.54,0-1.04.08-1.52.25s-.94.39-1.38.66c-.44.28-.89.59-1.34.94l-.16-1.53c.9-.81,1.77-1.46,2.61-1.92s1.77-.7,2.79-.7c.9,0,1.68.2,2.33.6s1.15.97,1.51,1.73.53,1.67.53,2.74v8.94h-2.78ZM153.97,323.65v-8.76c0-.97-.23-1.7-.69-2.2s-1.1-.74-1.91-.74-1.53.18-2.21.55c-.68.36-1.35.8-2.03,1.3l-.16-1.53c.9-.81,1.77-1.46,2.61-1.92.84-.47,1.77-.7,2.79-.7.9,0,1.68.2,2.33.6.65.4,1.15.97,1.51,1.73.35.75.53,1.67.53,2.74v8.94h-2.78Z"/>
      <path class="cls-3" d="M168.4,323.94c-1.79,0-3.24-.3-4.35-.9-1.12-.6-1.94-1.43-2.47-2.48-.53-1.06-.79-2.27-.79-3.64s.29-2.6.86-3.71c.57-1.1,1.38-1.97,2.42-2.61,1.04-.64,2.26-.96,3.67-.96.92,0,1.72.14,2.42.42.69.28,1.27.68,1.73,1.21.46.53.8,1.16,1.03,1.89.23.73.34,1.55.34,2.47v2.11l-10.63.03v-1.98h8.61l-.55.99v-1.2c0-.45-.04-.87-.12-1.25s-.19-.71-.34-1c-.15-.29-.34-.53-.59-.74-.24-.21-.53-.36-.86-.47-.33-.1-.7-.16-1.12-.16-.8,0-1.51.2-2.13.58s-1.11.95-1.47,1.69c-.36.74-.53,1.63-.53,2.69s.17,1.88.52,2.59.89,1.23,1.62,1.59c.74.36,1.67.53,2.79.53.69,0,1.35-.06,1.96-.17.61-.11,1.23-.26,1.86-.46l.6,2.13c-.69.24-1.43.44-2.22.58-.79.15-1.54.22-2.25.22Z"/>
      <path class="cls-3" d="M182.96,323.94c-1.3,0-2.47-.28-3.5-.85-1.03-.56-1.85-1.38-2.46-2.44-.61-1.07-.91-2.35-.91-3.86s.3-2.79.91-3.86c.61-1.07,1.43-1.88,2.46-2.44s2.2-.85,3.5-.85,2.47.28,3.5.85,1.85,1.38,2.46,2.44c.61,1.07.91,2.35.91,3.86s-.3,2.79-.91,3.86c-.61,1.07-1.43,1.88-2.46,2.44-1.03.56-2.2.85-3.5.85ZM182.96,321.63c.83,0,1.56-.2,2.17-.6s1.1-.96,1.44-1.69c.35-.73.52-1.58.52-2.55s-.17-1.82-.52-2.55c-.35-.73-.83-1.29-1.44-1.69-.62-.4-1.34-.6-2.17-.6s-1.53.2-2.16.6c-.62.4-1.11.96-1.46,1.69-.35.73-.52,1.58-.52,2.55s.17,1.82.52,2.55c.35.73.83,1.29,1.46,1.69s1.34.6,2.16.6Z"/>
      <path class="cls-3" d="M193.86,323.65v-13.73h1.72l1.07,1.92v11.8h-2.78ZM203.4,323.65v-9c0-.85-.23-1.51-.7-1.99-.47-.48-1.14-.71-2-.71-.5,0-1.01.08-1.51.25s-1,.39-1.48.66c-.49.28-.95.59-1.4.94l-.16-1.53c.9-.81,1.82-1.46,2.74-1.92.93-.47,1.9-.7,2.92-.7,1.33,0,2.4.38,3.19,1.14.79.76,1.18,1.92,1.18,3.46v9.41h-2.78Z"/>
      <path class="cls-3" d="M217.83,323.94c-1.79,0-3.24-.3-4.35-.9-1.12-.6-1.94-1.43-2.47-2.48-.53-1.06-.79-2.27-.79-3.64s.29-2.6.86-3.71c.57-1.1,1.38-1.97,2.42-2.61,1.04-.64,2.26-.96,3.67-.96.92,0,1.72.14,2.42.42.69.28,1.27.68,1.73,1.21.46.53.8,1.16,1.03,1.89.23.73.34,1.55.34,2.47v2.11l-10.63.03v-1.98h8.61l-.55.99v-1.2c0-.45-.04-.87-.12-1.25s-.19-.71-.34-1c-.15-.29-.34-.53-.59-.74-.24-.21-.53-.36-.86-.47-.33-.1-.7-.16-1.12-.16-.8,0-1.51.2-2.13.58s-1.11.95-1.47,1.69c-.36.74-.53,1.63-.53,2.69s.17,1.88.52,2.59.89,1.23,1.62,1.59c.74.36,1.67.53,2.79.53.69,0,1.35-.06,1.96-.17.61-.11,1.23-.26,1.86-.46l.6,2.13c-.69.24-1.43.44-2.22.58-.79.15-1.54.22-2.25.22Z"/>
    </g>
  </g>
  <g id="letters" class="cls-4">
    <g data-morph-id="l-do">
      <g data-morph-id="l6-2o">
        <path class="cls-2" d="M307.97,285.99c-.92,0-1.76-.14-2.52-.42-.76-.28-1.4-.7-1.94-1.26-.54-.56-.95-1.25-1.24-2.07s-.43-1.77-.43-2.83.14-2.01.43-2.83c.29-.82.7-1.51,1.24-2.07s1.19-.98,1.94-1.26c.76-.28,1.6-.42,2.52-.42s1.76.14,2.51.42,1.39.7,1.93,1.26c.53.56.95,1.25,1.24,2.07.29.82.44,1.77.44,2.83s-.15,2.01-.44,2.83-.71,1.51-1.24,2.07c-.53.56-1.18.98-1.93,1.26-.76.28-1.59.42-2.5.42ZM307.97,283.98c.54,0,1.04-.1,1.49-.29.45-.19.84-.48,1.17-.85s.59-.85.77-1.42c.19-.57.28-1.24.28-2.01s-.09-1.42-.28-1.99c-.19-.57-.44-1.05-.77-1.43-.33-.38-.72-.67-1.17-.86-.45-.19-.95-.29-1.49-.29s-1.06.1-1.51.29-.85.48-1.18.86c-.33.38-.58.86-.76,1.43s-.27,1.23-.27,1.99.09,1.44.27,2.01.44,1.04.77,1.42c.33.38.73.66,1.18.85.45.19.95.29,1.5.29Z"/>
      </g>
      <g data-morph-id="l6-1d">
        <path class="cls-2" d="M312.18,240.09v-12.78h2.39v12.78h-2.39ZM313.26,240.09v-2.02h3.47c.73,0,1.35-.11,1.86-.32.51-.21.93-.51,1.25-.89.32-.38.56-.84.71-1.38.15-.53.22-1.12.22-1.75,0-.91-.15-1.7-.44-2.35-.29-.65-.74-1.16-1.33-1.52-.59-.36-1.34-.54-2.24-.54h-2.74v-2.02h2.79c1.39,0,2.56.25,3.52.76.95.5,1.67,1.24,2.15,2.2.48.96.72,2.12.72,3.47,0,.88-.12,1.7-.35,2.47-.23.77-.61,1.44-1.12,2.02s-1.18,1.04-2,1.37-1.82.5-3,.5h-3.49Z"/>
      </g>
    </g>
    <g data-morph-id="l-to">
      <g data-morph-id="l5-2o">
        <path class="cls-2" d="M277.3,286.77c-.92,0-1.76-.14-2.52-.42-.76-.28-1.4-.7-1.94-1.26-.54-.56-.95-1.25-1.24-2.07s-.43-1.77-.43-2.83.14-2.01.43-2.83c.29-.82.7-1.51,1.24-2.07s1.19-.98,1.94-1.26c.76-.28,1.6-.42,2.52-.42s1.76.14,2.51.42,1.39.7,1.93,1.26c.53.56.95,1.25,1.24,2.07.29.82.44,1.77.44,2.83s-.15,2.01-.44,2.83-.71,1.51-1.24,2.07c-.53.56-1.18.98-1.93,1.26-.76.28-1.59.42-2.5.42ZM277.3,284.75c.54,0,1.04-.1,1.49-.29.45-.19.84-.48,1.17-.85s.59-.85.77-1.42c.19-.57.28-1.24.28-2.01s-.09-1.42-.28-1.99c-.19-.57-.44-1.05-.77-1.43-.33-.38-.72-.67-1.17-.86-.45-.19-.95-.29-1.49-.29s-1.06.1-1.51.29-.85.48-1.18.86c-.33.38-.58.86-.76,1.43s-.27,1.23-.27,1.99.09,1.44.27,2.01.44,1.04.77,1.42c.33.38.73.66,1.18.85.45.19.95.29,1.5.29Z"/>
      </g>
      <g data-morph-id="l5-1t">
        <path class="cls-2" d="M254.7,262.64v-2.12h10.42v2.12h-10.42ZM258.73,273.3v-12.78h2.39v12.78h-2.39Z"/>
      </g>
    </g>
    <g data-morph-id="l-what">
      <g data-morph-id="l4-4t">
        <path class="cls-2" d="M208.21,263.43l-2.34-12.31v-.47h2.32l1.82,9.2-.14,3.58h-1.66ZM208.3,263.43l.77-2.29,3.89-8.5h1.04l3.91,8.53.72,2.25h-1.76l-3.46-7.31-.31-.9h.72l-.31.9-3.47,7.31h-1.75ZM217.08,263.43l-.14-3.58,1.82-9.2h2.34v.47l-2.38,12.31h-1.64Z"/>
      </g>
      <g data-morph-id="l4-3a">
        <path class="cls-2" d="M258.68,251.38v-.47l5.06-12.31h2.18l5.06,12.28v.5h-2.38l-3.89-9.94-.02-.65h.29l-.05.65-3.91,9.94h-2.34ZM261.28,249.06v-1.84h7.34v1.84h-7.34Z"/>
      </g>
      <g data-morph-id="l4-2h">
        <path class="cls-2" d="M229.92,231.55v-12.78h2.39v12.78h-2.39ZM230.58,226.17v-2.12h8.5v2.12h-8.5ZM238.02,231.55v-12.78h2.39v12.78h-2.39Z"/>
      </g>
      <g data-morph-id="l4-1w">
        <path class="cls-2" d="M271.21,214.42v-2.12h10.42v2.12h-10.42ZM275.24,225.07v-12.78h2.39v12.78h-2.39Z"/>
      </g>
    </g>
    <g data-morph-id="l-me">
      <g data-morph-id="l3-2e">
        <path class="cls-2" d="M301.79,145.09v-12.78h2.39v12.78h-2.39ZM302.18,134.38v-2.07h8.59v2.07h-8.59ZM302.18,139.55v-1.87h8.01v1.87h-8.01ZM302.18,145.09v-2.07h8.59v2.07h-8.59Z"/>
      </g>
      <g data-morph-id="l3-1m">
        <path class="cls-2" d="M305.38,175.02v-12.78h1.71l.65,4.57v8.21h-2.36ZM311.1,171.57l-4.16-6.3-1.53-3.02h1.87l4.21,6.3.56,1.19h-.88l.58-1.19,4.18-6.3h1.87l-1.46,2.93-4.23,6.39h-1.01ZM315.46,175.02v-8.21l.61-4.57h1.75v12.78h-2.36Z"/>
      </g>
    </g>
    <g data-morph-id="l-tell">
      <g data-morph-id="l2-4l">
        <path class="cls-2" d="M260.7,197.54v-12.78h2.39v12.78h-2.39ZM261.1,197.54v-2.12h7.99v2.12h-7.99Z"/>
      </g>
      <g data-morph-id="l2-3l">
        <path class="cls-2" d="M245.86,176.85v-12.78h2.39v12.78h-2.39ZM246.25,176.85v-2.12h7.99v2.12h-7.99Z"/>
      </g>
      <g data-morph-id="l2-2e">
        <path class="cls-2" d="M207.33,151.48v-12.78h2.39v12.78h-2.39ZM207.73,140.77v-2.07h8.59v2.07h-8.59ZM207.73,145.94v-1.87h8.01v1.87h-8.01ZM207.73,151.48v-2.07h8.59v2.07h-8.59Z"/>
      </g>
      <g data-morph-id="l2-1t">
        <path class="cls-2" d="M223.54,165.23v-2.12h10.42v2.12h-10.42ZM227.57,175.89v-12.78h2.39v12.78h-2.39Z"/>
      </g>
    </g>
    <g data-morph-id="l-someone">
      <g data-morph-id="l1-7e">
        <path class="cls-2" d="M149.2,147.23v-12.78h2.39v12.78h-2.39ZM149.6,136.52v-2.07h8.59v2.07h-8.59ZM149.6,141.69v-1.87h8.01v1.87h-8.01ZM149.6,147.23v-2.07h8.59v2.07h-8.59Z"/>
      </g>
      <g data-morph-id="l1-6n">
        <path class="cls-2" d="M181.91,179.57v-12.78h1.64l.72,3.69v9.09h-2.36ZM190.95,179.57l-7.45-9.5-1.49-3.28h1.55l7.15,9.04,1.67,3.74h-1.42ZM190.97,179.57l-.88-4.21v-8.57h2.36v12.78h-1.48Z"/>
      </g>
      <g data-morph-id="l1-5o">
        <path class="cls-2" d="M177.96,276.4c-.92,0-1.76-.14-2.52-.42-.76-.28-1.4-.7-1.94-1.26-.54-.56-.95-1.25-1.24-2.07s-.43-1.77-.43-2.83.14-2.01.43-2.83c.29-.82.7-1.51,1.24-2.07s1.19-.98,1.94-1.26c.76-.28,1.6-.42,2.52-.42s1.76.14,2.51.42,1.39.7,1.93,1.26c.53.56.95,1.25,1.24,2.07.29.82.44,1.77.44,2.83s-.15,2.01-.44,2.83-.71,1.51-1.24,2.07c-.53.56-1.18.98-1.93,1.26-.76.28-1.59.42-2.5.42ZM177.96,274.38c.54,0,1.04-.1,1.49-.29.45-.19.84-.48,1.17-.85s.59-.85.77-1.42c.19-.57.28-1.24.28-2.01s-.09-1.42-.28-1.99c-.19-.57-.44-1.05-.77-1.43-.33-.38-.72-.67-1.17-.86-.45-.19-.95-.29-1.49-.29s-1.06.1-1.51.29-.85.48-1.18.86c-.33.38-.58.86-.76,1.43s-.27,1.23-.27,1.99.09,1.44.27,2.01.44,1.04.77,1.42c.33.38.73.66,1.18.85.45.19.95.29,1.5.29Z"/>
      </g>
      <g data-morph-id="l1-4e">
        <path class="cls-2" d="M141.17,183.95v-12.78h2.39v12.78h-2.39ZM141.57,173.24v-2.07h8.59v2.07h-8.59ZM141.57,178.4v-1.87h8.01v1.87h-8.01ZM141.57,183.95v-2.07h8.59v2.07h-8.59Z"/>
      </g>
      <g data-morph-id="l1-3m">
        <path class="cls-2" d="M161,211.97v-12.78h1.71l.65,4.57v8.21h-2.36ZM166.73,208.51l-4.16-6.3-1.53-3.02h1.87l4.21,6.3.56,1.19h-.88l.58-1.19,4.18-6.3h1.87l-1.46,2.93-4.23,6.39h-1.01ZM171.08,211.97v-8.21l.61-4.57h1.75v12.78h-2.36Z"/>
      </g>
      <g data-morph-id="l1-2o">
        <path class="cls-2" d="M144.47,280.35c-.92,0-1.76-.14-2.52-.42-.76-.28-1.4-.7-1.94-1.26-.54-.56-.95-1.25-1.24-2.07s-.43-1.77-.43-2.83.14-2.01.43-2.83c.29-.82.7-1.51,1.24-2.07s1.19-.98,1.94-1.26c.76-.28,1.6-.42,2.52-.42s1.76.14,2.51.42,1.39.7,1.93,1.26c.53.56.95,1.25,1.24,2.07.29.82.44,1.77.44,2.83s-.15,2.01-.44,2.83-.71,1.51-1.24,2.07c-.53.56-1.18.98-1.93,1.26-.76.28-1.59.42-2.5.42ZM144.47,278.33c.54,0,1.04-.1,1.49-.29.45-.19.84-.48,1.17-.85s.59-.85.77-1.42c.19-.57.28-1.24.28-2.01s-.09-1.42-.28-1.99c-.19-.57-.44-1.05-.77-1.43-.33-.38-.72-.67-1.17-.86-.45-.19-.95-.29-1.49-.29s-1.06.1-1.51.29-.85.48-1.18.86c-.33.38-.58.86-.76,1.43s-.27,1.23-.27,1.99.09,1.44.27,2.01.44,1.04.77,1.42c.33.38.73.66,1.18.85.45.19.95.29,1.5.29Z"/>
      </g>
      <g data-morph-id="l1-1s">
        <path class="cls-2" d="M142.21,226.05c-.77,0-1.52-.05-2.24-.14-.73-.1-1.44-.23-2.13-.4l.41-1.91c.64.16,1.28.28,1.94.36s1.3.13,1.95.13c.72,0,1.3-.08,1.74-.23.44-.15.75-.36.95-.64s.29-.61.29-.99c0-.23-.03-.43-.1-.62-.07-.19-.17-.35-.31-.49-.14-.14-.31-.25-.5-.33s-.42-.15-.67-.2l-2.48-.56c-.4-.08-.78-.21-1.16-.37-.38-.16-.71-.38-1.01-.65-.29-.27-.53-.6-.7-1-.17-.4-.26-.86-.26-1.4,0-.84.22-1.54.66-2.09.44-.55,1.04-.97,1.82-1.24.77-.28,1.67-.41,2.67-.41.65,0,1.32.04,2.01.13.69.08,1.35.21,1.97.38l-.45,1.91c-.36-.1-.73-.18-1.1-.24-.37-.07-.75-.12-1.14-.15-.39-.04-.79-.05-1.2-.05-.58,0-1.07.06-1.49.17s-.75.3-.98.56c-.23.26-.35.6-.35,1.04,0,.28.04.52.13.72.09.2.22.37.39.49.17.12.37.2.61.25l3.19.65c.43.08.83.21,1.18.39s.66.4.91.67.45.62.59,1.02c.14.4.22.89.22,1.45,0,.84-.22,1.54-.65,2.11-.43.56-1.05.99-1.84,1.28-.8.29-1.74.43-2.83.43Z"/>
      </g>
    </g>
  </g>
</svg>