<?xml version="1.0" encoding="UTF-8" standalone="no"?>
<svg
   width="460"
   height="420"
   viewBox="0 0 460 420"
   version="1.1"
   id="svg67"
   sodipodi:docname="1 copy.svg"
   inkscape:version="1.4.3 (0d15f75, 2025-12-25)"
   xmlns:inkscape="http://www.inkscape.org/namespaces/inkscape"
   xmlns:sodipodi="http://sodipodi.sourceforge.net/DTD/sodipodi-0.dtd"
   xmlns="http://www.w3.org/2000/svg"
   xmlns:svg="http://www.w3.org/2000/svg">
  <sodipodi:namedview
     id="namedview67"
     pagecolor="#ffffff"
     bordercolor="#000000"
     borderopacity="0.25"
     inkscape:showpageshadow="2"
     inkscape:pageopacity="0.0"
     inkscape:pagecheckerboard="0"
     inkscape:deskcolor="#d1d1d1"
     inkscape:zoom="1.9130435"
     inkscape:cx="230"
     inkscape:cy="199.94318"
     inkscape:window-width="1024"
     inkscape:window-height="1186"
     inkscape:window-x="0"
     inkscape:window-y="25"
     inkscape:window-maximized="0"
     inkscape:current-layer="svg67" />
  <defs
     id="defs1">
    <style
       id="style1">
      .cls-1 {
        fill: #9f1f11;
      }

      .cls-2 {
        fill: #fff;
      }

      .cls-3 {
        fill: #332019;
      }
    </style>
  </defs>
  <g
     id="shapes">
    <g
       id="g2">
      <polygon
         data-flip-id="s6-2o"
         class="cls-1"
         points="308.61,228.03 304.13,227.52 297.73,279.25 318.6,278.69 "
         id="polygon1" />
      <polygon
         data-flip-id="s6-1d"
         class="cls-1"
         points="326.22,210.7 326.77,234.84 305.31,232.92 291.23,207.31 289.9,176.49 312.86,174.87 304.24,216.57 "
         id="polygon2" />
    </g>
    <g
       id="g4">
      <polygon
         data-morph-id="s5-2o"
         class="cls-1 morph"
         points="290.06,271.92 272.42,281.06 268.87,259.96 273.49,257.57 "
         id="polygon3" />
      <polygon
         data-flip-id="s5-1t"
         class="cls-1"
         points="228.96,279.44 218.7,258.85 296.25,236.92 303.03,247.34 "
         id="polygon4" />
    </g>
    <g
       id="g8">
      <polygon
         data-flip-id="s4-4t"
         class="cls-1"
         points="259.94,226.47 263.77,228.88 292.85,207.52 272.67,190.98 "
         id="polygon5" />
      <polygon
         data-morph-id="s4-3a"
         class="cls-1 morph"
         points="266.94,246.7 254.33,237.88 263.44,227.37 275.33,234.21 "
         id="polygon6" />
      <polygon
         data-flip-id="s4-2h"
         class="cls-1"
         points="248.48,196.71 247.36,218.62 263.62,217.15 263.77,228.88 219.86,224.15 219.22,197.01 "
         id="polygon7" />
      <polygon
         data-flip-id="s4-1w"
         class="cls-1"
         points="185.63,228.67 202.49,282.32 247.32,223.33 241.77,219.36 208.83,248.25 208.82,223 "
         id="polygon8" />
    </g>
    <g
       id="g10">
      <polygon
         data-flip-id="s3-2e"
         class="cls-1"
         points="316.96,138.27 296.72,139.7 295.2,119.77 316.55,118.44 "
         id="polygon9" />
      <polygon
         data-flip-id="s3-1m"
         class="cls-1"
         points="312.45,176.66 285.52,142.77 289.58,167.83 270.64,170.06 273.6,123.97 330,158.31 "
         id="polygon10" />
    </g>
    <g
       id="g14">
      <polygon
         data-flip-id="s2-4l"
         class="cls-1"
         points="255.99,192.77 255.46,169.34 272.89,168.07 274.58,193.67 "
         id="polygon11" />
      <polygon
         data-flip-id="s2-3l"
         class="cls-1"
         points="242.44,172.44 241.2,150.59 257.53,149.23 257.99,170.82 "
         id="polygon12" />
      <polygon
         data-flip-id="s2-2e"
         class="cls-1"
         points="210,151.25 195.48,134.6 214.02,117.68 230.13,137.27 "
         id="polygon13" />
      <polygon
         data-flip-id="s2-1t"
         class="cls-1"
         points="220.54,199.45 197.26,192.13 239.76,118.85 254.23,124.53 "
         id="polygon14" />
    </g>
    <g
       id="g20">
      <polygon
         data-flip-id="s1-6e"
         class="cls-1"
         points="174.26,141.74 131.64,141.22 133.95,121.32 174.28,118.77 "
         id="polygon15" />
      <polygon
         data-flip-id="s1-5n"
         class="cls-1"
         points="198.42,227.63 191.49,223.11 171.67,139.56 197.4,133.73 "
         id="polygon16" />
      <polygon
         data-morph-id="s1-4eo"
         class="cls-1 morph"
         points="197.63,262.88 175.23,242.59 169.23,189.61 170.28,159.79 136.05,155.59 136.17,179.3 158.1,176.88 167.78,189.74 158.99,251 177.17,277.35 "
         id="polygon17" />
      <polygon
         data-flip-id="s1-3m"
         class="cls-1"
         points="198.37,220.8 198.42,227.63 152.39,197.62 166.88,178.51 "
         id="polygon18" />
      <polygon
         data-flip-id="s1-2o"
         class="cls-1"
         points="147.37,219 140.87,219.71 133.61,279.67 156.03,280.48 "
         id="polygon19" />
      <polygon
         data-flip-id="s1-1s"
         class="cls-1"
         points="130,195.34 154.55,196.06 155.81,220.22 131.03,222.86 "
         id="polygon20" />
    </g>
  </g>
  <g
     id="words">
    <g
       data-flip-id="w-do"
       id="g21">
      <path
         class="cls-3"
         d="m 297.91,311.43 c -0.87,0 -1.66,-0.16 -2.38,-0.47 -0.72,-0.31 -1.34,-0.77 -1.86,-1.36 -0.52,-0.6 -0.92,-1.32 -1.21,-2.17 -0.29,-0.85 -0.43,-1.8 -0.43,-2.86 0,-1.58 0.28,-2.92 0.85,-4.03 0.56,-1.11 1.33,-1.95 2.31,-2.54 0.98,-0.58 2.08,-0.87 3.29,-0.87 0.97,0 1.85,0.14 2.63,0.42 0.78,0.28 1.53,0.63 2.24,1.07 l -0.99,1.53 c -0.49,-0.21 -1.01,-0.38 -1.57,-0.51 -0.56,-0.13 -1.14,-0.2 -1.73,-0.2 -0.85,0 -1.59,0.2 -2.22,0.6 -0.63,0.4 -1.13,0.96 -1.48,1.69 -0.36,0.73 -0.53,1.6 -0.53,2.6 0,0.73 0.09,1.39 0.26,1.98 0.17,0.59 0.42,1.09 0.75,1.51 0.33,0.42 0.74,0.74 1.22,0.96 0.48,0.23 1.03,0.34 1.64,0.34 0.64,0 1.37,-0.17 2.2,-0.52 0.83,-0.35 1.59,-1 2.3,-1.95 l -0.03,1.64 c -0.54,0.83 -1.11,1.48 -1.73,1.94 -0.62,0.46 -1.23,0.78 -1.83,0.95 -0.61,0.17 -1.17,0.26 -1.69,0.26 z m 5.31,-0.28 -1.07,-1.92 v -17.58 h 2.78 v 19.5 h -1.72 z"
         id="path20" />
      <path
         class="cls-3"
         d="m 315.83,311.43 c -1.3,0 -2.47,-0.28 -3.5,-0.85 -1.03,-0.56 -1.85,-1.38 -2.46,-2.44 -0.61,-1.07 -0.91,-2.35 -0.91,-3.86 0,-1.51 0.3,-2.8 0.91,-3.86 0.61,-1.06 1.43,-1.88 2.46,-2.44 1.03,-0.56 2.2,-0.85 3.5,-0.85 1.3,0 2.47,0.28 3.5,0.85 1.03,0.56 1.85,1.38 2.46,2.44 0.61,1.07 0.91,2.35 0.91,3.86 0,1.51 -0.3,2.79 -0.91,3.86 -0.61,1.07 -1.43,1.88 -2.46,2.44 -1.03,0.56 -2.2,0.85 -3.5,0.85 z m 0,-2.31 c 0.83,0 1.56,-0.2 2.17,-0.6 0.61,-0.4 1.1,-0.96 1.44,-1.69 0.35,-0.73 0.52,-1.58 0.52,-2.55 0,-0.97 -0.17,-1.82 -0.52,-2.55 -0.35,-0.73 -0.83,-1.29 -1.44,-1.69 -0.62,-0.4 -1.34,-0.6 -2.17,-0.6 -0.83,0 -1.53,0.2 -2.16,0.6 -0.62,0.4 -1.11,0.96 -1.46,1.69 -0.35,0.73 -0.52,1.58 -0.52,2.55 0,0.97 0.17,1.82 0.52,2.55 0.35,0.73 0.83,1.29 1.46,1.69 0.63,0.4 1.34,0.6 2.16,0.6 z"
         id="path21" />
    </g>
    <g
       data-flip-id="w-to"
       id="g23">
      <path
         class="cls-3"
         d="m 254.84,301.04 v -2.24 h 10.4 v 2.24 z m 1.95,-1.9 1.79,-4.06 h 1.27 v 4.06 h -3.07 z m 6.32,13.68 c -1.08,0 -1.99,-0.14 -2.76,-0.42 -0.76,-0.28 -1.39,-0.67 -1.87,-1.17 -0.48,-0.5 -0.84,-1.1 -1.07,-1.79 -0.22,-0.69 -0.34,-1.45 -0.34,-2.26 v -7.02 l 2.78,-0.62 v 7.62 c 0,0.52 0.07,0.99 0.2,1.4 0.13,0.41 0.33,0.77 0.61,1.05 0.28,0.29 0.63,0.51 1.07,0.66 0.43,0.16 0.95,0.23 1.56,0.23 0.29,0 0.58,0 0.87,-0.03 0.29,-0.02 0.57,-0.04 0.85,-0.08 l 0.23,2.24 c -0.33,0.05 -0.67,0.1 -1.03,0.13 -0.36,0.04 -0.72,0.05 -1.11,0.05 z"
         id="path22" />
      <path
         class="cls-3"
         d="m 274.58,312.82 c -1.3,0 -2.47,-0.28 -3.5,-0.85 -1.03,-0.56 -1.85,-1.38 -2.46,-2.44 -0.61,-1.07 -0.91,-2.35 -0.91,-3.86 0,-1.51 0.3,-2.79 0.91,-3.86 0.61,-1.07 1.43,-1.88 2.46,-2.44 1.03,-0.56 2.2,-0.85 3.5,-0.85 1.3,0 2.47,0.28 3.5,0.85 1.03,0.56 1.85,1.38 2.46,2.44 0.61,1.07 0.91,2.35 0.91,3.86 0,1.51 -0.3,2.79 -0.91,3.86 -0.61,1.07 -1.43,1.88 -2.46,2.44 -1.03,0.56 -2.2,0.85 -3.5,0.85 z m 0,-2.32 c 0.83,0 1.56,-0.2 2.17,-0.6 0.61,-0.4 1.1,-0.96 1.44,-1.69 0.35,-0.73 0.52,-1.58 0.52,-2.55 0,-0.97 -0.17,-1.82 -0.52,-2.55 -0.35,-0.73 -0.83,-1.29 -1.44,-1.69 -0.62,-0.4 -1.34,-0.6 -2.17,-0.6 -0.83,0 -1.53,0.2 -2.16,0.6 -0.62,0.4 -1.11,0.96 -1.46,1.69 -0.35,0.73 -0.52,1.58 -0.52,2.55 0,0.97 0.17,1.82 0.52,2.55 0.35,0.73 0.83,1.29 1.46,1.69 0.63,0.4 1.34,0.6 2.16,0.6 z"
         id="path23" />
    </g>
    <g
       data-flip-id="w-what"
       id="g27">
      <path
         class="cls-3"
         d="m 227.19,292.79 -3.35,-13.23 v -0.49 h 2.63 l 2.34,9.31 v 4.42 h -1.61 z m 0.65,0 -0.47,-1.9 4.58,-9.65 h 1.25 l 4.55,9.59 -0.47,1.95 h -0.91 l -3.93,-8.58 -0.39,-0.99 h 1.04 l -0.39,0.99 -3.9,8.58 h -0.96 z m 8.53,0 -0.03,-4.39 2.37,-9.33 h 2.6 v 0.49 l -3.35,13.23 z"
         id="path24" />
      <path
         class="cls-3"
         d="m 244.82,292.79 v -19.5 h 2.78 v 19.5 z m 9.54,0 v -8.76 c 0,-0.97 -0.23,-1.7 -0.7,-2.2 -0.47,-0.49 -1.14,-0.74 -2,-0.74 -0.5,0 -1.01,0.08 -1.51,0.25 -0.5,0.17 -1,0.39 -1.48,0.66 -0.49,0.28 -0.95,0.59 -1.4,0.94 l -0.16,-1.53 c 0.9,-0.81 1.82,-1.46 2.74,-1.92 0.93,-0.47 1.9,-0.7 2.92,-0.7 1.33,0 2.4,0.45 3.19,1.34 0.79,0.89 1.18,2.14 1.18,3.73 v 8.94 h -2.78 z"
         id="path25" />
      <path
         class="cls-3"
         d="m 265.36,293.08 c -0.82,0 -1.54,-0.18 -2.17,-0.53 -0.63,-0.35 -1.13,-0.84 -1.48,-1.47 -0.35,-0.63 -0.53,-1.33 -0.53,-2.13 0,-0.61 0.1,-1.16 0.3,-1.66 0.2,-0.5 0.5,-0.94 0.91,-1.31 0.41,-0.37 0.92,-0.67 1.53,-0.88 0.62,-0.22 1.34,-0.34 2.17,-0.38 l 4.26,-0.16 v 1.98 l -4.21,0.16 c -0.52,0.02 -0.96,0.14 -1.31,0.36 -0.36,0.23 -0.62,0.5 -0.79,0.82 -0.17,0.32 -0.26,0.64 -0.26,0.95 0,0.4 0.09,0.75 0.26,1.07 0.17,0.31 0.44,0.56 0.79,0.73 0.36,0.17 0.79,0.26 1.31,0.26 0.87,0 1.64,-0.2 2.33,-0.58 0.68,-0.39 1.31,-0.8 1.89,-1.24 l 0.16,1.4 c -0.47,0.49 -0.97,0.93 -1.5,1.33 -0.53,0.4 -1.1,0.72 -1.7,0.95 -0.61,0.23 -1.26,0.35 -1.95,0.35 z m 5.72,-0.29 -1.07,-1.92 v -6.37 c 0,-0.47 -0.06,-0.91 -0.17,-1.33 -0.11,-0.42 -0.3,-0.78 -0.57,-1.09 -0.27,-0.31 -0.65,-0.55 -1.13,-0.73 -0.49,-0.17 -1.1,-0.26 -1.85,-0.26 -0.64,0 -1.27,0.05 -1.9,0.16 -0.63,0.11 -1.26,0.25 -1.9,0.44 l -0.44,-2.24 c 0.69,-0.21 1.45,-0.37 2.26,-0.49 0.81,-0.12 1.59,-0.18 2.34,-0.18 1.18,0 2.16,0.14 2.94,0.42 0.78,0.28 1.41,0.68 1.89,1.2 0.48,0.52 0.81,1.13 1.01,1.83 0.2,0.7 0.3,1.49 0.3,2.35 v 8.22 h -1.72 z"
         id="path26" />
      <path
         class="cls-3"
         d="m 276.17,281.3 v -2.24 h 10.4 v 2.24 z m 1.95,-1.9 1.79,-4.06 h 1.27 v 4.06 h -3.07 z m 6.32,13.68 c -1.08,0 -1.99,-0.14 -2.76,-0.42 -0.76,-0.28 -1.39,-0.67 -1.87,-1.17 -0.48,-0.5 -0.84,-1.1 -1.07,-1.79 -0.22,-0.69 -0.34,-1.45 -0.34,-2.26 v -7.02 l 2.78,-0.62 v 7.62 c 0,0.52 0.07,0.99 0.2,1.4 0.13,0.41 0.33,0.77 0.61,1.05 0.28,0.29 0.63,0.51 1.07,0.66 0.43,0.16 0.95,0.23 1.56,0.23 0.29,0 0.58,0 0.87,-0.03 0.29,-0.02 0.57,-0.04 0.85,-0.08 l 0.23,2.24 c -0.33,0.05 -0.67,0.1 -1.03,0.13 -0.36,0.03 -0.72,0.05 -1.11,0.05 z"
         id="path27" />
    </g>
    <g
       data-flip-id="w-me"
       id="g29">
      <path
         class="cls-3"
         d="m 280.26,204.96 v -13.73 h 1.72 l 1.07,1.92 v 11.8 h -2.78 z m 9.28,0 v -8.76 c 0,-0.97 -0.23,-1.7 -0.69,-2.2 -0.46,-0.49 -1.1,-0.74 -1.91,-0.74 -0.54,0 -1.04,0.08 -1.52,0.25 -0.48,0.17 -0.94,0.39 -1.38,0.66 -0.44,0.28 -0.89,0.59 -1.34,0.94 l -0.16,-1.53 c 0.9,-0.81 1.77,-1.46 2.61,-1.92 0.84,-0.46 1.77,-0.7 2.79,-0.7 0.9,0 1.68,0.2 2.33,0.6 0.65,0.4 1.15,0.98 1.51,1.73 0.36,0.75 0.53,1.67 0.53,2.74 v 8.94 h -2.78 z m 9.28,0 v -8.76 c 0,-0.97 -0.23,-1.7 -0.69,-2.2 -0.46,-0.5 -1.1,-0.74 -1.91,-0.74 -0.81,0 -1.53,0.18 -2.21,0.55 -0.68,0.36 -1.35,0.8 -2.03,1.3 l -0.16,-1.53 c 0.9,-0.81 1.77,-1.46 2.61,-1.92 0.84,-0.47 1.77,-0.7 2.79,-0.7 0.9,0 1.68,0.2 2.33,0.6 0.65,0.4 1.15,0.98 1.51,1.73 0.35,0.75 0.53,1.67 0.53,2.74 v 8.94 h -2.78 z"
         id="path28" />
      <path
         class="cls-3"
         d="m 313.25,205.24 c -1.79,0 -3.24,-0.3 -4.35,-0.9 -1.12,-0.6 -1.94,-1.43 -2.47,-2.48 -0.53,-1.06 -0.79,-2.27 -0.79,-3.64 0,-1.37 0.29,-2.6 0.86,-3.71 0.57,-1.1 1.38,-1.97 2.42,-2.61 1.04,-0.64 2.26,-0.96 3.67,-0.96 0.92,0 1.72,0.14 2.42,0.42 0.69,0.28 1.27,0.68 1.73,1.21 0.46,0.53 0.8,1.16 1.03,1.89 0.23,0.73 0.34,1.55 0.34,2.47 v 2.11 l -10.63,0.03 v -1.98 h 8.61 l -0.55,0.99 v -1.2 c 0,-0.45 -0.04,-0.87 -0.12,-1.25 -0.08,-0.38 -0.19,-0.71 -0.34,-1 -0.15,-0.29 -0.34,-0.53 -0.59,-0.74 -0.24,-0.21 -0.53,-0.36 -0.86,-0.47 -0.33,-0.11 -0.7,-0.16 -1.12,-0.16 -0.8,0 -1.51,0.2 -2.13,0.58 -0.62,0.39 -1.11,0.95 -1.47,1.69 -0.36,0.74 -0.53,1.63 -0.53,2.69 0,1.06 0.17,1.88 0.52,2.59 0.35,0.71 0.89,1.23 1.62,1.59 0.74,0.36 1.67,0.53 2.79,0.53 0.69,0 1.35,-0.06 1.96,-0.17 0.61,-0.11 1.23,-0.26 1.86,-0.46 l 0.6,2.13 c -0.69,0.24 -1.43,0.44 -2.22,0.58 -0.79,0.14 -1.54,0.22 -2.25,0.22 z"
         id="path29" />
    </g>
    <g
       data-flip-id="w-tell"
       id="g33">
      <path
         class="cls-3"
         d="m 217.45,219.94 v -2.24 h 10.4 v 2.24 z m 1.95,-1.9 1.79,-4.06 h 1.27 v 4.06 h -3.07 z m 6.31,13.68 c -1.08,0 -1.99,-0.14 -2.76,-0.42 -0.76,-0.28 -1.39,-0.67 -1.87,-1.17 -0.48,-0.5 -0.84,-1.1 -1.07,-1.79 -0.22,-0.69 -0.34,-1.45 -0.34,-2.26 v -7.02 l 2.78,-0.62 v 7.62 c 0,0.52 0.07,0.99 0.2,1.4 0.13,0.41 0.33,0.77 0.61,1.05 0.28,0.29 0.63,0.51 1.07,0.66 0.43,0.16 0.95,0.23 1.56,0.23 0.29,0 0.58,0 0.87,-0.03 0.29,-0.02 0.57,-0.04 0.85,-0.08 l 0.23,2.24 c -0.33,0.05 -0.67,0.1 -1.03,0.13 -0.36,0.03 -0.72,0.05 -1.11,0.05 z"
         id="path30" />
      <path
         class="cls-3"
         d="m 237.93,231.72 c -1.79,0 -3.24,-0.3 -4.35,-0.9 -1.12,-0.6 -1.94,-1.43 -2.47,-2.48 -0.53,-1.06 -0.79,-2.27 -0.79,-3.64 0,-1.37 0.29,-2.6 0.86,-3.71 0.57,-1.1 1.38,-1.97 2.42,-2.61 1.04,-0.64 2.26,-0.96 3.67,-0.96 0.92,0 1.72,0.14 2.42,0.42 0.69,0.28 1.27,0.68 1.73,1.21 0.46,0.53 0.8,1.16 1.03,1.89 0.23,0.73 0.34,1.55 0.34,2.47 v 2.11 l -10.63,0.03 v -1.98 h 8.61 l -0.55,0.99 v -1.2 c 0,-0.45 -0.04,-0.87 -0.12,-1.25 -0.08,-0.38 -0.19,-0.71 -0.34,-1 -0.15,-0.29 -0.34,-0.53 -0.59,-0.74 -0.24,-0.21 -0.53,-0.36 -0.86,-0.47 -0.33,-0.11 -0.7,-0.16 -1.12,-0.16 -0.8,0 -1.51,0.2 -2.13,0.58 -0.62,0.39 -1.11,0.95 -1.47,1.69 -0.36,0.74 -0.53,1.63 -0.53,2.69 0,1.06 0.17,1.88 0.52,2.59 0.35,0.71 0.89,1.23 1.62,1.59 0.74,0.36 1.67,0.53 2.79,0.53 0.69,0 1.35,-0.06 1.96,-0.17 0.61,-0.11 1.23,-0.26 1.86,-0.46 l 0.6,2.13 c -0.69,0.24 -1.43,0.44 -2.22,0.58 -0.79,0.14 -1.54,0.22 -2.25,0.22 z"
         id="path31" />
      <path
         class="cls-3"
         d="m 246.8,231.43 v -19.5 h 2.78 v 19.5 z"
         id="path32" />
      <path
         class="cls-3"
         d="m 254.78,231.43 v -19.5 h 2.78 v 19.5 z"
         id="path33" />
    </g>
    <g
       data-flip-id="w-someone"
       id="g40">
      <path
         class="cls-3"
         d="m 108.79,313.94 c -0.87,0 -1.69,-0.06 -2.47,-0.17 -0.78,-0.11 -1.51,-0.26 -2.18,-0.46 l 0.47,-2.21 c 0.66,0.17 1.33,0.3 2.03,0.39 0.7,0.09 1.41,0.13 2.16,0.13 0.75,0 1.31,-0.08 1.79,-0.23 0.49,-0.16 0.85,-0.38 1.09,-0.66 0.24,-0.29 0.36,-0.62 0.36,-1 0,-0.57 -0.16,-0.99 -0.47,-1.25 -0.31,-0.26 -0.77,-0.43 -1.38,-0.52 l -2.29,-0.31 c -0.75,-0.1 -1.39,-0.33 -1.94,-0.68 -0.55,-0.35 -0.96,-0.79 -1.25,-1.33 -0.29,-0.54 -0.43,-1.13 -0.43,-1.77 0,-0.94 0.25,-1.72 0.74,-2.35 0.49,-0.63 1.18,-1.1 2.07,-1.42 0.88,-0.31 1.89,-0.47 3.02,-0.47 0.76,0 1.5,0.04 2.2,0.13 0.7,0.09 1.41,0.23 2.12,0.42 l -0.47,2.21 c -0.61,-0.14 -1.23,-0.25 -1.88,-0.33 -0.65,-0.08 -1.28,-0.12 -1.88,-0.12 -0.68,0 -1.25,0.07 -1.72,0.2 -0.47,0.13 -0.82,0.32 -1.05,0.58 -0.23,0.26 -0.35,0.61 -0.35,1.04 0,0.54 0.14,0.92 0.43,1.16 0.29,0.23 0.7,0.39 1.24,0.46 l 2.78,0.39 c 0.95,0.12 1.74,0.51 2.37,1.16 0.62,0.65 0.94,1.52 0.94,2.61 0,0.73 -0.13,1.37 -0.4,1.91 -0.27,0.54 -0.66,1.01 -1.18,1.38 -0.52,0.37 -1.15,0.65 -1.9,0.83 -0.75,0.18 -1.59,0.27 -2.55,0.27 z"
         id="path34" />
      <path
         class="cls-3"
         d="m 124.52,313.94 c -1.3,0 -2.47,-0.28 -3.5,-0.85 -1.03,-0.56 -1.85,-1.38 -2.46,-2.44 -0.61,-1.07 -0.91,-2.35 -0.91,-3.86 0,-1.51 0.3,-2.8 0.91,-3.86 0.61,-1.06 1.43,-1.88 2.46,-2.44 1.03,-0.56 2.2,-0.85 3.5,-0.85 1.3,0 2.47,0.28 3.5,0.85 1.03,0.56 1.85,1.38 2.46,2.44 0.61,1.07 0.91,2.35 0.91,3.86 0,1.51 -0.3,2.79 -0.91,3.86 -0.61,1.07 -1.43,1.88 -2.46,2.44 -1.03,0.56 -2.2,0.85 -3.5,0.85 z m 0,-2.31 c 0.83,0 1.56,-0.2 2.17,-0.6 0.61,-0.4 1.1,-0.96 1.44,-1.69 0.35,-0.73 0.52,-1.58 0.52,-2.55 0,-0.97 -0.17,-1.82 -0.52,-2.55 -0.35,-0.73 -0.83,-1.29 -1.44,-1.69 -0.62,-0.4 -1.34,-0.6 -2.17,-0.6 -0.83,0 -1.53,0.2 -2.16,0.6 -0.62,0.4 -1.11,0.96 -1.46,1.69 -0.35,0.73 -0.52,1.58 -0.52,2.55 0,0.97 0.17,1.82 0.52,2.55 0.35,0.73 0.83,1.29 1.46,1.69 0.63,0.4 1.34,0.6 2.16,0.6 z"
         id="path35" />
      <path
         class="cls-3"
         d="m 135.41,313.65 v -13.73 h 1.72 l 1.07,1.92 v 11.8 h -2.78 z m 9.28,0 v -8.76 c 0,-0.97 -0.23,-1.7 -0.69,-2.2 -0.46,-0.49 -1.1,-0.74 -1.91,-0.74 -0.54,0 -1.04,0.08 -1.52,0.25 -0.48,0.17 -0.94,0.39 -1.38,0.66 -0.44,0.28 -0.89,0.59 -1.34,0.94 l -0.16,-1.53 c 0.9,-0.81 1.77,-1.46 2.61,-1.92 0.84,-0.46 1.77,-0.7 2.79,-0.7 0.9,0 1.68,0.2 2.33,0.6 0.65,0.4 1.15,0.98 1.51,1.73 0.36,0.75 0.53,1.67 0.53,2.74 v 8.94 h -2.78 z m 9.28,0 v -8.76 c 0,-0.97 -0.23,-1.7 -0.69,-2.2 -0.46,-0.5 -1.1,-0.74 -1.91,-0.74 -0.81,0 -1.53,0.18 -2.21,0.55 -0.68,0.36 -1.35,0.8 -2.03,1.3 l -0.16,-1.53 c 0.9,-0.81 1.77,-1.46 2.61,-1.92 0.84,-0.47 1.77,-0.7 2.79,-0.7 0.9,0 1.68,0.2 2.33,0.6 0.65,0.4 1.15,0.98 1.51,1.73 0.35,0.75 0.53,1.67 0.53,2.74 v 8.94 h -2.78 z"
         id="path36" />
      <path
         class="cls-3"
         d="m 168.4,313.94 c -1.79,0 -3.24,-0.3 -4.35,-0.9 -1.12,-0.6 -1.94,-1.43 -2.47,-2.48 -0.53,-1.06 -0.79,-2.27 -0.79,-3.64 0,-1.37 0.29,-2.6 0.86,-3.71 0.57,-1.1 1.38,-1.97 2.42,-2.61 1.04,-0.64 2.26,-0.96 3.67,-0.96 0.92,0 1.72,0.14 2.42,0.42 0.69,0.28 1.27,0.68 1.73,1.21 0.46,0.53 0.8,1.16 1.03,1.89 0.23,0.73 0.34,1.55 0.34,2.47 v 2.11 l -10.63,0.03 v -1.98 h 8.61 l -0.55,0.99 v -1.2 c 0,-0.45 -0.04,-0.87 -0.12,-1.25 -0.08,-0.38 -0.19,-0.71 -0.34,-1 -0.15,-0.29 -0.34,-0.53 -0.59,-0.74 -0.24,-0.21 -0.53,-0.36 -0.86,-0.47 -0.33,-0.11 -0.7,-0.16 -1.12,-0.16 -0.8,0 -1.51,0.2 -2.13,0.58 -0.62,0.39 -1.11,0.95 -1.47,1.69 -0.36,0.74 -0.53,1.63 -0.53,2.69 0,1.06 0.17,1.88 0.52,2.59 0.35,0.71 0.89,1.23 1.62,1.59 0.74,0.36 1.67,0.53 2.79,0.53 0.69,0 1.35,-0.06 1.96,-0.17 0.61,-0.11 1.23,-0.26 1.86,-0.46 l 0.6,2.13 c -0.69,0.24 -1.43,0.44 -2.22,0.58 -0.79,0.15 -1.54,0.22 -2.25,0.22 z"
         id="path37" />
      <path
         class="cls-3"
         d="m 182.96,313.94 c -1.3,0 -2.47,-0.28 -3.5,-0.85 -1.03,-0.56 -1.85,-1.38 -2.46,-2.44 -0.61,-1.07 -0.91,-2.35 -0.91,-3.86 0,-1.51 0.3,-2.8 0.91,-3.86 0.61,-1.06 1.43,-1.88 2.46,-2.44 1.03,-0.56 2.2,-0.85 3.5,-0.85 1.3,0 2.47,0.28 3.5,0.85 1.03,0.56 1.85,1.38 2.46,2.44 0.61,1.07 0.91,2.35 0.91,3.86 0,1.51 -0.3,2.79 -0.91,3.86 -0.61,1.07 -1.43,1.88 -2.46,2.44 -1.03,0.56 -2.2,0.85 -3.5,0.85 z m 0,-2.31 c 0.83,0 1.56,-0.2 2.17,-0.6 0.61,-0.4 1.1,-0.96 1.44,-1.69 0.35,-0.73 0.52,-1.58 0.52,-2.55 0,-0.97 -0.17,-1.82 -0.52,-2.55 -0.35,-0.73 -0.83,-1.29 -1.44,-1.69 -0.62,-0.4 -1.34,-0.6 -2.17,-0.6 -0.83,0 -1.53,0.2 -2.16,0.6 -0.62,0.4 -1.11,0.96 -1.46,1.69 -0.35,0.73 -0.52,1.58 -0.52,2.55 0,0.97 0.17,1.82 0.52,2.55 0.35,0.73 0.83,1.29 1.46,1.69 0.63,0.4 1.34,0.6 2.16,0.6 z"
         id="path38" />
      <path
         class="cls-3"
         d="m 193.86,313.65 v -13.73 h 1.72 l 1.07,1.92 v 11.8 h -2.78 z m 9.54,0 v -9 c 0,-0.85 -0.23,-1.51 -0.7,-1.99 -0.47,-0.48 -1.14,-0.72 -2,-0.72 -0.5,0 -1.01,0.08 -1.51,0.25 -0.5,0.17 -1,0.39 -1.48,0.66 -0.49,0.28 -0.95,0.59 -1.4,0.94 l -0.16,-1.53 c 0.9,-0.81 1.82,-1.46 2.74,-1.92 0.93,-0.47 1.9,-0.7 2.92,-0.7 1.33,0 2.4,0.38 3.19,1.14 0.79,0.76 1.18,1.92 1.18,3.46 v 9.41 z"
         id="path39" />
      <path
         class="cls-3"
         d="m 217.83,313.94 c -1.79,0 -3.24,-0.3 -4.35,-0.9 -1.12,-0.6 -1.94,-1.43 -2.47,-2.48 -0.53,-1.06 -0.79,-2.27 -0.79,-3.64 0,-1.37 0.29,-2.6 0.86,-3.71 0.57,-1.1 1.38,-1.97 2.42,-2.61 1.04,-0.64 2.26,-0.96 3.67,-0.96 0.92,0 1.72,0.14 2.42,0.42 0.69,0.28 1.27,0.68 1.73,1.21 0.46,0.53 0.8,1.16 1.03,1.89 0.23,0.73 0.34,1.55 0.34,2.47 v 2.11 l -10.63,0.03 v -1.98 h 8.61 l -0.55,0.99 v -1.2 c 0,-0.45 -0.04,-0.87 -0.12,-1.25 -0.08,-0.38 -0.19,-0.71 -0.34,-1 -0.15,-0.29 -0.34,-0.53 -0.59,-0.74 -0.24,-0.21 -0.53,-0.36 -0.86,-0.47 -0.33,-0.11 -0.7,-0.16 -1.12,-0.16 -0.8,0 -1.51,0.2 -2.13,0.58 -0.62,0.39 -1.11,0.95 -1.47,1.69 -0.36,0.74 -0.53,1.63 -0.53,2.69 0,1.06 0.17,1.88 0.52,2.59 0.35,0.71 0.89,1.23 1.62,1.59 0.74,0.36 1.67,0.53 2.79,0.53 0.69,0 1.35,-0.06 1.96,-0.17 0.61,-0.11 1.23,-0.26 1.86,-0.46 l 0.6,2.13 c -0.69,0.24 -1.43,0.44 -2.22,0.58 -0.79,0.15 -1.54,0.22 -2.25,0.22 z"
         id="path40" />
    </g>
  </g>
  <g
     id="letters">
    <g
       id="g43">
      <g
         data-flip-id="l6-2o"
         id="g41">
        <path
           class="cls-2"
           d="m 307.97,275.99 c -0.92,0 -1.76,-0.14 -2.52,-0.42 -0.76,-0.28 -1.4,-0.7 -1.94,-1.26 -0.54,-0.56 -0.95,-1.25 -1.24,-2.07 -0.29,-0.82 -0.43,-1.77 -0.43,-2.83 0,-1.06 0.14,-2.01 0.43,-2.83 0.29,-0.82 0.7,-1.51 1.24,-2.07 0.54,-0.56 1.19,-0.98 1.94,-1.26 0.76,-0.28 1.6,-0.42 2.52,-0.42 0.92,0 1.76,0.14 2.51,0.42 0.75,0.28 1.39,0.7 1.93,1.26 0.53,0.56 0.95,1.25 1.24,2.07 0.29,0.82 0.44,1.77 0.44,2.83 0,1.06 -0.15,2.01 -0.44,2.83 -0.29,0.82 -0.71,1.51 -1.24,2.07 -0.53,0.56 -1.18,0.98 -1.93,1.26 -0.76,0.28 -1.59,0.42 -2.5,0.42 z m 0,-2.01 c 0.54,0 1.04,-0.1 1.49,-0.29 0.45,-0.19 0.84,-0.48 1.17,-0.85 0.33,-0.37 0.59,-0.85 0.77,-1.42 0.19,-0.57 0.28,-1.24 0.28,-2.01 0,-0.77 -0.09,-1.42 -0.28,-1.99 -0.19,-0.57 -0.44,-1.05 -0.77,-1.43 -0.33,-0.38 -0.72,-0.67 -1.17,-0.86 -0.45,-0.19 -0.95,-0.29 -1.49,-0.29 -0.54,0 -1.06,0.1 -1.51,0.29 -0.45,0.19 -0.85,0.48 -1.18,0.86 -0.33,0.38 -0.58,0.86 -0.76,1.43 -0.18,0.57 -0.27,1.23 -0.27,1.99 0,0.76 0.09,1.44 0.27,2.01 0.18,0.57 0.44,1.04 0.77,1.42 0.33,0.38 0.73,0.66 1.18,0.85 0.45,0.19 0.95,0.29 1.5,0.29 z"
           id="path41" />
      </g>
      <g
         data-flip-id="l6-1d"
         id="g42">
        <path
           class="cls-2"
           d="m 312.18,230.09 v -12.78 h 2.39 v 12.78 z m 1.08,0 v -2.02 h 3.47 c 0.73,0 1.35,-0.11 1.86,-0.32 0.51,-0.21 0.93,-0.51 1.25,-0.89 0.32,-0.38 0.56,-0.84 0.71,-1.38 0.15,-0.53 0.22,-1.12 0.22,-1.75 0,-0.91 -0.15,-1.7 -0.44,-2.35 -0.29,-0.65 -0.74,-1.16 -1.33,-1.52 -0.59,-0.36 -1.34,-0.54 -2.24,-0.54 h -2.74 v -2.02 h 2.79 c 1.39,0 2.56,0.25 3.52,0.76 0.95,0.5 1.67,1.24 2.15,2.2 0.48,0.96 0.72,2.12 0.72,3.47 0,0.88 -0.12,1.7 -0.35,2.47 -0.23,0.77 -0.61,1.44 -1.12,2.02 -0.51,0.58 -1.18,1.04 -2,1.37 -0.82,0.33 -1.82,0.5 -3,0.5 h -3.49 z"
           id="path42" />
      </g>
    </g>
    <g
       id="g46">
      <g
         data-flip-id="l5-2o"
         id="g44">
        <path
           class="cls-2"
           d="m 277.3,276.77 c -0.92,0 -1.76,-0.14 -2.52,-0.42 -0.76,-0.28 -1.4,-0.7 -1.94,-1.26 -0.54,-0.56 -0.95,-1.25 -1.24,-2.07 -0.29,-0.82 -0.43,-1.77 -0.43,-2.83 0,-1.06 0.14,-2.01 0.43,-2.83 0.29,-0.82 0.7,-1.51 1.24,-2.07 0.54,-0.56 1.19,-0.98 1.94,-1.26 0.76,-0.28 1.6,-0.42 2.52,-0.42 0.92,0 1.76,0.14 2.51,0.42 0.75,0.28 1.39,0.7 1.93,1.26 0.53,0.56 0.95,1.25 1.24,2.07 0.29,0.82 0.44,1.77 0.44,2.83 0,1.06 -0.15,2.01 -0.44,2.83 -0.29,0.82 -0.71,1.51 -1.24,2.07 -0.53,0.56 -1.18,0.98 -1.93,1.26 -0.76,0.28 -1.59,0.42 -2.5,0.42 z m 0,-2.02 c 0.54,0 1.04,-0.1 1.49,-0.29 0.45,-0.19 0.84,-0.48 1.17,-0.85 0.33,-0.37 0.59,-0.85 0.77,-1.42 0.19,-0.57 0.28,-1.24 0.28,-2.01 0,-0.77 -0.09,-1.42 -0.28,-1.99 -0.19,-0.57 -0.44,-1.05 -0.77,-1.43 -0.33,-0.38 -0.72,-0.67 -1.17,-0.86 -0.45,-0.19 -0.95,-0.29 -1.49,-0.29 -0.54,0 -1.06,0.1 -1.51,0.29 -0.45,0.19 -0.85,0.48 -1.18,0.86 -0.33,0.38 -0.58,0.86 -0.76,1.43 -0.18,0.57 -0.27,1.23 -0.27,1.99 0,0.76 0.09,1.44 0.27,2.01 0.18,0.57 0.44,1.04 0.77,1.42 0.33,0.38 0.73,0.66 1.18,0.85 0.45,0.19 0.95,0.29 1.5,0.29 z"
           id="path43" />
      </g>
      <g
         data-flip-id="l5-1t"
         id="g45">
        <path
           class="cls-2"
           d="m 254.7,252.64 v -2.12 h 10.42 v 2.12 z m 4.03,10.66 v -12.78 h 2.39 v 12.78 z"
           id="path44" />
      </g>
    </g>
    <g
       id="g51">
      <g
         data-flip-id="l4-4t"
         id="g47">
        <path
           class="cls-2"
           d="m 208.21,253.43 -2.34,-12.31 v -0.47 h 2.32 l 1.82,9.2 -0.14,3.58 z m 0.09,0 0.77,-2.29 3.89,-8.5 H 214 l 3.91,8.53 0.72,2.25 h -1.76 l -3.46,-7.31 -0.31,-0.9 h 0.72 l -0.31,0.9 -3.47,7.31 h -1.75 z m 8.78,0 -0.14,-3.58 1.82,-9.2 h 2.34 v 0.47 l -2.38,12.31 z"
           id="path46" />
      </g>
      <g
         data-flip-id="l4-3a"
         id="g48">
        <path
           class="cls-2"
           d="m 258.68,241.38 v -0.47 l 5.06,-12.31 h 2.18 l 5.06,12.28 v 0.5 h -2.38 l -3.89,-9.94 -0.02,-0.65 h 0.29 l -0.05,0.65 -3.91,9.94 z m 2.6,-2.32 v -1.84 h 7.34 v 1.84 z"
           id="path47" />
      </g>
      <g
         data-flip-id="l4-2h"
         id="g49">
        <path
           class="cls-2"
           d="m 229.92,221.55 v -12.78 h 2.39 v 12.78 z m 0.66,-5.38 v -2.12 h 8.5 v 2.12 z m 7.44,5.38 v -12.78 h 2.39 v 12.78 z"
           id="path48" />
      </g>
      <g
         data-flip-id="l4-1w"
         id="g50">
        <path
           class="cls-2"
           d="m 271.21,204.42 v -2.12 h 10.42 v 2.12 z m 4.03,10.65 v -12.78 h 2.39 v 12.78 z"
           id="path49" />
      </g>
    </g>
    <g
       id="g54">
      <g
         data-flip-id="l3-2e"
         id="g52">
        <path
           class="cls-2"
           d="m 301.79,135.09 v -12.78 h 2.39 v 12.78 z m 0.39,-10.71 v -2.07 h 8.59 v 2.07 z m 0,5.17 v -1.87 h 8.01 v 1.87 z m 0,5.54 v -2.07 h 8.59 v 2.07 z"
           id="path51" />
      </g>
      <g
         data-flip-id="l3-1m"
         id="g53">
        <path
           class="cls-2"
           d="m 305.38,165.02 v -12.78 h 1.71 l 0.65,4.57 v 8.21 z m 5.72,-3.45 -4.16,-6.3 -1.53,-3.02 h 1.87 l 4.21,6.3 0.56,1.19 h -0.88 l 0.58,-1.19 4.18,-6.3 h 1.87 l -1.46,2.93 -4.23,6.39 z m 4.36,3.45 v -8.21 l 0.61,-4.57 h 1.75 v 12.78 z"
           id="path52" />
      </g>
    </g>
    <g
       id="g59">
      <g
         data-flip-id="l2-4l"
         id="g55">
        <path
           class="cls-2"
           d="m 260.7,187.54 v -12.78 h 2.39 v 12.78 z m 0.4,0 v -2.12 h 7.99 v 2.12 z"
           id="path54" />
      </g>
      <g
         data-flip-id="l2-3l"
         id="g56">
        <path
           class="cls-2"
           d="m 245.86,166.85 v -12.78 h 2.39 v 12.78 z m 0.39,0 v -2.12 h 7.99 v 2.12 z"
           id="path55" />
      </g>
      <g
         data-flip-id="l2-2e"
         id="g57">
        <path
           class="cls-2"
           d="M 207.33,141.48 V 128.7 h 2.39 v 12.78 z m 0.4,-10.71 v -2.07 h 8.59 v 2.07 z m 0,5.17 v -1.87 h 8.01 v 1.87 z m 0,5.54 v -2.07 h 8.59 v 2.07 z"
           id="path56" />
      </g>
      <g
         data-flip-id="l2-1t"
         id="g58">
        <path
           class="cls-2"
           d="m 223.54,155.23 v -2.12 h 10.42 v 2.12 z m 4.03,10.66 v -12.78 h 2.39 v 12.78 z"
           id="path57" />
      </g>
    </g>
    <g
       id="g67">
      <g
         data-flip-id="l1-7e"
         id="g60">
        <path
           class="cls-2"
           d="m 149.2,137.23 v -12.78 h 2.39 v 12.78 z m 0.4,-10.71 v -2.07 h 8.59 v 2.07 z m 0,5.17 v -1.87 h 8.01 v 1.87 z m 0,5.54 v -2.07 h 8.59 v 2.07 z"
           id="path59" />
      </g>
      <g
         data-flip-id="l1-6n"
         id="g61">
        <path
           class="cls-2"
           d="m 181.91,169.57 v -12.78 h 1.64 l 0.72,3.69 v 9.09 z m 9.04,0 -7.45,-9.5 -1.49,-3.28 h 1.55 l 7.15,9.04 1.67,3.74 h -1.42 z m 0.02,0 -0.88,-4.21 v -8.57 h 2.36 v 12.78 z"
           id="path60" />
      </g>
      <g
         data-flip-id="l1-5o"
         id="g62">
        <path
           class="cls-2"
           d="m 177.96,266.4 c -0.92,0 -1.76,-0.14 -2.52,-0.42 -0.76,-0.28 -1.4,-0.7 -1.94,-1.26 -0.54,-0.56 -0.95,-1.25 -1.24,-2.07 -0.29,-0.82 -0.43,-1.77 -0.43,-2.83 0,-1.06 0.14,-2.01 0.43,-2.83 0.29,-0.82 0.7,-1.51 1.24,-2.07 0.54,-0.56 1.19,-0.98 1.94,-1.26 0.76,-0.28 1.6,-0.42 2.52,-0.42 0.92,0 1.76,0.14 2.51,0.42 0.75,0.28 1.39,0.7 1.93,1.26 0.53,0.56 0.95,1.25 1.24,2.07 0.29,0.82 0.44,1.77 0.44,2.83 0,1.06 -0.15,2.01 -0.44,2.83 -0.29,0.82 -0.71,1.51 -1.24,2.07 -0.53,0.56 -1.18,0.98 -1.93,1.26 -0.76,0.28 -1.59,0.42 -2.5,0.42 z m 0,-2.02 c 0.54,0 1.04,-0.1 1.49,-0.29 0.45,-0.19 0.84,-0.48 1.17,-0.85 0.33,-0.37 0.59,-0.85 0.77,-1.42 0.19,-0.57 0.28,-1.24 0.28,-2.01 0,-0.77 -0.09,-1.42 -0.28,-1.99 -0.19,-0.57 -0.44,-1.05 -0.77,-1.43 -0.33,-0.38 -0.72,-0.67 -1.17,-0.86 -0.45,-0.19 -0.95,-0.29 -1.49,-0.29 -0.54,0 -1.06,0.1 -1.51,0.29 -0.45,0.19 -0.85,0.48 -1.18,0.86 -0.33,0.38 -0.58,0.86 -0.76,1.43 -0.18,0.57 -0.27,1.23 -0.27,1.99 0,0.76 0.09,1.44 0.27,2.01 0.18,0.57 0.44,1.04 0.77,1.42 0.33,0.38 0.73,0.66 1.18,0.85 0.45,0.19 0.95,0.29 1.5,0.29 z"
           id="path61" />
      </g>
      <g
         data-flip-id="l1-4e"
         id="g63">
        <path
           class="cls-2"
           d="m 141.17,173.95 v -12.78 h 2.39 v 12.78 z m 0.4,-10.71 v -2.07 h 8.59 v 2.07 z m 0,5.16 v -1.87 h 8.01 v 1.87 z m 0,5.55 v -2.07 h 8.59 v 2.07 z"
           id="path62" />
      </g>
      <g
         data-flip-id="l1-3m"
         id="g64">
        <path
           class="cls-2"
           d="m 161,201.97 v -12.78 h 1.71 l 0.65,4.57 v 8.21 z m 5.73,-3.46 -4.16,-6.3 -1.53,-3.02 h 1.87 l 4.21,6.3 0.56,1.19 h -0.88 l 0.58,-1.19 4.18,-6.3 h 1.87 l -1.46,2.93 -4.23,6.39 z m 4.35,3.46 v -8.21 l 0.61,-4.57 h 1.75 v 12.78 z"
           id="path63" />
      </g>
      <g
         data-flip-id="l1-2o"
         id="g65">
        <path
           class="cls-2"
           d="m 144.47,270.35 c -0.92,0 -1.76,-0.14 -2.52,-0.42 -0.76,-0.28 -1.4,-0.7 -1.94,-1.26 -0.54,-0.56 -0.95,-1.25 -1.24,-2.07 -0.29,-0.82 -0.43,-1.77 -0.43,-2.83 0,-1.06 0.14,-2.01 0.43,-2.83 0.29,-0.82 0.7,-1.51 1.24,-2.07 0.54,-0.56 1.19,-0.98 1.94,-1.26 0.76,-0.28 1.6,-0.42 2.52,-0.42 0.92,0 1.76,0.14 2.51,0.42 0.75,0.28 1.39,0.7 1.93,1.26 0.53,0.56 0.95,1.25 1.24,2.07 0.29,0.82 0.44,1.77 0.44,2.83 0,1.06 -0.15,2.01 -0.44,2.83 -0.29,0.82 -0.71,1.51 -1.24,2.07 -0.53,0.56 -1.18,0.98 -1.93,1.26 -0.76,0.28 -1.59,0.42 -2.5,0.42 z m 0,-2.02 c 0.54,0 1.04,-0.1 1.49,-0.29 0.45,-0.19 0.84,-0.48 1.17,-0.85 0.33,-0.37 0.59,-0.85 0.77,-1.42 0.19,-0.57 0.28,-1.24 0.28,-2.01 0,-0.77 -0.09,-1.42 -0.28,-1.99 -0.19,-0.57 -0.44,-1.05 -0.77,-1.43 -0.33,-0.38 -0.72,-0.67 -1.17,-0.86 -0.45,-0.19 -0.95,-0.29 -1.49,-0.29 -0.54,0 -1.06,0.1 -1.51,0.29 -0.45,0.19 -0.85,0.48 -1.18,0.86 -0.33,0.38 -0.58,0.86 -0.76,1.43 -0.18,0.57 -0.27,1.23 -0.27,1.99 0,0.76 0.09,1.44 0.27,2.01 0.18,0.57 0.44,1.04 0.77,1.42 0.33,0.38 0.73,0.66 1.18,0.85 0.45,0.19 0.95,0.29 1.5,0.29 z"
           id="path64" />
      </g>
      <g
         data-flip-id="l1-1s"
         id="g66">
        <path
           class="cls-2"
           d="m 142.21,216.05 c -0.77,0 -1.52,-0.05 -2.24,-0.14 -0.73,-0.1 -1.44,-0.23 -2.13,-0.4 l 0.41,-1.91 c 0.64,0.16 1.28,0.28 1.94,0.36 0.66,0.08 1.3,0.13 1.95,0.13 0.72,0 1.3,-0.08 1.74,-0.23 0.44,-0.15 0.75,-0.36 0.95,-0.64 0.2,-0.28 0.29,-0.61 0.29,-0.99 0,-0.23 -0.03,-0.43 -0.1,-0.62 -0.07,-0.19 -0.17,-0.35 -0.31,-0.49 -0.14,-0.14 -0.31,-0.25 -0.5,-0.33 -0.19,-0.08 -0.42,-0.15 -0.67,-0.2 l -2.48,-0.56 c -0.4,-0.08 -0.78,-0.21 -1.16,-0.37 -0.38,-0.16 -0.71,-0.38 -1.01,-0.65 -0.29,-0.27 -0.53,-0.6 -0.7,-1 -0.17,-0.4 -0.26,-0.86 -0.26,-1.4 0,-0.84 0.22,-1.54 0.66,-2.09 0.44,-0.55 1.04,-0.97 1.82,-1.24 0.77,-0.28 1.67,-0.41 2.67,-0.41 0.65,0 1.32,0.04 2.01,0.13 0.69,0.08 1.35,0.21 1.97,0.38 l -0.45,1.91 c -0.36,-0.1 -0.73,-0.18 -1.1,-0.24 -0.37,-0.07 -0.75,-0.12 -1.14,-0.15 -0.39,-0.04 -0.79,-0.05 -1.2,-0.05 -0.58,0 -1.07,0.06 -1.49,0.17 -0.42,0.11 -0.75,0.3 -0.98,0.56 -0.23,0.26 -0.35,0.6 -0.35,1.04 0,0.28 0.04,0.52 0.13,0.72 0.09,0.2 0.22,0.37 0.39,0.49 0.17,0.12 0.37,0.2 0.61,0.25 l 3.19,0.65 c 0.43,0.08 0.83,0.21 1.18,0.39 0.35,0.18 0.66,0.4 0.91,0.67 0.25,0.27 0.45,0.62 0.59,1.02 0.14,0.4 0.22,0.89 0.22,1.45 0,0.84 -0.22,1.54 -0.65,2.11 -0.43,0.56 -1.05,0.99 -1.84,1.28 -0.8,0.29 -1.74,0.43 -2.83,0.43 z"
           id="path65" />
      </g>
    </g>
  </g>
</svg>
