<?xml version="1.0" encoding="UTF-8"?>
<svg xmlns="http://www.w3.org/2000/svg" width="2.88in" height="4.15in" viewBox="0 0 207.05 298.96">
  <defs>
    <style>
      .uuid-6fea346f-cab2-4edd-a3b7-de14c9e8faf7 {
        stroke: #332019;
      }

      .uuid-6fea346f-cab2-4edd-a3b7-de14c9e8faf7, .uuid-5d8b3b32-a394-4168-9260-791b90cce8ae {
        fill: none;
        stroke-width: 2px;
      }

      .uuid-5d8b3b32-a394-4168-9260-791b90cce8ae {
        stroke: #bb4121;
      }

      .uuid-59f1ae38-f9a7-48c1-a80e-557a39dafd36 {
        fill: #fff;
      }

      .uuid-89f10b33-93b4-4800-b72c-a3dddb693ef3 {
        fill: #bac1ca;
      }

      .uuid-9df0555d-fc72-4717-9ddc-b4ec3908eb0c {
        fill: #ffe500;
      }

      .uuid-70e180b1-4724-49bf-be92-3f3cef98b254 {
        fill: #332019;
      }

      .uuid-c20dd377-cbcd-4a69-95d9-022025fcb619 {
        fill: #cbd0d7;
      }

      .uuid-711a72b5-2ebf-43aa-8b23-50919311a4a3 {
        fill: #bb4121;
      }

      .uuid-386c83db-5540-4e54-9c30-1dd089ecc551 {
        fill: #9ab4c2;
      }
    </style>
  </defs>
  <g id="uuid-50d057d9-b8d6-468e-aecf-8a87d98cf3b5" data-name="approaches">
    <polygon class="uuid-9df0555d-fc72-4717-9ddc-b4ec3908eb0c" points="94.54 180.55 95.79 175.65 95.47 180.7 98.17 176.43 96.3 181.13 100.19 177.9 96.97 181.79 101.67 179.92 97.39 182.63 102.44 182.3 97.54 183.55 102.44 184.8 97.39 184.48 101.67 187.19 96.97 185.32 100.19 189.21 96.3 185.98 98.17 190.68 95.47 186.41 95.79 191.46 94.54 186.55 93.29 191.46 93.61 186.41 90.91 190.68 92.77 185.98 88.88 189.21 92.11 185.32 87.41 187.19 91.68 184.48 86.64 184.8 91.54 183.55 86.64 182.3 91.68 182.63 87.41 179.92 92.11 181.79 88.88 177.9 92.77 181.13 90.91 176.43 93.61 180.7 93.29 175.65 94.54 180.55"/>
    <polygon class="uuid-9df0555d-fc72-4717-9ddc-b4ec3908eb0c" points="155.98 180.55 157.23 175.65 156.91 180.7 159.61 176.43 157.74 181.13 161.63 177.9 158.41 181.79 163.11 179.92 158.83 182.63 163.88 182.3 158.98 183.55 163.88 184.8 158.83 184.48 163.11 187.19 158.41 185.32 161.63 189.21 157.74 185.98 159.61 190.68 156.91 186.41 157.23 191.46 155.98 186.55 154.73 191.46 155.05 186.41 152.35 190.68 154.21 185.98 150.32 189.21 153.55 185.32 148.85 187.19 153.12 184.48 148.08 184.8 152.98 183.55 148.08 182.3 153.12 182.63 148.85 179.92 153.55 181.79 150.32 177.9 154.21 181.13 152.35 176.43 155.05 180.7 154.73 175.65 155.98 180.55"/>
    <polygon class="uuid-9df0555d-fc72-4717-9ddc-b4ec3908eb0c" points="80.72 87.58 81.97 82.68 81.64 87.73 84.35 83.45 82.48 88.15 86.37 84.92 83.14 88.82 87.85 86.95 83.57 89.65 88.62 89.33 83.72 90.58 88.62 91.83 83.57 91.51 87.85 94.21 83.14 92.34 86.37 96.24 82.48 93.01 84.35 97.71 81.64 93.43 81.97 98.48 80.72 93.58 79.47 98.48 79.79 93.43 77.09 97.71 78.95 93.01 75.06 96.24 78.29 92.34 73.59 94.21 77.86 91.51 72.82 91.83 77.72 90.58 72.82 89.33 77.86 89.65 73.59 86.95 78.29 88.82 75.06 84.92 78.95 88.15 77.09 83.45 79.79 87.73 79.47 82.68 80.72 87.58"/>
    <polygon class="uuid-9df0555d-fc72-4717-9ddc-b4ec3908eb0c" points="119.27 46.04 120.52 41.14 120.2 46.19 122.91 41.91 121.04 46.61 124.93 43.38 121.7 47.28 126.4 45.41 122.13 48.11 127.17 47.79 122.27 49.04 127.17 50.29 122.13 49.97 126.4 52.67 121.7 50.8 124.93 54.7 121.04 51.47 122.91 56.17 120.2 51.89 120.52 56.94 119.27 52.04 118.02 56.94 118.35 51.89 115.64 56.17 117.51 51.47 113.62 54.7 116.85 50.8 112.15 52.67 116.42 49.97 111.37 50.29 116.27 49.04 111.37 47.79 116.42 48.11 112.15 45.41 116.85 47.28 113.62 43.38 117.51 46.61 115.64 41.91 118.35 46.19 118.02 41.14 119.27 46.04"/>
    <polygon class="uuid-9df0555d-fc72-4717-9ddc-b4ec3908eb0c" points="165.74 85.85 166.99 80.94 166.66 85.99 169.37 81.72 167.5 86.42 171.39 83.19 168.16 87.08 172.86 85.21 168.59 87.92 173.64 87.59 168.74 88.85 173.64 90.1 168.59 89.77 172.86 92.48 168.16 90.61 171.39 94.5 167.5 91.27 169.37 95.97 166.66 91.7 166.99 96.75 165.74 91.85 164.48 96.75 164.81 91.7 162.1 95.97 163.97 91.27 160.08 94.5 163.31 90.61 158.61 92.48 162.88 89.77 157.83 90.1 162.74 88.85 157.83 87.59 162.88 87.92 158.61 85.21 163.31 87.08 160.08 83.19 163.97 86.42 162.1 81.72 164.81 85.99 164.48 80.94 165.74 85.85"/>
    <polygon class="uuid-9df0555d-fc72-4717-9ddc-b4ec3908eb0c" points="121.96 129.38 123.21 124.47 122.88 129.52 125.59 125.25 123.72 129.95 127.61 126.72 124.38 130.61 129.08 128.74 124.81 131.45 129.86 131.12 124.96 132.38 129.86 133.63 124.81 133.3 129.08 136.01 124.38 134.14 127.61 138.03 123.72 134.8 125.59 139.5 122.88 135.23 123.21 140.28 121.96 135.38 120.7 140.28 121.03 135.23 118.32 139.5 120.19 134.8 116.3 138.03 119.53 134.14 114.83 136.01 119.1 133.3 114.05 133.63 118.96 132.38 114.05 131.12 119.1 131.45 114.83 128.74 119.53 130.61 116.3 126.72 120.19 129.95 118.32 125.25 121.03 129.52 120.7 124.47 121.96 129.38"/>
  </g>
  <g id="uuid-95586d8b-7411-46bb-a598-ca720e28ea3b" data-name="baseline">
    <rect class="uuid-89f10b33-93b4-4800-b72c-a3dddb693ef3" x="33.15" y="186.78" width="172.45" height="16"/>
  </g>
  <g id="uuid-24c6598a-e888-46a4-9a43-586a3d1098dc" data-name="shapes">
    <polygon class="uuid-386c83db-5540-4e54-9c30-1dd089ecc551" points="165.65 91.29 159.97 93.69 154.34 96.39 148.96 99.55 143.49 102.62 139.03 107.02 134.8 111.57 130.96 116.47 128.36 122.12 126.47 128.04 126.21 134.25 126.55 140.66 127.42 147.03 129.56 153.08 132.51 158.76 135.71 164.41 140.04 169.26 145.22 173.2 150.43 177.02 155.79 180.67 160.6 175.78 164.85 170.42 169.55 165.46 173.51 159.84 178.22 154.89 182.53 149.58 187.57 144.9 191.71 139.45 196.54 134.58 200.47 128.95 205.6 124.04 200.53 119.69 195.47 115.72 190.46 111.69 185.67 107.4 180.32 103.78 175.55 99.47 170.92 94.96 165.65 91.29"/>
    <polygon class="uuid-386c83db-5540-4e54-9c30-1dd089ecc551" points="33.15 117.39 38.68 113.4 43.49 109.1 49.08 105.88 54.07 101.74 60.07 99.31 65.73 96.22 71.96 94.59 78.34 94.04 84.81 93.94 90.79 96.44 96.68 99.09 101.61 103.26 106.64 107.31 110.75 112.74 114.76 118.2 117.01 124.6 118.48 131.21 117.84 137.96 116.61 144.62 114.04 150.91 111.12 157.03 107.29 162.63 103.18 168.01 99.12 173.41 94.95 179.29 90.16 174.39 85.6 169.46 81.08 164.5 76.01 160.09 71.24 155.37 67 150.12 61.9 145.74 57.18 140.97 52.73 135.93 47.45 131.73 42.86 126.83 38.4 121.8 33.15 117.39"/>
    <polygon class="uuid-386c83db-5540-4e54-9c30-1dd089ecc551" points="88.38 .37 84.57 5.75 79.75 10.11 75.92 15.34 71.78 20.3 66.91 24.61 62.81 29.61 58.96 34.83 54.74 39.72 50.11 44.24 46.24 49.44 41.84 54.18 37.38 58.86 33.16 63.75 38.84 67.47 44.28 71.49 49.81 75.4 55.61 78.91 61.82 81.61 67.89 84.59 74.43 86.3 81.17 87.03 87.69 85.33 93.82 82.69 99.33 78.83 104.62 74.57 108.29 69.13 112.28 63.95 114.37 57.76 115.89 51.38 115.49 44.8 113.58 38.52 111.26 32.41 108.37 26.54 104.59 21.2 101.19 15.6 96.99 10.58 92.6 5.74 88.38 .37"/>
    <polygon class="uuid-386c83db-5540-4e54-9c30-1dd089ecc551" points="152.24 0 147.53 5 142.27 9.08 138.18 14.32 134.13 19.52 129.7 24.5 126.67 30.43 124.81 36.78 123.57 43.2 123.12 49.78 125.11 56.07 127.66 62.1 131.16 67.7 135.61 72.6 140.77 76.81 146.09 80.77 152.01 83.84 158.52 85.41 165.15 84.89 171.7 83.78 177.78 81.05 183.6 77.78 188.6 73.34 193.68 69.05 198.46 64.43 203.37 59.88 207.05 54.7 201.16 52.2 194.83 49.88 189.07 46.36 183.36 42.85 177.75 39.13 172.79 34.57 168.3 29.56 163.86 24.48 160.58 18.58 157.17 12.78 154.17 6.73 152.24 0"/>
    <path class="uuid-59f1ae38-f9a7-48c1-a80e-557a39dafd36" d="M123.11,48.66c6.22-1.04,8.64-5.92,9.93-11.55.79-3.29,2.18-6.46,3.83-9.42,1.67-2.96,3.64-5.72,5.8-8.34,3.49-4.57,8-6.68,11.73-.95,2.86,4.79,5.1,9.94,8.76,14.17,5.54,6.87,12.93,12.1,20.55,16.42,12.26,5.22,12.07,10.79,1.9,18.61-2.9,2.22-5.95,4.17-9.13,5.93-3.33,1.48-7.13,3.18-8.78,6.48-1.56,3.32-.93,7.45-.53,11.1.1.82-.48,1.57-1.3,1.67-.83.1-1.59-.5-1.68-1.33-.39-4.22-.99-8.63.99-12.71,1.94-3.97,6.88-6.27,10.13-7.58,3.05-1.65,6.03-3.49,8.8-5.55,2.51-1.93,5.48-4.26,6.61-7.17.64-4.04-4.95-5.86-8.03-7.61-7.82-4.6-15.23-10.02-20.87-17.2-2.81-3.57-5.15-7.52-7.05-11.58-3.04-6.44-6.24-7.99-11.13-1.9-3.56,4.21-6.71,8.86-8.66,14.04-.81,2.02-1.21,4.25-2,6.39-1.4,4.58-4.89,8.05-9.72,8.76-.19.04-.38-.09-.42-.28-.04-.19.09-.38.28-.42h0Z"/>
    <path class="uuid-59f1ae38-f9a7-48c1-a80e-557a39dafd36" d="M80.34,87.04c-1.27-8.29-9.22-9.89-15.94-12.44-3.33-1.45-6.73-3.02-9.94-4.72-9.72-5.25-8.61-11.1-1.71-18.42,2.14-2.34,5.08-5.92,7.18-8.37,7.11-8.49,14.12-17.05,21.67-25.2,2.81-3.18,7.27-5.44,11.13-2.19,2.81,2.28,4.67,6.43,6.6,9.31,1.94,3.22,3.72,6.55,5.2,10.03,1.42,3.84,2.74,8.56,6.15,10.9,3.51,2.14,8.36,1.62,12.46,1.57.83-.03,1.52.62,1.55,1.45.03.84-.63,1.54-1.47,1.55-4.76-.02-9.73.5-14.1-2.23-4.14-2.87-5.66-8.33-7.03-12.3-1.38-3.34-3.03-6.58-4.87-9.72l-2.81-4.74c-1.38-2.17-2.65-4.4-5.11-5.07-4.21-.74-7.14,4.37-9.91,6.95-6.25,6.75-12.15,13.79-18.19,20.76-2.13,2.44-5.14,5.99-7.33,8.31-6.33,6.64-7.78,11.36,1.18,16.38,3.09,1.7,6.52,3.34,9.74,4.8,4.89,2.09,11.04,3.27,14.26,8.04,1.07,1.57,1.67,3.39,2,5.22.04.19-.09.38-.29.42-.19.04-.38-.09-.42-.29h0Z"/>
    <path class="uuid-59f1ae38-f9a7-48c1-a80e-557a39dafd36" d="M94.59,179.31c-.51-9.53-2.97-14.99-10.24-21.15-5.95-5.36-12.3-11.42-18.12-16.81-4.01-3.74-8.02-7.48-12.12-11.14-5.54-5.06-13.69-10.66-5.14-17.68,4.43-3.53,9.67-5.71,14.7-8.13,3.73-1.53,8.13-2.19,11.55-3.92,1.08-.55,1.89-1.29,2.53-2.25,2.02-3.34,1.42-7.28,1.44-11.26,0-.83.66-1.51,1.48-1.52.84,0,1.53.68,1.52,1.52-.06,4.06.4,9.04-2.13,12.81-3.58,4.98-10.41,4.82-15.48,6.95-4.83,2.23-9.99,4.28-14.21,7.51-7.41,5.58.86,10.3,5,14.61,4.03,3.72,7.99,7.54,11.94,11.36,3.96,3.8,7.93,7.64,11.82,11.46,3.46,3.37,8.79,7.88,11.68,11.73,1.63,2.3,2.73,4.94,3.41,7.64.67,2.71.96,5.48,1.08,8.23,0,.2-.14.36-.34.37-.2,0-.36-.14-.37-.34h0Z"/>
  </g>
  <g id="uuid-5d4db213-9d04-4e4a-8d21-55cc111bb8da" data-name="shape numbers">
    <path class="uuid-59f1ae38-f9a7-48c1-a80e-557a39dafd36" d="M82.48,139.58l.32-8.67-.32-7.83h2.65l-.32,7.83.32,8.67h-2.65Z"/>
    <g>
      <path class="uuid-59f1ae38-f9a7-48c1-a80e-557a39dafd36" d="M79.5,62.94l.32-8.67-.32-7.83h2.65l-.32,7.83.32,8.67h-2.65Z"/>
      <path class="uuid-59f1ae38-f9a7-48c1-a80e-557a39dafd36" d="M85.46,62.94l.32-8.67-.32-7.83h2.65l-.32,7.83.32,8.67h-2.65Z"/>
    </g>
    <g>
      <path class="uuid-59f1ae38-f9a7-48c1-a80e-557a39dafd36" d="M147.51,62.94l.32-8.67-.32-7.83h2.65l-.32,7.83.32,8.67h-2.65Z"/>
      <path class="uuid-59f1ae38-f9a7-48c1-a80e-557a39dafd36" d="M153.47,62.94l.32-8.67-.32-7.83h2.65l-.32,7.83.32,8.67h-2.65Z"/>
      <path class="uuid-59f1ae38-f9a7-48c1-a80e-557a39dafd36" d="M159.42,62.94l.32-8.67-.32-7.83h2.65l-.32,7.83.32,8.67h-2.65Z"/>
    </g>
    <g>
      <path class="uuid-59f1ae38-f9a7-48c1-a80e-557a39dafd36" d="M152.23,139.58l.32-8.67-.32-7.83h2.65l-.32,7.83.32,8.67h-2.65Z"/>
      <path class="uuid-59f1ae38-f9a7-48c1-a80e-557a39dafd36" d="M163.9,140.13h-.77l-6.82-17v-.04h2.73l4.76,13.37,4.6-13.37h2.81v.04l-7.3,17Z"/>
    </g>
  </g>
  <g id="uuid-cfcb879e-226f-4409-97ec-28f8db56909d" data-name="shape trace">
    <path class="uuid-59f1ae38-f9a7-48c1-a80e-557a39dafd36" d="M33.15,194.43c6.73-.08,38.77-.45,44.75-.52,10.28.4,15.92-3.91,15.55-14.62-.02-1.96,2.93-2.04,3-.07,0,8.94-4.42,16.02-14,16.42-3.04.13-10.37-.09-13.5-.08,0,0-35.8-.41-35.8-.41-.2,0-.36-.16-.35-.36,0-.19.16-.35.35-.35h0Z"/>
  </g>
  <g id="uuid-3e051934-1884-4a64-b360-aa5244b90989" data-name="start">
    <g>
      <polygon class="uuid-711a72b5-2ebf-43aa-8b23-50919311a4a3" points="0 202.78 4.63 194.78 0 186.78 28.52 186.78 33.15 194.78 28.52 202.78 0 202.78"/>
      <g>
        <path class="uuid-59f1ae38-f9a7-48c1-a80e-557a39dafd36" d="M7.18,193.57c0-.46.17-.82.51-1.1s.76-.42,1.25-.42.95.1,1.29.29l.09,1.23h-.02c-.19-.18-.42-.33-.68-.43s-.5-.16-.74-.16c-.46,0-.68.18-.68.53,0,.22.16.46.47.72l.48.41c.32.27.55.53.7.78s.22.51.22.8c0,.12-.01.25-.05.38-.03.13-.09.26-.17.41s-.19.27-.31.38c-.12.11-.29.2-.5.27s-.45.11-.71.11-.51-.04-.76-.12c-.25-.08-.44-.17-.57-.29l-.09-1.13h.02c.59.51,1.09.77,1.5.77.2,0,.35-.06.45-.19s.16-.29.16-.48c0-.17-.04-.33-.13-.47-.09-.15-.23-.3-.43-.46l-.62-.52c-.46-.39-.69-.82-.69-1.3Z"/>
        <path class="uuid-59f1ae38-f9a7-48c1-a80e-557a39dafd36" d="M13.81,197.44c-.12.09-.28.16-.47.22s-.37.09-.54.09c-.49,0-.85-.17-1.06-.5s-.28-.82-.19-1.45l.4-2.88-.88-.05v-.11l1.84-1.89h.21l-.16,1.32,1.36-.15-.05,1.01-1.4-.08-.3,2.58c-.02.27-.04.51-.03.71s.06.38.16.5.26.19.48.19c.2,0,.43-.07.7-.21h.02l-.09.68Z"/>
        <path class="uuid-59f1ae38-f9a7-48c1-a80e-557a39dafd36" d="M17.36,197.11c-.41.44-.78.66-1.11.66-.4,0-.73-.2-.99-.59-.26-.39-.4-.89-.4-1.49,0-.7.13-1.33.39-1.89.26-.55.62-.99,1.07-1.29.46-.31.96-.46,1.53-.46.3,0,.7.02,1.2.05l-.38,5.55h-1.07l.08-.89-.32.34ZM16.54,196.87c.17,0,.35-.08.54-.24.19-.16.42-.4.69-.72l.38-2.88c-.12-.03-.23-.04-.35-.04-.29,0-.56.08-.81.24-.25.16-.45.37-.61.62s-.28.54-.37.85-.13.62-.13.94c0,.36.05.65.16.89.11.23.28.35.5.35Z"/>
        <path class="uuid-59f1ae38-f9a7-48c1-a80e-557a39dafd36" d="M22.88,193.17c-.38,0-.8.19-1.26.58l-.29,3.9h-1.12l.53-4.21-.16-1.29h1.14l-.06.92c.73-.69,1.3-1.03,1.69-1.03.1,0,.19,0,.26.02l.09,1.29h-.02c-.23-.13-.5-.19-.81-.19Z"/>
        <path class="uuid-59f1ae38-f9a7-48c1-a80e-557a39dafd36" d="M26.89,197.44c-.12.09-.28.16-.47.22s-.37.09-.54.09c-.49,0-.85-.17-1.06-.5-.21-.34-.28-.82-.19-1.45l.4-2.88-.88-.05v-.11l1.84-1.89h.21l-.16,1.32,1.36-.15-.05,1.01-1.4-.08-.3,2.58c-.03.27-.04.51-.03.71,0,.21.06.38.16.5.1.13.26.19.48.19.2,0,.43-.07.7-.21h.02l-.09.68Z"/>
      </g>
    </g>
  </g>
  <g id="uuid-8245298d-eb4c-4d31-939d-7e824278b604" data-name="entry points">
    <g>
      <circle class="uuid-711a72b5-2ebf-43aa-8b23-50919311a4a3" cx="94.95" cy="179.29" r="2.5"/>
      <path class="uuid-59f1ae38-f9a7-48c1-a80e-557a39dafd36" d="M94.95,177.29c1.1,0,2,.9,2,2s-.9,2-2,2-2-.9-2-2,.9-2,2-2M94.95,176.29c-1.65,0-3,1.35-3,3s1.35,3,3,3,3-1.35,3-3-1.35-3-3-3h0Z"/>
    </g>
    <g>
      <circle class="uuid-711a72b5-2ebf-43aa-8b23-50919311a4a3" cx="80.62" cy="86.98" r="2.5"/>
      <path class="uuid-59f1ae38-f9a7-48c1-a80e-557a39dafd36" d="M80.61,84.98c1.1,0,2,.9,2,2s-.9,2-2,2-2-.9-2-2,.9-2,2-2M80.61,83.98c-1.65,0-3,1.35-3,3s1.35,3,3,3,3-1.35,3-3-1.35-3-3-3h0Z"/>
    </g>
    <g>
      <circle class="uuid-711a72b5-2ebf-43aa-8b23-50919311a4a3" cx="123.12" cy="49.09" r="2.5"/>
      <path class="uuid-59f1ae38-f9a7-48c1-a80e-557a39dafd36" d="M123.12,47.09c1.1,0,2,.9,2,2s-.9,2-2,2-2-.9-2-2,.9-2,2-2M123.12,46.09c-1.65,0-3,1.35-3,3s1.35,3,3,3,3-1.35,3-3-1.35-3-3-3h0Z"/>
    </g>
    <g>
      <circle class="uuid-711a72b5-2ebf-43aa-8b23-50919311a4a3" cx="165.65" cy="91.29" r="2.5"/>
      <path class="uuid-59f1ae38-f9a7-48c1-a80e-557a39dafd36" d="M165.65,89.29c1.1,0,2,.9,2,2s-.9,2-2,2-2-.9-2-2,.9-2,2-2M165.65,88.29c-1.65,0-3,1.35-3,3s1.35,3,3,3,3-1.35,3-3-1.35-3-3-3h0Z"/>
    </g>
  </g>
  <g id="uuid-29effa63-04ad-45bd-899b-de2d4e848f15" data-name="sides">
    <g>
      <g>
        <polyline class="uuid-6fea346f-cab2-4edd-a3b7-de14c9e8faf7" points="148.48 175.59 145.22 173.2 140.04 169.26 135.7 164.41 132.51 158.76 129.56 153.08 127.42 147.03 126.55 140.66 126.22 134.25 126.47 128.04 128.36 122.12 130.96 116.47 134.8 111.57 139.03 107.02 143.49 102.62 148.96 99.55 154.34 96.39 156.08 95.55"/>
        <polygon class="uuid-70e180b1-4724-49bf-be92-3f3cef98b254" points="156.59 98.63 159.97 93.69 154 93.23 156.59 98.63"/>
      </g>
      <g>
        <polyline class="uuid-6fea346f-cab2-4edd-a3b7-de14c9e8faf7" points="201.17 128.27 200.47 128.95 196.54 134.58 191.71 139.45 187.57 144.9 182.53 149.58 178.22 154.89 173.51 159.84 169.55 165.46 164.85 170.42 161.18 175.05"/>
        <polygon class="uuid-70e180b1-4724-49bf-be92-3f3cef98b254" points="159.53 172.35 158.23 178.19 163.94 176.4 159.53 172.35"/>
      </g>
      <g>
        <polyline class="uuid-6fea346f-cab2-4edd-a3b7-de14c9e8faf7" points="39.67 112.51 43.49 109.1 49.08 105.88 54.07 101.74 60.07 99.31 65.73 96.22 71.96 94.59 78.34 94.04 84.81 93.94 90.79 96.44 96.68 99.09 101.61 103.26 106.64 107.31 110.75 112.74 114.76 118.2 117.01 124.6 118.48 131.21 117.84 137.96 116.61 144.62 114.04 150.91 111.12 157.03 107.29 162.63 103.18 168.01 100.9 171.05"/>
        <polygon class="uuid-70e180b1-4724-49bf-be92-3f3cef98b254" points="99.02 168.57 98.34 174.51 103.83 172.13 99.02 168.57"/>
      </g>
      <g>
        <polyline class="uuid-6fea346f-cab2-4edd-a3b7-de14c9e8faf7" points="39.25 56.9 41.84 54.18 46.24 49.44 50.11 44.24 54.74 39.72 58.96 34.83 62.81 29.61 66.91 24.61 71.78 20.3 75.92 15.34 79.75 10.11 83.15 7.03"/>
        <polygon class="uuid-70e180b1-4724-49bf-be92-3f3cef98b254" points="84.75 9.63 85.97 3.78 80.29 5.65 84.75 9.63"/>
      </g>
      <g>
        <polyline class="uuid-5d8b3b32-a394-4168-9260-791b90cce8ae" points="94.08 7.38 96.99 10.58 101.19 15.6 104.59 21.2 108.37 26.54 111.26 32.41 113.58 38.52 115.49 44.8 115.89 51.38 114.37 57.76 112.28 63.95 108.29 69.13 104.62 74.57 99.33 78.83 93.82 82.69 87.69 85.33 81.17 87.03 74.43 86.3 67.89 84.59 61.82 81.61 55.61 78.91 49.81 75.4 44.28 71.49 40.94 69.03"/>
        <polygon class="uuid-711a72b5-2ebf-43aa-8b23-50919311a4a3" points="43.38 67.1 37.43 66.54 39.92 71.98 43.38 67.1"/>
      </g>
      <g>
        <polyline class="uuid-5d8b3b32-a394-4168-9260-791b90cce8ae" points="202.31 60.87 198.46 64.43 193.68 69.05 188.6 73.34 183.6 77.78 177.78 81.05 171.7 83.78 165.15 84.89 158.52 85.41 152.01 83.84 146.09 80.77 140.77 76.81 135.61 72.59 131.16 67.7 127.66 62.1 125.11 56.07 123.12 49.78 123.57 43.2 124.81 36.78 126.67 30.43 129.7 24.5 134.13 19.52 138.18 14.32 142.27 9.08 145.74 6.39"/>
        <polygon class="uuid-711a72b5-2ebf-43aa-8b23-50919311a4a3" points="147.04 9.17 148.94 3.5 143.08 4.69 147.04 9.17"/>
      </g>
      <g>
        <polyline class="uuid-6fea346f-cab2-4edd-a3b7-de14c9e8faf7" points="154.92 8.23 157.17 12.78 160.58 18.58 163.86 24.48 168.3 29.56 172.79 34.57 177.75 39.13 183.36 42.85 189.07 46.36 194.83 49.88 197.11 50.72"/>
        <polygon class="uuid-70e180b1-4724-49bf-be92-3f3cef98b254" points="195.26 53.23 201.16 52.2 197.32 47.61 195.26 53.23"/>
      </g>
      <g>
        <polyline class="uuid-5d8b3b32-a394-4168-9260-791b90cce8ae" points="94.95 179.29 90.16 174.39 85.6 169.46 81.08 164.5 76.01 160.09 71.24 155.37 67 150.12 61.9 145.74 57.18 140.97 52.73 135.93 47.45 131.73 42.86 126.83 39.91 123.5"/>
        <polygon class="uuid-711a72b5-2ebf-43aa-8b23-50919311a4a3" points="42.62 122.03 36.84 120.49 38.39 126.26 42.62 122.03"/>
      </g>
      <g>
        <polyline class="uuid-5d8b3b32-a394-4168-9260-791b90cce8ae" points="165.65 91.29 170.92 94.96 175.55 99.47 180.32 103.78 185.67 107.4 190.46 111.69 195.47 115.72 199.38 118.79"/>
        <polygon class="uuid-711a72b5-2ebf-43aa-8b23-50919311a4a3" points="196.79 120.55 202.69 121.55 200.6 115.94 196.79 120.55"/>
      </g>
    </g>
  </g>
  <g id="uuid-f8dc44fb-4795-40ec-bbcc-92216e94f5ec" data-name="side numbers">
    <g>
      <path class="uuid-70e180b1-4724-49bf-be92-3f3cef98b254" d="M160.39,8.09c0-2.03.33-3.99.88-5.87-1.75.68-3.26.96-4.89.96-1.63,0-3.14-.28-4.89-.96.55,1.88.88,3.85.88,5.87,0,2.03-.33,3.99-.88,5.87,1.75-.68,3.26-.96,4.89-.96,1.63,0,3.14.28,4.89.96-.55-1.88-.88-3.85-.88-5.87Z"/>
      <path class="uuid-c20dd377-cbcd-4a69-95d9-022025fcb619" d="M153.96,11.43v-.09l2.11-2.94c.35-.48.58-.84.71-1.09.12-.25.19-.5.19-.74,0-.28-.09-.49-.27-.63-.18-.15-.41-.22-.7-.22-.43,0-.88.19-1.35.58h-.09l.16-1.39c.16-.08.38-.16.66-.22.29-.06.55-.09.8-.09.33,0,.63.05.9.15.26.1.48.23.64.4.16.17.29.36.37.57.08.21.13.44.13.68,0,.42-.08.81-.25,1.18s-.45.81-.86,1.31l-1.36,1.68,2.83-.59h.09l-.2,1.46h-4.5Z"/>
    </g>
    <g>
      <path class="uuid-711a72b5-2ebf-43aa-8b23-50919311a4a3" d="M90.33,7.23c0-3.86,1.91-5.77,4.87-5.77,2.96,0,4.87,1.9,4.87,5.77,0,3.86-1.91,5.77-4.87,5.77-2.96,0-4.87-1.9-4.87-5.77Z"/>
      <path class="uuid-c20dd377-cbcd-4a69-95d9-022025fcb619" d="M94.58,10.57l.35-5.14-1.24.47v-.72l1.56-1.37h.73l.19,6.75h-1.59Z"/>
    </g>
    <g>
      <path class="uuid-711a72b5-2ebf-43aa-8b23-50919311a4a3" d="M196.35,62.52c0-3.86,1.91-5.77,4.87-5.77,2.96,0,4.87,1.9,4.87,5.77,0,3.86-1.91,5.77-4.87,5.77-2.96,0-4.87-1.9-4.87-5.77Z"/>
      <path class="uuid-c20dd377-cbcd-4a69-95d9-022025fcb619" d="M200.61,65.85l.35-5.14-1.24.47v-.72l1.56-1.37h.73l.19,6.75h-1.59Z"/>
    </g>
    <g>
      <path class="uuid-70e180b1-4724-49bf-be92-3f3cef98b254" d="M34.86,111.23c0-3.86,1.91-5.77,4.87-5.77,2.96,0,4.87,1.9,4.87,5.77,0,3.86-1.91,5.77-4.87,5.77-2.96,0-4.87-1.9-4.87-5.77Z"/>
      <path class="uuid-c20dd377-cbcd-4a69-95d9-022025fcb619" d="M37.31,114.57v-.09l2.11-2.94c.35-.48.58-.84.71-1.09.12-.25.19-.5.19-.74,0-.28-.09-.49-.27-.63s-.41-.22-.7-.22c-.43,0-.88.19-1.35.58h-.09l.16-1.39c.16-.08.38-.16.66-.22s.55-.09.79-.09c.33,0,.63.05.9.15.26.1.48.23.64.4.16.17.29.36.37.57.08.21.13.44.13.68,0,.42-.08.81-.25,1.18-.17.37-.45.81-.86,1.31l-1.36,1.68,2.83-.59h.09l-.2,1.46h-4.5Z"/>
    </g>
    <g>
      <path class="uuid-70e180b1-4724-49bf-be92-3f3cef98b254" d="M144.18,175.12c0-3.86,1.91-5.77,4.87-5.77,2.96,0,4.87,1.9,4.87,5.77,0,3.86-1.91,5.77-4.87,5.77-2.96,0-4.87-1.9-4.87-5.77Z"/>
      <path class="uuid-c20dd377-cbcd-4a69-95d9-022025fcb619" d="M148.67,178.54c-.49,0-.97-.09-1.44-.27l-.18-1.36h.09c.39.23.71.39.95.49.24.1.49.15.73.15.33,0,.59-.1.79-.3.19-.2.29-.47.29-.8,0-.36-.13-.63-.39-.83s-.61-.29-1.05-.29c-.2,0-.39.02-.58.07v-.24l1.26-2.48-2.17.33h-.09l.18-1.3h4.07v.09l-1.93,2.65c.67.04,1.16.24,1.48.59.32.36.49.81.49,1.36,0,.2-.02.39-.07.58-.05.19-.13.38-.25.57-.12.19-.27.36-.46.51-.18.15-.42.26-.71.35-.29.09-.62.14-.99.14Z"/>
    </g>
    <g>
      <rect class="uuid-70e180b1-4724-49bf-be92-3f3cef98b254" x="34.98" y="51.55" width="10.97" height="8.61" transform="translate(96.33 15.39) rotate(90)"/>
      <path class="uuid-c20dd377-cbcd-4a69-95d9-022025fcb619" d="M38.04,59.2v-.09l2.11-2.94c.35-.48.58-.84.71-1.09.12-.25.19-.5.19-.74,0-.28-.09-.49-.27-.63s-.41-.22-.7-.22c-.43,0-.88.19-1.35.58h-.09l.16-1.39c.16-.08.38-.16.66-.22s.55-.09.79-.09c.33,0,.63.05.9.15.26.1.48.23.64.4.16.17.29.36.37.57.08.21.13.44.13.68,0,.42-.08.81-.25,1.18-.17.37-.45.81-.86,1.31l-1.36,1.68,2.83-.59h.09l-.2,1.46h-4.5Z"/>
    </g>
    <g>
      <rect class="uuid-70e180b1-4724-49bf-be92-3f3cef98b254" x="194.42" y="126.24" width="10.97" height="8.61" transform="translate(330.45 -69.36) rotate(90)"/>
      <path class="uuid-c20dd377-cbcd-4a69-95d9-022025fcb619" d="M197.48,133.88v-.09l2.11-2.94c.35-.48.58-.84.71-1.09.12-.25.19-.5.19-.74,0-.28-.09-.49-.27-.63s-.41-.22-.7-.22c-.43,0-.88.19-1.35.58h-.09l.16-1.39c.16-.08.38-.16.66-.22s.55-.09.79-.09c.33,0,.63.05.9.15.26.1.48.23.64.4.16.17.29.36.37.57.08.21.13.44.13.68,0,.42-.08.81-.25,1.18-.17.37-.45.81-.86,1.31l-1.36,1.68,2.83-.59h.09l-.2,1.46h-4.5Z"/>
    </g>
    <g>
      <rect class="uuid-711a72b5-2ebf-43aa-8b23-50919311a4a3" x="170.66" y="94.87" width="10.97" height="8.61" transform="translate(275.31 -76.97) rotate(90)"/>
      <path class="uuid-c20dd377-cbcd-4a69-95d9-022025fcb619" d="M175.52,102.51l.35-5.14-1.24.47v-.72l1.56-1.37h.73l.19,6.75h-1.59Z"/>
    </g>
    <g>
      <rect class="uuid-711a72b5-2ebf-43aa-8b23-50919311a4a3" x="80.28" y="165.33" width="10.97" height="8.61" transform="translate(255.4 83.88) rotate(90)"/>
      <path class="uuid-c20dd377-cbcd-4a69-95d9-022025fcb619" d="M85.15,172.98l.35-5.14-1.24.47v-.72l1.56-1.37h.73l.19,6.75h-1.59Z"/>
    </g>
  </g>
  <g id="uuid-b860a2cf-45af-49e6-82f1-588aaec0d088" data-name="translation">
    <g>
      <path class="uuid-70e180b1-4724-49bf-be92-3f3cef98b254" d="M168.67,279.19h-1.09c-.26-2.79-1.93-4.3-5.32-4.3h-5.01c-4.09,0-6.44-1.54-6.44-5.58h1.15c0,3.31,1.9,4.28,5.29,4.28h5.01c3.55,0,5.19,1.36,5.87,3.7.68-2.35,2.32-3.7,5.87-3.7h5.01c3.39,0,5.29-.96,5.29-4.28h1.15c0,4.04-2.35,5.58-6.44,5.58h-5.01c-3.39,0-5.06,1.51-5.32,4.3Z"/>
      <path class="uuid-70e180b1-4724-49bf-be92-3f3cef98b254" d="M74.42,279.19h-1.09c-.26-2.79-1.93-4.3-5.32-4.3h-8.24c-4.09,0-6.44-1.54-6.44-5.58h1.15c0,3.31,1.9,4.28,5.29,4.28h8.24c3.55,0,5.19,1.36,5.87,3.7.68-2.35,2.32-3.7,5.87-3.7h8.24c3.39,0,5.29-.96,5.29-4.28h1.15c0,4.04-2.35,5.58-6.44,5.58h-8.24c-3.39,0-5.06,1.51-5.32,4.3Z"/>
      <path class="uuid-70e180b1-4724-49bf-be92-3f3cef98b254" d="M119.92,279.19h-1.09c-.26-2.79-1.93-4.3-5.32-4.3h-8.24c-4.09,0-6.44-1.54-6.44-5.58h1.15c0,3.31,1.9,4.28,5.29,4.28h8.24c3.55,0,5.19,1.36,5.87,3.7.68-2.35,2.32-3.7,5.87-3.7h8.24c3.39,0,5.29-.96,5.29-4.28h1.15c0,4.04-2.35,5.58-6.44,5.58h-8.24c-3.39,0-5.06,1.51-5.32,4.3Z"/>
      <path class="uuid-70e180b1-4724-49bf-be92-3f3cef98b254" d="M77.47,294.55l-1.3-3.48h-4.58l-1.25,3.48h-2.05v-.03l5.46-12.37h.55l5.14,12.37v.03h-1.98ZM75.78,289.99l-1.92-5.21-1.88,5.21h3.8Z"/>
      <path class="uuid-70e180b1-4724-49bf-be92-3f3cef98b254" d="M117.55,288.24l.23,6.3h-1.93l.23-6.3-.23-5.7h3.23c1.12,0,2,.27,2.64.82s.96,1.26.96,2.14c0,.79-.21,1.46-.62,2.01s-1.04.94-1.89,1.17l3.85,5.83v.03h-2.3l-2.86-5.65v-.9c.69-.08,1.23-.3,1.61-.65s.57-.84.57-1.46c0-.55-.2-1.01-.59-1.37s-.96-.54-1.71-.54h-1.01l-.17,4.26Z"/>
      <path class="uuid-70e180b1-4724-49bf-be92-3f3cef98b254" d="M165.1,294.55l.23-6.3-.23-5.7h6.22l.32,1.66h-.03l-4.62-.67-.17,4.2,4.23-.15-.16,1.49-4.08-.47.19,4.99,4.77-.9h.03l-.34,1.84h-6.37Z"/>
      <path class="uuid-70e180b1-4724-49bf-be92-3f3cef98b254" d="M65.75,261.1c0-3.87,2.01-5.89,4.87-5.89,2.87,0,4.87,2.02,4.87,5.89,0,3.87-2.01,5.89-4.87,5.89-2.87,0-4.87-2.02-4.87-5.89Z"/>
      <path class="uuid-70e180b1-4724-49bf-be92-3f3cef98b254" d="M85.25,261.1c0-3.87,2.01-5.89,4.87-5.89,2.87,0,4.87,2.02,4.87,5.89,0,3.87-2.01,5.89-4.87,5.89-2.87,0-4.87-2.02-4.87-5.89Z"/>
      <path class="uuid-70e180b1-4724-49bf-be92-3f3cef98b254" d="M117.75,261.1c0-3.87,2.01-5.89,4.87-5.89,2.87,0,4.87,2.02,4.87,5.89,0,3.87-2.01,5.89-4.87,5.89-2.87,0-4.87-2.02-4.87-5.89Z"/>
      <path class="uuid-70e180b1-4724-49bf-be92-3f3cef98b254" d="M176.25,261.1c0-3.87,2.01-5.89,4.87-5.89,2.87,0,4.87,2.02,4.87,5.89,0,3.87-2.01,5.89-4.87,5.89-2.87,0-4.87-2.02-4.87-5.89Z"/>
      <rect class="uuid-70e180b1-4724-49bf-be92-3f3cef98b254" x="149.64" y="256.8" width="10.97" height="8.61" transform="translate(416.23 105.98) rotate(90)"/>
      <rect class="uuid-70e180b1-4724-49bf-be92-3f3cef98b254" x="162.64" y="256.8" width="10.97" height="8.61" transform="translate(429.23 92.98) rotate(90)"/>
      <rect class="uuid-70e180b1-4724-49bf-be92-3f3cef98b254" x="52.14" y="256.8" width="10.97" height="8.61" transform="translate(318.73 203.48) rotate(90)"/>
      <rect class="uuid-70e180b1-4724-49bf-be92-3f3cef98b254" x="97.64" y="256.8" width="10.97" height="8.61" transform="translate(364.23 157.98) rotate(90)"/>
      <path class="uuid-70e180b1-4724-49bf-be92-3f3cef98b254" d="M131.98,261.1c0-2.03-.43-3.96-1.25-5.87,1.66,1,3.24,1.37,4.89,1.37,1.64,0,3.23-.37,4.89-1.37-.82,1.91-1.25,3.85-1.25,5.87,0,2.03.43,3.96,1.25,5.87-1.66-1-3.24-1.37-4.89-1.37-1.64,0-3.23.37-4.89,1.37.82-1.91,1.25-3.85,1.25-5.87Z"/>
      <rect class="uuid-386c83db-5540-4e54-9c30-1dd089ecc551" x="51.13" y="225.35" width="26" height="26"/>
      <path class="uuid-59f1ae38-f9a7-48c1-a80e-557a39dafd36" d="M56.69,236.11l.21-3.55-.21-3.2h1.62l-.2,3.2.2,3.55h-1.62Z"/>
      <path class="uuid-711a72b5-2ebf-43aa-8b23-50919311a4a3" d="M57.01,247.4l.35-5.14-1.24.47v-.72l1.56-1.37h.73l.19,6.75h-1.59Z"/>
      <path class="uuid-70e180b1-4724-49bf-be92-3f3cef98b254" d="M68.2,247.4v-.09l2.11-2.94c.35-.48.58-.84.71-1.09.12-.25.19-.5.19-.74,0-.28-.09-.49-.27-.63s-.41-.22-.7-.22c-.43,0-.88.19-1.35.58h-.09l.16-1.39c.16-.08.38-.16.66-.22.28-.06.55-.09.8-.09.33,0,.63.05.9.15.26.1.48.23.64.4.16.17.29.36.37.57.08.21.13.44.13.68,0,.42-.08.81-.25,1.18-.17.37-.45.81-.86,1.31l-1.36,1.68,2.83-.59h.09l-.2,1.46h-4.5Z"/>
      <rect class="uuid-386c83db-5540-4e54-9c30-1dd089ecc551" x="83.63" y="225.35" width="26" height="26"/>
      <g>
        <path class="uuid-59f1ae38-f9a7-48c1-a80e-557a39dafd36" d="M89.19,236.11l.21-3.55-.21-3.2h1.62l-.2,3.2.2,3.55h-1.62Z"/>
        <path class="uuid-59f1ae38-f9a7-48c1-a80e-557a39dafd36" d="M92.27,236.11l.21-3.55-.21-3.2h1.62l-.2,3.2.2,3.55h-1.62Z"/>
      </g>
      <path class="uuid-711a72b5-2ebf-43aa-8b23-50919311a4a3" d="M89.51,247.4l.35-5.14-1.24.47v-.72l1.56-1.37h.73l.19,6.75h-1.59Z"/>
      <path class="uuid-70e180b1-4724-49bf-be92-3f3cef98b254" d="M100.7,247.4v-.09l2.11-2.94c.35-.48.58-.84.71-1.09.12-.25.19-.5.19-.74,0-.28-.09-.49-.27-.63s-.41-.22-.7-.22c-.43,0-.88.19-1.35.58h-.09l.16-1.39c.16-.08.38-.16.66-.22.28-.06.55-.09.8-.09.33,0,.63.05.9.15.26.1.48.23.64.4.16.17.29.36.37.57.08.21.13.44.13.68,0,.42-.08.81-.25,1.18-.17.37-.45.81-.86,1.31l-1.36,1.68,2.83-.59h.09l-.2,1.46h-4.5Z"/>
      <rect class="uuid-386c83db-5540-4e54-9c30-1dd089ecc551" x="116.13" y="225.35" width="26" height="26"/>
      <g>
        <path class="uuid-59f1ae38-f9a7-48c1-a80e-557a39dafd36" d="M121.69,236.11l.21-3.55-.21-3.2h1.62l-.2,3.2.2,3.55h-1.62Z"/>
        <path class="uuid-59f1ae38-f9a7-48c1-a80e-557a39dafd36" d="M124.77,236.11l.21-3.55-.21-3.2h1.62l-.2,3.2.2,3.55h-1.62Z"/>
        <path class="uuid-59f1ae38-f9a7-48c1-a80e-557a39dafd36" d="M127.84,236.11l.21-3.55-.21-3.2h1.62l-.2,3.2.2,3.55h-1.62Z"/>
      </g>
      <path class="uuid-711a72b5-2ebf-43aa-8b23-50919311a4a3" d="M122.01,247.4l.35-5.14-1.24.47v-.72l1.56-1.37h.73l.19,6.75h-1.59Z"/>
      <path class="uuid-70e180b1-4724-49bf-be92-3f3cef98b254" d="M133.2,247.4v-.09l2.11-2.94c.35-.48.58-.84.71-1.09.12-.25.19-.5.19-.74,0-.28-.09-.49-.27-.63s-.41-.22-.7-.22c-.43,0-.88.19-1.35.58h-.09l.16-1.39c.16-.08.38-.16.66-.22.28-.06.55-.09.8-.09.33,0,.63.05.9.15.26.1.48.23.64.4.16.17.29.36.37.57.08.21.13.44.13.68,0,.42-.08.81-.25,1.18-.17.37-.45.81-.86,1.31l-1.36,1.68,2.83-.59h.09l-.2,1.46h-4.5Z"/>
      <rect class="uuid-386c83db-5540-4e54-9c30-1dd089ecc551" x="148.63" y="225.35" width="39" height="26"/>
      <g>
        <path class="uuid-59f1ae38-f9a7-48c1-a80e-557a39dafd36" d="M154.19,236.11l.21-3.55-.21-3.2h1.62l-.2,3.2.2,3.55h-1.62Z"/>
        <path class="uuid-59f1ae38-f9a7-48c1-a80e-557a39dafd36" d="M160.2,236.2h-.79l-2.8-6.75v-.09h1.67l1.69,5.29,1.69-5.29h1.51v.09l-2.98,6.75Z"/>
      </g>
      <path class="uuid-711a72b5-2ebf-43aa-8b23-50919311a4a3" d="M154.51,247.4l.35-5.14-1.24.47v-.72l1.56-1.37h.73l.19,6.75h-1.59Z"/>
      <path class="uuid-70e180b1-4724-49bf-be92-3f3cef98b254" d="M165.7,247.4v-.09l2.11-2.94c.35-.48.58-.84.71-1.09.12-.25.19-.5.19-.74,0-.28-.09-.49-.27-.63s-.41-.22-.7-.22c-.43,0-.88.19-1.35.58h-.09l.16-1.39c.16-.08.38-.16.66-.22.28-.06.55-.09.8-.09.33,0,.63.05.9.15.26.1.48.23.64.4.16.17.29.36.37.57.08.21.13.44.13.68,0,.42-.08.81-.25,1.18-.17.37-.45.81-.86,1.31l-1.36,1.68,2.83-.59h.09l-.2,1.46h-4.5Z"/>
      <path class="uuid-70e180b1-4724-49bf-be92-3f3cef98b254" d="M180.75,247.49c-.49,0-.97-.09-1.44-.27l-.18-1.36h.09c.39.23.71.39.95.49.24.1.49.15.73.15.33,0,.59-.1.79-.3.19-.2.29-.47.29-.8,0-.36-.13-.63-.39-.83s-.61-.29-1.05-.29c-.2,0-.39.02-.58.07v-.24l1.26-2.48-2.17.33h-.09l.18-1.3h4.07v.09l-1.93,2.65c.66.04,1.16.24,1.48.59.32.36.49.81.49,1.36,0,.2-.02.39-.07.58-.05.19-.13.38-.25.57-.12.19-.27.36-.46.51-.18.15-.42.26-.71.35-.29.09-.62.14-.99.14Z"/>
    </g>
  </g>
</svg>