<?xml version="1.0" encoding="UTF-8"?>
<svg xmlns="http://www.w3.org/2000/svg" width="4.61in" height="4.84in" viewBox="0 0 332.16 348.77">
  <defs>
    <style>
      .uuid-20df5107-ab1b-4a37-bee5-7383a815f9d4 {
        stroke: #332019;
      }

      .uuid-20df5107-ab1b-4a37-bee5-7383a815f9d4, .uuid-b9482e07-a3b5-40a1-80a4-68b92ba4d8ef {
        fill: none;
        stroke-width: 2px;
      }

      .uuid-b9482e07-a3b5-40a1-80a4-68b92ba4d8ef {
        stroke: #bb4121;
      }

      .uuid-eeef2dc8-fc8e-4b15-a8c2-b32cc6b3a700 {
        fill: #fff;
      }

      .uuid-1f9dc76e-27e3-4c07-ad65-e93101807a92 {
        fill: #bac1ca;
      }

      .uuid-f4dfeaea-5d0b-40b5-9928-229210ad7684 {
        fill: #ffe500;
      }

      .uuid-dd640cc2-9f22-4c9b-bb9f-a8d5efe263c8 {
        fill: #332019;
      }

      .uuid-fd91868c-4c05-4791-a8ab-e10629a47556 {
        fill: #cbd0d7;
      }

      .uuid-fdb31ddb-4609-4ca8-9058-a2dca6b62b1b {
        fill: #bb4121;
      }

      .uuid-b0a9853d-6a4b-46d4-aa49-f7b1a4b92f5c {
        fill: #9ab4c2;
      }
    </style>
  </defs>
  <g id="uuid-ffd60105-51be-4b3b-843d-e3d9e5ae0b29" data-name="approaches">
    <polygon class="uuid-f4dfeaea-5d0b-40b5-9928-229210ad7684" points="173.91 229.89 175.16 224.99 174.84 230.04 177.54 225.76 175.68 230.46 179.57 227.23 176.34 231.13 181.04 229.26 176.77 231.96 181.81 231.64 176.91 232.89 181.81 234.14 176.77 233.82 181.04 236.52 176.34 234.65 179.57 238.55 175.68 235.32 177.54 240.02 174.84 235.74 175.16 240.79 173.91 235.89 172.66 240.79 172.99 235.74 170.28 240.02 172.15 235.32 168.26 238.55 171.49 234.65 166.78 236.52 171.06 233.82 166.01 234.14 170.91 232.89 166.01 231.64 171.06 231.96 166.78 229.26 171.49 231.13 168.26 227.23 172.15 230.46 170.28 225.76 172.99 230.04 172.66 224.99 173.91 229.89"/>
    <polygon class="uuid-f4dfeaea-5d0b-40b5-9928-229210ad7684" points="241.85 229.89 243.1 224.99 242.77 230.04 245.48 225.76 243.61 230.46 247.5 227.23 244.27 231.13 248.97 229.26 244.7 231.96 249.75 231.64 244.85 232.89 249.75 234.14 244.7 233.82 248.97 236.52 244.27 234.65 247.5 238.55 243.61 235.32 245.48 240.02 242.77 235.74 243.1 240.79 241.85 235.89 240.59 240.79 240.92 235.74 238.21 240.02 240.08 235.32 236.19 238.55 239.42 234.65 234.72 236.52 238.99 233.82 233.94 234.14 238.85 232.89 233.94 231.64 238.99 231.96 234.72 229.26 239.42 231.13 236.19 227.23 240.08 230.46 238.21 225.76 240.92 230.04 240.59 224.99 241.85 229.89"/>
    <polygon class="uuid-f4dfeaea-5d0b-40b5-9928-229210ad7684" points="154.31 178.38 155.56 173.48 155.23 178.53 157.94 174.26 156.07 178.96 159.96 175.73 156.73 179.62 161.44 177.75 157.16 180.46 162.21 180.13 157.31 181.38 162.21 182.64 157.16 182.31 161.44 185.02 156.73 183.15 159.96 187.04 156.07 183.81 157.94 188.51 155.23 184.24 155.56 189.29 154.31 184.38 153.06 189.29 153.38 184.24 150.68 188.51 152.54 183.81 148.65 187.04 151.88 183.15 147.18 185.02 151.45 182.31 146.41 182.64 151.31 181.38 146.41 180.13 151.45 180.46 147.18 177.75 151.88 179.62 148.65 175.73 152.54 178.96 150.68 174.26 153.38 178.53 153.06 173.48 154.31 178.38"/>
    <polygon class="uuid-f4dfeaea-5d0b-40b5-9928-229210ad7684" points="176.58 161.52 177.83 156.62 177.5 161.66 180.21 157.39 178.34 162.09 182.23 158.86 179 162.75 183.7 160.88 179.43 163.59 184.48 163.27 179.58 164.52 184.48 165.77 179.43 165.44 183.7 168.15 179 166.28 182.23 170.17 178.34 166.94 180.21 171.64 177.5 167.37 177.83 172.42 176.58 167.52 175.33 172.42 175.65 167.37 172.94 171.64 174.81 166.94 170.92 170.17 174.15 166.28 169.45 168.15 173.72 165.44 168.68 165.77 173.58 164.52 168.68 163.27 173.72 163.59 169.45 160.88 174.15 162.75 170.92 158.86 174.81 162.09 172.94 157.39 175.65 161.66 175.33 156.62 176.58 161.52"/>
    <g>
      <polygon class="uuid-f4dfeaea-5d0b-40b5-9928-229210ad7684" points="162.69 34.07 163.94 29.17 163.61 34.22 166.32 29.95 164.45 34.65 168.34 31.42 165.11 35.31 169.81 33.44 165.54 36.15 170.59 35.82 165.69 37.07 170.59 38.33 165.54 38 169.81 40.71 165.11 38.84 168.34 42.73 164.45 39.5 166.32 44.2 163.61 39.93 163.94 44.98 162.69 40.07 161.43 44.98 161.76 39.93 159.05 44.2 160.92 39.5 157.03 42.73 160.26 38.84 155.56 40.71 159.83 38 154.78 38.33 159.69 37.07 154.78 35.82 159.83 36.15 155.56 33.44 160.26 35.31 157.03 31.42 160.92 34.65 159.05 29.95 161.76 34.22 161.43 29.17 162.69 34.07"/>
      <polygon class="uuid-f4dfeaea-5d0b-40b5-9928-229210ad7684" points="162.75 42.44 164.01 37.54 163.68 42.58 166.39 38.31 164.52 43.01 168.41 39.78 165.18 43.67 169.88 41.8 165.61 44.51 170.66 44.19 165.75 45.44 170.66 46.69 165.61 46.36 169.88 49.07 165.18 47.2 168.41 51.09 164.52 47.86 166.39 52.56 163.68 48.29 164.01 53.34 162.75 48.44 161.5 53.34 161.83 48.29 159.12 52.56 160.99 47.86 157.1 51.09 160.33 47.2 155.63 49.07 159.9 46.36 154.85 46.69 159.75 45.44 154.85 44.19 159.9 44.51 155.63 41.8 160.33 43.67 157.1 39.78 160.99 43.01 159.12 38.31 161.83 42.58 161.5 37.54 162.75 42.44"/>
      <polygon class="uuid-f4dfeaea-5d0b-40b5-9928-229210ad7684" points="162.82 50.8 164.07 45.9 163.75 50.95 166.45 46.67 164.58 51.37 168.48 48.14 165.25 52.04 169.95 50.17 165.67 52.87 170.72 52.55 165.82 53.8 170.72 55.05 165.67 54.73 169.95 57.43 165.25 55.56 168.48 59.46 164.58 56.23 166.45 60.93 163.75 56.65 164.07 61.7 162.82 56.8 161.57 61.7 161.89 56.65 159.19 60.93 161.06 56.23 157.16 59.46 160.39 55.56 155.69 57.43 159.97 54.73 154.92 55.05 159.82 53.8 154.92 52.55 159.97 52.87 155.69 50.17 160.39 52.04 157.16 48.14 161.06 51.37 159.19 46.67 161.89 50.95 161.57 45.9 162.82 50.8"/>
      <polygon class="uuid-f4dfeaea-5d0b-40b5-9928-229210ad7684" points="162.89 59.16 164.14 54.26 163.82 59.31 166.52 55.03 164.65 59.74 168.55 56.51 165.32 60.4 170.02 58.53 165.74 61.24 170.79 60.91 165.89 62.16 170.79 63.41 165.74 63.09 170.02 65.79 165.32 63.93 168.55 67.82 164.65 64.59 166.52 69.29 163.82 65.02 164.14 70.06 162.89 65.16 161.64 70.06 161.96 65.02 159.26 69.29 161.13 64.59 157.23 67.82 160.46 63.93 155.76 65.79 160.04 63.09 154.99 63.41 159.89 62.16 154.99 60.91 160.04 61.24 155.76 58.53 160.46 60.4 157.23 56.51 161.13 59.74 159.26 55.03 161.96 59.31 161.64 54.26 162.89 59.16"/>
      <polygon class="uuid-f4dfeaea-5d0b-40b5-9928-229210ad7684" points="162.96 67.52 164.21 62.62 163.88 67.67 166.59 63.4 164.72 68.1 168.61 64.87 165.38 68.76 170.09 66.89 165.81 69.6 170.86 69.27 165.96 70.52 170.86 71.78 165.81 71.45 170.09 74.16 165.38 72.29 168.61 76.18 164.72 72.95 166.59 77.65 163.88 73.38 164.21 78.43 162.96 73.52 161.71 78.43 162.03 73.38 159.33 77.65 161.19 72.95 157.3 76.18 160.53 72.29 155.83 74.16 160.1 71.45 155.06 71.78 159.96 70.52 155.06 69.27 160.1 69.6 155.83 66.89 160.53 68.76 157.3 64.87 161.19 68.1 159.33 63.4 162.03 67.67 161.71 62.62 162.96 67.52"/>
      <polygon class="uuid-f4dfeaea-5d0b-40b5-9928-229210ad7684" points="163.03 75.89 164.28 70.99 163.95 76.03 166.66 71.76 164.79 76.46 168.68 73.23 165.45 77.12 170.15 75.26 165.88 77.96 170.93 77.64 166.03 78.89 170.93 80.14 165.88 79.81 170.15 82.52 165.45 80.65 168.68 84.54 164.79 81.31 166.66 86.02 163.95 81.74 164.28 86.79 163.03 81.89 161.77 86.79 162.1 81.74 159.39 86.02 161.26 81.31 157.37 84.54 160.6 80.65 155.9 82.52 160.17 79.81 155.12 80.14 160.03 78.89 155.12 77.64 160.17 77.96 155.9 75.26 160.6 77.12 157.37 73.23 161.26 76.46 159.39 71.76 162.1 76.03 161.77 70.99 163.03 75.89"/>
      <polygon class="uuid-f4dfeaea-5d0b-40b5-9928-229210ad7684" points="163.09 84.25 164.34 79.35 164.02 84.4 166.72 80.12 164.86 84.82 168.75 81.59 165.52 85.49 170.22 83.62 165.95 86.32 170.99 86 166.09 87.25 170.99 88.5 165.95 88.18 170.22 90.88 165.52 89.01 168.75 92.91 164.86 89.68 166.72 94.38 164.02 90.1 164.34 95.15 163.09 90.25 161.84 95.15 162.17 90.1 159.46 94.38 161.33 89.68 157.44 92.91 160.67 89.01 155.96 90.88 160.24 88.18 155.19 88.5 160.09 87.25 155.19 86 160.24 86.32 155.96 83.62 160.67 85.49 157.44 81.59 161.33 84.82 159.46 80.12 162.17 84.4 161.84 79.35 163.09 84.25"/>
      <polygon class="uuid-f4dfeaea-5d0b-40b5-9928-229210ad7684" points="163.16 92.61 164.41 87.71 164.09 92.76 166.79 88.49 164.92 93.19 168.82 89.96 165.59 93.85 170.29 91.98 166.01 94.69 171.06 94.36 166.16 95.61 171.06 96.86 166.01 96.54 170.29 99.25 165.59 97.38 168.82 101.27 164.92 98.04 166.79 102.74 164.09 98.47 164.41 103.51 163.16 98.61 161.91 103.51 162.23 98.47 159.53 102.74 161.4 98.04 157.5 101.27 160.73 97.38 156.03 99.25 160.31 96.54 155.26 96.86 160.16 95.61 155.26 94.36 160.31 94.69 156.03 91.98 160.73 93.85 157.5 89.96 161.4 93.19 159.53 88.49 162.23 92.76 161.91 87.71 163.16 92.61"/>
      <polygon class="uuid-f4dfeaea-5d0b-40b5-9928-229210ad7684" points="163.23 100.98 164.48 96.07 164.16 101.12 166.86 96.85 164.99 101.55 168.89 98.32 165.66 102.21 170.36 100.34 166.08 103.05 171.13 102.72 166.23 103.98 171.13 105.23 166.08 104.9 170.36 107.61 165.66 105.74 168.89 109.63 164.99 106.4 166.86 111.1 164.16 106.83 164.48 111.88 163.23 106.98 161.98 111.88 162.3 106.83 159.6 111.1 161.47 106.4 157.57 109.63 160.8 105.74 156.1 107.61 160.38 104.9 155.33 105.23 160.23 103.98 155.33 102.72 160.38 103.05 156.1 100.34 160.8 102.21 157.57 98.32 161.47 101.55 159.6 96.85 162.3 101.12 161.98 96.07 163.23 100.98"/>
      <polygon class="uuid-f4dfeaea-5d0b-40b5-9928-229210ad7684" points="163.3 109.34 164.55 104.44 164.22 109.49 166.93 105.21 165.06 109.91 168.95 106.68 165.72 110.58 170.42 108.71 166.15 111.41 171.2 111.09 166.3 112.34 171.2 113.59 166.15 113.27 170.42 115.97 165.72 114.1 168.95 118 165.06 114.77 166.93 119.47 164.22 115.19 164.55 120.24 163.3 115.34 162.05 120.24 162.37 115.19 159.66 119.47 161.53 114.77 157.64 118 160.87 114.1 156.17 115.97 160.44 113.27 155.4 113.59 160.3 112.34 155.4 111.09 160.44 111.41 156.17 108.71 160.87 110.58 157.64 106.68 161.53 109.91 159.66 105.21 162.37 109.49 162.05 104.44 163.3 109.34"/>
      <polygon class="uuid-f4dfeaea-5d0b-40b5-9928-229210ad7684" points="163.36 117.7 164.62 112.8 164.29 117.85 167 113.57 165.13 118.27 169.02 115.04 165.79 118.94 170.49 117.07 166.22 119.77 171.27 119.45 166.36 120.7 171.27 121.95 166.22 121.63 170.49 124.33 165.79 122.47 169.02 126.36 165.13 123.13 167 127.83 164.29 123.55 164.62 128.6 163.36 123.7 162.11 128.6 162.44 123.55 159.73 127.83 161.6 123.13 157.71 126.36 160.94 122.47 156.24 124.33 160.51 121.63 155.46 121.95 160.36 120.7 155.46 119.45 160.51 119.77 156.24 117.07 160.94 118.94 157.71 115.04 161.6 118.27 159.73 113.57 162.44 117.85 162.11 112.8 163.36 117.7"/>
      <polygon class="uuid-f4dfeaea-5d0b-40b5-9928-229210ad7684" points="163.43 126.06 164.68 121.16 164.36 126.21 167.06 121.94 165.2 126.64 169.09 123.41 165.86 127.3 170.56 125.43 166.29 128.14 171.33 127.81 166.43 129.06 171.33 130.32 166.29 129.99 170.56 132.7 165.86 130.83 169.09 134.72 165.2 131.49 167.06 136.19 164.36 131.92 164.68 136.97 163.43 132.06 162.18 136.97 162.51 131.92 159.8 136.19 161.67 131.49 157.78 134.72 161.01 130.83 156.3 132.7 160.58 129.99 155.53 130.32 160.43 129.06 155.53 127.81 160.58 128.14 156.3 125.43 161.01 127.3 157.78 123.41 161.67 126.64 159.8 121.94 162.51 126.21 162.18 121.16 163.43 126.06"/>
      <polygon class="uuid-f4dfeaea-5d0b-40b5-9928-229210ad7684" points="163.5 134.43 164.75 129.53 164.43 134.57 167.13 130.3 165.26 135 169.16 131.77 165.93 135.66 170.63 133.8 166.35 136.5 171.4 136.18 166.5 137.43 171.4 138.68 166.35 138.35 170.63 141.06 165.93 139.19 169.16 143.08 165.26 139.85 167.13 144.56 164.43 140.28 164.75 145.33 163.5 140.43 162.25 145.33 162.57 140.28 159.87 144.56 161.74 139.85 157.84 143.08 161.07 139.19 156.37 141.06 160.65 138.35 155.6 138.68 160.5 137.43 155.6 136.18 160.65 136.5 156.37 133.8 161.07 135.66 157.84 131.77 161.74 135 159.87 130.3 162.57 134.57 162.25 129.53 163.5 134.43"/>
      <polygon class="uuid-f4dfeaea-5d0b-40b5-9928-229210ad7684" points="163.57 142.79 164.82 137.89 164.5 142.94 167.2 138.66 165.33 143.36 169.23 140.13 166 144.03 170.7 142.16 166.42 144.86 171.47 144.54 166.57 145.79 171.47 147.04 166.42 146.72 170.7 149.42 166 147.55 169.23 151.45 165.33 148.22 167.2 152.92 164.5 148.64 164.82 153.69 163.57 148.79 162.32 153.69 162.64 148.64 159.94 152.92 161.8 148.22 157.91 151.45 161.14 147.55 156.44 149.42 160.72 146.72 155.67 147.04 160.57 145.79 155.67 144.54 160.72 144.86 156.44 142.16 161.14 144.03 157.91 140.13 161.8 143.36 159.94 138.66 162.64 142.94 162.32 137.89 163.57 142.79"/>
    </g>
    <polygon class="uuid-f4dfeaea-5d0b-40b5-9928-229210ad7684" points="221.67 157 222.92 152.1 222.59 157.14 225.3 152.87 223.43 157.57 227.32 154.34 224.09 158.23 228.79 156.36 224.52 159.07 229.57 158.75 224.67 160 229.57 161.25 224.52 160.92 228.79 163.63 224.09 161.76 227.32 165.65 223.43 162.42 225.3 167.12 222.59 162.85 222.92 167.9 221.67 163 220.42 167.9 220.74 162.85 218.03 167.12 219.9 162.42 216.01 165.65 219.24 161.76 214.54 163.63 218.81 160.92 213.77 161.25 218.67 160 213.77 158.75 218.81 159.07 214.54 156.36 219.24 158.23 216.01 154.34 219.9 157.57 218.03 152.87 220.74 157.14 220.42 152.1 221.67 157"/>
    <polygon class="uuid-f4dfeaea-5d0b-40b5-9928-229210ad7684" points="248.79 165.49 250.04 160.58 249.71 165.63 252.42 161.36 250.55 166.06 254.44 162.83 251.21 166.72 255.91 164.85 251.64 167.56 256.69 167.23 251.79 168.49 256.69 169.74 251.64 169.41 255.91 172.12 251.21 170.25 254.44 174.14 250.55 170.91 252.42 175.61 249.71 171.34 250.04 176.39 248.79 171.49 247.54 176.39 247.86 171.34 245.15 175.61 247.02 170.91 243.13 174.14 246.36 170.25 241.66 172.12 245.93 169.41 240.89 169.74 245.79 168.49 240.89 167.23 245.93 167.56 241.66 164.85 246.36 166.72 243.13 162.83 247.02 166.06 245.15 161.36 247.86 165.63 247.54 160.58 248.79 165.49"/>
    <polygon class="uuid-f4dfeaea-5d0b-40b5-9928-229210ad7684" points="247.79 141.56 249.05 136.66 248.72 141.71 251.43 137.43 249.56 142.14 253.45 138.91 250.22 142.8 254.92 140.93 250.65 143.64 255.7 143.31 250.79 144.56 255.7 145.81 250.65 145.49 254.92 148.19 250.22 146.33 253.45 150.22 249.56 146.99 251.43 151.69 248.72 147.42 249.05 152.46 247.79 147.56 246.54 152.46 246.87 147.42 244.16 151.69 246.03 146.99 242.14 150.22 245.37 146.33 240.67 148.19 244.94 145.49 239.89 145.81 244.79 144.56 239.89 143.31 244.94 143.64 240.67 140.93 245.37 142.8 242.14 138.91 246.03 142.14 244.16 137.43 246.87 141.71 246.54 136.66 247.79 141.56"/>
    <polygon class="uuid-f4dfeaea-5d0b-40b5-9928-229210ad7684" points="207.22 116.87 208.48 111.97 208.15 117.01 210.86 112.74 208.99 117.44 212.88 114.21 209.65 118.1 214.35 116.24 210.08 118.94 215.13 118.62 210.22 119.87 215.13 121.12 210.08 120.79 214.35 123.5 209.65 121.63 212.88 125.52 208.99 122.29 210.86 127 208.15 122.72 208.48 127.77 207.22 122.87 205.97 127.77 206.3 122.72 203.59 127 205.46 122.29 201.57 125.52 204.8 121.63 200.1 123.5 204.37 120.79 199.32 121.12 204.22 119.87 199.32 118.62 204.37 118.94 200.1 116.24 204.8 118.1 201.57 114.21 205.46 117.44 203.59 112.74 206.3 117.01 205.97 111.97 207.22 116.87"/>
    <polygon class="uuid-f4dfeaea-5d0b-40b5-9928-229210ad7684" points="211.43 28.71 212.68 23.81 212.36 28.86 215.06 24.59 213.2 29.29 217.09 26.06 213.86 29.95 218.56 28.08 214.29 30.79 219.33 30.46 214.43 31.71 219.33 32.96 214.29 32.64 218.56 35.35 213.86 33.48 217.09 37.37 213.2 34.14 215.06 38.84 212.36 34.57 212.68 39.61 211.43 34.71 210.18 39.61 210.51 34.57 207.8 38.84 209.67 34.14 205.78 37.37 209.01 33.48 204.31 35.35 208.58 32.64 203.53 32.96 208.43 31.71 203.53 30.46 208.58 30.79 204.31 28.08 209.01 29.95 205.78 26.06 209.67 29.29 207.8 24.59 210.51 28.86 210.18 23.81 211.43 28.71"/>
  </g>
  <g id="uuid-98ee241d-d137-4d52-a35f-5719e44a12b2" data-name="baseline">
    <rect class="uuid-1f9dc76e-27e3-4c07-ad65-e93101807a92" x="33.16" y="236.59" width="299" height="16"/>
  </g>
  <g id="uuid-6ef35403-4226-4bfa-b589-4ae448014d28" data-name="shapes">
    <polygon class="uuid-b0a9853d-6a4b-46d4-aa49-f7b1a4b92f5c" points="174.72 230.37 169.48 226.98 164.38 223.21 158.76 220.22 153.3 216.88 147.85 213.43 142.88 209.81 145.24 204.28 148.77 198.74 152.3 193.65 155.68 188.66 159.66 184.15 164.29 180.3 168.86 176.46 173.69 172.93 178.95 170.05 184.55 167.92 190.19 165.79 196.14 164.87 202.11 164.12 208.12 164.13 214.49 164.57 220.9 164.68 227.16 166.08 233.44 167.37 239.41 169.76 244.94 173.01 250.1 176.78 254.81 181.12 258.93 186.01 262.4 191.37 265.63 196.85 268.73 202.41 271.95 208.01 267.08 211.99 261.65 215.19 256.86 219.23 252.04 223.24 246.61 226.43 241.73 230.18 239.53 225.13 236.46 220.16 233.48 215.13 229.83 210.55 225.14 207.04 220.62 203.35 215 201.79 209.24 200.76 203.16 201.34 197.3 202.99 192.06 206 187.4 209.83 183.74 214.63 180.42 219.68 176.96 224.71 174.72 230.37"/>
    <polygon class="uuid-b0a9853d-6a4b-46d4-aa49-f7b1a4b92f5c" points="157.85 168.23 153.29 172.73 149.55 177.81 144.88 182.06 141.24 187.22 137.02 191.86 132.9 196.5 128.71 201.28 123.07 198.14 117.71 194.69 112.02 191.82 106.62 188.46 100.92 185.55 95.45 182.28 90.01 179.08 84.26 176.38 78.86 172.81 73.64 168.96 68.27 165.8 71.36 160.96 74.6 156.33 78.48 151.59 83.82 148.16 89.86 146.49 96.04 145.79 102.29 146.52 107.94 149.3 113.44 152.23 118 155.19 122.57 158.12 126.79 161.15 126.89 154.94 126.14 148.57 126.01 142.18 125.86 135.79 126.13 129.38 125.66 123 125.27 116.62 125.13 110.23 124.74 103.85 124.23 97.47 124.34 91.07 124.61 84.66 123.7 78.3 123.81 71.89 123.34 65.52 123.23 59.47 123.25 53.42 124.14 47.44 125.76 41.59 128.92 36.4 133.57 32.56 138.88 29.61 144.91 28.77 150.98 28.81 157.26 29.81 157.2 36.19 157.35 42.47 156.65 48.75 156.69 55.03 157.02 61.31 156.74 67.6 157.14 73.88 157.11 80.16 157.57 86.44 156.87 92.72 156.91 99.01 157.52 105.29 157.29 111.57 157.17 117.85 157.59 124.13 157.34 130.42 157.24 136.7 157.01 142.98 157.64 149.26 157.47 155.55 157.94 161.82 157.85 168.23"/>
    <polygon class="uuid-b0a9853d-6a4b-46d4-aa49-f7b1a4b92f5c" points="168.85 161.7 168.62 155.4 168.84 149.18 169.14 142.95 169.33 136.73 168.69 130.51 168.47 124.29 168.45 118.07 168.41 111.85 168.52 105.63 168.69 99.4 168.73 93.18 168.99 86.96 168.56 80.74 168.3 74.52 168.24 68.3 168.45 62.07 168.18 55.85 168.31 49.63 168.19 43.41 168.07 37.19 168.08 30.96 168.24 24.74 168.19 18.52 168.13 12.29 168.13 6.16 174.69 5.84 181.33 5.95 187.97 6.2 194.61 6.16 201.24 6.66 207.75 6.8 207.95 12.59 207.98 18.79 206.98 24.94 206.46 31.1 205.78 37.25 204.52 43.31 203.33 49.39 201.24 55.22 199.12 61.03 196.5 66.63 193.59 72.1 190.11 77.21 186.78 82.45 182.54 86.99 178.68 91.35 185.11 91.51 191.64 92.29 198.19 92.35 204.77 92.3 205.2 98.41 204.98 104.45 204.11 110.44 203.47 116.42 202.6 122.36 201.72 128.35 199.82 134.11 196.96 139.46 193.35 144.3 189.55 149.01 184.94 152.92 179.99 156.42 174.51 158.98 168.85 161.7"/>
    <polygon class="uuid-b0a9853d-6a4b-46d4-aa49-f7b1a4b92f5c" points="215.39 36.33 215.93 42.25 216.35 48.14 217.04 54.04 218.92 59.67 220.16 65.47 220.79 71.36 221.47 77.2 221.92 83.1 221.38 89.4 219.46 95.43 217.53 101.42 215.55 107.4 212.92 113.14 211.12 119.2 210.09 125.42 208.8 131.59 209.32 138.18 210.01 144.78 213.45 150.45 218.4 154.85 224.94 155.88 230.74 155.43 236.22 153.67 241.07 150.39 243.74 145.17 245.61 139.67 246.64 133.92 247.91 128.14 246.98 121.86 246.45 115.57 244.77 109.48 243.88 103.23 243.05 97 242.47 90.71 244.01 84.55 246.42 78.69 249.54 73.17 252.27 67.44 255.15 61.78 257.1 55.72 259.47 49.83 260.75 43.57 260.21 37.24 259.62 30.96 257.35 25.05 252.99 20.53 247.45 17.76 241.3 16.81 235.3 16.9 229.43 18.23 223.96 20.84 219.71 25.15 216.57 30.35 215.39 36.33"/>
    <polygon class="uuid-b0a9853d-6a4b-46d4-aa49-f7b1a4b92f5c" points="246.49 161.1 248.06 155.34 250.39 149.76 252.92 144.27 255.32 138.73 257.53 133.11 259.16 127.26 261.75 121.79 264.07 116.21 266.16 110.55 268.7 105.06 270.37 99.23 272.82 93.7 275.02 88.08 277.68 82.64 279.4 76.82 281.72 71.24 284.31 65.82 285.82 66.06 286.21 72.01 286.03 78.07 286.1 84.13 286 90.19 285.85 96.25 286.24 102.31 286.01 108.36 286.25 114.42 285.98 120.48 286.4 126.54 285.78 132.6 286.19 138.66 285.95 144.72 286.32 150.78 286.29 156.84 285.99 162.9 285.98 168.98 280.01 170.43 273.97 171.12 267.9 170.8 261.89 169.83 256.29 167.47 251.08 164.46 246.49 161.1"/>
  </g>
  <g id="uuid-f8fe4ebd-1fa4-44bf-9fb9-3a6e6e6370bb" data-name="shape numbers">
    <path class="uuid-eeef2dc8-fc8e-4b15-a8c2-b32cc6b3a700" d="M174.54,207.56l.32-8.67-.32-7.83h2.65l-.32,7.83.32,8.67h-2.65Z"/>
    <g>
      <path class="uuid-eeef2dc8-fc8e-4b15-a8c2-b32cc6b3a700" d="M140.5,148.51l.32-8.67-.32-7.83h2.65l-.32,7.83.32,8.67h-2.65Z"/>
      <path class="uuid-eeef2dc8-fc8e-4b15-a8c2-b32cc6b3a700" d="M146.45,148.51l.32-8.67-.32-7.83h2.65l-.32,7.83.32,8.67h-2.65Z"/>
    </g>
    <g>
      <path class="uuid-eeef2dc8-fc8e-4b15-a8c2-b32cc6b3a700" d="M177.56,56.75l.32-8.67-.32-7.83h2.65l-.32,7.83.32,8.67h-2.65Z"/>
      <path class="uuid-eeef2dc8-fc8e-4b15-a8c2-b32cc6b3a700" d="M183.51,56.75l.32-8.67-.32-7.83h2.65l-.32,7.83.32,8.67h-2.65Z"/>
      <path class="uuid-eeef2dc8-fc8e-4b15-a8c2-b32cc6b3a700" d="M189.47,56.75l.32-8.67-.32-7.83h2.65l-.32,7.83.32,8.67h-2.65Z"/>
    </g>
    <g>
      <path class="uuid-eeef2dc8-fc8e-4b15-a8c2-b32cc6b3a700" d="M227.69,52.61l.32-8.67-.32-7.83h2.65l-.32,7.83.32,8.67h-2.65Z"/>
      <path class="uuid-eeef2dc8-fc8e-4b15-a8c2-b32cc6b3a700" d="M239.36,53.15h-.77l-6.82-17v-.04h2.73l4.76,13.37,4.6-13.37h2.81v.04l-7.3,17Z"/>
    </g>
    <path class="uuid-eeef2dc8-fc8e-4b15-a8c2-b32cc6b3a700" d="M269.5,157.02h-.77l-6.82-17v-.04h2.73l4.76,13.37,4.6-13.37h2.81v.04l-7.3,17Z"/>
  </g>
  <g id="uuid-17fdd9d9-fe25-4c1f-bb29-c1580916170f" data-name="shape trace">
    <g>
      <path class="uuid-eeef2dc8-fc8e-4b15-a8c2-b32cc6b3a700" d="M216.08,32.42c2.79-.09,5.56-.34,8.1-1.57,4.99-2.47,9.91-6.24,15.86-5.86,6.07.04,11.3,4.66,12.55,10.53,1.83,8.55-1.48,17.25-4.82,24.96-4.49,10.16-11.15,19.73-11.57,31.13-.4,5.47.62,11.16,1.55,16.54.99,5.52,2.16,11.13,2.35,16.93-.11,2.37-.24,4.75-.17,7.05-.01,4.97,1.85,7.82,6.3,10.01,2,1.06,4.14,2,6.28,2.93.77.33,1.12,1.22.79,1.98-.33.77-1.23,1.11-1.99.77-2.16-.98-4.32-1.96-6.46-3.13-8.84-4.39-7.83-11.52-7.35-19.53-.21-11.14-4.3-22.4-3.43-33.68.56-11.65,7.46-21.46,12.19-31.68,3.33-7.44,6.66-15.75,5.06-23.96-1.09-5.39-5.74-9.66-11.33-9.77-5.8-.42-10.45,3.18-15.48,5.55-2.6,1.23-5.57,1.48-8.41,1.52-.2,0-.36-.15-.37-.35,0-.2.15-.36.34-.37h0Z"/>
      <path class="uuid-eeef2dc8-fc8e-4b15-a8c2-b32cc6b3a700" d="M168.03,36.66c3.37-.48,6.1-1.74,7-5.26,1.6-8.13-2.13-17.97,9.98-18.43,5.5-.16,13.69-.57,15,6.37.73,2.54.2,5.51,2.31,7.36,3.81,3.3,9.4,3.31,14.16,4.64,1.88.52,1.18,3.37-.75,2.9-5.9-1.8-15.6-2.19-17.32-9.83-.41-2.7-.18-6.35-2.63-8.03-3.13-1.88-7.16-1.55-10.71-1.68-12.83-.16-5.21,13.62-10.74,20.04-1.16,1.31-2.88,2.01-4.56,2.37,0,0-1.68.26-1.68.26-.47.06-.58-.66-.08-.71h0Z"/>
      <path class="uuid-eeef2dc8-fc8e-4b15-a8c2-b32cc6b3a700" d="M149.69,177.8c-13.67-5.65-14.43,10.81-26.52,10.94-5.3-.15-9.78-3.49-14.42-5.67-4.55-2.43-9.03-4.96-13.61-7.28-4.01-2.39-8.69-4.04-12.31-7.2-4.19-3.47-4.72-8.08.21-11.17,7.04-4.2,15.9-2.25,22.7,1.3,6.86,3.61,13.13,8.15,19.41,12.49,1.63,1.01,4.34,2.9,6.07,2.17.62-.48,1.28-2.49,1.26-4.13,0,0,.12-2.61.12-2.61.06-4.33-.07-8.71-.27-13.03-.51-9.33-.87-22.1-1.17-31.44-1.23-17.46-1.41-34.96-2.42-52.43-.2-8.82-1.31-18.55,3.74-26.38,7.67-10.96,24.11-7.61,35.61-7.86,1.97.11,1.96,2.96-.04,3-6.92-.09-13.94-.77-20.77-.01-3.34.39-6.6,1.26-9.22,3.06-8.49,6.22-6.86,18.7-6.79,28.07.35,6.97.58,14,.78,20.99.25,13.78,1.23,28.12,1.51,41.93.09,5.23.44,15.76.68,20.98.17,4.35.27,8.82.18,13.19-.22,2.69.12,6.04-2.14,8.07-3.92,2.4-11-4.66-14.31-6.6-4.3-2.79-8.44-5.79-12.92-8.11-6.43-3.4-14.67-5.36-21.29-1.51-2.04,1.17-3.47,3.28-2.75,5.65.44.78,1.55,2.58,2.67,3.4,3.55,3.11,8.01,4.69,12.07,7.15,4.38,2.25,9.05,4.95,13.5,7.35,4.46,2.14,8.85,5.45,13.92,5.66,3.78.06,7.17-2.21,9.76-4.83,2.6-2.82,5.28-6.06,9.3-6.86,2.64-.58,5.34.04,7.73,1.03.18.08.27.28.19.47-.08.18-.29.27-.47.19h0Z"/>
      <path class="uuid-eeef2dc8-fc8e-4b15-a8c2-b32cc6b3a700" d="M174.38,230.46c-1.46-5.37-3.43-10.86-8.07-14.19-4.01-3.06-10.9-4.94-11.31-10.91-.03-4.58,3.74-8.11,5.65-11.85,1.88-3.04-.65-6.04-3.04-8.03-2.44-1.99-6.21-4.84-8.74-6.85-1.53-1.22.26-3.56,1.85-2.36.03.01,4.28,3.59,4.32,3.61,3.52,3.13,8.79,6.25,8.6,11.7-.67,5.17-6.52,8.35-6.83,13.75.06,3.22,3.03,5.05,5.5,6.73,3.23,1.98,6.66,4.15,8.7,7.51,2.15,3.28,3.16,7.05,4.06,10.71.05.19-.07.39-.26.43-.19.05-.38-.07-.43-.25h0Z"/>
      <path class="uuid-eeef2dc8-fc8e-4b15-a8c2-b32cc6b3a700" d="M33.16,244.23c30.34-.15,92.7-.45,122.35-.59,10.27.13,18.35-.88,17.72-13.27-.02-.83.64-1.53,1.47-1.54.85-.02,1.55.69,1.53,1.54-.04,1.63-.16,3.28-.5,4.94-1.88,10.36-11.8,10.49-20.22,10.23,0,0-9.41-.05-9.41-.05-23.99-.12-88.16-.43-112.94-.55-.2,0-.36-.16-.36-.36,0-.2.16-.35.36-.36h0Z"/>
    </g>
  </g>
  <g id="uuid-fe56e09f-8cf8-4735-9f0c-f1913f49f08c" data-name="start">
    <g>
      <polygon class="uuid-fdb31ddb-4609-4ca8-9058-a2dca6b62b1b" points="0 252.59 4.63 244.59 0 236.59 28.52 236.59 33.15 244.59 28.52 252.59 0 252.59"/>
      <g>
        <path class="uuid-eeef2dc8-fc8e-4b15-a8c2-b32cc6b3a700" d="M7.18,243.37c0-.46.17-.82.51-1.1.34-.28.76-.42,1.25-.42s.95.1,1.29.29l.09,1.23h-.02c-.19-.18-.42-.33-.68-.43s-.5-.16-.74-.16c-.46,0-.68.18-.68.53,0,.22.16.46.47.72l.48.41c.32.27.55.53.7.78.14.25.22.51.22.8,0,.12-.01.25-.04.38-.03.13-.09.26-.17.41-.08.14-.19.27-.31.38-.13.11-.29.2-.5.27-.21.07-.45.11-.71.11s-.51-.04-.76-.12c-.25-.08-.44-.17-.57-.29l-.09-1.13h.02c.59.51,1.09.77,1.5.77.2,0,.35-.06.45-.19.11-.13.16-.29.16-.48,0-.17-.04-.33-.13-.47-.09-.15-.23-.3-.43-.46l-.62-.52c-.46-.39-.69-.82-.69-1.3Z"/>
        <path class="uuid-eeef2dc8-fc8e-4b15-a8c2-b32cc6b3a700" d="M13.81,247.25c-.12.09-.28.16-.47.22s-.37.09-.54.09c-.49,0-.85-.17-1.06-.5-.21-.34-.28-.82-.19-1.45l.4-2.88-.88-.05v-.11l1.84-1.89h.21l-.16,1.32,1.36-.15-.05,1.01-1.4-.08-.3,2.58c-.02.27-.04.51-.03.71,0,.21.06.38.16.5.1.13.26.19.48.19.2,0,.43-.07.7-.21h.02l-.09.68Z"/>
        <path class="uuid-eeef2dc8-fc8e-4b15-a8c2-b32cc6b3a700" d="M17.37,246.91c-.41.44-.78.66-1.11.66-.4,0-.73-.2-.99-.59-.26-.39-.4-.89-.4-1.49,0-.7.13-1.33.39-1.89.26-.55.62-.99,1.07-1.29.45-.31.96-.46,1.53-.46.3,0,.7.02,1.2.05l-.38,5.55h-1.07l.08-.89-.32.34ZM16.54,246.68c.17,0,.35-.08.54-.24.19-.16.42-.4.69-.72l.38-2.88c-.11-.03-.23-.04-.35-.04-.29,0-.57.08-.81.24-.25.16-.45.37-.61.62-.16.26-.28.54-.37.85s-.13.62-.13.94c0,.36.05.65.16.89s.27.35.5.35Z"/>
        <path class="uuid-eeef2dc8-fc8e-4b15-a8c2-b32cc6b3a700" d="M22.88,242.98c-.38,0-.8.19-1.26.58l-.29,3.9h-1.12l.53-4.21-.16-1.29h1.14l-.06.92c.73-.69,1.3-1.03,1.69-1.03.1,0,.19,0,.26.02l.09,1.29h-.02c-.23-.13-.5-.19-.81-.19Z"/>
        <path class="uuid-eeef2dc8-fc8e-4b15-a8c2-b32cc6b3a700" d="M26.89,247.25c-.12.09-.28.16-.47.22-.19.06-.37.09-.54.09-.49,0-.85-.17-1.06-.5-.21-.34-.28-.82-.19-1.45l.4-2.88-.88-.05v-.11l1.84-1.89h.21l-.16,1.32,1.36-.15-.05,1.01-1.4-.08-.3,2.58c-.03.27-.04.51-.03.71,0,.21.06.38.16.5.1.13.26.19.48.19.2,0,.43-.07.7-.21h.02l-.09.68Z"/>
      </g>
    </g>
  </g>
  <g id="uuid-3feedda4-d1d6-41c7-adba-1542633b0e28" data-name="entry points">
    <g>
      <circle class="uuid-fdb31ddb-4609-4ca8-9058-a2dca6b62b1b" cx="174.72" cy="230.34" r="2.5"/>
      <path class="uuid-eeef2dc8-fc8e-4b15-a8c2-b32cc6b3a700" d="M174.72,228.34c1.1,0,2,.9,2,2s-.9,2-2,2-2-.9-2-2,.9-2,2-2M174.72,227.34c-1.65,0-3,1.35-3,3s1.35,3,3,3,3-1.35,3-3-1.35-3-3-3h0Z"/>
    </g>
    <g>
      <circle class="uuid-fdb31ddb-4609-4ca8-9058-a2dca6b62b1b" cx="149.83" cy="177.47" r="2.5"/>
      <path class="uuid-eeef2dc8-fc8e-4b15-a8c2-b32cc6b3a700" d="M149.83,175.47c1.1,0,2,.9,2,2s-.9,2-2,2-2-.9-2-2,.9-2,2-2M149.83,174.47c-1.65,0-3,1.35-3,3s1.35,3,3,3,3-1.35,3-3-1.35-3-3-3h0Z"/>
    </g>
    <g>
      <circle class="uuid-fdb31ddb-4609-4ca8-9058-a2dca6b62b1b" cx="168.07" cy="37.02" r="2.5"/>
      <path class="uuid-eeef2dc8-fc8e-4b15-a8c2-b32cc6b3a700" d="M168.07,35.02c1.1,0,2,.9,2,2s-.9,2-2,2-2-.9-2-2,.9-2,2-2M168.07,34.02c-1.65,0-3,1.35-3,3s1.35,3,3,3,3-1.35,3-3-1.35-3-3-3h0Z"/>
    </g>
    <g>
      <circle class="uuid-fdb31ddb-4609-4ca8-9058-a2dca6b62b1b" cx="216.09" cy="32.68" r="2.5"/>
      <path class="uuid-eeef2dc8-fc8e-4b15-a8c2-b32cc6b3a700" d="M216.09,30.68c1.1,0,2,.9,2,2s-.9,2-2,2-2-.9-2-2,.9-2,2-2M216.09,29.68c-1.65,0-3,1.35-3,3s1.35,3,3,3,3-1.35,3-3-1.35-3-3-3h0Z"/>
    </g>
    <g>
      <circle class="uuid-fdb31ddb-4609-4ca8-9058-a2dca6b62b1b" cx="251.91" cy="146.44" r="2.5"/>
      <path class="uuid-eeef2dc8-fc8e-4b15-a8c2-b32cc6b3a700" d="M251.91,144.44c1.1,0,2,.9,2,2s-.9,2-2,2-2-.9-2-2,.9-2,2-2M251.91,143.44c-1.65,0-3,1.35-3,3s1.35,3,3,3,3-1.35,3-3-1.35-3-3-3h0Z"/>
    </g>
  </g>
  <g id="uuid-0d935931-ebc2-4bba-b7d2-12fff7f6490d" data-name="sides">
    <g>
      <g>
        <polyline class="uuid-20df5107-ab1b-4a37-bee5-7383a815f9d4" points="265.94 212.66 261.65 215.19 256.86 219.23 252.51 222.84"/>
        <polygon class="uuid-dd640cc2-9f22-4c9b-bb9f-a8d5efe263c8" points="251.58 219.79 248.86 225.11 254.83 224.81 251.58 219.79"/>
      </g>
      <g>
        <polyline class="uuid-20df5107-ab1b-4a37-bee5-7383a815f9d4" points="145.24 204.28 148.77 198.74 152.3 193.65 155.68 188.66 159.66 184.15 164.29 180.3 168.86 176.46 173.69 172.93 178.95 170.05 184.55 167.92 190.19 165.79 196.14 164.87 202.11 164.12 208.12 164.13 214.49 164.57 220.9 164.68 227.16 166.08 233.44 167.37 239.41 169.76 244.94 173.01 250.1 176.78 254.81 181.12 258.93 186.01 262.4 191.37 265.63 196.85 267.2 199.66"/>
        <polygon class="uuid-dd640cc2-9f22-4c9b-bb9f-a8d5efe263c8" points="264.17 200.36 269.31 203.42 269.38 197.44 264.17 200.36"/>
      </g>
      <g>
        <polyline class="uuid-20df5107-ab1b-4a37-bee5-7383a815f9d4" points="166.47 224.76 164.38 223.21 158.76 220.22 153.3 216.88 149.73 214.62"/>
        <polygon class="uuid-dd640cc2-9f22-4c9b-bb9f-a8d5efe263c8" points="152.13 212.61 146.16 212.2 148.79 217.57 152.13 212.61"/>
      </g>
      <g>
        <polyline class="uuid-20df5107-ab1b-4a37-bee5-7383a815f9d4" points="157.15 44.29 156.65 48.75 156.69 55.03 157.02 61.31 156.74 67.6 157.14 73.88 157.11 80.16 157.57 86.44 156.87 92.72 156.91 99.01 157.52 105.29 157.29 111.57 157.17 117.85 157.59 124.13 157.34 130.42 157.24 136.7 157.01 142.98 157.64 149.26 157.53 153.56"/>
        <polygon class="uuid-dd640cc2-9f22-4c9b-bb9f-a8d5efe263c8" points="154.55 152.74 157.64 157.86 160.53 152.62 154.55 152.74"/>
      </g>
      <g>
        <polyline class="uuid-20df5107-ab1b-4a37-bee5-7383a815f9d4" points="126.57 152.18 126.14 148.57 126.01 142.18 125.86 135.79 126.13 129.38 125.66 123 125.27 116.62 125.13 110.23 124.74 103.85 124.23 97.47 124.34 91.07 124.61 84.66 123.7 78.3 123.81 71.89 123.34 65.52 123.23 59.47 123.25 53.42 124.14 47.44 125.76 41.59 128.92 36.4 133.57 32.56 138.88 29.61 144.91 28.77 150.98 28.81 153.01 29.13"/>
        <polygon class="uuid-dd640cc2-9f22-4c9b-bb9f-a8d5efe263c8" points="151.67 31.95 157.26 29.81 152.61 26.04 151.67 31.95"/>
      </g>
      <g>
        <polyline class="uuid-20df5107-ab1b-4a37-bee5-7383a815f9d4" points="73.05 158.54 74.6 156.33 78.48 151.59 83.82 148.16 89.86 146.49 96.04 145.79 102.29 146.52 107.94 149.3 113.44 152.23 118 155.19 118.31 155.38"/>
        <polygon class="uuid-dd640cc2-9f22-4c9b-bb9f-a8d5efe263c8" points="115.95 157.43 121.93 157.71 119.19 152.39 115.95 157.43"/>
      </g>
      <g>
        <polyline class="uuid-20df5107-ab1b-4a37-bee5-7383a815f9d4" points="122.1 197.51 117.71 194.69 112.02 191.82 106.62 188.46 100.92 185.55 95.45 182.28 90.01 179.08 84.26 176.38 78.86 172.81 74.39 169.51"/>
        <polygon class="uuid-dd640cc2-9f22-4c9b-bb9f-a8d5efe263c8" points="76.71 167.49 70.73 167.24 73.5 172.55 76.71 167.49"/>
      </g>
      <g>
        <polyline class="uuid-b9482e07-a3b5-40a1-80a4-68b92ba4d8ef" points="156.42 169.64 153.29 172.73 149.55 177.81 144.88 182.06 141.24 187.22 137.02 191.86 134.54 194.65"/>
        <polygon class="uuid-fdb31ddb-4609-4ca8-9058-a2dca6b62b1b" points="132.88 192.02 131.69 197.88 137.36 195.98 132.88 192.02"/>
      </g>
      <g>
        <polyline class="uuid-b9482e07-a3b5-40a1-80a4-68b92ba4d8ef" points="168.65 154.43 168.84 149.18 169.14 142.95 169.33 136.73 168.69 130.51 168.47 124.29 168.45 118.07 168.41 111.85 168.52 105.63 168.69 99.4 168.73 93.18 168.99 86.96 168.56 80.74 168.3 74.52 168.24 68.3 168.45 62.07 168.18 55.85 168.31 49.63 168.19 43.41 168.07 37.19 168.08 30.96 168.24 24.74 168.19 18.52 168.17 15.76"/>
        <polygon class="uuid-fdb31ddb-4609-4ca8-9058-a2dca6b62b1b" points="171.17 16.61 168.13 11.46 165.18 16.66 171.17 16.61"/>
      </g>
      <g>
        <polyline class="uuid-20df5107-ab1b-4a37-bee5-7383a815f9d4" points="205.08 101.89 204.98 104.45 204.11 110.44 203.47 116.42 202.6 122.36 201.72 128.35 199.82 134.11 196.96 139.46 193.35 144.3 189.55 149.01 184.94 152.92 179.99 156.42 178.06 157.33"/>
        <polygon class="uuid-dd640cc2-9f22-4c9b-bb9f-a8d5efe263c8" points="177.58 154.25 174.16 159.15 180.12 159.66 177.58 154.25"/>
      </g>
      <g>
        <polyline class="uuid-20df5107-ab1b-4a37-bee5-7383a815f9d4" points="185.11 91.51 191.64 92.29 198.19 92.35 200.46 92.33"/>
        <polygon class="uuid-dd640cc2-9f22-4c9b-bb9f-a8d5efe263c8" points="199.61 95.33 204.77 92.3 199.56 89.35 199.61 95.33"/>
      </g>
      <g>
        <polyline class="uuid-20df5107-ab1b-4a37-bee5-7383a815f9d4" points="207.95 12.98 207.98 18.79 206.98 24.94 206.46 31.1 205.78 37.25 204.52 43.31 203.33 49.39 201.24 55.22 199.12 61.03 196.5 66.63 193.59 72.1 190.11 77.21 187.72 80.97"/>
        <polygon class="uuid-dd640cc2-9f22-4c9b-bb9f-a8d5efe263c8" points="185.85 78.4 185.03 84.33 190.57 82.07 185.85 78.4"/>
      </g>
      <g>
        <polyline class="uuid-20df5107-ab1b-4a37-bee5-7383a815f9d4" points="175.58 5.86 181.33 5.95 187.97 6.2 194.61 6.16 200.44 6.6"/>
        <polygon class="uuid-dd640cc2-9f22-4c9b-bb9f-a8d5efe263c8" points="199.46 9.53 204.75 6.74 199.68 3.56 199.46 9.53"/>
      </g>
      <g>
        <polyline class="uuid-b9482e07-a3b5-40a1-80a4-68b92ba4d8ef" points="217.37 55.03 217.04 54.04 216.35 48.14 215.93 42.25 215.39 36.33 216.57 30.35 219.71 25.15 223.96 20.84 229.43 18.23 235.3 16.9 241.3 16.81 247.45 17.76 252.99 20.53 257.35 25.05 259.62 30.96 260.21 37.24 260.75 43.57 259.47 49.83 259.09 50.79"/>
        <polygon class="uuid-fdb31ddb-4609-4ca8-9058-a2dca6b62b1b" points="256.64 48.86 257.48 54.78 262.19 51.1 256.64 48.86"/>
      </g>
      <g>
        <polyline class="uuid-20df5107-ab1b-4a37-bee5-7383a815f9d4" points="212.29 115.26 212.92 113.14 215.55 107.4 217.53 101.42 219.46 95.43 221.38 89.4 221.92 83.1 221.47 77.2 220.91 72.4"/>
        <polygon class="uuid-dd640cc2-9f22-4c9b-bb9f-a8d5efe263c8" points="223.99 72.94 220.44 68.12 218.04 73.59 223.99 72.94"/>
      </g>
      <g>
        <polyline class="uuid-20df5107-ab1b-4a37-bee5-7383a815f9d4" points="246.66 118.13 246.98 121.86 247.91 128.14 246.64 133.92 245.61 139.67 243.74 145.17 241.07 150.39 236.22 153.67 230.74 155.43 224.94 155.88 218.4 154.85 213.45 150.45 210.01 144.78 209.32 138.18 208.8 131.59 209.42 128.61"/>
        <polygon class="uuid-dd640cc2-9f22-4c9b-bb9f-a8d5efe263c8" points="212.18 130.06 210.26 124.39 206.31 128.88 212.18 130.06"/>
      </g>
      <g>
        <polyline class="uuid-20df5107-ab1b-4a37-bee5-7383a815f9d4" points="255.43 60.93 255.15 61.78 252.27 67.44 249.54 73.17 246.42 78.69 244.01 84.55 242.47 90.71 243.05 97 243.88 103.23 244.46 107.29"/>
        <polygon class="uuid-dd640cc2-9f22-4c9b-bb9f-a8d5efe263c8" points="241.39 107.01 245.33 111.51 247.26 105.84 241.39 107.01"/>
      </g>
      <g>
        <polyline class="uuid-20df5107-ab1b-4a37-bee5-7383a815f9d4" points="282.1 169.92 280.01 170.43 273.97 171.12 267.9 170.8 261.89 169.83 257.33 167.91"/>
        <polygon class="uuid-dd640cc2-9f22-4c9b-bb9f-a8d5efe263c8" points="259.51 165.61 253.53 165.88 256.75 170.92 259.51 165.61"/>
      </g>
      <g>
        <polyline class="uuid-20df5107-ab1b-4a37-bee5-7383a815f9d4" points="286.07 76.52 286.03 78.07 286.1 84.13 286 90.19 285.85 96.25 286.24 102.31 286.01 108.36 286.25 114.42 285.98 120.48 286.4 126.54 285.78 132.6 286.19 138.66 285.95 144.72 286.32 150.78 286.29 156.84 286.1 160.73"/>
        <polygon class="uuid-dd640cc2-9f22-4c9b-bb9f-a8d5efe263c8" points="283.15 159.77 285.99 165.04 289.13 159.94 283.15 159.77"/>
      </g>
      <g>
        <polyline class="uuid-b9482e07-a3b5-40a1-80a4-68b92ba4d8ef" points="248.06 155.34 250.39 149.76 252.92 144.27 255.32 138.73 257.53 133.11 259.16 127.26 261.75 121.79 264.07 116.21 266.16 110.55 268.7 105.06 270.37 99.23 272.82 93.7 275.02 88.08 277.2 83.62"/>
        <polygon class="uuid-fdb31ddb-4609-4ca8-9058-a2dca6b62b1b" points="279.65 85.44 278.6 79.55 274.02 83.41 279.65 85.44"/>
      </g>
      <g>
        <polyline class="uuid-b9482e07-a3b5-40a1-80a4-68b92ba4d8ef" points="239.53 225.13 236.46 220.16 233.48 215.13 229.83 210.55 225.14 207.04 220.62 203.35 215 201.79 209.24 200.76 203.16 201.34 197.3 202.99 192.06 206 187.4 209.83 183.74 214.63 180.42 219.68 176.96 224.71 176.31 226.36"/>
        <polygon class="uuid-fdb31ddb-4609-4ca8-9058-a2dca6b62b1b" points="173.85 224.45 174.73 230.37 179.41 226.65 173.85 224.45"/>
      </g>
    </g>
  </g>
  <g id="uuid-7c584105-3d4e-42af-b51a-18070283871e" data-name="side numbers">
    <g>
      <path class="uuid-dd640cc2-9f22-4c9b-bb9f-a8d5efe263c8" d="M142.2,201.47c0-3.86,1.91-5.77,4.87-5.77,2.96,0,4.87,1.9,4.87,5.77,0,3.86-1.91,5.77-4.87,5.77-2.96,0-4.87-1.9-4.87-5.77Z"/>
      <path class="uuid-fd91868c-4c05-4791-a8ab-e10629a47556" d="M146.7,204.9c-.49,0-.97-.09-1.44-.27l-.18-1.36h.09c.39.23.71.39.95.49.24.1.49.15.73.15.33,0,.59-.1.78-.3.19-.2.29-.47.29-.8,0-.36-.13-.63-.39-.83-.26-.2-.61-.29-1.05-.29-.2,0-.39.02-.58.07v-.24l1.26-2.48-2.17.33h-.09l.18-1.3h4.07v.09l-1.93,2.65c.67.04,1.16.24,1.48.59s.49.81.49,1.36c0,.2-.02.39-.07.58-.05.19-.13.38-.25.57s-.27.36-.45.51c-.18.15-.42.26-.71.35-.29.09-.62.14-.99.14Z"/>
    </g>
    <g>
      <path class="uuid-dd640cc2-9f22-4c9b-bb9f-a8d5efe263c8" d="M68.64,157.42c0-3.86,1.91-5.77,4.87-5.77,2.96,0,4.87,1.9,4.87,5.77,0,3.86-1.91,5.77-4.87,5.77-2.96,0-4.87-1.9-4.87-5.77Z"/>
      <path class="uuid-fd91868c-4c05-4791-a8ab-e10629a47556" d="M73.14,160.85c-.49,0-.97-.09-1.44-.27l-.18-1.36h.09c.39.23.71.39.95.49.24.1.49.15.73.15.33,0,.59-.1.79-.3.19-.2.29-.47.29-.8,0-.36-.13-.63-.39-.83s-.61-.29-1.05-.29c-.2,0-.39.02-.58.07v-.24l1.26-2.48-2.17.33h-.09l.18-1.3h4.07v.09l-1.93,2.65c.67.04,1.16.24,1.48.59.32.36.49.81.49,1.36,0,.2-.02.39-.07.58-.05.19-.13.38-.25.57-.12.19-.27.36-.46.51-.18.15-.42.26-.71.35-.29.09-.62.14-.99.14Z"/>
    </g>
    <g>
      <path class="uuid-dd640cc2-9f22-4c9b-bb9f-a8d5efe263c8" d="M203.13,16.19c0-3.86,1.91-5.77,4.87-5.77,2.96,0,4.87,1.9,4.87,5.77,0,3.86-1.91,5.77-4.87,5.77-2.96,0-4.87-1.9-4.87-5.77Z"/>
      <path class="uuid-fd91868c-4c05-4791-a8ab-e10629a47556" d="M207.63,19.61c-.49,0-.97-.09-1.44-.27l-.18-1.36h.09c.39.23.71.39.95.49.24.1.49.15.73.15.33,0,.59-.1.78-.3.19-.2.29-.47.29-.8,0-.36-.13-.63-.39-.83s-.61-.29-1.05-.29c-.2,0-.39.02-.58.07v-.24l1.26-2.48-2.17.33h-.09l.18-1.3h4.07v.09l-1.93,2.65c.67.04,1.16.24,1.48.59.32.36.49.81.49,1.36,0,.2-.02.39-.07.58-.05.19-.13.38-.25.57-.12.19-.27.36-.45.51-.18.15-.42.26-.71.35-.29.09-.62.14-.99.14Z"/>
    </g>
    <g>
      <path class="uuid-dd640cc2-9f22-4c9b-bb9f-a8d5efe263c8" d="M121.09,149.65c0-3.86,1.91-5.77,4.87-5.77,2.96,0,4.87,1.9,4.87,5.77,0,3.86-1.91,5.77-4.87,5.77-2.96,0-4.87-1.9-4.87-5.77Z"/>
      <path class="uuid-fd91868c-4c05-4791-a8ab-e10629a47556" d="M128.94,151.14h-1.58l.13,1.85h-1.45l.13-1.85h-3.17v-.46l4.29-4.54h.29l-.24,3.99h1.61v1ZM126.18,150.14l-.07-1.54-1.49,1.54h1.56Z"/>
    </g>
    <g>
      <path class="uuid-fdb31ddb-4609-4ca8-9058-a2dca6b62b1b" d="M213.42,58.26c0-3.86,1.91-5.77,4.87-5.77,2.96,0,4.87,1.9,4.87,5.77,0,3.86-1.91,5.77-4.87,5.77-2.96,0-4.87-1.9-4.87-5.77Z"/>
      <path class="uuid-fd91868c-4c05-4791-a8ab-e10629a47556" d="M217.67,61.6l.35-5.14-1.24.47v-.72l1.56-1.37h.73l.19,6.75h-1.59Z"/>
    </g>
    <g>
      <path class="uuid-dd640cc2-9f22-4c9b-bb9f-a8d5efe263c8" d="M242.43,120.35c.03-3.86,1.96-5.75,4.92-5.73,2.96.02,4.86,1.94,4.83,5.8-.03,3.86-1.96,5.75-4.92,5.73-2.96-.02-4.86-1.94-4.83-5.8Z"/>
      <path class="uuid-fd91868c-4c05-4791-a8ab-e10629a47556" d="M246.87,123.82c-.49,0-.97-.1-1.44-.28l-.17-1.36h.09c.39.23.71.4.95.5.24.1.49.15.73.15.33,0,.59-.1.79-.3.2-.2.29-.47.3-.8,0-.36-.13-.64-.38-.83s-.61-.3-1.05-.3c-.2,0-.39.02-.58.06v-.24s1.28-2.47,1.28-2.47l-2.17.32h-.09s.19-1.3.19-1.3l4.07.03v.09s-1.96,2.64-1.96,2.64c.67.04,1.16.24,1.48.6.32.36.48.81.48,1.36,0,.2-.03.39-.08.58s-.14.38-.26.57c-.12.19-.28.36-.46.5s-.42.26-.71.35c-.29.09-.62.13-.99.13Z"/>
    </g>
    <g>
      <path class="uuid-dd640cc2-9f22-4c9b-bb9f-a8d5efe263c8" d="M274.21,170.18c0-3.86,1.91-5.77,4.87-5.77,2.96,0,4.87,1.9,4.87,5.77,0,3.86-1.91,5.77-4.87,5.77-2.96,0-4.87-1.9-4.87-5.77Z"/>
      <path class="uuid-fd91868c-4c05-4791-a8ab-e10629a47556" d="M278.71,173.61c-.49,0-.97-.09-1.44-.27l-.18-1.36h.09c.39.23.71.39.95.49.24.1.49.15.73.15.33,0,.59-.1.78-.3.19-.2.29-.47.29-.8,0-.36-.13-.63-.39-.83s-.61-.29-1.05-.29c-.2,0-.39.02-.58.07v-.24l1.26-2.48-2.17.33h-.09l.18-1.3h4.07v.09l-1.93,2.65c.67.04,1.16.24,1.48.59.32.36.49.81.49,1.36,0,.2-.02.39-.07.58-.05.19-.13.38-.25.57-.12.19-.27.36-.45.51-.18.15-.42.26-.71.35-.29.09-.62.14-.99.14Z"/>
    </g>
    <g>
      <path class="uuid-dd640cc2-9f22-4c9b-bb9f-a8d5efe263c8" d="M199.89,102.22c0-3.86,1.91-5.77,4.87-5.77,2.96,0,4.87,1.9,4.87,5.77,0,3.86-1.91,5.77-4.87,5.77-2.96,0-4.87-1.9-4.87-5.77Z"/>
      <path class="uuid-fd91868c-4c05-4791-a8ab-e10629a47556" d="M204.43,105.64c-.51,0-1.02-.1-1.52-.29l-.18-1.37h.09c.4.24.73.41.99.51.26.1.49.15.7.15.33,0,.58-.1.75-.3.18-.2.26-.46.26-.79,0-.3-.11-.54-.32-.72-.22-.18-.5-.27-.85-.27-.31,0-.66.09-1.04.28h-.13l-.27-4.05h3.57l.18,1.3h-.09l-2.37-.36-.14,1.9c.26-.08.48-.12.66-.12.62,0,1.12.18,1.49.54s.57.82.57,1.39c0,.22-.02.43-.07.63-.05.2-.13.4-.25.59-.12.19-.26.36-.44.5s-.4.26-.67.34c-.27.09-.58.13-.91.13Z"/>
    </g>
    <g>
      <rect class="uuid-dd640cc2-9f22-4c9b-bb9f-a8d5efe263c8" x="259.2" y="207.35" width="10.97" height="8.61" transform="translate(476.34 -53.03) rotate(90)"/>
      <path class="uuid-fd91868c-4c05-4791-a8ab-e10629a47556" d="M267.66,213.15h-1.58l.13,1.85h-1.45l.13-1.85h-3.17v-.46l4.29-4.54h.29l-.24,3.99h1.61v1ZM264.9,212.15l-.08-1.54-1.49,1.54h1.56Z"/>
    </g>
    <g>
      <rect class="uuid-dd640cc2-9f22-4c9b-bb9f-a8d5efe263c8" x="183.84" y="87.76" width="10.97" height="8.61" transform="translate(281.39 -97.27) rotate(90)"/>
      <path class="uuid-fd91868c-4c05-4791-a8ab-e10629a47556" d="M192.3,93.55h-1.58l.13,1.85h-1.45l.13-1.85h-3.17v-.46l4.29-4.54h.29l-.24,3.99h1.61v1ZM189.54,92.56l-.08-1.54-1.49,1.54h1.56Z"/>
    </g>
    <g>
      <rect class="uuid-fdb31ddb-4609-4ca8-9058-a2dca6b62b1b" x="152.11" y="162.88" width="10.97" height="8.61" transform="translate(324.78 9.6) rotate(90)"/>
      <path class="uuid-fd91868c-4c05-4791-a8ab-e10629a47556" d="M156.97,170.53l.35-5.14-1.24.47v-.72l1.55-1.37h.73l.19,6.75h-1.59Z"/>
    </g>
    <g>
      <rect class="uuid-dd640cc2-9f22-4c9b-bb9f-a8d5efe263c8" x="151.54" y="42.68" width="10.97" height="8.61" transform="translate(204.01 -110.03) rotate(90)"/>
      <path class="uuid-fd91868c-4c05-4791-a8ab-e10629a47556" d="M156.68,50.41c-.51,0-1.02-.09-1.52-.29l-.18-1.37h.09c.4.24.73.41.99.51.26.1.49.15.7.15.33,0,.58-.1.75-.3.18-.2.26-.46.26-.79,0-.3-.11-.54-.32-.72-.22-.18-.5-.27-.85-.27-.31,0-.66.09-1.04.28h-.13l-.27-4.05h3.57l.18,1.3h-.09l-2.37-.36-.14,1.9c.26-.08.48-.12.66-.12.62,0,1.12.18,1.49.54s.57.82.57,1.39c0,.22-.02.43-.07.63s-.13.4-.25.59c-.12.19-.26.36-.44.5-.18.14-.4.26-.67.34-.27.09-.58.13-.91.13Z"/>
    </g>
    <g>
      <rect class="uuid-fdb31ddb-4609-4ca8-9058-a2dca6b62b1b" x="162.94" y="146.96" width="10.97" height="8.61" transform="translate(319.69 -17.15) rotate(90)"/>
      <path class="uuid-fd91868c-4c05-4791-a8ab-e10629a47556" d="M167.8,154.61l.35-5.14-1.24.47v-.72l1.56-1.37h.73l.19,6.75h-1.59Z"/>
    </g>
    <g>
      <rect class="uuid-fdb31ddb-4609-4ca8-9058-a2dca6b62b1b" x="241.28" y="154.52" width="10.97" height="8.61" transform="translate(405.6 -87.94) rotate(90)"/>
      <path class="uuid-fd91868c-4c05-4791-a8ab-e10629a47556" d="M246.15,162.16l.35-5.14-1.24.47v-.72l1.56-1.37h.73l.19,6.75h-1.59Z"/>
    </g>
    <g>
      <rect class="uuid-dd640cc2-9f22-4c9b-bb9f-a8d5efe263c8" x="281.05" y="73.01" width="10.97" height="8.61" transform="translate(363.85 -209.22) rotate(90)"/>
      <path class="uuid-fd91868c-4c05-4791-a8ab-e10629a47556" d="M284.11,80.65v-.09l2.11-2.94c.35-.48.58-.84.71-1.09.12-.25.19-.5.19-.74,0-.28-.09-.49-.27-.63s-.41-.22-.7-.22c-.43,0-.88.19-1.35.58h-.09l.16-1.39c.16-.08.38-.16.66-.22.28-.06.55-.09.79-.09.33,0,.63.05.9.15.26.1.48.23.64.4.16.17.29.36.37.57.08.21.13.44.13.68,0,.42-.08.81-.25,1.18-.17.37-.45.81-.86,1.31l-1.36,1.68,2.83-.59h.09l-.2,1.46h-4.5Z"/>
    </g>
    <g>
      <rect class="uuid-dd640cc2-9f22-4c9b-bb9f-a8d5efe263c8" x="116.06" y="192.72" width="10.97" height="8.61" transform="translate(318.57 75.49) rotate(90)"/>
      <path class="uuid-fd91868c-4c05-4791-a8ab-e10629a47556" d="M119.11,200.37v-.09l2.11-2.94c.35-.48.58-.84.71-1.09.12-.25.19-.5.19-.74,0-.28-.09-.49-.27-.63s-.41-.22-.7-.22c-.43,0-.88.19-1.35.58h-.09l.16-1.39c.16-.09.38-.16.66-.22.28-.06.55-.09.79-.09.33,0,.63.05.9.15s.48.23.64.4c.16.17.29.36.37.57.08.21.13.44.13.68,0,.42-.08.81-.25,1.18-.17.37-.45.81-.86,1.31l-1.36,1.68,2.83-.59h.09l-.2,1.46h-4.5Z"/>
    </g>
    <g>
      <rect class="uuid-dd640cc2-9f22-4c9b-bb9f-a8d5efe263c8" x="170.74" y="1.18" width="10.97" height="8.61" transform="translate(181.7 -170.74) rotate(90)"/>
      <path class="uuid-fd91868c-4c05-4791-a8ab-e10629a47556" d="M173.8,8.82v-.09l2.11-2.94c.35-.48.58-.84.71-1.09s.19-.5.19-.74c0-.28-.09-.49-.27-.63s-.41-.22-.7-.22c-.43,0-.88.19-1.35.58h-.09l.16-1.39c.16-.08.38-.16.66-.22.28-.06.55-.09.8-.09.33,0,.63.05.9.15.26.1.48.23.64.4.16.17.29.36.37.57.09.21.13.44.13.68,0,.42-.08.81-.25,1.18-.17.37-.45.81-.86,1.31l-1.36,1.68,2.83-.59h.09l-.2,1.46h-4.5Z"/>
    </g>
    <g>
      <rect class="uuid-dd640cc2-9f22-4c9b-bb9f-a8d5efe263c8" x="158.29" y="220.88" width="10.97" height="8.61" transform="translate(388.96 61.42) rotate(90)"/>
      <path class="uuid-fd91868c-4c05-4791-a8ab-e10629a47556" d="M161.35,228.53v-.09l2.11-2.94c.35-.48.58-.84.71-1.09.12-.25.19-.5.19-.74,0-.28-.09-.49-.27-.63s-.41-.22-.7-.22c-.43,0-.88.19-1.35.58h-.09l.16-1.39c.16-.08.38-.16.66-.22.28-.06.55-.09.79-.09.33,0,.63.05.9.15.26.1.48.23.64.4.16.17.29.36.37.57.08.21.13.44.13.68,0,.42-.08.81-.25,1.18-.17.37-.45.81-.86,1.31l-1.36,1.68,2.83-.59h.09l-.2,1.46h-4.5Z"/>
    </g>
    <g>
      <path class="uuid-fdb31ddb-4609-4ca8-9058-a2dca6b62b1b" d="M244.24,228.89c0-2.03.33-3.99.88-5.87-1.75.68-3.26.96-4.89.96-1.63,0-3.14-.28-4.89-.96.55,1.88.88,3.85.88,5.87,0,2.03-.33,3.99-.88,5.87,1.75-.68,3.26-.96,4.89-.96,1.63,0,3.14.28,4.89.96-.55-1.88-.88-3.85-.88-5.87Z"/>
      <path class="uuid-fd91868c-4c05-4791-a8ab-e10629a47556" d="M239.61,232.22l.35-5.14-1.24.47v-.72l1.56-1.37h.73l.19,6.75h-1.59Z"/>
    </g>
    <g>
      <path class="uuid-dd640cc2-9f22-4c9b-bb9f-a8d5efe263c8" d="M259.38,63.35c0-2.03.33-3.99.88-5.87-1.75.68-3.26.96-4.89.96-1.63,0-3.14-.28-4.89-.96.55,1.88.88,3.85.88,5.87,0,2.03-.33,3.99-.88,5.87,1.75-.68,3.26-.96,4.89-.96,1.63,0,3.14.28,4.89.96-.55-1.88-.88-3.85-.88-5.87Z"/>
      <path class="uuid-fd91868c-4c05-4791-a8ab-e10629a47556" d="M252.95,66.68v-.09l2.11-2.94c.35-.48.58-.84.71-1.09.12-.25.19-.5.19-.74,0-.28-.09-.49-.27-.63s-.41-.22-.7-.22c-.43,0-.88.19-1.35.58h-.09l.16-1.39c.16-.08.38-.16.66-.22.28-.06.55-.09.8-.09.33,0,.63.05.9.15.26.1.48.23.64.4.16.17.29.36.37.57.08.21.13.44.13.68,0,.42-.08.81-.25,1.18-.17.37-.45.81-.86,1.31l-1.36,1.68,2.83-.59h.09l-.2,1.46h-4.5Z"/>
    </g>
    <g>
      <path class="uuid-dd640cc2-9f22-4c9b-bb9f-a8d5efe263c8" d="M216.85,115.89c0-2.03.33-3.99.88-5.87-1.75.68-3.26.96-4.89.96-1.63,0-3.14-.28-4.89-.96.55,1.88.88,3.85.88,5.87,0,2.03-.33,3.99-.88,5.87,1.75-.68,3.26-.96,4.89-.96,1.63,0,3.14.28,4.89.96-.55-1.88-.88-3.85-.88-5.87Z"/>
      <path class="uuid-fd91868c-4c05-4791-a8ab-e10629a47556" d="M215.81,117.38h-1.58l.13,1.85h-1.45l.13-1.85h-3.17v-.46l4.29-4.54h.29l-.24,3.99h1.61v1ZM213.05,116.38l-.07-1.54-1.49,1.54h1.56Z"/>
    </g>
  </g>
  <g id="uuid-b0be6ad9-be73-49ef-a14b-2ae4d5379a4e" data-name="translation">
    <g>
      <rect class="uuid-b0a9853d-6a4b-46d4-aa49-f7b1a4b92f5c" x="91.66" y="275.16" width="65" height="26"/>
      <g>
        <path class="uuid-eeef2dc8-fc8e-4b15-a8c2-b32cc6b3a700" d="M97.22,285.91l.21-3.55-.21-3.2h1.62l-.2,3.2.2,3.55h-1.62Z"/>
        <path class="uuid-eeef2dc8-fc8e-4b15-a8c2-b32cc6b3a700" d="M100.3,285.91l.21-3.55-.21-3.2h1.62l-.2,3.2.2,3.55h-1.62Z"/>
      </g>
      <path class="uuid-fdb31ddb-4609-4ca8-9058-a2dca6b62b1b" d="M97.54,297.2l.35-5.14-1.24.47v-.72l1.56-1.37h.73l.19,6.75h-1.59Z"/>
      <path class="uuid-dd640cc2-9f22-4c9b-bb9f-a8d5efe263c8" d="M108.73,297.2v-.09l2.11-2.94c.35-.48.58-.84.71-1.09.12-.25.19-.5.19-.74,0-.28-.09-.49-.27-.63s-.41-.22-.7-.22c-.43,0-.88.19-1.35.58h-.09l.16-1.39c.16-.08.38-.16.66-.22.28-.06.55-.09.8-.09.33,0,.63.05.9.15.26.1.48.23.64.4.16.17.29.36.37.57.08.21.13.44.13.68,0,.42-.08.81-.25,1.18-.17.37-.45.81-.86,1.31l-1.36,1.68,2.83-.59h.09l-.2,1.46h-4.5Z"/>
      <path class="uuid-dd640cc2-9f22-4c9b-bb9f-a8d5efe263c8" d="M123.78,297.29c-.49,0-.97-.09-1.44-.27l-.18-1.36h.09c.39.23.71.39.95.49.24.1.49.15.73.15.33,0,.59-.1.79-.3.19-.2.29-.47.29-.8,0-.36-.13-.63-.39-.83s-.61-.29-1.05-.29c-.2,0-.39.02-.58.07v-.24l1.26-2.48-2.17.33h-.09l.18-1.3h4.07v.09l-1.93,2.65c.66.04,1.16.24,1.48.59.32.36.49.81.49,1.36,0,.2-.02.39-.07.58-.05.19-.13.38-.25.57-.12.19-.27.36-.46.51-.18.15-.42.26-.71.35-.29.09-.62.14-.99.14Z"/>
      <path class="uuid-dd640cc2-9f22-4c9b-bb9f-a8d5efe263c8" d="M140.13,295.36h-1.58l.13,1.85h-1.45l.13-1.85h-3.17v-.46l4.29-4.54h.29l-.24,3.99h1.61v1ZM137.37,294.36l-.07-1.54-1.49,1.54h1.56Z"/>
      <path class="uuid-dd640cc2-9f22-4c9b-bb9f-a8d5efe263c8" d="M149.82,297.29c-.51,0-1.02-.09-1.53-.29l-.18-1.37h.09c.4.24.73.41.99.51.26.1.49.15.7.15.33,0,.58-.1.75-.3.18-.2.26-.46.26-.79,0-.3-.11-.54-.32-.72-.22-.18-.5-.27-.86-.27-.31,0-.66.09-1.04.28h-.13l-.27-4.05h3.57l.18,1.3h-.09l-2.37-.36-.14,1.9c.26-.08.48-.12.65-.12.62,0,1.12.18,1.49.54.38.36.57.82.57,1.39,0,.22-.03.43-.08.63s-.13.4-.25.59c-.12.19-.26.36-.44.5-.18.14-.4.26-.67.34-.27.09-.58.13-.91.13Z"/>
      <rect class="uuid-b0a9853d-6a4b-46d4-aa49-f7b1a4b92f5c" x="163.16" y="275.16" width="65" height="26"/>
      <g>
        <path class="uuid-eeef2dc8-fc8e-4b15-a8c2-b32cc6b3a700" d="M168.72,285.91l.21-3.55-.21-3.2h1.62l-.2,3.2.2,3.55h-1.62Z"/>
        <path class="uuid-eeef2dc8-fc8e-4b15-a8c2-b32cc6b3a700" d="M171.8,285.91l.21-3.55-.21-3.2h1.62l-.2,3.2.2,3.55h-1.62Z"/>
        <path class="uuid-eeef2dc8-fc8e-4b15-a8c2-b32cc6b3a700" d="M174.87,285.91l.21-3.55-.21-3.2h1.62l-.2,3.2.2,3.55h-1.62Z"/>
      </g>
      <path class="uuid-fdb31ddb-4609-4ca8-9058-a2dca6b62b1b" d="M169.04,297.2l.35-5.14-1.24.47v-.72l1.56-1.37h.73l.19,6.75h-1.59Z"/>
      <path class="uuid-dd640cc2-9f22-4c9b-bb9f-a8d5efe263c8" d="M180.23,297.2v-.09l2.11-2.94c.35-.48.58-.84.71-1.09.12-.25.19-.5.19-.74,0-.28-.09-.49-.27-.63s-.41-.22-.7-.22c-.43,0-.88.19-1.35.58h-.09l.16-1.39c.16-.08.38-.16.66-.22.28-.06.55-.09.8-.09.33,0,.63.05.9.15.26.1.48.23.64.4.16.17.29.36.37.57.08.21.13.44.13.68,0,.42-.08.81-.25,1.18-.17.37-.45.81-.86,1.31l-1.36,1.68,2.83-.59h.09l-.2,1.46h-4.5Z"/>
      <path class="uuid-dd640cc2-9f22-4c9b-bb9f-a8d5efe263c8" d="M195.28,297.29c-.49,0-.97-.09-1.44-.27l-.18-1.36h.09c.39.23.71.39.95.49.24.1.49.15.73.15.33,0,.59-.1.79-.3.19-.2.29-.47.29-.8,0-.36-.13-.63-.39-.83s-.61-.29-1.05-.29c-.2,0-.39.02-.58.07v-.24l1.26-2.48-2.17.33h-.09l.18-1.3h4.07v.09l-1.93,2.65c.66.04,1.16.24,1.48.59.32.36.49.81.49,1.36,0,.2-.02.39-.07.58-.05.19-.13.38-.25.57-.12.19-.27.36-.46.51-.18.15-.42.26-.71.35-.29.09-.62.14-.99.14Z"/>
      <path class="uuid-dd640cc2-9f22-4c9b-bb9f-a8d5efe263c8" d="M211.63,295.36h-1.58l.13,1.85h-1.45l.13-1.85h-3.17v-.46l4.29-4.54h.29l-.24,3.99h1.61v1ZM208.87,294.36l-.07-1.54-1.49,1.54h1.56Z"/>
      <path class="uuid-dd640cc2-9f22-4c9b-bb9f-a8d5efe263c8" d="M221.32,297.29c-.51,0-1.02-.09-1.53-.29l-.18-1.37h.09c.4.24.73.41.99.51.26.1.49.15.7.15.33,0,.58-.1.75-.3.18-.2.26-.46.26-.79,0-.3-.11-.54-.32-.72-.22-.18-.5-.27-.86-.27-.31,0-.66.09-1.04.28h-.13l-.27-4.05h3.57l.18,1.3h-.09l-2.37-.36-.14,1.9c.26-.08.48-.12.65-.12.62,0,1.12.18,1.49.54.38.36.57.82.57,1.39,0,.22-.03.43-.08.63s-.13.4-.25.59c-.12.19-.26.36-.44.5-.18.14-.4.26-.67.34-.27.09-.58.13-.91.13Z"/>
      <rect class="uuid-b0a9853d-6a4b-46d4-aa49-f7b1a4b92f5c" x="234.66" y="275.16" width="52" height="26"/>
      <g>
        <path class="uuid-eeef2dc8-fc8e-4b15-a8c2-b32cc6b3a700" d="M240.22,285.91l.21-3.55-.21-3.2h1.62l-.2,3.2.2,3.55h-1.62Z"/>
        <path class="uuid-eeef2dc8-fc8e-4b15-a8c2-b32cc6b3a700" d="M246.23,286h-.79l-2.8-6.75v-.09h1.67l1.69,5.29,1.69-5.29h1.51v.09l-2.98,6.75Z"/>
      </g>
      <path class="uuid-fdb31ddb-4609-4ca8-9058-a2dca6b62b1b" d="M240.54,297.2l.35-5.14-1.24.47v-.72l1.56-1.37h.73l.19,6.75h-1.59Z"/>
      <path class="uuid-dd640cc2-9f22-4c9b-bb9f-a8d5efe263c8" d="M251.73,297.2v-.09l2.11-2.94c.35-.48.58-.84.71-1.09.12-.25.19-.5.19-.74,0-.28-.09-.49-.27-.63s-.41-.22-.7-.22c-.43,0-.88.19-1.35.58h-.09l.16-1.39c.16-.08.38-.16.66-.22.28-.06.55-.09.8-.09.33,0,.63.05.9.15.26.1.48.23.64.4.16.17.29.36.37.57.08.21.13.44.13.68,0,.42-.08.81-.25,1.18-.17.37-.45.81-.86,1.31l-1.36,1.68,2.83-.59h.09l-.2,1.46h-4.5Z"/>
      <path class="uuid-dd640cc2-9f22-4c9b-bb9f-a8d5efe263c8" d="M266.78,297.29c-.49,0-.97-.09-1.44-.27l-.18-1.36h.09c.39.23.71.39.95.49.24.1.49.15.73.15.33,0,.59-.1.79-.3.19-.2.29-.47.29-.8,0-.36-.13-.63-.39-.83s-.61-.29-1.05-.29c-.2,0-.39.02-.58.07v-.24l1.26-2.48-2.17.33h-.09l.18-1.3h4.07v.09l-1.93,2.65c.66.04,1.16.24,1.48.59.32.36.49.81.49,1.36,0,.2-.02.39-.07.58-.05.19-.13.38-.25.57-.12.19-.27.36-.46.51-.18.15-.42.26-.71.35-.29.09-.62.14-.99.14Z"/>
      <path class="uuid-dd640cc2-9f22-4c9b-bb9f-a8d5efe263c8" d="M283.13,295.36h-1.58l.13,1.85h-1.45l.13-1.85h-3.17v-.46l4.29-4.54h.29l-.24,3.99h1.61v1ZM280.37,294.36l-.07-1.54-1.49,1.54h1.56Z"/>
      <rect class="uuid-b0a9853d-6a4b-46d4-aa49-f7b1a4b92f5c" x="293.16" y="275.16" width="39" height="26"/>
      <path class="uuid-eeef2dc8-fc8e-4b15-a8c2-b32cc6b3a700" d="M301.66,286h-.79l-2.8-6.75v-.09h1.67l1.69,5.29,1.69-5.29h1.51v.09l-2.98,6.75Z"/>
      <path class="uuid-fdb31ddb-4609-4ca8-9058-a2dca6b62b1b" d="M299.04,297.2l.35-5.14-1.24.47v-.72l1.56-1.37h.73l.19,6.75h-1.59Z"/>
      <path class="uuid-dd640cc2-9f22-4c9b-bb9f-a8d5efe263c8" d="M310.23,297.2v-.09l2.11-2.94c.35-.48.58-.84.71-1.09.12-.25.19-.5.19-.74,0-.28-.09-.49-.27-.63s-.41-.22-.7-.22c-.43,0-.88.19-1.35.58h-.09l.16-1.39c.16-.08.38-.16.66-.22.28-.06.55-.09.8-.09.33,0,.63.05.9.15.26.1.48.23.64.4.16.17.29.36.37.57.08.21.13.44.13.68,0,.42-.08.81-.25,1.18-.17.37-.45.81-.86,1.31l-1.36,1.68,2.83-.59h.09l-.2,1.46h-4.5Z"/>
      <path class="uuid-dd640cc2-9f22-4c9b-bb9f-a8d5efe263c8" d="M325.28,297.29c-.49,0-.97-.09-1.44-.27l-.18-1.36h.09c.39.23.71.39.95.49.24.1.49.15.73.15.33,0,.59-.1.79-.3.19-.2.29-.47.29-.8,0-.36-.13-.63-.39-.83s-.61-.29-1.05-.29c-.2,0-.39.02-.58.07v-.24l1.26-2.48-2.17.33h-.09l.18-1.3h4.07v.09l-1.93,2.65c.66.04,1.16.24,1.48.59.32.36.49.81.49,1.36,0,.2-.02.39-.07.58-.05.19-.13.38-.25.57-.12.19-.27.36-.46.51-.18.15-.42.26-.71.35-.29.09-.62.14-.99.14Z"/>
      <rect class="uuid-b0a9853d-6a4b-46d4-aa49-f7b1a4b92f5c" x="33.16" y="275.16" width="52" height="26"/>
      <path class="uuid-eeef2dc8-fc8e-4b15-a8c2-b32cc6b3a700" d="M38.72,285.91l.21-3.55-.21-3.2h1.62l-.2,3.2.2,3.55h-1.62Z"/>
      <path class="uuid-fdb31ddb-4609-4ca8-9058-a2dca6b62b1b" d="M39.04,297.2l.35-5.14-1.24.47v-.72l1.56-1.37h.73l.19,6.75h-1.59Z"/>
      <path class="uuid-dd640cc2-9f22-4c9b-bb9f-a8d5efe263c8" d="M50.23,297.2v-.09l2.11-2.94c.35-.48.58-.84.71-1.09.12-.25.19-.5.19-.74,0-.28-.09-.49-.27-.63s-.41-.22-.7-.22c-.43,0-.88.19-1.35.58h-.09l.16-1.39c.16-.08.38-.16.66-.22.28-.06.55-.09.8-.09.33,0,.63.05.9.15.26.1.48.23.64.4.16.17.29.36.37.57.08.21.13.44.13.68,0,.42-.08.81-.25,1.18-.17.37-.45.81-.86,1.31l-1.36,1.68,2.83-.59h.09l-.2,1.46h-4.5Z"/>
      <path class="uuid-dd640cc2-9f22-4c9b-bb9f-a8d5efe263c8" d="M65.28,297.29c-.49,0-.97-.09-1.44-.27l-.18-1.36h.09c.39.23.71.39.95.49.24.1.49.15.73.15.33,0,.59-.1.79-.3.19-.2.29-.47.29-.8,0-.36-.13-.63-.39-.83s-.61-.29-1.05-.29c-.2,0-.39.02-.58.07v-.24l1.26-2.48-2.17.33h-.09l.18-1.3h4.07v.09l-1.93,2.65c.66.04,1.16.24,1.48.59.32.36.49.81.49,1.36,0,.2-.02.39-.07.58-.05.19-.13.38-.25.57-.12.19-.27.36-.46.51-.18.15-.42.26-.71.35-.29.09-.62.14-.99.14Z"/>
      <path class="uuid-dd640cc2-9f22-4c9b-bb9f-a8d5efe263c8" d="M81.63,295.36h-1.58l.13,1.85h-1.45l.13-1.85h-3.17v-.46l4.29-4.54h.29l-.24,3.99h1.61v1ZM78.87,294.36l-.07-1.54-1.49,1.54h1.56Z"/>
      <path class="uuid-dd640cc2-9f22-4c9b-bb9f-a8d5efe263c8" d="M60.78,310.91c0-3.87,2.01-5.89,4.87-5.89,2.87,0,4.87,2.02,4.87,5.89,0,3.87-2.01,5.89-4.87,5.89-2.87,0-4.87-2.02-4.87-5.89Z"/>
      <path class="uuid-dd640cc2-9f22-4c9b-bb9f-a8d5efe263c8" d="M119.28,310.91c0-3.87,2.01-5.89,4.87-5.89,2.87,0,4.87,2.02,4.87,5.89,0,3.87-2.01,5.89-4.87,5.89-2.87,0-4.87-2.02-4.87-5.89Z"/>
      <path class="uuid-dd640cc2-9f22-4c9b-bb9f-a8d5efe263c8" d="M132.28,310.91c0-3.87,2.01-5.89,4.87-5.89,2.87,0,4.87,2.02,4.87,5.89,0,3.87-2.01,5.89-4.87,5.89-2.87,0-4.87-2.02-4.87-5.89Z"/>
      <path class="uuid-dd640cc2-9f22-4c9b-bb9f-a8d5efe263c8" d="M236.28,310.91c0-3.87,2.01-5.89,4.87-5.89,2.87,0,4.87,2.02,4.87,5.89,0,3.87-2.01,5.89-4.87,5.89-2.87,0-4.87-2.02-4.87-5.89Z"/>
      <path class="uuid-dd640cc2-9f22-4c9b-bb9f-a8d5efe263c8" d="M190.78,310.91c0-3.87,2.01-5.89,4.87-5.89,2.87,0,4.87,2.02,4.87,5.89,0,3.87-2.01,5.89-4.87,5.89-2.87,0-4.87-2.02-4.87-5.89Z"/>
      <rect class="uuid-dd640cc2-9f22-4c9b-bb9f-a8d5efe263c8" x="47.17" y="306.6" width="10.97" height="8.61" transform="translate(363.56 258.25) rotate(90)"/>
      <rect class="uuid-dd640cc2-9f22-4c9b-bb9f-a8d5efe263c8" x="73.17" y="306.6" width="10.97" height="8.61" transform="translate(389.56 232.25) rotate(90)"/>
      <rect class="uuid-dd640cc2-9f22-4c9b-bb9f-a8d5efe263c8" x="105.67" y="306.6" width="10.97" height="8.61" transform="translate(422.06 199.75) rotate(90)"/>
      <rect class="uuid-dd640cc2-9f22-4c9b-bb9f-a8d5efe263c8" x="164.17" y="306.6" width="10.97" height="8.61" transform="translate(480.56 141.25) rotate(90)"/>
      <rect class="uuid-dd640cc2-9f22-4c9b-bb9f-a8d5efe263c8" x="177.17" y="306.6" width="10.97" height="8.61" transform="translate(493.56 128.25) rotate(90)"/>
      <path class="uuid-dd640cc2-9f22-4c9b-bb9f-a8d5efe263c8" d="M320.79,310.91c0-3.87,2.01-5.89,4.87-5.89,2.87,0,4.87,2.02,4.87,5.89,0,3.87-2.01,5.89-4.87,5.89-2.87,0-4.87-2.02-4.87-5.89Z"/>
      <rect class="uuid-dd640cc2-9f22-4c9b-bb9f-a8d5efe263c8" x="294.18" y="306.6" width="10.97" height="8.61" transform="translate(610.57 11.24) rotate(90)"/>
      <rect class="uuid-dd640cc2-9f22-4c9b-bb9f-a8d5efe263c8" x="307.18" y="306.6" width="10.97" height="8.61" transform="translate(623.57 -1.76) rotate(90)"/>
      <path class="uuid-dd640cc2-9f22-4c9b-bb9f-a8d5efe263c8" d="M216.78,310.91c0-3.87,2.01-5.89,4.87-5.89,2.87,0,4.87,2.02,4.87,5.89,0,3.87-2.01,5.89-4.87,5.89-2.87,0-4.87-2.02-4.87-5.89Z"/>
      <rect class="uuid-dd640cc2-9f22-4c9b-bb9f-a8d5efe263c8" x="203.17" y="306.6" width="10.97" height="8.61" transform="translate(519.56 102.25) rotate(90)"/>
      <rect class="uuid-dd640cc2-9f22-4c9b-bb9f-a8d5efe263c8" x="144.67" y="306.6" width="10.97" height="8.61" transform="translate(461.06 160.75) rotate(90)"/>
      <rect class="uuid-dd640cc2-9f22-4c9b-bb9f-a8d5efe263c8" x="92.67" y="306.6" width="10.97" height="8.61" transform="translate(409.06 212.75) rotate(90)"/>
      <path class="uuid-dd640cc2-9f22-4c9b-bb9f-a8d5efe263c8" d="M36.02,310.91c0-2.03-.43-3.96-1.25-5.87,1.66,1,3.24,1.37,4.89,1.37,1.64,0,3.23-.37,4.89-1.37-.82,1.91-1.25,3.85-1.25,5.87,0,2.03.43,3.96,1.25,5.87-1.66-1-3.24-1.37-4.89-1.37-1.64,0-3.23.37-4.89,1.37.82-1.91,1.25-3.85,1.25-5.87Z"/>
      <path class="uuid-dd640cc2-9f22-4c9b-bb9f-a8d5efe263c8" d="M250.52,310.91c0-2.03-.43-3.96-1.25-5.87,1.66,1,3.24,1.37,4.89,1.37,1.64,0,3.23-.37,4.89-1.37-.82,1.91-1.25,3.85-1.25,5.87,0,2.03.43,3.96,1.25,5.87-1.66-1-3.24-1.37-4.89-1.37-1.64,0-3.23.37-4.89,1.37.82-1.91,1.25-3.85,1.25-5.87Z"/>
      <path class="uuid-dd640cc2-9f22-4c9b-bb9f-a8d5efe263c8" d="M262.27,310.91c0-3.87,2.01-5.89,4.87-5.89,2.87,0,4.87,2.02,4.87,5.89,0,3.87-2.01,5.89-4.87,5.89-2.87,0-4.87-2.02-4.87-5.89Z"/>
      <path class="uuid-dd640cc2-9f22-4c9b-bb9f-a8d5efe263c8" d="M276.51,310.91c0-2.03-.43-3.96-1.25-5.87,1.66,1,3.24,1.37,4.89,1.37,1.64,0,3.23-.37,4.89-1.37-.82,1.91-1.25,3.85-1.25,5.87,0,2.03.43,3.96,1.25,5.87-1.66-1-3.24-1.37-4.89-1.37-1.64,0-3.23.37-4.89,1.37.82-1.91,1.25-3.85,1.25-5.87Z"/>
      <path class="uuid-dd640cc2-9f22-4c9b-bb9f-a8d5efe263c8" d="M53.2,328.99h-1.09c-.26-2.79-1.93-4.3-5.32-4.3h-5.01c-4.09,0-6.44-1.54-6.44-5.58h1.15c0,3.31,1.9,4.28,5.29,4.28h5.01c3.55,0,5.19,1.36,5.87,3.7.68-2.35,2.32-3.7,5.87-3.7h5.01c3.39,0,5.29-.96,5.29-4.28h1.15c0,4.04-2.35,5.58-6.44,5.58h-5.01c-3.39,0-5.06,1.51-5.32,4.3Z"/>
      <path class="uuid-dd640cc2-9f22-4c9b-bb9f-a8d5efe263c8" d="M137.7,328.99h-1.09c-.26-2.79-1.93-4.3-5.32-4.3h-5.01c-4.09,0-6.44-1.54-6.44-5.58h1.15c0,3.31,1.9,4.28,5.29,4.28h5.01c3.55,0,5.19,1.36,5.87,3.7.68-2.35,2.32-3.7,5.87-3.7h5.01c3.39,0,5.29-.96,5.29-4.28h1.15c0,4.04-2.35,5.58-6.44,5.58h-5.01c-3.39,0-5.06,1.51-5.32,4.3Z"/>
      <path class="uuid-dd640cc2-9f22-4c9b-bb9f-a8d5efe263c8" d="M183.2,328.99h-1.09c-.26-2.79-1.93-4.3-5.32-4.3h-5.01c-4.09,0-6.44-1.54-6.44-5.58h1.15c0,3.31,1.9,4.28,5.29,4.28h5.01c3.55,0,5.19,1.36,5.87,3.7.68-2.35,2.32-3.7,5.87-3.7h5.01c3.39,0,5.29-.96,5.29-4.28h1.15c0,4.04-2.35,5.58-6.44,5.58h-5.01c-3.39,0-5.06,1.51-5.32,4.3Z"/>
      <path class="uuid-dd640cc2-9f22-4c9b-bb9f-a8d5efe263c8" d="M267.7,328.99h-1.09c-.26-2.79-1.93-4.3-5.32-4.3h-5.01c-4.09,0-6.44-1.54-6.44-5.58h1.15c0,3.31,1.9,4.28,5.29,4.28h5.01c3.55,0,5.19,1.36,5.87,3.7.68-2.35,2.32-3.7,5.87-3.7h5.01c3.39,0,5.29-.96,5.29-4.28h1.15c0,4.04-2.35,5.58-6.44,5.58h-5.01c-3.39,0-5.06,1.51-5.32,4.3Z"/>
      <path class="uuid-dd640cc2-9f22-4c9b-bb9f-a8d5efe263c8" d="M313.51,328.99h-1.09c-.26-2.79-1.93-4.3-5.32-4.3h-5.3c-4.09,0-6.44-1.54-6.44-5.58h1.15c0,3.31,1.9,4.28,5.29,4.28h5.01c3.55,0,5.48,1.36,6.16,3.7.68-2.35,2.03-3.7,5.57-3.7h5.01c3.39,0,5.29-.96,5.29-4.28h1.15c0,4.04-2.35,5.58-6.44,5.58h-4.71c-3.39,0-5.06,1.51-5.32,4.3Z"/>
      <path class="uuid-dd640cc2-9f22-4c9b-bb9f-a8d5efe263c8" d="M95.47,328.99h-1.09c-.26-2.79-1.93-4.3-5.32-4.3h-8.24c-4.09,0-6.44-1.54-6.44-5.58h1.15c0,3.31,1.9,4.28,5.29,4.28h8.24c3.55,0,5.19,1.36,5.87,3.7.68-2.35,2.32-3.7,5.87-3.7h8.24c3.39,0,5.29-.96,5.29-4.28h1.15c0,4.04-2.35,5.58-6.44,5.58h-8.24c-3.39,0-5.06,1.51-5.32,4.3Z"/>
      <path class="uuid-dd640cc2-9f22-4c9b-bb9f-a8d5efe263c8" d="M225.44,328.99h-1.09c-.26-2.79-1.93-4.3-5.32-4.3h-8.24c-4.09,0-6.44-1.54-6.44-5.58h1.15c0,3.31,1.9,4.28,5.29,4.28h8.24c3.55,0,5.19,1.36,5.87,3.7.68-2.35,2.32-3.7,5.87-3.7h8.24c3.39,0,5.29-.96,5.29-4.28h1.15c0,4.04-2.35,5.58-6.44,5.58h-8.24c-3.39,0-5.06,1.51-5.32,4.3Z"/>
      <path class="uuid-dd640cc2-9f22-4c9b-bb9f-a8d5efe263c8" d="M49.65,344.35l.23-6.3-.23-5.7h1.93l-.27,10.99,5.13-1.01h.03l-.32,2.02h-6.51Z"/>
      <path class="uuid-dd640cc2-9f22-4c9b-bb9f-a8d5efe263c8" d="M93.96,344.35l.23-6.3-.23-5.7h1.93l-.23,5.7.23,6.3h-1.93Z"/>
      <path class="uuid-dd640cc2-9f22-4c9b-bb9f-a8d5efe263c8" d="M141.09,344.35l-7.45-8.91.41,8.91h-1.86l.41-12h.5l7.48,9.01-.32-9.01h1.86l-.55,12h-.49Z"/>
      <path class="uuid-dd640cc2-9f22-4c9b-bb9f-a8d5efe263c8" d="M179.63,344.35l.23-6.3-.23-5.7h6.22l.32,1.66h-.03l-4.62-.67-.17,4.2,4.23-.15-.16,1.49-4.08-.47.19,4.99,4.77-.9h.03l-.34,1.84h-6.37Z"/>
      <path class="uuid-dd640cc2-9f22-4c9b-bb9f-a8d5efe263c8" d="M228.49,344.35l-1.3-3.48h-4.58l-1.25,3.48h-2.05v-.03l5.46-12.37h.55l5.14,12.37v.03h-1.98ZM226.79,339.79l-1.92-5.21-1.88,5.21h3.8Z"/>
      <path class="uuid-dd640cc2-9f22-4c9b-bb9f-a8d5efe263c8" d="M268.43,332.2c1.27,0,2.45.18,3.52.55l.32,2.27h-.03c-.59-.42-1.19-.73-1.81-.94s-1.39-.31-2.32-.31c-.39,0-.78.04-1.18.13s-.79.24-1.19.46-.75.48-1.06.8-.56.73-.75,1.23-.29,1.07-.29,1.7c0,1.53.44,2.75,1.33,3.67s2.09,1.38,3.6,1.38c.34,0,.72-.05,1.13-.14s.77-.21,1.05-.35l-.27-4.15v-.03h2.06l-.29,4.82c-.41.32-.95.6-1.62.84s-1.44.37-2.28.37c-.73,0-1.42-.09-2.07-.26s-1.23-.43-1.76-.78-.98-.76-1.36-1.25-.67-1.07-.88-1.73-.31-1.39-.31-2.18c0-1.91.57-3.41,1.7-4.49s2.72-1.62,4.74-1.62Z"/>
      <path class="uuid-dd640cc2-9f22-4c9b-bb9f-a8d5efe263c8" d="M309.64,344.35l.23-6.3-.23-5.7h6.22l.32,1.66h-.03l-4.62-.67-.17,4.2,4.23-.15-.16,1.49-4.08-.47.19,4.99,4.77-.9h.03l-.34,1.84h-6.37Z"/>
    </g>
  </g>
</svg>