<?xml version="1.0" encoding="UTF-8"?>
<svg xmlns="http://www.w3.org/2000/svg" width="2.99in" height="4.12in" viewBox="0 0 215.15 296.78">
  <defs>
    <style>
      .uuid-53f4e402-31f5-460d-b440-6f9fc2044d0d {
        stroke: #332019;
      }

      .uuid-53f4e402-31f5-460d-b440-6f9fc2044d0d, .uuid-06ece5da-e190-41b7-84cf-c24121ec4f51 {
        fill: none;
        stroke-width: 2px;
      }

      .uuid-06ece5da-e190-41b7-84cf-c24121ec4f51 {
        stroke: #bb4121;
      }

      .uuid-86f1c12f-9f14-42f7-8805-7b4099bd63c6 {
        fill: #fff;
      }

      .uuid-8aeae66f-16be-4dfb-9283-5748c8c9ea2c {
        fill: #bac1ca;
      }

      .uuid-4dd47ed2-9e32-4407-a652-9f13a00adca3 {
        fill: #ffe500;
      }

      .uuid-abcf157c-0c36-4ebd-87e5-7e0152ed231a {
        fill: #332019;
      }

      .uuid-e03120d8-17b6-4a89-b56f-8c735cd94758 {
        fill: #cbd0d7;
      }

      .uuid-0997f0b9-c4e1-4430-a52b-80e2b914778a {
        fill: #bb4121;
      }

      .uuid-eeab2087-11c9-40e4-b5ea-23cd2bb84cbf {
        fill: #9ab4c2;
      }
    </style>
  </defs>
  <g id="uuid-5cd9dfa4-16dd-4859-a611-ac32ebf26e86" data-name="approaches">
    <polygon class="uuid-4dd47ed2-9e32-4407-a652-9f13a00adca3" points="156.5 177.58 157.75 172.68 157.43 177.73 160.13 173.45 158.26 178.15 162.16 174.92 158.93 178.82 163.63 176.95 159.35 179.65 164.4 179.33 159.5 180.58 164.4 181.83 159.35 181.51 163.63 184.21 158.93 182.34 162.16 186.24 158.26 183.01 160.13 187.71 157.43 183.43 157.75 188.48 156.5 183.58 155.25 188.48 155.57 183.43 152.87 187.71 154.74 183.01 150.84 186.24 154.07 182.34 149.37 184.21 153.65 181.51 148.6 181.83 153.5 180.58 148.6 179.33 153.65 179.65 149.37 176.95 154.07 178.82 150.84 174.92 154.74 178.15 152.87 173.45 155.57 177.73 155.25 172.68 156.5 177.58"/>
    <polygon class="uuid-4dd47ed2-9e32-4407-a652-9f13a00adca3" points="122.3 99.48 123.55 94.58 123.23 99.63 125.93 95.35 124.06 100.06 127.95 96.83 124.73 100.72 129.43 98.85 125.15 101.56 130.2 101.23 125.3 102.48 130.2 103.73 125.15 103.41 129.43 106.11 124.73 104.25 127.95 108.14 124.06 104.91 125.93 109.61 123.23 105.34 123.55 110.38 122.3 105.48 121.05 110.38 121.37 105.34 118.67 109.61 120.53 104.91 116.64 108.14 119.87 104.25 115.17 106.11 119.44 103.41 114.4 103.73 119.3 102.48 114.4 101.23 119.44 101.56 115.17 98.85 119.87 100.72 116.64 96.83 120.53 100.06 118.67 95.35 121.37 99.63 121.05 94.58 122.3 99.48"/>
    <polygon class="uuid-4dd47ed2-9e32-4407-a652-9f13a00adca3" points="109.59 88.36 110.84 83.46 110.51 88.51 113.22 84.24 111.35 88.94 115.24 85.71 112.01 89.6 116.71 87.73 112.44 90.44 117.49 90.11 112.59 91.36 117.49 92.61 112.44 92.29 116.71 95 112.01 93.13 115.24 97.02 111.35 93.79 113.22 98.49 110.51 94.22 110.84 99.26 109.59 94.36 108.33 99.26 108.66 94.22 105.95 98.49 107.82 93.79 103.93 97.02 107.16 93.13 102.46 95 106.73 92.29 101.68 92.61 106.59 91.36 101.68 90.11 106.73 90.44 102.46 87.73 107.16 89.6 103.93 85.71 107.82 88.94 105.95 84.24 108.66 88.51 108.33 83.46 109.59 88.36"/>
    <polygon class="uuid-4dd47ed2-9e32-4407-a652-9f13a00adca3" points="117.11 74.69 118.36 69.79 118.04 74.84 120.75 70.56 118.88 75.26 122.77 72.03 119.54 75.93 124.24 74.06 119.97 76.76 125.01 76.44 120.11 77.69 125.01 78.94 119.97 78.62 124.24 81.32 119.54 79.45 122.77 83.35 118.88 80.12 120.75 84.82 118.04 80.54 118.36 85.59 117.11 80.69 115.86 85.59 116.19 80.54 113.48 84.82 115.35 80.12 111.46 83.35 114.69 79.45 109.99 81.32 114.26 78.62 109.21 78.94 114.11 77.69 109.21 76.44 114.26 76.76 109.99 74.06 114.69 75.93 111.46 72.03 115.35 75.26 113.48 70.56 116.19 74.84 115.86 69.79 117.11 74.69"/>
    <polygon class="uuid-4dd47ed2-9e32-4407-a652-9f13a00adca3" points="133.66 75.59 134.91 70.69 134.59 75.73 137.3 71.46 135.43 76.16 139.32 72.93 136.09 76.82 140.79 74.95 136.52 77.66 141.56 77.34 136.66 78.59 141.56 79.84 136.52 79.51 140.79 82.22 136.09 80.35 139.32 84.24 135.43 81.01 137.3 85.71 134.59 81.44 134.91 86.49 133.66 81.59 132.41 86.49 132.74 81.44 130.03 85.71 131.9 81.01 128.01 84.24 131.24 80.35 126.54 82.22 130.81 79.51 125.76 79.84 130.66 78.59 125.76 77.34 130.81 77.66 126.54 74.95 131.24 76.82 128.01 72.93 131.9 76.16 130.03 71.46 132.74 75.73 132.41 70.69 133.66 75.59"/>
    <polygon class="uuid-4dd47ed2-9e32-4407-a652-9f13a00adca3" points="135.84 92.26 137.1 87.36 136.77 92.41 139.48 88.14 137.61 92.84 141.5 89.61 138.27 93.5 142.97 91.63 138.7 94.34 143.75 94.01 138.84 95.26 143.75 96.52 138.7 96.19 142.97 98.9 138.27 97.03 141.5 100.92 137.61 97.69 139.48 102.39 136.77 98.12 137.1 103.17 135.84 98.26 134.59 103.17 134.92 98.12 132.21 102.39 134.08 97.69 130.19 100.92 133.42 97.03 128.72 98.9 132.99 96.19 127.94 96.52 132.84 95.26 127.94 94.01 132.99 94.34 128.72 91.63 133.42 93.5 130.19 89.61 134.08 92.84 132.21 88.14 134.92 92.41 134.59 87.36 135.84 92.26"/>
  </g>
  <g id="uuid-cec5b4ae-30dc-4ff0-8716-4ac2b027df8c" data-name="baseline">
    <rect class="uuid-8aeae66f-16be-4dfb-9283-5748c8c9ea2c" x="33.15" y="184.6" width="182" height="16"/>
  </g>
  <g id="uuid-e2c629d5-f3b4-455f-8d81-ec7998ae223d" data-name="shapes">
    <polygon class="uuid-eeab2087-11c9-40e4-b5ea-23cd2bb84cbf" points="58.24 29.48 56.2 33.91 54.4 38.68 52.44 43.38 50.26 47.99 48.46 52.76 46.9 57.62 44.52 62.16 42.6 66.88 40.66 71.59 39.08 76.44 36.73 80.99 35.1 85.81 40.1 86.04 45.11 85.87 50.12 86.09 55.13 85.68 60.15 85.95 65.16 85.72 70.17 85.49 75.18 85.89 80.19 85.62 85.21 85.4 90.22 85.41 95.23 85.81 100.24 85.29 105.26 85.28 110.27 85.41 115.31 85.82 115.34 85.2 112.14 81.34 108.18 78.24 104.52 74.83 101.36 70.9 97.59 67.6 93.82 64.3 90.65 60.39 86.77 57.21 83.29 53.62 79.84 49.98 76.12 46.63 72.63 43.05 68.98 39.63 65.11 36.43 61.83 32.63 58.24 29.48"/>
    <polygon class="uuid-eeab2087-11c9-40e4-b5ea-23cd2bb84cbf" points="158.23 4.8 153.36 2.94 148.16 2.89 143.32 4.6 139.06 7.62 136.09 11.96 134.13 16.81 132.13 21.62 130.57 26.54 128.91 21.98 127.39 17.29 125.01 12.96 122.54 8.72 119.42 4.97 115.47 2.17 110.77 1.02 105.98 1.97 101.69 4.66 98.31 8.51 97.01 13.52 97.31 18.64 97.51 23.8 98.88 28.77 100.66 33.61 103.04 38.23 104.86 43.1 107.34 47.67 110.06 52.09 112.55 56.63 114.59 61.43 117.74 65.61 119.9 70.34 122.54 74.81 125.1 79.36 125.76 79.26 129.72 76.04 133.14 72.21 136.75 68.57 139.95 64.55 143.13 60.54 146.61 56.74 149.35 52.38 151.94 47.96 154.6 43.58 157.08 39.1 159.62 35 161.49 30.56 162.78 25.93 164.08 21.33 165.06 16.58 164.3 11.78 162.09 7.53 158.23 4.8"/>
    <polygon class="uuid-eeab2087-11c9-40e4-b5ea-23cd2bb84cbf" points="195.2 43.85 192.07 45.96 187.27 48.78 181.56 52.74 176.83 56.21 172.83 59.18 169.04 62.34 164.96 65.1 160.88 67.86 156.97 70.84 152.74 73.38 148.77 76.29 144.93 79.4 140.6 81.79 136.68 84.78 132.86 87.85 132.82 87.86 137.65 89.55 142.62 90.85 147.43 92.66 152.49 93.65 157.33 95.36 162.26 96.81 167.17 98.28 172.15 99.52 177.11 100.87 182.04 102.28 186.89 103.99 191.8 105.46 196.58 106.63 201.25 107.87 206.18 109.09 208.42 104.66 210.3 99.84 212.33 95.13 213.2 90.12 213.28 84.91 213.37 79.71 212.9 74.67 212.17 69.62 210.61 64.61 208.46 59.76 205.64 55.27 202.09 51.28 198.65 47.41 195.2 43.85"/>
    <polygon class="uuid-eeab2087-11c9-40e4-b5ea-23cd2bb84cbf" points="127.78 97.31 128.71 96.84 132.35 100.68 135.86 104.65 139.72 108.27 144.33 110.89 148.85 113.69 154.05 114.8 158.62 116.75 163.42 117.96 167.81 120.24 172.26 122.35 176.25 125.2 180.07 128.27 183.04 132.17 185.94 136.2 187.14 140.93 188.02 145.75 187.34 150.68 186.85 155.53 184.75 159.91 182.2 164.17 178.6 167.61 174.52 170.45 170.14 172.56 165.88 174.56 161.45 176.05 156.76 176.81 151.88 176.65 146.95 175.4 142.24 173.46 138.29 170.63 135.1 167.02 132.16 162.7 130.07 157.9 128.74 152.86 128.06 147.65 128.85 142.45 129.61 137.26 130.21 132.02 131.33 127.09 131.7 122.04 132.27 117 131.41 111.99 130.69 107.02 129.43 102.15 127.78 97.31"/>
    <polygon class="uuid-eeab2087-11c9-40e4-b5ea-23cd2bb84cbf" points="116.21 95.76 111.05 96.23 106.02 97.52 100.94 98.57 96.04 100.3 90.93 101.33 86.11 103.27 81.25 105.11 76.79 107.79 72 109.83 67.68 112.7 63.82 116.17 59.78 119.42 56.56 123.48 53.82 127.86 52.18 132.74 50.73 137.75 51.84 142.85 52.89 147.89 55.13 152.55 58.23 156.68 62.05 160.19 66.71 162.44 71.67 163.73 76.75 164.31 81.92 164.62 86.87 163.09 91.91 161.77 96.53 159.25 100.18 155.48 103.5 151.47 106.07 146.94 108.59 142.36 110.55 137.51 112.05 132.5 113.24 127.4 114.07 122.24 115.19 117.12 115.47 111.89 116.17 106.71 116.9 101.51 117.1 96.2 116.21 95.76"/>
  </g>
  <g id="uuid-08b8eaf0-12a8-4637-8a8a-4408d0958fd3" data-name="shape numbers">
    <path class="uuid-86f1c12f-9f14-42f7-8805-7b4099bd63c6" d="M156.54,159.33l.32-8.67-.32-7.83h2.65l-.32,7.83.32,8.67h-2.65Z"/>
    <g>
      <path class="uuid-86f1c12f-9f14-42f7-8805-7b4099bd63c6" d="M80.64,139.47l.32-8.67-.32-7.83h2.65l-.32,7.83.32,8.67h-2.65Z"/>
      <path class="uuid-86f1c12f-9f14-42f7-8805-7b4099bd63c6" d="M86.6,139.47l.32-8.67-.32-7.83h2.65l-.32,7.83.32,8.67h-2.65Z"/>
    </g>
    <g>
      <path class="uuid-86f1c12f-9f14-42f7-8805-7b4099bd63c6" d="M58.29,74.66l.32-8.67-.32-7.83h2.65l-.32,7.83.32,8.67h-2.65Z"/>
      <path class="uuid-86f1c12f-9f14-42f7-8805-7b4099bd63c6" d="M64.24,74.66l.32-8.67-.32-7.83h2.65l-.32,7.83.32,8.67h-2.65Z"/>
      <path class="uuid-86f1c12f-9f14-42f7-8805-7b4099bd63c6" d="M70.2,74.66l.32-8.67-.32-7.83h2.65l-.32,7.83.32,8.67h-2.65Z"/>
    </g>
    <g>
      <path class="uuid-86f1c12f-9f14-42f7-8805-7b4099bd63c6" d="M121.23,51.96l.32-8.67-.32-7.83h2.65l-.32,7.83.32,8.67h-2.65Z"/>
      <path class="uuid-86f1c12f-9f14-42f7-8805-7b4099bd63c6" d="M132.89,52.51h-.77l-6.82-17v-.04h2.73l4.76,13.37,4.6-13.37h2.81v.04l-7.3,17Z"/>
    </g>
    <path class="uuid-86f1c12f-9f14-42f7-8805-7b4099bd63c6" d="M171.01,91.63h-.77l-6.82-17v-.04h2.73l4.76,13.37,4.6-13.37h2.81v.04l-7.3,17Z"/>
  </g>
  <g id="uuid-76938580-0d1e-4fc4-ae71-48da41870b01" data-name="shape trace">
    <g>
      <path class="uuid-86f1c12f-9f14-42f7-8805-7b4099bd63c6" d="M33.15,192.27c22.25-.13,78.59-.45,100.06-.58,11.8.06,22.57.19,21.83-14.89,0-2.01,3-2.01,3,.01-.11,16.87-11.24,17.14-24.83,16.74-21.25-.12-78.11-.45-100.06-.58-.2,0-.36-.16-.36-.36,0-.2.16-.35.36-.36h0Z"/>
      <path class="uuid-86f1c12f-9f14-42f7-8805-7b4099bd63c6" d="M122.45,75.04c4.66-8.6-1.3-17.62-5.34-25.24-2.21-4-4.42-8.01-6.42-12.15-2.98-5.91-11.88-26.46-1.52-28.73,3.91-.75,7.11,2.67,8.86,5.61,2.56,3.82,3.29,8.54,5.87,12.27,2.37,3.52,7.59,4.19,11.11,2.19,1.67-1.06,2.77-3.03,3.73-5.03.92-2.04,2.02-4.18,3.11-6.16,1.19-2.08,1.95-4.41,3.84-6.04,4.6-4.22,11.3-1.1,11.65,4.99.57,7.23-3.11,13.95-6.59,19.9-3.6,5.94-7.6,11.39-11.14,17.32-3.42,5.37-7.47,11.6-6.83,18.01.42,4.15,2.82,7.95,5.72,11.24,1.27,1.46-.91,3.46-2.25,1.98-3.14-3.64-5.86-7.99-6.31-12.95-.63-7.37,3.64-13.86,7.46-19.72,3.55-5.81,7.73-11.4,11.29-17.16,3.36-5.65,6.86-11.76,6.45-18.43-.16-4.39-4.74-6.69-8.09-3.66-.75.65-1.37,1.48-1.85,2.4-1.01,2.02-2.2,4.04-3.25,6.04-1.66,3.09-2.8,6.79-5.95,8.81-3.26,1.87-7.58,1.79-10.79-.14-3.12-1.97-4.56-5.78-5.67-8.98-1.77-4.3-4.56-11.64-10.14-11.05-1.03.15-1.84.59-2.43,1.38-2.26,3.76-1.12,8.68-.12,12.74,2.43,8.77,6.85,16.85,11.13,24.85,2.15,4.03,4.38,8.07,5.86,12.46,1.59,4.38,1.55,9.45-.77,13.58-.09.17-.31.24-.48.15-.17-.09-.24-.3-.15-.48h0Z"/>
      <path class="uuid-86f1c12f-9f14-42f7-8805-7b4099bd63c6" d="M108.28,85.69c-6.26-2.72-12.91-4.49-19.69-5.31-6.77-.87-13.62-.79-20.46-.4-3.4.16-6.87.57-10.41.1-9.8-1.03-10.19-8.88-7.58-16.66,1.71-4.99,3.58-10.15,7.53-13.87,4.51-4.41,11.03-3.39,15.16.98,7.15,7.49,13.59,15.35,21.95,21.37,5.17,4.14,11.4,6.63,18.09,5.31,3.2-.54,6.29-1.76,9.18-3.34.73-.4,1.64-.13,2.04.6.4.73.12,1.65-.61,2.04-3.15,1.67-6.55,2.97-10.14,3.53-5.36.9-11.13-.13-15.77-3.04-4.41-2.84-8.51-6.18-12.24-9.83-4.97-4.84-9.41-10.17-14.03-15.11-5.44-5.64-11.66-3.58-15.36,2.74-1.72,2.83-3,6.04-4.1,9.18-.98,3.05-1.9,6.48-1.12,9.61,2.08,6.79,11.72,5.16,17.35,5.1,13.72-.73,27.89.53,40.5,6.35.18.08.26.29.18.47-.08.18-.29.26-.47.18h0Z"/>
      <path class="uuid-86f1c12f-9f14-42f7-8805-7b4099bd63c6" d="M117.12,101.83c-5.9,4.82-8.32,12.24-10.3,19.34-2.06,7.19-3.82,14.6-7.48,21.34-3.62,6.74-9.72,12.5-17.39,14.17-7.62,1.7-16.35-.94-20.94-7.49-7.46-10.65.83-23.86,10.18-30.1,6.22-4.42,13.24-7.44,20.1-10.58,6.01-2.88,14.48-5.34,16.4-12.41.85-3.24.26-6.87-.71-10.34-.22-.8.24-1.63,1.04-1.85.8-.23,1.64.25,1.85,1.05,1.01,3.84,1.67,7.92.57,11.89-1.95,7.11-9.34,10.34-15.54,12.87-4.26,1.89-8.61,3.74-12.78,5.75-6.56,3.2-13.12,7.03-17.56,12.9-4.33,5.52-6.35,13.7-2.03,19.77,4.06,5.98,12.13,8.5,19.08,7.01,7.26-1.5,13.07-6.89,16.6-13.27,3.64-6.47,5.49-13.81,7.65-20.99,2.08-7.17,4.73-14.79,10.8-19.61.34-.29.82.25.46.55h0Z"/>
      <path class="uuid-86f1c12f-9f14-42f7-8805-7b4099bd63c6" d="M156.21,176.97c-1.29-2.62-2.66-5.23-4.78-7.25-3.67-3.33-7.96-5.86-11.01-10.03-7.17-10.37-2.45-23.54-3.23-35.06-.57-5.66-1.72-11.46-5.34-15.9-3.68-4.34-9.36-5.74-14.97-5.68-.83,0-1.51-.66-1.51-1.49,0-.84.68-1.53,1.52-1.51,8.8-.01,16.82,3.82,20.04,12.5,1.49,3.88,2.1,7.91,2.39,11.92.62,11.52-4.53,24.03,2.15,34.47,2.72,3.96,7.07,6.73,10.6,10.1,2.15,2.14,3.54,4.91,4.78,7.61.08.18,0,.39-.17.47-.18.08-.39,0-.47-.17h0Z"/>
    </g>
  </g>
  <g id="uuid-d34ad818-07a8-41b8-a7e7-8e42adaaf2b3" data-name="start">
    <g>
      <polygon class="uuid-0997f0b9-c4e1-4430-a52b-80e2b914778a" points="0 200.6 4.63 192.6 0 184.6 28.52 184.6 33.15 192.6 28.52 200.6 0 200.6"/>
      <g>
        <path class="uuid-86f1c12f-9f14-42f7-8805-7b4099bd63c6" d="M7.18,191.39c0-.46.17-.82.51-1.1.34-.28.76-.42,1.25-.42s.95.1,1.29.29l.09,1.23h-.02c-.19-.18-.42-.33-.68-.43s-.5-.16-.74-.16c-.46,0-.68.18-.68.53,0,.22.16.46.47.72l.48.41c.32.27.55.53.7.78.14.25.22.51.22.8,0,.12-.01.25-.04.38-.03.13-.09.26-.17.41-.08.14-.19.27-.31.38-.13.11-.29.2-.5.27-.21.07-.45.11-.71.11s-.51-.04-.76-.12c-.25-.08-.44-.17-.57-.29l-.09-1.13h.02c.59.51,1.09.77,1.5.77.2,0,.35-.06.45-.19.11-.13.16-.29.16-.48,0-.17-.04-.33-.13-.47-.09-.15-.23-.3-.43-.46l-.62-.52c-.46-.39-.69-.82-.69-1.3Z"/>
        <path class="uuid-86f1c12f-9f14-42f7-8805-7b4099bd63c6" d="M13.81,195.26c-.12.09-.28.16-.47.22s-.37.09-.54.09c-.49,0-.85-.17-1.06-.5-.21-.34-.28-.82-.19-1.45l.4-2.88-.88-.05v-.11l1.84-1.89h.21l-.16,1.32,1.36-.15-.05,1.01-1.4-.08-.3,2.58c-.02.27-.04.51-.03.71,0,.21.06.38.16.5.1.13.26.19.48.19.2,0,.43-.07.7-.21h.02l-.09.68Z"/>
        <path class="uuid-86f1c12f-9f14-42f7-8805-7b4099bd63c6" d="M17.36,194.92c-.41.44-.78.66-1.11.66-.4,0-.73-.2-.99-.59-.26-.39-.4-.89-.4-1.49,0-.7.13-1.33.39-1.89.26-.55.62-.99,1.07-1.29.45-.31.96-.46,1.53-.46.3,0,.7.02,1.2.05l-.38,5.55h-1.07l.08-.89-.32.34ZM16.54,194.69c.17,0,.35-.08.54-.24.19-.16.42-.4.69-.72l.38-2.88c-.11-.03-.23-.04-.35-.04-.29,0-.57.08-.81.24-.25.16-.45.37-.61.62-.16.26-.28.54-.37.85s-.13.62-.13.94c0,.36.05.65.16.89s.27.35.5.35Z"/>
        <path class="uuid-86f1c12f-9f14-42f7-8805-7b4099bd63c6" d="M22.88,190.99c-.38,0-.8.19-1.26.58l-.29,3.9h-1.12l.53-4.21-.16-1.29h1.14l-.06.92c.73-.69,1.3-1.03,1.69-1.03.1,0,.19,0,.26.02l.09,1.29h-.02c-.23-.13-.5-.19-.81-.19Z"/>
        <path class="uuid-86f1c12f-9f14-42f7-8805-7b4099bd63c6" d="M26.89,195.26c-.12.09-.28.16-.47.22-.19.06-.37.09-.54.09-.49,0-.85-.17-1.06-.5-.21-.34-.28-.82-.19-1.45l.4-2.88-.88-.05v-.11l1.84-1.89h.21l-.16,1.32,1.36-.15-.05,1.01-1.4-.08-.3,2.58c-.03.27-.04.51-.03.71,0,.21.06.38.16.5.1.13.26.19.48.19.2,0,.43-.07.7-.21h.02l-.09.68Z"/>
      </g>
    </g>
  </g>
  <g id="uuid-d924aec0-200e-4b8d-87ae-93a24ba03203" data-name="entry points">
    <g>
      <circle class="uuid-0997f0b9-c4e1-4430-a52b-80e2b914778a" cx="116.83" cy="101.56" r="2.5"/>
      <path class="uuid-86f1c12f-9f14-42f7-8805-7b4099bd63c6" d="M116.83,99.56c1.1,0,2,.9,2,2s-.9,2-2,2-2-.9-2-2,.9-2,2-2M116.83,98.56c-1.65,0-3,1.35-3,3s1.35,3,3,3,3-1.35,3-3-1.35-3-3-3h0Z"/>
    </g>
    <g>
      <circle class="uuid-0997f0b9-c4e1-4430-a52b-80e2b914778a" cx="156.47" cy="176.8" r="2.5"/>
      <path class="uuid-86f1c12f-9f14-42f7-8805-7b4099bd63c6" d="M156.47,174.8c1.1,0,2,.9,2,2s-.9,2-2,2-2-.9-2-2,.9-2,2-2M156.47,173.8c-1.65,0-3,1.35-3,3s1.35,3,3,3,3-1.35,3-3-1.35-3-3-3h0Z"/>
    </g>
    <g>
      <circle class="uuid-0997f0b9-c4e1-4430-a52b-80e2b914778a" cx="108.57" cy="85.42" r="2.5"/>
      <path class="uuid-86f1c12f-9f14-42f7-8805-7b4099bd63c6" d="M108.57,83.42c1.1,0,2,.9,2,2s-.9,2-2,2-2-.9-2-2,.9-2,2-2M108.57,82.42c-1.65,0-3,1.35-3,3s1.35,3,3,3,3-1.35,3-3-1.35-3-3-3h0Z"/>
    </g>
    <g>
      <circle class="uuid-0997f0b9-c4e1-4430-a52b-80e2b914778a" cx="122.66" cy="75.16" r="2.5"/>
      <path class="uuid-86f1c12f-9f14-42f7-8805-7b4099bd63c6" d="M122.66,73.16c1.1,0,2,.9,2,2s-.9,2-2,2-2-.9-2-2,.9-2,2-2M122.66,72.16c-1.65,0-3,1.35-3,3s1.35,3,3,3,3-1.35,3-3-1.35-3-3-3h0Z"/>
    </g>
    <g>
      <circle class="uuid-0997f0b9-c4e1-4430-a52b-80e2b914778a" cx="137.43" cy="84.21" r="2.5"/>
      <path class="uuid-86f1c12f-9f14-42f7-8805-7b4099bd63c6" d="M137.43,82.21c1.1,0,2,.9,2,2s-.9,2-2,2-2-.9-2-2,.9-2,2-2M137.43,81.21c-1.65,0-3,1.35-3,3s1.35,3,3,3,3-1.35,3-3-1.35-3-3-3h0Z"/>
    </g>
  </g>
  <g id="uuid-de3c5b52-c400-4bfe-85d7-02079c2d30cb" data-name="sides">
    <g>
      <g>
        <polyline class="uuid-53f4e402-31f5-460d-b440-6f9fc2044d0d" points="64.12 35.28 65.11 36.43 68.98 39.63 72.63 43.05 76.12 46.63 79.84 49.98 83.29 53.62 86.77 57.21 90.65 60.39 93.82 64.3 97.59 67.6 101.36 70.9 102.19 71.93"/>
        <polygon class="uuid-abcf157c-0c36-4ebd-87e5-7e0152ed231a" points="99.34 73.17 104.96 75.24 103.94 69.34 99.34 73.17"/>
      </g>
      <g>
        <polyline class="uuid-53f4e402-31f5-460d-b440-6f9fc2044d0d" points="37.56 79.39 39.08 76.44 40.66 71.59 42.6 66.88 44.52 62.16 46.9 57.62 48.46 52.76 50.26 47.99 52.44 43.38 54.4 38.68 55.1 36.82"/>
        <polygon class="uuid-abcf157c-0c36-4ebd-87e5-7e0152ed231a" points="57.57 38.74 56.7 32.82 52.01 36.54 57.57 38.74"/>
      </g>
      <g>
        <polyline class="uuid-06ece5da-e190-41b7-84cf-c24121ec4f51" points="108.43 85.36 105.29 85.28 100.24 85.29 95.23 85.81 90.22 85.41 85.21 85.4 80.19 85.62 75.18 85.89 70.17 85.49 65.16 85.72 60.15 85.95 55.13 85.68 50.12 86.09 45.11 85.87 44.84 85.88"/>
        <polygon class="uuid-0997f0b9-c4e1-4430-a52b-80e2b914778a" points="45.63 82.89 40.54 86.02 45.8 88.87 45.63 82.89"/>
      </g>
      <g>
        <polyline class="uuid-53f4e402-31f5-460d-b440-6f9fc2044d0d" points="133.73 17.78 134.13 16.81 136.09 11.96 139.06 7.62 143.32 4.6 148.16 2.89 153.36 2.94 158.23 4.8 162.09 7.53 164.3 11.78 165.06 16.58 164.08 21.33 162.78 25.93 161.49 30.56 159.62 35 157.08 39.1 154.6 43.58 151.94 47.96 149.35 52.38 146.61 56.74 143.13 60.54 139.95 64.55 138.41 66.49"/>
        <polygon class="uuid-abcf157c-0c36-4ebd-87e5-7e0152ed231a" points="136.69 63.86 135.59 69.74 141.23 67.75 136.69 63.86"/>
      </g>
      <g>
        <polyline class="uuid-53f4e402-31f5-460d-b440-6f9fc2044d0d" points="200.63 107.71 196.58 106.63 191.8 105.46 186.89 103.99 182.04 102.28 177.11 100.87 172.15 99.52 167.17 98.28 162.26 96.81 157.33 95.36 152.49 93.65 147.43 92.66 143.16 91.06"/>
        <polygon class="uuid-abcf157c-0c36-4ebd-87e5-7e0152ed231a" points="144.82 88.47 139.01 89.9 143.15 94.22 144.82 88.47"/>
      </g>
      <g>
        <polyline class="uuid-53f4e402-31f5-460d-b440-6f9fc2044d0d" points="199.7 48.6 202.09 51.28 205.64 55.27 208.46 59.76 210.61 64.61 212.17 69.62 212.9 74.67 213.37 79.71 213.28 84.91 213.2 90.12 212.33 95.13 210.3 99.84 209.65 101.49"/>
        <polygon class="uuid-abcf157c-0c36-4ebd-87e5-7e0152ed231a" points="207.21 99.54 208.01 105.47 212.74 101.81 207.21 99.54"/>
      </g>
      <g>
        <polyline class="uuid-53f4e402-31f5-460d-b440-6f9fc2044d0d" points="137.01 105.74 139.72 108.27 144.33 110.89 148.85 113.69 153.05 115.46 157.99 116.91 161.57 117.92"/>
        <polygon class="uuid-abcf157c-0c36-4ebd-87e5-7e0152ed231a" points="159.92 120.56 165.72 119.09 161.54 114.8 159.92 120.56"/>
      </g>
      <g>
        <polyline class="uuid-53f4e402-31f5-460d-b440-6f9fc2044d0d" points="128.42 145.25 128.85 142.45 129.61 137.26 130.21 132.02 131.33 127.09 131.7 122.04 132.27 117 131.41 111.99 130.69 107.02 129.43 102.15 128.31 98.87"/>
        <polygon class="uuid-abcf157c-0c36-4ebd-87e5-7e0152ed231a" points="131.42 98.73 126.92 94.8 125.76 100.67 131.42 98.73"/>
      </g>
      <g>
        <polyline class="uuid-06ece5da-e190-41b7-84cf-c24121ec4f51" points="172.26 122.35 176.25 125.2 180.07 128.27 183.04 132.17 185.94 136.2 187.14 140.93 188.02 145.75 187.34 150.68 186.85 155.53 184.75 159.91 182.2 164.17 178.6 167.61 174.52 170.45 170.14 172.56 165.88 174.56 161.45 176.05 156.76 176.81 151.88 176.65 146.95 175.4 142.24 173.46 138.29 170.63 135.1 167.02 132.16 162.7 131.01 160.06"/>
        <polygon class="uuid-0997f0b9-c4e1-4430-a52b-80e2b914778a" points="134.16 159.84 129.57 156 128.54 161.89 134.16 159.84"/>
      </g>
      <g>
        <polyline class="uuid-06ece5da-e190-41b7-84cf-c24121ec4f51" points="116.9 101.51 116.17 106.71 115.47 111.89 115.19 117.12 114.07 122.24 113.24 127.4 112.05 132.5 110.55 137.51 108.59 142.36 106.07 146.94 103.5 151.47 100.18 155.48 96.53 159.25 91.91 161.77 86.87 163.09 81.92 164.62 76.75 164.31 71.67 163.73 66.71 162.44 62.05 160.19 58.23 156.68 55.13 152.55 52.89 147.89 51.84 142.85 50.73 137.75 52.18 132.74 53.82 127.86 56.56 123.48 59.78 119.42 63.82 116.17 67.68 112.7 72 109.83 76.79 107.79 81.25 105.11 86.11 103.27 90.93 101.33 96.04 100.3 97.77 99.69"/>
        <polygon class="uuid-0997f0b9-c4e1-4430-a52b-80e2b914778a" points="97.86 102.82 101.87 98.38 96.02 97.13 97.86 102.82"/>
      </g>
      <g>
        <polyline class="uuid-06ece5da-e190-41b7-84cf-c24121ec4f51" points="122.66 75.02 119.9 70.34 117.74 65.61 114.59 61.43 112.55 56.63 110.06 52.09 107.34 47.67 104.86 43.1 103.04 38.23 100.66 33.61 98.88 28.77 97.51 23.8 97.31 18.64 97.01 13.52 98.31 8.51 101.69 4.66 105.98 1.97 110.77 1.02 115.47 2.17 119.42 4.97 122.54 8.72 125.01 12.96 126.47 15.63"/>
        <polygon class="uuid-0997f0b9-c4e1-4430-a52b-80e2b914778a" points="123.33 16.04 128.14 19.6 128.81 13.65 123.33 16.04"/>
      </g>
      <g>
        <polyline class="uuid-06ece5da-e190-41b7-84cf-c24121ec4f51" points="137.43 84.21 140.6 81.79 144.93 79.4 148.77 76.29 152.74 73.38 156.97 70.84 160.88 67.86 164.96 65.1 169.04 62.34 172.83 59.18 176.83 56.21 181.56 52.74 187.27 48.78 188.79 47.89"/>
        <polygon class="uuid-0997f0b9-c4e1-4430-a52b-80e2b914778a" points="189.57 50.9 192.49 45.68 186.51 45.76 189.57 50.9"/>
      </g>
    </g>
  </g>
  <g id="uuid-fe5b6962-b9b1-4dd4-84a9-b64261a3bad1" data-name="side numbers">
    <g>
      <path class="uuid-0997f0b9-c4e1-4430-a52b-80e2b914778a" d="M167.81,122.85c.03-3.86,1.96-5.75,4.92-5.73,2.96.02,4.86,1.94,4.83,5.8-.03,3.86-1.96,5.75-4.92,5.73-2.96-.02-4.86-1.94-4.83-5.8Z"/>
      <path class="uuid-e03120d8-17b6-4a89-b56f-8c735cd94758" d="M172.02,126.23l.39-5.13-1.24.47v-.72s1.57-1.36,1.57-1.36h.73s.14,6.76.14,6.76h-1.59Z"/>
    </g>
    <g>
      <path class="uuid-abcf157c-0c36-4ebd-87e5-7e0152ed231a" d="M196.65,49.3c.03-3.86,1.96-5.75,4.92-5.73,2.96.02,4.86,1.94,4.83,5.8-.03,3.86-1.96,5.75-4.92,5.73-2.96-.02-4.86-1.94-4.83-5.8Z"/>
      <path class="uuid-e03120d8-17b6-4a89-b56f-8c735cd94758" d="M199.05,52.66v-.09l2.14-2.92c.35-.47.59-.84.71-1.09.13-.25.19-.5.19-.74,0-.28-.09-.49-.26-.63-.18-.15-.41-.22-.7-.23-.43,0-.88.19-1.35.57h-.09s.17-1.39.17-1.39c.16-.08.38-.16.67-.21.29-.06.55-.09.8-.09.33,0,.63.05.9.15.26.1.48.24.64.4.16.17.28.36.37.57.08.21.12.44.12.68,0,.42-.09.81-.26,1.18-.17.37-.46.8-.87,1.3l-1.37,1.67,2.83-.57h.09l-.21,1.46-4.5-.04Z"/>
    </g>
    <g>
      <path class="uuid-0997f0b9-c4e1-4430-a52b-80e2b914778a" d="M109.59,121.47c.03-3.86,1.96-5.75,4.92-5.73,2.96.02,4.86,1.94,4.83,5.8-.03,3.86-1.96,5.75-4.92,5.73-2.96-.02-4.86-1.94-4.83-5.8Z"/>
      <path class="uuid-e03120d8-17b6-4a89-b56f-8c735cd94758" d="M113.8,124.85l.39-5.13-1.24.47v-.72s1.57-1.36,1.57-1.36h.73s.14,6.76.14,6.76h-1.59Z"/>
    </g>
    <g>
      <path class="uuid-0997f0b9-c4e1-4430-a52b-80e2b914778a" d="M110.13,61.01c.03-3.86,1.96-5.75,4.92-5.73,2.96.02,4.86,1.94,4.83,5.8-.03,3.86-1.96,5.75-4.92,5.73-2.96-.02-4.86-1.94-4.83-5.8Z"/>
      <path class="uuid-e03120d8-17b6-4a89-b56f-8c735cd94758" d="M114.33,64.39l.39-5.13-1.24.47v-.72s1.57-1.36,1.57-1.36h.73s.14,6.76.14,6.76h-1.59Z"/>
    </g>
    <g>
      <path class="uuid-abcf157c-0c36-4ebd-87e5-7e0152ed231a" d="M130.37,15.53c.03-3.86,1.96-5.75,4.92-5.73,2.96.02,4.86,1.94,4.83,5.8-.03,3.86-1.96,5.75-4.92,5.73-2.96-.02-4.86-1.94-4.83-5.8Z"/>
      <path class="uuid-e03120d8-17b6-4a89-b56f-8c735cd94758" d="M132.77,18.9v-.09l2.14-2.92c.35-.47.59-.84.71-1.09.13-.25.19-.5.19-.74,0-.28-.09-.49-.26-.63-.18-.15-.41-.22-.7-.23-.43,0-.88.19-1.35.57h-.09s.17-1.39.17-1.39c.16-.08.38-.16.67-.21.29-.06.55-.09.8-.09.33,0,.63.05.9.15.26.1.48.24.64.4.16.17.28.36.37.57.08.21.12.44.12.68,0,.42-.09.81-.26,1.18-.17.37-.46.8-.87,1.3l-1.37,1.67,2.83-.57h.09l-.21,1.46-4.5-.04Z"/>
    </g>
    <g>
      <rect class="uuid-0997f0b9-c4e1-4430-a52b-80e2b914778a" x="77.29" y="81.24" width="10.97" height="8.61" transform="translate(168.32 2.77) rotate(90)"/>
      <path class="uuid-e03120d8-17b6-4a89-b56f-8c735cd94758" d="M82.16,88.88l.35-5.14-1.24.47v-.72l1.56-1.37h.73l.19,6.75h-1.59Z"/>
    </g>
    <g>
      <rect class="uuid-0997f0b9-c4e1-4430-a52b-80e2b914778a" x="142.93" y="72.52" width="10.97" height="8.61" transform="translate(225.24 -71.58) rotate(90)"/>
      <path class="uuid-e03120d8-17b6-4a89-b56f-8c735cd94758" d="M147.79,80.17l.35-5.14-1.24.47v-.72l1.56-1.37h.73l.19,6.75h-1.59Z"/>
    </g>
    <g>
      <rect class="uuid-abcf157c-0c36-4ebd-87e5-7e0152ed231a" x="193.34" y="102.97" width="10.97" height="8.61" transform="translate(306.1 -91.54) rotate(90)"/>
      <path class="uuid-e03120d8-17b6-4a89-b56f-8c735cd94758" d="M198.44,110.7c-.49,0-.97-.09-1.44-.27l-.18-1.36h.09c.39.23.71.39.95.49.24.1.49.15.73.15.33,0,.59-.1.79-.3.19-.2.29-.47.29-.8,0-.36-.13-.63-.39-.83s-.61-.29-1.05-.29c-.2,0-.39.02-.58.07v-.24l1.26-2.48-2.17.33h-.09l.18-1.3h4.07v.09l-1.93,2.65c.67.04,1.16.24,1.48.59.32.36.49.81.49,1.36,0,.2-.02.39-.07.58-.05.19-.13.38-.25.57-.12.19-.27.36-.46.51-.18.15-.42.26-.71.35-.29.09-.62.14-.99.14Z"/>
    </g>
    <g>
      <rect class="uuid-abcf157c-0c36-4ebd-87e5-7e0152ed231a" x="33.14" y="71.65" width="10.97" height="8.61" transform="translate(114.58 37.33) rotate(90)"/>
      <path class="uuid-e03120d8-17b6-4a89-b56f-8c735cd94758" d="M36.2,79.29v-.09l2.11-2.94c.35-.48.58-.84.71-1.09.12-.25.19-.5.19-.74,0-.28-.09-.49-.27-.63s-.41-.22-.7-.22c-.43,0-.88.19-1.35.58h-.09l.16-1.39c.16-.08.38-.16.66-.22.28-.06.55-.09.79-.09.33,0,.63.05.9.15.26.1.48.23.64.4.16.17.29.36.37.57.08.21.13.44.13.68,0,.42-.08.81-.25,1.18-.17.37-.45.81-.86,1.31l-1.36,1.68,2.83-.59h.09l-.2,1.46h-4.5Z"/>
    </g>
    <g>
      <rect class="uuid-abcf157c-0c36-4ebd-87e5-7e0152ed231a" x="59.81" y="30.62" width="10.97" height="8.61" transform="translate(100.22 -30.36) rotate(90)"/>
      <path class="uuid-e03120d8-17b6-4a89-b56f-8c735cd94758" d="M64.91,38.36c-.49,0-.97-.09-1.44-.27l-.18-1.36h.09c.39.23.71.39.95.49.24.1.49.15.73.15.33,0,.59-.1.78-.3.19-.2.29-.47.29-.8,0-.36-.13-.63-.39-.83s-.61-.29-1.05-.29c-.2,0-.39.02-.58.07v-.24l1.26-2.48-2.17.33h-.09l.18-1.3h4.07v.09l-1.93,2.65c.67.04,1.16.24,1.48.59.32.36.49.81.49,1.36,0,.2-.02.39-.07.58-.05.19-.13.38-.25.57-.12.19-.27.36-.45.51-.18.15-.42.26-.71.35-.29.09-.62.14-.99.14Z"/>
    </g>
    <g>
      <path class="uuid-abcf157c-0c36-4ebd-87e5-7e0152ed231a" d="M132.49,145.83c0-2.03.33-3.99.88-5.87-1.75.68-3.26.96-4.89.96-1.63,0-3.14-.28-4.89-.96.55,1.88.88,3.85.88,5.87,0,2.03-.33,3.99-.88,5.87,1.75-.68,3.26-.96,4.89-.96,1.63,0,3.14.28,4.89.96-.55-1.88-.88-3.85-.88-5.87Z"/>
      <path class="uuid-e03120d8-17b6-4a89-b56f-8c735cd94758" d="M126.06,149.17v-.09l2.11-2.94c.35-.48.58-.84.71-1.09.12-.25.19-.5.19-.74,0-.28-.09-.49-.27-.63s-.41-.22-.7-.22c-.43,0-.88.19-1.35.58h-.09l.16-1.39c.16-.08.38-.16.66-.22.28-.06.55-.09.8-.09.33,0,.63.05.9.15.26.1.48.23.64.4.16.17.29.36.37.57.08.21.13.44.13.68,0,.42-.08.81-.25,1.18-.17.37-.45.81-.86,1.31l-1.36,1.68,2.83-.59h.09l-.2,1.46h-4.5Z"/>
    </g>
    <g>
      <path class="uuid-abcf157c-0c36-4ebd-87e5-7e0152ed231a" d="M142.57,105.07c0-2.03.33-3.99.88-5.87-1.75.68-3.26.96-4.89.96-1.63,0-3.14-.28-4.89-.96.55,1.88.88,3.85.88,5.87,0,2.03-.33,3.99-.88,5.87,1.75-.68,3.26-.96,4.89-.96,1.63,0,3.14.28,4.89.96-.55-1.88-.88-3.85-.88-5.87Z"/>
      <path class="uuid-e03120d8-17b6-4a89-b56f-8c735cd94758" d="M138.19,108.49c-.49,0-.97-.09-1.44-.27l-.18-1.36h.09c.39.23.71.39.95.49.24.1.49.15.73.15.33,0,.59-.1.79-.3.19-.2.29-.47.29-.8,0-.36-.13-.63-.39-.83s-.61-.29-1.05-.29c-.2,0-.39.02-.58.07v-.24l1.26-2.48-2.17.33h-.09l.18-1.3h4.07v.09l-1.93,2.65c.67.04,1.16.24,1.48.59.32.36.49.81.49,1.36,0,.2-.02.39-.07.58-.05.19-.13.38-.25.57-.12.19-.27.36-.46.51-.18.15-.42.26-.71.35-.29.09-.62.14-.99.14Z"/>
    </g>
  </g>
  <g id="uuid-44a07cba-04fe-4aa5-aa3c-f69131c4c37d" data-name="translation">
    <g>
      <rect class="uuid-eeab2087-11c9-40e4-b5ea-23cd2bb84cbf" x="33.15" y="223.17" width="39" height="26"/>
      <path class="uuid-86f1c12f-9f14-42f7-8805-7b4099bd63c6" d="M38.72,233.93l.21-3.55-.21-3.2h1.62l-.2,3.2.2,3.55h-1.62Z"/>
      <path class="uuid-0997f0b9-c4e1-4430-a52b-80e2b914778a" d="M39.03,245.22l.35-5.14-1.24.47v-.72l1.56-1.37h.73l.19,6.75h-1.59Z"/>
      <path class="uuid-abcf157c-0c36-4ebd-87e5-7e0152ed231a" d="M50.23,245.22v-.09l2.11-2.94c.35-.48.58-.84.71-1.09.12-.25.19-.5.19-.74,0-.28-.09-.49-.27-.63s-.41-.22-.7-.22c-.43,0-.88.19-1.35.58h-.09l.16-1.39c.16-.08.38-.16.66-.22.28-.06.55-.09.8-.09.33,0,.63.05.9.15.26.1.48.23.64.4.16.17.29.36.37.57.08.21.13.44.13.68,0,.42-.08.81-.25,1.18-.17.37-.45.81-.86,1.31l-1.36,1.68,2.83-.59h.09l-.2,1.46h-4.5Z"/>
      <path class="uuid-abcf157c-0c36-4ebd-87e5-7e0152ed231a" d="M65.28,245.31c-.49,0-.97-.09-1.44-.27l-.18-1.36h.09c.39.23.71.39.95.49.24.1.49.15.73.15.33,0,.59-.1.79-.3.19-.2.29-.47.29-.8,0-.36-.13-.63-.39-.83s-.61-.29-1.05-.29c-.2,0-.39.02-.58.07v-.24l1.26-2.48-2.17.33h-.09l.18-1.3h4.07v.09l-1.93,2.65c.66.04,1.16.24,1.48.59.32.36.49.81.49,1.36,0,.2-.02.39-.07.58-.05.19-.13.38-.25.57-.12.19-.27.36-.46.51-.18.15-.42.26-.71.35-.29.09-.62.14-.99.14Z"/>
      <rect class="uuid-eeab2087-11c9-40e4-b5ea-23cd2bb84cbf" x="98.15" y="223.17" width="39" height="26"/>
      <g>
        <path class="uuid-86f1c12f-9f14-42f7-8805-7b4099bd63c6" d="M103.72,233.93l.21-3.55-.21-3.2h1.62l-.2,3.2.2,3.55h-1.62Z"/>
        <path class="uuid-86f1c12f-9f14-42f7-8805-7b4099bd63c6" d="M106.79,233.93l.21-3.55-.21-3.2h1.62l-.2,3.2.2,3.55h-1.62Z"/>
        <path class="uuid-86f1c12f-9f14-42f7-8805-7b4099bd63c6" d="M109.87,233.93l.21-3.55-.21-3.2h1.62l-.2,3.2.2,3.55h-1.62Z"/>
      </g>
      <path class="uuid-0997f0b9-c4e1-4430-a52b-80e2b914778a" d="M104.03,245.22l.35-5.14-1.24.47v-.72l1.56-1.37h.73l.19,6.75h-1.59Z"/>
      <path class="uuid-abcf157c-0c36-4ebd-87e5-7e0152ed231a" d="M115.23,245.22v-.09l2.11-2.94c.35-.48.58-.84.71-1.09.12-.25.19-.5.19-.74,0-.28-.09-.49-.27-.63s-.41-.22-.7-.22c-.43,0-.88.19-1.35.58h-.09l.16-1.39c.16-.08.38-.16.66-.22.28-.06.55-.09.8-.09.33,0,.63.05.9.15.26.1.48.23.64.4.16.17.29.36.37.57.08.21.13.44.13.68,0,.42-.08.81-.25,1.18-.17.37-.45.81-.86,1.31l-1.36,1.68,2.83-.59h.09l-.2,1.46h-4.5Z"/>
      <path class="uuid-abcf157c-0c36-4ebd-87e5-7e0152ed231a" d="M130.28,245.31c-.49,0-.97-.09-1.44-.27l-.18-1.36h.09c.39.23.71.39.95.49.24.1.49.15.73.15.33,0,.59-.1.79-.3.19-.2.29-.47.29-.8,0-.36-.13-.63-.39-.83s-.61-.29-1.05-.29c-.2,0-.39.02-.58.07v-.24l1.26-2.48-2.17.33h-.09l.18-1.3h4.07v.09l-1.93,2.65c.66.04,1.16.24,1.48.59.32.36.49.81.49,1.36,0,.2-.02.39-.07.58-.05.19-.13.38-.25.57-.12.19-.27.36-.46.51-.18.15-.42.26-.71.35-.29.09-.62.14-.99.14Z"/>
      <rect class="uuid-eeab2087-11c9-40e4-b5ea-23cd2bb84cbf" x="176.15" y="223.17" width="39" height="26"/>
      <path class="uuid-86f1c12f-9f14-42f7-8805-7b4099bd63c6" d="M184.65,234.02h-.79l-2.8-6.75v-.09h1.67l1.69,5.29,1.69-5.29h1.51v.09l-2.98,6.75Z"/>
      <path class="uuid-0997f0b9-c4e1-4430-a52b-80e2b914778a" d="M182.03,245.22l.35-5.14-1.24.47v-.72l1.56-1.37h.73l.19,6.75h-1.59Z"/>
      <path class="uuid-abcf157c-0c36-4ebd-87e5-7e0152ed231a" d="M193.23,245.22v-.09l2.11-2.94c.35-.48.58-.84.71-1.09.12-.25.19-.5.19-.74,0-.28-.09-.49-.27-.63s-.41-.22-.7-.22c-.43,0-.88.19-1.35.58h-.09l.16-1.39c.16-.08.38-.16.66-.22.28-.06.55-.09.8-.09.33,0,.63.05.9.15.26.1.48.23.64.4.16.17.29.36.37.57.08.21.13.44.13.68,0,.42-.08.81-.25,1.18-.17.37-.45.81-.86,1.31l-1.36,1.68,2.83-.59h.09l-.2,1.46h-4.5Z"/>
      <path class="uuid-abcf157c-0c36-4ebd-87e5-7e0152ed231a" d="M208.28,245.31c-.49,0-.97-.09-1.44-.27l-.18-1.36h.09c.39.23.71.39.95.49.24.1.49.15.73.15.33,0,.59-.1.79-.3.19-.2.29-.47.29-.8,0-.36-.13-.63-.39-.83s-.61-.29-1.05-.29c-.2,0-.39.02-.58.07v-.24l1.26-2.48-2.17.33h-.09l.18-1.3h4.07v.09l-1.93,2.65c.66.04,1.16.24,1.48.59.32.36.49.81.49,1.36,0,.2-.02.39-.07.58-.05.19-.13.38-.25.57-.12.19-.27.36-.46.51-.18.15-.42.26-.71.35-.29.09-.62.14-.99.14Z"/>
      <rect class="uuid-eeab2087-11c9-40e4-b5ea-23cd2bb84cbf" x="78.65" y="223.17" width="13" height="26"/>
      <g>
        <path class="uuid-86f1c12f-9f14-42f7-8805-7b4099bd63c6" d="M82.8,233.93l.21-3.55-.21-3.2h1.62l-.2,3.2.2,3.55h-1.62Z"/>
        <path class="uuid-86f1c12f-9f14-42f7-8805-7b4099bd63c6" d="M85.88,233.93l.21-3.55-.21-3.2h1.62l-.2,3.2.2,3.55h-1.62Z"/>
      </g>
      <path class="uuid-0997f0b9-c4e1-4430-a52b-80e2b914778a" d="M84.53,245.22l.35-5.14-1.24.47v-.72l1.56-1.37h.73l.19,6.75h-1.59Z"/>
      <path class="uuid-abcf157c-0c36-4ebd-87e5-7e0152ed231a" d="M34.78,258.92c0-3.87,2.01-5.89,4.87-5.89,2.87,0,4.87,2.02,4.87,5.89,0,3.87-2.01,5.89-4.87,5.89-2.87,0-4.87-2.02-4.87-5.89Z"/>
      <path class="uuid-abcf157c-0c36-4ebd-87e5-7e0152ed231a" d="M145.28,258.92c0-3.87,2.01-5.89,4.87-5.89,2.87,0,4.87,2.02,4.87,5.89,0,3.87-2.01,5.89-4.87,5.89-2.87,0-4.87-2.02-4.87-5.89Z"/>
      <path class="uuid-abcf157c-0c36-4ebd-87e5-7e0152ed231a" d="M158.28,258.92c0-3.87,2.01-5.89,4.87-5.89,2.87,0,4.87,2.02,4.87,5.89,0,3.87-2.01,5.89-4.87,5.89-2.87,0-4.87-2.02-4.87-5.89Z"/>
      <path class="uuid-abcf157c-0c36-4ebd-87e5-7e0152ed231a" d="M190.78,258.92c0-3.87,2.01-5.89,4.87-5.89,2.87,0,4.87,2.02,4.87,5.89,0,3.87-2.01,5.89-4.87,5.89-2.87,0-4.87-2.02-4.87-5.89Z"/>
      <path class="uuid-abcf157c-0c36-4ebd-87e5-7e0152ed231a" d="M80.28,258.92c0-3.87,2.01-5.89,4.87-5.89,2.87,0,4.87,2.02,4.87,5.89,0,3.87-2.01,5.89-4.87,5.89-2.87,0-4.87-2.02-4.87-5.89Z"/>
      <rect class="uuid-abcf157c-0c36-4ebd-87e5-7e0152ed231a" x="99.17" y="254.62" width="10.97" height="8.61" transform="translate(363.57 154.27) rotate(90)"/>
      <rect class="uuid-abcf157c-0c36-4ebd-87e5-7e0152ed231a" x="177.17" y="254.62" width="10.97" height="8.61" transform="translate(441.57 76.27) rotate(90)"/>
      <rect class="uuid-abcf157c-0c36-4ebd-87e5-7e0152ed231a" x="203.17" y="254.62" width="10.97" height="8.61" transform="translate(467.57 50.27) rotate(90)"/>
      <rect class="uuid-abcf157c-0c36-4ebd-87e5-7e0152ed231a" x="112.17" y="254.62" width="10.97" height="8.61" transform="translate(376.57 141.27) rotate(90)"/>
      <rect class="uuid-abcf157c-0c36-4ebd-87e5-7e0152ed231a" x="125.17" y="254.62" width="10.97" height="8.61" transform="translate(389.57 128.27) rotate(90)"/>
      <path class="uuid-abcf157c-0c36-4ebd-87e5-7e0152ed231a" d="M49.01,258.92c0-2.03-.43-3.96-1.25-5.87,1.66,1,3.24,1.37,4.89,1.37,1.64,0,3.23-.37,4.89-1.37-.82,1.91-1.25,3.85-1.25,5.87,0,2.03.43,3.96,1.25,5.87-1.66-1-3.24-1.37-4.89-1.37-1.64,0-3.23.37-4.89,1.37.82-1.91,1.25-3.85,1.25-5.87Z"/>
      <path class="uuid-abcf157c-0c36-4ebd-87e5-7e0152ed231a" d="M62.01,258.92c0-2.03-.43-3.96-1.25-5.87,1.66,1,3.24,1.37,4.89,1.37,1.64,0,3.23-.37,4.89-1.37-.82,1.91-1.25,3.85-1.25,5.87,0,2.03.43,3.96,1.25,5.87-1.66-1-3.24-1.37-4.89-1.37-1.64,0-3.23.37-4.89,1.37.82-1.91,1.25-3.85,1.25-5.87Z"/>
      <path class="uuid-abcf157c-0c36-4ebd-87e5-7e0152ed231a" d="M53.2,277.01h-1.09c-.26-2.79-1.93-4.3-5.32-4.3h-5.01c-4.09,0-6.44-1.54-6.44-5.58h1.15c0,3.31,1.9,4.28,5.29,4.28h5.01c3.55,0,5.19,1.36,5.87,3.7.68-2.35,2.32-3.7,5.87-3.7h5.01c3.39,0,5.29-.96,5.29-4.28h1.15c0,4.04-2.35,5.58-6.44,5.58h-5.01c-3.39,0-5.06,1.51-5.32,4.3Z"/>
      <path class="uuid-abcf157c-0c36-4ebd-87e5-7e0152ed231a" d="M196.2,277.01h-1.09c-.26-2.79-1.93-4.3-5.32-4.3h-5.01c-4.09,0-6.44-1.54-6.44-5.58h1.15c0,3.31,1.9,4.28,5.29,4.28h5.01c3.55,0,5.19,1.36,5.87,3.7.68-2.35,2.32-3.7,5.87-3.7h5.01c3.39,0,5.29-.96,5.29-4.28h1.15c0,4.04-2.35,5.58-6.44,5.58h-5.01c-3.39,0-5.06,1.51-5.32,4.3Z"/>
      <path class="uuid-abcf157c-0c36-4ebd-87e5-7e0152ed231a" d="M101.95,277.01h-1.09c-.26-2.79-1.93-4.3-5.32-4.3h-8.24c-4.09,0-6.44-1.54-6.44-5.58h1.15c0,3.31,1.9,4.28,5.29,4.28h8.24c3.55,0,5.19,1.36,5.87,3.7.68-2.35,2.32-3.7,5.87-3.7h8.24c3.39,0,5.29-.96,5.29-4.28h1.15c0,4.04-2.35,5.58-6.44,5.58h-8.24c-3.39,0-5.06,1.51-5.32,4.3Z"/>
      <path class="uuid-abcf157c-0c36-4ebd-87e5-7e0152ed231a" d="M147.45,277.01h-1.09c-.26-2.79-1.93-4.3-5.32-4.3h-8.24c-4.09,0-6.44-1.54-6.44-5.58h1.15c0,3.31,1.9,4.28,5.29,4.28h8.24c3.55,0,5.19,1.36,5.87,3.7.68-2.35,2.32-3.7,5.87-3.7h8.24c3.39,0,5.29-.96,5.29-4.28h1.15c0,4.04-2.35,5.58-6.44,5.58h-8.24c-3.39,0-5.06,1.51-5.32,4.3Z"/>
      <path class="uuid-abcf157c-0c36-4ebd-87e5-7e0152ed231a" d="M55.05,292.77l-2.51-7.91-2.61,7.91h-.59l-4.52-12.37v-.03h2.02l2.91,9.33,2.6-9.33h.45l2.72,9.52,2.96-9.52h2.02v.03l-4.85,12.37h-.59Z"/>
      <path class="uuid-abcf157c-0c36-4ebd-87e5-7e0152ed231a" d="M104.39,292.37l.21-5.65h-6.4l.2,5.65h-1.93l.23-6.3-.23-5.7h1.93l-.22,5.15h6.43l-.23-5.15h1.94l-.24,5.7.24,6.3h-1.94Z"/>
      <path class="uuid-abcf157c-0c36-4ebd-87e5-7e0152ed231a" d="M150.5,292.37l-1.3-3.48h-4.58l-1.25,3.48h-2.05v-.03l5.46-12.37h.55l5.14,12.37v.03h-1.98ZM148.8,287.8l-1.92-5.21-1.88,5.21h3.8Z"/>
      <path class="uuid-abcf157c-0c36-4ebd-87e5-7e0152ed231a" d="M200.76,282.3l-4.45-.79.29,10.85h-1.92l.29-10.85-4.43.79h-.04l.34-1.94h9.62l.34,1.94h-.03Z"/>
      <rect class="uuid-eeab2087-11c9-40e4-b5ea-23cd2bb84cbf" x="143.65" y="223.17" width="26" height="26"/>
      <g>
        <path class="uuid-86f1c12f-9f14-42f7-8805-7b4099bd63c6" d="M149.22,233.93l.21-3.55-.21-3.2h1.62l-.2,3.2.2,3.55h-1.62Z"/>
        <path class="uuid-86f1c12f-9f14-42f7-8805-7b4099bd63c6" d="M155.23,234.02h-.79l-2.8-6.75v-.09h1.67l1.69,5.29,1.69-5.29h1.51v.09l-2.98,6.75Z"/>
      </g>
      <path class="uuid-0997f0b9-c4e1-4430-a52b-80e2b914778a" d="M149.53,245.22l.35-5.14-1.24.47v-.72l1.56-1.37h.73l.19,6.75h-1.59Z"/>
      <path class="uuid-abcf157c-0c36-4ebd-87e5-7e0152ed231a" d="M160.73,245.22v-.09l2.11-2.94c.35-.48.58-.84.71-1.09.12-.25.19-.5.19-.74,0-.28-.09-.49-.27-.63s-.41-.22-.7-.22c-.43,0-.88.19-1.35.58h-.09l.16-1.39c.16-.08.38-.16.66-.22.28-.06.55-.09.8-.09.33,0,.63.05.9.15.26.1.48.23.64.4.16.17.29.36.37.57.08.21.13.44.13.68,0,.42-.08.81-.25,1.18-.17.37-.45.81-.86,1.31l-1.36,1.68,2.83-.59h.09l-.2,1.46h-4.5Z"/>
    </g>
  </g>
</svg>