<?xml version="1.0" encoding="UTF-8"?>
<svg xmlns="http://www.w3.org/2000/svg" width="2.79in" height="4.12in" viewBox="0 0 200.86 296.32">
  <defs>
    <style>
      .uuid-3f61c0cb-fb90-4611-84d5-7f2798fa3cb4 {
        stroke: #332019;
      }

      .uuid-3f61c0cb-fb90-4611-84d5-7f2798fa3cb4, .uuid-6473fe60-2bcc-41db-8f72-37862de29bb5 {
        fill: none;
        stroke-width: 2px;
      }

      .uuid-6473fe60-2bcc-41db-8f72-37862de29bb5 {
        stroke: #bb4121;
      }

      .uuid-d02c2c57-80d2-44bf-b045-b771c8cde3ce {
        fill: #fff;
      }

      .uuid-d4e4eec9-5bfd-4f75-88c7-560036262b35 {
        fill: #bac1ca;
      }

      .uuid-84a09221-b972-472e-aef6-1198f9f912fe {
        fill: #ffe500;
      }

      .uuid-9f880391-b40e-4cfd-a757-220c03ef132e {
        fill: #332019;
      }

      .uuid-718cba17-5d7d-45ae-be0e-7fd31e10ce46 {
        fill: #cbd0d7;
      }

      .uuid-bf7228ca-7579-4164-af47-5368e410198b {
        fill: #bb4121;
      }

      .uuid-4c355ab4-3033-468b-9021-c1ad70b76373 {
        fill: #9ab4c2;
      }
    </style>
  </defs>
  <g id="uuid-ce0a6da9-9467-4dfd-b0d4-900288770284" data-name="approaches">
    <g>
      <polygon class="uuid-84a09221-b972-472e-aef6-1198f9f912fe" points="77.18 177.96 78.43 173.06 78.11 178.11 80.81 173.84 78.94 178.54 82.84 175.31 79.61 179.2 84.31 177.33 80.03 180.04 85.08 179.71 80.18 180.96 85.08 182.22 80.03 181.89 84.31 184.6 79.61 182.73 82.84 186.62 78.94 183.39 80.81 188.09 78.11 183.82 78.43 188.87 77.18 183.96 75.93 188.87 76.25 183.82 73.55 188.09 75.42 183.39 71.52 186.62 74.75 182.73 70.05 184.6 74.33 181.89 69.28 182.22 74.18 180.96 69.28 179.71 74.33 180.04 70.05 177.33 74.75 179.2 71.52 175.31 75.42 178.54 73.55 173.84 76.25 178.11 75.93 173.06 77.18 177.96"/>
      <polygon class="uuid-84a09221-b972-472e-aef6-1198f9f912fe" points="85.65 177.96 86.9 173.06 86.57 178.11 89.28 173.84 87.41 178.54 91.3 175.31 88.07 179.2 92.78 177.33 88.5 180.04 93.55 179.71 88.65 180.96 93.55 182.22 88.5 181.89 92.78 184.6 88.07 182.73 91.3 186.62 87.41 183.39 89.28 188.09 86.57 183.82 86.9 188.87 85.65 183.96 84.4 188.87 84.72 183.82 82.02 188.09 83.88 183.39 79.99 186.62 83.22 182.73 78.52 184.6 82.79 181.89 77.75 182.22 82.65 180.96 77.75 179.71 82.79 180.04 78.52 177.33 83.22 179.2 79.99 175.31 83.88 178.54 82.02 173.84 84.72 178.11 84.4 173.06 85.65 177.96"/>
      <polygon class="uuid-84a09221-b972-472e-aef6-1198f9f912fe" points="94.11 177.96 95.37 173.06 95.04 178.11 97.75 173.84 95.88 178.54 99.77 175.31 96.54 179.2 101.24 177.33 96.97 180.04 102.02 179.71 97.11 180.96 102.02 182.22 96.97 181.89 101.24 184.6 96.54 182.73 99.77 186.62 95.88 183.39 97.75 188.09 95.04 183.82 95.37 188.87 94.11 183.96 92.86 188.87 93.19 183.82 90.48 188.09 92.35 183.39 88.46 186.62 91.69 182.73 86.99 184.6 91.26 181.89 86.21 182.22 91.11 180.96 86.21 179.71 91.26 180.04 86.99 177.33 91.69 179.2 88.46 175.31 92.35 178.54 90.48 173.84 93.19 178.11 92.86 173.06 94.11 177.96"/>
      <polygon class="uuid-84a09221-b972-472e-aef6-1198f9f912fe" points="102.58 177.96 103.83 173.06 103.51 178.11 106.21 173.84 104.35 178.54 108.24 175.31 105.01 179.2 109.71 177.33 105.44 180.04 110.48 179.71 105.58 180.96 110.48 182.22 105.44 181.89 109.71 184.6 105.01 182.73 108.24 186.62 104.35 183.39 106.21 188.09 103.51 183.82 103.83 188.87 102.58 183.96 101.33 188.87 101.66 183.82 98.95 188.09 100.82 183.39 96.93 186.62 100.16 182.73 95.45 184.6 99.73 181.89 94.68 182.22 99.58 180.96 94.68 179.71 99.73 180.04 95.45 177.33 100.16 179.2 96.93 175.31 100.82 178.54 98.95 173.84 101.66 178.11 101.33 173.06 102.58 177.96"/>
      <polygon class="uuid-84a09221-b972-472e-aef6-1198f9f912fe" points="111.05 177.96 112.3 173.06 111.98 178.11 114.68 173.84 112.81 178.54 116.71 175.31 113.48 179.2 118.18 177.33 113.9 180.04 118.95 179.71 114.05 180.96 118.95 182.22 113.9 181.89 118.18 184.6 113.48 182.73 116.71 186.62 112.81 183.39 114.68 188.09 111.98 183.82 112.3 188.87 111.05 183.96 109.8 188.87 110.12 183.82 107.42 188.09 109.29 183.39 105.39 186.62 108.62 182.73 103.92 184.6 108.2 181.89 103.15 182.22 108.05 180.96 103.15 179.71 108.2 180.04 103.92 177.33 108.62 179.2 105.39 175.31 109.29 178.54 107.42 173.84 110.12 178.11 109.8 173.06 111.05 177.96"/>
      <polygon class="uuid-84a09221-b972-472e-aef6-1198f9f912fe" points="119.52 177.96 120.77 173.06 120.44 178.11 123.15 173.84 121.28 178.54 125.17 175.31 121.94 179.2 126.64 177.33 122.37 180.04 127.42 179.71 122.52 180.96 127.42 182.22 122.37 181.89 126.64 184.6 121.94 182.73 125.17 186.62 121.28 183.39 123.15 188.09 120.44 183.82 120.77 188.87 119.52 183.96 118.27 188.87 118.59 183.82 115.88 188.09 117.75 183.39 113.86 186.62 117.09 182.73 112.39 184.6 116.66 181.89 111.62 182.22 116.52 180.96 111.62 179.71 116.66 180.04 112.39 177.33 117.09 179.2 113.86 175.31 117.75 178.54 115.88 173.84 118.59 178.11 118.27 173.06 119.52 177.96"/>
      <polygon class="uuid-84a09221-b972-472e-aef6-1198f9f912fe" points="127.98 177.96 129.24 173.06 128.91 178.11 131.62 173.84 129.75 178.54 133.64 175.31 130.41 179.2 135.11 177.33 130.84 180.04 135.89 179.71 130.98 180.96 135.89 182.22 130.84 181.89 135.11 184.6 130.41 182.73 133.64 186.62 129.75 183.39 131.62 188.09 128.91 183.82 129.24 188.87 127.98 183.96 126.73 188.87 127.06 183.82 124.35 188.09 126.22 183.39 122.33 186.62 125.56 182.73 120.86 184.6 125.13 181.89 120.08 182.22 124.98 180.96 120.08 179.71 125.13 180.04 120.86 177.33 125.56 179.2 122.33 175.31 126.22 178.54 124.35 173.84 127.06 178.11 126.73 173.06 127.98 177.96"/>
      <polygon class="uuid-84a09221-b972-472e-aef6-1198f9f912fe" points="136.45 177.96 137.7 173.06 137.38 178.11 140.08 173.84 138.21 178.54 142.11 175.31 138.88 179.2 143.58 177.33 139.3 180.04 144.35 179.71 139.45 180.96 144.35 182.22 139.3 181.89 143.58 184.6 138.88 182.73 142.11 186.62 138.21 183.39 140.08 188.09 137.38 183.82 137.7 188.87 136.45 183.96 135.2 188.87 135.52 183.82 132.82 188.09 134.69 183.39 130.79 186.62 134.02 182.73 129.32 184.6 133.6 181.89 128.55 182.22 133.45 180.96 128.55 179.71 133.6 180.04 129.32 177.33 134.02 179.2 130.79 175.31 134.69 178.54 132.82 173.84 135.52 178.11 135.2 173.06 136.45 177.96"/>
      <polygon class="uuid-84a09221-b972-472e-aef6-1198f9f912fe" points="144.92 177.96 146.17 173.06 145.85 178.11 148.55 173.84 146.68 178.54 150.58 175.31 147.35 179.2 152.05 177.33 147.77 180.04 152.82 179.71 147.92 180.96 152.82 182.22 147.77 181.89 152.05 184.6 147.35 182.73 150.58 186.62 146.68 183.39 148.55 188.09 145.85 183.82 146.17 188.87 144.92 183.96 143.67 188.87 143.99 183.82 141.29 188.09 143.16 183.39 139.26 186.62 142.49 182.73 137.79 184.6 142.07 181.89 137.02 182.22 141.92 180.96 137.02 179.71 142.07 180.04 137.79 177.33 142.49 179.2 139.26 175.31 143.16 178.54 141.29 173.84 143.99 178.11 143.67 173.06 144.92 177.96"/>
      <polygon class="uuid-84a09221-b972-472e-aef6-1198f9f912fe" points="153.39 177.96 154.64 173.06 154.31 178.11 157.02 173.84 155.15 178.54 159.04 175.31 155.81 179.2 160.51 177.33 156.24 180.04 161.29 179.71 156.39 180.96 161.29 182.22 156.24 181.89 160.51 184.6 155.81 182.73 159.04 186.62 155.15 183.39 157.02 188.09 154.31 183.82 154.64 188.87 153.39 183.96 152.13 188.87 152.46 183.82 149.75 188.09 151.62 183.39 147.73 186.62 150.96 182.73 146.26 184.6 150.53 181.89 145.48 182.22 150.39 180.96 145.48 179.71 150.53 180.04 146.26 177.33 150.96 179.2 147.73 175.31 151.62 178.54 149.75 173.84 152.46 178.11 152.13 173.06 153.39 177.96"/>
    </g>
  </g>
  <g id="uuid-43d84410-37a2-4da2-b604-741408b098dd" data-name="baseline">
    <rect class="uuid-d4e4eec9-5bfd-4f75-88c7-560036262b35" x="33.15" y="184.15" width="166.71" height="16"/>
  </g>
  <g id="uuid-2afed940-abb6-4da5-b7ec-5d0d3c4f4570" data-name="shapes">
    <path class="uuid-4c355ab4-3033-468b-9021-c1ad70b76373" d="M34.06,127.23l-.76-6.37v-6.37s-.06-6.36-.06-6.36l-.53-6.34.31-6.36-.42-6.35.17-6.35.74-6.32.16-6.35.67-6.33,1.4-6.22,2.52-5.85,3.75-5.15,6.02-1.87,6.31,1.49,4.07,5.21,2.28,6.22,1.39,6.45,1.91,6.3.93,6.54,1.51,6.51,1.38-.33-.8-6.41-.04-6.31.17-6.31.54-6.29v-6.32s.53-6.3.53-6.3l1.68-6.13.73-6.28,2.6-5.74,3.08-5.38,5.67-2.27,6.18,2.08,3.07,5.84,2.86,5.98,1.28,6.51.97,6.55.77,6.57.97,6.43.24.02.47-6.41.53-6.49.25-6.5.04-6.53.67-6.49,1.18-6.42,1.95-6.21,2.56-5.9,3.63-5.41,6.37-1.86,6.01,2.39,3.88,5,2.96,5.78,1.41,6.36.79,6.46,1.23,6.4.47,6.49.16,6.51.77,6.47.5,6.4.28.05,1.27-6.23,1.92-6.15,1.63-6.23,2.1-6.09,2.88-5.74,3.24-5.6,6.07-1.98,5.81,2.49,3.28,5.61,1.8,6.28,1.21,6.44.37,6.55.57,6.53.31,6.55-.69,6.55.27,6.56-.27,6.53,1,.5,2.13-6.68,2.62-6.4,2.86-6.29,3.04-6.19,3.72-5.83,5.97-3.36,5.8,2.94,3.7,5.58,1.17,6.63.95,6.61.56,6.67.19,6.69-.46,6.68.22,6.7-.19,6.69-.95,6.64v6.7s-1.23,6.61-1.23,6.61l-.5,6.42-6.07.89-6.36.26-6.32.91-5.9,2.44-5.52,3.01-5.28,3.59-3.25,5.49-2.45,5.83-1.19,6.21-1.35,6.25-.08,6.38.72,6.7-6.55-.2-6.43-.57-6.43.21h-6.43s-6.43.4-6.43.4l-6.43.19-6.43-.54-6.43.05-6.43.06-6.43.28-6.43.09h-6.54s.86-6.84.86-6.84l-.05-6.58-.15-6.57-1.11-6.47-2-6.21-3.21-5.63-4.87-4.29-5.7-3.34-6.55-.97-6.44-1.11-6.5-.87-6.59-.56ZM146.04,110.69l-.76-6.74-1.21-6.68-2.79-6.25-4.76-4.91-5.58-3.98-6.67-1.61-6.78-.63-6.88.16-6.47,2.35-5.65,3.76-4.43,5.08-3.16,6-1.37,6.66-.7,6.78.57,6.78,1.9,6.49,2.95,6.02,4.15,5.33,5.9,3.31,6.33,2.56,6.84.6,6.78-.65,6.13-2.86,5.5-3.69,4.45-4.92,3.39-5.78,1.42-6.55.89-6.64Z"/>
  </g>
  <g id="uuid-59314c8b-ec06-45d1-bcb4-077e2408d0ae" data-name="shape numbers">
    <path class="uuid-d02c2c57-80d2-44bf-b045-b771c8cde3ce" d="M116.73,168.03l.32-8.67-.32-7.83h2.65l-.32,7.83.32,8.67h-2.65Z"/>
    <g>
      <path class="uuid-d02c2c57-80d2-44bf-b045-b771c8cde3ce" d="M113.75,119.84l.32-8.67-.32-7.83h2.65l-.32,7.83.32,8.67h-2.65Z"/>
      <path class="uuid-d02c2c57-80d2-44bf-b045-b771c8cde3ce" d="M119.7,119.84l.32-8.67-.32-7.83h2.65l-.32,7.83.32,8.67h-2.65Z"/>
    </g>
  </g>
  <g id="uuid-382231b9-a7f5-4834-8347-cf4677554cd1" data-name="shape trace">
    <g>
      <path class="uuid-d02c2c57-80d2-44bf-b045-b771c8cde3ce" d="M33.15,191.79l26.5-.51c10.18.34,15.58-4.24,15.2-14.64-.02-1.96,2.93-2.04,3-.06-.11,11.69-6.72,17.34-18.2,16.43,0,0-26.5-.51-26.5-.51-.2,0-.35-.17-.35-.36,0-.19.16-.35.35-.35h0Z"/>
      <path class="uuid-d02c2c57-80d2-44bf-b045-b771c8cde3ce" d="M76.05,176.47l23.8-40.43c1.02-1.67,3.56-.2,2.59,1.52,0,0-25.77,39.27-25.78,39.29-.23.37-.85.02-.61-.38h0Z"/>
    </g>
  </g>
  <g id="uuid-11a7d76c-f005-40dd-9574-81ca7fbd25f9" data-name="start">
    <g>
      <polygon class="uuid-bf7228ca-7579-4164-af47-5368e410198b" points="0 200.15 4.63 192.15 0 184.15 28.52 184.15 33.15 192.15 28.52 200.15 0 200.15"/>
      <g>
        <path class="uuid-d02c2c57-80d2-44bf-b045-b771c8cde3ce" d="M7.18,190.93c0-.46.17-.82.51-1.1.34-.28.76-.42,1.25-.42s.95.1,1.29.29l.09,1.23h-.02c-.19-.18-.42-.33-.68-.43s-.5-.16-.74-.16c-.46,0-.68.18-.68.53,0,.22.16.46.47.72l.48.41c.32.27.55.53.7.78.14.25.22.51.22.8,0,.12-.01.25-.04.38-.03.13-.09.26-.17.41-.08.14-.19.27-.31.38-.13.11-.29.2-.5.27-.21.07-.45.11-.71.11s-.51-.04-.76-.12c-.25-.08-.44-.17-.57-.29l-.09-1.13h.02c.59.51,1.09.77,1.5.77.2,0,.35-.06.45-.19.11-.13.16-.29.16-.48,0-.17-.04-.33-.13-.47-.09-.15-.23-.3-.43-.46l-.62-.52c-.46-.39-.69-.82-.69-1.3Z"/>
        <path class="uuid-d02c2c57-80d2-44bf-b045-b771c8cde3ce" d="M13.81,194.81c-.12.09-.28.16-.47.22s-.37.09-.54.09c-.49,0-.85-.17-1.06-.5-.21-.34-.28-.82-.19-1.45l.4-2.88-.88-.05v-.11l1.84-1.89h.21l-.16,1.32,1.36-.15-.05,1.01-1.4-.08-.3,2.58c-.02.27-.04.51-.03.71,0,.21.06.38.16.5.1.13.26.19.48.19.2,0,.43-.07.7-.21h.02l-.09.68Z"/>
        <path class="uuid-d02c2c57-80d2-44bf-b045-b771c8cde3ce" d="M17.36,194.47c-.41.44-.78.66-1.11.66-.4,0-.73-.2-.99-.59-.26-.39-.4-.89-.4-1.49,0-.7.13-1.33.39-1.89.26-.55.62-.99,1.07-1.29.45-.31.96-.46,1.53-.46.3,0,.7.02,1.2.05l-.38,5.55h-1.07l.08-.89-.32.34ZM16.54,194.23c.17,0,.35-.08.54-.24.19-.16.42-.4.69-.72l.38-2.88c-.11-.03-.23-.04-.35-.04-.29,0-.57.08-.81.24-.25.16-.45.37-.61.62-.16.26-.28.54-.37.85s-.13.62-.13.94c0,.36.05.65.16.89s.27.35.5.35Z"/>
        <path class="uuid-d02c2c57-80d2-44bf-b045-b771c8cde3ce" d="M22.88,190.53c-.38,0-.8.19-1.26.58l-.29,3.9h-1.12l.53-4.21-.16-1.29h1.14l-.06.92c.73-.69,1.3-1.03,1.69-1.03.1,0,.19,0,.26.02l.09,1.29h-.02c-.23-.13-.5-.19-.81-.19Z"/>
        <path class="uuid-d02c2c57-80d2-44bf-b045-b771c8cde3ce" d="M26.89,194.81c-.12.09-.28.16-.47.22-.19.06-.37.09-.54.09-.49,0-.85-.17-1.06-.5-.21-.34-.28-.82-.19-1.45l.4-2.88-.88-.05v-.11l1.84-1.89h.21l-.16,1.32,1.36-.15-.05,1.01-1.4-.08-.3,2.58c-.03.27-.04.51-.03.71,0,.21.06.38.16.5.1.13.26.19.48.19.2,0,.43-.07.7-.21h.02l-.09.68Z"/>
      </g>
    </g>
  </g>
  <g id="uuid-48416bc1-be9b-418c-b202-83f5f57eaae5" data-name="entry points">
    <g>
      <circle class="uuid-bf7228ca-7579-4164-af47-5368e410198b" cx="76.35" cy="176.66" r="2.5"/>
      <path class="uuid-d02c2c57-80d2-44bf-b045-b771c8cde3ce" d="M76.35,174.66c1.1,0,2,.9,2,2s-.9,2-2,2-2-.9-2-2,.9-2,2-2M76.35,173.66c-1.65,0-3,1.35-3,3s1.35,3,3,3,3-1.35,3-3-1.35-3-3-3h0Z"/>
    </g>
    <g>
      <circle class="uuid-bf7228ca-7579-4164-af47-5368e410198b" cx="101.13" cy="136.83" r="2.5"/>
      <path class="uuid-d02c2c57-80d2-44bf-b045-b771c8cde3ce" d="M101.13,134.83c1.1,0,2,.9,2,2s-.9,2-2,2-2-.9-2-2,.9-2,2-2M101.13,133.83c-1.65,0-3,1.35-3,3s1.35,3,3,3,3-1.35,3-3-1.35-3-3-3h0Z"/>
    </g>
  </g>
  <g id="uuid-4ce98b2e-d96e-4ca1-8b8c-ed3ec739f5ec" data-name="sides">
    <g>
      <g>
        <polyline class="uuid-3f61c0cb-fb90-4611-84d5-7f2798fa3cb4" points="77.18 164.36 77.17 163.25 77.02 156.68 75.91 150.21 73.91 144 70.7 138.37 65.83 134.07 60.14 130.73 53.59 129.76 47.15 128.65 42.12 127.98"/>
        <polygon class="uuid-9f880391-b40e-4cfd-a757-220c03ef132e" points="43.31 125.12 37.84 127.55 42.68 131.07 43.31 125.12"/>
      </g>
      <g>
        <polyline class="uuid-6473fe60-2bcc-41db-8f72-37862de29bb5" points="145.65 176.37 140.74 175.94 134.31 176.15 127.88 176.14 121.46 176.54 115.03 176.73 108.6 176.19 102.17 176.23 95.75 176.3 89.32 176.58 82.89 176.67 80.66 176.66"/>
        <polygon class="uuid-bf7228ca-7579-4164-af47-5368e410198b" points="81.54 173.67 76.35 176.66 81.53 179.66 81.54 173.67"/>
      </g>
      <g>
        <polyline class="uuid-3f61c0cb-fb90-4611-84d5-7f2798fa3cb4" points="189.82 129.67 184.33 129.9 178.01 130.81 172.12 133.25 166.59 136.26 161.31 139.84 158.06 145.34 155.61 151.16 154.42 157.38 153.07 163.63 153.02 168.18"/>
        <polygon class="uuid-9f880391-b40e-4cfd-a757-220c03ef132e" points="150.02 167.44 153.26 172.47 156 167.16 150.02 167.44"/>
      </g>
      <g>
        <polyline class="uuid-3f61c0cb-fb90-4611-84d5-7f2798fa3cb4" points="176.02 59.97 177.79 56.36 181.51 50.53 187.48 47.17 193.28 50.11 196.98 55.7 198.15 62.32 199.11 68.94 199.67 75.6 199.86 82.29 199.4 88.98 199.62 95.67 199.43 102.37 198.49 109.01 198.48 115.71 197.67 120.11"/>
        <polygon class="uuid-9f880391-b40e-4cfd-a757-220c03ef132e" points="194.85 118.83 197.1 124.38 200.78 119.66 194.85 118.83"/>
      </g>
      <g>
        <polyline class="uuid-3f61c0cb-fb90-4611-84d5-7f2798fa3cb4" points="141.6 34.08 144.19 28.91 147.43 23.32 153.51 21.33 159.32 23.82 162.6 29.43 164.4 35.71 165.61 42.15 165.98 48.7 166.54 55.23 166.85 61.78 166.61 64.05"/>
        <polygon class="uuid-9f880391-b40e-4cfd-a757-220c03ef132e" points="163.73 62.86 166.16 68.33 169.68 63.5 163.73 62.86"/>
      </g>
      <g>
        <polyline class="uuid-3f61c0cb-fb90-4611-84d5-7f2798fa3cb4" points="99.98 29.51 100.26 26.85 101.43 20.43 103.38 14.22 105.94 8.32 109.57 2.91 115.94 1.06 121.95 3.44 125.83 8.44 128.79 14.22 130.2 20.58 130.99 27.04 132.22 33.44 132.69 39.93 132.73 41.44"/>
        <polygon class="uuid-9f880391-b40e-4cfd-a757-220c03ef132e" points="129.72 40.64 132.84 45.74 135.7 40.49 129.72 40.64"/>
      </g>
      <g>
        <polyline class="uuid-3f61c0cb-fb90-4611-84d5-7f2798fa3cb4" points="67.67 54.83 67.66 51.4 68.2 45.1 69.88 38.97 70.61 32.69 73.21 26.95 76.3 21.56 81.96 19.29 88.15 21.37 91.22 27.21 94.07 33.19 95.35 39.69 95.55 41.01"/>
        <polygon class="uuid-9f880391-b40e-4cfd-a757-220c03ef132e" points="92.46 40.58 96.18 45.27 98.38 39.71 92.46 40.58"/>
      </g>
      <g>
        <polyline class="uuid-3f61c0cb-fb90-4611-84d5-7f2798fa3cb4" points="33.3 117.75 33.31 114.49 33.24 108.14 32.71 101.8 33.03 95.44 32.61 89.09 32.78 82.74 33.52 76.42 33.68 70.07 34.34 63.74 35.74 57.52 38.26 51.67 42.01 46.52 48.02 44.65 54.33 46.14 58.4 51.35 60.68 57.57 62.07 64.02 62.73 66.2"/>
        <polygon class="uuid-9f880391-b40e-4cfd-a757-220c03ef132e" points="59.62 66.23 63.98 70.32 65.34 64.5 59.62 66.23"/>
      </g>
      <g>
        <polyline class="uuid-6473fe60-2bcc-41db-8f72-37862de29bb5" points="101.13 136.83 98.42 135.31 94.27 129.98 91.31 123.96 89.42 117.47 88.85 110.69 89.55 103.91 90.91 97.24 94.07 91.24 98.5 86.17 104.14 82.4 110.61 80.06 117.49 79.89 124.27 80.52 130.95 82.13 136.53 86.11 141.29 91.02 144.07 97.27 145.29 103.94 146.04 110.69 145.15 117.33 143.74 123.88 140.35 129.66 135.9 134.58 130.4 138.27 124.27 141.14 117.49 141.79 110.65 141.18 110.2 141"/>
        <polygon class="uuid-bf7228ca-7579-4164-af47-5368e410198b" points="112.13 138.5 106.21 139.39 109.94 144.07 112.13 138.5"/>
      </g>
    </g>
  </g>
  <g id="uuid-be9931d9-0cc3-4ad5-ab2d-e3a40cace53d" data-name="side numbers">
    <g>
      <path class="uuid-9f880391-b40e-4cfd-a757-220c03ef132e" d="M80.16,160.15c0-2.03.33-3.99.88-5.87-1.75.68-3.26.96-4.89.96-1.63,0-3.14-.28-4.89-.96.55,1.88.88,3.85.88,5.87,0,2.03-.33,3.99-.88,5.87,1.75-.68,3.26-.96,4.89-.96,1.63,0,3.14.28,4.89.96-.55-1.88-.88-3.85-.88-5.87Z"/>
      <path class="uuid-718cba17-5d7d-45ae-be0e-7fd31e10ce46" d="M73.73,163.49v-.09l2.11-2.94c.35-.48.58-.84.71-1.09.12-.25.19-.5.19-.74,0-.28-.09-.49-.27-.63s-.41-.22-.7-.22c-.43,0-.88.19-1.35.58h-.09l.16-1.39c.16-.08.38-.16.66-.22.28-.06.55-.09.8-.09.33,0,.63.05.9.15.26.1.48.23.64.4.16.17.29.36.37.57.08.21.13.44.13.68,0,.42-.08.81-.25,1.18-.17.37-.45.81-.86,1.31l-1.36,1.68,2.83-.59h.09l-.2,1.46h-4.5Z"/>
    </g>
    <g>
      <path class="uuid-9f880391-b40e-4cfd-a757-220c03ef132e" d="M192.34,129.78c0-2.03.33-3.99.88-5.87-1.75.68-3.26.96-4.89.96-1.63,0-3.14-.28-4.89-.96.55,1.88.88,3.85.88,5.87,0,2.03-.33,3.99-.88,5.87,1.75-.68,3.26-.96,4.89-.96,1.63,0,3.14.28,4.89.96-.55-1.88-.88-3.85-.88-5.87Z"/>
      <path class="uuid-718cba17-5d7d-45ae-be0e-7fd31e10ce46" d="M188.33,133.21c-.29,0-.56-.04-.82-.12-.25-.08-.47-.19-.65-.33-.18-.14-.34-.3-.47-.48-.13-.18-.23-.37-.29-.56-.06-.2-.09-.39-.09-.59,0-.8.34-1.35,1.03-1.65-.48-.38-.72-.89-.72-1.52,0-.49.18-.89.54-1.2.36-.31.85-.47,1.46-.47s1.1.16,1.46.47c.36.31.54.71.54,1.2,0,.32-.07.61-.2.87-.13.26-.31.48-.53.65.35.15.6.37.78.65.17.28.26.62.26,1,0,.25-.05.5-.15.75-.1.25-.25.47-.44.67-.19.2-.43.36-.73.49-.3.12-.63.19-.99.19ZM187.86,132.11c.14.07.3.11.47.11s.33-.04.47-.1c.14-.07.25-.16.34-.27.08-.11.15-.24.2-.37.04-.13.07-.26.07-.4,0-.3-.1-.54-.29-.74s-.45-.29-.79-.29-.6.1-.79.29c-.19.19-.28.44-.28.74,0,.13.02.26.07.39.05.13.11.25.2.37.08.11.2.21.34.28ZM187.77,128.79c.13.19.32.29.56.29s.43-.09.56-.28c.13-.19.2-.41.2-.65,0-.2-.07-.37-.2-.51-.13-.15-.32-.22-.56-.22s-.43.07-.57.22c-.13.15-.2.32-.2.51,0,.24.07.46.2.65Z"/>
    </g>
    <g>
      <path class="uuid-bf7228ca-7579-4164-af47-5368e410198b" d="M112.33,80.01c0-3.86,1.91-5.77,4.87-5.77,2.96,0,4.87,1.9,4.87,5.77,0,3.86-1.91,5.77-4.87,5.77-2.96,0-4.87-1.9-4.87-5.77Z"/>
      <path class="uuid-718cba17-5d7d-45ae-be0e-7fd31e10ce46" d="M116.58,83.35l.35-5.14-1.24.47v-.72l1.56-1.37h.73l.19,6.75h-1.59Z"/>
    </g>
    <g>
      <path class="uuid-9f880391-b40e-4cfd-a757-220c03ef132e" d="M28.28,117.24c0-3.86,1.91-5.77,4.87-5.77,2.96,0,4.87,1.9,4.87,5.77,0,3.86-1.91,5.77-4.87,5.77-2.96,0-4.87-1.9-4.87-5.77Z"/>
      <path class="uuid-718cba17-5d7d-45ae-be0e-7fd31e10ce46" d="M32.77,120.67c-.49,0-.97-.09-1.44-.27l-.18-1.36h.09c.39.23.71.39.95.49.24.1.49.15.73.15.33,0,.59-.1.79-.3.19-.2.29-.47.29-.8,0-.36-.13-.63-.39-.83s-.61-.29-1.05-.29c-.2,0-.39.02-.58.07v-.24l1.26-2.48-2.17.33h-.09l.18-1.3h4.07v.09l-1.93,2.65c.67.04,1.16.24,1.48.59.32.36.49.81.49,1.36,0,.2-.02.39-.07.58-.05.19-.13.38-.25.57-.12.19-.27.36-.46.51-.18.15-.42.26-.71.35-.29.09-.62.14-.99.14Z"/>
    </g>
    <g>
      <path class="uuid-9f880391-b40e-4cfd-a757-220c03ef132e" d="M62.78,54.02c0-3.86,1.91-5.77,4.87-5.77,2.96,0,4.87,1.9,4.87,5.77,0,3.86-1.91,5.77-4.87,5.77-2.96,0-4.87-1.9-4.87-5.77Z"/>
      <path class="uuid-718cba17-5d7d-45ae-be0e-7fd31e10ce46" d="M70.63,55.51h-1.58l.13,1.85h-1.45l.13-1.85h-3.17v-.46l4.29-4.54h.29l-.24,4h1.61v1ZM67.87,54.52l-.08-1.54-1.49,1.54h1.56Z"/>
    </g>
    <g>
      <path class="uuid-9f880391-b40e-4cfd-a757-220c03ef132e" d="M95.33,27.8c0-3.86,1.91-5.77,4.87-5.77,2.96,0,4.87,1.9,4.87,5.77,0,3.86-1.91,5.77-4.87,5.77-2.96,0-4.87-1.9-4.87-5.77Z"/>
      <path class="uuid-718cba17-5d7d-45ae-be0e-7fd31e10ce46" d="M99.87,31.23c-.51,0-1.02-.09-1.53-.29l-.18-1.37h.09c.4.24.73.41.99.51.26.1.49.15.7.15.33,0,.58-.1.75-.3.18-.2.26-.46.26-.79,0-.3-.11-.54-.32-.72-.22-.18-.5-.27-.86-.27-.31,0-.66.09-1.04.28h-.13l-.27-4.05h3.57l.18,1.3h-.09l-2.37-.36-.14,1.9c.26-.08.48-.12.65-.12.62,0,1.12.18,1.49.54s.57.82.57,1.39c0,.22-.03.43-.08.63s-.13.4-.25.59c-.12.19-.26.36-.44.5-.18.14-.4.26-.67.34-.27.09-.58.13-.91.13Z"/>
    </g>
    <g>
      <path class="uuid-9f880391-b40e-4cfd-a757-220c03ef132e" d="M136.8,36.31c0-3.86,1.91-5.77,4.87-5.77,2.96,0,4.87,1.9,4.87,5.77,0,3.86-1.91,5.77-4.87,5.77-2.96,0-4.87-1.9-4.87-5.77Z"/>
      <path class="uuid-718cba17-5d7d-45ae-be0e-7fd31e10ce46" d="M143.97,37.41c0,.28-.05.56-.15.83s-.25.52-.44.74-.43.4-.73.54c-.3.14-.63.21-.99.21-.3,0-.57-.05-.82-.14-.25-.09-.47-.21-.64-.36-.18-.15-.33-.33-.45-.52s-.21-.41-.27-.62-.09-.43-.09-.65c0-.18.03-.38.08-.59.05-.21.11-.39.17-.55s.16-.35.29-.58c.13-.23.22-.4.28-.49.06-.1.16-.26.3-.48l1.18-1.85h1.83v.09l-2.61,2.74c.32-.22.66-.33,1.02-.33s.7.08,1.01.25c.31.17.56.41.74.72s.28.66.28,1.05ZM140.57,37.55c0,.13.02.27.07.41s.11.27.2.38c.09.12.21.21.35.29.15.07.3.11.48.11.23,0,.44-.06.61-.19.17-.12.3-.28.38-.45.08-.18.12-.36.12-.55,0-.3-.1-.55-.3-.75-.2-.2-.47-.3-.83-.3-.28,0-.54.09-.76.28-.22.19-.33.45-.33.77Z"/>
    </g>
    <g>
      <path class="uuid-9f880391-b40e-4cfd-a757-220c03ef132e" d="M170.86,60.84c0-3.86,1.91-5.77,4.87-5.77,2.96,0,4.87,1.9,4.87,5.77,0,3.86-1.91,5.77-4.87,5.77-2.96,0-4.87-1.9-4.87-5.77Z"/>
      <path class="uuid-718cba17-5d7d-45ae-be0e-7fd31e10ce46" d="M173.84,64.18v-.09l2.87-5.45h-3.09v-1.21h4.47v.09l-2.58,6.66h-1.67Z"/>
    </g>
    <g>
      <rect class="uuid-bf7228ca-7579-4164-af47-5368e410198b" x="138.4" y="172.16" width="10.97" height="8.61" transform="translate(320.35 32.58) rotate(90)"/>
      <path class="uuid-718cba17-5d7d-45ae-be0e-7fd31e10ce46" d="M143.26,179.8l.35-5.14-1.24.47v-.72l1.56-1.37h.73l.19,6.75h-1.59Z"/>
    </g>
  </g>
  <g id="uuid-802224c0-36d2-4de1-8e8c-569e3220d070" data-name="translation">
    <g>
      <rect class="uuid-4c355ab4-3033-468b-9021-c1ad70b76373" x="165.25" y="222.72" width="13" height="26"/>
      <g>
        <path class="uuid-d02c2c57-80d2-44bf-b045-b771c8cde3ce" d="M169.41,233.47l.21-3.55-.21-3.2h1.62l-.2,3.2.2,3.55h-1.62Z"/>
        <path class="uuid-d02c2c57-80d2-44bf-b045-b771c8cde3ce" d="M172.48,233.47l.21-3.55-.21-3.2h1.62l-.2,3.2.2,3.55h-1.62Z"/>
      </g>
      <path class="uuid-9f880391-b40e-4cfd-a757-220c03ef132e" d="M171.14,244.76l.35-5.14-1.24.47v-.72l1.56-1.37h.73l.19,6.75h-1.59Z"/>
      <path class="uuid-9f880391-b40e-4cfd-a757-220c03ef132e" d="M74.8,276.55h-1.09c-.26-2.79-1.93-4.3-5.32-4.3h-5.01c-4.09,0-6.44-1.54-6.44-5.58h1.15c0,3.31,1.9,4.28,5.29,4.28h5.01c3.55,0,5.19,1.36,5.87,3.7.68-2.35,2.32-3.7,5.87-3.7h5.01c3.39,0,5.29-.96,5.29-4.28h1.15c0,4.04-2.35,5.58-6.44,5.58h-5.01c-3.39,0-5.06,1.51-5.32,4.3Z"/>
      <path class="uuid-9f880391-b40e-4cfd-a757-220c03ef132e" d="M113.8,276.55h-1.09c-.26-2.79-1.93-4.3-5.32-4.3h-5.01c-4.09,0-6.44-1.54-6.44-5.58h1.15c0,3.31,1.9,4.28,5.29,4.28h5.01c3.55,0,5.19,1.36,5.87,3.7.68-2.35,2.32-3.7,5.87-3.7h5.01c3.39,0,5.29-.96,5.29-4.28h1.15c0,4.04-2.35,5.58-6.44,5.58h-5.01c-3.39,0-5.06,1.51-5.32,4.3Z"/>
      <path class="uuid-9f880391-b40e-4cfd-a757-220c03ef132e" d="M156.05,276.55h-1.09c-.26-2.79-1.93-4.3-5.32-4.3h-8.24c-4.09,0-6.44-1.54-6.44-5.58h1.15c0,3.31,1.9,4.28,5.29,4.28h8.24c3.55,0,5.19,1.36,5.87,3.7.68-2.35,2.32-3.7,5.87-3.7h8.24c3.39,0,5.29-.96,5.29-4.28h1.15c0,4.04-2.35,5.58-6.44,5.58h-8.24c-3.39,0-5.06,1.51-5.32,4.3Z"/>
      <path class="uuid-9f880391-b40e-4cfd-a757-220c03ef132e" d="M75.31,291.91h-2.04l.24-5.41-4.24-6.56v-.03h2.18l2.98,5.57,2.83-5.57h1.98v.03l-4.19,6.53.26,5.44Z"/>
      <path class="uuid-9f880391-b40e-4cfd-a757-220c03ef132e" d="M113.27,292.07c-1.15,0-2.16-.28-3.05-.83s-1.57-1.3-2.05-2.24-.71-1.99-.71-3.15c0-.92.15-1.76.45-2.53s.7-1.41,1.22-1.93,1.13-.92,1.84-1.21,1.48-.43,2.3-.43,1.58.14,2.29.43,1.32.69,1.84,1.21.92,1.16,1.22,1.93.45,1.61.45,2.53c0,1.14-.24,2.17-.71,3.11s-1.15,1.69-2.04,2.26-1.9.85-3.04.85ZM113.27,290.69c.57,0,1.11-.11,1.61-.34s.94-.55,1.31-.96.66-.93.87-1.55.32-1.3.32-2.04c0-1.34-.38-2.42-1.13-3.24s-1.75-1.23-2.98-1.23-2.22.41-2.98,1.23-1.14,1.89-1.14,3.22c0,.75.11,1.43.32,2.05s.5,1.14.87,1.55.81.74,1.31.96,1.04.34,1.62.34Z"/>
      <path class="uuid-9f880391-b40e-4cfd-a757-220c03ef132e" d="M155.52,290.69c.97,0,1.74-.33,2.3-.98s.84-1.62.84-2.88l-.29-6.91h1.94l-.19,6.91c0,1.64-.4,2.92-1.2,3.85s-1.93,1.39-3.4,1.39-2.6-.46-3.41-1.39-1.21-2.21-1.21-3.85l-.2-6.91h1.94l-.29,6.91c0,1.26.29,2.22.86,2.88s1.34.99,2.31.99Z"/>
      <path class="uuid-9f880391-b40e-4cfd-a757-220c03ef132e" d="M82.38,258.47c0-3.87,2.01-5.89,4.87-5.89,2.87,0,4.87,2.02,4.87,5.89,0,3.87-2.01,5.89-4.87,5.89-2.87,0-4.87-2.02-4.87-5.89Z"/>
      <path class="uuid-9f880391-b40e-4cfd-a757-220c03ef132e" d="M95.38,258.47c0-3.87,2.01-5.89,4.87-5.89,2.87,0,4.87,2.02,4.87,5.89,0,3.87-2.01,5.89-4.87,5.89-2.87,0-4.87-2.02-4.87-5.89Z"/>
      <path class="uuid-9f880391-b40e-4cfd-a757-220c03ef132e" d="M108.38,258.47c0-3.87,2.01-5.89,4.87-5.89,2.87,0,4.87,2.02,4.87,5.89,0,3.87-2.01,5.89-4.87,5.89-2.87,0-4.87-2.02-4.87-5.89Z"/>
      <path class="uuid-9f880391-b40e-4cfd-a757-220c03ef132e" d="M121.38,258.47c0-3.87,2.01-5.89,4.87-5.89,2.87,0,4.87,2.02,4.87,5.89,0,3.87-2.01,5.89-4.87,5.89-2.87,0-4.87-2.02-4.87-5.89Z"/>
      <path class="uuid-9f880391-b40e-4cfd-a757-220c03ef132e" d="M134.38,258.47c0-3.87,2.01-5.89,4.87-5.89,2.87,0,4.87,2.02,4.87,5.89,0,3.87-2.01,5.89-4.87,5.89-2.87,0-4.87-2.02-4.87-5.89Z"/>
      <path class="uuid-9f880391-b40e-4cfd-a757-220c03ef132e" d="M166.88,258.47c0-3.87,2.01-5.89,4.87-5.89,2.87,0,4.87,2.02,4.87,5.89,0,3.87-2.01,5.89-4.87,5.89-2.87,0-4.87-2.02-4.87-5.89Z"/>
      <rect class="uuid-9f880391-b40e-4cfd-a757-220c03ef132e" x="56.07" y="254.16" width="10.97" height="8.61" transform="translate(320.02 196.91) rotate(90)"/>
      <path class="uuid-9f880391-b40e-4cfd-a757-220c03ef132e" d="M70.61,258.47c0-2.03-.43-3.96-1.25-5.87,1.66,1,3.24,1.37,4.89,1.37,1.64,0,3.23-.37,4.89-1.37-.82,1.91-1.25,3.85-1.25,5.87,0,2.03.43,3.96,1.25,5.87-1.66-1-3.24-1.37-4.89-1.37-1.64,0-3.23.37-4.89,1.37.82-1.91,1.25-3.85,1.25-5.87Z"/>
      <path class="uuid-9f880391-b40e-4cfd-a757-220c03ef132e" d="M148.61,258.47c0-2.03-.43-3.96-1.25-5.87,1.66,1,3.24,1.37,4.89,1.37,1.64,0,3.23-.37,4.89-1.37-.82,1.91-1.25,3.85-1.25,5.87,0,2.03.43,3.96,1.25,5.87-1.66-1-3.24-1.37-4.89-1.37-1.64,0-3.23.37-4.89,1.37.82-1.91,1.25-3.85,1.25-5.87Z"/>
      <rect class="uuid-4c355ab4-3033-468b-9021-c1ad70b76373" x="54.75" y="222.72" width="104" height="26"/>
      <path class="uuid-d02c2c57-80d2-44bf-b045-b771c8cde3ce" d="M60.32,233.47l.21-3.55-.21-3.2h1.62l-.2,3.2.2,3.55h-1.62Z"/>
      <path class="uuid-9f880391-b40e-4cfd-a757-220c03ef132e" d="M60.64,244.76l.35-5.14-1.24.47v-.72l1.56-1.37h.73l.19,6.75h-1.59Z"/>
      <path class="uuid-9f880391-b40e-4cfd-a757-220c03ef132e" d="M71.83,244.76v-.09l2.11-2.94c.35-.48.58-.84.71-1.09.12-.25.19-.5.19-.74,0-.28-.09-.49-.27-.63s-.41-.22-.7-.22c-.43,0-.88.19-1.35.58h-.09l.16-1.39c.16-.08.38-.16.66-.22.28-.06.55-.09.8-.09.33,0,.63.05.9.15.26.1.48.23.64.4.16.17.29.36.37.57.08.21.13.44.13.68,0,.42-.08.81-.25,1.18-.17.37-.45.81-.86,1.31l-1.36,1.68,2.83-.59h.09l-.2,1.46h-4.5Z"/>
      <path class="uuid-9f880391-b40e-4cfd-a757-220c03ef132e" d="M86.88,244.85c-.49,0-.97-.09-1.44-.27l-.18-1.36h.09c.39.23.71.39.95.49.24.1.49.15.73.15.33,0,.59-.1.79-.3.19-.2.29-.47.29-.8,0-.36-.13-.63-.39-.83s-.61-.29-1.05-.29c-.2,0-.39.02-.58.07v-.24l1.26-2.48-2.17.33h-.09l.18-1.3h4.07v.09l-1.93,2.65c.66.04,1.16.24,1.48.59.32.36.49.81.49,1.36,0,.2-.02.39-.07.58-.05.19-.13.38-.25.57-.12.19-.27.36-.46.51-.18.15-.42.26-.71.35-.29.09-.62.14-.99.14Z"/>
      <path class="uuid-9f880391-b40e-4cfd-a757-220c03ef132e" d="M103.23,242.92h-1.58l.13,1.85h-1.45l.13-1.85h-3.17v-.46l4.29-4.54h.29l-.24,3.99h1.61v1ZM100.47,241.92l-.07-1.54-1.49,1.54h1.56Z"/>
      <path class="uuid-9f880391-b40e-4cfd-a757-220c03ef132e" d="M112.92,244.85c-.51,0-1.02-.09-1.53-.29l-.18-1.37h.09c.4.24.73.41.99.51.26.1.49.15.7.15.33,0,.58-.1.75-.3.18-.2.26-.46.26-.79,0-.3-.11-.54-.32-.72-.22-.18-.5-.27-.86-.27-.31,0-.66.09-1.04.28h-.13l-.27-4.05h3.57l.18,1.3h-.09l-2.37-.36-.14,1.9c.26-.08.48-.12.65-.12.62,0,1.12.18,1.49.54.38.36.57.82.57,1.39,0,.22-.03.43-.08.63s-.13.4-.25.59c-.12.19-.26.36-.44.5-.18.14-.4.26-.67.34-.27.09-.58.13-.91.13Z"/>
      <path class="uuid-9f880391-b40e-4cfd-a757-220c03ef132e" d="M128.55,242.53c0,.28-.05.56-.15.83-.1.27-.25.52-.44.74s-.43.4-.73.54c-.3.14-.63.21-.99.21-.3,0-.57-.05-.82-.14-.25-.09-.47-.21-.64-.36-.18-.15-.32-.33-.45-.52s-.21-.41-.27-.62-.09-.43-.09-.65c0-.18.03-.38.08-.59.05-.21.11-.39.17-.55.06-.16.16-.35.29-.58.13-.23.22-.4.28-.49.06-.1.16-.26.3-.48l1.18-1.85h1.83v.09l-2.61,2.74c.32-.22.66-.33,1.02-.33s.7.08,1.01.25c.31.17.56.41.75.72.19.31.28.66.28,1.05ZM125.15,242.67c0,.13.02.27.07.41s.12.27.2.38c.09.12.2.21.35.29.15.07.3.11.48.11.23,0,.44-.06.61-.19.17-.12.3-.28.38-.46.08-.18.12-.36.12-.55,0-.3-.1-.55-.3-.75-.2-.2-.47-.3-.83-.3-.28,0-.54.09-.76.28-.22.19-.33.45-.33.77Z"/>
      <path class="uuid-9f880391-b40e-4cfd-a757-220c03ef132e" d="M137.36,244.76v-.09l2.87-5.45h-3.09v-1.21h4.47v.09l-2.58,6.66h-1.67Z"/>
      <path class="uuid-9f880391-b40e-4cfd-a757-220c03ef132e" d="M152.26,244.85c-.29,0-.56-.04-.81-.12-.25-.08-.47-.19-.65-.33-.18-.14-.34-.3-.47-.48-.13-.18-.23-.37-.29-.56-.06-.2-.09-.39-.09-.59,0-.8.34-1.35,1.03-1.65-.48-.38-.72-.89-.72-1.52,0-.49.18-.89.54-1.2.36-.31.85-.47,1.46-.47s1.1.16,1.46.47c.36.31.54.71.54,1.2,0,.32-.07.61-.2.87-.13.26-.31.48-.53.65.35.15.6.37.78.65.17.28.26.62.26,1,0,.25-.05.5-.15.75-.1.25-.25.47-.44.67-.19.2-.43.36-.73.49-.3.12-.63.19-.99.19ZM151.79,243.76c.14.07.3.11.47.11s.33-.04.47-.1c.14-.07.25-.16.34-.27.08-.11.15-.24.2-.37.04-.13.07-.26.07-.4,0-.3-.09-.54-.29-.74s-.45-.29-.79-.29-.6.1-.79.29c-.19.19-.28.44-.28.74,0,.13.02.26.07.39.05.13.11.25.2.37.08.11.2.21.34.28ZM151.7,240.43c.13.19.32.29.56.29s.43-.09.56-.28c.13-.19.2-.41.2-.65,0-.2-.07-.37-.2-.51-.13-.15-.32-.22-.57-.22s-.43.07-.56.22c-.13.15-.2.32-.2.51,0,.24.07.46.2.65Z"/>
    </g>
  </g>
</svg>