<?xml version="1.0" encoding="UTF-8"?>
<svg id="Letters" xmlns="http://www.w3.org/2000/svg" viewBox="0 0 1774.54 220.2">
  <defs>
    <style>
      .cls-1 {
        fill: #f25b4c;
      }

      .cls-2 {
        fill: #472312;
      }

      .cls-3 {
        fill: #2b778e;
      }
    </style>
  </defs>
  <rect class="cls-2" x="1300.04" y="81.8" width="40" height="16"/>
  <path class="cls-1" d="M1320.04,54.6c-6.8,0-13.6-1.6-20-5.2v20.8c6.4-3.6,13.2-5.2,20-5.2,6.8,0,13.6,1.6,20,5.2v-20.8c-6.4,3.6-13.2,5.2-20,5.2"/>
  <path class="cls-1" d="M1320.04,114.6c-6.8,0-13.6-1.6-20-5.2v20.8c6.4-3.6,13.2-5.2,20-5.2,6.8,0,13.6,1.6,20,5.2v-20.8c-6.4,3.6-13.2,5.2-20,5.2"/>
  <path d="M1320.06,31.88c-2.58,0-4.8-.47-6.66-1.42-1.86-.95-3.28-2.36-4.26-4.26-.97-1.89-1.46-4.23-1.46-7.01V.88h5.29v18.4c0,2.58.57,4.57,1.72,5.98,1.15,1.41,2.95,2.11,5.42,2.11s4.14-.7,5.29-2.11c1.15-1.4,1.72-3.4,1.72-5.98V.88h5.29v18.32c0,2.81-.5,5.15-1.51,7.03-1,1.88-2.43,3.29-4.28,4.24-1.85.95-4.04,1.42-6.56,1.42Z"/>
  <path class="cls-3" d="M520.02,55.2v9.2c6.4,3.2,13.2,5.2,20,5.2,6.8,0,13.6-2,20-5.2v-9.2c-6.4-3.2-13.2-5.2-20-5.2s-13.6,2-20,5.2"/>
  <path class="cls-3" d="M520.02,85.2v9.2c6.4,3.2,13.2,5.2,20,5.2,6.8,0,13.6-2,20-5.2v-9.2c-6.4-3.2-13.2-5.2-20-5.2s-13.6,2-20,5.2"/>
  <path class="cls-3" d="M520.02,115.2v9.2c6.4,3.2,13.2,5.2,20,5.2,6.8,0,13.6-2,20-5.2v-9.2c-6.4-3.2-13.2-5.2-20-5.2s-13.6,2-20,5.2"/>
  <path d="M537.42,31.41V.88h5.2v30.53h-5.2Z"/>
  <path class="cls-3" d="M845.03,55.2v9.2c6.4,3.2,13.2,5.2,20,5.2s13.6-2,20-5.2v-9.2c-6.4-3.2-13.2-5.2-20-5.2-6.8,0-13.6,2-20,5.2"/>
  <path class="cls-3" d="M845.03,85.2v9.2c6.4,3.2,13.2,5.2,20,5.2s13.6-2,20-5.2v-9.2c-6.4-3.2-13.2-5.2-20-5.2-6.8,0-13.6,2-20,5.2"/>
  <rect class="cls-2" x="845.03" y="111.8" width="40" height="16"/>
  <path d="M852.69,31.41V.88h3.57l1.59,7.96v22.58h-5.16ZM874.23,31.41l-17.67-22.79-3.78-7.74h3.48l16.94,21.63,4.08,8.9h-3.05ZM874.23,31.41l-2.02-9.25V.88h5.2v30.53h-3.18Z"/>
  <path class="cls-3" d="M780.02,55.2v9.2c6.4,3.2,13.2,5.2,20,5.2,6.8,0,13.6-2,20-5.2v-9.2c-6.4-3.2-13.2-5.2-20-5.2s-13.6,2-20,5.2"/>
  <path class="cls-3" d="M780.02,85.2v9.2c6.4,3.2,13.2,5.2,20,5.2,6.8,0,13.6-2,20-5.2v-9.2c-6.4-3.2-13.2-5.2-20-5.2s-13.6,2-20,5.2"/>
  <path class="cls-3" d="M780.02,145.2v9.2c6.4,3.2,13.2,5.2,20,5.2,6.8,0,13.6-2,20-5.2v-9.2c-6.4-3.2-13.2-5.2-20-5.2s-13.6,2-20,5.2"/>
  <path class="cls-1" d="M800.03,114.6c-6.8,0-13.6-1.6-20-5.2v20.8c6.4-3.6,13.2-5.2,20-5.2,6.8,0,13.6,1.6,20,5.2v-20.8c-6.4,3.6-13.2,5.2-20,5.2"/>
  <path d="M785.25,31.41V.88h3.74l1.42,10.36v20.17h-5.16ZM798.89,23.15l-9.98-14.96-3.61-7.31h4.08l10.41,15.65,1.25,2.62h-1.93l1.2-2.62,10.36-15.65h4.08l-3.44,7.01-10.15,15.27h-2.28ZM809.64,31.41V11.2l1.38-10.32h3.78v30.53h-5.16Z"/>
  <path class="cls-3" d="M325.01,55.2v9.2c6.4,3.2,13.2,5.2,20,5.2s13.6-2,20-5.2v-9.2c-6.4-3.2-13.2-5.2-20-5.2-6.8,0-13.6,2-20,5.2"/>
  <path class="cls-3" d="M325.01,85.2v9.2c6.4,3.2,13.2,5.2,20,5.2s13.6-2,20-5.2v-9.2c-6.4-3.2-13.2-5.2-20-5.2-6.8,0-13.6,2-20,5.2"/>
  <rect class="cls-2" x="325.01" y="141.8" width="40" height="16"/>
  <path class="cls-1" d="M345.01,114.6c-6.8,0-13.6-1.6-20-5.2v20.8c6.4-3.6,13.2-5.2,20-5.2,6.8,0,13.6,1.6,20,5.2v-20.8c-6.4,3.6-13.2,5.2-20,5.2"/>
  <path d="M335.85,31.41V.88h5.2v30.53h-5.2ZM336.76,5.48V.88h19.26v4.6h-19.26ZM336.76,20.53v-4.56h17.85v4.56h-17.85Z"/>
  <path class="cls-3" d="M975.03,55.2v9.2c6.4,3.2,13.2,5.2,20,5.2s13.6-2,20-5.2v-9.2c-6.4-3.2-13.2-5.2-20-5.2s-13.6,2-20,5.2"/>
  <path class="cls-3" d="M975.03,85.2v9.2c6.4,3.2,13.2,5.2,20,5.2s13.6-2,20-5.2v-9.2c-6.4-3.2-13.2-5.2-20-5.2s-13.6,2-20,5.2"/>
  <path class="cls-1" d="M995.03,114.6c-6.8,0-13.6-1.6-20-5.2v20.8c6.4-3.6,13.2-5.2,20-5.2,6.8,0,13.6,1.6,20,5.2v-20.8c-6.4,3.6-13.2,5.2-20,5.2"/>
  <path class="cls-1" d="M995.03,144.6c-6.8,0-13.6-1.6-20-5.2v20.8c6.4-3.6,13.2-5.2,20-5.2,6.8,0,13.6,1.6,20,5.2v-20.8c-6.4,3.6-13.2,5.2-20,5.2"/>
  <path d="M984,31.41V.88h5.2v30.53h-5.2ZM987.36,22.5v-4.34h8.77c1.58,0,2.87-.26,3.87-.79,1-.53,1.75-1.28,2.24-2.26.49-.97.73-2.09.73-3.35s-.25-2.34-.75-3.33c-.5-.99-1.25-1.77-2.26-2.34-1-.57-2.28-.86-3.83-.86h-8.38V.88h8.47c2.69,0,4.92.47,6.69,1.42,1.76.95,3.09,2.24,3.98,3.87s1.33,3.5,1.33,5.59c0,1.98-.43,3.78-1.29,5.42-.86,1.63-2.17,2.93-3.93,3.89-1.76.96-4.02,1.44-6.77,1.44h-8.86Z"/>
  <path class="cls-3" d="M260.01,55.2v9.2c6.4,3.2,13.2,5.2,20,5.2s13.6-2,20-5.2v-9.2c-6.4-3.2-13.2-5.2-20-5.2-6.8,0-13.6,2-20,5.2"/>
  <rect class="cls-2" x="260.01" y="81.8" width="40" height="16"/>
  <path d="M270.48,31.41V.88h5.2v30.53h-5.2ZM271.39,5.48V.88h20v4.6h-20ZM271.39,18.03v-4.3h18.58v4.3h-18.58ZM271.39,31.41v-4.6h20v4.6h-20Z"/>
  <path class="cls-3" d="M0,55.2v9.2c6.4,3.2,13.2,5.2,20,5.2,6.8,0,13.6-2,20-5.2v-9.2c-6.4-3.2-13.2-5.2-20-5.2S6.4,52,0,55.2"/>
  <path class="cls-1" d="M20,84.6c-6.8,0-13.6-1.6-20-5.2v20.8c6.4-3.6,13.2-5.2,20-5.2,6.8,0,13.6,1.6,20,5.2v-20.8c-6.4,3.6-13.2,5.2-20,5.2"/>
  <path d="M5.58,31.41v-.99L17.66.88h4.64l12.08,29.54v.99h-5.16L19.76,7.15l-.04-1.08h.56l-.09,1.08-9.5,24.25h-5.12ZM11.42,25.77v-4.3h17.67v4.3H11.42Z"/>
  <path class="cls-3" d="M1235.04,85.2v9.2c6.4,3.2,13.2,5.2,20,5.2s13.6-2,20-5.2v-9.2c-6.4-3.2-13.2-5.2-20-5.2s-13.6,2-20,5.2"/>
  <rect class="cls-2" x="1235.04" y="51.8" width="40" height="16"/>
  <path d="M1242.83,5.52V.88h24.42v4.64h-24.42ZM1252.46,31.41V.88h5.25v30.53h-5.25Z"/>
  <path class="cls-3" d="M1170.04,115.2v9.2c6.4,3.2,13.2,5.2,20,5.2s13.6-2,20-5.2v-9.2c-6.4-3.2-13.2-5.2-20-5.2-6.8,0-13.6,2-20,5.2"/>
  <rect class="cls-2" x="1170.04" y="51.8" width="40" height="16"/>
  <rect class="cls-2" x="1170.04" y="81.8" width="40" height="16"/>
  <path d="M1189.24,31.88c-1.72,0-3.43-.11-5.12-.32s-3.35-.54-4.99-.97l.95-4.34c1.55.37,3.08.66,4.58.86,1.5.2,3,.3,4.49.3,1.72,0,3.12-.19,4.19-.58,1.08-.39,1.86-.92,2.34-1.61.49-.69.73-1.52.73-2.49,0-.6-.09-1.15-.28-1.63-.19-.49-.45-.9-.79-1.23-.34-.33-.76-.6-1.25-.82s-1.05-.38-1.68-.5l-5.59-.99c-.97-.17-1.91-.44-2.82-.82-.9-.37-1.69-.89-2.37-1.55-.67-.66-1.22-1.47-1.63-2.43-.42-.96-.62-2.08-.62-3.38,0-2.06.52-3.76,1.55-5.07,1.03-1.32,2.44-2.3,4.23-2.95,1.79-.65,3.82-.97,6.08-.97,1.49,0,3.02.09,4.6.28,1.58.19,3.08.48,4.52.88l-.99,4.39c-.83-.23-1.68-.42-2.56-.58s-1.76-.28-2.64-.37c-.89-.09-1.83-.13-2.84-.13-1.32,0-2.49.14-3.5.43-1.02.29-1.81.75-2.39,1.4-.57.64-.86,1.54-.86,2.69,0,.69.11,1.29.34,1.81s.56.93.99,1.25.92.53,1.46.64l7.53,1.29c.97.14,1.87.41,2.69.8.82.39,1.53.9,2.13,1.55.6.65,1.07,1.46,1.42,2.43s.52,2.18.52,3.61c0,2.01-.52,3.69-1.55,5.05-1.03,1.36-2.47,2.38-4.32,3.05-1.85.67-4.04,1.01-6.56,1.01Z"/>
  <rect class="cls-2" x="1105.03" y="51.8" width="40" height="16"/>
  <rect class="cls-2" x="1105.03" y="81.8" width="40" height="16"/>
  <rect class="cls-2" x="1105.03" y="111.8" width="40" height="16"/>
  <path d="M1113.9,31.41V.88h5.2v30.53h-5.2ZM1115.53,20.36v-4.21h15.05l-.99,4.21h-14.06ZM1129.77,19.84l-2.24-3.57c1.66-.4,3.01-1.1,4.04-2.09,1.03-.99,1.55-2.24,1.55-3.76,0-1.63-.5-2.88-1.48-3.74-.99-.86-2.37-1.29-4.15-1.29h-9.2V.88h9.42c2.32,0,4.27.39,5.85,1.16,1.58.77,2.77,1.86,3.59,3.25.82,1.39,1.22,3,1.22,4.84,0,1.55-.36,2.97-1.07,4.26-.72,1.29-1.71,2.39-2.99,3.31-1.28.92-2.79,1.63-4.54,2.15ZM1133.42,31.41l-8.3-13.29,5.98-.17,7.53,12.43v1.03h-5.2Z"/>
  <path class="cls-3" d="M390.01,145.2v9.2c6.4,3.2,13.2,5.2,20,5.2,6.8,0,13.6-2,20-5.2v-9.2c-6.4-3.2-13.2-5.2-20-5.2-6.8,0-13.6,2-20,5.2"/>
  <rect class="cls-2" x="390.01" y="51.8" width="40" height="16"/>
  <rect class="cls-2" x="390.01" y="81.8" width="40" height="16"/>
  <path class="cls-1" d="M410.01,114.6c-6.8,0-13.6-1.6-20-5.2v20.8c6.4-3.6,13.2-5.2,20-5.2,6.8,0,13.6,1.6,20,5.2v-20.8c-6.4,3.6-13.2,5.2-20,5.2"/>
  <path d="M412.44,31.88c-2.52,0-4.77-.37-6.73-1.1-1.96-.73-3.61-1.79-4.95-3.16s-2.35-3.03-3.05-4.97c-.7-1.93-1.05-4.12-1.05-6.56s.38-4.72,1.14-6.67c.76-1.95,1.86-3.59,3.29-4.92s3.16-2.35,5.18-3.05c2.02-.7,4.29-1.05,6.82-1.05,1.35,0,2.69.09,4.04.26s2.72.46,4.13.86l-1.03,4.34c-1.12-.32-2.26-.54-3.42-.67-1.16-.13-2.36-.19-3.59-.19-1.86,0-3.5.26-4.9.77-1.41.52-2.58,1.26-3.53,2.24s-1.66,2.15-2.15,3.53c-.49,1.38-.73,2.91-.73,4.6,0,2.26.39,4.24,1.18,5.93.79,1.69,1.96,3,3.5,3.91,1.55.92,3.48,1.38,5.8,1.38.8,0,1.6-.04,2.41-.13.8-.09,1.56-.2,2.28-.34v-7.53l-6.58-1.98v-2.62h11.31v15.65c-1,.32-2.05.59-3.14.82-1.09.23-2.17.39-3.23.49s-2.06.15-3.01.15Z"/>
  <rect class="cls-2" x="1430.04" y="51.8" width="40" height="16"/>
  <rect class="cls-2" x="1430.04" y="81.8" width="40" height="16"/>
  <rect class="cls-2" x="1430.04" y="141.8" width="40" height="16"/>
  <path class="cls-1" d="M1450.05,114.6c-6.8,0-13.6-1.6-20-5.2v20.8c6.4-3.6,13.2-5.2,20-5.2,6.8,0,13.6,1.6,20,5.2v-20.8c-6.4,3.6-13.2,5.2-20,5.2"/>
  <path d="M1438.05,31.41l-5.72-29.63v-.9h5.12l4.47,22.23-.09,8.3h-3.78ZM1438.13,31.41l1.81-5.07,9.42-20.64h2.28l9.46,20.68,1.68,5.03h-4l-8.51-18.15-.6-1.93h1.63l-.69,1.93-8.47,18.15h-4ZM1459.16,31.41l-.09-8.3,4.47-22.23h5.12v.9l-5.8,29.63h-3.7Z"/>
  <rect class="cls-2" x="1560.05" y="51.8" width="40" height="16"/>
  <rect class="cls-2" x="1560.05" y="81.8" width="40" height="16"/>
  <path class="cls-1" d="M1580.05,114.6c-6.8,0-13.6-1.6-20-5.2v20.8c6.4-3.6,13.2-5.2,20-5.2,6.8,0,13.6,1.6,20,5.2v-20.8c-6.4,3.6-13.2,5.2-20,5.2"/>
  <path class="cls-1" d="M1580.05,144.6c-6.8,0-13.6-1.6-20-5.2v20.8c6.4-3.6,13.2-5.2,20-5.2,6.8,0,13.6,1.6,20,5.2v-20.8c-6.4,3.6-13.2,5.2-20,5.2"/>
  <path d="M1577.99,22.03l-11.7-20.08V.88h5.12l8.81,15.74.3,1.12h-.82l.21-1.12,8.86-15.74h4.99v1.08l-11.61,20.08h-4.17ZM1577.47,31.41v-12.99h5.25v12.99h-5.25Z"/>
  <path class="cls-3" d="M455.01,115.2v9.2c6.4,3.2,13.2,5.2,20,5.2s13.6-2,20-5.2v-9.2c-6.4-3.2-13.2-5.2-20-5.2-6.8,0-13.6,2-20,5.2"/>
  <rect class="cls-2" x="455.01" y="51.8" width="40" height="16"/>
  <path class="cls-1" d="M475.02,84.6c-6.8,0-13.6-1.6-20-5.2v20.8c6.4-3.6,13.2-5.2,20-5.2s13.6,1.6,20,5.2v-20.8c-6.4,3.6-13.2,5.2-20,5.2"/>
  <path d="M462.78,31.41V.88h5.2v30.53h-5.2ZM464.07,18.33v-4.64h20.08v4.64h-20.08ZM482.05,31.41V.88h5.2v30.53h-5.2Z"/>
  <rect class="cls-2" x="715.02" y="51.8" width="40" height="16"/>
  <rect class="cls-2" x="715.02" y="111.8" width="40" height="16"/>
  <path class="cls-1" d="M735.02,84.6c-6.8,0-13.6-1.6-20-5.2v20.8c6.4-3.6,13.2-5.2,20-5.2,6.8,0,13.6,1.6,20,5.2v-20.8c-6.4,3.6-13.2,5.2-20,5.2"/>
  <path d="M726.9,31.41V.88h5.2v30.53h-5.2ZM727.8,31.41v-4.64h18.58v4.64h-18.58Z"/>
  <rect class="cls-2" x="195.01" y="51.8" width="40" height="16"/>
  <path class="cls-1" d="M215.01,84.6c-6.8,0-13.6-1.6-20-5.2v20.8c6.4-3.6,13.2-5.2,20-5.2,6.8,0,13.6,1.6,20,5.2v-20.8c-6.4,3.6-13.2,5.2-20,5.2"/>
  <path class="cls-1" d="M215.01,114.6c-6.8,0-13.6-1.6-20-5.2v20.8c6.4-3.6,13.2-5.2,20-5.2,6.8,0,13.6,1.6,20,5.2v-20.8c-6.4,3.6-13.2,5.2-20,5.2"/>
  <path d="M203.12,31.41V.88h5.2v30.53h-5.2ZM205.14,31.41v-4.51h8.21c1.86,0,3.45-.26,4.77-.8,1.32-.53,2.39-1.28,3.2-2.26.82-.97,1.42-2.11,1.81-3.42.39-1.3.58-2.72.58-4.24,0-2.21-.37-4.11-1.12-5.72-.75-1.6-1.88-2.85-3.42-3.74-1.53-.89-3.46-1.33-5.78-1.33h-5.98V.88h6.06c3.41,0,6.27.62,8.58,1.85,2.31,1.23,4.04,2.99,5.2,5.27,1.16,2.28,1.74,5.01,1.74,8.19,0,2.01-.27,3.93-.82,5.76-.54,1.83-1.43,3.46-2.64,4.88s-2.83,2.54-4.84,3.35c-2.01.82-4.49,1.23-7.44,1.23h-8.13Z"/>
  <path class="cls-3" d="M910.03,85.2v9.2c6.4,3.2,13.2,5.2,20,5.2,6.8,0,13.6-2,20-5.2v-9.2c-6.4-3.2-13.2-5.2-20-5.2-6.8,0-13.6,2-20,5.2"/>
  <path class="cls-1" d="M930.03,54.6c-6.8,0-13.6-1.6-20-5.2v20.8c6.4-3.6,13.2-5.2,20-5.2,6.8,0,13.6,1.6,20,5.2v-20.8c-6.4,3.6-13.2,5.2-20,5.2"/>
  <path d="M930.03,31.88c-2.15,0-4.11-.35-5.89-1.05s-3.32-1.73-4.62-3.08c-1.3-1.35-2.31-3-3.01-4.94s-1.05-4.19-1.05-6.71.35-4.71,1.05-6.64c.7-1.94,1.71-3.58,3.01-4.92,1.3-1.35,2.84-2.37,4.62-3.07s3.74-1.05,5.89-1.05,4.11.35,5.89,1.05c1.78.7,3.31,1.73,4.6,3.07,1.29,1.35,2.29,2.99,2.99,4.92.7,1.93,1.05,4.15,1.05,6.64s-.35,4.76-1.05,6.71c-.7,1.95-1.7,3.6-2.99,4.94-1.29,1.35-2.82,2.37-4.6,3.08-1.78.7-3.74,1.05-5.89,1.05ZM930.07,27.36c1.32,0,2.54-.25,3.65-.75,1.12-.5,2.09-1.22,2.92-2.17s1.48-2.11,1.94-3.5c.46-1.39.69-3,.69-4.84s-.23-3.35-.69-4.73c-.46-1.38-1.1-2.54-1.91-3.5-.82-.96-1.79-1.69-2.92-2.19-1.13-.5-2.36-.75-3.68-.75-1.38.03-2.63.29-3.76.77-1.13.49-2.11,1.21-2.95,2.17-.83.96-1.48,2.13-1.94,3.5-.46,1.38-.69,2.95-.69,4.73s.23,3.45.69,4.84c.46,1.39,1.1,2.56,1.94,3.5.83.95,1.81,1.67,2.95,2.17,1.13.5,2.39.75,3.76.75Z"/>
  <path class="cls-3" d="M65,115.2v9.2c6.4,3.2,13.2,5.2,20,5.2s13.6-2,20-5.2v-9.2c-6.4-3.2-13.2-5.2-20-5.2-6.8,0-13.6,2-20,5.2"/>
  <path class="cls-3" d="M65,145.2v9.2c6.4,3.2,13.2,5.2,20,5.2s13.6-2,20-5.2v-9.2c-6.4-3.2-13.2-5.2-20-5.2-6.8,0-13.6,2-20,5.2"/>
  <rect class="cls-2" x="65" y="81.8" width="40" height="16"/>
  <path class="cls-1" d="M85,54.6c-6.8,0-13.6-1.6-20-5.2v20.8c6.4-3.6,13.2-5.2,20-5.2,6.8,0,13.6,1.6,20,5.2v-20.8c-6.4,3.6-13.2,5.2-20,5.2"/>
  <path d="M73.74,31.41V.88h5.2v30.53h-5.2ZM76.4,17.99v-3.91h15.01v3.91h-15.01ZM90.76,16.1l-2.71-1.59c1.32-.49,2.39-1.14,3.2-1.96.82-.82,1.23-1.88,1.23-3.2,0-1.2-.41-2.19-1.23-2.97-.82-.77-1.99-1.16-3.5-1.16h-11.14V.88h12.08c3.01,0,5.25.67,6.71,2.02s2.19,3.08,2.19,5.2c0,1.98-.6,3.63-1.78,4.97-1.19,1.33-2.88,2.34-5.05,3.03ZM76.62,31.41v-4.39h11.91c1.66,0,2.9-.44,3.72-1.31.82-.87,1.23-1.97,1.23-3.29s-.43-2.44-1.29-3.29-2.12-1.27-3.78-1.27l.43-3.61c2.35.06,4.25.48,5.7,1.27,1.45.79,2.5,1.81,3.16,3.07.66,1.26.99,2.67.99,4.21,0,2.52-.83,4.59-2.49,6.19-1.66,1.61-4.11,2.41-7.35,2.41h-12.21Z"/>
  <path class="cls-3" d="M650.02,115.2v9.2c6.4,3.2,13.2,5.2,20,5.2s13.6-2,20-5.2v-9.2c-6.4-3.2-13.2-5.2-20-5.2s-13.6,2-20,5.2"/>
  <path class="cls-3" d="M650.02,175.2v9.2c6.4,3.2,13.2,5.2,20,5.2s13.6-2,20-5.2v-9.2c-6.4-3.2-13.2-5.2-20-5.2s-13.6,2-20,5.2"/>
  <rect class="cls-2" x="650.02" y="81.8" width="40" height="16"/>
  <rect class="cls-2" x="650.02" y="141.8" width="40" height="16"/>
  <path class="cls-1" d="M670.02,54.6c-6.8,0-13.6-1.6-20-5.2v20.8c6.4-3.6,13.2-5.2,20-5.2,6.8,0,13.6,1.6,20,5.2v-20.8c-6.4,3.6-13.2,5.2-20,5.2"/>
  <path d="M659.06,31.41V.88h5.29v30.53h-5.29ZM662.02,18.38l16.73-17.5h5.38v1.03l-15.61,16.47h-6.49ZM662.15,18.38l7.35-4.56.56,4.56h-7.91ZM678.84,31.41l-13.8-15.87,5.33-1.85,14.23,16.68v1.03h-5.76Z"/>
  <path class="cls-3" d="M585.02,205.2v9.2c6.4,3.2,13.2,5.2,20,5.2,6.8,0,13.6-2,20-5.2v-9.2c-6.4-3.2-13.2-5.2-20-5.2s-13.6,2-20,5.2"/>
  <path class="cls-3" d="M585.02,115.2v9.2c6.4,3.2,13.2,5.2,20,5.2,6.8,0,13.6-2,20-5.2v-9.2c-6.4-3.2-13.2-5.2-20-5.2s-13.6,2-20,5.2"/>
  <rect class="cls-2" x="585.02" y="81.8" width="40" height="16"/>
  <rect class="cls-2" x="585.02" y="141.8" width="40" height="16"/>
  <rect class="cls-2" x="585.02" y="171.8" width="40" height="16"/>
  <path class="cls-1" d="M605.02,54.6c-6.8,0-13.6-1.6-20-5.2v20.8c6.4-3.6,13.2-5.2,20-5.2s13.6,1.6,20,5.2v-20.8c-6.4,3.6-13.2,5.2-20,5.2"/>
  <path d="M601.64,31.88c-1.03,0-2.11-.09-3.23-.26-1.12-.17-2.24-.43-3.35-.77l.9-4.43c.86.23,1.73.42,2.62.58s1.76.24,2.62.24c1.46,0,2.69-.29,3.7-.86,1-.57,1.76-1.41,2.26-2.52.5-1.1.75-2.46.75-4.06V.88h5.2v19.35c0,2.72-.48,4.94-1.44,6.64-.96,1.71-2.29,2.97-4,3.78-1.71.82-3.72,1.23-6.04,1.23Z"/>
  <path class="cls-3" d="M1040.03,115.2v9.2c6.4,3.2,13.2,5.2,20,5.2s13.6-2,20-5.2v-9.2c-6.4-3.2-13.2-5.2-20-5.2s-13.6,2-20,5.2"/>
  <rect class="cls-2" x="1040.03" y="201.8" width="40" height="16"/>
  <rect class="cls-2" x="1040.03" y="81.8" width="40" height="16"/>
  <rect class="cls-2" x="1040.03" y="141.8" width="40" height="16"/>
  <rect class="cls-2" x="1040.03" y="171.8" width="40" height="16"/>
  <path class="cls-1" d="M1060.03,54.6c-6.8,0-13.6-1.6-20-5.2v20.8c6.4-3.6,13.2-5.2,20-5.2,6.8,0,13.6,1.6,20,5.2v-20.8c-6.4,3.6-13.2,5.2-20,5.2"/>
  <path d="M1060.03,31.88c-2.15,0-4.11-.35-5.89-1.05-1.78-.7-3.32-1.73-4.62-3.08-1.3-1.35-2.31-3-3.01-4.94-.7-1.95-1.05-4.19-1.05-6.71s.35-4.71,1.05-6.64c.7-1.94,1.71-3.58,3.01-4.92,1.3-1.35,2.84-2.37,4.62-3.07,1.78-.7,3.74-1.05,5.89-1.05s4.11.35,5.89,1.05,3.31,1.73,4.6,3.07c1.29,1.35,2.29,2.99,2.99,4.92.7,1.93,1.05,4.15,1.05,6.64s-.35,4.76-1.05,6.71c-.7,1.95-1.7,3.6-2.99,4.94-1.29,1.35-2.82,2.37-4.6,3.08s-3.74,1.05-5.89,1.05ZM1060.08,27.36c1.32,0,2.54-.25,3.66-.75,1.12-.5,2.09-1.22,2.92-2.17.83-.95,1.48-2.11,1.93-3.5.46-1.39.69-3,.69-4.84s-.23-3.35-.69-4.73-1.1-2.54-1.91-3.5c-.82-.96-1.79-1.69-2.92-2.19-1.13-.5-2.36-.75-3.68-.75-1.38.03-2.63.29-3.76.77s-2.11,1.21-2.95,2.17c-.83.96-1.48,2.13-1.93,3.5-.46,1.38-.69,2.95-.69,4.73s.23,3.45.69,4.84c.46,1.39,1.1,2.56,1.93,3.5.83.95,1.81,1.67,2.95,2.17,1.13.5,2.39.75,3.76.75ZM1073.15,37.25l-15.35-2.79v-3.01l16.38.9v4.9h-1.03Z"/>
  <path class="cls-3" d="M1625.05,115.2v9.2c6.4,3.2,13.2,5.2,20,5.2,6.8,0,13.6-2,20-5.2v-9.2c-6.4-3.2-13.2-5.2-20-5.2-6.8,0-13.6,2-20,5.2"/>
  <rect class="cls-2" x="1625.05" y="81.8" width="40" height="16"/>
  <rect class="cls-2" x="1625.05" y="141.8" width="40" height="16"/>
  <rect class="cls-2" x="1625.05" y="171.8" width="40" height="16"/>
  <path class="cls-1" d="M1645.05,204.6c-6.8,0-13.6-1.6-20-5.2v20.8c6.4-3.6,13.2-5.2,20-5.2,6.8,0,13.6,1.6,20,5.2v-20.8c-6.4,3.6-13.2,5.2-20,5.2"/>
  <path class="cls-1" d="M1645.05,54.6c-6.8,0-13.6-1.6-20-5.2v20.8c6.4-3.6,13.2-5.2,20-5.2,6.8,0,13.6,1.6,20,5.2v-20.8c-6.4,3.6-13.2,5.2-20,5.2"/>
  <path d="M1633.66,31.41v-1.29l18.02-29.24h4.82v1.38l-18.19,29.15h-4.64ZM1633.79,5.43V.88h22.14l-2.88,3.1-3.05,1.46h-16.21ZM1634.04,31.41l4.17-3.66,1.68-.95h16.51v4.6h-22.36Z"/>
  <path class="cls-3" d="M1495.05,115.2v9.2c6.4,3.2,13.2,5.2,20,5.2,6.8,0,13.6-2,20-5.2v-9.2c-6.4-3.2-13.2-5.2-20-5.2-6.8,0-13.6,2-20,5.2"/>
  <rect class="cls-2" x="1495.05" y="81.8" width="40" height="16"/>
  <rect class="cls-2" x="1495.05" y="141.8" width="40" height="16"/>
  <path class="cls-1" d="M1515.05,174.6c-6.8,0-13.6-1.6-20-5.2v20.8c6.4-3.6,13.2-5.2,20-5.2,6.8,0,13.6,1.6,20,5.2v-20.8c-6.4,3.6-13.2,5.2-20,5.2"/>
  <path class="cls-1" d="M1515.05,54.6c-6.8,0-13.6-1.6-20-5.2v20.8c6.4-3.6,13.2-5.2,20-5.2,6.8,0,13.6,1.6,20,5.2v-20.8c-6.4,3.6-13.2,5.2-20,5.2"/>
  <path d="M1501.57,31.41v-1.08l11.09-15.44,3.05,3.57-8.99,12.94h-5.16ZM1523.15,31.41l-8.64-11.95-1.33-1.98-.95-1.12-10.28-14.41V.88h5.55l8.04,11.48.3.73,1.93,2.37,10.75,14.88v1.08h-5.38ZM1517.09,17.56l-2.75-3.96,8.69-12.73h5.29v1.08l-11.22,15.61Z"/>
  <path class="cls-3" d="M1365.04,115.2v9.2c6.4,3.2,13.2,5.2,20,5.2,6.8,0,13.6-2,20-5.2v-9.2c-6.4-3.2-13.2-5.2-20-5.2s-13.6,2-20,5.2"/>
  <rect class="cls-2" x="1365.04" y="81.8" width="40" height="16"/>
  <path class="cls-1" d="M1385.04,144.6c-6.8,0-13.6-1.6-20-5.2v20.8c6.4-3.6,13.2-5.2,20-5.2s13.6,1.6,20,5.2v-20.8c-6.4,3.6-13.2,5.2-20,5.2"/>
  <path class="cls-1" d="M1385.04,54.6c-6.8,0-13.6-1.6-20-5.2v20.8c6.4-3.6,13.2-5.2,20-5.2s13.6,1.6,20,5.2v-20.8c-6.4,3.6-13.2,5.2-20,5.2"/>
  <path d="M1382.72,31.41l-12-29.5V.88h5.12l9.03,23.31.39,1.81h-.43l.34-1.81,9.07-23.31h5.07v.99l-12.04,29.54h-4.56Z"/>
  <rect class="cls-2" x="130" y="81.8" width="40" height="16"/>
  <rect class="cls-2" x="130" y="111.8" width="40" height="16"/>
  <path class="cls-1" d="M150.01,54.6c-6.8,0-13.6-1.6-20-5.2v20.8c6.4-3.6,13.2-5.2,20-5.2,6.8,0,13.6,1.6,20,5.2v-20.8c-6.4,3.6-13.2,5.2-20,5.2"/>
  <path d="M154.54,31.88c-2.61,0-4.91-.36-6.9-1.07-1.99-.72-3.67-1.75-5.03-3.1-1.36-1.35-2.4-2.97-3.12-4.88-.72-1.91-1.07-4.02-1.07-6.34,0-2.67.39-5,1.18-6.99.79-1.99,1.91-3.66,3.35-5.01,1.45-1.35,3.17-2.37,5.16-3.05,1.99-.69,4.21-1.03,6.64-1.03,1.2,0,2.41.07,3.63.21,1.22.14,2.36.37,3.42.69l-.99,4.43c-.92-.23-1.86-.4-2.82-.52-.96-.11-1.93-.17-2.9-.17-1.83,0-3.46.27-4.88.8s-2.62,1.3-3.59,2.3c-.98,1-1.71,2.21-2.19,3.61-.49,1.41-.73,2.98-.73,4.73,0,1.58.24,3.02.71,4.32.47,1.3,1.17,2.44,2.11,3.4.93.96,2.11,1.71,3.53,2.24,1.42.53,3.07.8,4.97.8.97,0,1.97-.06,2.99-.17,1.02-.11,2.06-.32,3.12-.6l.99,4.43c-1.15.34-2.35.59-3.61.75-1.26.16-2.58.24-3.96.24Z"/>
  <path class="cls-1" d="M1710.05,54.6c-6.8,0-13.6-1.6-20-5.2v20.8c6.4-3.6,13.2-5.2,20-5.2,6.8,0,13.6,1.6,20,5.2v-20.8c-6.4,3.6-13.2,5.2-20,5.2"/>
  <path class="cls-1" d="M1710.05,84.6c-6.8,0-13.6-1.6-20-5.2v20.8c6.4-3.6,13.2-5.2,20-5.2,6.8,0,13.6,1.6,20,5.2v-20.8c-6.4,3.6-13.2,5.2-20,5.2"/>
  <g>
    <path d="M1695.11,24.74c-1.04,0-2.03-.07-2.96-.2-.93-.13-1.81-.3-2.62-.52l.6-2.82c.76.18,1.55.32,2.37.42.82.1,1.66.15,2.52.15.78,0,1.42-.08,1.93-.24s.89-.38,1.14-.67.38-.62.38-1c0-.52-.16-.92-.46-1.22-.31-.29-.79-.48-1.42-.58l-2.49-.51c-.96-.22-1.77-.54-2.43-.95-.66-.41-1.15-.92-1.47-1.51-.32-.6-.48-1.27-.48-2.01,0-1.04.27-1.92.83-2.66.55-.73,1.35-1.29,2.4-1.67,1.05-.38,2.3-.57,3.74-.57.9,0,1.79.05,2.66.15.87.1,1.73.26,2.59.48l-.6,2.82c-.74-.16-1.49-.28-2.25-.36-.76-.08-1.5-.12-2.22-.12s-1.35.06-1.84.19c-.49.13-.85.33-1.09.58-.24.26-.36.61-.36,1.05,0,.5.15.88.45,1.12s.74.42,1.32.52l2.94.57c1.24.26,2.23.76,2.97,1.5.74.74,1.11,1.73,1.11,2.97,0,.82-.16,1.54-.46,2.16-.31.62-.76,1.15-1.37,1.59-.6.44-1.35.77-2.25.99-.9.22-1.95.33-3.15.33Z"/>
    <path d="M1706.54,29.84V8.51h2.52l1.41,2.52v18.81h-3.93ZM1714.7,24.74c-1.08,0-2.08-.16-3.02-.46-.93-.31-1.79-.71-2.59-1.19l1.08-2.16c.54.2,1.11.36,1.71.48s1.21.18,1.83.18c.88,0,1.64-.19,2.29-.58.65-.39,1.16-.97,1.51-1.74.36-.77.54-1.73.54-2.87,0-.84-.09-1.58-.27-2.22-.18-.64-.44-1.17-.77-1.59s-.75-.74-1.24-.96c-.5-.22-1.06-.33-1.68-.33-.68,0-1.44.16-2.28.48-.84.32-1.61.9-2.31,1.74l-.36-1.95c.62-.88,1.28-1.56,1.97-2.05.69-.49,1.39-.83,2.11-1.04.72-.2,1.41-.3,2.07-.3.98,0,1.88.17,2.7.51.82.34,1.52.85,2.12,1.53.59.68,1.04,1.52,1.36,2.52s.48,2.16.48,3.48c0,1.8-.31,3.34-.92,4.61-.61,1.27-1.46,2.24-2.54,2.91s-2.35,1-3.81,1Z"/>
    <path d="M1729.91,24.74c-.98,0-1.84-.2-2.58-.58s-1.31-.95-1.72-1.67-.62-1.56-.62-2.52c0-.76.12-1.43.35-2.01.23-.58.58-1.08,1.05-1.5.47-.42,1.07-.75,1.8-.97.73-.23,1.58-.37,2.56-.41l5.13-.18v2.37l-4.77.18c-.54.02-.99.15-1.35.39-.36.24-.63.53-.81.87-.18.34-.27.68-.27,1.02,0,.44.09.82.27,1.15.18.33.46.58.84.77.38.18.84.27,1.38.27.88,0,1.68-.18,2.4-.55s1.39-.76,2.01-1.19l.27,1.68c-.52.54-1.09,1.03-1.71,1.46-.62.43-1.29.78-2,1.04-.71.26-1.46.39-2.24.39ZM1736.45,24.41l-1.41-2.49v-7.11c0-.52-.06-1-.19-1.44-.13-.44-.35-.82-.66-1.14-.31-.32-.73-.57-1.26-.74-.53-.17-1.21-.25-2.03-.25-.74,0-1.47.06-2.21.17-.73.11-1.46.27-2.21.46l-.57-2.91c.86-.24,1.78-.43,2.76-.57.98-.14,1.94-.21,2.88-.21,1.4,0,2.57.16,3.51.47.94.31,1.7.75,2.28,1.33s.99,1.28,1.23,2.1c.24.82.36,1.75.36,2.79v9.54h-2.49Z"/>
    <path d="M1751.72,24.74c-1.42,0-2.65-.2-3.71-.58-1.05-.39-1.93-.96-2.65-1.7-.72-.74-1.26-1.62-1.61-2.64-.35-1.02-.53-2.16-.53-3.42s.19-2.4.57-3.42c.38-1.02.93-1.88,1.65-2.6.72-.71,1.61-1.25,2.67-1.63,1.06-.38,2.27-.57,3.63-.57.76,0,1.5.06,2.21.17.71.11,1.37.27,1.96.47l-.75,2.97c-.48-.14-.97-.24-1.49-.3-.51-.06-1.04-.09-1.6-.09-.82,0-1.54.11-2.16.33-.62.22-1.14.55-1.56.98s-.74.96-.96,1.59c-.22.63-.33,1.36-.33,2.17s.1,1.54.31,2.17c.21.63.53,1.16.96,1.59.43.43.96.75,1.58.97.62.22,1.34.33,2.16.33.6,0,1.17-.04,1.72-.12s1.08-.19,1.61-.33l.72,2.97c-.66.2-1.35.37-2.07.5-.72.13-1.5.2-2.34.2Z"/>
    <path d="M1768.1,24.74c-2.04,0-3.72-.33-5.04-.99-1.32-.66-2.3-1.6-2.96-2.82-.65-1.22-.97-2.66-.97-4.32s.33-3.12.97-4.38c.65-1.26,1.58-2.25,2.79-2.97,1.21-.72,2.64-1.08,4.31-1.08,1.12,0,2.09.16,2.92.47.83.31,1.51.77,2.05,1.38s.95,1.33,1.21,2.16c.27.83.41,1.76.41,2.8v2.64h-12.54v-2.43h9.69l-.69,1.29v-1.8c0-.44-.04-.84-.12-1.21s-.19-.7-.34-.98c-.15-.28-.35-.52-.6-.73-.25-.21-.54-.37-.87-.47-.33-.1-.72-.15-1.16-.15-.82,0-1.55.2-2.19.6-.64.4-1.13,1-1.48,1.82-.35.81-.53,1.83-.53,3.04s.19,2.12.57,2.88.97,1.33,1.77,1.71,1.81.57,3.03.57c.78,0,1.52-.06,2.22-.18s1.42-.27,2.16-.45l.66,2.7c-.8.28-1.66.5-2.58.66s-1.82.24-2.7.24Z"/>
  </g>
</svg>