<?xml version="1.0" encoding="UTF-8"?>
<svg xmlns="http://www.w3.org/2000/svg" width="163.94" height="11.77" viewBox="0 0 163.94 11.77">
  <defs>
    <style>
      .uuid-328ff404-4653-4aab-9a60-22e2403611aa {
        fill: #332019;
      }

      .uuid-b518b73c-d82f-46c6-8219-4b17299dd2cb {
        fill: #cbd0d7;
      }
    </style>
  </defs>
  <g id="uuid-f5198537-d443-486c-9f6b-0055b85778d1" data-name="bg">
    <rect class="uuid-b518b73c-d82f-46c6-8219-4b17299dd2cb" x="-8135.47" y="-8129.54" width="15323.76" height="15022.19"/>
  </g>
  <g id="uuid-19c42fa3-dc42-4612-ba93-a4fca049827b" data-name="baseline">
    <g>
      <g>
        <path class="uuid-328ff404-4653-4aab-9a60-22e2403611aa" d="M76.51,7.98c.2,0,.38-.03.54-.08.17-.06.38-.15.63-.29h.03l-.09.77c-.21.13-.41.23-.6.3-.19.07-.4.1-.63.1-.33,0-.62-.07-.88-.2s-.47-.32-.62-.55c-.16-.23-.27-.49-.36-.78-.08-.29-.12-.59-.12-.91,0-.97.26-1.76.78-2.36.52-.6,1.16-.9,1.93-.9.43,0,.77.08,1.02.24l.09,1.23h-.02c-.15-.15-.32-.28-.53-.38-.21-.1-.42-.15-.64-.15-.33,0-.62.12-.88.36-.25.24-.43.54-.55.9s-.18.76-.18,1.19c0,.45.09.82.26,1.1.17.28.45.42.82.42Z"/>
        <path class="uuid-328ff404-4653-4aab-9a60-22e2403611aa" d="M78.91,6.2c0-.39.05-.77.16-1.14.11-.37.26-.7.45-1,.2-.3.46-.54.78-.72s.68-.27,1.08-.27c.44,0,.82.11,1.12.32.31.21.53.49.67.84.14.35.21.75.21,1.21s-.06.86-.17,1.26c-.11.4-.28.76-.48,1.07-.21.31-.47.56-.79.74-.32.18-.67.27-1.06.27-.61,0-1.09-.24-1.44-.73-.35-.49-.52-1.1-.52-1.85ZM79.93,6.22c0,.52.09.95.27,1.27.18.33.43.49.75.49.29,0,.54-.11.75-.33.21-.22.37-.5.47-.86.1-.35.16-.75.16-1.19,0-.46-.09-.84-.27-1.14s-.44-.45-.77-.45c-.29,0-.54.11-.75.32-.21.21-.37.49-.47.81-.1.33-.15.68-.15,1.07Z"/>
        <path class="uuid-328ff404-4653-4aab-9a60-22e2403611aa" d="M87.04,4.19c-.33,0-.73.19-1.2.56l-.29,3.92h-1.12l.53-4.21-.16-1.29h1.14l-.06.92.25-.22c.12-.11.22-.2.3-.26s.19-.15.33-.25c.14-.1.29-.18.43-.23.15-.05.29-.08.43-.08.24,0,.43.05.59.14.16.09.28.23.36.41.08.18.13.39.16.62.02.23.02.5,0,.8l-.26,3.64h-1.12l.44-3.51c.04-.34,0-.58-.11-.74-.12-.16-.33-.23-.65-.23Z"/>
        <path class="uuid-328ff404-4653-4aab-9a60-22e2403611aa" d="M90.82,8.67l-1.13-5.48v-.02h1.22l.42,4.06,1.8-4.06h1.28v.02l-3.19,5.48h-.4Z"/>
        <path class="uuid-328ff404-4653-4aab-9a60-22e2403611aa" d="M97.76,8.32c-.47.31-.96.46-1.48.46-.32,0-.61-.07-.86-.22-.25-.15-.45-.34-.6-.59-.15-.24-.26-.51-.33-.79-.07-.28-.11-.57-.11-.87,0-.49.07-.94.21-1.35.14-.42.32-.76.55-1.03s.48-.48.77-.63c.29-.15.58-.23.88-.23.5,0,.88.16,1.15.49.27.32.4.74.4,1.25,0,.47-.07.95-.22,1.45h-2.72v.21c0,.2.02.39.05.56.04.17.09.33.17.48.08.15.19.27.34.35s.33.13.54.13.41-.03.59-.09.43-.17.74-.34h.02l-.09.77ZM96.65,4.01c-.28,0-.54.14-.77.43-.23.29-.38.72-.46,1.29l1.83-.25c.06-.19.1-.38.1-.58,0-.27-.06-.49-.18-.65-.12-.16-.29-.24-.52-.24Z"/>
        <path class="uuid-328ff404-4653-4aab-9a60-22e2403611aa" d="M99.88,8.67h-1.32v-.02l2.3-2.93-1.26-2.53v-.02h1.27l.65,1.89,1.03-1.89h1.23v.02l-1.98,2.51,1.5,2.95v.02h-1.25l-.89-2.26-1.28,2.26Z"/>
      </g>
      <path class="uuid-328ff404-4653-4aab-9a60-22e2403611aa" d="M59.86,5.89c0-3.87,2.01-5.89,4.87-5.89,2.87,0,4.87,2.02,4.87,5.89,0,3.87-2.01,5.89-4.87,5.89-2.87,0-4.87-2.02-4.87-5.89Z"/>
    </g>
    <g>
      <g>
        <path class="uuid-328ff404-4653-4aab-9a60-22e2403611aa" d="M14.2,4.62c0-.46.17-.82.51-1.1.34-.28.76-.42,1.25-.42s.95.1,1.29.29l.09,1.23h-.02c-.19-.18-.42-.33-.68-.43s-.5-.16-.74-.16c-.45,0-.68.18-.68.53,0,.22.16.46.47.72l.48.41c.32.27.55.53.7.78.14.25.22.51.22.8,0,.12-.02.25-.05.38s-.09.26-.17.41-.19.27-.31.38c-.12.11-.29.2-.5.27-.21.07-.45.11-.71.11s-.51-.04-.77-.12c-.25-.08-.44-.17-.57-.29l-.09-1.13h.02c.59.51,1.09.77,1.5.77.2,0,.35-.06.45-.19s.16-.29.16-.48c0-.17-.04-.33-.13-.47-.09-.15-.23-.3-.43-.46l-.62-.52c-.46-.39-.69-.82-.69-1.3Z"/>
        <path class="uuid-328ff404-4653-4aab-9a60-22e2403611aa" d="M20.83,8.5c-.12.09-.28.16-.47.22-.19.06-.37.09-.54.09-.49,0-.85-.17-1.06-.5-.21-.34-.28-.82-.19-1.45l.4-2.88-.88-.05v-.11l1.84-1.89h.21l-.16,1.32,1.36-.15-.05,1.01-1.4-.08-.3,2.58c-.03.27-.04.51-.03.71,0,.21.06.38.16.5.1.13.26.19.48.19.2,0,.43-.07.7-.21h.02l-.09.68Z"/>
        <path class="uuid-328ff404-4653-4aab-9a60-22e2403611aa" d="M24.7,4.22c-.38,0-.8.19-1.26.58l-.29,3.9h-1.12l.53-4.21-.16-1.29h1.14l-.06.92c.73-.69,1.3-1.03,1.69-1.03.1,0,.19,0,.26.02l.09,1.29h-.02c-.23-.13-.5-.19-.81-.19Z"/>
        <path class="uuid-328ff404-4653-4aab-9a60-22e2403611aa" d="M28.39,8.16c-.41.44-.78.66-1.11.66-.4,0-.73-.2-.99-.59-.26-.39-.4-.89-.4-1.49,0-.7.13-1.33.39-1.89.26-.55.62-.99,1.07-1.29.45-.31.96-.46,1.53-.46.3,0,.7.02,1.2.05l-.38,5.55h-1.07l.08-.89-.32.34ZM27.56,7.92c.17,0,.35-.08.54-.24.19-.16.42-.4.69-.72l.38-2.88c-.11-.03-.23-.04-.35-.04-.29,0-.57.08-.81.24-.25.16-.45.37-.61.62-.16.26-.28.54-.37.85s-.13.62-.13.94c0,.36.05.65.16.89s.27.35.5.35Z"/>
        <path class="uuid-328ff404-4653-4aab-9a60-22e2403611aa" d="M31.23,8.7l.53-4.2-.16-1.3h1.14s-.03.45-.1,1.37-.13,1.83-.2,2.75c-.07.92-.1,1.38-.1,1.38h-1.12ZM32.3,2.19c-.19,0-.35-.06-.48-.18-.13-.12-.19-.28-.19-.47s.06-.34.19-.45.29-.16.48-.16.36.05.49.16.19.26.19.45-.07.36-.2.47c-.13.12-.29.18-.49.18Z"/>
        <path class="uuid-328ff404-4653-4aab-9a60-22e2403611aa" d="M37.61,8.5c-.18,2.04-1.04,3.06-2.57,3.06-.42,0-.88-.09-1.38-.27l-.09-1.14h.02c.67.38,1.22.56,1.64.56.35,0,.64-.13.86-.39s.37-.69.45-1.3l.17-1.19-.41.43c-.35.37-.74.55-1.17.55-.4,0-.73-.2-.99-.59-.26-.39-.39-.89-.39-1.49,0-1.06.29-1.94.86-2.62.57-.68,1.29-1.02,2.16-1.02.32,0,.74.02,1.28.05l-.44,5.35ZM35.49,7.92c.21,0,.39-.06.55-.19.16-.13.4-.38.71-.75l.39-2.89c-.14-.03-.29-.04-.43-.04-.3,0-.58.08-.83.24-.25.16-.46.37-.62.62s-.28.54-.37.85c-.09.31-.13.62-.13.94,0,.38.06.68.18.9s.3.33.55.33Z"/>
        <path class="uuid-328ff404-4653-4aab-9a60-22e2403611aa" d="M41.75,4.22c-.33,0-.73.18-1.19.53l-.32,3.95h-1.12l.69-5.49.15-2.98h1.13l-.41,2.86-.08,1,.21-.19c.16-.15.3-.27.41-.36.12-.09.28-.19.5-.3s.42-.16.61-.16c.47,0,.78.17.95.51.17.34.23.83.18,1.46l-.27,3.64h-1.12l.43-3.51c.04-.34,0-.58-.11-.74-.12-.16-.34-.23-.67-.23Z"/>
        <path class="uuid-328ff404-4653-4aab-9a60-22e2403611aa" d="M47.32,8.5c-.12.09-.28.16-.47.22-.19.06-.37.09-.54.09-.49,0-.85-.17-1.06-.5-.21-.34-.28-.82-.19-1.45l.4-2.88-.88-.05v-.11l1.84-1.89h.21l-.16,1.32,1.36-.15-.05,1.01-1.4-.08-.3,2.58c-.03.27-.04.51-.03.71,0,.21.06.38.16.5.1.13.26.19.48.19.2,0,.43-.07.7-.21h.02l-.09.68Z"/>
      </g>
      <rect class="uuid-328ff404-4653-4aab-9a60-22e2403611aa" x="-1.18" y="1.61" width="10.97" height="8.61" transform="translate(10.22 1.61) rotate(90)"/>
    </g>
    <g>
      <g>
        <path class="uuid-328ff404-4653-4aab-9a60-22e2403611aa" d="M132.2,7.98c.2,0,.38-.03.54-.08.17-.06.38-.15.63-.29h.03l-.09.77c-.21.13-.41.23-.6.3-.19.07-.4.1-.63.1-.33,0-.62-.07-.88-.2s-.47-.32-.62-.55c-.16-.23-.27-.49-.36-.78-.08-.29-.12-.59-.12-.91,0-.97.26-1.76.78-2.36.52-.6,1.16-.9,1.93-.9.43,0,.77.08,1.02.24l.09,1.23h-.02c-.15-.15-.32-.28-.53-.38-.21-.1-.42-.15-.64-.15-.33,0-.62.12-.88.36-.25.24-.43.54-.55.9s-.18.76-.18,1.19c0,.45.09.82.26,1.1.17.28.45.42.82.42Z"/>
        <path class="uuid-328ff404-4653-4aab-9a60-22e2403611aa" d="M134.6,6.2c0-.39.05-.77.16-1.14.11-.37.26-.7.45-1,.2-.3.46-.54.78-.72s.68-.27,1.08-.27c.44,0,.82.11,1.12.32.31.21.53.49.67.84.14.35.21.75.21,1.21s-.06.86-.17,1.26c-.11.4-.28.76-.48,1.07-.21.31-.47.56-.79.74-.32.18-.67.27-1.06.27-.61,0-1.09-.24-1.44-.73-.35-.49-.52-1.1-.52-1.85ZM135.62,6.22c0,.52.09.95.27,1.27.18.33.43.49.75.49.29,0,.54-.11.75-.33.21-.22.37-.5.47-.86.1-.35.16-.75.16-1.19,0-.46-.09-.84-.27-1.14s-.44-.45-.77-.45c-.29,0-.54.11-.75.32-.21.21-.37.49-.47.81-.1.33-.15.68-.15,1.07Z"/>
        <path class="uuid-328ff404-4653-4aab-9a60-22e2403611aa" d="M142.73,4.2c-.33,0-.73.19-1.2.56l-.29,3.92h-1.12l.53-4.21-.16-1.29h1.14l-.06.92.25-.22c.12-.11.22-.2.3-.26s.19-.15.33-.25c.14-.1.29-.18.43-.23.15-.05.29-.08.43-.08.24,0,.43.05.59.14.16.09.28.23.36.41.08.18.13.39.16.62.02.23.02.5,0,.8l-.26,3.64h-1.12l.44-3.51c.04-.34,0-.58-.11-.74-.12-.16-.33-.23-.65-.23Z"/>
        <path class="uuid-328ff404-4653-4aab-9a60-22e2403611aa" d="M147.7,7.98c.2,0,.38-.03.54-.08.17-.06.38-.15.63-.29h.03l-.09.77c-.21.13-.41.23-.6.3-.19.07-.4.1-.63.1-.33,0-.62-.07-.88-.2s-.47-.32-.62-.55c-.16-.23-.27-.49-.36-.78-.08-.29-.12-.59-.12-.91,0-.97.26-1.76.78-2.36.52-.6,1.16-.9,1.93-.9.43,0,.77.08,1.02.24l.09,1.23h-.02c-.15-.15-.32-.28-.53-.38-.21-.1-.42-.15-.64-.15-.33,0-.62.12-.88.36-.25.24-.43.54-.55.9s-.18.76-.18,1.19c0,.45.09.82.26,1.1.17.28.45.42.82.42Z"/>
        <path class="uuid-328ff404-4653-4aab-9a60-22e2403611aa" d="M152.51,8.13c-.41.44-.78.66-1.11.66-.4,0-.73-.2-.99-.59-.26-.39-.4-.89-.4-1.49,0-.7.13-1.33.39-1.89.26-.55.62-.99,1.07-1.29.45-.31.96-.46,1.53-.46.3,0,.7.02,1.2.05l-.38,5.55h-1.07l.08-.89-.32.34ZM151.68,7.9c.17,0,.35-.08.54-.24.19-.16.42-.4.69-.72l.38-2.88c-.11-.03-.23-.04-.35-.04-.29,0-.57.08-.81.24-.25.16-.45.37-.61.62-.16.26-.28.54-.37.85s-.13.62-.13.94c0,.36.05.65.16.89s.27.35.5.35Z"/>
        <path class="uuid-328ff404-4653-4aab-9a60-22e2403611aa" d="M156.26,8.68l-1.13-5.48v-.02h1.22l.42,4.06,1.8-4.06h1.28v.02l-3.19,5.48h-.4Z"/>
        <path class="uuid-328ff404-4653-4aab-9a60-22e2403611aa" d="M163.19,8.32c-.47.31-.96.46-1.48.46-.32,0-.61-.07-.86-.22-.25-.15-.45-.34-.6-.59-.15-.24-.26-.51-.33-.79s-.11-.57-.11-.87c0-.49.07-.94.21-1.35s.32-.76.54-1.03.48-.48.77-.63c.29-.15.58-.23.88-.23.5,0,.88.16,1.15.49.26.32.4.74.4,1.25,0,.47-.07.95-.22,1.45h-2.72v.21c0,.2.02.39.05.56.04.17.09.33.17.48.08.15.19.27.34.35s.33.13.54.13.41-.03.59-.09.43-.17.74-.34h.02l-.09.77ZM162.09,4.02c-.28,0-.54.14-.77.43-.23.29-.38.72-.46,1.29l1.83-.25c.06-.19.1-.38.1-.58,0-.27-.06-.49-.18-.65-.12-.16-.29-.24-.52-.24Z"/>
      </g>
      <path class="uuid-328ff404-4653-4aab-9a60-22e2403611aa" d="M116.78,5.89c0-2.03-.43-3.96-1.25-5.87,1.66,1,3.24,1.37,4.89,1.37,1.64,0,3.23-.37,4.89-1.37-.82,1.91-1.25,3.85-1.25,5.87,0,2.03.43,3.96,1.25,5.87-1.66-1-3.24-1.37-4.89-1.37-1.64,0-3.23.37-4.89,1.37.82-1.91,1.25-3.85,1.25-5.87Z"/>
    </g>
  </g>
</svg>