<?xml version="1.0" encoding="UTF-8"?>
<svg id="Layer_1" xmlns="http://www.w3.org/2000/svg" version="1.1" viewBox="0 0 1000 678.255">
  <!-- Generator: Adobe Illustrator 30.0.0, SVG Export Plug-In . SVG Version: 2.1.1 Build 123)  -->
  <defs>
    <style>
      .st0 {
        fill: #d74c00;
      }
    </style>
  </defs>
  <path class="st0" d="M369.651,678.255c63.64,0,109.677-37.913,129.987-104.261,20.311,66.348,66.348,104.261,129.987,104.261,9.478,0,20.311-1.354,28.435-2.708v-207.167c-52.807,20.311-104.261,28.435-158.422,28.435s-105.615-8.124-158.422-28.435v207.167c8.124,1.354,18.956,2.708,28.435,2.708Z"/>
  <path class="st0" d="M1000,335.684v-143.411C1000,60.932,955.317,0,852.41,0c-101.553,0-147.59,60.932-147.59,192.273v293.709c0,131.341,46.037,192.273,147.59,192.273,102.907,0,147.59-60.932,147.59-192.273v-58.223c-46.037,29.789-94.782,43.329-139.465,43.329-62.286,0-105.615-29.789-105.615-89.366s43.329-89.366,105.615-89.366c44.683,0,93.428,13.54,139.465,43.329Z"/>
  <path class="st0" d="M369.651,221.43c-9.478,0-20.311,1.354-28.435,2.708v207.167c52.807-20.311,104.261-28.435,158.422-28.435s105.615,8.124,158.422,28.435v-207.167c-8.124-1.354-18.956-2.708-28.435-2.708-63.64,0-109.677,37.913-129.987,104.261-20.311-66.348-66.348-104.261-129.987-104.261Z"/>
  <path class="st0" d="M0,174.67h658.06v-54.161C544.555,39.267,397.813,0,241.874,0,163.502,0,81.075,10.832,0,31.143v143.528Z"/>
  <path class="st0" d="M218.631,419.119c48.745,0,79.888-28.435,79.888-83.95s-31.143-83.95-79.888-83.95-79.888,28.435-79.888,83.95,31.143,83.95,79.888,83.95Z"/>
  <path class="st0" d="M218.631,648.466c48.745,0,79.888-28.435,79.888-83.95s-31.143-83.95-79.888-83.95-79.888,28.435-79.888,83.95,31.143,83.95,79.888,83.95Z"/>
</svg>