<?xml version="1.0" encoding="UTF-8"?>
<svg xmlns="http://www.w3.org/2000/svg" width="3.16in" height="2.13in" viewBox="0 0 227.52 153.39">
  <defs>
    <style>
      .uuid-1142ada7-2e0f-4c77-ac01-175f4bfdbc75 {
        fill: #fff;
      }

      .uuid-90693ef5-3088-4ee7-afa6-ace69a57dddd {
        fill: none;
        stroke: #332019;
        stroke-width: 5px;
      }

      .uuid-a88c5c10-1a75-44e6-a265-bc27f3b8dc90 {
        fill: #332019;
      }

      .uuid-2c11c028-f39a-41f1-8cfd-0837184047bb {
        fill: #d74c00;
      }
    </style>
  </defs>
  <g id="uuid-34cee021-ca40-4897-8241-f6f52bb2e673" data-name="shapes">
    <path class="uuid-2c11c028-f39a-41f1-8cfd-0837184047bb" d="M85.98,49.6c-2.05,0-4.26.29-6.02.59v44.02c11.15-4.26,22.16-6.02,33.6-6.02s22.45,1.76,33.6,6.02v-44.02c-1.76-.29-3.96-.59-6.02-.59-13.5,0-23.33,8.07-27.59,22.16-4.26-14.09-14.09-22.16-27.59-22.16Z"/>
    <path class="uuid-2c11c028-f39a-41f1-8cfd-0837184047bb" d="M53.99,91.57c10.42,0,17.02-6.02,17.02-17.9s-6.6-17.9-17.02-17.9-17.02,6.02-17.02,17.9,6.6,17.9,17.02,17.9Z"/>
    <path class="uuid-2c11c028-f39a-41f1-8cfd-0837184047bb" d="M53.99,140.28c10.42,0,17.02-6.02,17.02-17.9s-6.6-17.9-17.02-17.9-17.02,6.02-17.02,17.9,6.6,17.9,17.02,17.9Z"/>
    <path class="uuid-2c11c028-f39a-41f1-8cfd-0837184047bb" d="M113.57,124.44c4.26,14.09,14.09,22.16,27.59,22.16,2.05,0,4.26-.29,6.02-.59v-44.02c-11.15,4.26-22.16,6.02-33.6,6.02s-22.45-1.76-33.6-6.02v44.02c1.76.29,3.96.59,6.02.59,13.5,0,23.33-8.07,27.59-22.16Z"/>
    <path class="uuid-2c11c028-f39a-41f1-8cfd-0837184047bb" d="M7.48,39.62h139.84v-11.51C123.15,10.85,92.36,2.22,58.98,2.51c-16.69,0-34.24,2.3-51.5,6.62v30.5Z"/>
    <path class="uuid-2c11c028-f39a-41f1-8cfd-0837184047bb" d="M220.04,93.55v12.24c0,27.92-9.84,40.85-31.44,40.85s-31.44-12.93-31.44-40.85v-62.45c0-27.92,9.55-40.85,31.44-40.85s31.44,12.93,31.44,40.85v30.61c-9.8-6.34-20.17-9.22-29.68-9.22-13.26,0-22.48,6.34-22.48,19.02s9.22,19.02,22.48,19.02c9.51,0,19.88-2.88,29.68-9.22Z"/>
  </g>
  <g id="uuid-37b23f8d-b151-4ded-b2a8-461edf4e437f" data-name="shape trace">
    <g>
      <path class="uuid-1142ada7-2e0f-4c77-ac01-175f4bfdbc75" d="M90.21,146.38c1.44-5.57,1.25-11.39.78-17.05-.11-5.5-2.35-10.35-6.05-14.43-3.23-3.59-6.95-8.05-7.79-13.17-.51-2.7-.48-5.39-.16-7.94.2-1.65,1.7-2.82,3.35-2.61,1.68.21,2.87,1.79,2.59,3.46-.49,3.1-.47,6.04.62,8.89,1.22,3.07,3.25,5.29,5.43,8.06,4.35,5.07,6.89,11.8,6.58,18.56-.53,5.71-1.6,11.49-4.01,16.71-.36.77-1.57.36-1.34-.48h0Z"/>
      <path class="uuid-1142ada7-2e0f-4c77-ac01-175f4bfdbc75" d="M91.38,142.3c1.13-9.18-2.93-15.51-12.3-16.69-2.63-.37-5.35-.38-8.07-.22-1.67.12-3.13-1.15-3.22-2.82-.12-1.8,1.43-3.32,3.22-3.18,6.17.49,12.7,1.59,17.6,5.84,2.47,2.15,4.17,5.2,4.68,8.3.53,3.11.18,6.16-.51,9.03-.09.38-.48.62-.86.53-.36-.08-.59-.43-.54-.78h0Z"/>
      <path class="uuid-1142ada7-2e0f-4c77-ac01-175f4bfdbc75" d="M79.45,93.72c6.27-7.18,10.15-16.23,11.91-25.54.89-4.65,1.28-9.38,1.33-14.11.07-4.73-.38-9.47-.92-14.17-.25-1.67.94-3.24,2.63-3.43,1.73-.21,3.29,1.13,3.35,2.87.8,16.05-1.37,32.99-10.25,46.72-2,3.13-4.37,6.03-7.01,8.64-.28.28-.73.27-1.01-.01-.26-.27-.27-.7-.02-.97h0Z"/>
      <path class="uuid-1142ada7-2e0f-4c77-ac01-175f4bfdbc75" d="M93.59,39.86c-3.14-9.48-13.97-11.99-22.95-11.96-9.5.05-33.93.19-43.12.23-2.68-.12-5.45-.29-7.73-2.19-2.37-2.18-2.67-5.69-1.46-8.51.72-1.44,2.12-2.39,3.5-2.97,3.57-1.44,7.36-1.73,11.06-2.11,4.84-.41,9.65-.57,14.45-.69,9.58-.22,19.28-.29,28.94.59,29.13,2.37,56.33,14.31,82.17,27.16,3.49,1.83.94,7.11-2.71,5.35-25.14-13.13-51.37-25.38-79.88-28.3-9.4-1.05-18.89-1.19-28.46-1.14-4.77.03-9.54.11-14.25.42-3.41.28-6.93.49-10.07,1.67-2.06.7-2.49,2.21-2.29,4.08.25,3.36,4.11,3.63,6.84,3.82,4.68.11,9.55.13,14.31.21l28.75.37c4.84.17,9.8.81,14.36,2.83,2.26,1.01,4.4,2.43,6.12,4.26,1.74,1.82,3,4.06,3.78,6.42.12.37-.08.78-.45.9-.37.12-.77-.08-.9-.44h0Z"/>
      <path class="uuid-1142ada7-2e0f-4c77-ac01-175f4bfdbc75" d="M79.42,93.75c2.57-3.73,6.53-9.23,4.68-13.78-2.36-3.87-8.8-3.47-13.09-3.3-1.66.12-3.1-1.14-3.21-2.8-.11-1.66,1.14-3.09,2.8-3.2,10.36.24,22.37,5.01,15.25,17.24-1.5,2.55-3.38,4.72-5.34,6.76-.27.28-.73.29-1.01.02-.26-.25-.29-.66-.08-.95h0Z"/>
    </g>
  </g>
  <g id="uuid-5df96058-9040-4a6e-ab2b-9e19832196f2" data-name="entry points">
    <g>
      <path class="uuid-a88c5c10-1a75-44e6-a265-bc27f3b8dc90" d="M90.69,152.39c-3.35,0-6.07-2.72-6.07-6.07s2.72-6.07,6.07-6.07,6.07,2.72,6.07,6.07-2.72,6.07-6.07,6.07Z"/>
      <path class="uuid-1142ada7-2e0f-4c77-ac01-175f4bfdbc75" d="M90.69,141.25c2.8,0,5.07,2.27,5.07,5.07s-2.27,5.07-5.07,5.07-5.07-2.27-5.07-5.07,2.27-5.07,5.07-5.07M90.69,139.25c-3.9,0-7.07,3.17-7.07,7.07s3.17,7.07,7.07,7.07,7.07-3.17,7.07-7.07-3.17-7.07-7.07-7.07h0Z"/>
    </g>
    <g>
      <path class="uuid-a88c5c10-1a75-44e6-a265-bc27f3b8dc90" d="M70.94,128.45c-3.35,0-6.07-2.72-6.07-6.07s2.72-6.07,6.07-6.07,6.07,2.72,6.07,6.07-2.72,6.07-6.07,6.07Z"/>
      <path class="uuid-1142ada7-2e0f-4c77-ac01-175f4bfdbc75" d="M70.94,117.31c2.8,0,5.07,2.27,5.07,5.07s-2.27,5.07-5.07,5.07-5.07-2.27-5.07-5.07,2.27-5.07,5.07-5.07M70.94,115.31c-3.9,0-7.07,3.17-7.07,7.07s3.17,7.07,7.07,7.07,7.07-3.17,7.07-7.07-3.17-7.07-7.07-7.07h0Z"/>
    </g>
    <g>
      <path class="uuid-a88c5c10-1a75-44e6-a265-bc27f3b8dc90" d="M70.94,79.79c-3.25,0-5.91-2.54-6.06-5.79-.15-3.34,2.44-6.19,5.79-6.34.09,0,.19,0,.28,0,3.25,0,5.91,2.54,6.06,5.79.15,3.34-2.44,6.19-5.79,6.34-.09,0-.19,0-.28,0Z"/>
      <path class="uuid-1142ada7-2e0f-4c77-ac01-175f4bfdbc75" d="M70.95,68.65c2.69,0,4.94,2.12,5.06,4.84.13,2.8-2.03,5.17-4.83,5.3-.08,0-.16,0-.24,0-2.69,0-4.94-2.12-5.06-4.84-.13-2.8,2.03-5.17,4.83-5.3.08,0,.16,0,.24,0M70.95,66.65c-.11,0-.22,0-.33,0-1.89.09-3.63.9-4.9,2.3s-1.93,3.2-1.84,5.09c.17,3.78,3.27,6.75,7.06,6.75.11,0,.22,0,.33,0,1.89-.09,3.63-.9,4.9-2.3,1.27-1.4,1.93-3.2,1.84-5.09-.17-3.78-3.27-6.75-7.06-6.75h0Z"/>
    </g>
    <g>
      <circle class="uuid-a88c5c10-1a75-44e6-a265-bc27f3b8dc90" cx="80.01" cy="94.17" r="6.07"/>
      <path class="uuid-1142ada7-2e0f-4c77-ac01-175f4bfdbc75" d="M80.01,89.1c2.8,0,5.07,2.27,5.07,5.07s-2.27,5.07-5.07,5.07-5.07-2.27-5.07-5.07,2.27-5.07,5.07-5.07M80.01,87.1c-3.9,0-7.07,3.17-7.07,7.07s3.17,7.07,7.07,7.07,7.07-3.17,7.07-7.07-3.17-7.07-7.07-7.07h0Z"/>
    </g>
    <g>
      <path class="uuid-a88c5c10-1a75-44e6-a265-bc27f3b8dc90" d="M94.59,45.69c-3.35,0-6.07-2.72-6.07-6.07s2.72-6.07,6.07-6.07,6.07,2.72,6.07,6.07-2.72,6.07-6.07,6.07Z"/>
      <path class="uuid-1142ada7-2e0f-4c77-ac01-175f4bfdbc75" d="M94.59,34.55c2.8,0,5.07,2.27,5.07,5.07s-2.27,5.07-5.07,5.07-5.07-2.27-5.07-5.07,2.27-5.07,5.07-5.07M94.59,32.55c-3.9,0-7.07,3.17-7.07,7.07s3.17,7.07,7.07,7.07,7.07-3.17,7.07-7.07-3.17-7.07-7.07-7.07h0Z"/>
    </g>
    <g>
      <path class="uuid-a88c5c10-1a75-44e6-a265-bc27f3b8dc90" d="M157.38,48.17c-3.35,0-6.07-2.72-6.07-6.07s2.72-6.07,6.07-6.07,6.07,2.72,6.07,6.07-2.72,6.07-6.07,6.07Z"/>
      <path class="uuid-1142ada7-2e0f-4c77-ac01-175f4bfdbc75" d="M157.38,37.03c2.8,0,5.07,2.27,5.07,5.07s-2.27,5.07-5.07,5.07-5.07-2.27-5.07-5.07,2.27-5.07,5.07-5.07M157.38,35.03c-3.9,0-7.07,3.17-7.07,7.07s3.17,7.07,7.07,7.07,7.07-3.17,7.07-7.07-3.17-7.07-7.07-7.07h0Z"/>
    </g>
  </g>
  <g id="uuid-5ba3ce86-6918-4c6b-9066-d0820fc798b5" data-name="sides">
    <g>
      <g>
        <line class="uuid-90693ef5-3088-4ee7-afa6-ace69a57dddd" x1="79.97" y1="85.6" x2="79.97" y2="64.03"/>
        <polygon class="uuid-a88c5c10-1a75-44e6-a265-bc27f3b8dc90" points="87.45 66.22 79.97 53.27 72.49 66.22 87.45 66.22"/>
      </g>
      <g>
        <path class="uuid-90693ef5-3088-4ee7-afa6-ace69a57dddd" d="M141.71,92.32c-9.3-2.89-18.57-4.13-28.14-4.13-7.92,0-15.64.84-23.33,2.77"/>
        <polygon class="uuid-a88c5c10-1a75-44e6-a265-bc27f3b8dc90" points="90.18 83.28 79.97 94.21 94.54 97.59 90.18 83.28"/>
      </g>
      <g>
        <line class="uuid-90693ef5-3088-4ee7-afa6-ace69a57dddd" x1="147.17" y1="54.59" x2="147.17" y2="77.43"/>
        <polygon class="uuid-a88c5c10-1a75-44e6-a265-bc27f3b8dc90" points="139.69 75.24 147.17 88.19 154.65 75.24 139.69 75.24"/>
      </g>
      <g>
        <path class="uuid-90693ef5-3088-4ee7-afa6-ace69a57dddd" d="M115.96,65.62c3.42-6.99,8.58-11.88,15.12-14.3"/>
        <polygon class="uuid-a88c5c10-1a75-44e6-a265-bc27f3b8dc90" points="130.4 59.4 141.71 49.61 127.58 44.71 130.4 59.4"/>
      </g>
      <g>
        <path class="uuid-90693ef5-3088-4ee7-afa6-ace69a57dddd" d="M85.43,49.61c.19,0,.37,0,.56,0,7.57,0,13.99,2.54,18.92,7.26"/>
        <polygon class="uuid-a88c5c10-1a75-44e6-a265-bc27f3b8dc90" points="97.37 59.85 111.18 65.61 109.27 50.78 97.37 59.85"/>
      </g>
      <g>
        <path class="uuid-90693ef5-3088-4ee7-afa6-ace69a57dddd" d="M71.02,122.38c0,11.89-6.6,17.9-17.02,17.9s-17.02-6.02-17.02-17.9,6.6-17.9,17.02-17.9c2.69,0,5.12.4,7.25,1.2"/>
        <polygon class="uuid-a88c5c10-1a75-44e6-a265-bc27f3b8dc90" points="54.39 110.63 69.17 112.96 63.81 99 54.39 110.63"/>
      </g>
      <g>
        <path class="uuid-90693ef5-3088-4ee7-afa6-ace69a57dddd" d="M71.02,73.67c0,11.89-6.6,17.9-17.02,17.9s-17.02-6.02-17.02-17.9,6.6-17.9,17.02-17.9c2.69,0,5.12.4,7.25,1.2"/>
        <polygon class="uuid-a88c5c10-1a75-44e6-a265-bc27f3b8dc90" points="54.39 61.91 69.17 64.25 63.81 50.28 54.39 61.91"/>
      </g>
      <g>
        <path class="uuid-90693ef5-3088-4ee7-afa6-ace69a57dddd" d="M111.52,129.86c-2.58,5.58-6.24,9.89-10.8,12.73"/>
        <polygon class="uuid-a88c5c10-1a75-44e6-a265-bc27f3b8dc90" points="99.81 134.47 90.6 146.26 105.41 148.34 99.81 134.47"/>
      </g>
      <g>
        <path class="uuid-90693ef5-3088-4ee7-afa6-ace69a57dddd" d="M141.71,146.59c-.19,0-.37,0-.56,0-7.58,0-14.01-2.55-18.94-7.28"/>
        <polygon class="uuid-a88c5c10-1a75-44e6-a265-bc27f3b8dc90" points="129.74 136.33 115.95 130.56 117.84 145.39 129.74 136.33"/>
      </g>
      <g>
        <line class="uuid-90693ef5-3088-4ee7-afa6-ace69a57dddd" x1="147.17" y1="107.34" x2="147.17" y2="131.66"/>
        <polygon class="uuid-a88c5c10-1a75-44e6-a265-bc27f3b8dc90" points="139.69 129.47 147.17 142.42 154.65 129.47 139.69 129.47"/>
      </g>
      <g>
        <path class="uuid-90693ef5-3088-4ee7-afa6-ace69a57dddd" d="M87.59,104.52c8.58,2.43,17.14,3.48,25.98,3.48,5.99,0,11.86-.48,17.69-1.55"/>
        <polygon class="uuid-a88c5c10-1a75-44e6-a265-bc27f3b8dc90" points="130.78 114.09 141.71 103.88 127.4 99.52 130.78 114.09"/>
      </g>
      <g>
        <line class="uuid-90693ef5-3088-4ee7-afa6-ace69a57dddd" x1="79.97" y1="141.99" x2="79.97" y2="113.84"/>
        <polygon class="uuid-a88c5c10-1a75-44e6-a265-bc27f3b8dc90" points="87.45 116.03 79.97 103.08 72.49 116.03 87.45 116.03"/>
      </g>
      <g>
        <line class="uuid-90693ef5-3088-4ee7-afa6-ace69a57dddd" x1="147.32" y1="21.06" x2="147.32" y2="31.84"/>
        <polygon class="uuid-a88c5c10-1a75-44e6-a265-bc27f3b8dc90" points="139.84 29.65 147.32 42.6 154.8 29.65 139.84 29.65"/>
      </g>
      <g>
        <path class="uuid-90693ef5-3088-4ee7-afa6-ace69a57dddd" d="M10.37,8.42C26.7,4.56,43.23,2.51,58.98,2.51c26.84-.23,52.01,5.31,73.4,16.46"/>
        <polygon class="uuid-a88c5c10-1a75-44e6-a265-bc27f3b8dc90" points="126.76 24.48 141.71 24.34 134.11 11.46 126.76 24.48"/>
      </g>
      <g>
        <line class="uuid-90693ef5-3088-4ee7-afa6-ace69a57dddd" x1="7.48" y1="35.72" x2="7.48" y2="22.56"/>
        <polygon class="uuid-a88c5c10-1a75-44e6-a265-bc27f3b8dc90" points="14.96 24.75 7.48 11.8 0 24.75 14.96 24.75"/>
      </g>
      <g>
        <line class="uuid-90693ef5-3088-4ee7-afa6-ace69a57dddd" x1="141.71" y1="39.62" x2="22.51" y2="39.62"/>
        <polygon class="uuid-a88c5c10-1a75-44e6-a265-bc27f3b8dc90" points="24.7 32.15 11.74 39.62 24.7 47.1 24.7 32.15"/>
      </g>
      <g>
        <path class="uuid-90693ef5-3088-4ee7-afa6-ace69a57dddd" d="M215.42,71.24c-8.39-4.46-17.04-6.51-25.07-6.51-13.26,0-22.48,6.34-22.48,19.02s9.22,19.02,22.48,19.02c4.97,0,10.18-.79,15.41-2.44"/>
        <polygon class="uuid-a88c5c10-1a75-44e6-a265-bc27f3b8dc90" points="206.48 107.92 215.68 96.13 200.87 94.05 206.48 107.92"/>
      </g>
      <g>
        <path class="uuid-90693ef5-3088-4ee7-afa6-ace69a57dddd" d="M220.04,99.58v6.21c0,27.92-9.84,40.85-31.44,40.85s-31.44-12.93-31.44-40.85v-62.45c0-27.92,9.55-40.85,31.44-40.85s31.44,12.93,31.44,40.85v15.71"/>
        <polygon class="uuid-a88c5c10-1a75-44e6-a265-bc27f3b8dc90" points="212.56 56.87 220.04 69.82 227.52 56.87 212.56 56.87"/>
      </g>
    </g>
  </g>
</svg>