<?xml version="1.0" encoding="UTF-8"?>
<svg id="Layer_1" xmlns="http://www.w3.org/2000/svg" version="1.1" viewBox="0 0 144.8 98.2">
  <!-- Generator: Adobe Illustrator 30.0.0, SVG Export Plug-In . SVG Version: 2.1.1 Build 123)  -->
  <defs>
    <style>
      .st0 {
        fill: #d74c00;
      }
    </style>
  </defs>
  <path class="st0" d="M53.5,98.2c9.2,0,15.9-5.5,18.8-15.1,2.9,9.6,9.6,15.1,18.8,15.1s2.9-.2,4.1-.4v-30c-7.6,2.9-15.1,4.1-22.9,4.1s-15.3-1.2-22.9-4.1v30c1.2.2,2.7.4,4.1.4Z"/>
  <path class="st0" d="M144.8,48.6v-20.8C144.8,8.8,138.3,0,123.4,0s-21.4,8.8-21.4,27.8v42.5c0,19,6.7,27.8,21.4,27.8s21.4-8.8,21.4-27.8v-8.4c-6.7,4.3-13.7,6.3-20.2,6.3s-15.3-4.3-15.3-12.9,6.3-12.9,15.3-12.9,13.5,2,20.2,6.3Z"/>
  <path class="st0" d="M53.5,32.1c-1.4,0-2.9.2-4.1.4v30c7.6-2.9,15.1-4.1,22.9-4.1s15.3,1.2,22.9,4.1v-30c-1.2-.2-2.7-.4-4.1-.4-9.2,0-15.9,5.5-18.8,15.1-2.9-9.6-9.6-15.1-18.8-15.1Z"/>
  <path class="st0" d="M0,25.3h95.3v-7.8C78.8,5.7,57.6,0,35,0S11.7,1.6,0,4.5v20.8Z"/>
  <path class="st0" d="M31.7,60.7c7.1,0,11.6-4.1,11.6-12.2s-4.5-12.2-11.6-12.2-11.6,4.1-11.6,12.2,4.5,12.2,11.6,12.2Z"/>
  <path class="st0" d="M31.7,93.9c7.1,0,11.6-4.1,11.6-12.2s-4.5-12.2-11.6-12.2-11.6,4.1-11.6,12.2,4.5,12.2,11.6,12.2Z"/>
</svg>