<?xml version="1.0" encoding="UTF-8"?>
<svg id="Layer_1" xmlns="http://www.w3.org/2000/svg" version="1.1" viewBox="0 0 100 72.6">
  <!-- Generator: Adobe Illustrator 30.0.0, SVG Export Plug-In . SVG Version: 2.1.1 Build 123)  -->
  <defs>
    <style>
      .st0 {
        fill: #d74c00;
      }
    </style>
  </defs>
  <path class="st0" d="M84.5,52.7c-6.1,0-10.2-3.7-10.2-11.1s4.1-11.1,10.2-11.1,10.2,3.7,10.2,11.1-4.1,11.1-10.2,11.1ZM0,25.1h65C66.3,9.6,59.5-1.8,38.8.2v17.4L0,6.6v18.5ZM12.5,47.7h52.6v-9c-15.9-.3-20.6-2.8-21.1-9.8h-10.5c-.4,7-5.1,9.5-21.1,9.8v9ZM31.9,72.6c5,0,10-1.8,13.7-5.7,3.7,3.8,8.7,5.7,13.7,5.7s4-.3,6-.9v-21.2c-6.4,6.3-13.4,8.5-19.6,8.5s-13.2-2.3-19.6-8.5v21.2c2,.6,4,.9,6,.9ZM84.5,72.6c10.8,0,15.5-6.4,15.5-20.2V20.3C100,6.5,95.3,0,84.5,0s-15.5,6.4-15.5,20.2v32.1c0,13.8,4.8,20.2,15.5,20.2Z"/>
</svg>