<?xml version="1.0" encoding="UTF-8"?>
<svg id="vector" xmlns="http://www.w3.org/2000/svg" viewBox="0 0 70.16 8.14">
  <defs>
    <style>
      .cls-1, .cls-2 {
        stroke: #000;
      }

      .cls-1, .cls-2, .cls-3, .cls-4 {
        fill: none;
        stroke-linecap: round;
        stroke-linejoin: round;
      }

      .cls-1, .cls-4 {
        stroke-width: .6px;
      }

      .cls-2 {
        stroke-width: .62px;
      }

      .cls-3 {
        stroke-width: .4px;
      }

      .cls-3, .cls-4 {
        stroke: #7fa0af;
      }
    </style>
  </defs>
  <path class="cls-4" d="M41.94,5.21l.08-.31-.04-.18-.15-.1h-.31s-.22.11-.22.11l-.11.18-.03.32.04.12.17.19.17.09.15.03h.17s.19-.08.19-.08l.23-.19.07-.11.04-.18v-.21s-.04-.15-.04-.15l-.16-.23-.18-.15-.28-.14-.33-.02-.15.08-.11.23v.38s.18.4.18.4l.14.14.16.1.22.05h.17s.24-.08.24-.08l.14-.09.23-.29.1-.24v-.24s-.02-.15-.02-.15l-.07-.11-.19-.19-.15-.09-.3-.07-.18.03-.12.09-.29.38-.13.36.03.48.09.17.18.15.18.08h.31s.27-.06.27-.06l.16-.08.16-.12.17-.23.03-.15-.02-.26-.12-.26-.24-.22-.24-.12-.24-.08-.35-.03-.13.05-.08.09-.1.16-.06.21-.04.55.03.21.07.17.3.21.21.06h.13s.36-.14.36-.14l.24-.24.08-.4-.08-.32-.09-.15-.14-.15-.17-.11-.36-.16-.16-.02h-.14s-.12.05-.12.05l-.11.08-.09.14-.16.47v.21s.04.25.04.25l.1.2.15.18.1.07.29.11.33-.03.23-.14.24-.34.05-.17v-.23s-.09-.27-.09-.27l-.12-.16-.14-.12-.24-.11-.18-.05h-.18s-.14.05-.14.05l-.09.08-.08.24.02.37.1.26.25.23.3.09h.12s.18-.07.18-.07l.16-.13.11-.16.05-.13v-.13s-.07-.25-.07-.25l-.11-.12-.2-.1h-.25s-.18.06-.18.06l-.09.15v.28s.07.19.07.19l.17.18.09.04h.07s-.04-.06-.04-.06l-.03-.25-.05-.08-.07-.02"/>
  <path class="cls-1" d="M37.8,4.83l.02.02.49.02.55-.03.51.04h.58s.58.06.58.06h.26s.62.02.62.02l.16.04.52.04h.62s.16.03.16.03l.28-.03.44.03.52-.04.2.03.77-.04.36.04-.06-.06"/>
  <path class="cls-3" d="M41.89,2.83l.04-.02v-.1s-.09-.03-.09-.03l-.05.02v.16s.08.06.08.06l.1-.03.05-.09-.02-.04-.11-.02-.05.02.02.03"/>
  <path class="cls-3" d="M42,2.01v-.05s-.03,0-.03,0l-.1-.09v-.07s.41-.61.41-.61l.07-.27v-.21s-.1-.16-.1-.16l-.18-.1h-.18s-.2.06-.2.06l-.17.1-.07.12.02.14.11.14"/>
  <path class="cls-4" d="M28.47,3.72l.06.02.42-.19.1-.12.03-.23-.12-.29-.13-.14-.26-.18-.2-.05h-.12s-.13.06-.13.06l-.13.11-.08.29v.21s.13.4.13.4l.24.32.14.13.25.09.29-.05.22-.12.17-.14.2-.25.06-.14-.02-.25-.11-.22-.12-.16-.16-.13-.36-.12h-.26s-.26.07-.26.07l-.13.09-.2.28-.08.36.04.28.12.2.18.19.12.06.19.02.16-.02.19-.07.29-.19.13-.19.07-.17-.03-.29-.13-.27-.14-.16-.43-.24-.35-.03-.14.02-.13.06-.17.17-.08.17-.11.36.03.16.09.18.32.27.24.08h.17s.16-.08.16-.08l.29-.31.16-.26.03-.2-.05-.23-.2-.29-.27-.16-.36-.06-.26.04-.16.14-.14.39v.39s.18.27.18.27l.12.1.12.05h.22s.13-.04.13-.04l.16-.12.09-.09.1-.18.08-.28v-.12s-.02-.06-.02-.06l-.21-.15-.15-.05h-.18s-.06.03-.06.03l-.07.08-.06.28.05.33.15.14h.12s.13-.06.13-.06l.09-.12.05-.26-.04-.13-.07-.04-.05.02-.13.2v.17s.09.09.09.09"/>
  <path class="cls-1" d="M25.86,6.43l-.02.03h.03s-.03,0-.03,0l.44-.42.29-.47.54-.63.36-.49.07-.15.44-.55.22-.21.05-.11.07-.07h.02s.07-.11.07-.11l.14-.05h-.05s.07-.09.07-.09h.05s-.04-.01-.04-.01l.52.62.26.42.22.21.22.32.35.39.28.5.34.48.1.1.12.21.1.05.03.04h-.03s.06,0,.06,0l-.15-.09"/>
  <path class="cls-4" d="M16.53,6.97l.12-.29.02-.2-.03-.21-.16-.23-.22-.15-.23-.02-.16.04-.09.06-.09.15-.05.15v.11s.05.27.05.27l.06.11.1.12.12.08.18.04h.16s.33-.17.33-.17l.23-.26.06-.12.04-.19v-.22s-.03-.16-.03-.16l-.21-.25-.17-.13-.21-.1h-.23s-.19.17-.19.17l-.16.31-.04.21v.19s.15.32.15.32l.14.08.14.02h.18s.17-.05.17-.05l.2-.09.2-.14.15-.22v-.06s-.07-.3-.07-.3l-.14-.18-.25-.11h-.37s-.17.04-.17.04l-.18.11-.08.09-.1.2v.18s.06.16.06.16l.17.25.09.08.17.07.21.04h.22s.2-.05.2-.05l.18-.09.13-.11.04-.09v-.39s-.07-.18-.07-.18l-.11-.16-.29-.22-.21-.05h-.18l-.13.05-.1.1-.21.45v.26s.09.25.09.25l.09.11.16.09.2.02.28-.05.27-.16.11-.14.06-.16.04-.15v-.27s-.19-.28-.19-.28l-.14-.14-.18-.11-.14-.04h-.11s-.17.09-.17.09l-.11.19-.07.29v.35s.01.09.01.09l.17.21.17.05h.27s.25-.16.25-.16l.13-.24v-.31s-.1-.16-.1-.16l-.16-.08-.26.03-.15.11-.08.15-.03.25.14.29.13.11.1.04h.15s.11-.09.11-.09l.04-.34-.11-.14-.1-.05h-.2s-.11.06-.11.06l-.11.16.02.28.05.13.07.08.12.03.18-.07.22-.24"/>
  <path class="cls-2" d="M18.49,3.52l.06-.06h.06s-.05.02-.05.02l-.25.26-.53.78-.24.27-.79,1.05-.28.4h.04s-.3-.03-.3-.03l-1.81.02-1.1-.06"/>
  <path class="cls-4" d="M2.8,3.62l.03.08.17-.19.05-.11v-.12s-.11-.15-.11-.15l-.16-.1h-.29s-.2.17-.2.17l-.07.13-.03.16.07.4.11.14.14.1.25.04.25-.07.33-.29.09-.18v-.27s-.09-.14-.09-.14l-.18-.13-.17-.07-.21-.03-.17.02-.18.06-.16.12-.15.25-.02.33.07.22.1.14.19.11.22.03.24-.05.39-.25.07-.09.11-.25v-.17s-.21-.25-.21-.25l-.51-.27-.34-.06-.23.05-.13.12-.09.25.03.36.09.23.12.18.15.11.19.06.29-.02.16-.07.14-.08.21-.23.05-.21v-.26s-.09-.17-.09-.17l-.16-.22-.15-.14-.17-.08-.16-.02-.23.03-.21.14-.13.16-.07.25v.18s.05.23.05.23l.1.22.26.28.15.09.19.04.18-.02.35-.2.14-.15.1-.16.06-.24-.03-.25-.06-.15-.24-.28-.19-.12-.22-.06h-.16s-.23.02-.23.02l-.08.04-.22.34-.03.16v.31s.18.4.18.4l.17.18.25.12.32-.02.24-.25.02-.2-.1-.18-.16-.11-.29-.11.07.17"/>
  <path class="cls-2" d="M.83,6.16l-.06.06h-.06s.05-.02.05-.02l.25-.26.53-.78.24-.27.79-1.05.28-.4h-.04s.3.03.3.03l1.81-.02,1.1.06"/>
  <path class="cls-4" d="M55.42,4.38h.05s.1-.05.1-.05l.22-.29.04-.13v-.16s-.03-.08-.03-.08l-.09-.12-.21-.13-.35-.03-.27.1-.23.24-.07.18v.3s.2.33.2.33l.28.17h.5s.48-.19.48-.19l.08-.09.04-.12-.04-.29-.09-.2-.11-.14-.17-.13-.34-.1h-.3s-.13.06-.13.06l-.11.09-.07.1-.13.47v.36s.09.28.09.28l.17.22.15.12.16.06h.15s.19-.02.19-.02l.21-.11.23-.2.09-.18v-.45s-.03-.16-.03-.16l-.12-.25-.2-.18-.41-.18-.39-.05-.25.09-.11.22-.05.2-.02.36.06.2.22.28.14.09.2.06.42-.03.33-.2.07-.12.03-.14-.05-.38-.09-.15-.14-.14-.22-.18-.18-.09-.27-.06h-.23s-.23.04-.23.04l-.14.1-.12.45v.27s.07.22.07.22l.1.18.15.13.17.09.21.05.25-.04.18-.1.16-.18.1-.17.02-.12v-.09s-.09-.23-.09-.23l-.25-.29-.33-.16-.22-.04h-.21s-.14.04-.14.04l-.12.08-.04.1v.17s.04.4.04.4l.12.19.19.18.12.07.17.04.22-.02.24-.16.09-.21v-.34s-.11-.23-.11-.23l-.15-.13-.15-.07h-.16s-.11.02-.11.02l-.06.07-.04.31.03.16.07.15.18.15h.16l.08-.04.12-.21.04-.16-.03-.19-.11-.17-.14-.05-.15.25v.35s.03.08.03.08l.11.11h.06s.08-.18.08-.18"/>
  <path class="cls-1" d="M52.68,7.3l-.02.07h-.02s.02-.03.02-.03l.02.02.04-.02h-.03s.17-.27.17-.27l.19-.17.08-.17.12-.11.21-.32.18-.17.08-.13.4-.34.11-.12h-.04s.34-.35.34-.35l.11-.18.05-.02.32-.39.23-.16-.07.02h.03s.14-.21.14-.21l.13-.12.14-.23.16-.12h-.03s.14-.14.14-.14l.24-.33.54-.54.03-.08.1-.1.4-.3.09-.21.25-.23v-.02s-.02.01-.02.01l.19-.19.03-.07.08-.05.13-.16.08-.05.02.02h-.04"/>
  <path class="cls-3" d="M53.01,4.11l-.02.09.08-.07h-.09s-.05.07-.05.07l.05-.04"/>
  <path class="cls-3" d="M53.03,3.42l.02-.04-.11-.05-.08-.11-.02-.16.05-.11.46-.43.11-.17.03-.21-.09-.23-.11-.14-.3-.19-.24-.05-.28.04-.14.11-.07.15-.03.16v.18s.05.11.05.11l.05.02"/>
  <path class="cls-4" d="M66.35,4.42v.05s.03.11.03.11l.25.26.12.06h.16s.08,0,.08,0l.13-.07.16-.18.09-.34-.05-.28-.2-.27-.17-.09-.3-.04-.36.14-.21.25-.07.49.11.5.07.09.11.05h.29s.22-.05.22-.05l.15-.09.16-.14.16-.32.04-.29-.03-.13-.07-.12-.09-.08-.44-.2-.35-.06-.3.05-.25.13-.14.12-.08.15-.03.15v.19s.07.22.07.22l.16.26.17.12.44.08h.16s.27-.09.27-.09l.21-.17.24-.38.11-.37-.05-.26-.2-.15-.19-.08-.35-.07-.21.03-.31.17-.11.13-.09.18-.04.42.15.35.1.08.14.05h.38s.16-.05.16-.05l.16-.11.21-.19.12-.16.1-.26.04-.23v-.23s-.09-.15-.09-.15l-.43-.19-.27-.03-.22.02-.19.08-.15.13-.11.15-.08.2v.25l.07.19.15.18.15.12.11.04h.08s.24-.04.24-.04l.32-.21.21-.3.07-.21.03-.21v-.14s-.07-.13-.07-.13l-.09-.05-.17-.03-.4-.02-.2.09-.21.16-.08.1-.06.16-.02.22.12.27.19.12.34.05.24-.07.15-.13.09-.14.04-.15v-.11s-.08-.07-.08-.07l-.3-.09h-.16s-.16.05-.16.05l-.18.16-.03.16.03.09.18.15.16.06h.19s.18-.08.18-.08l.07-.13-.23-.19-.34-.06-.09.02-.12.09v.06s.16.11.16.11"/>
  <path class="cls-1" d="M63.91,1.25l-.06-.03v-.02s.03.02.03.02l-.02.02.02.04v-.03s.24.21.24.21l.14.21.15.11.09.14.28.26.14.2.11.1.27.44.1.12v-.04s.3.4.3.4l.16.14v.05s.34.38.34.38l.12.26v-.07s-.02.03-.02.03l.19.18.1.15.2.18.1.17v-.02s.12.15.12.15l.29.29.44.61.08.05.09.11.23.44.19.12.19.28h.02s0-.01,0-.01l.16.21.07.05.03.09.14.15.04.09-.02.02v-.04"/>
  <path class="cls-3" d="M68.8,4.03l-.02.09.08-.06h-.09l-.05.07.05-.03"/>
  <path class="cls-3" d="M68.82,3.34l.02-.04-.11-.05-.08-.11-.02-.16.05-.11.46-.43.11-.17.03-.21-.09-.23-.11-.14-.3-.19-.24-.05-.28.04-.14.12-.07.15-.03.16v.18s.05.11.05.11l.05.02"/>
</svg>