<?xml version="1.0" encoding="UTF-8"?>
<svg id="vector" xmlns="http://www.w3.org/2000/svg" viewBox="0 0 92.91 59.74">
  <defs>
    <style>
      .cls-1 {
        stroke-width: .3px;
      }

      .cls-1, .cls-2, .cls-3 {
        stroke: #60889a;
      }

      .cls-1, .cls-2, .cls-3, .cls-4, .cls-5, .cls-6, .cls-7 {
        fill: none;
        stroke-linecap: round;
        stroke-linejoin: round;
      }

      .cls-2 {
        stroke-width: .3px;
      }

      .cls-3, .cls-4, .cls-7 {
        stroke-width: .6px;
      }

      .cls-4, .cls-5 {
        stroke: #000;
      }

      .cls-5 {
        stroke-width: .62px;
      }

      .cls-6 {
        stroke-width: .4px;
      }

      .cls-6, .cls-7 {
        stroke: #7fa0af;
      }
    </style>
  </defs>
  <path class="cls-4" d="M71.9,56.65l.32.05h1.08s.95.07.95.07l.4-.03.8.04.22-.05h.18s.41-.04.41-.04v.02s-.12-.06-.12-.06"/>
  <path class="cls-4" d="M73.89,55.45v.08s0-.02,0-.02l.25.08.88.07.94-.02.15-.04.83-.07.81-.02.51.05v-.03s.01.03.01.03"/>
  <path class="cls-7" d="M85.82,56.39v.04s.04-.02.04-.02v.04s.26,0,.26,0l.68.08.79-.02.64.03.28-.05.61.04h.47s.28.05.28.05l-.1-.1-.09-.03"/>
  <path class="cls-6" d="M80.64,55.67l.1-.1-.04.03-.2.03-.25.16-.11.2-.08.29.03.3.07.19.23.32.12.07.29.03.28-.11.27-.25.18-.31.02-.13-.03-.14-.14-.3-.12-.16-.14-.11-.19-.03.03.02.05.16"/>
  <path class="cls-6" d="M82.29,56.9h.06s-.05-.02-.05-.02l.02-.13-.05-.68.03-.21.08-.13.15-.12.28-.02.41.1.11.1v.05s.05.06.05.06l-.06.09-.1.05-.46.13.11.28.13.13.56.36.07.07.11.04v-.03"/>
  <path class="cls-7" d="M87.92,57.93v-.03s.03.04.03.04h.04s-.02,0-.02,0l.27-.06,2.63.06h.67s.12-.03.12-.03l.2.02.05-.02.1.05.16.02h-.02s.07.05.07.05"/>
  <path class="cls-5" d="M38.92,8.37l.06-.06h.06s-.05.02-.05.02l-.25.26-.53.78-.24.27-.79,1.05-.28.4h.04s-.3-.03-.3-.03l-1.81.02-1.1-.06"/>
  <path class="cls-5" d="M21.3,11.08l-.06.06h-.06s.05-.02.05-.02l.25-.26.53-.78.24-.27.79-1.05.28-.4h-.04s.3.03.3.03l1.81-.02,1.1.06"/>
  <path class="cls-4" d="M46.48,11.34l-.02.03h.03s-.03,0-.03,0l.44-.42.29-.47.54-.63.36-.49.07-.15.44-.55.22-.21.05-.11.07-.07h.02s.07-.11.07-.11l.14-.05h-.05s.07-.09.07-.09h.05s-.04-.01-.04-.01l.52.62.26.42.22.21.22.32.35.39.28.5.34.48.1.1.12.21.1.05.03.04h-.03s.06,0,.06,0l-.15-.09"/>
  <path class="cls-5" d="M21.15,19.05v.05s.06-.1.06-.1l.93-1.25.88-1.09.28-.47.22-.56-.02-.35-.19-.28-.18-.15-.24-.11h-.13s-.53.11-.53.11l-.21.12-.17.22-.04.47.09.23.21.29.42.35.37.14.56.1,1.56.06h.99s-.02-.04-.02-.04"/>
  <path class="cls-4" d="M46.39,19.41l-.05.11.06-.03h-.02s.03-.05.03-.05l.66-.46.21-.21.25-.19.29-.32.92-.79.5-.53.44-.58.23-.43-.02-.5-.11-.23-.12-.11-.39-.09h-.24s-.2.08-.2.08l-.14.09-.28.28-.09.17-.03.15.02.52.17.42.2.37.04.16.29.5.34.41.2.17.71.78.44.3.13.07h.04s-.04,0-.04,0l-.03-.05"/>
  <path class="cls-5" d="M38.22,15.24v-.05s-.06.1-.06.1l-.93,1.25-.88,1.09-.28.46-.22.56.02.35.19.28.18.15.24.11h.13s.53-.11.53-.11l.21-.12.17-.22.04-.47-.09-.23-.21-.29-.42-.34-.37-.14-.56-.1-1.56-.06h-.99s.02.04.02.04"/>
  <path class="cls-4" d="M71.99,17.26h-.05s.17.02.17.02l.61.16h.88l.31-.03,1.19-.26.81-.25.32-.21.16-.21.07-.18v-.26s-.03-.13-.03-.13l-.13-.18-.37-.21-.25-.07h-.27s-.22.08-.22.08l-.29.19-.1.1-.06.12v.33s.06.21.06.21l.12.16.33.3.15.1.59.24.51.14.45.04h1.15s.38.03.38.03"/>
  <path class="cls-6" d="M80.33,16.49l.05-.1-.2.08-.12.16-.12.27.02.33.09.35.16.22.17.07h.2s.09-.01.09-.01l.25-.19.11-.18v-.38s-.12-.3-.12-.3l-.14-.2-.18-.15h-.13s0,.14,0,.14"/>
  <path class="cls-6" d="M81.82,17.87l-.11-.58v-.37s.04-.19.04-.19l.05-.21.13-.2.1-.05h.15l.19.08.13.1.06.14v.1s-.14.21-.14.21l-.1.07-.33.11-.05.04h.04s.11.22.11.22l.66.58.13.07.02-.02"/>
  <path class="cls-7" d="M84.6,17.41l.08.02.78-.04.37.03.55-.04.61.15.6.25.41.37.03.11-.04.12v.27s-.05.12-.05.12l-.16.23-.24.14-.2.04-.45-.03-.4-.07-.14-.12-.08-.17.03-.13v-.13s.12-.22.12-.22l.3-.36.18-.16.22-.1.8-.26.72.03.45-.07h.76s.34.03.34.03l-.03.02v-.04"/>
  <path class="cls-4" d="M59.52,19.93h-.04s.17-.03.17-.03l.14-.08.99-.73.33-.34.41-.33.25-.26.36-.57.07-.3-.03-.52-.09-.15-.08-.07-.31-.11-.43.03-.19.07-.27.17-.14.17-.04.1-.06.31.03.16.24.19.22.07.42.05.36-.03.38-.14.86-.44,1.14-.92.66-.43.13-.15.02.02.05-.03.08-.09h-.04"/>
  <path class="cls-7" d="M84.77,25.26l-.03.07-.07.04.04-.03,1.74.02.88.04.91.1h-.04s.03,0,.03,0l-.12-.2-.4-.42-.02-.06-.62-.48-.26-.26-.05-.09-.24-.21.64.09.96.21,1.62.03.42-.03.36.06-.21-.05"/>
  <path class="cls-6" d="M80.21,24.53l-.13.02-.22.12-.11.11-.06.19-.03.18.02.32.11.27.09.11.15.11.28.07h.19s.28-.13.28-.13l.23-.23.04-.11v-.24s-.04-.13-.04-.13l-.08-.13-.09-.13-.19-.15-.25-.07"/>
  <path class="cls-6" d="M82.01,25.67l-.03.04-.06-.04.03-.05-.02-.14.02-.89.11-.19.05-.03.12-.02.16.02.27.16.07.18-.14.16-.26.13.03.21.19.27.61.44.12.16"/>
  <path class="cls-4" d="M71.77,25.49v.05s.02-.02.02-.02l.02.03.22-.04,2.33-.1,1.46.06h-.06s-.48.38-.48.38l-.4.4-.25.31-.29.5-.14.16h.29s.85-.11.85-.11l.9-.06,1.44-.06.61.05h.06s-.08-.03-.08-.03"/>
  <path class="cls-5" d="M21.08,27.47l-.03-.04.05-.02.73-1.12.39-.5.69-.76h-.03s.03,0,.03,0l-.07-.11-.26-.3-.36-.26-.41-.37-.21-.24.38-.04,1.32.09h.82s.31.03.31.03l.69-.03.38.03h-.02s.02,0,.02,0v.06"/>
  <path class="cls-4" d="M46.79,27.44v-.03s-.03.02-.03.02h.05s.09-.18.09-.18l.23-.25v-.06s.53-.48.53-.48l.39-.4.57-.66.48-.43.02-.06.11-.09.19-.27.38-.37.29-.43.13-.09.08-.11h.04s-.33-.06-.33-.06h-1.56s-.31-.05-.31-.05l.06.02.18.27.58.69.14.29.27.37.46.91.22.25.18.27.14.24-.02.03.14.11.19.23v.1s.14.07.14.07l.13.26h-.04s0-.13,0-.13"/>
  <path class="cls-4" d="M59.71,27.72l.07.15-.03-.06.17-.13.23-.32.37-.33.08-.11.29-.23.57-.55.37-.26.1-.14.19-.19.5-.41.1-.12h-.02s.03,0,.03,0l-.28-.05-.54-.02-.93.06-.13-.02.5-.5.42-.33.19-.19.04-.08.12-.13.35-.29.16-.21.48-.39.23-.14.15-.2.09-.04.02-.05.11-.07"/>
  <path class="cls-5" d="M38.3,23.35l.03.04-.05.02-.73,1.12-.39.5-.69.76h.03s-.03,0-.03,0l.07.11.26.3.36.26.41.37.21.24-.38.04-1.32-.09h-.82s-.31-.03-.31-.03l-.69.03-.38-.03h.02s-.02,0-.02,0v-.06"/>
  <path class="cls-5" d="M24.76,31.92h1.68s1-.08,1-.08h.29"/>
  <path class="cls-4" d="M72.07,32.93h-.11s.06.02.06.02l.43.02,1.99-.04.44.05h.13s-.02-.02-.02-.02"/>
  <path class="cls-4" d="M76.69,32.99h-.07s.04.03.04.03l.85-.03,1,.03.42.04h.93s-.03-.03-.03-.03"/>
  <path class="cls-4" d="M62.87,33.11l-.04-.02.02.03h.06s0-.05,0-.05l.28-.44.51-.58.23-.33.17-.35.29-.32.21-.31.04.03.08-.09h-.06s.05.01.05.01"/>
  <path class="cls-5" d="M40.44,31.26l-.15.31-.28.43-1.04,1.34-.58.59h.04s-.11.08-.11.08h.03"/>
  <path class="cls-5" d="M36.78,34.02h-1.68s-1,.08-1,.08h-.29"/>
  <path class="cls-5" d="M21.11,34.67l.15-.31.28-.42,1.04-1.34.58-.59h-.04s.11-.08.11-.08h-.03"/>
  <path class="cls-4" d="M50.22,31.51l.05.02v.03s.08.2.08.2l.28.31.16.24.15.37.76,1.25.3.34.21.28-.02.02.1.07.03.07h.04s-.04,0-.04,0h.02l-.04-.04"/>
  <path class="cls-4" d="M46.46,34.8h.04s.33-.51.33-.51l.13-.15.11-.21.35-.43.04-.11.64-.9.32-.4.18-.13.11-.13.11-.17.08-.03h-.03l.04-.03h-.03s.02.05.02.05"/>
  <path class="cls-4" d="M59.56,35.43h-.09s.05.02.05.02l.25-.28.58-.91.4-.38.12-.19.38-.43.07-.12.16-.12.06-.07-.05.03"/>
  <path class="cls-4" d="M61.92,40.05h.04s-.04,0-.04,0h.04s.45-.51.45-.51l.43-.56.4-.37.44-.33.33-.4.08-.07v.02s.09-.08.09-.08h-.03s.03,0,.03,0h-.05s.02.02.02.02l-.04.06"/>
  <path class="cls-4" d="M75.26,39.67v.03s.43.06.43.06h.7s.79.09.79.09h1.3s-.07-.02-.07-.02"/>
  <path class="cls-4" d="M71.85,41.15v.09s0-.03,0-.03l.15.07.39.02h.29s.37-.08.37-.08l.46.03.34-.04,1.16.04.1.03h.11s.08-.08.08-.08"/>
  <path class="cls-5" d="M23.48,39.83l.16-.02.44.06,1.15.02,1.14-.05.58.02"/>
  <path class="cls-5" d="M39.55,39.76l.02-.04-.19.19-.46.61-.32.3-.39.53-.54.58-.09.06.02.02-.14.12-.06.12-.16.1h.04"/>
  <path class="cls-4" d="M46.64,43.86h-.04s.43-.39.43-.39l.16-.23.4-.41.11-.16.44-.42.22-.3.22-.21.15-.08.1-.12.16-.1.07-.06h-.06s.05,0,.05,0"/>
  <path class="cls-4" d="M49.22,39.65h.03s0,.03,0,.03l.18.14.2.28.18.34.38.46.28.46.16.16v.06s.27.27.27.27l.5.62.36.34v.08h.04-.02s.02,0,.02,0l-.04-.03"/>
  <path class="cls-5" d="M37.15,43.68l-.16.02-.44-.06-1.15-.02-1.14.05-.58-.02"/>
  <path class="cls-5" d="M21.07,43.75l-.02.04.19-.19.45-.61.32-.3.39-.53.54-.57.09-.06h-.02s.14-.14.14-.14l.06-.12.16-.1h-.04"/>
  <path class="cls-4" d="M59.5,43.82h.03s.05-.1.05-.1l.23-.18.08-.13.18-.16.47-.54.72-.73.32-.22.26-.25h.05s-.02,0-.02,0l.05-.11.08-.08-.04.02"/>
  <path class="cls-4" d="M59.51,51.04l-.05-.14h-.03s.07.04.07.04l.22-.26.14-.27.14-.17.31-.3.6-.68.56-.58.67-.83.09-.06v-.03s.03-.05.03-.05l.08-.02h-.03"/>
  <path class="cls-4" d="M71.78,48.86v.07s1.16-.1,1.16-.1l.42.02.71-.04.5.05h.68s.01.03.01.03l.18-.03"/>
  <path class="cls-4" d="M62.64,49.46l.46-.55.3-.25,1.17-1.16.28-.19.36-.44.15-.11h-.04s.14-.18.14-.18h.03s.05-.1.05-.1h-.03s.03.02.03.02h-.02"/>
  <path class="cls-5" d="M23.64,49.73l-.02.05h.21s2.6-.15,2.6-.15h.37s.32.03.32.03l-.06-.03"/>
  <path class="cls-5" d="M21.12,51.01l.26-.39.55-.62.26-.37,1.23-1.44"/>
  <path class="cls-5" d="M37.22,49.73l.02-.05h-.21s-2.6.15-2.6.15h-.37s-.32-.03-.32-.03l.06.03"/>
  <path class="cls-5" d="M39.74,48.46l-.26.4-.55.62-.26.37-1.23,1.45"/>
  <path class="cls-4" d="M46.57,50.08l.13-.08.29-.27.42-.54.24-.21.27-.34v-.04s.2-.16.2-.16l.2-.22.27-.2.08-.12.1-.07.3-.31.05-.09.17-.15h-.02s.08-.04.08-.04"/>
  <path class="cls-4" d="M49.37,48.99l-.02-.02h.04s.01.04.01.04l.72.64.1.05.19.22.4.28.11.15.35.34.07.11.41.34v.04s.14.04.14.04l-.03.02v-.05"/>
  <path class="cls-4" d="M75.56,50.33l-.02.03.38.03.62-.03.69.09h1.17s.56-.04.56-.04"/>
  <path class="cls-5" d="M21.06,58.34l.13-.11.16-.27.8-1.05.72-.81.33-.44.17-.15"/>
  <path class="cls-5" d="M21.93,55.38l1.23-.06,1.55.09h.89"/>
  <path class="cls-4" d="M59.53,59.1v.05s.06-.02.06-.02v-.02s.21-.13.21-.13l.26-.26.28-.21.99-1.1.33-.24.44-.5.08-.12.34-.27v-.05s.13-.12.13-.12l.02.02-.06-.04"/>
  <path class="cls-4" d="M60.81,56.17l-.07.04h.05s-.03-.04-.03-.04l.39-.4.87-.79.31-.34.25-.34.06-.03.54-.62.25-.17-.04.02.04-.03-.02-.02-.04.02.04-.02"/>
  <path class="cls-5" d="M38.32,55.19l-.13.11-.16.27-.8,1.05-.72.81-.33.45-.17.15"/>
  <path class="cls-5" d="M37.46,58.15l-1.23.06-1.55-.09h-.89"/>
  <path class="cls-4" d="M46.59,58.5v.06s.14-.1.14-.1l.36-.53.41-.33.12-.21.19-.18.15-.2.36-.31.13-.16.26-.18.18-.22.3-.25.21-.3.14-.07.08-.1h-.02s0-.03,0-.03l.1-.04h-.06"/>
  <path class="cls-4" d="M48.28,55.12h-.06s.03,0,.03,0v.05s.2.25.2.25l.16.16.13.22.63.76.28.3.35.53.18.21.04.1.16.2.06.04.07.13.16.19.02.08.17.21v.02s-.04,0-.04,0h.05s-.04-.08-.04-.08"/>
  <path class="cls-4" d="M59.38,11.38l-.04-.04h.06s.05-.02.05-.02l.34-.54.15-.14.22-.32.36-.4.26-.37.54-.52.55-.7.09-.06.28-.32h.07s.1-.15.1-.15l.02.02h-.03s.03,0,.03,0l-.05.03.02.04v.73s-.05.37-.05.37l.07.57-.04.48.09.51-.02.35.06.41-.03.11.03.04v.12s-.05.02-.05.02h.05s0-.05,0-.05"/>
  <path class="cls-6" d="M79.08,8.92l.06-.06h-.23s-.13.08-.13.08l-.11.18-.06.05-.04.1.02.44.13.37.14.15.22.16.3.09h.26s.34-.19.34-.19l.21-.27.04-.22v-.19s-.33-.55-.33-.55l-.16-.09-.29-.04-.03.02"/>
  <path class="cls-6" d="M81.09,10.24l.03.05v-.03s-.09-.26-.09-.26l-.03-.31.02-.27.09-.27.11-.14.07-.04.3-.06h.15s.15.16.15.16l-.05.19-.07.1-.1.08-.32.1h.04s.15.31.15.31l.29.31.63.45.33.16"/>
  <path class="cls-7" d="M84.57,9.6h-.05s.05.02.05.02l.6.06.49.02.51-.04.14-.04h.52s.37-.08.37-.08l.59.04h.42s.15-.05.15-.05h.39s-.05,0-.05,0l.03.02-.04.37-.03.06.08.57-.03.11.02.19-.05.25v.52s.03.11.03.11l-.05.11.03.15-.02.02v-.03s-.03.01-.03.01h.03s-.06-.04-.06-.04"/>
  <path class="cls-4" d="M72.08,10.38v.04l.02-.02.02.04.36.03.97-.09h.31s.74-.03.74-.03h.76s.89.08.89.08l-.03-.02v-.08s-.02-.18-.02-.18l.04-.25-.02-.18.02-.27-.1-.48.05-.26-.03-.3-.09-.27.04-.04.02-.13-.04-.07v-.09s.06-.06.06-.06l-.02-.12.02-.04.03.02-.07.03"/>
  <path class="cls-2" d="M15.74,10.54h.02s-.02-.36-.02-.36l-.08-.64-.02-.33-.03-.06.02-.2h-.03s.83.1.83.1l.07.04"/>
  <path class="cls-2" d="M15.85,9.73l-.02.05h.38s.23-.03.23-.03l.08.02"/>
  <path class="cls-2" d="M15.86,10.53l-.03.05.03-.03.8-.06.24.04"/>
  <path class="cls-2" d="M7.66,10.96l.07-.08.04-.23.05-.09.05-.23.11-.31.1-.54.16-.53v.02s.17.22.17.22l.24.48.37.79.1.29.09.17.07.09.04.02h-.07"/>
  <path class="cls-2" d="M8,10.28h0s.04-.02.04-.02l.31.03.38-.06"/>
  <path class="cls-2" d="M13.97,8.94l.03-.04v.06s.01.55.01.55l-.04.79.05.09-.06.13.03.02v.05s-.03-.02-.03-.02l.17.02.2-.03.63-.02"/>
  <path class="cls-2" d="M13.02,8.95h0s-.11-.02-.11-.02l-.21.03-.24.09-.25.2-.17.23-.04.28.02.36.1.26.12.15.18.09.16.04h.58s-.02-.39-.02-.39l.02-.18-.04-.13-.08-.04h-.19s-.27.08-.27.08h.11"/>
  <path class="cls-2" d="M10.14,10.81v-.12s-.05-.77-.05-.77l-.12-.76.52.65.37.54.21.21.2.1-.03-.02.04-.41-.05-.42v-.47s-.04-.31-.04-.31l-.08-.05.03-.05"/>
  <path class="cls-2" d="M14.49,16.54l-.02-.08h-.06s-.2.14-.2.14l-.15.21-.07.25.02.28.07.27.11.21.13.15.11.04.22.02h.11s.15-.08.15-.08l.33-.31.07-.1.05-.13-.03-.11v-.13s-.03-.24-.03-.24l-.18-.23-.19-.14-.2-.07-.21.02.05.08"/>
  <path class="cls-2" d="M16.11,17.8v-.04s0,.02,0,.02h.04s-.06-.14-.06-.14l-.05-.24-.08-.63-.05-.22v-.13s.18-.04.18-.04l.53.04.21.1.05.05.03.22-.14.17-.16.1-.18.05h-.24s-.02,0-.02,0"/>
  <path class="cls-2" d="M12.67,16.58l.06-.04-.06-.03h-.06s-.12.03-.12.03l-.13.1-.09.15-.04.18-.02.25.11.46.06.1.05.04.08.04.16.02.2-.05.31-.15.1-.1.03-.08.05-.28-.02-.14-.1-.23-.13-.18-.18-.11-.14-.04"/>
  <path class="cls-2" d="M10.55,16.43l.04.83-.02.63-.02.08.43-.02h.51s.07.02.07.02"/>
  <path class="cls-2" d="M11.34,24.45l-.07-.04-.46-.02-.24.04-.22.09-.2.16-.09.27-.05.08-.02.24.04.16.13.19.26.29.19.15.21.07h.3s.23-.04.23-.04l.08-.07v-.31s-.02-.27-.02-.27l-.04-.12-.07-.06-.12-.03-.37.04"/>
  <path class="cls-2" d="M12.03,24.48v.04s.82.02.82.02l.06.02-.03.17-.06.13-.39.56-.07.14-.07.18-.05.35-.05.03h.16s.46-.01.46-.01l.75.03"/>
  <path class="cls-2" d="M14.14,26.05l-.05.05.04-.02.06-.15.1-.38v-.12s.05-.18.05-.18l.31-.94.19.29.45,1.12.16.33"/>
  <path class="cls-2" d="M14.47,25.72l.03.02.59-.09"/>
  <path class="cls-2" d="M16.77,24.56l.1-.1-.02.02h.02s-.03-.04-.03-.04l-.09-.03h-.15s-.21.08-.21.08l-.29.24-.14.23-.04.15v.27s.05.25.05.25l.06.12.18.19.28.15h.22s.25-.07.25-.07l.05-.06.07-.15-.03-.13.05-.24-.07-.18-.08-.04-.12-.02-.16.04-.06.05"/>
  <path class="cls-2" d="M7.15,24.48l1.14-.07.11.03-.08.16-.21.27-.26.26-.3.36-.32.6v-.04s0,.02,0,.02h.04s.21.02.21.02l.54-.02.47-.06.21.06"/>
  <path class="cls-2" d="M9.28,24.41l-.02-.02h.02s-.04.43-.04.43v.42s.1.36.1.36l.03.36-.03-.03.02-.07"/>
  <path class="cls-2" d="M14.38,32.29l-.04.23.06.4v.64s.05.27.05.27l.04.03.03-.08"/>
  <path class="cls-2" d="M14.45,33.09l.26.02.2-.02.15-.05.21-.15"/>
  <path class="cls-2" d="M15.27,32.32l.06.02.1.28.06.85.03.15.09.33.04.04.04-.04"/>
  <path class="cls-2" d="M16.09,32.51l.36.02.56-.08h.18"/>
  <path class="cls-2" d="M16.76,32.57l-.04.1.05.28.06.87"/>
  <path class="cls-2" d="M10.39,33.71l-.04-.47.04-.61.07-.24.06-.1.07-.04h.17s.15.06.15.06l.1.09.08.33-.04.18-.06.09-.24.1v.18s.1.13.1.13l.16.16.28.17"/>
  <path class="cls-2" d="M13.55,32.39h.03s-.1-.06-.1-.06h-.18s-.33.1-.33.1l-.23.19-.11.18v.24s.12.26.12.26l.23.25.28.12.36.1.06-.29-.02-.13.02-.23-.04-.09h.02s-.22-.01-.22-.01l-.13.03"/>
  <path class="cls-2" d="M11.93,32.33h.02s0,.02,0,.02l-.03.29.03.3-.02.51.04.28-.02.03h.01s.02,0,.02,0v-.07"/>
  <path class="cls-2" d="M3.24,32.45v-.04s.03.02.03.02h-.02s-.04.15-.04.15l-.02.29.13.72.1.23.07.09.08.06.12.02h.15s.13-.08.13-.08l.11-.1.1-.19.06-.55v-.32s-.06-.22-.06-.22v-.02s.02.02.02.02"/>
  <path class="cls-2" d="M4.85,33.83l-.03.08h-.02s.04-.04.04-.04l.12-.39.15-.55.04-.26.06-.08h-.02s.1.14.1.14l.34.82.1.16.04.02.07-.12.12-.32.22-.82.18.28.08.22.08.36.17.45.07.1.04-.03"/>
  <path class="cls-2" d="M7.63,33.93h-.04s-.02-.02-.02-.02l-.12-.7-.02-.32.02-.32-.04-.1.02-.1.06-.03h.17s.26.08.26.08l.25.2.07.15-.03.15-.13.14-.15.04h-.51"/>
  <path class="cls-2" d="M2.3,32.41v-.02s.02.01.02.01l.05.16.05.3.04.91-.02.2-.07.18-.06.09-.1.04-.2.04h-.21s-.05-.07-.05-.07l.02-.05"/>
  <path class="cls-2" d="M14.8,40.51l-.04-.04.02.02-.06.28v.2s.15.47.15.47l.12.23.22.28.07.05.11.03h.11s.05-.04.05-.04l.14-.21.06-.17.08-.46.03-.45-.02-.33-.03-.05h-.05s.03,0,.03,0l.07.16"/>
  <path class="cls-2" d="M16.66,41.78v.08s.03-.03.03-.03l-.03-.02v-.12s-.14-.47-.14-.47l-.09-.41v-.08s.14-.3.14-.3l.1-.1.09-.05.09-.03h.13s.1.03.1.03l.17.09.11.13.04.1-.02.22-.05.07-.07.04-.18.05h-.41"/>
  <path class="cls-2" d="M9.33,42.09l.03-.02.05-.33.11-.83v-.33s.04-.13.04-.13l.13.12.06.11.08.2.13.54.24.39.19-.49.22-.86.1.15.07.21.09.64.06.22.09.16.08.08"/>
  <path class="cls-2" d="M11.82,41.95h.03l.03-.54-.04-.27-.12-.47-.07-.14v-.09s.08-.05.08-.05h.19s.33.07.33.07l.19.08.15.1.06.1v.06s-.01.12-.01.12l-.07.11-.19.13-.24.09-.34.04"/>
  <path class="cls-2" d="M7.46,40.49v.03s.04,0,.04,0v.03s-.04.34-.04.34l.02.4.17.57.08.18.15.16.16.04.15-.05.09-.06.16-.17.04-.05.17-.39.04-.2v-.2s0-.08,0-.08l-.05-.33v-.17s-.03-.08-.03-.08h-.03s.02-.01.02-.01l.02.14"/>
  <path class="cls-2" d="M6.58,40.56l.02-.02h.03s-.02.02-.02.02l.12.65.05.94-.08.2-.07.07-.07.02-.15-.02-.21-.13v-.03"/>
  <path class="cls-2" d="M16.07,49.93l-.06.03h.05s.01-.06.01-.06v-.64s-.05-.46-.05-.46l.06-.45h.02s-.04,0-.04,0l.35.41.16.28.29.42.21.27.15.14h-.02s.04-.19.04-.19l.04-.51v-.37s.01-.28.01-.28l-.03-.14v-.05s.04,0,.04,0h-.06"/>
  <path class="cls-2" d="M6.57,49.94l-.07-.85-.05-.27v-.49s.18-.02.18-.02l.37.16.24.2.07.17-.02.08-.08.13-.19.14-.26.04h-.32"/>
  <path class="cls-2" d="M2.13,48.38v.13s-.03.11-.03.11v.18s.08.45.08.45l.13.31.02.11.1.18.08.09.16.08.13.02.32-.14.11-.23.06-.32.04-.58-.03-.33-.05-.12v-.08s.03,0,.03,0v.03"/>
  <path class="cls-2" d="M3.87,49.87v.02s.02-.01.02-.01l.18-.4.19-1.08v.03s.08.07.08.07l.04.08.09.26.09.37.22.52.12.22.08.07.08-.12.18-.57.14-.5v-.2s-.01,0-.01,0l.06.08.07.17.24.81.06.3.04.06"/>
  <path class="cls-2" d="M12.03,48.6v-.02s-.04-.01-.04-.01h.03s-.09.09-.09.09l-.09.13-.11.25-.03.17v.35s.04.11.04.11l.11.14.22.2.06.02h.13s.08-.05.08-.05l.16-.17.15-.25.05-.21v-.2s-.05-.16-.05-.16l-.06-.1-.24-.23-.17-.1h-.13l.08.15"/>
  <path class="cls-2" d="M13.24,48.64v-.02s.02,0,.02,0l-.03.02.13.21.24.89.12.25h-.02s.05-.07.05-.07l.13-.4.11-.23.15-.47.04-.06v.02s.03-.02.03-.02l.09.03.05.07.24.81.15.26.08.08h-.02s.09-.22.09-.22l.14-.44.12-.49.12-.3.03-.1-.05.05.02.07"/>
  <path class="cls-2" d="M9.84,49.97v.04s-.02-.07-.02-.07l-.07-.97-.14-.47.3-.03.18.02.23.07.38.23.23.23.09.24v.09s-.1.14-.1.14l-.22.16-.3.15-.26.18-.07.03h-.02s.04-.02.04-.02h-.02s.02-.03.02-.03"/>
  <path class="cls-2" d="M1.33,48.45h.02s.03.05.03.05l.04.24v.65s-.02.3-.02.3l-.05.22-.1.12-.24.1-.37.05-.04-.02.02-.05"/>
  <path class="cls-2" d="M16.31,55.84l.33.04h.24s.32-.08.32-.08h.06s.01.04.01.04"/>
  <path class="cls-2" d="M16.86,55.92v-.02s-.05.41-.05.41l.02.96"/>
  <path class="cls-2" d="M11.49,56.03h-.03s.03.04.03.04l.03.22v.5s.08.38.08.38l-.02.16.61.04.25-.04.11.04"/>
  <path class="cls-2" d="M13.2,57.18l-.04-.04-.07-.32v-.37s-.06-.54-.06-.54l-.04-.1.44.07h.19s.27-.05.27-.05h.03s0,.02,0,.02"/>
  <path class="cls-2" d="M13.16,56.58l.02.05h.75"/>
  <path class="cls-2" d="M13.23,57.18l-.04.02h.01s.14,0,.14,0l.81.05"/>
  <path class="cls-2" d="M14.88,57.14h.04s-.03,0-.03,0v-.14s-.05-.54-.05-.54l-.05-.29-.08-.2-.03-.16h.02s.23-.01.23-.01l.51.03.21-.05"/>
  <path class="cls-2" d="M15.03,56.66l-.02.08v-.02s.77-.08.77-.08"/>
  <path class="cls-2" d="M5.77,57.31l-.03.03h.02s.12-.34.12-.34l.15-.99.05-.09.08.07.09.17.3.74.2.27.1.07.09-.16.12-.39.14-.61.04-.06v.02s-.01,0-.01,0v-.02s.12.04.12.04l.07.1.04.14.14.71.08.17.09.1.04.12"/>
  <path class="cls-2" d="M8.58,57.51l-.03.04-.03-.3v-.7s-.05-.59-.05-.59l-.04-.15h.24s.4.13.4.13l.17.11.1.13.04.11-.04.16-.05.07-.15.11-.13.04-.44.06-.09.05v.05"/>
  <path class="cls-2" d="M4.27,56.05l-.04.3.07.5.06.29.1.2.08.08.08.04.1-.03.18-.2.13-.27.03-.39-.04-.47-.02-.1h-.02s.04.09.04.09"/>
  <path class="cls-2" d="M3.31,56.03l-.04-.08.09.26.07.36.02.3v.45s-.06.18-.06.18l-.12.13-.25.12h-.3s-.04-.03-.04-.03v-.05"/>
  <path class="cls-3" d="M20.19,2.97c.4-.39,1.32-2.03,1.87-2.26"/>
  <path class="cls-3" d="M37.46,3.26c.5-.76,1.44-2.03,1.95-2.81"/>
  <path class="cls-3" d="M45.86,2.68s-.12,0-.03-.06c.57-.45,1.5-1.83,2.08-2.16"/>
  <path class="cls-3" d="M49.89.44c.58.34,1.59,1.55,2.09,2.12"/>
  <path class="cls-3" d="M58.54,2.67c.42-.39,1.51-1.88,2.09-2.2"/>
  <path class="cls-3" d="M62.98,2.79c.28-.29,1.3-1.86,1.69-2.26"/>
  <path class="cls-3" d="M71.03,1.6c.7.06,2.34-.15,2.97,0"/>
  <path class="cls-3" d="M24.19,2.07c.4-.01.91,0,1.55-.02.52-.01,1.09-.01,1.52-.02"/>
  <g>
    <path class="cls-1" d="M22.24,1.97c.12,0,.28,0,.48,0,.16,0,.33,0,.47,0"/>
    <path class="cls-1" d="M22.72,1.5c0,.12,0,.28,0,.48,0,.16,0,.33,0,.47"/>
  </g>
  <g>
    <path class="cls-1" d="M36.33,1.9c.12,0,.28,0,.48,0,.16,0,.33,0,.47,0"/>
    <path class="cls-1" d="M36.81,1.43c0,.12,0,.28,0,.48,0,.16,0,.33,0,.47"/>
  </g>
  <g>
    <path class="cls-1" d="M48.47,1.75c.12,0,.28,0,.48,0,.16,0,.33,0,.47,0"/>
    <path class="cls-1" d="M48.94,1.28c0,.12,0,.28,0,.48,0,.16,0,.33,0,.47"/>
  </g>
  <g>
    <path class="cls-1" d="M61.26,1.55c.12,0,.28,0,.48,0,.16,0,.33,0,.47,0"/>
    <path class="cls-1" d="M61.73,1.08c0,.12,0,.28,0,.48,0,.16,0,.33,0,.47"/>
  </g>
  <g>
    <path class="cls-1" d="M74.92,1.55c.12,0,.28,0,.48,0,.16,0,.33,0,.47,0"/>
    <path class="cls-1" d="M75.39,1.08c0,.12,0,.28,0,.48,0,.16,0,.33,0,.47"/>
  </g>
  <path class="cls-3" d="M32.51,1.85c.77.18,2.14.19,2.85.06"/>
  <path class="cls-3" d="M76.84,1.6c.66.01,2.24-.05,2.95-.04"/>
</svg>