<?xml version="1.0" encoding="UTF-8"?>
<svg id="vector" xmlns="http://www.w3.org/2000/svg" viewBox="0 0 77.03 37.85">
  <defs>
    <style>
      .cls-1 {
        stroke: #60889a;
        stroke-width: .42px;
      }

      .cls-1, .cls-2 {
        fill: none;
        stroke-linecap: round;
        stroke-linejoin: round;
      }

      .cls-2 {
        stroke: #000;
        stroke-width: .9px;
      }
    </style>
  </defs>
  <path class="cls-1" d="M70.19,1.39l-.06.32.08.57v.91s.06.39.06.39l.06.04.04-.11"/>
  <path class="cls-1" d="M70.28,2.52l.36.03.29-.03.22-.08.29-.21"/>
  <path class="cls-1" d="M71.44,1.44l.08.02.14.4.09,1.21.04.21.13.47.05.05.06-.05"/>
  <path class="cls-1" d="M72.61,1.71l.52.03.8-.11h.25"/>
  <path class="cls-1" d="M73.57,1.79l-.05.15.08.39.09,1.24"/>
  <path class="cls-1" d="M64.52,3.41l-.06-.67.05-.87.1-.34.09-.15.1-.06h.24s.22.08.22.08l.14.13.11.47-.06.26-.09.13-.33.14.02.25.12.19.23.23.39.25"/>
  <path class="cls-1" d="M69,1.54h.04s-.14-.08-.14-.08h-.25s-.46.15-.46.15l-.33.26-.15.26v.34s.18.37.18.37l.32.36.4.17.51.14.08-.41-.03-.19.03-.33-.06-.12h.03s-.31-.01-.31-.01l-.18.04"/>
  <path class="cls-1" d="M66.71,1.45h.02s.01.03.01.03l-.04.41.04.43-.03.73.06.39-.02.04.02.02.02-.02v-.1"/>
  <path class="cls-2" d="M44.06,1.34h2.39s1.43-.12,1.43-.12h.41"/>
  <path class="cls-1" d="M54.37,1.63v-.06s.05.03.05.03h-.02s-.06.22-.06.22l-.03.41.18,1.03.14.33.1.12.12.08.16.03h.21s.19-.11.19-.11l.15-.14.15-.27.08-.78v-.46s-.08-.31-.08-.31l.02-.03v.03"/>
  <path class="cls-1" d="M56.65,3.58l-.04.11h-.03s.05-.06.05-.06l.18-.56.21-.79.05-.38.09-.12h-.02s.14.19.14.19l.49,1.17.15.23.06.02.1-.17.17-.46.31-1.16.26.4.11.31.11.51.24.64.1.14.05-.04"/>
  <path class="cls-1" d="M60.6,3.72h-.06s-.03-.03-.03-.03l-.17-1-.02-.46.03-.45-.05-.14.02-.14.09-.04h.24s.37.12.37.12l.36.28.1.21-.04.21-.18.19-.21.05h-.72"/>
  <path class="cls-1" d="M53.03,1.56v-.02s.03.02.03.02l.07.24.07.43.05,1.29-.02.28-.1.26-.09.12-.15.06-.28.05h-.29s-.07-.1-.07-.1l.03-.07"/>
  <path class="cls-2" d="M38.87,5.25l.21-.44.4-.6,1.47-1.9.82-.84h-.05s.16-.11.16-.11h-.04"/>
  <path class="cls-2" d="M42.11,10.16l.23-.03.63.09,1.63.04,1.62-.08.82.02"/>
  <path class="cls-1" d="M64.52,11.75l-.06-.06.03.03-.09.39v.28s.22.67.22.67l.17.32.31.4.1.07.15.05h.15s.08-.06.08-.06l.2-.3.08-.24.11-.65.04-.64-.03-.46-.04-.08h-.07s.04,0,.04,0l.1.23"/>
  <path class="cls-1" d="M67.15,13.55v.12s.04-.04.04-.04l-.04-.02v-.18s-.2-.66-.2-.66l-.13-.58v-.11s.2-.43.2-.43l.14-.14.13-.07.12-.04h.19s.15.04.15.04l.24.13.15.18.05.15-.03.31-.08.1-.1.06-.26.07h-.58"/>
  <path class="cls-1" d="M56.75,13.98l.04-.03.07-.46.16-1.18v-.47s.06-.19.06-.19l.18.17.09.15.11.29.19.77.34.56.28-.7.32-1.22.14.22.11.3.12.91.08.31.13.23.11.11"/>
  <path class="cls-1" d="M60.28,13.79h.04l.04-.77-.05-.39-.16-.66-.09-.2v-.12s.11-.07.11-.07h.27s.47.1.47.1l.26.11.21.14.08.13v.09s-.02.17-.02.17l-.1.16-.27.18-.34.13-.49.06"/>
  <path class="cls-1" d="M54.1,11.72v.05s.05,0,.05,0v.04s-.06.48-.06.48l.02.56.25.81.12.25.22.23.22.06.22-.07.12-.09.22-.24.06-.07.24-.55.06-.29-.02-.29.03-.11-.08-.46v-.24s-.04-.12-.04-.12h-.04s.03-.02.03-.02l.03.2"/>
  <path class="cls-1" d="M52.85,11.81l.03-.02.05.02h-.02s.17.93.17.93l.07,1.33-.11.29-.1.1-.1.03-.22-.03-.3-.18v-.05"/>
  <path class="cls-2" d="M38.69,15.72l-.02.06.27-.27.65-.86.46-.43.56-.76.77-.82.13-.08-.02-.02.2-.18.09-.17.22-.15h-.06"/>
  <path class="cls-1" d="M25.71,4.16h.03s-.02-.51-.02-.51l-.12-.9-.02-.46-.04-.09.03-.29h-.04s1.18.15,1.18.15l.09.06"/>
  <path class="cls-1" d="M25.88,3.01l-.03.07h.55s.33-.05.33-.05l.11.03"/>
  <path class="cls-1" d="M25.89,4.14l-.04.07.04-.04,1.14-.09.34.05"/>
  <path class="cls-1" d="M14.25,4.75l.1-.12.06-.33.07-.13.07-.32.16-.44.15-.77.23-.75v.03s.24.32.24.32l.34.68.52,1.12.14.41.12.24.09.12.06.02h-.09"/>
  <path class="cls-1" d="M14.73,3.79v-.02s.04,0,.04,0l.44.05.54-.08"/>
  <path class="cls-1" d="M23.2,1.88l.04-.05v.08s.02.78.02.78l-.06,1.12.06.12-.09.18.05.03-.02.07-.02-.03.24.04.29-.04.89-.02"/>
  <path class="cls-1" d="M21.85,1.9v-.02s-.16,0-.16,0l-.3.05-.35.13-.35.28-.24.32-.06.39.04.51.14.37.16.22.26.13.23.05.82.02-.03-.57.03-.25-.06-.18-.11-.06h-.27s-.38.11-.38.11h.15"/>
  <path class="cls-1" d="M17.76,4.55l.02-.17-.1-1.1-.17-1.07.74.93.53.76.3.3.29.15-.04-.03.05-.58-.08-.6-.02-.67-.04-.44-.11-.06.04-.07"/>
  <path class="cls-2" d="M1.26,5.25l-.08.09h-.08s.07-.03.07-.03l.35-.37.75-1.1.34-.38,1.13-1.49.4-.57h-.06s.43.05.43.05l2.57-.03,1.56.09"/>
  <path class="cls-1" d="M20.13,12.7l-.03-.12h-.09s-.28.2-.28.2l-.21.3-.1.36.02.39.1.38.16.3.19.21.15.06.31.03.16-.02.22-.09.47-.44.1-.14.07-.19-.04-.15v-.19s-.04-.34-.04-.34l-.25-.33-.27-.2-.28-.09-.3.03.08.11"/>
  <path class="cls-1" d="M22.43,14.49v-.05s0,.02,0,.02h.05s-.09-.2-.09-.2l-.07-.33-.12-.89-.08-.31v-.19s.26-.06.26-.06l.75.05.3.15.08.08.04.31-.2.25-.22.15-.25.06-.34-.02-.02.02"/>
  <path class="cls-1" d="M17.55,12.76l.09-.06-.09-.04h-.09s-.16.04-.16.04l-.19.14-.13.21-.06.25-.02.36.15.65.08.14.08.05.11.05.22.03.28-.07.44-.21.15-.14.05-.11.07-.39-.03-.2-.14-.33-.19-.26-.26-.15-.21-.06"/>
  <path class="cls-1" d="M14.54,12.55l.06,1.18-.03.89-.03.12.61-.03h.72s.09.03.09.03"/>
  <path class="cls-2" d="M1.62,15.94l.02.07.07-.15,1.32-1.77,1.25-1.54.4-.66.31-.79-.03-.5-.27-.39-.26-.21-.35-.16-.18-.02-.75.18-.3.17-.24.32-.06.67.12.32.3.41.6.49.53.19.8.14,2.22.09,1.41-.02-.03-.04"/>
  <path class="cls-1" d="M60.68,24.37l-.1-1.21-.07-.39-.02-.7.28-.03.52.22.34.29.1.25-.02.12-.11.18-.27.2-.36.05h-.45"/>
  <path class="cls-1" d="M74.17,24.37l-.08.04h.07s.02-.09.02-.09v-.91s-.07-.65-.07-.65l.08-.63h.02s-.06,0-.06,0l.49.58.23.4.41.6.3.38.22.2-.03-.02.05-.26.05-.72-.02-.53.03-.4-.04-.2.02-.07h.04s-.08-.01-.08-.01"/>
  <path class="cls-1" d="M68.43,22.47v-.03s-.06-.02-.06-.02h.04s-.13.12-.13.12l-.13.18-.15.35-.04.24v.49s.06.16.06.16l.15.2.31.29.08.03h.18s.12-.07.12-.07l.23-.24.22-.36.07-.29-.02-.28-.06-.23-.08-.14-.34-.32-.24-.15h-.19s.11.21.11.21"/>
  <path class="cls-1" d="M70.14,22.53l-.02-.03h.04s-.04.01-.04.01l.18.3.34,1.27.17.36h-.03s.07-.11.07-.11l.19-.56.15-.33.22-.66.06-.08v.03s.05-.03.05-.03l.13.05.07.1.34,1.15.21.36.11.12h-.03s.13-.31.13-.31l.2-.62.17-.7.16-.42.04-.15-.07.07.03.1"/>
  <path class="cls-1" d="M65.32,24.42l-.02.05v-.1s-.11-1.37-.11-1.37l-.2-.66.42-.04.26.03.33.1.54.33.32.33.13.34v.13s-.14.2-.14.2l-.31.22-.42.22-.37.25-.1.05-.02-.02h.06s-.03-.02-.03-.02l.03-.04"/>
  <path class="cls-2" d="M42.63,24.07l-.02.07h.29s3.7-.21,3.7-.21h.52s.46.04.46.04l-.09-.05"/>
  <path class="cls-2" d="M39.06,25.88l.37-.56.78-.87.37-.53,1.75-2.05"/>
  <path class="cls-1" d="M54.37,22.17v.19s-.05.15-.05.15v.26s.11.64.11.64l.18.44.03.16.14.26.11.12.22.12.19.03.46-.2.15-.33.09-.45.05-.83-.05-.46-.07-.17v-.12s.04,0,.04,0v.04"/>
  <path class="cls-1" d="M56.85,24.28v.02s.02-.02.02-.02l.26-.57.27-1.53v.04s.11.09.11.09l.06.11.13.37.13.53.32.74.17.32.11.1.12-.18.26-.81.19-.71.02-.28h-.03s.08.12.08.12l.1.24.35,1.15.09.42.05.08"/>
  <path class="cls-1" d="M53.24,22.27l.03-.02.04.09.05.34v.92s-.02.42-.02.42l-.06.31-.14.17-.34.13-.52.07-.05-.03.03-.07"/>
  <path class="cls-1" d="M72.03,32.82l.47.06.34-.02.46-.1h.09s.02.05.02.05"/>
  <path class="cls-1" d="M72.8,32.93l-.02-.03-.06.58.04,1.37"/>
  <path class="cls-1" d="M65.19,33.08h-.04s.04.05.04.05l.04.31v.71s.11.54.11.54l-.02.22.87.06.35-.06.15.05"/>
  <path class="cls-1" d="M67.61,34.72l-.05-.05-.09-.46v-.52s-.09-.76-.09-.76l-.06-.14.63.1h.27s.38-.06.38-.06h.05s0,.03,0,.03"/>
  <path class="cls-1" d="M67.56,33.86l.03.07h1.07"/>
  <path class="cls-1" d="M67.66,34.71l-.06.04.02.02.19-.02,1.15.06"/>
  <path class="cls-1" d="M70,34.67l.06.02h-.04s.02-.21.02-.21l-.09-.77-.07-.41-.11-.29-.05-.23.03.02.33-.04.73.03.3-.06"/>
  <path class="cls-1" d="M70.2,33.98l-.03.11v-.03s1.09-.11,1.09-.11"/>
  <path class="cls-1" d="M57.06,34.91l-.04.04h.03s.17-.48.17-.48l.21-1.4.08-.13.11.1.13.24.43,1.06.28.39.14.1.12-.23.17-.56.2-.87.05-.09.02.02h-.04s.01-.02.01-.02l.15.06.1.14.06.19.2,1.01.12.24.12.14.05.17"/>
  <path class="cls-1" d="M54.93,33.11l-.06.42.1.71.09.41.14.28.12.11.11.06.14-.05.25-.29.18-.38.05-.56-.06-.66-.03-.15-.02.02.06.11"/>
  <path class="cls-1" d="M61.05,35.19l-.05.06-.04-.42v-1s-.07-.84-.07-.84l-.06-.22h.34s.57.19.57.19l.24.16.14.19.06.16-.05.23-.07.1-.21.16-.18.06-.63.08-.13.06v.07"/>
  <path class="cls-2" d="M39.35,36.42l.18-.15.23-.38,1.14-1.49,1.03-1.15.47-.63.25-.22"/>
  <path class="cls-2" d="M40.57,32.21l1.74-.08,2.2.12h1.27"/>
  <path class="cls-1" d="M53.57,33.09l-.06-.11.13.37.1.51.03.42-.02.64-.07.26-.17.18-.36.17h-.43s-.06-.04-.06-.04v-.07"/>
  <path class="cls-1" d="M20.27,22.93l-.09-.06-.65-.04-.34.06-.31.13-.29.23-.13.38-.07.11-.03.35.05.23.18.27.37.41.27.22.3.11h.43s.32-.05.32-.05l.12-.1v-.43s-.03-.39-.03-.39l-.06-.18-.1-.09-.17-.04-.52.05"/>
  <path class="cls-1" d="M21.25,22.97v.05s1.17.02,1.17.02l.08.03-.04.24-.09.19-.55.8-.1.19-.1.26-.08.5-.08.05.23.02.65-.04,1.06.04"/>
  <path class="cls-1" d="M24.25,25.2l-.08.08.06-.03.08-.21.14-.54v-.17s.07-.25.07-.25l.44-1.34.27.41.63,1.59.23.48"/>
  <path class="cls-1" d="M24.71,24.73l.05.03.84-.12"/>
  <path class="cls-1" d="M27.99,23.09l.14-.14-.03.02h.02s-.05-.06-.05-.06l-.13-.05h-.22s-.29.12-.29.12l-.41.34-.2.33-.06.21-.02.38.09.35.09.17.25.27.4.21.31.02.35-.11.07-.08.09-.22-.05-.19.08-.34-.1-.26-.11-.05-.17-.02-.22.06-.09.07"/>
  <path class="cls-1" d="M14.33,22.97l1.61-.1.16.05-.12.23-.3.38-.37.37-.42.51-.45.85.02-.05v.03s.05.02.05.02h.3s.76-.03.76-.03l.66-.08.3.08"/>
  <path class="cls-1" d="M17.34,22.87l-.03-.04.03.02-.05.6.02.6.12.51.05.51-.04-.04.03-.1"/>
  <path class="cls-2" d="M1.41,27.08l-.05-.05.07-.03,1.04-1.59.55-.71.97-1.08h-.04s.04,0,.04,0l-.09-.16-.37-.43-.51-.37-.58-.52-.3-.34.54-.06,1.88.13,1.16-.02.44.06.98-.04.53.04h-.03s.03.01.03.01v.08"/>
</svg>