<?xml version="1.0" encoding="UTF-8"?>
<svg id="vector" xmlns="http://www.w3.org/2000/svg" viewBox="0 0 92.82 59.84">
  <defs>
    <style>
      .cls-1, .cls-2, .cls-3 {
        stroke: #60889a;
      }

      .cls-1, .cls-2, .cls-3, .cls-4, .cls-5, .cls-6, .cls-7, .cls-8 {
        fill: none;
        stroke-linecap: round;
        stroke-linejoin: round;
      }

      .cls-1, .cls-8 {
        stroke-width: .3px;
      }

      .cls-2 {
        stroke-width: .3px;
      }

      .cls-3, .cls-4, .cls-7 {
        stroke-width: .6px;
      }

      .cls-4, .cls-5 {
        stroke: #000;
      }

      .cls-5 {
        stroke-width: .62px;
      }

      .cls-6 {
        stroke-width: .4px;
      }

      .cls-6, .cls-7, .cls-8 {
        stroke: #7fa0af;
      }
    </style>
  </defs>
  <path class="cls-4" d="M71.98,56.62l.32.05h1.08s.95.07.95.07l.4-.03.8.04.22-.05h.18s.41-.04.41-.04v.02s-.12-.06-.12-.06"/>
  <path class="cls-4" d="M73.96,55.42v.08s0-.02,0-.02l.25.08.88.07.94-.02.15-.04.83-.07.81-.02.51.05v-.03s.01.04.01.04"/>
  <path class="cls-7" d="M85.89,56.36v.04s.04-.02.04-.02v.04s.26,0,.26,0l.68.08h.79s.64.01.64.01l.28-.05.61.04h.47s.28.05.28.05l-.1-.1-.09-.04"/>
  <path class="cls-6" d="M80.71,55.64l.1-.1-.04.03-.2.03-.25.16-.11.2-.08.29.03.3.07.19.23.32.12.07.29.03.28-.11.27-.25.18-.31.02-.13-.03-.14-.14-.3-.12-.16-.14-.11-.19-.03.03.02.05.16"/>
  <path class="cls-6" d="M82.36,56.86h.06s-.05-.02-.05-.02l.02-.13-.05-.68.03-.21.08-.13.15-.12.28-.02.41.1.11.1v.05s.05.06.05.06l-.06.09-.1.05-.46.13.11.28.13.13.56.36.07.07.11.04v-.03"/>
  <path class="cls-7" d="M87.99,57.9v-.03s.03.04.03.04h.04s-.02,0-.02,0l.27-.06,2.63.06h.67s.12-.03.12-.03l.2.02.05-.02.1.05.16.02h-.02s.07.05.07.05"/>
  <path class="cls-2" d="M15.81,10.51h.02s-.02-.36-.02-.36l-.08-.64-.02-.33-.03-.06.02-.2h-.03s.83.1.83.1l.07.04"/>
  <path class="cls-2" d="M15.92,9.7l-.02.05h.38s.23-.03.23-.03l.08.02"/>
  <path class="cls-2" d="M15.94,10.5l-.03.05.03-.03.8-.06.24.04"/>
  <path class="cls-2" d="M7.74,10.93l.07-.08.04-.23.05-.09.05-.23.11-.31.1-.54.16-.53v.02s.17.22.17.22l.24.48.37.79.1.29.09.17.07.09.04.02h-.07"/>
  <path class="cls-2" d="M8.07,10.25h0s.04-.02.04-.02l.31.03.38-.06"/>
  <path class="cls-2" d="M14.04,8.91l.03-.04v.06s.01.55.01.55l-.04.79.05.09-.06.13.03.02v.05s-.03-.02-.03-.02l.17.02.2-.03h.63"/>
  <path class="cls-2" d="M13.09,8.92h0s-.11-.02-.11-.02l-.21.03-.24.09-.25.2-.17.23-.04.28.03.36.1.26.12.15.18.09.16.04h.58s-.02-.39-.02-.39l.02-.18-.04-.13-.08-.04h-.19s-.27.08-.27.08h.11"/>
  <path class="cls-2" d="M10.21,10.78v-.12s-.05-.77-.05-.77l-.12-.76.52.65.37.54.21.21.2.1-.03-.02.04-.41-.05-.42v-.47s-.04-.31-.04-.31l-.08-.05.03-.05"/>
  <path class="cls-5" d="M38.99,8.34l.06-.06h.06s-.05.02-.05.02l-.25.26-.53.78-.24.27-.79,1.05-.28.4h.04s-.3-.03-.3-.03l-1.81.02-1.1-.06"/>
  <path class="cls-5" d="M21.37,11.05l-.06.06h-.06s.05-.02.05-.02l.25-.26.53-.78.24-.27.79-1.05.28-.4h-.04s.3.03.3.03l1.81-.02,1.1.06"/>
  <path class="cls-8" d="M61.37,9.32l.02.02h-.02s0-.75,0-.75l-.02-.15h0s-.01,0-.01,0"/>
  <path class="cls-8" d="M61.47,9.41h.01s-.02.02-.02.02l.45-.11.22-.1.32-.17"/>
  <path class="cls-8" d="M61.52,9.37l-.69-.13-.2-.05-.32-.13-.03-.04"/>
  <path class="cls-8" d="M61.43,9.43l-.45.57-.12.12-.04.09-.2.28"/>
  <path class="cls-8" d="M61.48,9.43l.15.25.5.67.1.12.08.05"/>
  <path class="cls-4" d="M46.55,11.31l-.02.03h.03s-.03,0-.03,0l.44-.42.29-.47.54-.63.36-.5.07-.15.44-.55.22-.21.05-.11.07-.07h.02s.07-.11.07-.11l.14-.06h-.05s.07-.09.07-.09h.05s-.04-.01-.04-.01l.52.62.26.42.22.21.22.32.35.39.28.5.34.48.1.09.12.21.1.05.03.04h-.03s.06,0,.06,0l-.15-.09"/>
  <path class="cls-2" d="M14.56,16.51l-.02-.08h-.06s-.2.14-.2.14l-.15.21-.07.25.02.28.07.27.11.21.13.15.11.04.22.02.11-.02.15-.07.33-.31.07-.1.05-.14-.03-.11v-.13s-.03-.24-.03-.24l-.18-.23-.19-.14-.2-.07-.21.02.05.08"/>
  <path class="cls-2" d="M16.18,17.77v-.04s0,.02,0,.02h.04s-.06-.14-.06-.14l-.05-.24-.08-.63-.05-.22v-.13s.18-.04.18-.04l.53.04.21.1.05.05.03.22-.14.17-.16.1-.18.05h-.24s-.02,0-.02,0"/>
  <path class="cls-2" d="M12.75,16.55l.06-.04-.06-.03h-.06s-.12.03-.12.03l-.13.1-.09.15-.04.18v.26s.09.46.09.46l.06.1.05.04.08.04.16.02.2-.05.31-.15.1-.1.03-.08.05-.28-.02-.14-.1-.23-.13-.19-.18-.11-.14-.04"/>
  <path class="cls-2" d="M10.62,16.4l.04.83-.02.63-.02.08.43-.02h.51s.07.03.07.03"/>
  <path class="cls-5" d="M21.22,19.02v.05s.06-.1.06-.1l.93-1.25.88-1.09.28-.46.22-.56-.02-.35-.19-.28-.18-.15-.24-.11h-.13s-.53.11-.53.11l-.21.12-.17.22-.04.47.09.23.21.29.42.34.37.14.56.1,1.56.06h.99s-.02-.04-.02-.04"/>
  <path class="cls-4" d="M46.46,19.38l-.05.11.06-.03h-.02s.03-.05.03-.05l.66-.46.21-.21.25-.19.29-.32.92-.79.5-.53.44-.58.23-.43-.02-.5-.11-.23-.12-.11-.39-.09h-.24s-.2.08-.2.08l-.14.09-.28.28-.09.17-.03.15.02.52.17.42.2.37.04.17.29.5.34.41.2.17.71.78.44.3.13.07h.04s-.04,0-.04,0l-.03-.05"/>
  <path class="cls-5" d="M38.29,15.21v-.05s-.06.11-.06.11l-.93,1.25-.88,1.09-.28.46-.22.56.02.35.19.28.18.15.24.11h.13s.53-.11.53-.11l.21-.12.17-.22.04-.47-.09-.23-.21-.29-.42-.35-.37-.14-.56-.1-1.56-.06h-.99s.02.04.02.04"/>
  <path class="cls-8" d="M75.62,9.56l.02.03h.01s0-.28,0-.28l-.03-.35.02-.41"/>
  <path class="cls-8" d="M75.71,9.6v.02s.09-.01.09-.01l.13-.04.32-.15.38-.21.21-.06"/>
  <path class="cls-8" d="M75.65,9.66l-.07-.04-.2-.07-.31-.08-.4-.07-.06-.02-.02-.03"/>
  <path class="cls-8" d="M75.69,9.58h-.04s-.11.15-.11.15l-.17.28-.39.52-.04.03h.02"/>
  <path class="cls-8" d="M75.65,9.68v.02s0,0,0,0l.08.15.23.28.15.13.11.14.1.07h.03s0-.02,0-.02"/>
  <path class="cls-4" d="M72.06,17.23h-.05s.17.02.17.02l.61.16h.88s.31-.03.31-.03l1.19-.26.81-.25.32-.21.16-.21.07-.18v-.26s-.03-.13-.03-.13l-.13-.18-.37-.21-.25-.07h-.27s-.22.08-.22.08l-.29.19-.1.1-.06.12v.33s.06.21.06.21l.12.16.33.3.15.1.59.24.51.14.45.04h1.15s.38.03.38.03"/>
  <path class="cls-6" d="M80.4,16.46l.05-.1-.2.08-.12.16-.12.27.02.33.09.35.16.22.17.07h.2s.09-.01.09-.01l.25-.19.11-.18v-.38s-.12-.3-.12-.3l-.14-.2-.18-.15h-.13s0,.14,0,.14"/>
  <path class="cls-6" d="M81.89,17.84l-.11-.57v-.37s.04-.2.04-.2l.05-.21.13-.2.1-.05h.15s.19.08.19.08l.13.1.06.14v.1s-.14.21-.14.21l-.1.07-.33.11-.05.04h.04s.11.22.11.22l.66.58.13.07.02-.02"/>
  <path class="cls-7" d="M84.67,17.38l.08.02.78-.04.37.03.55-.04.61.15.6.25.41.37.03.11-.04.12v.27s-.05.12-.05.12l-.16.23-.24.14-.2.04-.45-.03-.4-.07-.14-.12-.08-.17.03-.13v-.13s.12-.22.12-.22l.3-.36.18-.16.22-.1.8-.26.72.03.45-.07h.76s.34.03.34.03l-.03.02v-.04"/>
  <path class="cls-4" d="M59.59,19.9h-.04s.17-.03.17-.03l.14-.08.99-.73.33-.34.41-.33.25-.27.36-.57.07-.3-.03-.52-.09-.15-.08-.07-.31-.11-.43.03-.19.07-.27.17-.14.17-.04.1-.06.31.03.17.24.19.22.07.42.05.36-.03.38-.14.86-.44,1.14-.92.66-.43.13-.16.02.02.05-.03.08-.09h-.04"/>
  <path class="cls-7" d="M84.84,25.23l-.03.07-.07.04.04-.03,1.74.02.88.04.91.1h-.04s.03,0,.03,0l-.12-.2-.4-.42-.02-.06-.62-.49-.26-.26-.05-.09-.24-.22.64.09.96.21,1.62.03.42-.03.36.06-.21-.05"/>
  <path class="cls-6" d="M80.28,24.5l-.13.02-.22.12-.11.11-.06.19-.03.18.02.32.11.27.09.11.15.11.28.07h.19s.28-.13.28-.13l.23-.23.04-.11v-.24s-.04-.14-.04-.14l-.08-.13-.09-.13-.19-.15-.25-.07"/>
  <path class="cls-6" d="M82.08,25.63l-.03.04-.06-.04.03-.04-.02-.14.02-.89.11-.19.05-.03.12-.02.16.02.27.16.07.18-.14.16-.26.13.03.21.19.27.61.44.12.16"/>
  <path class="cls-4" d="M71.85,25.46v.05s.02-.02.02-.02l.02.03.22-.04,2.33-.1,1.46.06h-.06s-.48.38-.48.38l-.4.39-.25.31-.29.5-.14.16h.29s.85-.11.85-.11l.9-.06,1.44-.06.61.05h.06s-.08-.03-.08-.03"/>
  <path class="cls-2" d="M11.41,24.42l-.07-.04-.46-.02-.24.04-.22.09-.2.16-.09.27-.05.08-.02.24.04.16.13.19.26.29.19.15.21.08h.3s.23-.04.23-.04l.08-.07v-.31s-.02-.27-.02-.27l-.04-.12-.07-.06-.12-.03-.37.04"/>
  <path class="cls-2" d="M12.1,24.45v.04s.83.02.83.02l.06.02-.03.17-.06.13-.39.56-.07.14-.07.18-.05.35-.05.03h.16s.46-.01.46-.01l.75.03"/>
  <path class="cls-2" d="M14.21,26.02l-.05.06.04-.02.06-.15.1-.38v-.12s.05-.18.05-.18l.31-.94.19.29.45,1.12.16.33"/>
  <path class="cls-2" d="M14.54,25.69l.03.02.59-.09"/>
  <path class="cls-2" d="M16.85,24.53l.1-.1-.02.02h.02s-.03-.04-.03-.04l-.09-.03h-.15s-.21.08-.21.08l-.29.24-.14.23-.04.15v.27s.05.25.05.25l.06.12.18.19.28.15h.22s.25-.06.25-.06l.05-.06.07-.15-.03-.13.05-.24-.07-.18-.08-.04h-.12s-.16.02-.16.02l-.06.05"/>
  <path class="cls-2" d="M7.22,24.45l1.14-.07.11.03-.08.16-.21.27-.26.26-.3.36-.32.6v-.04s0,.02,0,.02h.04s.21.02.21.02l.54-.02.47-.06.21.06"/>
  <path class="cls-2" d="M9.35,24.38l-.02-.03h.02s-.04.43-.04.43v.42s.1.36.1.36l.03.36-.03-.03.02-.07"/>
  <path class="cls-5" d="M21.15,27.44l-.03-.04.05-.02.73-1.12.39-.5.69-.76h-.03s.03,0,.03,0l-.07-.11-.26-.3-.36-.26-.41-.37-.21-.24.38-.04,1.32.09h.82s.31.03.31.03l.69-.03.38.02h-.02s.02,0,.02,0v.06"/>
  <path class="cls-4" d="M46.87,27.41v-.03s-.03.02-.03.02h.05s.09-.18.09-.18l.23-.25v-.06s.53-.48.53-.48l.39-.4.57-.66.48-.43.02-.06.11-.09.19-.27.38-.37.29-.43.13-.09.08-.11h.04s-.33-.07-.33-.07h-1.56s-.31-.05-.31-.05l.06.02.18.27.58.69.14.29.27.37.46.91.22.25.18.27.14.24-.02.03.14.11.19.23v.1s.14.07.14.07l.13.26h-.04s0-.13,0-.13"/>
  <path class="cls-4" d="M59.78,27.68l.07.15-.03-.06.17-.13.23-.32.37-.33.08-.11.29-.23.57-.55.37-.26.1-.14.19-.19.5-.41.1-.12h-.02s.03,0,.03,0l-.28-.05-.54-.02-.93.06-.13-.02.5-.5.42-.33.19-.19.04-.08.12-.13.35-.29.16-.21.48-.39.23-.14.15-.2.09-.04.02-.05.11-.07"/>
  <path class="cls-5" d="M38.38,23.32l.03.04-.05.02-.73,1.12-.39.5-.69.76h.03s-.03,0-.03,0l.07.11.26.3.36.26.41.37.21.24-.38.04-1.32-.09h-.82s-.31-.03-.31-.03l-.69.03-.38-.03h.02s-.02,0-.02,0v-.06"/>
  <path class="cls-5" d="M24.83,31.89h1.68s1.01-.08,1.01-.08h.29"/>
  <path class="cls-2" d="M14.46,32.25l-.04.23.06.4v.64s.05.27.05.27l.04.03.03-.08"/>
  <path class="cls-2" d="M14.52,33.06l.26.02.2-.02.15-.05.21-.15"/>
  <path class="cls-2" d="M15.34,32.29l.06.02.1.28.06.85.03.15.09.33.04.04.04-.04"/>
  <path class="cls-2" d="M16.16,32.48l.36.02.56-.08h.18"/>
  <path class="cls-2" d="M16.84,32.54l-.04.1.05.28.06.87"/>
  <path class="cls-4" d="M72.14,32.9h-.11s.06.02.06.02l.43.02,1.99-.05.44.05h.13s-.02-.02-.02-.02"/>
  <path class="cls-4" d="M76.76,32.96h-.07s.04.03.04.03l.85-.03,1,.03.42.04h.93s-.03-.03-.03-.03"/>
  <path class="cls-4" d="M62.95,33.08l-.04-.02.02.03h.06s0-.05,0-.05l.28-.44.51-.58.23-.33.17-.35.29-.32.21-.31.04.03.08-.09h-.06s.05.01.05.01"/>
  <path class="cls-2" d="M10.46,33.68l-.04-.47.04-.61.07-.24.06-.1.07-.04h.17s.15.06.15.06l.1.09.08.33-.04.18-.06.09-.24.1v.18s.1.13.1.13l.16.16.28.17"/>
  <path class="cls-2" d="M13.62,32.36h.03s-.1-.06-.1-.06h-.18s-.33.1-.33.1l-.23.19-.11.18v.24s.12.26.12.26l.23.25.28.12.36.09.06-.29-.02-.13.02-.23-.04-.09h.02s-.22-.01-.22-.01l-.13.03"/>
  <path class="cls-2" d="M12.01,32.3h.02s0,.02,0,.02l-.03.29.03.3-.02.51.04.28-.02.03v.02s.03-.02.03-.02v-.07"/>
  <path class="cls-2" d="M3.31,32.42v-.04s.03.02.03.02h-.02s-.04.15-.04.15l-.02.29.13.72.1.23.07.09.08.06.12.02h.15s.13-.08.13-.08l.11-.1.1-.19.06-.55v-.32s-.06-.22-.06-.22v-.02s.02.02.02.02"/>
  <path class="cls-2" d="M4.92,33.8l-.03.07h-.02s.04-.04.04-.04l.12-.39.15-.55.04-.26.06-.08h-.02s.1.14.1.14l.34.83.1.16.04.02.07-.12.12-.32.22-.82.18.29.08.22.08.36.17.45.07.1.04-.03"/>
  <path class="cls-2" d="M7.7,33.9h-.04s-.02-.02-.02-.02l-.12-.7-.02-.32.02-.32-.04-.1.02-.1.06-.03h.17s.26.08.26.08l.25.2.07.15-.03.15-.13.14-.15.04h-.51"/>
  <path class="cls-5" d="M40.51,31.23l-.15.31-.28.43-1.04,1.34-.58.59h.04s-.11.08-.11.08h.03"/>
  <path class="cls-2" d="M2.37,32.38v-.02s.02.01.02.01l.05.17.05.3.04.9-.02.2-.07.18-.06.09-.1.04-.2.04h-.21s-.05-.07-.05-.07l.02-.05"/>
  <path class="cls-5" d="M36.85,33.99h-1.68s-1.01.08-1.01.08h-.29"/>
  <path class="cls-5" d="M21.18,34.64l.15-.31.28-.42,1.04-1.34.58-.59h-.04s.11-.08.11-.08h-.03"/>
  <path class="cls-4" d="M50.29,31.48l.05.02v.03s.08.2.08.2l.28.31.16.24.15.37.76,1.25.3.34.21.28-.02.02.1.07.03.07h.04s-.04,0-.04,0h.02l-.04-.04"/>
  <path class="cls-4" d="M46.54,34.77h.04s.33-.51.33-.51l.13-.15.11-.21.35-.43.04-.11.64-.9.32-.4.18-.13.11-.13.11-.17.08-.03h-.03l.04-.03h-.03s.02.05.02.05"/>
  <path class="cls-4" d="M59.63,35.39h-.09s.05.02.05.02l.25-.28.58-.91.4-.38.12-.19.38-.43.07-.12.16-.12.06-.07-.05.03"/>
  <path class="cls-4" d="M61.99,40.02h.04s-.04,0-.04,0h.04s.45-.51.45-.51l.43-.56.4-.37.44-.33.33-.4.08-.07v.02s.09-.08.09-.08h-.03s.03,0,.03,0h-.05s.02.02.02.02l-.04.06"/>
  <path class="cls-4" d="M75.33,39.64v.03s.43.06.43.06h.7s.79.09.79.09h1.3s-.07-.02-.07-.02"/>
  <path class="cls-4" d="M71.92,41.12v.1s0-.03,0-.03l.15.07.39.02h.29s.37-.08.37-.08l.46.03.34-.04,1.16.04.1.03h.11s.08-.08.08-.08"/>
  <path class="cls-5" d="M23.55,39.8l.16-.02.44.06,1.15.02,1.14-.05.58.02"/>
  <path class="cls-2" d="M14.87,40.48l-.04-.04.02.02-.06.28v.2s.15.47.15.47l.12.23.22.29.07.05.11.03h.11s.05-.04.05-.04l.14-.21.06-.17.08-.46.03-.45-.02-.33-.03-.05h-.05s.03,0,.03,0l.07.16"/>
  <path class="cls-2" d="M16.73,41.75v.08s.03-.03.03-.03l-.03-.02v-.12s-.14-.47-.14-.47l-.09-.41v-.08s.14-.3.14-.3l.1-.1.09-.05.09-.03h.13l.1.03.17.09.11.13.04.1-.02.22-.05.07-.07.04-.18.05h-.41"/>
  <path class="cls-2" d="M9.4,42.06l.03-.02.05-.32.11-.83v-.33s.04-.13.04-.13l.13.12.06.11.08.2.13.55.24.39.19-.49.22-.86.1.15.07.21.09.64.06.22.09.16.08.08"/>
  <path class="cls-2" d="M11.89,41.92h.03l.03-.55-.04-.27-.12-.47-.07-.14v-.09s.08-.05.08-.05h.19s.33.07.33.07l.19.08.15.1.06.09v.06s-.01.12-.01.12l-.07.11-.19.13-.24.09-.34.04"/>
  <path class="cls-2" d="M7.53,40.46v.03s.04,0,.04,0v.03s-.04.34-.04.34l.02.4.17.57.08.18.15.16.16.04.15-.05.09-.06.16-.17.04-.05.17-.39.04-.2v-.2s0-.08,0-.08l-.05-.33v-.17s-.03-.08-.03-.08h-.03s.02-.01.02-.01l.02.14"/>
  <path class="cls-2" d="M6.65,40.53l.02-.02h.03s-.02.02-.02.02l.12.65.05.94-.08.2-.07.07-.07.02-.15-.02-.21-.13v-.03"/>
  <path class="cls-5" d="M39.62,39.73l.02-.04-.19.19-.45.61-.32.3-.39.53-.54.58-.09.06.02.02-.14.12-.06.12-.16.1h.04"/>
  <path class="cls-4" d="M46.71,43.83h-.04s.43-.39.43-.39l.16-.23.4-.41.11-.16.44-.42.22-.3.22-.21.15-.08.1-.12.16-.1.07-.06h-.06s.05,0,.05,0"/>
  <path class="cls-4" d="M49.29,39.62h.03s0,.03,0,.03l.18.14.2.28.18.34.38.46.28.46.16.16v.06s.27.27.27.27l.5.61.36.34v.08h.04-.02s.02,0,.02,0l-.04-.03"/>
  <path class="cls-5" d="M37.22,43.65l-.16.02-.44-.06-1.15-.02-1.14.05-.58-.02"/>
  <path class="cls-5" d="M21.14,43.72l-.02.04.19-.19.45-.61.32-.31.39-.53.54-.58.09-.06-.02-.02.14-.12.06-.12.16-.1h-.04"/>
  <path class="cls-4" d="M59.57,43.78h.03s.05-.1.05-.1l.23-.18.08-.13.18-.16.47-.54.72-.73.32-.23.26-.25h.05s-.02,0-.02,0l.05-.11.08-.08-.04.02"/>
  <path class="cls-4" d="M71.86,48.83v.07s1.16-.1,1.16-.1l.42.02.71-.04.5.05h.68s.01.02.01.02l.18-.03"/>
  <path class="cls-4" d="M59.58,51.01l-.05-.14h-.03s.07.04.07.04l.22-.26.14-.27.14-.18.31-.3.6-.68.56-.58.67-.83.09-.06v-.03s.03-.05.03-.05l.08-.02h-.04"/>
  <path class="cls-4" d="M62.71,49.42l.46-.55.3-.25,1.17-1.16.28-.19.36-.44.15-.11h-.04s.14-.18.14-.18h.03s.05-.1.05-.1h-.03s.03.02.03.02h-.02"/>
  <path class="cls-2" d="M6.64,49.9l-.07-.85-.05-.27v-.49s.18-.02.18-.02l.37.16.24.2.07.17-.02.08-.08.13-.19.14-.26.04h-.32"/>
  <path class="cls-2" d="M2.2,48.35v.13s-.03.11-.03.11v.18s.08.45.08.45l.13.31.02.11.1.18.08.09.16.08.13.02.32-.14.11-.23.06-.32.04-.58-.03-.33-.05-.12v-.08s.03,0,.03,0v.03"/>
  <path class="cls-2" d="M3.95,49.84v.02s.02-.01.02-.01l.18-.41.19-1.08v.03s.08.07.08.07l.04.08.09.26.09.37.22.52.12.22.08.07.08-.12.18-.57.14-.5v-.2s-.01,0-.01,0l.06.08.07.17.24.81.06.3.04.05"/>
  <path class="cls-2" d="M16.14,49.9l-.06.03h.05s.01-.06.01-.06v-.64s-.05-.46-.05-.46l.06-.45h.02s-.04,0-.04,0l.35.41.16.28.29.43.21.27.15.14h-.02s.04-.2.04-.2l.04-.51v-.37s.01-.28.01-.28l-.03-.14v-.05s.04,0,.04,0h-.06"/>
  <path class="cls-2" d="M12.1,48.56v-.02s-.04-.02-.04-.02h.03s-.09.09-.09.09l-.09.13-.11.25-.03.17v.35s.04.11.04.11l.11.14.22.2.06.02h.13s.08-.05.08-.05l.16-.17.15-.25.05-.21v-.19s-.05-.16-.05-.16l-.06-.1-.24-.23-.17-.1h-.13l.08.15"/>
  <path class="cls-2" d="M13.31,48.61v-.02s.02,0,.02,0l-.03.02.13.21.24.89.12.25h-.02s.05-.07.05-.07l.13-.4.11-.23.15-.47.04-.06v.02s.03-.02.03-.02l.09.03.05.07.24.81.15.26.08.08h-.02s.09-.22.09-.22l.14-.44.12-.49.12-.3.03-.11-.05.05.02.07"/>
  <path class="cls-2" d="M9.91,49.94v.04s-.02-.07-.02-.07l-.07-.97-.14-.47.3-.03.18.02.23.07.38.23.23.23.09.24v.09s-.1.14-.1.14l-.22.16-.3.15-.26.18-.07.03h-.02s.04-.02.04-.02h-.02s.02-.03.02-.03"/>
  <path class="cls-5" d="M23.71,49.7l-.02.05h.21s2.6-.15,2.6-.15h.37s.32.03.32.03l-.06-.03"/>
  <path class="cls-5" d="M21.19,50.97l.26-.4.55-.61.26-.37,1.23-1.44"/>
  <path class="cls-5" d="M37.29,49.7l.02-.05h-.21s-2.6.15-2.6.15h-.37s-.32-.03-.32-.03l.06.03"/>
  <path class="cls-5" d="M39.81,48.43l-.26.39-.55.62-.26.37-1.23,1.44"/>
  <path class="cls-2" d="M1.4,48.42h.02s.03.05.03.05l.04.24v.65s-.02.3-.02.3l-.05.22-.1.12-.24.09-.37.05-.04-.02.02-.05"/>
  <path class="cls-4" d="M46.64,50.05l.13-.08.29-.27.42-.54.24-.21.27-.34v-.04s.2-.16.2-.16l.2-.22.27-.2.08-.12.1-.07.3-.31.05-.09.17-.15h-.02s.08-.04.08-.04"/>
  <path class="cls-4" d="M49.44,48.96l-.02-.02h.04s.01.04.01.04l.72.64.1.05.19.22.4.28.11.15.35.34.07.11.41.34v.04s.14.04.14.04l-.03.03v-.05"/>
  <path class="cls-4" d="M75.63,50.3l-.02.03.38.03.62-.03.69.09h1.17s.56-.04.56-.04"/>
  <path class="cls-5" d="M21.14,58.31l.13-.11.16-.27.8-1.05.72-.81.33-.44.17-.15"/>
  <path class="cls-5" d="M22,55.35l1.23-.06,1.55.09h.89"/>
  <path class="cls-2" d="M16.38,55.81l.33.04h.24s.32-.08.32-.08h.06s.01.04.01.04"/>
  <path class="cls-2" d="M16.93,55.89v-.02s-.05.41-.05.41l.02.96"/>
  <path class="cls-4" d="M59.6,59.07v.05s.06-.02.06-.02v-.02s.21-.13.21-.13l.26-.26.28-.21.99-1.1.33-.24.44-.5.08-.12.34-.27v-.05s.13-.12.13-.12l.02.02-.06-.04"/>
  <path class="cls-4" d="M60.88,56.13l-.07.04h.05s-.03-.05-.03-.05l.39-.4.87-.79.31-.34.25-.34.06-.03.54-.62.25-.16-.04.02.04-.03-.02-.02-.04.02.04-.02"/>
  <path class="cls-2" d="M11.57,56h-.03s.03.04.03.04l.03.22v.5s.08.38.08.38l-.02.16.61.04.25-.04.11.04"/>
  <path class="cls-2" d="M13.27,57.15l-.04-.04-.07-.32v-.37s-.06-.54-.06-.54l-.04-.1.44.07h.19s.27-.04.27-.04h.03s0,.02,0,.02"/>
  <path class="cls-2" d="M13.24,56.55l.02.05h.75"/>
  <path class="cls-2" d="M13.3,57.15l-.04.03h.01s.14,0,.14,0l.81.04"/>
  <path class="cls-2" d="M14.95,57.11h.04s-.03,0-.03,0v-.14s-.05-.55-.05-.55l-.05-.29-.08-.21-.03-.16h.02s.23-.01.23-.01l.51.02.21-.05"/>
  <path class="cls-2" d="M15.1,56.63l-.02.08v-.02s.77-.08.77-.08"/>
  <path class="cls-2" d="M5.84,57.28l-.03.03h.02s.12-.34.12-.34l.15-.99.05-.09.08.07.09.17.3.74.2.27.1.07.09-.16.12-.39.14-.61.04-.06v.02s-.01,0-.01,0v-.02s.12.04.12.04l.07.1.04.14.14.71.08.17.09.1.04.12"/>
  <path class="cls-2" d="M8.65,57.48l-.03.04-.03-.3v-.7s-.05-.59-.05-.59l-.04-.15h.24s.4.13.4.13l.17.11.1.13.04.11-.04.16-.05.07-.15.11-.13.04-.44.06-.09.05v.05"/>
  <path class="cls-2" d="M4.34,56.02l-.04.3.07.5.06.29.1.2.08.08.08.04.1-.03.18-.2.13-.27.03-.39-.04-.47-.02-.1h-.02s.04.09.04.09"/>
  <path class="cls-2" d="M3.38,56l-.04-.08.09.26.07.36.02.3v.45s-.06.18-.06.18l-.12.13-.25.12h-.3s-.04-.03-.04-.03v-.05"/>
  <path class="cls-5" d="M38.4,55.16l-.13.11-.16.27-.8,1.05-.72.81-.33.45-.17.15"/>
  <path class="cls-5" d="M37.53,58.12l-1.23.06-1.55-.09h-.89"/>
  <path class="cls-4" d="M46.66,58.47v.06s.14-.1.14-.1l.36-.53.41-.33.12-.21.19-.18.15-.2.36-.31.13-.16.26-.18.18-.21.3-.25.21-.3.14-.07.08-.1h-.02s0-.03,0-.03l.1-.04h-.06"/>
  <path class="cls-4" d="M48.35,55.09h-.06s.03,0,.03,0v.05s.2.25.2.25l.16.16.13.22.63.76.28.3.35.53.18.21.04.1.16.2.06.04.07.13.16.19.02.08.17.21v.02s-.04,0-.04,0h.05s-.04-.08-.04-.08"/>
  <path class="cls-3" d="M20.26,2.94c.4-.39,1.32-2.03,1.87-2.26"/>
  <path class="cls-3" d="M37.53,3.23c.5-.76,1.44-2.03,1.95-2.81"/>
  <path class="cls-3" d="M45.94,2.65s-.12,0-.03-.06c.57-.45,1.5-1.83,2.08-2.16"/>
  <path class="cls-3" d="M49.96.41c.58.34,1.59,1.55,2.09,2.12"/>
  <path class="cls-3" d="M58.62,2.64c.42-.39,1.51-1.88,2.09-2.2"/>
  <path class="cls-3" d="M63.06,2.76c.28-.29,1.3-1.86,1.69-2.26"/>
  <path class="cls-3" d="M71.1,1.57c.7.06,2.34-.15,2.97,0"/>
  <path class="cls-3" d="M24.26,2.04c.4-.01.91,0,1.55-.02.52-.01,1.09-.01,1.52-.02"/>
  <g>
    <path class="cls-1" d="M22.31,1.94c.12,0,.28,0,.48,0,.16,0,.33,0,.47,0"/>
    <path class="cls-1" d="M22.79,1.47c0,.12,0,.28,0,.48,0,.16,0,.33,0,.47"/>
  </g>
  <g>
    <path class="cls-1" d="M36.4,1.87c.12,0,.28,0,.48,0,.16,0,.33,0,.47,0"/>
    <path class="cls-1" d="M36.88,1.4c0,.12,0,.28,0,.48,0,.16,0,.33,0,.47"/>
  </g>
  <g>
    <path class="cls-1" d="M48.54,1.72c.12,0,.28,0,.48,0,.16,0,.33,0,.47,0"/>
    <path class="cls-1" d="M49.01,1.25c0,.12,0,.28,0,.48,0,.16,0,.33,0,.47"/>
  </g>
  <g>
    <path class="cls-1" d="M61.33,1.52c.12,0,.28,0,.48,0,.16,0,.33,0,.47,0"/>
    <path class="cls-1" d="M61.81,1.05c0,.12,0,.28,0,.48,0,.16,0,.33,0,.47"/>
  </g>
  <g>
    <path class="cls-1" d="M74.99,1.52c.12,0,.28,0,.48,0,.16,0,.33,0,.47,0"/>
    <path class="cls-1" d="M75.47,1.05c0,.12,0,.28,0,.48,0,.16,0,.33,0,.47"/>
  </g>
  <path class="cls-3" d="M32.58,1.82c.77.18,2.14.19,2.85.06"/>
  <path class="cls-3" d="M76.91,1.57c.66.01,2.24-.05,2.95-.04"/>
</svg>