<?xml version="1.0" encoding="UTF-8"?>
<svg id="vector" xmlns="http://www.w3.org/2000/svg" viewBox="0 0 43.13 17.01">
  <defs>
    <style>
      .cls-1 {
        stroke: #60889a;
        stroke-width: .4px;
      }

      .cls-1, .cls-2 {
        fill: none;
        stroke-linecap: round;
        stroke-linejoin: round;
      }

      .cls-2 {
        stroke: #000;
        stroke-width: .6px;
      }
    </style>
  </defs>
  <path class="cls-2" d="M1.75,7.24l-.06.11-.08.03.08-.04.02.03-.04-.02v.02s.19-.19.19-.19l.44-.53,2.22-2.42.91-.8.12-.2h.04s-.05.01-.05.01h.04v.02s-.03-.02-.03-.02"/>
  <path class="cls-2" d="M2.2,3.81l.04.07v-.03s.1-.05.1-.05l.02-.22-.15-.04-.11.06-.03.06.06.3.13.14h.07s.06-.03.06-.03l.02-.28-.05-.07-.14-.03v.22"/>
  <path class="cls-2" d="M4.73,6.37l.06-.02.1-.12-.13-.05-.12.02-.05.15.04.19.09.13.16-.12.06-.18-.15-.12h-.17s.01.06.01.06l.08.11.07.04.09.02"/>
  <path class="cls-1" d="M.52,14.09l.74-.05.59-.12.38.02.19-.04"/>
  <path class="cls-1" d="M1.59,13.89l-.11.03.05.04-.06.69.09,1.15.04.12.05.05.06-.06"/>
  <path class="cls-1" d="M3.1,15.84l.07.06.07-.22.02-.24-.13-1.06-.02-.43h.12s.47.08.47.08l.51-.04h.08s0,.04,0,.04"/>
  <path class="cls-1" d="M3.3,14.79l-.06.1h.03s.35-.08.35-.08l.42-.05.15.05.1.1"/>
  <path class="cls-1" d="M3.25,15.61v.09s.05-.02.05-.02l.28.06h.64s.3-.05.3-.05"/>
  <path class="cls-1" d="M5.14,15.7l-.04.03h.06s.25-1.1.25-1.1l.2-.57.06-.33.06-.03.18.16.09.14.16.42.24.48.15.23.16.47.11.22.04.05v-.03s-.06-.07-.06-.07"/>
  <path class="cls-1" d="M5.55,14.96l.02.03h.34s.46-.16.46-.16"/>
  <path class="cls-1" d="M40.52,14.03l-.02.03h.05s1.34-.02,1.34-.02"/>
  <path class="cls-1" d="M41.13,14.09l-.07.02.06.02.03.31-.05.39.02.51.05.27v.38s.02.08.02.08h.08-.05l-.03-.05"/>
  <path class="cls-1" d="M36.24,13.96l.07-.08.02.02v-.02s-.3.15-.3.15l-.14.16-.16.44-.03.46.1.33.27.38.15.13.22.05h.19l.37-.17.19-.16.14-.17.11-.18.03-.12-.18-.61-.25-.39-.09-.1-.16-.08-.17-.03h-.11s.02.03.02.03"/>
  <path class="cls-1" d="M38.21,13.98h.04s-.03.06-.03.06v.24s-.01.14-.01.14l.05.65.25.68.17.16.17.03.11-.05.24-.23.09-.13.14-.33v-.1s.07-.26.07-.26v-.25s-.08-.69-.08-.69l-.02.02h.04"/>
  <path class="cls-2" d="M19.8,9.5l.05-.03.03.03.07-.03.02-.04-.04-.07-.1-.04-.07.04-.04.06v.08s.04.12.04.12l.06.04h.16s-.05-.02-.05-.02l-.05-.09-.08-.05.04.06"/>
  <path class="cls-2" d="M19.85,6.93l.04-.27-.07-.12-.38-.14-.35-.04-.3.02-.43.09-.47.2-.2.16-.14.19-.07.42.02.21.07.23.19.28.23.11.38.04.36-.1.17-.08.32-.21.41-.39,1.37-1.52,1.45-1.43.99-1.09.07-.06-.02.06h-.04s.03-.04.03-.04h-.03"/>
  <path class="cls-2" d="M21.21,1.16h.05s.03.46.03.46l.22.51.1.14.19.17.25.15.17.04h.15s.18-.07.18-.07l.4-.28.48-.56.19-.41.09-.06h-.04"/>
  <path class="cls-1" d="M17.62,15.66h.03s0,.02,0,.02l-.02-.02h.03s-.03-.93-.03-.93l-.04-.35-.09-.21v-.24s.05-.08.05-.08l.13-.07.24-.02.37.04.18.05.13.07.18.18.07.04v.08s-.1.21-.1.21l-.56.44.03.02.04.17.33.34.18.15.27.16h.14"/>
  <path class="cls-1" d="M20.01,15.63v.09s-.01-.03-.01-.03l.09-.41.27-.75.11-.48v-.27s.04-.1.04-.1l.22.29.17.38.03.15.56.88"/>
  <path class="cls-1" d="M20.32,14.95h-.05s.01-.02.01-.02l.26.06.45-.1"/>
  <path class="cls-1" d="M21.89,13.56l-.03-.02.11.2.16.14.21.35.19.17-.02-.03.36-.43.11-.2.09-.29.1-.15h-.03s.02-.03.02-.03h.04"/>
  <path class="cls-1" d="M22.78,14.11l-.2.15.16,1.07v.32s.03,0,.03,0l-.02-.1"/>
  <path class="cls-2" d="M34.4,6.42l-.07-.07.05.02v.35s-.06,1.03-.06,1.03l.03.35h.04l.11-.12"/>
  <path class="cls-2" d="M35.79,7.67l-.03.05.03-.03v-.14s.06-.42.06-.42l.22-.46.16-.18.18-.14.1-.04h.32s.14.01.14.01l.19.07.1.08.19.24.17.43.12.55.04.03-.03.06"/>
  <path class="cls-2" d="M39.03,5.82l.52-.48,1.24-1.38.51-.45.82-.84.28-.3.1-.17-.04.05.04-.04.04.07"/>
</svg>