<?xml version="1.0" encoding="UTF-8"?>
<svg id="vector" xmlns="http://www.w3.org/2000/svg" viewBox="0 0 66.06 82.24">
  <defs>
    <style>
      .cls-1 {
        stroke-width: .4px;
      }

      .cls-1, .cls-2, .cls-3 {
        stroke: #60889a;
      }

      .cls-1, .cls-2, .cls-3, .cls-4 {
        fill: none;
        stroke-linecap: round;
        stroke-linejoin: round;
      }

      .cls-2 {
        stroke-width: .95px;
      }

      .cls-3 {
        stroke-width: .38px;
      }

      .cls-4 {
        stroke: #000;
        stroke-width: .6px;
      }
    </style>
  </defs>
  <path class="cls-3" d="M19.25,22h.03s-.02-.44-.02-.44l-.1-.79-.02-.41-.04-.08.03-.25h-.03s1.03.13,1.03.13l.08.05"/>
  <path class="cls-3" d="M19.39,21l-.03.06h.48s.29-.04.29-.04l.1.03"/>
  <path class="cls-3" d="M19.4,21.99l-.04.06.03-.03.99-.08.3.04"/>
  <path class="cls-3" d="M9.24,22.52l.09-.1.05-.29.06-.11.06-.28.14-.38.13-.67.2-.65v.02s.21.28.21.28l.29.59.45.98.12.36.11.21.08.11.05.02h-.08"/>
  <path class="cls-3" d="M9.66,21.68v-.02s.04,0,.04,0l.38.04.47-.07"/>
  <path class="cls-3" d="M17.05,20.01l.04-.04v.07s.02.68.02.68l-.05.98.06.11-.08.16.04.03-.02.06-.02-.02.21.03.25-.03.78-.02"/>
  <path class="cls-3" d="M15.87,20.04v-.02s-.14,0-.14,0l-.26.04-.3.11-.31.25-.21.28-.05.34.03.45.12.32.14.19.23.11.2.04.71.02-.03-.5.03-.22-.05-.16-.1-.05h-.23s-.33.1-.33.1h.13"/>
  <path class="cls-3" d="M12.31,22.34l.02-.15-.08-.96-.15-.94.65.81.46.66.26.26.25.13-.04-.03.05-.51-.07-.52-.02-.58-.04-.38-.1-.06.04-.06"/>
  <path class="cls-3" d="M17.7,29.43l-.03-.1h-.08s-.24.18-.24.18l-.18.26-.09.31.02.34.09.33.14.26.16.18.13.05.27.03.14-.02.19-.08.41-.38.09-.12.06-.17-.04-.13v-.17s-.04-.3-.04-.3l-.22-.29-.24-.17-.25-.08-.26.02.07.1"/>
  <path class="cls-3" d="M19.7,30.99v-.05s0,.02,0,.02h.04s-.08-.18-.08-.18l-.06-.29-.1-.78-.07-.27v-.16s.23-.05.23-.05l.65.05.26.13.07.07.04.27-.17.22-.2.13-.22.05-.29-.02-.02.02"/>
  <path class="cls-3" d="M15.45,29.49l.08-.05-.07-.04h-.08s-.14.04-.14.04l-.16.13-.11.18-.05.22-.02.32.13.57.07.12.07.04.1.04.19.03.25-.06.38-.19.13-.12.04-.1.06-.34-.02-.18-.12-.29-.17-.23-.22-.13-.18-.05"/>
  <path class="cls-3" d="M12.81,29.3l.05,1.03-.03.78-.03.1.53-.03h.63s.08.03.08.03"/>
  <path class="cls-3" d="M14.65,39.28v.05s1.02.02,1.02.02l.07.03-.04.21-.08.16-.48.7-.08.17-.09.22-.07.43-.07.04h.2s.57-.02.57-.02l.92.03"/>
  <path class="cls-3" d="M17.27,41.22l-.07.07.05-.03.07-.18.13-.47v-.15s.06-.22.06-.22l.39-1.17.24.35.55,1.39.2.41"/>
  <path class="cls-3" d="M17.67,40.81l.04.02.73-.11"/>
  <path class="cls-3" d="M20.53,39.38l.12-.13-.02.02h.02s-.04-.05-.04-.05l-.11-.04h-.19s-.26.1-.26.1l-.36.3-.18.29-.05.18-.02.33.08.3.08.15.22.24.35.18h.27s.31-.08.31-.08l.06-.07.08-.19-.04-.16.07-.3-.09-.23-.1-.05-.15-.02-.19.05-.08.06"/>
  <path class="cls-3" d="M8.61,39.27l1.41-.09.14.04-.1.2-.26.33-.32.32-.37.45-.39.74v-.05s0,.03,0,.03l.05.02h.27s.66-.03.66-.03l.58-.07.26.07"/>
  <path class="cls-3" d="M11.24,39.18l-.02-.03.03.02-.05.52.02.52.1.45.04.45-.03-.03.02-.09"/>
  <path class="cls-3" d="M13.8,39.24l-.08-.05-.57-.03-.29.05-.27.12-.25.2-.12.33-.06.1-.03.3.05.2.16.24.32.36.24.19.26.09h.38s.28-.05.28-.05l.1-.08v-.38s-.03-.34-.03-.34l-.05-.15-.09-.08-.15-.03-.46.05"/>
  <path class="cls-3" d="M17.57,48.94l-.05.28.07.5v.79s.06.34.06.34l.05.04.04-.1"/>
  <path class="cls-3" d="M17.65,49.93l.32.03.25-.02.19-.07.25-.18"/>
  <path class="cls-3" d="M18.66,48.99l.07.02.12.35.07,1.05.04.18.11.41.04.04.05-.05"/>
  <path class="cls-3" d="M19.68,49.22l.45.03.7-.1h.22"/>
  <path class="cls-3" d="M20.52,49.29l-.04.13.07.34.07,1.08"/>
  <path class="cls-3" d="M12.62,50.71l-.06-.59.05-.76.09-.3.08-.13.09-.05h.21s.19.07.19.07l.12.11.09.41-.06.22-.08.11-.29.12.02.22.1.16.2.2.34.22"/>
  <path class="cls-3" d="M16.53,49.07h.03s-.13-.07-.13-.07h-.22s-.4.13-.4.13l-.28.23-.13.22v.3s.15.32.15.32l.28.31.35.15.44.12.07-.36-.03-.16.03-.29-.05-.11h.03s-.27-.01-.27-.01l-.16.04"/>
  <path class="cls-3" d="M14.53,49h.02s.01.03.01.03l-.04.36.04.37-.03.63.05.34-.02.03.02.02.02-.02v-.09"/>
  <path class="cls-3" d="M3.76,49.15v-.05s.04.03.04.03h-.02s-.05.19-.05.19l-.03.36.16.9.13.28.08.1.1.07.14.03h.19s.16-.1.16-.1l.13-.12.13-.24.07-.68v-.4s-.07-.27-.07-.27l.02-.03v.02"/>
  <path class="cls-3" d="M5.76,50.85l-.03.09h-.03s.04-.05.04-.05l.15-.49.19-.69.04-.33.08-.1h-.02s.12.17.12.17l.42,1.02.13.2.05.02.09-.15.15-.4.27-1.01.23.35.1.27.1.44.21.56.09.12.04-.04"/>
  <path class="cls-3" d="M9.2,50.98h-.05s-.03-.03-.03-.03l-.15-.87-.02-.4.02-.4-.04-.12.02-.13.08-.03h.21s.32.1.32.1l.31.24.09.18-.04.19-.16.17-.18.05h-.63"/>
  <path class="cls-3" d="M2.59,49.09v-.02s.03.02.03.02l.06.2.06.37.05,1.12-.02.24-.09.23-.07.11-.13.05-.25.04h-.26s-.06-.09-.06-.09l.03-.06"/>
  <path class="cls-3" d="M19.96,78.12l.41.05.3-.02.4-.08h.08s.02.04.02.04"/>
  <path class="cls-3" d="M20.63,78.22l-.02-.02-.05.51.03,1.19"/>
  <path class="cls-3" d="M13.99,78.35h-.03s.04.05.04.05l.04.28v.62s.1.47.1.47l-.02.19.76.05.31-.05.13.05"/>
  <path class="cls-3" d="M16.1,79.78l-.04-.05-.08-.4v-.45s-.08-.67-.08-.67l-.05-.12.55.09h.23s.33-.06.33-.06h.04s0,.03,0,.03"/>
  <path class="cls-3" d="M16.06,79.03l.03.06h.93"/>
  <path class="cls-3" d="M16.14,79.77l-.05.03.02.02h.17s1,.04,1,.04"/>
  <path class="cls-3" d="M18.19,79.73l.05.02h-.03s.02-.18.02-.18l-.08-.67-.06-.35-.1-.25-.04-.2.02.02.28-.03.63.03.26-.06"/>
  <path class="cls-3" d="M18.36,79.13l-.03.1v-.02s.95-.1.95-.1"/>
  <path class="cls-3" d="M6.89,79.94l-.03.03h.03s.15-.42.15-.42l.19-1.22.07-.11.1.09.11.21.38.92.24.34.12.09.11-.2.14-.49.18-.75.04-.08v.02s-.02,0-.02,0v-.03s.15.05.15.05l.08.12.05.17.17.88.1.21.11.12.05.15"/>
  <path class="cls-3" d="M5.04,78.38l-.05.37.09.62.08.36.12.25.1.1.1.05.12-.04.22-.25.16-.33.04-.49-.05-.58-.03-.13-.02.02.05.1"/>
  <path class="cls-3" d="M10.38,80.19l-.04.05-.03-.37v-.87s-.06-.73-.06-.73l-.05-.19h.3s.5.16.5.16l.21.14.12.16.05.14-.05.2-.06.09-.18.14-.16.05-.55.07-.11.06v.06"/>
  <path class="cls-3" d="M3.85,78.36l-.05-.09.12.32.09.44.03.37-.02.56-.06.23-.14.16-.31.14h-.37s-.05-.03-.05-.03v-.06"/>
  <path class="cls-3" d="M18.09,59.13l-.05-.05.03.03-.08.34v.25s.19.59.19.59l.15.28.27.35.09.06.13.04h.13s.07-.05.07-.05l.17-.26.07-.21.09-.56.04-.56-.02-.4-.03-.07h-.06s.04,0,.04,0l.09.2"/>
  <path class="cls-3" d="M20.38,60.7v.1s.04-.04.04-.04l-.03-.02v-.15s-.18-.58-.18-.58l-.11-.51v-.09s.18-.38.18-.38l.12-.12.12-.06.11-.04h.16s.13.03.13.03l.21.11.14.16.05.13-.03.27-.07.09-.09.05-.23.06h-.51"/>
  <path class="cls-3" d="M11.3,61.08l.04-.02.06-.4.14-1.03v-.41s.05-.16.05-.16l.16.15.08.13.1.25.16.68.29.48.24-.61.28-1.06.12.19.09.26.11.79.07.27.11.2.1.1"/>
  <path class="cls-3" d="M14.39,60.92h.04l.04-.67-.05-.34-.14-.58-.08-.18v-.11s.1-.06.1-.06h.24s.41.09.41.09l.23.1.18.12.07.12v.08s-.01.15-.01.15l-.09.14-.23.16-.3.11-.42.05"/>
  <path class="cls-3" d="M8.99,59.1v.04s.05,0,.05,0v.04s-.05.42-.05.42l.02.49.22.7.1.22.19.2.19.05.19-.06.11-.08.19-.21.05-.06.21-.48.05-.25v-.25s0-.1,0-.1l-.07-.41v-.21s-.03-.1-.03-.1h-.04s.02-.01.02-.01l.02.17"/>
  <path class="cls-3" d="M7.9,59.19l.02-.02h.04s-.02.02-.02.02l.15.8.06,1.17-.09.25-.09.09-.08.03-.19-.03-.26-.16v-.04"/>
  <path class="cls-4" d="M30.72,52.83h.05s-.01-.05-.01-.05l.04-.21v-.34s-.02-.26-.02-.26l.03-.65-.03-.19v-.29s-.04-.26-.04-.26l.02-.31-.04-.38.02-.18-.15-1.09-.05-.48.02-.2-.09-.16.02-.18h.03s-.03,0-.03,0h.52s.71.17.71.17l.24.02.22.07.21.12.24.23.07.16.1.13.13.41v.24s-.08.17-.08.17l-.05.32-.08.3-.16.21-.28.22-.1.04-.11.12-.23.13-.4.16-.58.11-.08.07.08.07"/>
  <path class="cls-4" d="M31.11,61.89l-.02.06.04-.03-.11.02-.53-.13-.34-.19-.55-.63-.04-.15-.06-.08-.05-.45-.08-.34-.02-.61.16-.56.06-.41.1-.13.36-.31.1-.15.27-.16.14-.05.14-.13.58-.27.45-.05.62.23.25.15.1.02.16.15.38.23.21.25.09.2.2.78.06.15-.04.13v.2s-.04.1-.04.1v.16s-.03.1-.03.1l-.08.49-.11.23-.21.3-.39.25-.1.13-.07.04-.73.34-.96.1-.13-.04h.03"/>
  <path class="cls-4" d="M32.18,60.4h-.15s.08.02.08.02l.16.44.28.43.39.45.58.6.18.15-.02-.1"/>
  <path class="cls-3" d="M7.89,70.8l-.08-1.05-.06-.34-.02-.61.24-.03.45.2.3.25.09.22-.02.11-.1.16-.24.17-.32.05h-.4"/>
  <path class="cls-3" d="M2.38,68.88v.17s-.04.13-.04.13v.22s.1.56.1.56l.16.38.03.14.12.23.1.11.2.1.16.03.4-.17.13-.29.07-.4.05-.72-.04-.4-.06-.15v-.1s.03,0,.03,0v.03"/>
  <path class="cls-3" d="M4.55,70.72v.02s.02-.02.02-.02l.22-.5.23-1.33v.03s.1.08.1.08l.05.1.12.32.11.46.28.64.15.28.1.09.1-.16.23-.71.17-.62.02-.24h-.03s.07.11.07.11l.08.21.3,1,.08.37.04.07"/>
  <path class="cls-3" d="M19.66,70.8l-.07.04h.06s.02-.08.02-.08v-.79s-.06-.57-.06-.57l.07-.55h.02s-.05,0-.05,0l.43.51.2.35.36.52.26.33.19.17h-.02s.05-.24.05-.24l.05-.63v-.46s.01-.35.01-.35l-.04-.17v-.06s.05,0,.05,0h-.07"/>
  <path class="cls-3" d="M14.65,69.14v-.03s-.05-.02-.05-.02h.04s-.11.11-.11.11l-.11.16-.13.31-.03.21v.43s.05.14.05.14l.13.17.27.25.07.03h.16s.1-.06.1-.06l.2-.21.19-.31.06-.25v-.24s-.07-.2-.07-.2l-.07-.12-.29-.28-.21-.13h-.16s.1.18.1.18"/>
  <path class="cls-3" d="M16.15,69.19l-.02-.02h.04s-.03,0-.03,0l.16.26.3,1.1.15.31h-.03s.06-.09.06-.09l.16-.49.13-.29.19-.58.05-.07v.03s.04-.02.04-.02l.11.04.06.09.3,1,.19.32.1.1h-.02s.11-.27.11-.27l.18-.54.15-.61.14-.37.04-.13-.06.06.02.08"/>
  <path class="cls-3" d="M11.94,70.84v.05s-.03-.09-.03-.09l-.08-1.2-.17-.58.37-.04.22.03.29.09.47.29.28.29.11.3v.11s-.12.17-.12.17l-.27.19-.37.19-.33.22-.09.04h-.02s.05-.02.05-.02h-.02s.02-.04.02-.04"/>
  <path class="cls-3" d="M1.39,68.96l.03-.02.03.08.04.3v.8s-.02.37-.02.37l-.06.27-.12.15-.29.12-.45.07-.05-.03.03-.07"/>
  <path class="cls-4" d="M28.94,67.23l-.02.03v-.04s.03,0,.03,0v.08s.21.47.21.47l.08.27.07.12.17.82.46,1.47v.21s.22.55.22.55l.1.33-.03-.02.02.02h-.03s.09.17.09.17v-.07s-.04,0-.04,0h.03s.04-.08.04-.08l.04-.17.1-.15.07-.22.08-.33.02-.3.14-.4v-.12s.1-.24.1-.24l.07-.43.07-.08.05-.27.12-.24.13-.39-.03.03h.02s.12.17.12.17l.09.25.1.09.04.23.1.25.39.72.23.57.14.2.04.12.33.63.03.15h.03s-.04-.02-.04-.02h.03s.04-.19.04-.19l.06-.14.04-.45.15-.37.14-.46-.03-.11.03-.18.22-.72.06-.51.13-.4.04-.04-.04-.11.18-.47-.03.02.03.02h-.04s.1-.3.1-.3l-.05.05h.03s-.09.09-.09.09"/>
  <path class="cls-4" d="M32.07,76.38l.02.07-.02.52.09.6v.85s.04.32.04.32v.84s-.09.52-.09.52v.2s-.11.4-.11.4l-.14.2-.11.28-.21.19-.03.06-.19.03-.29.11-.27-.11v-.05s-.35-.27-.35-.27l-.11-.15-.15-.33-.1-.09v.06s.08-.02.08-.02"/>
  <path class="cls-4" d="M29.8,38.1v.02s.05-.02.05-.02l-.05.02.37.6.12.25.1.11v.05s.24.53.24.53l.15.26.21.18.14.29.09.11.02.1.07.03-.03-.02.02.04h-.06s.02-.03.02-.03l.08.1-.03-.03v.04s-.03-.05-.03-.05l.14-.08.12-.13.1-.26.12-.16v-.07s.11-.13.11-.13l.09-.21.21-.25.06-.34.22-.36.13-.13.04-.18.16-.18v-.09s.06-.06.06-.06v-.06s.1-.11.1-.11l-.11.03"/>
  <path class="cls-4" d="M31.44,40.47l-.06.1h.07s0,.36,0,.36l.05.23-.04.16.11.29-.03.27.05.33.05.06.03-.02h-.07s.02.12.02.12v-.19"/>
  <path class="cls-4" d="M29.98,18.27v.16s.06-.03.06-.03l-.03-.03.02.04.03-.03.49.04.5.11.39.04.95-.09.2.03h.17s0-.04,0-.04v.03s-.02-.03-.02-.03l.07-.02"/>
  <path class="cls-4" d="M31.23,18.51l.02.05h-.04s0,.21,0,.21l.02.22.11.7v.31s.15.85.15.85v.18s.04.55.04.55l-.02.35.05.35v.12s-.05.11-.05.11l.03.02.04.25h.02s-.02-.02-.02-.02v.03s-.04,0-.04,0l-.02.16h.05s.01-.05.01-.05v-.22"/>
  <path class="cls-4" d="M30.56,32.24l.04-.05-.05-.06-.02-.11v-.33s.07-.42.07-.42l-.03-.43-.15-1.18-.09-.39.03-.24-.1-.43-.05-.09v-.13s-.04-.07-.04-.07l.02-.1-.04-.06v-.18s-.04-.25-.04-.25l-.07-.09.02-.03.04.03.08-.17v-.07s-.04,0-.04,0l.26-.04h.49s.21.05.21.05l.18.1.24.07.18.12.1.19.02.14.06.06.02.12-.05.09v.05s-.11.14-.11.14l-.06.16-.17.23-.35.28-.28.15-.16.14.02-.02h-.02s.03,0,.03,0l.12.21.4.4.18.23.73.71.26.32.06.15.2.18.07.15.16.13v.08s.16.16.16.16l.08.2"/>
  <path class="cls-4" d="M46.17,52.26l.03-.06-.16-2.09-.02-1.14-.06-.25v-.73s-.07-.35-.07-.35v-.23s-.02,0-.02,0l.31-.02h.1s.17.08.17.08l.66.39.33.31.06.09.04.13-.07.37-.12.23-.35.33-.47.34-.2.11h-.07s-.01.04-.01.04l.44.06h.49s.22.05.22.05l.63.32.39.41.09.23-.04.3-.58.77-.18.08-.19.13-.32.08-.37.15h-.23v-.08"/>
  <path class="cls-4" d="M44.51,62.56v.03s.04-.04.04-.04h-.04s.05-.18.05-.18l.05-.63-.06-.38-.08-1.26v-.55s-.07-.23-.07-.23l-.02-.42-.04-.12v-.52s-.05-.23-.05-.23v-.12s.04-.03.04-.03v-.15s.34.47.34.47l.53.84.23.29.08.16.21.25.08.22.09.15.55.64.07.19.35.55.04.18.08.02v.05s-.03-.04-.03-.04l.22-.24.51-.88.34-.45.08-.22.28-.42.02-.1.15-.25.05-.14.35-.51.16-.32.04-.16.08-.08.08-.32.05-.06v.07s.03-.02.03-.02l-.03.07.08.77v1.76s.12.74.12.74l-.05.3.12,1.08-.04.29.02.02v-.04s.03,0,.03,0v.03s-.07,0-.07,0"/>
  <path class="cls-4" d="M45.48,67.28h-.03s0,.05,0,.05l.06-.03v-.02s0,.05,0,.05h.46s.57-.08.57-.08l.36.02,1.47-.08h-.06s.03.04.03.04l.02-.03-.04.03-.15.41-.21.38-.2.22-.17.3-.3.38-.05.11-.17.18-.18.35-.21.24v.08s-.18.2-.18.2l-.11.2-.13.13-.27.38-.06.12.02.06-.03.09-.07.04-.13.28-.07.1v-.05s.02.04.02.04l-.15.17v.03s-.02.02-.02.02h.04s-.02-.03-.02-.03h.03s-.09.01-.09.01l.06.02.36-.02.22-.08.36.09.45-.02.27.04.35-.05.28.06.32-.02.12-.04.16.02.09-.02-.04-.02v.02s-.02,0-.02,0l.02.03-.07-.05"/>
  <path class="cls-4" d="M45.23,38.43l-.02-.08.02.03.03-.02.14.2.23.54.17.55.36.82.14.42.31.56.02.23.05.03.03.11.12.18.04.21.11.21.1.27-.02.02h.06s-.05-.03-.05-.03v-.04s.16-.49.16-.49l.07-.45.1-.32.03-.52.09-.54.2-.68.05-.49.05-.19.12-.19v-.18s.07-.08.07-.08v-.12s-.03,0-.03,0l.04-.12.05-.05v.04s-.03-.1-.03-.1l.05.02-.03.02"/>
  <path class="cls-4" d="M45.32,81.3l.02.05.03-.03-.02.04-.03-.04.02-.03.28-.16.25-.52.37-.52.1-.33.25-.49.23-.32v-.1s.18-.43.18-.43l.11-.16.06-.17.13-.15.04-.15.05-.07.11-.3v-.14s.06-.12.06-.12l.14-.15.02-.15.07-.04-.03-.03.04-.06-.02-.04v.03s.06,0,.06,0h-.06s-.05.06-.05.06"/>
  <path class="cls-4" d="M45.98,76.72v-.03s-.05.01-.05.01l-.03.06h.06s-.04.02-.04.02l.08.25.26.44.05.19.08.1.1.28.82,1.33.05.23.28.44v.1s.24.36.24.36l.05.12v.05s.04.02.04.02l-.02.03.09.05.04.06.11.31.04.04v.03s-.03,0-.03,0v-.05s-.03-.01-.03-.01l.07.04v-.02s-.03.04-.03.04l-.02-.02v-.16"/>
  <path class="cls-4" d="M45.28,23.13l.03.03h-.03s.03,0,.03,0l-.02-.04.06-.33-.03-.51-.11-.51.03-.82-.09-.57.02-.25-.07-.17-.07-.67-.02-.52-.06-.25.04-.34-.05-.05v.05s.03,0,.03,0l.11.1.28.32.13.08.77,1.1.46.56.5.83.17.17.17.32.11.1.04.15.09.11.02.08.39.45.11.26.09.05.22.41.1.08v.05s.04-.37.04-.37v-.4s-.09-.8-.09-.8l-.05-.09v-.16s0-.62,0-.62l-.08-.53.06-.18-.07-.06-.06-.14.08-.47-.02-.16.05-.41-.03-.14.03-.06-.03-.08.05-.12-.05-.26.02.02.02-.21h.04s0,.05,0,.05h-.06s.04.02.04.02l-.03.04"/>
  <path class="cls-4" d="M48.09,28.2l.06-.02v-.08s-.07-.08-.07-.08l-.03-.1-.12-.08-.04-.07-.22-.1-.44-.13-.29-.05-.33.02-.3.11-.33.19-.4.3-.54.55-.14.52-.06.41.03.86.03.26.14.19.12.39.23.23.2.27.62.49.52.19.41.02h.28s.23-.08.23-.08l.44-.05.28-.07-.04-.02"/>
  <path class="cls-4" d="M60.83,52.18l-.02.1.02-.05h.03s-.05-.23-.05-.23l-.11-1.25-.03-.77-.16-.76-.04-.94-.06-.23.04-.4-.08-.28.04.03.02-.21v.05s.32.02.32.02l.6.16.92.39.52.53.02.1.13.15.05.11.06.36v.52s-.05.62-.05.62l-.06.19-.14.26-.09.09-.11.26-.11.07-.31.38-.28.15-.18.19-.52.24-.27.03v.04s.01-.03.01-.03"/>
  <path class="cls-4" d="M60.63,62.02v.05s0-.04,0-.04h.03s-.06-.23-.06-.23l.02-.21-.02-.64-.07-.64.02-.3-.05-.22.02-.23-.11-.76v-.52s-.11-.9-.11-.9l.02-.09-.04-.02v.02s0-.08,0-.08l.04-.03-.03.03.42.11.31.03h.36s.47.08.47.08h.38s.38.08.38.08h.16s.02,0,.02,0l-.02-.02h.02s-.11.07-.11.07"/>
  <path class="cls-4" d="M60.79,59.55v.05s.02-.02.02-.02v.03s.18.05.18.05l.63.03.08.04.43.04.07-.02.15.02h.05s0-.07,0-.07"/>
  <path class="cls-4" d="M60.35,66.54l.04-.13.02.02-.02.05.07.18.02.25-.04.44v1.31s-.05.28-.05.28l.05.22.02.44v.51s-.02.02-.02.02l.05.07v.32s-.08.48-.08.48l.05.03h-.02s-.03.12-.03.12l.05.12v-.07s.04.03.04.03l.27-.07h.32s.12-.04.12-.04h.18s.14-.03.14-.03h.22s.36.02.36.02l.13-.02.02.03h.39s.29.04.29.04l.08-.02.02.04-.04-.03-.04-.11"/>
  <path class="cls-4" d="M62.8,37.57l-.03-.06-.21-.11-.33-.26-.48-.09-.26.02-.47.16-.7.36-.35.35-.25.38-.4.97-.06.61.12.55.1.14.37.36.04.08.14.12.79.37.57.06.41.12.74-.08.09-.06.02.03.12-.03h-.05s.05,0,.05,0v-.03s-.04-.42-.04-.42l-.07-.27-.03-.37v-.68s-.01-.18-.01-.18l.03-.23-.03-.03v.02s-.37.07-.37.07h-.37s-.4.09-.4.09l-.09.06-.02-.02.08.08"/>
  <path class="cls-4" d="M62.21,18.79l.04-.03v-.05s-.07-.19-.07-.19l-.14-.23-.08-.08-.28-.14-.32-.02-.07.02-.49.3-.16.19-.15.32-.03.49.07.18.24.29.73.58h.09s.15.11.15.11l.66.48.09.15.14.14.11.22.15.46-.06.22-.09.11-.09.25-.08.1-.13.06-.36.04-.31.09h-.15s-.34-.07-.34-.07l-.16-.06-.31-.24-.2-.32-.09-.09v-.08s-.12-.07-.12-.07v.03"/>
  <path class="cls-4" d="M60.05,29.76v-.08s.03-.02.03-.02v.05s.15.02.15.02l.6-.11h.41s.96-.09.96-.09l.31.06h.26s.06-.03.06-.03h-.06"/>
  <path class="cls-4" d="M60.07,27.13l-.05-.04.06.02-.13.54-.02.68.07,1.11.07.36-.04.23v.48s.1.54.1.54l-.04.35.03.15h.03s-.04.09-.04.09v.16s-.05.03-.05.03l-.02-.02.02-.03v-.28"/>
  <path class="cls-4" d="M62.66,27.14l.13.08.1.28.13,1.74v1.15s-.04.35-.04.35v.13s-.04.3-.04.3l.03.31-.06.3.05.07-.02.11.05-.03h-.04s-.03.03-.03.03h.03s-.01-.03-.01-.03"/>
  <path class="cls-4" d="M60.29,76.5l-.04-.05h-.03s.02.04.02.04h-.04s.06,0,.06,0l-.08.35-.02.87v.08s.12.36.12.36l.1.68-.06.38v.38s-.04.37-.04.37l.04.19.04.02-.05.08.02.14-.11.39v.19s.06.1.06.1l-.05.18h-.04s.06.14.06.14v-.11s.03-.15.03-.15"/>
  <path class="cls-4" d="M60.32,78.85l.02.02v-.03s.07-.02.07-.02l.05-.1.41-.29.32-.32.15-.25.12-.09.04-.11.15-.19.66-.57.26-.38.26-.26.03-.05-.06.02v.08"/>
  <path class="cls-4" d="M60.59,78.67l.04-.14-.02.09.13.1.31.39.25.26.19.1.25.21.31.34.47.43.43.55.32.25.02.06-.05-.02h.04s.12.11.12.11l.03-.03"/>
  <path class="cls-2" d="M58.66,3.48l.65-.08,2.08-.11,1.4.12h.22s-.04,0-.04,0v-.04s-.03.04-.03.04"/>
  <path class="cls-2" d="M45.28,1.05l.02-.09.16.28,1.49,1.65.25.38.75.64.21.34.42.41-.04.03.07-.02-.04-.03.04-.11"/>
  <path class="cls-1" d="M45.82,9.04l-.04-.02h.04s.09-.41.09-.41l.04-.69.07-.35.09-.98h-.03s.04-.02.04-.02l.21.14.15.23.44,1.22.37.68.12.27-.07-.09"/>
  <path class="cls-1" d="M46.06,8.24l-.02.02.42.03.46-.11"/>
  <path class="cls-1" d="M48.17,8.96l-.03-.02.02-.02-.11-.65v-.47s-.14-.98-.14-.98l.13.04.11.09.26.31.38.6.12.12.19.33.29.39.17.13.14.06-.03-.02.03-.16-.03-.38-.21-.79-.05-.49-.05-.2.03-.09-.04-.12.04-.03"/>
  <path class="cls-1" d="M50.36,6.76l-.07-.03,1.11-.1.7-.04h.04s-.04.04-.04.04"/>
  <path class="cls-1" d="M51.24,6.73v.1s.21,1.51.21,1.51v.38s.02-.2.02-.2"/>
  <path class="cls-2" d="M29.67,4.75l-.04.12h.09s-.05-.01-.05-.01l.25-.33.27-.24.02-.13.23-.26,1.46-1.49.21-.14.48-.63.24-.23.13-.22.12-.08v-.05s.06-.07.06-.07v.08"/>
  <path class="cls-1" d="M35.49,6.8l-.03-.05.02.03h.1s.91-.13.91-.13l.71.06"/>
  <path class="cls-1" d="M36.23,6.68l.05.04-.04.29.04.35-.03.25.03.22v.81s.05.2.05.2"/>
  <path class="cls-1" d="M28.24,6.8v-.03s.03,0,.03,0l.05.79.02,1.64v.05s-.03,0-.03,0h.55s.7-.09.7-.09v.05"/>
  <path class="cls-1" d="M30.34,9.22l.06.02.04-.42.16-.87.2-.74v-.38s.07-.15.07-.15l-.02.02.14.11.12.2.39.91.19.35.12.38.28.64"/>
  <path class="cls-1" d="M30.5,8.24v-.05s.23-.06.23-.06l.69-.06"/>
  <path class="cls-1" d="M32.98,9.23l.07-.02v-.16s-.17-1.74-.17-1.74l-.05-.17-.03-.35.03-.02-.02.03.2.22.32.57.48.73.12.27.32.38.17.27.15.16h-.04s.05-.03.05-.03l.03-.14v-.66s-.21-.8-.21-.8l-.04-.28v-.56"/>
  <path class="cls-1" d="M61.41,10.51h-.02s.02,0,.02,0l-.02-.05.09-.54.3-.93.08-.44.09-.33.05-.08-.03-.03.04-.02.08.25.08.07.22.4.38,1.07.2.32-.02.04h.05s-.05,0-.05,0"/>
  <path class="cls-1" d="M61.63,9.78v-.06s.07.02.07.02l.06-.04.35-.08h.32"/>
  <path class="cls-1" d="M63.63,8.32h.28s.25-.1.25-.1l.46-.1h.7s.22-.03.22-.03"/>
  <path class="cls-1" d="M64.67,8.15l-.18.11v.42s.14.97.14.97l-.02.77.03.21"/>
  <path class="cls-1" d="M43.62,6.66l.04.25.06,1.04.08.31v.34s.1.25.1.25h-.03s.19.04.19.04h.48s.28-.08.28-.08"/>
  <path class="cls-1" d="M42.41,6.8l.06-.03-.03-.1-.14-.09-.21-.03-.16.05-.22.2-.1.14-.05.16v.16s.09.23.09.23l.13.18.16.15.59.32.11.09.07.11.08.24-.02.21-.14.17-.17.05-.7.04-.46-.04"/>
  <path class="cls-1" d="M27.05,7.01l.02-.16-.12-.11-.32-.05-.23.05-.22.1-.19.15-.15.22-.03.21.08.26.25.35.22.16.34.16.33.2.32.32.07.15-.12.17-.13.1-.22.11-.35.08-.47-.05-.24-.12-.11-.15"/>
  <path class="cls-1" d="M56.97,10.59l-.04.09.03-.04v-.24s-.05-.34-.05-.34l-.03-.47.02-.45-.04-.45-.08-.33,1.14-.1.21.02.07.08"/>
  <path class="cls-1" d="M57.1,9.65l-.02.03h.05s.64-.16.64-.16h.34s.05-.02.05-.02"/>
  <path class="cls-1" d="M59.18,8.4l.04-.05-.03.03v.28s.07.45.07.45v.76s.06.39.06.39l.06.03h-.06s.04,0,.04,0h-.04s.02.26.02.26l-.05.08v.1s.05.05.05.05l-.02-.04-.03.02.86-.16.29.03"/>
  <path class="cls-1" d="M44.97,10.76v-.04s.03.02.03.02l-.14.06-.1.13-.06.15-.03.42.06.41.07.18.19.26.17.12.35.1.23-.06.26-.22.07-.1.07-.17.03-.21v-.37s-.06-.2-.06-.2l-.04-.09-.13-.13-.38-.22-.47-.1-.04.02.04.03"/>
  <path class="cls-1" d="M46.93,10.52h-.03s.11.49.11.49l.18.55v.11s.07.12.07.12l.08.37.07.21.15.27.15-.47.31-1.72.22.64.1.53.12.42.18.33.09.07.07-.05.05-.12.11-.39.09-.81-.02-.1.13-.49.04-.04-.06.06-.05.27"/>
  <path class="cls-1" d="M50.14,12.3v.12s.04-.23.04-.23v-.17s-.05-.18-.05-.18l-.05-.58-.09-.55v-.27s-.02,0-.02,0l.35.28.48.5.44.53.18.14.33.36-.03-.03.06-.14.05-.33v-.38s-.11-.59-.11-.59l-.07-.18-.03-.29.04.04h-.06"/>
  <path class="cls-1" d="M32.48,12.68v.04s.03-.04.03-.04l-.08-.48.02-.19-.05-.38v-.71s.02-.08.02-.08l.21-.16h.5s.14.07.14.07l.28.25-.06.32-.14.18-.2.09-.8.08v.06"/>
  <path class="cls-1" d="M41.96,12.7l.04.05v-.03s-.03-.03-.03-.03l.04-.04v-1.45s-.04-.34-.04-.34l-.06-.21.15-.03.27.03.51.16.46.27.21.18.13.19.07.13.04.27-.06.22-.13.2-.32.29-.24.15-.33.1-.5.04-.06.02v.05"/>
  <path class="cls-1" d="M29.5,10.76l-.03-.05h.04s.02.07.02.07l-.06.46v.59s.05.3.05.3l.13.44.17.28.17.15.13.03.42.03.31-.05.18-.08.2-.16.08-.19.1-.7v-.31s-.05-.38-.05-.38l-.19-.52.03-.04.03.14"/>
</svg>