<?xml version="1.0" encoding="UTF-8"?>
<svg id="vector" xmlns="http://www.w3.org/2000/svg" viewBox="0 0 43.42 19.51">
  <defs>
    <style>
      .cls-1, .cls-2 {
        stroke: #000;
      }

      .cls-1, .cls-2, .cls-3, .cls-4 {
        fill: none;
        stroke-linecap: round;
        stroke-linejoin: round;
      }

      .cls-1, .cls-3 {
        stroke-width: .4px;
      }

      .cls-2, .cls-4 {
        stroke-width: .6px;
      }

      .cls-3, .cls-4 {
        stroke: #7fa0af;
      }
    </style>
  </defs>
  <path class="cls-4" d="M4.07,8.11v-.11s-.04-.07-.04-.07l-.27-.15-.42-.06-.48.03-.65.21-.25.14-.24.19-.28.32-.21.32-.08.6.16.45.08.08.25.09.46-.02.14-.04.49-.25.24-.17.29-.28.34-.4.37-.29.27-.3.26-.46.57-.73.11-.25.49-.73.87-1.17.21-.38.15-.2.09-.24.12-.15.02-.13h.04s.06-.09.06-.09l-.03.02h.04s0,.14,0,.14l.03.14-.05,2.91v.67s-.03.37-.03.37l-.03.87.03.46.04.27.05.12-.05-.02-.02-.21"/>
  <path class="cls-4" d="M4,11.38l.13-.26-.16-.05-.13.1-.06.14v.05s.08.06.08.06l.12-.03"/>
  <path class="cls-4" d="M37.87,8.82v-.03s.03.04.03.04h.02s.07-.16.07-.16l-.04-.16-.1-.08h-.12l-.05.03-.06.14v.16s.05.1.05.1l.14.08h.13s.15-.12.15-.12v-.06s-.18-.11-.18-.11"/>
  <path class="cls-4" d="M23.71,10.49l.06-.08-.02-.03-.13-.05-.14.03-.04.23.03.11.05.07.1.05h.14s.07-.12.07-.12l-.02-.22-.1-.15-.1-.04.03.07"/>
  <path class="cls-4" d="M24.44,7.15l-.06.03.07-.03.22.25.28.24.31.24.28.15.85.74.69.45,1.51,1.15.27.18.26.09h-.06l.06-.05-.03-.05.06-.29v-.18s-.12-.58-.12-.58v-.79s.04-.15.04-.15l-.08-.41-.08-1.04.13-1.35-.19-.66v-.51s-.02-.1-.02-.1h-.07s.07-.02.07-.02h-.04s.1.03.1.03v.04s.15.2.15.2l.32.3.12.2.33.35.13.26.17.24.46.46.04.07.36.3.26.29.68.49.68.27.54.05h.53l.38-.04.24-.06.26-.12.13-.1.11-.14.14-.46-.02-.46-.34-.78-.1-.16-.2-.17-.2-.09-.2-.05h-.31s-.23.05-.23.05l-.11.14v.11s-.06.39-.06.39v.39s.21.82.21.82l.1.28.13.24.78,1.04.71.79.5.47.54.43.49.3.57.26.48.27.41.1-.09-.03-.06-.08"/>
  <path class="cls-2" d="M4.63,1.62l-.04-.09.08.03.44.37.53.52.38.25.25.23,1.81,1.46.42.42.48.35.57.63.62.52.29.2.13.19.04-.03-.04-.02-.06-.13"/>
  <path class="cls-2" d="M32.42,10.39l.03-.02h-.02.02s-.03-.06-.03-.06l-.54-.35-.14-.05-.13-.11-.8-.46-.29-.22-.13-.05-.91-.74-.41-.24-.49-.42-.29-.19-.73-.65-.09-.12-.53-.53-.63-.72-.18-.27-.26-.52-.05-.2-.17-.38-.03-.17-.09-.13-.15-.31-.05-.2v-.15s-.06-.24-.06-.24l-.03-.58.02-.42.1-.26-.02-.04.06-.07v-.07s.09-.08.09-.08v-.04s.09-.24.09-.24l.28-.38.19-.1.48-.1.34-.03.38.08.22.1.28.33.12.24v.39s.04.25.04.25l-.03.05v.31s.02.14.02.14v.56s0,.09,0,.09l-.08-.03v-.15"/>
  <path class="cls-2" d="M32.4,11.76l-.03.04h.05v-.03s.06-.07.06-.07h-.08s-.05-.05-.05-.05l-.04.04.11.21.08.06h.07s.03-.23.03-.23l-.05-.09-.09-.04-.08.02v.14s.03.03.03.03"/>
  <path class="cls-1" d="M28.72,16.18l.08-.03-.15.02-.12.05-.23.18-.11.11-.09.25-.02.21.03.5.09.34.1.16.15.16.23.12.28.03.28-.02.13-.04.18-.11.18-.32.07-.22.05-.29-.03-.31-.2-.41-.13-.17-.33-.26-.2-.12-.15-.04h-.04v.03"/>
  <path class="cls-1" d="M30.41,16l-.02.02h.04s.53.82.53.82l.04.13.22.34.1.13.06.02v-.06s.11-.13.11-.13l.13-.36.12-.18.11-.31.13-.7-.04-.1.02-.1.04-.03"/>
  <path class="cls-1" d="M31.38,17.2l-.09.04h.05s.02.06.02.06v.47s.11.6.11.6h.04l.03-.15"/>
  <path class="cls-1" d="M32.51,18.31h.05s.04-.03.04-.03l.07-.38.23-.58.24-1,.03-.23.09-.26v.07s.11.11.11.11l.23.43.44,1.27.27.42.12.27.04.02-.03-.06"/>
  <path class="cls-1" d="M32.89,17.52l.19.03h.32s.23-.06.23-.06l.4-.14"/>
  <path class="cls-3" d="M35.43,18.45l.03.03.04-.03v-.28s.05-.2.05-.2l-.19-.92-.06-.7-.08-.41h.08s-.07,0-.07,0l.02.05.22.17.07.13.41.45.54.75.41.41.25.4.11.08v-1.94s-.04-.38-.04-.38l-.03.02.04-.07"/>
  <path class="cls-3" d="M39.24,16.01l-.03-.11h-.06s-.14,0-.14,0l-.23.1-.32.2-.32.35-.07.21-.03.32.04.52.16.32.2.2.29.16.3.07.81-.03"/>
  <path class="cls-3" d="M40.86,18.29l.03-.04-.08-.45-.2-.76-.07-.39-.07-.17-.07-.48.43-.08h.64s.45-.06.45-.06l.03.02"/>
  <path class="cls-3" d="M40.75,17.28l-.09.19.06-.04h.33s.72-.16.72-.16h.35s.14.1.14.1v.03"/>
  <path class="cls-3" d="M40.94,18.45l-.11.1.71-.18.74-.11.27.04.22.1"/>
  <path class="cls-3" d="M19.4,18.58l.07-.02.19-.81.11-.57v-.18s.12-.24.12-.24l.12-.46.08-.18-.03.03.2.21.1.19.25.72.11.47.33.7.15.26.08.09h.05l-.07-.07"/>
  <path class="cls-3" d="M19.55,17.7l.41.05h.5"/>
  <path class="cls-3" d="M22.35,18.74l.04-.03-.1-.43-.17-1.49-.08-.45-.05-.09.18.12.36.34,1.09,1.68.33.29.03-.04v-.15s-.03-.79-.03-.79l-.07-.67-.07-.46-.12-.3v-.08s-.04-.14-.04-.14l.03-.08h.03s-.03-.03-.03-.03l-.02.03.1.11"/>
  <path class="cls-3" d="M24.93,18.46v.1s.06-.06.06-.06v-.45s-.07-.57-.07-.57l-.15-.76v-.51s0,.03,0,.03l.18.1.3.25.17.2.67.94.24.29.04.1.44.34h.02s-.04-.05-.04-.05l.11-.69.08-1.3v-.32s-.13-.1-.13-.1h.03l-.04.08"/>
  <path class="cls-3" d="M.71,18.86v.08s.05-.05.05-.05l-.07-.25-.08-.9-.08-.56v-.49s.09-.2.09-.2l.11-.1.19-.06h.3s.63.27.63.27l.13.1.12.22v.21s-.1.14-.1.14l-.4.23-.25.04-.16.07.05.02.05.25.16.2.14.09.54.52.29.2.22.05"/>
  <path class="cls-3" d="M3.37,18.7l-.02.09.05-.04.11-.71.2-.73.08-.63.1-.47-.02.02.15.12.22.39.23.61.09.35.26.53.19.23h-.08"/>
  <path class="cls-3" d="M3.42,18.12l.14.03.62-.07.22-.04.15-.08"/>
  <path class="cls-3" d="M5.53,16.51l-.08-.04.39.05,1.13-.08.36-.09"/>
  <path class="cls-3" d="M6.37,16.6l-.05.11-.1.1h.03l.04.1.07.97.07.21v.53s.05.18.05.18l-.04.18"/>
  <path class="cls-1" d="M8.29,16.44l-.02.02-.02-.02h.06l-.03.05.07.91-.02.36.04.37.07.25-.04.03h.04l-.03.12"/>
  <path class="cls-1" d="M9.78,16.33l-.02-.02h.03s-.22.13-.22.13l-.16.26-.1.47-.03.35.2.59.24.36.27.16.22.05h.26s.18-.08.18-.08l.25-.17.17-.2.21-.42.04-.26-.19-.62-.14-.2-.22-.22-.29-.18-.26-.08-.58-.04"/>
</svg>