<?xml version="1.0" encoding="UTF-8"?>
<svg id="vector" xmlns="http://www.w3.org/2000/svg" viewBox="0 0 100.37 82.48">
  <defs>
    <style>
      .cls-1, .cls-2, .cls-3 {
        stroke: #60889a;
      }

      .cls-1, .cls-2, .cls-3, .cls-4, .cls-5, .cls-6 {
        fill: none;
        stroke-linecap: round;
        stroke-linejoin: round;
      }

      .cls-1, .cls-5 {
        stroke-width: .4px;
      }

      .cls-2 {
        stroke-width: .95px;
      }

      .cls-3 {
        stroke-width: .38px;
      }

      .cls-4 {
        stroke: #000;
      }

      .cls-4, .cls-6 {
        stroke-width: .6px;
      }

      .cls-5, .cls-6 {
        stroke: #7fa0af;
      }
    </style>
  </defs>
  <path class="cls-3" d="M19.29,21.95h.03l-.02-.45-.1-.78-.02-.41-.04-.08.03-.25h-.03s1.03.13,1.03.13l.08.05"/>
  <path class="cls-3" d="M19.44,20.94l-.03.06h.48s.29-.04.29-.04l.1.03"/>
  <path class="cls-3" d="M19.45,21.94l-.04.06.03-.04.99-.07.3.04"/>
  <path class="cls-3" d="M9.29,22.46l.09-.1.05-.29.06-.11.06-.28.14-.38.13-.67.2-.65v.02s.21.28.21.28l.29.59.45.98.12.35.11.21.08.11.05.02h-.08"/>
  <path class="cls-3" d="M9.71,21.63v-.02s.04,0,.04,0l.38.04.47-.08"/>
  <path class="cls-3" d="M17.1,19.96l.04-.04v.07s.02.68.02.68l-.05.98.06.11-.08.16.04.03-.02.06-.02-.03.21.03.25-.03.78-.02"/>
  <path class="cls-3" d="M15.92,19.98v-.02s-.14,0-.14,0l-.26.04-.3.11-.31.25-.21.28-.05.34.03.45.12.32.14.19.23.11.2.04.71.02-.03-.5.03-.22-.05-.15-.1-.06h-.23s-.33.1-.33.1h.13"/>
  <path class="cls-3" d="M12.36,22.29l.02-.15-.08-.95-.15-.94.64.81.46.66.26.26.25.13-.04-.03.05-.51-.07-.52-.02-.58-.04-.39-.1-.05.04-.06"/>
  <path class="cls-3" d="M17.75,29.38l-.03-.1h-.08l-.24.18-.18.26-.09.31.02.34.09.33.14.26.16.18.13.06.27.03.14-.02.19-.08.41-.38.09-.13.06-.16-.04-.14v-.16s-.04-.3-.04-.3l-.22-.29-.24-.17-.25-.09-.26.03.07.09"/>
  <path class="cls-3" d="M19.75,30.94v-.05s0,.03,0,.03l.04-.02-.08-.16-.06-.29-.1-.78-.07-.27v-.17s.23-.05.23-.05l.65.05.26.13.07.06.04.27-.17.22-.2.13-.22.05-.29-.02-.02.02"/>
  <path class="cls-3" d="M15.5,29.43l.08-.05-.07-.04h-.08s-.14.04-.14.04l-.16.13-.11.18-.05.21-.02.32.13.57.07.13.07.04.1.04.19.03.25-.06.38-.19.13-.12.04-.09.06-.34-.02-.18-.12-.29-.17-.23-.22-.13-.18-.05"/>
  <path class="cls-3" d="M12.86,29.25l.05,1.03-.02.78-.03.1.53-.02h.63s.08.03.08.03"/>
  <path class="cls-3" d="M14.7,39.22v.05s1.02.02,1.02.02l.07.03-.04.2-.08.17-.48.69-.08.17-.09.23-.07.43-.07.04.2.02.57-.04.92.03"/>
  <path class="cls-3" d="M17.31,41.16l-.07.07.05-.03.07-.18.13-.47v-.15s.06-.21.06-.21l.39-1.17.24.35.55,1.39.2.42"/>
  <path class="cls-3" d="M17.72,40.76l.04.02.73-.11"/>
  <path class="cls-3" d="M20.58,39.32l.12-.13-.02.03h.02s-.04-.05-.04-.05l-.11-.05h-.19s-.26.11-.26.11l-.36.29-.18.29-.05.18-.02.34.08.3.08.15.22.24.35.18.27.02.31-.1.06-.07.08-.19-.04-.16.07-.3-.09-.23-.1-.04-.15-.02-.19.05-.08.06"/>
  <path class="cls-3" d="M8.66,39.22l1.41-.09.14.04-.1.2-.26.34-.32.32-.37.44-.39.75v-.05s0,.03,0,.03h.05s.27.02.27.02l.66-.03.58-.07.26.07"/>
  <path class="cls-3" d="M11.29,39.13l-.02-.03h.03s-.05.54-.05.54l.02.52.1.45.04.44-.03-.03.02-.09"/>
  <path class="cls-3" d="M13.85,39.18l-.08-.05-.57-.03-.29.05-.27.12-.25.2-.12.33-.07.1-.03.3.05.2.16.24.32.36.24.19.26.09h.38l.28-.04.1-.09v-.38s-.03-.34-.03-.34l-.05-.15-.09-.08-.15-.04-.46.05"/>
  <path class="cls-3" d="M17.62,48.89l-.05.28.07.49v.8s.06.33.06.33l.05.04.04-.1"/>
  <path class="cls-3" d="M17.7,49.88l.32.03.25-.03.19-.06.25-.19"/>
  <path class="cls-3" d="M18.71,48.94l.07.02.12.34.08,1.06.04.18.11.41.04.04.06-.05"/>
  <path class="cls-3" d="M19.73,49.17l.45.02.7-.1h.22"/>
  <path class="cls-3" d="M20.57,49.24l-.04.13.07.34.07,1.08"/>
  <path class="cls-3" d="M12.67,50.65l-.06-.59.05-.75.09-.3.08-.13.09-.05h.21s.19.08.19.08l.12.11.09.41-.06.22-.08.11-.29.13.02.22.1.16.2.2.34.22"/>
  <path class="cls-3" d="M16.58,49.02l.03-.02-.13-.05h-.22s-.4.12-.4.12l-.28.23-.13.23v.29s.15.33.15.33l.28.31.35.15.44.11.07-.36-.03-.16.03-.29-.05-.1h.03s-.27-.02-.27-.02l-.16.04"/>
  <path class="cls-3" d="M14.58,48.94h.02s.01.03.01.03l-.04.36.04.37-.03.64.05.34-.02.04h.02s.02,0,.02,0v-.09"/>
  <path class="cls-3" d="M3.81,49.1v-.05s.04.02.04.02h-.02l-.05.19-.03.36.16.89.13.29.08.1.1.08.14.03h.19s.16-.1.16-.1l.13-.12.13-.24.07-.68v-.4s-.07-.27-.07-.27l.02-.03v.03"/>
  <path class="cls-3" d="M5.8,50.8l-.03.09h-.03s.04-.05.04-.05l.15-.48.19-.69.04-.33.08-.1h-.02s.12.17.12.17l.42,1.02.13.2.05.02.09-.15.15-.4.27-1.02.23.36.1.27.1.44.21.56.09.12.04-.04"/>
  <path class="cls-3" d="M9.25,50.92h-.05s-.03-.02-.03-.02l-.15-.88-.02-.4.02-.39-.04-.13.02-.12.08-.04h.21s.32.11.32.11l.31.24.09.18-.04.19-.16.17-.18.04h-.63"/>
  <path class="cls-3" d="M2.64,49.04v-.02s.03.02.03.02l.06.2.06.37.05,1.12-.02.25-.09.23-.07.1-.13.06-.25.04h-.26s-.06-.09-.06-.09l.03-.06"/>
  <path class="cls-3" d="M20.01,78.06l.41.06.3-.02.4-.08h.08s.02.04.02.04"/>
  <path class="cls-3" d="M20.68,78.16l-.02-.02-.05.51.03,1.19"/>
  <path class="cls-3" d="M14.04,78.3h-.03s.04.04.04.04l.04.28v.61s.1.47.1.47l-.02.19.76.06.31-.05.13.04"/>
  <path class="cls-3" d="M16.15,79.72l-.04-.05-.08-.39v-.46s-.08-.66-.08-.66l-.05-.12.55.08h.23l.33-.05h.04v.02"/>
  <path class="cls-3" d="M16.11,78.98l.03.06h.93"/>
  <path class="cls-3" d="M16.19,79.72l-.05.03.02.02h.17s1,.04,1,.04"/>
  <path class="cls-3" d="M18.23,79.68h.05s-.03,0-.03,0l.02-.17-.08-.67-.06-.36-.1-.25-.04-.2h.02s.28-.02.28-.02l.63.03.26-.06"/>
  <path class="cls-3" d="M18.41,79.08l-.03.09v-.02s.95-.1.95-.1"/>
  <path class="cls-3" d="M6.94,79.89l-.03.03h.03l.15-.42.19-1.22.07-.12.1.09.11.21.38.92.24.34.12.09.11-.2.14-.49.18-.75.04-.08v.02s-.02,0-.02,0v-.03s.15.05.15.05l.08.12.05.17.17.88.1.21.11.13.05.15"/>
  <path class="cls-3" d="M5.09,78.32l-.05.37.09.63.08.36.12.24.1.1.1.05.12-.04.22-.25.16-.33.04-.49-.05-.58-.03-.12h-.02s.05.11.05.11"/>
  <path class="cls-3" d="M10.43,80.14l-.04.05-.03-.37v-.87s-.06-.73-.06-.73l-.05-.19h.3l.5.17.21.13.12.17.05.14-.05.2-.06.09-.18.13-.16.05-.55.07-.11.06v.06"/>
  <path class="cls-3" d="M3.9,78.3l-.05-.09.12.32.09.44.03.37-.02.56-.06.23-.14.16-.31.14-.37.02-.05-.05v-.06"/>
  <path class="cls-6" d="M29.85,38.05v.02s.05-.02.05-.02l-.05.02.37.6.12.25.1.11v.06s.24.53.24.53l.15.25.21.18.14.3.09.11.02.1.07.03-.03-.02.02.04h-.06s.02-.03.02-.03l.08.1-.03-.03v.04s-.03-.05-.03-.05l.14-.08.12-.13.1-.26.12-.16v-.07s.11-.13.11-.13l.09-.21.21-.25.06-.34.22-.36.13-.13.04-.18.16-.17v-.09s.06-.06.06-.06v-.06s.1-.11.1-.11l-.11.02"/>
  <path class="cls-6" d="M31.49,40.42l-.06.1h.07v.36s.04.23.04.23l-.04.16.11.3-.03.27.05.33.05.06.03-.02h-.07s.02.12.02.12v-.19"/>
  <path class="cls-4" d="M39.14,42.21l.09-.02-.21-.03h-.36s-2.06.24-2.06.24h.06l.51-.66.54-.56.53-.66.8-.84,1.13-1.47.4-.48.11-.1.07-.09h-.05s.02-.02.02-.02l.02.02h-.03"/>
  <path class="cls-6" d="M52.29,51.99l.03-.06-.16-2.09-.02-1.15-.06-.25v-.73s-.07-.34-.07-.34v-.23s-.02,0-.02,0l.31-.02h.1s.17.08.17.08l.66.39.33.31.06.09.04.13-.07.36-.12.23-.35.33-.47.34-.2.11-.07-.02v.06s.43.05.43.05h.49s.22.05.22.05l.63.32.39.41.09.24-.04.3-.58.76-.18.08-.19.14-.32.07-.37.15h-.23v-.08"/>
  <path class="cls-6" d="M73.12,52.11l-.02.1.02-.05h.03l-.05-.23-.11-1.25-.03-.77-.16-.76-.04-.94-.06-.22.04-.41-.08-.28.04.03.02-.21v.05s.32.03.32.03l.6.15.92.39.52.53.02.1.13.15.05.11.06.36v.52s-.05.62-.05.62l-.06.19-.14.26-.09.09-.11.25-.11.07-.31.38-.28.15-.18.19-.52.24-.27.03v.04s.01-.02.01-.02"/>
  <path class="cls-4" d="M59.26,49.42h.04s-.03,0-.03,0l.03-.03.04-.18v-.16s.04-.12.04-.12l-.03-.16.07-.3.07-.11.08-.25.29-.29.18-.08.31-.07h.45s.23.01.23.01l.62.14.29.11.27.13.22.23.5.42.27.31.32.45.38.43.86,1.39.18.36.18.18v.06s-.02,0-.02,0l-.03-.1"/>
  <path class="cls-4" d="M79.07,48.53v.02s.02,0,.02,0h-.04.05v.07s-.07.45-.07.45l.02.34.16.46.32.42.29.2.42.18.85.21.68.05,2.06-.09,1.01-.11h-.06v-.03"/>
  <path class="cls-6" d="M93.42,52.43v-.02s.02,0,.02,0h-.04.05v-.07s-.07-.45-.07-.45l.02-.34.16-.46.32-.42.29-.2.42-.18.85-.21.68-.05,2.06.09,1.01.11h-.06v.03"/>
  <path class="cls-3" d="M18.13,59.08l-.05-.05.03.03-.08.34v.24s.19.59.19.59l.15.28.27.35.09.07.13.04h.13s.07-.06.07-.06l.17-.26.07-.21.09-.56.04-.56-.02-.41-.03-.06h-.06.04s.09.21.09.21"/>
  <path class="cls-3" d="M20.43,60.65v.1s.04-.04.04-.04l-.03-.02v-.15s-.18-.58-.18-.58l-.11-.51v-.1s.18-.37.18-.37l.12-.12.12-.07.11-.03h.16l.13.03.21.11.14.16.05.13-.03.27-.07.08-.09.05-.23.07h-.51"/>
  <path class="cls-3" d="M11.35,61.03l.04-.02.06-.41.14-1.02v-.42s.05-.16.05-.16l.16.14.08.14.1.25.16.67.29.49.24-.61.28-1.06.12.18.09.27.11.79.07.27.11.2.1.1"/>
  <path class="cls-3" d="M14.44,60.86h.04l.04-.67-.05-.34-.14-.58-.08-.17v-.11s.1-.06.1-.06h.24s.41.09.41.09l.23.1.18.12.07.12v.08s-.01.14-.01.14l-.09.14-.23.16-.3.11-.42.06"/>
  <path class="cls-3" d="M9.04,59.05v.04h.05v.03s-.05.42-.05.42l.02.5.22.7.11.22.19.2.19.05.19-.06.11-.07.19-.22.05-.06.21-.48.05-.25v-.25s0-.09,0-.09l-.07-.41v-.21s-.03-.1-.03-.1h-.04s.02-.02.02-.02l.02.18"/>
  <path class="cls-3" d="M7.95,59.13l.02-.02.04.02h-.02s.14.81.14.81l.06,1.16-.09.26-.09.08-.08.03-.19-.03-.26-.15v-.05"/>
  <path class="cls-6" d="M30.77,52.77h.05s-.01-.05-.01-.05l.04-.21v-.34s-.02-.26-.02-.26l.03-.65-.03-.19v-.3s-.04-.26-.04-.26l.02-.3-.04-.38.02-.18-.15-1.09-.05-.49.02-.19-.09-.17.02-.17h.03-.03.52s.71.16.71.16l.24.02.22.07.21.12.24.23.07.16.1.14.13.41v.24s-.08.17-.08.17l-.05.32-.08.3-.16.2-.28.22-.1.04-.11.12-.23.13-.4.16-.58.12-.08.06.08.07"/>
  <path class="cls-6" d="M31.15,61.84l-.02.06.04-.03-.11.02-.53-.13-.34-.19-.55-.63-.04-.15-.06-.08-.05-.45-.08-.34-.02-.62.16-.55.06-.41.1-.13.36-.31.1-.15.27-.16.14-.04.14-.13.58-.27.45-.05.62.22.25.16.1.02.16.14.38.23.21.26.09.19.2.79.06.15-.04.12v.2s-.04.11-.04.11v.16s-.03.1-.03.1l-.08.48-.11.23-.21.3-.39.25-.1.13-.07.05-.73.33-.96.1-.13-.04h.03"/>
  <path class="cls-6" d="M32.22,60.34h-.15s.08.02.08.02l.16.44.28.44.39.45.58.6.18.15-.02-.09"/>
  <path class="cls-3" d="M7.94,70.75l-.08-1.05-.06-.34-.02-.61.24-.03.45.2.3.25.09.21-.02.11-.1.16-.24.17-.32.04h-.4"/>
  <path class="cls-3" d="M2.43,68.83v.16s-.04.13-.04.13v.23s.1.56.1.56l.16.38.03.14.12.23.1.1.2.11.17.02.4-.17.13-.28.07-.4.05-.72-.04-.41-.06-.14v-.1s.03,0,.03,0v.04"/>
  <path class="cls-3" d="M4.6,70.67v.02s.02-.02.02-.02l.22-.5.23-1.33v.03s.1.08.1.08l.05.1.12.32.11.46.28.65.15.27.1.09.1-.15.23-.71.17-.62.02-.24h-.03s.07.11.07.11l.08.21.3,1,.08.37.04.06"/>
  <path class="cls-3" d="M19.71,70.74l-.07.04h.06s.02-.07.02-.07v-.8s-.06-.57-.06-.57l.07-.55h.02s-.05,0-.05,0l.43.51.2.35.36.52.26.34.19.17h-.02s.05-.24.05-.24l.05-.63v-.47s.01-.35.01-.35l-.04-.17v-.06s.05,0,.05,0h-.07"/>
  <path class="cls-3" d="M14.7,69.09v-.02s-.05-.02-.05-.02h.04s-.11.11-.11.11l-.11.16-.13.3-.03.21v.43s.05.14.05.14l.13.18.27.25.07.03h.16s.1-.06.1-.06l.2-.21.19-.31.06-.26v-.24s-.07-.2-.07-.2l-.07-.12-.29-.28-.21-.13h-.16l.1.18"/>
  <path class="cls-3" d="M16.2,69.14l-.02-.02h.04s-.03.01-.03.01l.16.26.3,1.1.15.31h-.03s.06-.09.06-.09l.16-.49.13-.28.19-.58.05-.08v.03s.04-.02.04-.02l.11.03.06.09.3,1,.19.32.1.1h-.02s.11-.26.11-.26l.18-.55.15-.61.14-.37.04-.13-.06.06.02.08"/>
  <path class="cls-3" d="M11.99,70.79v.05s-.03-.1-.03-.1l-.08-1.19-.17-.58.37-.04.22.03.29.08.47.29.28.29.11.3v.11s-.12.18-.12.18l-.27.19-.37.19-.33.23-.09.04-.02-.02h.05s-.02-.02-.02-.02l.02-.03"/>
  <path class="cls-3" d="M1.44,68.91h.03s.03.07.03.07l.04.3v.8s-.02.37-.02.37l-.06.27-.12.15-.29.11-.45.07-.05-.03.03-.06"/>
  <path class="cls-6" d="M28.99,67.17l-.02.03v-.04s.03,0,.03,0v.09s.21.47.21.47l.08.27.07.12.17.82.46,1.47v.21s.22.55.22.55l.1.33-.03-.02.02.02h-.03s.09.17.09.17v-.08h-.04.03l.04-.07.04-.18.1-.15.07-.22.08-.33.02-.3.14-.41v-.12s.1-.24.1-.24l.07-.43.07-.08.05-.28.12-.23.13-.39-.03.02h.02s.12.17.12.17l.09.24.1.09.04.23.1.26.39.71.23.57.14.2.04.13.33.63.03.15h.03s-.04-.02-.04-.02h.03s.04-.19.04-.19l.06-.14.04-.46.15-.36.14-.46-.03-.11.03-.19.22-.72.06-.51.13-.4.04-.03-.04-.12.18-.47-.03.02h.03s-.04.01-.04.01l.1-.29-.05.04h.03s-.09.09-.09.09"/>
  <path class="cls-6" d="M32.12,76.33l.02.07-.02.52.09.6v.85s.04.31.04.31v.85s-.09.52-.09.52v.2s-.11.39-.11.39l-.14.21-.11.28-.21.19-.03.06-.19.03-.29.11-.27-.11v-.05s-.35-.27-.35-.27l-.11-.14-.15-.34-.1-.09v.06s.08-.02.08-.02"/>
  <path class="cls-4" d="M35.96,50.55l.09.83.17.35.19.25.26.14.29.03h.4s.21-.05.21-.05l.5-.25.35-.23.58-.57.63-.76.96-1.35.34-.41.25-.42.07-.08-.03.05"/>
  <path class="cls-4" d="M36.83,67.82v.71s-.03.59-.03.59l.04.58-.02.5.07.63-.03.11.07.17-.02.02-.02-.02.27-.09.34-.21.82-.69.76-.55.67-.61,1.15-.95.37-.35.18-.09.27-.25"/>
  <path class="cls-4" d="M36.4,76.2v-.03s.01.03.01.03h-.03s.13.02.13.02l.3.23.41.5.18.14.21.41.12.5v.16s.03.13.03.13l-.12.5-.19.57-.38.71-.84.87-.25.18-.05.06.04-.02v.02s-.03-.02-.03-.02l.02.02.23-.22.43-.3.23-.26.18-.12,1.07-1.04.54-.63.34-.33.26-.33.49-.51.28-.25.26-.36.36-.38.1-.02.18-.2.11-.08"/>
  <path class="cls-4" d="M36.87,62.41h-.04s.07-.81.07-.81l-.09-.48-.06-.6.03-.47-.11-.45.02-.16-.06-.05h.03v-.13s-.02,0-.02,0h.03v.02s-.03,0-.03,0l.09-.07,1.06-.77,1.38-1.11.43-.3.54-.49.21-.14.19-.18.22-.13.06-.07.1-.03.06-.06h.03-.03"/>
  <path class="cls-2" d="M36.44,4.69l-.04.12h.09s-.05-.01-.05-.01l.25-.33.27-.24.02-.13.23-.26,1.46-1.49.21-.15.48-.63.24-.22.13-.22.12-.08v-.05s.06-.07.06-.07v.08"/>
  <path class="cls-1" d="M42.26,6.75l-.03-.05.02.03h.1s.91-.14.91-.14l.71.06"/>
  <path class="cls-1" d="M43,6.62l.05.05-.04.29.04.35-.03.25.03.23v.8s.05.2.05.2"/>
  <path class="cls-1" d="M35.02,6.75v-.03s.03.01.03.01l.05.79.02,1.64v.05h-.03.55s.7-.1.7-.1v.05"/>
  <path class="cls-1" d="M37.12,9.17l.06.02.04-.42.16-.87.2-.74v-.39s.07-.14.07-.14l-.02.02.14.11.12.2.39.92.19.35.12.38.28.63"/>
  <path class="cls-1" d="M37.28,8.18v-.04s.23-.06.23-.06l.69-.06"/>
  <path class="cls-1" d="M39.75,9.18l.07-.02v-.16s-.17-1.74-.17-1.74l-.05-.16-.03-.36.03-.02-.02.03.2.22.32.57.48.73.12.27.32.38.17.27.15.15h-.04l.05-.03.03-.14v-.67s-.21-.79-.21-.79l-.04-.28v-.56"/>
  <path class="cls-1" d="M33.82,6.95l.02-.15-.12-.11-.32-.05-.23.04-.22.1-.19.15-.15.22-.03.21.08.26.25.35.22.16.34.15.33.2.32.32.07.15-.12.17-.13.1-.22.11-.35.08-.47-.05-.24-.13-.11-.15"/>
  <path class="cls-1" d="M39.26,12.62v.05s.03-.04.03-.04l-.08-.49.02-.19-.05-.38v-.72s.02-.08.02-.08l.21-.15h.5s.14.06.14.06l.28.25-.06.32-.14.18-.2.09-.8.09v.05"/>
  <path class="cls-1" d="M36.28,10.7l-.03-.05h.04s.02.07.02.07l-.06.47v.59s.05.29.05.29l.13.45.17.28.17.15.13.04.42.02.31-.05.18-.08.2-.16.08-.19.1-.7v-.31s-.05-.39-.05-.39l-.19-.52.03-.04.03.14"/>
  <path class="cls-2" d="M79.31,3.8l.65-.07,2.08-.11,1.4.12h.22-.04v-.04s-.03.04-.03.04"/>
  <path class="cls-1" d="M82.06,10.83h-.02.02l-.02-.05.09-.53.3-.94.08-.44.09-.32.05-.08-.03-.03.04-.02.08.25.08.07.22.4.38,1.07.2.32-.02.04h.05-.05"/>
  <path class="cls-1" d="M82.29,10.1v-.06s.07.02.07.02l.06-.04.35-.09h.32"/>
  <path class="cls-1" d="M84.28,8.64h.28s.25-.09.25-.09l.46-.1h.7l.22-.03"/>
  <path class="cls-1" d="M85.32,8.47l-.18.11v.43s.14.97.14.97l-.02.77.03.21"/>
  <path class="cls-1" d="M77.62,10.91l-.04.09.03-.05v-.24s-.05-.34-.05-.34l-.03-.48.02-.44-.03-.45-.08-.33,1.14-.1.21.02.07.08"/>
  <path class="cls-1" d="M77.76,9.97l-.02.03h.05s.64-.16.64-.16h.34s.05,0,.05,0"/>
  <path class="cls-1" d="M79.83,8.73l.04-.06-.03.03v.28s.07.44.07.44v.76s.06.39.06.39l.06.02h-.06s.04,0,.04,0h-.04s.02.26.02.26l-.05.08v.1s.05.05.05.05l-.02-.04-.03.02.86-.17.29.03"/>
  <path class="cls-2" d="M58.15.85l.02-.09.16.27,1.49,1.65.25.38.75.64.21.34.42.41-.04.03.07-.02-.04-.02.04-.12"/>
  <path class="cls-1" d="M58.69,8.84l-.04-.02h.04s.09-.41.09-.41l.04-.69.07-.35.09-.98h-.03s.04-.02.04-.02l.21.14.15.23.44,1.22.37.68.12.27-.07-.09"/>
  <path class="cls-1" d="M58.93,8.04l-.02.02.42.03.46-.11"/>
  <path class="cls-1" d="M61.04,8.75l-.03-.02.02-.02-.11-.65v-.46s-.14-.98-.14-.98l.13.04.11.09.26.31.38.6.12.12.19.33.29.39.17.13.14.06-.03-.02.03-.16-.03-.38-.21-.79-.05-.49-.05-.2.03-.09-.04-.13.04-.02"/>
  <path class="cls-1" d="M63.23,6.56l-.07-.03,1.11-.11.7-.03h.04l-.04.04"/>
  <path class="cls-1" d="M64.11,6.52v.1s.21,1.51.21,1.51v.38s.02-.21.02-.21"/>
  <path class="cls-1" d="M56.49,6.46l.04.25.06,1.04.08.3v.35s.1.25.1.25h-.03s.19.04.19.04h.48l.28-.08"/>
  <path class="cls-1" d="M55.28,6.59l.06-.03-.03-.09-.14-.09-.21-.03-.16.05-.22.2-.1.14-.05.16v.17s.09.23.09.23l.13.18.16.15.59.32.11.1.07.11.08.24-.02.21-.14.17-.17.05-.7.04-.46-.04"/>
  <path class="cls-1" d="M57.84,10.56v-.04s.03.02.03.02l-.14.06-.1.13-.06.15-.03.42.06.41.07.18.19.26.17.12.35.11.23-.07.26-.22.07-.1.07-.17.03-.21v-.37s-.06-.19-.06-.19l-.04-.09-.13-.13-.38-.22-.47-.1-.04.02.04.03"/>
  <path class="cls-1" d="M59.79,10.32h-.03l.11.48.18.55v.12s.07.12.07.12l.08.37.07.2.15.28.15-.47.31-1.72.22.65.1.52.12.42.18.33.09.06.07-.05.05-.11.11-.39.09-.82-.02-.1.13-.49.04-.04-.06.06-.05.27"/>
  <path class="cls-1" d="M63,12.1v.12s.04-.24.04-.24v-.17s-.05-.18-.05-.18l-.05-.59-.09-.54v-.27s-.02,0-.02,0l.35.27.48.5.44.53.18.14.33.36-.03-.03.06-.14.05-.33v-.39s-.11-.58-.11-.58l-.07-.18-.03-.28.04.03h-.06"/>
  <path class="cls-1" d="M54.83,12.5l.04.04v-.02s-.03-.03-.03-.03l.04-.03v-1.46s-.04-.33-.04-.33l-.06-.21.15-.03.27.03.51.16.46.27.21.18.13.19.07.12.04.27-.06.22-.13.2-.32.29-.24.15-.33.11-.5.04-.06.02v.05"/>
  <path class="cls-6" d="M51.35,38.16l-.02-.08.02.03.03-.02.14.2.23.53.17.56.36.82.14.42.31.56.02.23.05.03.03.11.12.17.04.22.11.21.1.27-.02.02h.06s-.05-.03-.05-.03v-.04s.16-.49.16-.49l.07-.44.1-.32.03-.52.09-.54.2-.67.05-.5.05-.19.12-.18v-.18s.07-.08.07-.08v-.12s-.03,0-.03,0l.04-.12.05-.05v.04s-.03-.1-.03-.1l.05.02-.03.02"/>
  <path class="cls-6" d="M75.09,37.51l-.03-.06-.21-.11-.33-.26-.48-.08h-.26s-.46.18-.46.18l-.7.36-.35.35-.25.38-.4.98-.06.6.12.55.1.14.37.37.04.08.14.12.79.36.57.06.41.13.74-.09.09-.06.02.03.12-.03h-.05s.05-.01.05-.01v-.03s-.04-.42-.04-.42l-.07-.27-.03-.36v-.68s-.01-.18-.01-.18l.03-.24-.03-.02v.02s-.37.07-.37.07h-.37s-.4.08-.4.08l-.09.07-.02-.02.08.08"/>
  <path class="cls-4" d="M62.38,38l-.53.02-.7-.03-.56.04h-.59.06l.03.13.08.14.31.34,1.44,1.45,1.46,1.24.47.36.38.24.46.37h-.05s.06,0,.06,0l-.06-.07"/>
  <path class="cls-4" d="M80.39,38.26l.03.04-.1.11-.25.17-.08.09-1.07.88-.17.23-.44.46.05-.04-.04.02.22.05,1.14.11h.91s1.29-.03,1.29-.03l1.46.1.74-.02.45-.06.37.02-.03.03v-.02s.04,0,.04,0l-.08-.05"/>
  <path class="cls-5" d="M88.37,39.22l-.2-.05-.32.3-.22.36-.07.21v.31s.14.41.14.41l.25.32.21.12.29-.04.25-.2.16-.26.09-.23.05-.44-.11-.32-.22-.33-.24-.15-.22-.05.11.06"/>
  <path class="cls-5" d="M90.07,41.02l.02-.03-.05-.21-.11-.85v-.2s.06-.29.06-.29l.18-.2.11-.08.13-.02h.19s.21.08.21.08l.23.14.15.19.05.2-.06.12-.1.07-.31.11-.16.1.06.23.06.11.37.35.4.28.33.19.26.09"/>
  <path class="cls-6" d="M95.62,42.02h-.07v-.05s-.04-.03-.04-.03l-.1-.27-.51-.58-.2-.18-.43-.48-.51-.36.66-.08h1.05l.62.05h.92s.99.11.99.11l1.09-.07.52.08h-.03s.07.04.07.04v.09"/>
  <path class="cls-6" d="M72.92,61.95v.06s0-.04,0-.04h.03l-.06-.23.02-.2-.02-.64-.07-.64.02-.3-.05-.22.02-.23-.11-.76v-.52s-.11-.9-.11-.9l.02-.09-.04-.03v.02s0-.08,0-.08l.04-.03-.03.03.42.1.31.04.36-.02.47.09h.38s.38.09.38.09l.16-.02.02.02-.02-.02h.02s-.11.08-.11.08"/>
  <path class="cls-6" d="M73.08,59.49v.05s.02-.02.02-.02v.03s.18.05.18.05l.63.03.08.03.43.04.07-.02.15.02.05-.02v-.05"/>
  <path class="cls-6" d="M72.64,66.48l.04-.13.02.02-.02.05.07.19.02.24-.04.45v1.31s-.05.28-.05.28l.05.22.02.43v.51s-.02.02-.02.02l.05.07v.32s-.08.48-.08.48l.05.03h-.02s-.03.11-.03.11l.05.12v-.06s.04.03.04.03l.27-.07h.32l.12-.04.18.02.14-.05.22-.02.36.03h.13s.02,0,.02,0h.39l.29.04.08-.02.02.03-.04-.03-.04-.11"/>
  <path class="cls-4" d="M78.77,61.31h-.03l.03-.02.04-.37-.04-.48v-.98s-.08-.44-.08-.44v-.17s-.07-.24-.07-.24v-.27s-.06-.1-.06-.1h.03l-.02-.23h-.05s.43-.03.43-.03l2.52.24.56-.02.32.04h.81s.64.07.64.07l.64-.06.4.06"/>
  <path class="cls-4" d="M78.5,66.78h.05s-.01.47-.01.47l.14,1.44v.85s.03.02.03.02v.17s-.04.03-.04.03l.03.08-.02.17h.02s-.05,0-.05,0h.03s0,.11,0,.11l.02-.04-.02.03-.03-.02.58-.12.64.04,1.02-.13.44.07h.74s.31.05.31.05l.92-.02.53.03,1.26-.05h.03s-.04,0-.04,0v.02s.13.02.13.02"/>
  <path class="cls-6" d="M50.63,62.29v.03s.04-.04.04-.04h-.04s.05-.18.05-.18l.05-.63-.06-.38-.08-1.26v-.54s-.07-.23-.07-.23l-.02-.42-.04-.12v-.52s-.05-.23-.05-.23v-.12s.04-.04.04-.04v-.14s.34.47.34.47l.53.83.23.29.08.16.21.25.08.22.09.15.55.64.07.18.35.56.04.17.08.02v.06s-.03-.05-.03-.05l.22-.24.51-.88.34-.45.08-.22.28-.43.02-.1.15-.25.05-.14.35-.51.16-.32.04-.16.08-.09.08-.31.05-.07v.07s.03-.02.03-.02l-.03.07.08.77v1.76s.12.74.12.74l-.05.3.12,1.08-.04.29.02.02v-.05s.03,0,.03,0v.03h-.07"/>
  <path class="cls-6" d="M51.6,67.02h-.03s0,.05,0,.05l.06-.03v-.03s0,.06,0,.06l.46-.02.57-.07.36.03,1.47-.08h-.06s.03.03.03.03l.02-.02-.04.03-.15.41-.21.37-.2.23-.17.3-.3.38-.05.11-.17.17-.18.35-.21.25v.07s-.18.2-.18.2l-.11.2-.13.13-.27.37-.06.13.02.06-.03.09-.07.04-.13.28-.07.1v-.05s.02.03.02.03l-.15.17v.04s-.02.01-.02.01h.04l-.02-.03h.03s-.09,0-.09,0l.06.02.36-.02.22-.08.36.09.45-.02.27.04.35-.05.28.06.32-.03.12-.04.16.02h.09s-.04-.03-.04-.03v.02s-.02,0-.02,0l.02.03-.07-.05"/>
  <path class="cls-4" d="M59.71,60.86l.03.02.04-.41-.15-1.58.02-.31-.07-.2v-.24s.03-.09.03-.09v-.11s-.02.03-.02.03l.04-.19.03.02h-.05s.03,0,.03,0l-.02.02.3.09.25.14.86.68,1.59,1.13,1.35,1.12.15.21.15.14.3.17.08.14.21.19h-.06"/>
  <path class="cls-6" d="M51.44,81.03l.02.05.03-.03-.02.04-.03-.04.02-.03.28-.16.25-.51.37-.52.1-.34.25-.49.23-.31v-.1s.18-.43.18-.43l.11-.17.06-.16.13-.15.04-.16.05-.07.11-.3v-.14s.06-.11.06-.11l.14-.15.02-.16.07-.04-.03-.02.04-.06-.02-.04v.03s.06-.01.06-.01h-.06l-.05.07"/>
  <path class="cls-6" d="M52.1,76.46v-.03s-.05,0-.05,0l-.03.06h.06-.04s.08.26.08.26l.26.44.05.18.08.11.1.28.82,1.33.05.23.28.44v.1s.24.36.24.36l.05.12v.05s.04.02.04.02l-.02.03.09.04.04.06.11.31.04.04v.03s-.03-.01-.03-.01v-.04s-.03-.02-.03-.02l.07.05v-.03s-.03.04-.03.04l-.02-.02v-.16"/>
  <path class="cls-4" d="M59.35,67.12l-.03.92.06.43-.07,1.28-.04.21v.07s.05-.01.05-.01h-.04s.77.42.77.42l.28.21.32.18.43.19.52.41.64.34.4.27.35.28.26.11.26.22.41.23"/>
  <path class="cls-6" d="M72.58,76.44l-.04-.06h-.03s.02.04.02.04h-.04s.06,0,.06,0l-.08.35-.02.87v.08s.12.35.12.35l.1.69-.06.37v.38s-.04.37-.04.37l.04.19.04.03-.05.08.02.14-.11.39v.19s.06.1.06.1l-.05.18h-.04l.06.14v-.11s.03-.15.03-.15"/>
  <path class="cls-6" d="M72.61,78.79l.02.02v-.03s.07-.02.07-.02l.05-.09.41-.3.32-.31.15-.25.12-.09.04-.11.15-.19.66-.57.26-.38.26-.25.03-.05h-.06s-.01.09-.01.09"/>
  <path class="cls-6" d="M72.88,78.61l.04-.14-.02.09.13.1.31.39.25.26.19.1.25.21.31.34.47.43.43.56.32.25.02.06-.05-.02h.04s.12.11.12.11l.03-.02"/>
  <path class="cls-4" d="M80.35,81.85l.05.03.06-.03.18-.29.09-.29.06-.46-.03-.38.02-.12-.15-.44-.17-.32-.29-.33-.28-.24-.03-.07-.33-.21-.31-.15-.64-.21-.36-.02-.2-.04h.03v.03s.02-.03.02-.03h.75s.27.03.27.03h.57s1.12-.04,1.12-.04l.66.04.83-.05,1.31.1,1.12-.03.35.03.14-.02v.02s0-.02,0-.02l-.1.03"/>
  <path class="cls-5" d="M89.25,79.51l.04.03-.07-.2-.04-.45.11-.72.12-.21.09-.07.3-.02.29.09.27.24-.03.14-.14.13-.15.06-.36.05-.02.03.05.02.09.24.26.29.37.27.24.25.12.03"/>
  <path class="cls-5" d="M87.65,77.99l.05-.05v.06s-.1.02-.1.02l-.19.11-.17.14-.05.06-.13.36-.04.26.03.16.21.44.15.21.11.07.17.04.2-.03.2-.13.07-.07.02-.16.06-.09.06-.24-.05-.5-.1-.19-.2-.25-.14-.1-.11-.03.11.03-.07.02.03.08"/>
  <path class="cls-6" d="M93.52,77.4h.03s.09.1.09.1l.22.13.56.57.14.31.05.28v.24s-.21.5-.21.5l-.13.15-.42.36-.09.13-.21.16-.29.16-.59.08v-.03s.04,0,.04,0h-.02s.69,0,.69,0l.25.05,1.13.05h.48l.61-.05,1.19-.16,1.72-.08h.35l.05.02h-.07s.08.01.08.01v-.04s0,.03,0,.03h-.05.07l-.05-.05"/>
  <path class="cls-4" d="M59.67,81.06l.03.02.07-.08.12-.18.49-.53.07-.11.04-.17.27-.33.13-.4v-.7s-.2-.45-.2-.45l-.2-.34-.08-.23-.16-.15-.64-.86-.2-.23-.12-.05.04-.02h-.03s.27.16.27.16l.39.27.8.71.47.32.25.23.31.21,1.59,1.49.39.25.34.31.8.52.13.13.05.02v-.04"/>
  <path class="cls-6" d="M30.03,18.22v.16s.06-.04.06-.04l-.03-.03.02.04.03-.03.49.04.5.11.39.03.95-.09.2.03h.17s0-.04,0-.04v.03s-.02-.03-.02-.03l.07-.02"/>
  <path class="cls-6" d="M31.27,18.45l.02.06h-.04s0,.2,0,.2l.02.22.11.7v.31s.15.85.15.85v.18s.04.55.04.55l-.02.35.05.34v.13s-.05.11-.05.11l.03.02.04.26h.02l-.02-.02v.02s-.04,0-.04,0l-.02.16h.05s.01-.06.01-.06v-.22"/>
  <path class="cls-6" d="M30.61,32.19l.04-.06-.05-.06-.02-.11v-.34s.07-.41.07-.41l-.03-.43-.15-1.18-.09-.38.03-.24-.1-.43-.05-.09v-.13s-.04-.07-.04-.07l.02-.1-.04-.06v-.18s-.04-.25-.04-.25l-.07-.09.02-.03.04.03.08-.17v-.07s-.04,0-.04,0l.26-.04h.49s.21.05.21.05l.18.1.24.06.18.12.1.19.02.14.06.06.02.12-.05.09v.05s-.11.15-.11.15l-.06.16-.17.23-.35.28-.28.15-.16.14.02-.02h-.02.03s.12.22.12.22l.4.4.18.23.73.71.26.33.06.15.2.18.07.14.16.13v.08s.16.16.16.16l.08.2"/>
  <path class="cls-4" d="M36.63,22.91l-.1.07.07-.03h-.04l.48-.53.72-.6.53-.57.52-.64.85-.84.64-.77.22-.22.35-.25.06-.05h-.04s.05-.02.05-.02h-.03"/>
  <path class="cls-4" d="M38.11,29.2h-.06l-.15-.12-.21-.08h-.56l-.22.04-.42.16-.42.27-.16.36-.03.26.06.33.17.43.16.13.3.04.16-.03.36-.16.62-.46.66-.64.37-.43.49-.69.88-1.08.43-.48.13-.12.15-.07-.02-.02.06-.07-.06.03"/>
  <path class="cls-6" d="M74.5,18.73l.04-.03v-.04s-.07-.19-.07-.19l-.14-.23-.08-.08-.28-.13-.32-.02-.07.02-.49.3-.16.18-.15.32-.03.48.07.18.24.29.73.58.09.02.15.09.66.48.09.15.14.14.11.22.15.46-.06.22-.09.11-.09.26-.09.1-.13.05-.36.05-.31.08h-.15s-.34-.07-.34-.07l-.16-.06-.31-.24-.2-.31-.09-.09v-.08s-.12-.07-.12-.07v.03"/>
  <path class="cls-6" d="M72.34,29.7v-.08s.03-.02.03-.02v.05s.15.02.15.02l.6-.11h.41s.96-.09.96-.09l.31.06h.26s.06-.03.06-.03h-.06"/>
  <path class="cls-6" d="M72.36,27.07l-.05-.04.06.02-.13.55-.02.68.07,1.12.07.36-.04.23v.48s.1.54.1.54l-.04.35.03.14h.03s-.04.09-.04.09v.16s-.05.03-.05.03l-.02-.02.02-.03v-.28"/>
  <path class="cls-6" d="M74.95,27.07l.13.09.1.28.13,1.74v1.16s-.04.34-.04.34v.14s-.04.3-.04.3l.03.31-.06.3.05.07-.02.11.05-.03h-.04l-.03.03h.03s-.01-.03-.01-.03"/>
  <path class="cls-4" d="M78.6,20.24v.04s.73-.01.73-.01l.6.05,1.19-.09.59.06,1.48.03.29-.03.71.04.49-.05.29-.02.03.03h-.05s.06,0,.06,0h-.04l-.09-.22"/>
  <path class="cls-6" d="M51.4,22.87l.03.02h-.03s.03,0,.03,0l-.02-.05.06-.32-.03-.51-.11-.51.03-.82-.09-.57.02-.25-.07-.17-.07-.67-.02-.53-.06-.24.04-.34-.05-.06v.05s.03,0,.03,0l.11.1.28.32.13.09.77,1.09.46.56.5.83.17.18.17.31.11.1.04.15.09.11.02.08.39.45.11.26.09.06.22.41.1.09v.05s.04-.37.04-.37v-.4s-.09-.79-.09-.79l-.05-.09v-.17s0-.62,0-.62l-.08-.52.06-.19-.07-.06-.06-.13.08-.47-.02-.16.05-.41-.03-.14.03-.06-.03-.09.05-.12-.05-.26.02.02.02-.21h.04v.05s-.06,0-.06,0l.04.03-.03.03"/>
  <path class="cls-6" d="M54.21,27.93l.06-.02v-.08s-.07-.08-.07-.08l-.03-.1-.12-.09-.04-.07-.22-.1-.44-.12-.29-.05-.33.02-.3.11-.33.19-.4.3-.54.55-.14.51-.06.42.03.85.03.27.14.18.12.39.23.23.2.27.62.49.52.19.41.02h.28l.23-.08.44-.04.28-.08h-.04"/>
  <path class="cls-4" d="M58.71,17.92l-.06.16.03-.06.17.17.11.15.53.41.97.97.43.31.28.25.39.43.31.26.14.2.29.29.09.14.34.28.16.26.18.18h-.03s.02-.02.02-.02l-.05-.05"/>
  <path class="cls-4" d="M61.6,29.8v.05s-.48.05-.48.05l-.39.03-.21-.02-.51-.16-.46-.26-.24-.16-.21-.25-.13-.25v-.33s.08-.2.08-.2l.39-.33.15-.05.23-.02.34.03.31.12.34.25.78.82.12.22.47.67.37.46.25.28.19.16.49.61.41.44.2.17.15.04-.09-.06"/>
  <path class="cls-5" d="M88.09,28.8l-.05-.08.02.02-.21.09-.14.13-.13.25-.11.13-.02.35v.19s.15.36.15.36l.3.33.21.13.28.05.2-.04.2-.07.18-.14.1-.15.07-.15v-.15s0-.43,0-.43l-.05-.21-.07-.12-.19-.22-.3-.23-.41-.2h.04s-.02.07-.02.07l.09.14"/>
  <path class="cls-5" d="M89.91,30.46l-.05.04.08-.03v-.09s-.14-.59-.14-.59l.05-.65.09-.26.08-.11.19-.14.15-.02.24.05.19.11.29.29.06.1.02.09-.02.05-.2.15-.62.17h.05s.05.21.05.21l.15.18.35.28.29.18-.02-.05"/>
  <path class="cls-6" d="M95.3,29.38h.03s.1.24.1.24l.1.39.03.37-.03.16v.14s-.16.45-.16.45l-.12.16-.17.1-.3.02-.37-.04-.42-.1-.28-.25-.13-.19-.06-.24v-.2s.13-.4.13-.4l.16-.23.27-.17.77-.23.47-.05,1.11.05,1.75-.04.73.09.52.13h-.05l.04.02-.02-.06"/>
  <path class="cls-4" d="M80.72,30.22h.05s.04-.11.04-.11l.1-.43-.07-.43-.08-.21-.19-.32-.3-.31-.28-.22-.24-.08-.31.05-.19.08-.19.13-.15.18-.16.41-.03.3.05.45.18.34.24.22.83.31.51.09h.76l1.24-.15.65-.04h.91s.35.04.35.04"/>
  <path class="cls-5" d="M88.12,49.63l-.13.02-.22.12-.11.11-.06.19-.03.18.02.32.11.27.09.11.15.11.28.07h.19s.28-.13.28-.13l.23-.23.04-.11v-.24s-.04-.14-.04-.14l-.08-.13-.09-.13-.19-.15-.25-.07"/>
  <path class="cls-5" d="M89.92,50.76l-.03.04-.06-.04.03-.04-.02-.14.02-.89.11-.19.05-.03.12-.02.16.02.27.16.07.18-.14.16-.26.13.03.21.19.27.61.44.12.16"/>
</svg>