<?xml version="1.0" encoding="UTF-8"?>
<svg id="vector" xmlns="http://www.w3.org/2000/svg" viewBox="0 0 56.38 28.81">
  <defs>
    <style>
      .cls-1 {
        stroke: #9eb7c3;
        stroke-width: 1.62px;
      }

      .cls-1, .cls-2 {
        fill: none;
        stroke-linecap: round;
        stroke-linejoin: round;
      }

      .cls-2 {
        stroke: #000;
        stroke-width: .4px;
      }
    </style>
  </defs>
  <path class="cls-1" d="M54.27,9.39l.35-.19-.29-.14-.12.05-.15.28v.35s.05.14.05.14l.13.04.29-.21.15-.49-.55.17.19.1"/>
  <path class="cls-1" d="M35.51,7.59l.04.1.02-.08h.13s.9.21.9.21l1.95.08,1.69.19,1.3.02,3.21-.44,1.53-.59,1.49-.81,1.31-.92.74-.67.27-.4.36-.76-.06-.8-.7-1.1-.45-.36-.63-.19-1.19.05-.63.23-.68.58-.41.56-.13.54v1.84s.75,2.63.75,2.63l1.04,2.26,2.17,3.58,2.41,2.97.18.17h.2s-.28-.11-.28-.11"/>
  <path class="cls-1" d="M38.17,16.44l-.07-1.13.22-.69.35-.67.74-.86.43-.25.75-.18.77.17.93.59.5.83.35.87.43,1.65-.06.24.06.04-.06-.1.08-.14-.02-.29"/>
  <path class="cls-1" d="M30.53,20.01l.07.03.05.25.22,1.66.3,3v.67s.08.35.08.35l.05.08.04-.06-.04-.12-.28-.1"/>
  <path class="cls-1" d="M1.23,7.17l.02-.27.08.1.1,3.74.14,1.84-.02.26-.05-.07"/>
  <path class="cls-1" d="M12.6,27.17l-.1.12.04-.21.44-1.11,1.08-1.91.56-.78.99-1.11.94-.91,1.2-.96,2.3-1.43.98-.46.89-.26.76-.04.78.23.71.44,1.1,1.06.6.84.17.36.09.45-.03.38-.35.67-.42.4-.62.26-.43.05-1.16-.2-.81-.49-.34-.42-.22-.44-.12-.62.14-1.45.14-.59,1.47-3.5.57-1.04.84-1.25,1.37-1.82,1.06-1.21,3.22-2.93"/>
  <path class="cls-1" d="M4.81,16.97l-.11.06.11-.05.13.14.86,1.14,2.63,3.04,1.12,1.7,1.89,2.45.23.45,1.05,1.16-.44-.19"/>
  <g>
    <path class="cls-2" d="M.71,8.59h-.07s.05-.04.05-.04l1.26.08v-.03"/>
    <path class="cls-2" d="M1.41,8.72l-.07.2.04.8v.38s.08.77.08.77l.07.21v.14s-.04,0-.04,0"/>
    <path class="cls-2" d="M.84,11.31l-.04.02v-.03s1.16-.05,1.16-.05l.44.09-.05-.04"/>
  </g>
  <path class="cls-2" d="M7.63,22.88v.09s.03-.07.03-.07l-.02-.13.03-.21v-.54s-.07-.85-.07-.85l-.11-.55v-.15s-.02.01-.02.01h.03s0-.11,0-.11l-.03-.07h.05s.37.48.37.48l.3.5.36.46.3.46.52.62.09.18.1.11h.08s-.04-.02-.04-.02h.02s.02-.67.02-.67l-.06-.31v-.45s-.05-.3-.05-.3l.04-.85-.05-.17.05-.2-.06.05v.08"/>
  <g>
    <path class="cls-2" d="M15.4,20.15l.36.02.66-.06,1.29.08"/>
    <path class="cls-2" d="M16.65,20.11l-.03.05.04.13v.47s.05.36.05.36l.08,1.3.13.58v.09s-.06-.04-.06-.04v-.1"/>
  </g>
  <path class="cls-2" d="M25.07,13.66l-.05.04.06-.05-.02-.71-.18-2.1.02-.19-.05-.02.48.05.31.11.22.19.11.21v.25s-.06.13-.06.13l-.23.2-.25.15-.34.13h.04s.15.23.15.23l.39.37,1.28,1.39h.03s-.09-.03-.09-.03"/>
  <path class="cls-2" d="M30.41,21.82l.03-.02-.03-.03-.12.02-.16.12-.13.15-.08.14-.15.47-.04.62.17.39.17.25.4.32.46.2.17.04h.26s.42-.2.42-.2l.25-.25.11-.24.06-.25v-.41s-.14-.41-.14-.41l-.34-.51-.33-.26-.23-.12-.36-.12h-.28s-.06.03-.06.03l.03.03"/>
  <path class="cls-2" d="M39.79,9.28v.08s-.03.02-.03.02l.07-.08v-.56s-.14-.96-.14-.96l-.14-.82v-.12s-.04-.03-.04-.03v-.08s-.04,0-.04,0l.31-.05h.19s.95.25.95.25l.31.12.25.16.08.11.04.19.05.08.03.36-.05.33-.12.35-.05.1-.23.26-.61.31-.38.04-.18-.02.06-.03"/>
  <path class="cls-2" d="M39.82,14.94h.03l-.03.02v.21s-.04.39-.04.39l.03.55.07.46.16.47.19.39.06.06.24.17.3.09h.23s.24-.2.24-.2l.19-.29.1-.32.04-.44-.02-.54-.1-.91-.06-.12h.04s-.01.08-.01.08"/>
  <path class="cls-2" d="M49.69,11.3l-.03-.1-.17-.15-.4-.14-.46-.02-.35.09-.19.09-.16.11-.17.18-.11.19-.08.21-.09.44v.33s.02.29.02.29l.14.5.21.3.3.2.44.15h.3s.9-.18.9-.18h.15l.06-.03h-.04s-.01-.02-.01-.02"/>
  <g>
    <path class="cls-2" d="M54.36,10.7l.02.06-.03.03.07-.03-.05-.18-.03-1.14-.06-.56-.08-.4-.03-.49v.04s.24.09.24.09l.31.05.69.05.44-.05h.05s-.08.03-.08.03"/>
    <path class="cls-2" d="M54.59,9.39l-.03.11.05-.05h.27s.7-.06.7-.06h.17s.13.07.13.07"/>
    <path class="cls-2" d="M54.43,10.75l-.06.03.88-.1.64-.04.21.03-.06-.05"/>
  </g>
</svg>