<?xml version="1.0" encoding="UTF-8"?>
<svg id="vector" xmlns="http://www.w3.org/2000/svg" viewBox="0 0 56.38 28.81">
  <defs>
    <style>
      .cls-1 {
        fill: none;
        stroke: #000;
        stroke-linecap: round;
        stroke-linejoin: round;
        stroke-width: 1.62px;
      }
    </style>
  </defs>
  <path class="cls-1" d="M54.27,9.39l.35-.19-.29-.14-.12.05-.15.28v.35s.05.14.05.14l.13.04.29-.21.15-.49-.55.17.19.1"/>
  <path class="cls-1" d="M35.51,7.59l.04.1.02-.08h.13s.9.21.9.21l1.95.08,1.69.19,1.3.02,3.21-.44,1.53-.59,1.49-.81,1.31-.92.74-.67.27-.4.36-.76-.06-.8-.7-1.1-.45-.36-.63-.19-1.19.05-.63.23-.68.58-.41.56-.13.54v1.84s.75,2.63.75,2.63l1.04,2.26,2.17,3.58,2.41,2.97.18.17h.2s-.28-.11-.28-.11"/>
  <path class="cls-1" d="M38.17,16.44l-.07-1.13.22-.69.35-.67.74-.86.43-.25.75-.18.77.17.93.59.5.83.35.87.43,1.65-.06.24.06.04-.06-.1.08-.14-.02-.29"/>
  <path class="cls-1" d="M30.53,20.01l.07.03.05.25.22,1.66.3,3v.67s.08.35.08.35l.05.08.04-.06-.04-.12-.28-.1"/>
  <path class="cls-1" d="M1.23,7.17l.02-.27.08.1.1,3.74.14,1.84-.02.26-.05-.07"/>
  <path class="cls-1" d="M12.6,27.17l-.1.12.04-.21.44-1.11,1.08-1.91.56-.78.99-1.11.94-.91,1.2-.96,2.3-1.43.98-.46.89-.26.76-.04.78.23.71.44,1.1,1.06.6.84.17.36.09.45-.03.38-.35.67-.42.4-.62.26-.43.05-1.16-.2-.81-.49-.34-.42-.22-.44-.12-.62.14-1.45.14-.59,1.47-3.5.57-1.04.84-1.25,1.37-1.82,1.06-1.21,3.22-2.93"/>
  <path class="cls-1" d="M4.81,16.97l-.11.06.11-.05.13.14.86,1.14,2.63,3.04,1.12,1.7,1.89,2.45.23.45,1.05,1.16-.44-.19"/>
</svg>