<?xml version="1.0" encoding="UTF-8"?>
<svg id="vector" xmlns="http://www.w3.org/2000/svg" viewBox="0 0 55 38.46">
  <defs>
    <style>
      .cls-1, .cls-2 {
        stroke: #000;
      }

      .cls-1, .cls-2, .cls-3, .cls-4 {
        fill: none;
        stroke-linecap: round;
        stroke-linejoin: round;
      }

      .cls-1, .cls-4 {
        stroke-width: .4px;
      }

      .cls-2 {
        stroke-width: 1.7px;
      }

      .cls-3 {
        stroke-width: 1.75px;
      }

      .cls-3, .cls-4 {
        stroke: #7fa0af;
      }
    </style>
  </defs>
  <path class="cls-3" d="M31.14,8.96l-1.15-.09-1.34.12-1.1.17-.57.22-.28.48-.05.9.26.66.73.82.51.28.68.17,2.32.21h1.59s1.08-.19,1.08-.19l.61-.5.22-.31.11-.39-.02-.69-.29-.62-.83-.75-.38-.23-.73-.15h-1.08s-.78-.13-.78-.13l-1.56-.07-.87.06-.69.22-.13.14-.25.76-.08.66.43.85.37.24.67.06.39-.07.43-.25.11-.18v-.44s-.16-.26-.16-.26l-.61-.61-.4-.07-.18.1v.16s.45.76.45.76l.7.46.89.19.78-.14.65-.4.09-.21-.09-.39-.4-.52-.52-.21-.49.06-.45.33-.14.38.13.57.26.27.52.29.56.16.84.03.66-.12.52-.25.59-.44.04-.1-.37-.59-.46-.17-.31.07-.12.18-.1.49.08.48.38.32.61-.08.53-.52.09-.47-.19-.35-.27-.17-.4-.02-.32.14-.17.81.27.35.41.06.22-.07.16-.21v-.51s-.19-.27-.19-.27l-.27-.08-.11.09v.37"/>
  <path class="cls-3" d="M40.83,11.65l3.76-.82,1.98-.89.67-.43.98-.86.64-.72.1-.33.31-.48.03-.31-.09-.35-.49-.89-1.01-.81-.5-.14-.96-.07-.49.1-.49.26-.93.72-.42.61-.29.98.14.51-.05.66.27.89.08.62.67,1.63.56.87.25.8.22.25.04.19"/>
  <path class="cls-3" d="M15.49,24.02l.71-.54,1.17-.62,1.43-.42,1.01-.1,1.11.11,1.25.43.53.3.45.55.27.4.19.67v.75s-.16.95-.16.95l-.2.36-.53.57-.39.25-.47.1-1.36-.15-.96-.38-.29-.22-.53-1.03-.04-.83-.07-.08.02-.95.21-1.05.77-1.86.34-.47.48-1.02.47-.5"/>
  <path class="cls-3" d="M10.49,29.52l-.15-.55-.38-.23-.53-.1-.71.06-.61.21-.67.46-.23.28-.09.53.17.86.54,1.03.32.4.52.31.42.12,1.22-.07,1.21-.76.22-.26.11-.5-.02-.46-.34-.9-.97-.9-.51-.3-.61-.15h-.77s-.62.13-.62.13l-.39.33-.15,1.01.3,1.15.61.81.38.29.71.32.71.14.48-.03.42-.2.44-.4.25-.42.11-.56-.02-.46-.27-.8-.74-.85-.52-.37-.53-.21-.65-.04-.5.12-.53.29-.32.3-.32.58-.14.63-.02.6.23.95.46.75.64.41.56.18,1.21-.08,1.3-.73.29-.55.04-.6-.12-.74-.37-.76-.51-.61-.67-.53-.57-.26-.73-.14-.5.03-.76.34-.45.58-.24.56-.08.52.04.77.11.56.22.49.25.37.4.29.85.26.75.05.71-.12.52-.26.35-.25.34-.48.07-.5-.11-.7-.19-.41-.58-.74-.97-.64-.54-.16-.59-.02-.77.31-.19.22-.15.41-.16,1.48.13.46.25.43.39.31.57.27.43.05.63-.09.51-.21.42-.39.27-.35.22-.52v-1.05s-.12-.36-.12-.36l-.34-.47-.57-.43-.45-.18-.72.1-.37.35-.27.6-.03,1.01.23.6.49.4.47.11.64-.11.55-.42.25-.47-.11-.59-.39-.5-.54-.19-.66.13-.46.38-.21.64.1.83.41.56.34.14h.42s.43-.2.43-.2l.31-.59.08-.47-.06-.38-.53-.77-.64-.34-.94-.06-.62.37-.21.28-.14.45.06.72.15.37.5.63.45.35.49.18h.5s.52-.15.52-.15l.66-.61.3-.53.1-.38v-.59s-.12-.6-.12-.6l-.42-.77-.54-.52-.42-.27-.47-.11-.61.05-.98.54-.46.45-.26.43-.29,1.2.02.49.16.56.35.68.34.4.57.32.78.23,1.34.03.88-.22.55-.38.42-.55.25-.88.02-.73-.08-.43-1.08-1.84-.46-.47-.5-.35-.53-.23-.56-.03-.45.09-1.66.74-.65.7-.36.83-.07.43.05.7.33,1.11.58.7.51.37.47.18.93.03.72-.24.56-.35.38-.64.18-.92v-.5s-.23-.71-.23-.71l-.3-.37-.3-.16h-.48s-.25.13-.25.13l-.19.51-.02.95.28.54.46.35.58.03.46-.39.33-.81-.17-.65-.21-.23-.37-.17-.43.03-.4.18-.25.41-.09.41.06.73.3.32.44.1.27-.1.26-.49.08-.62-.08-.49-.34-.33-.43.04-.21.29.02.55.22.18.27-.11"/>
  <path class="cls-2" d="M33.26,11.05l.04.1.02-.08h.14s.94.22.94.22l2.03.08,1.75.2,1.35.02,1.57-.21"/>
  <path class="cls-2" d="M45.53,13.21l.05.11,2.26,3.72,2.5,3.09.18.18h.21s-.29-.11-.29-.11"/>
  <path class="cls-2" d="M21.07,18.51l.16-.28.87-1.3,1.42-1.89,1.1-1.26,3.35-3.05"/>
  <path class="cls-2" d="M9.43,31.42l-.11.12.04-.22.46-1.16,1.12-1.99.58-.81,1.03-1.16.98-.94,1.25-1,1.73-1.07"/>
  <path class="cls-2" d="M1.32,20.82l-.12.06.11-.05.14.14.89,1.18,2.73,3.16,1.17,1.77,1.97,2.55.24.46,1.09,1.2-.46-.19"/>
  <path class="cls-1" d="M1.36,17.49l-.14.14h.05s.24-.29.24-.29l.44-.35.65-.7h.04s.21.28.21.28l.26.54v.17s-.09.39-.09.39l-.22.21-.17.09-.29.07-.36.03-.49-.06-.42-.13v-.04s.09-.08.09-.08"/>
  <path class="cls-1" d="M4.11,18.64l-.15-.17-.23-.07h-.18s-.28.17-.28.17l-.24.24-.11.15-.1.33-.04.26.03.17.13.23.11.09.21.07.31.03.21-.04.19-.09.24-.2.14-.25.04-.19v-.18s-.05-.2-.05-.2l-.11-.21-.2-.18-.02.14"/>
  <path class="cls-1" d="M5.18,20.09l-.56.92-.16.34.39-.15.58-.31.33-.13v.11s-.22.54-.22.54l-.2.4-.18.57.98-.56.28-.2.19-.07.02-.06v.03"/>
  <path class="cls-1" d="M6.15,23.38l-.07.05h.05s.02-.11.02-.11l.16-.21.49-.43.38-.44.12-.08h-.03.04s-.01.32-.01.32l-.26,1.09-.03.51-.06.26-.04.04.27-.26,1.02-.81.14-.15.34-.24h-.06"/>
  <path class="cls-1" d="M11.78,21.85h-.04s.04.06.04.06l.09.33.12.18.24.25.2.14.32.13h.21s.13-.05.13-.05l.08-.07.11-.19.06-.21v-.13s-.12-.35-.12-.35l-.18-.37-.25-.29-.07-.04-.03.02"/>
  <path class="cls-1" d="M14.5,22.17v.06s0-.06,0-.06l-.15-.18-.37-.73-.41-.47v-.09s.03,0,.03,0l.11-.11.71-.3h.28s.14.12.14.12l.13.27-.07.2-.69.41-.23.21"/>
  <path class="cls-1" d="M20.39,13.42l-.07-.04.05.04.17.29.49.42.17.09.24.05.14-.02.16-.13.08-.14.05-.2-.04-.27-.07-.19-.15-.26-.11-.12-.31-.3-.23-.14-.02.03.16.12"/>
  <path class="cls-1" d="M22.74,13.05l.02.07.03-.08-.13-.09-.34-.43-.65-.61-.02-.05h-.04s.15-.25.15-.25l.54-.33.14-.04.12.02.09.04.14.14.05.08.02.11-.05.15-.4.59-.16.09"/>
  <path class="cls-1" d="M35.96,15l-.03.06v-.5s-.03-.1-.03-.1l.03-.7-.04-.45.73-.06h.32"/>
  <path class="cls-1" d="M36.14,14.28l-.02.06.32-.1.52-.02"/>
  <path class="cls-1" d="M37.72,13.32l-.04-.02.05.03v.07s.03,1.01.03,1.01l.05.32-.06.19.51-.03.39.05"/>
  <path class="cls-1" d="M39.36,15l-.07.03.07-.04.08-.15.06-.26.03-.39.15-.62.15-.3-.03-.05v.04s.23.21.23.21l.24.39.07.19.17.71.11.22.04-.03-.18-.14"/>
  <path class="cls-1" d="M39.54,14.53h.72"/>
  <path class="cls-1" d="M41.1,13.27h-.03s.09.05.09.05l.22.04.48-.02.38-.07.12.02v.03"/>
  <path class="cls-1" d="M41.74,13.39l-.03.04h.03s.06.66.06.66v1s.04.15.04.15l.04.06h.04s-.06-.01-.06-.01"/>
  <path class="cls-1" d="M47.87,13.04h-.06s.06,0,.06,0l.15-.09.91-.62.2-.19h-.02s.16.27.16.27l.12.49-.02.06.03.08v.23s-.14.36-.14.36l-.16.1-.2.05-.58.02-.16-.07-.28-.3-.18-.14.02.04"/>
  <path class="cls-1" d="M50.27,14.12l-.18-.04h-.18s-.35.21-.35.21l-.31.24-.16.25-.05.17v.26s.03.12.03.12l.11.13.14.07.13.03h.29s.45-.15.45-.15l.19-.15.08-.12.12-.45-.03-.24-.11-.15-.19-.11h-.03s.02.02.02.02l-.03.11"/>
  <path class="cls-1" d="M51.34,15.48l-.02-.02v.03s-.22.27-.22.27l-.16.28-.27.34-.09.25-.19.31.61-.25.62-.3.32-.06-.09.03.03.03-.07.18-.54.82-.05.11v.14s.03.04.03.04l.1.02.18-.04.81-.39h.08s.14-.11.14-.11"/>
  <path class="cls-1" d="M52.14,18.66l-.07.07.02.04v-.04s.54-.39.54-.39l.57-.48h-.06s.05.04.05.04v.11s-.15.45-.15.45l-.1.43-.11.6v.29s.01-.05.01-.05l.25-.25.69-.48.51-.42.11-.14v.03s.05,0,.05,0l-.18.07"/>
  <path class="cls-4" d="M18.14,29.54l-.05-.03.07.11.04.19.08,1.13.06.16.39-.16.3-.07h.22s.53.11.53.11"/>
  <path class="cls-4" d="M20.72,29.58l-.05-.06h-.09s-.14.11-.14.11l-.13.17-.07.23v.32s.05.15.05.15l.14.25.23.22.1.05h.11s.27-.09.27-.09l.32-.32.17-.32-.05-.24-.24-.26-.23-.13-.14.03.05.09"/>
  <path class="cls-4" d="M22.81,29.57h.03s-.06-.02-.06-.02l-.11.03-.19.14-.13.14-.07.2v.26s.06.26.06.26l.18.36.08.09.1.04.24-.02.26-.16.22-.3.04-.13v-.24s-.07-.22-.07-.22l-.07-.11-.13-.15-.17-.06h-.06s0,.06,0,.06l.05.19"/>
  <path class="cls-4" d="M24.37,30.89l.07-.02h-.02s-.01-.14-.01-.14v-.58s-.09-.68-.09-.68l-.06-.16-.03-.03-.03.02.61.06.33.08.19.14.14.18-.15.24-.25.18-.24.05-.48.02-.06.02v.04"/>
  <path class="cls-4" d="M4.25,37.85l-.09.14.05-.05.1-.78.28-.96.24-.53-.03.03h.04s.15.27.15.27l.21.56.26.51.09.31.17.39.06.07v.02s-.05-.05-.05-.05"/>
  <path class="cls-4" d="M4.49,36.99l.02.05.61-.03"/>
  <path class="cls-4" d="M6.48,37.46l.06-.04.04-.39-.08-.51-.05-.13-.04-.4h-.04s.15.07.15.07l.08.08.42.6.3.36.48.5.13.06-.04-.32-.16-.7-.06-.85v-.04s-.03,0-.03,0l.04.03"/>
  <path class="cls-4" d="M9.77,35.94l.02-.13-.05-.04h-.32s-.18.1-.18.1l-.33.25-.18.23-.05.17-.06.37.02.27.18.29.13.11.21.11.35.07.58.03.17-.03-.16-.86-.13-.1h-.14s-.19.04-.19.04l-.16.09"/>
  <path class="cls-4" d="M11.08,35.85l-.08-.02.03.02-.08.29-.02.37.02.8.08.26.23.02.6-.1h.27"/>
  <path class="cls-4" d="M12.7,37.28v-.08s-.12-.62-.12-.62v-.74s.01.05.01.05l.23-.16.23-.05h.34s0,.04,0,.04"/>
  <path class="cls-4" d="M12.76,36.58v.03s.02.01.02.01l.39-.13.19-.03.12.06.08.09"/>
  <path class="cls-4" d="M12.99,37.44l-.04.12.05-.06.35-.03.77.08"/>
  <path class="cls-4" d="M47.5.61v-.04s-.13,0-.13,0l-.26.15-.14.23-.05.27-.05.09.08.29.27.42.12.07h.21s.28-.14.28-.14l.34-.38.09-.15.03-.14-.03-.13-.14-.24-.27-.27-.15-.08h-.16s-.04.04-.04.04l.02.14"/>
  <path class="cls-4" d="M49.19,2.21h.06s0-.58,0-.58l-.03-.31-.14-.58.02-.08.09-.07.11-.04.34-.02.25.03.2.12.04.07v.17s-.06.16-.06.16l-.22.15-.25.11-.3.04"/>
  <path class="cls-4" d="M42.75.68v-.05s-.03.04-.03.04l.03.67-.08.77v.14s.07.04.07.04h-.03s.49-.01.49-.01l.71.03"/>
  <path class="cls-4" d="M45.16.62h.03s-.03.03-.03.03l-.1.03-.21.15-.14.21-.07.52.04.38.07.14.15.12.35.09.22-.06.24-.14.16-.2.11-.31v-.23s-.02-.11-.02-.11l-.21-.27-.28-.23-.22-.02-.03.05.02.07"/>
  <path class="cls-4" d="M30.4,3.06l-.06.02.05-.09.07-.27.19-1.11.05-.53.16.19.16.51.23.54.24.39.08.03.06-.07.53-1.59.14.37.26,1.06.14.21.08.07"/>
  <path class="cls-4" d="M33.69,3.03v.04s.03-.08.03-.08v-.41s-.13-.54-.13-.54l-.13-.84.05-.06.18-.05.55.03.16.05.07.05.07.07.05.15v.17s-.04.12-.04.12l-.14.17-.7.12-.12.09"/>
  <path class="cls-4" d="M26.81.99v-.05s.07.16.07.16l.19.81v.38s-.07.44-.07.44l-.13.2-.09.06-.44.17-.24.03h-.02s.02-.04.02-.04"/>
  <path class="cls-4" d="M28.09.98l-.04.38.02.46.06.35.13.44.27.46.21.13h.1s.15-.04.15-.04l.11-.11.25-.35.09-.19.1-.48-.02-.46-.07-.62-.03.03.06.02"/>
  <path class="cls-4" d="M30.53,4.43h.09s-.18-.05-.18-.05l-.29.03-.45.18-.19.12-.12.12-.08.18v.43s.06.31.06.31l.32.47.19.18.17.1.38.02.6-.2-.03-.02-.04-.26.02-.34-.03-.2-.14-.07-.19-.03-.31.04h.03s-.01.01-.01.01l.05.04"/>
  <path class="cls-4" d="M31.84,4.43l.11,1.68.1.22h-.05"/>
  <path class="cls-4" d="M31.88,5.37v.06s.23-.02.23-.02l.63-.13"/>
  <path class="cls-4" d="M32.88,4.5l-.03.06h.04s.02.22.02.22l.16.64.08.66.07.16.03-.02v-.06"/>
  <path class="cls-4" d="M33.74,4.47l-.05.03.48-.11.62-.09h.45s.14.03.14.03"/>
  <path class="cls-4" d="M34.67,4.25l-.09.14.17,1.28.03.6.04.09v-.11"/>
  <path class="cls-4" d="M26.04,6.46v-.04s-.01.04-.01.04l.03-.04-.06-.24-.04-.41-.03-.86.11-.37.07-.08.15-.07h.25s.18.09.18.09l.25.17.07.16v.13s-.1.22-.1.22l-.11.16-.18.12-.34.12h.05s.03.14.03.14l.16.15.22.09.32.19.26.24.11.04h.06"/>
  <path class="cls-4" d="M28.17,4.56h.08s-.03.02-.03.02l.06.5.08.38.02.38.05.12-.1.59"/>
</svg>