<?xml version="1.0" encoding="UTF-8"?>
<svg id="vector" xmlns="http://www.w3.org/2000/svg" viewBox="0 0 69.73 55.51">
  <defs>
    <style>
      .cls-1 {
        stroke-width: 3.12px;
      }

      .cls-1, .cls-2, .cls-3, .cls-4, .cls-5 {
        fill: none;
        stroke-linecap: round;
        stroke-linejoin: round;
      }

      .cls-1, .cls-2, .cls-4, .cls-5 {
        stroke: #7fa0af;
      }

      .cls-2 {
        stroke-width: 3.48px;
      }

      .cls-3 {
        stroke: #000;
        stroke-width: 1.78px;
      }

      .cls-4 {
        stroke-width: .4px;
      }

      .cls-5 {
        stroke-width: .6px;
      }
    </style>
  </defs>
  <path class="cls-2" d="M31.13,17.49l-.11.06.16-.25-.15-.1v-.49s.42-.84.42-.84l.93-.49.89-.21h2.36s3.53.57,3.53.57l1.63,1.47-.13.85-.3.5-1.66.68-1.04.22-1.65.04-1.75-.23-1.35-.94.08-.31-.15-.1.14-.33,1.52-.68,2.79-.03,1.38.29.33.42-.95.6-2.2.48-2.71-.07-1.3-.51h-.37s-.19.25-.19.25l.74.42,2.19.39"/>
  <path class="cls-1" d="M51.88,27.55l-1.07-1.11-.43-.77-.6-.64-1.87-3.01-1.56-4.04-.23-.24-.73-3.78-.02-.56.45-1.49.54-.4.42-.62,1.11-.62,1.34-.08,1.11.3.68.4.62.9,1.12,3.26.24,3.04.21.74-.07.86.22,1.22-.1.21.15.26.51,4.27-.23,1.85-.55.31-.84-.02-.78-1.25-.67-2.01-.43-.75-1.07-3.41-.8-1.83-.7-3.07-.1-.92.13-1.06.36-.54,1.01-.1.5.36.39.64.43,1.78.48,6.01.39,2.38.16-.16.08-1.13-.17-2.72-.77-3.31"/>
  <path class="cls-2" d="M22.09,34.27v.2s-.6-.31-.6-.31l-1.27-1.41-.32-1.64v-.91s1.03-3.16,1.03-3.16l1.86-3.1,1.41-1.84,2.06-1.67.79-.22.29.13.4,1.45-.12,2.46-.69,4.2-1.12,3.7-.89,1.5-.7.46-.93.12-.47-.28-.59-.87-.19-1.42,1.26-4.9.86-1.74,1.02-1.53.5-.04.1.83-.94,4.13-.81,2.22-.24-.08"/>
  <path class="cls-2" d="M10.12,39.74l-.22-1.38.65-1.73.94-1.68.92-1.04,1.93-1.37.96-.24.29.19.02.24-.35,1.35-2.38,4.32-.94,1.08-1,.4-.68-.29-.25-1.21.19-1.75.77-1.83,1.01-1.59,1.13-.93,1-.49,1.1-.03.43.28.18.7-.29,1.62-.54,1.28-1.11,1.81-.84.94-1.02.59"/>
  <path class="cls-3" d="M35.35,17.52l.04.11.02-.08h.14s.96.22.96.22l2.08.08,1.79.21,1.38.02,3.41-.46,1.63-.62,1.59-.86,1.39-.98.79-.71.29-.42.38-.81-.06-.85-.74-1.18-.48-.39-.67-.2-1.27.05-.67.25-.73.62-.43.59-.14.57v1.95s.8,2.8.8,2.8l1.11,2.41,2.31,3.81,2.56,3.16.19.19h.21s-.3-.11-.3-.11"/>
  <path class="cls-3" d="M10.97,38.37l-.11.13.04-.23.47-1.19,1.15-2.04.6-.83,1.05-1.19,1-.96,1.27-1.02,2.45-1.52,1.05-.49.95-.28.81-.05.83.24.76.47,1.17,1.12.64.89.18.39.09.48-.04.4-.37.71-.45.42-.66.28-.46.06-1.24-.22-.86-.52-.37-.44-.24-.47-.13-.66.15-1.54.15-.63,1.57-3.72.61-1.1.89-1.33,1.46-1.94,1.13-1.28,3.43-3.12"/>
  <path class="cls-3" d="M2.68,27.52l-.12.07.11-.05.14.15.91,1.21,2.8,3.23,1.19,1.81,2.01,2.61.25.47,1.12,1.23-.47-.2"/>
  <path class="cls-4" d="M63.21,14.81l-.02.06.08-.04-.06-.22v-.43s-.06-.14-.06-.14l-.11-.79-.02-.6-.03-.04h.3s.46.16.46.16l.28.14.3.24.09.14.02.11v.07s-.06.05-.06.05l-.26.14-.88.17"/>
  <path class="cls-4" d="M61.04,13.03l-.03.11-.03-.03h.04s0,.03,0,.03l-.32.4-.07.18-.07.61.09.43.06.12.2.21.24.04.22-.04.06-.03.1-.13.36-.56.11-.33v-.22s-.09-.23-.09-.23l-.1-.13-.41-.33-.08-.02h-.1s-.09.07-.09.07l-.02.13.05.11"/>
  <path class="cls-4" d="M56.21,12.84l-.05-.02.03.03v1.01s-.04.25-.04.25l-.05,1.02v.2s.03.07.03.07l.06.04h-.05s.76-.13.76-.13l.24.04.39.14h.19"/>
  <path class="cls-4" d="M58.78,13.23l-.09-.09.02.04-.09.13-.13.34-.07.45v.31s.04.26.04.26l.09.23.11.21.2.14h.15s.19-.09.19-.09l.29-.43.11-.33.08-.57-.05-.22-.15-.16-.28-.18-.17-.04h-.09s.03.04.03.04"/>
  <path class="cls-4" d="M57.05,22.42l-.02.06v-.02s.29,0,.29,0l.29-.04.24-.09"/>
  <path class="cls-4" d="M57,23.24l-.04.13.03-.04.43.04.72-.04"/>
  <path class="cls-4" d="M56.75,18.7h-.05s.06,0,.06,0v-.05s-.04-.13-.04-.13l-.05-.42v-.34s-.09-.43-.09-.43"/>
  <path class="cls-4" d="M56.1,18.01l-.04.07.05-.04.46-.1.62-.04h.45"/>
  <path class="cls-4" d="M67.32,18.56l.02.02.03-.07v-.19s-.04-.5-.04-.5l-.03-.92-.06-.17.21.17.16.2.37.52.26.43.59.62h-.05s.12-.33.12-.33l.03-.22v-.81s-.04-.69-.04-.69l-.07-.2-.06-.06v-.14s.01.03.01.03"/>
  <path class="cls-4" d="M61.95,17.01l-.05-.05h.05s.01.01.01.01l-.08.07-.08.14-.09.22-.02.39-.04.08v.42s.07.32.07.32l.11.22.29.22.26.02.18-.08.17-.14.2-.31.1-.35v-.55s-.13-.24-.13-.24l-.11-.12-.22-.16-.26-.04v.1"/>
  <path class="cls-4" d="M63.89,17.17l-.1-.06h.06s.05.11.05.11l.29.93.32.61.11.04.04-.03.2-.81.06-.41.06-.15.02.04.16.08.09.12.18.6.15.38.06.09.11.07.06-.02v-.08s.05-.12.05-.12l.22-.99.11-.32.03-.18v-.05s-.02.02-.02.02v.07"/>
  <path class="cls-4" d="M59.12,18.88l.03.07.04-.02h-.04s.04-.35.04-.35l.02-.83-.09-.7-.09-.27h-.05s.15-.12.15-.12h.23s.5.27.5.27l.33.28.36.44.09.47-.11.29-.21.19-.33.16-.65.2.02.02"/>
  <path class="cls-4" d="M37.75,27.97l.06.08.03-.02h-.03s-.03-.27-.03-.27l.05-.4-.06-.17-.07-.54-.11-.41-.03-.03.03.03.31-.03.3.07h.34s.18.05.18.05l.29.23.1.31v.06s-.25.14-.25.14l-1.07.06-.13.04.1.02"/>
  <path class="cls-4" d="M30.75,26.53l-.07-.18h.05s.04.06.04.06l.03.29v.44s-.02.2-.02.2l.04.13v.32s.01.31.01.31l.04.18.03.03v-.04s.06,0,.06,0h-.09s.16.03.16.03l.95-.1h.4"/>
  <path class="cls-4" d="M33.71,26.45l-.1-.09-.09.02-.22.14-.29.3-.14.35-.02.52.05.17.07.09.18.14.16.07.31-.03.23-.14.19-.22.14-.24.05-.2v-.24s-.07-.17-.07-.17l-.13-.12-.26-.08-.03.03h-.04s.05,0,.05,0"/>
  <path class="cls-4" d="M35.69,26.39l-.1-.04h.02s-.07.03-.07.03l-.18.21-.22.63-.02.15.05.34.18.32.08.06.2.06h.29s.17-.05.17-.05l.09-.11.23-.16.19-.23.09-.18.07-.27-.15-.19-.52-.45-.17-.07-.14-.02v.05s.11.11.11.11"/>
  <path class="cls-4" d="M30.42,31.33v.12s-.01-.02-.01-.02l.03-.02-.03-.02-.06-.33.04-1.07"/>
  <path class="cls-4" d="M29.92,30.85l.06-.1.03.04.89.02.28.07"/>
  <path class="cls-4" d="M34.72,31.28l-.09.22.1-.07-.07-.21-.02-.28-.09-.2v-.31s-.07-.45-.07-.45l.02-.27.08-.06v-.04s.15-.09.15-.09l.39-.02.13.05.44.29.08.1-.02.36-.14.17-.09.07-.46.17-.43.06"/>
  <path class="cls-4" d="M32.59,29.86v.02s-.02-.03-.02-.03l.02.09-.1.34-.02.28.14.27.04.29.09.23.2.16h.1s.19-.05.19-.05l.02-.08.08-.06.1-.15.03-.14.07-.12.06-.57-.14-.49v.06s.1.09.1.09"/>
  <path class="cls-4" d="M28.87,34.03l.02.12h.02s.04-.02.04-.02l.13.13.18.05h.2s.35-.14.35-.14h.21"/>
  <path class="cls-4" d="M28.87,35.31l.46.03.48-.02.17.04.23.11"/>
  <path class="cls-4" d="M14.17,43.17l.06.52-.02.93.05.37.05.07.36-.16h.56"/>
  <path class="cls-4" d="M16.17,44.8l-.07-.61-.16-.95-.06-.17v.02s.32-.05.32-.05l.47.1.06.02.02.05"/>
  <path class="cls-4" d="M16.15,44.09l.03.03.42-.1.31.04"/>
  <path class="cls-4" d="M16.22,44.98l-.08.09.61-.18h.49"/>
  <path class="cls-4" d="M7.2,45.03l-.06.06.04-.03.05-.3.13-.33.15-.85.15-.51h-.02s.07-.02.07-.02l.07.05.13.19.2.42.07.27.15.23.39.88"/>
  <path class="cls-4" d="M7.49,44.33l.02.07.65-.06"/>
  <path class="cls-4" d="M9.63,44.81v.04s.03-.03.03-.03l-.11-.4-.24-1.35.19.16.59.68.57.83.21.13.03-.07.04-.68-.13-1.1-.02.07"/>
  <path class="cls-4" d="M13.12,43.12l-.17-.04-.23.02-.39.19-.27.23-.14.17-.13.25-.03.46.06.17.14.19.26.16.44.11.33.03h.31s-.02-.01-.02-.01l.03-.2-.05-.32.04-.35-.02.03-.51.07"/>
  <path class="cls-4" d="M8.2,48.11v.14s.04-.12.04-.12l-.04-.67-.04-.53-.08-.11.03-.03"/>
  <path class="cls-4" d="M7.41,47.54l.82.05.55-.12"/>
  <path class="cls-4" d="M13.27,48.07h.06s.04-.04.04-.04h-.02s.04-.02.04-.02l-.08-.11-.08-.29-.05-.62v-.31s.04,0,.04,0l-.04-.02.06-.11.2-.07.39.09.23.11.09.11.09.19v.05s-.04.18-.04.18l-.18.17-.68-.02-.18.05-.06.09"/>
  <path class="cls-4" d="M10.69,46.66l-.1-.11.06.11-.02.19.04.36.12.35.11.49.09.19.11.1.3.07h.15s.16-.06.16-.06l.14-.11.17-.26.06-.17.12-.73-.03-.23-.21-.39.04.02-.02.05.11.18.14.12"/>
  <path class="cls-4" d="M7.73,51.45l-.17.05h-.02s.09-.04.09-.04h.12s.15.08.15.08l.14.02.55-.04.18.07"/>
  <path class="cls-4" d="M7.81,52.5h-.14s.15-.04.15-.04h-.02s.04.02.04.02l.65.02.41.06h.18s.03-.07.03-.07"/>
  <path class="cls-4" d="M29.53,9.85l-.05.03v-.02s.37-.02.37-.02l.84.05.16.04"/>
  <path class="cls-4" d="M29.75,10.52l-.02.07v-.03s.49.07.49.07l.68.02"/>
  <path class="cls-4" d="M29.96.85l.07.45.03,1.09-.03.25-.08.22-.16.19-.21.06h-.29s-.24-.09-.24-.09l-.07-.07"/>
  <path class="cls-4" d="M31.1.79l-.05.37v.26s.17.97.17.97l.14.38.07.1.27.17.17-.02.23-.2.21-.29.11-.26.06-.32v-.29s-.13-.67-.13-.67l-.04-.1h-.04s.07.09.07.09"/>
  <path class="cls-4" d="M33.38,2.79l.02.03.15-.51.09-.49.19-.71v-.18s.13.11.13.11l.28.86.24.51.11.16.05.02h.03l.05-.06.08-.17.43-1.35h.03s.13.27.13.27l.08.27.21,1.01.07.11.13.03"/>
  <path class="cls-4" d="M36.79,2.93l-.03-.04v-.48s-.22-1.47-.22-1.47l.02-.03.08-.08.15-.05h.25s.18.03.18.03l.23.12.17.23.09.22-.07.2-.2.19-.24.08h-.21s-.09-.04-.09-.04"/>
  <path class="cls-4" d="M39.71,2.57l-.02.02-.09-.22-.07-.47.02-.44.08-.4.08-.09.23-.11.28-.03.08.02.18.08.25.21-.05.26-.16.16-.62.28v.02s.12.23.12.23l.09.09.49.29.31.36.09.06h.06"/>
  <path class="cls-4" d="M41.73.85l.04.02.03.93-.05.54.03.09h.03s0-.15,0-.15"/>
  <path class="cls-4" d="M43.79.75l.1-.07v-.03l-.05-.03h-.16s-.52.31-.52.31l-.14.15-.16.24-.07.25v.29s.14.26.14.26l.38.24.33.09h.27s.24-.09.24-.09l.04-.02.02-.12-.04-.39.02-.17-.04-.06-.14-.05h-.25s-.14.02-.14.02l.08.08"/>
  <path class="cls-4" d="M45.01.58l-.04-.05.03.04.02.39-.03.47.12.66v.45s.05.12.05.12h.05"/>
  <path class="cls-4" d="M45.13,1.63l-.02-.02.16.04h.35s.57-.17.57-.17"/>
  <path class="cls-4" d="M46.17.68h.06s.02.29.02.29l.04.16v.4s.08,1.01.08,1.01l.06.14.1-.05"/>
  <path class="cls-4" d="M47.16.78l-.12.09.71-.05.66-.14.03-.04"/>
  <path class="cls-4" d="M47.91.71l-.11.13-.02.13.07.35.08,1.09.08.32.02.03v-.11"/>
  <path class="cls-4" d="M35.84,6.45h-.02s-.02-.18-.02-.18l.03-.36.34-1.23.05-.33.14.08.08.09.27.63.29.82.26.44.11.09h.03s-.06-.04-.06-.04"/>
  <path class="cls-4" d="M35.95,5.51l.04.05.48-.03.21-.05"/>
  <path class="cls-4" d="M37.71,4.49l-.11.03,1.07-.03.27-.04.38-.1"/>
  <path class="cls-4" d="M38.55,4.54l-.06.09.05,1.12-.02.2.04.45.06.07h.03s0-.06,0-.06"/>
  <path class="cls-4" d="M29.69,6.08v.02s-.03-.02-.03-.02l.02-.03-.04-.4-.1-.79-.02-.02.03-.11"/>
  <path class="cls-4" d="M29.09,5.21l-.02.12.02-.04h.11s.53.15.53.15l.63.02"/>
  <path class="cls-4" d="M31.65,6.42h-.06s.03-.03.03-.03v-.14s-.17-.93-.17-.93v-.44s-.05-.19-.05-.19h-.04s.24-.07.24-.07l.54.04h.38s.05.01.05.01l.03.08"/>
  <path class="cls-4" d="M31.69,5.68l-.04.02.42-.02.52-.05"/>
  <path class="cls-4" d="M33.76,4.38l-.1.1.06-.02-.1.48-.04.85-.05.34.04.19v.2s.42-.07.42-.07l.54.02.33-.03"/>
  <path class="cls-4" d="M5.67,20.01h.07s-.01.04-.01.04h.06s-.02-.02-.02-.02l.12-.23.35-.53.16-.29.06-.19.3-.59.1-.11.25-.48.1-.12.07-.04-.04-.03-.07.02"/>
  <path class="cls-4" d="M5.52,17.59l-.09.02h.08s.03.03.03.03l.06.26.37.59.27.32.18.28.14.14.4.56.21.2.02.06h.04"/>
  <path class="cls-4" d="M5.32,19.04l-.03.09.02-.04h.23s1.51-.29,1.51-.29l.6-.03.14-.04"/>
  <path class="cls-5" d="M1.28,25.22v.14s.05-.1.05-.1l-.03-.2.05-.32v-.81s-.1-1.27-.1-1.27l-.16-.82.02-.22-.05.02.04-.02v-.14s-.04-.1-.04-.1h.08s.56.72.56.72l.44.75.54.69.45.69.78.94.14.27.15.16.12.02-.06-.05h.03s.03-1,.03-1l-.09-.47v-.67s-.07-.45-.07-.45l.06-1.27-.07-.26.07-.3-.09.08v.12"/>
  <g>
    <path class="cls-5" d="M9.92,49.88l.54.02.99-.09,1.93.12"/>
    <path class="cls-5" d="M11.79,49.83l-.04.07.06.19v.71s.07.55.07.55l.12,1.96.19.87v.14s-.09-.06-.09-.06l.02-.15"/>
  </g>
  <path class="cls-5" d="M32.14,37.4l-.07.06.09-.08-.03-1.07-.28-3.16.03-.29-.07-.03.72.08.46.17.34.29.17.32v.37s-.1.19-.1.19l-.35.3-.37.22-.51.2h.07s.22.35.22.35l.59.55,1.92,2.08h.04s-.14-.05-.14-.05"/>
  <path class="cls-5" d="M32.85,12.21v.12s-.04.03-.04.03l.1-.12-.02-.84-.18-1.44-.21-1.23v-.18s-.07-.05-.07-.05v-.12s-.05.01-.05.01l.47-.08h.29s1.42.37,1.42.37l.47.19.38.24.13.16.06.29.07.12.04.55-.07.5-.18.52-.08.15-.34.39-.92.46-.57.07-.27-.02.09-.04"/>
  <path class="cls-5" d="M63.14,21.23l-.04-.15-.25-.22-.6-.21-.69-.04-.53.13-.29.13-.24.16-.26.27-.17.29-.12.32-.14.66-.02.5.05.43.21.74.31.45.44.3.65.23.45.02,1.36-.29h.23l.09-.05h-.05s-.02-.04-.02-.04"/>
</svg>