<?xml version="1.0" encoding="UTF-8"?>
<svg id="vector" xmlns="http://www.w3.org/2000/svg" viewBox="0 0 85.72 18.71">
  <defs>
    <style>
      .cls-1, .cls-2 {
        stroke: #000;
      }

      .cls-1, .cls-2, .cls-3, .cls-4 {
        fill: none;
        stroke-linecap: round;
        stroke-linejoin: round;
      }

      .cls-1, .cls-3 {
        stroke-width: .4px;
      }

      .cls-2, .cls-4 {
        stroke-width: .6px;
      }

      .cls-3, .cls-4 {
        stroke: #7fa0af;
      }
    </style>
  </defs>
  <path class="cls-4" d="M1.11,10.22h-.02v.04s.04.02.04.02l.24-.11.58-.41.21-.16.25-.3.59-.46.6-.53.75-.72.29-.37.4-.42.22-.15.78-.71.39-.42.35-.29.61-.57h-.03s.08-.04.08-.04v-.02s-.02,0-.02,0l.05-.02-.07.03"/>
  <path class="cls-4" d="M13.31,7.59l-.04.03.04-.02v.04h.4l.41.04.85-.06.34.02.85-.13h.96l.77-.09h.64s1.37-.04,1.37-.04l.71-.07h.43s.13.05.13.05h.03s-.14-.09-.14-.09"/>
  <path class="cls-4" d="M27.6,4.52l-.04.06.11.06.11.14.7.58.25.32.18.15.42.49.52.4.18.21.33.27.17.19.11.06.35.38.47.35.12.16.17.14.69.75.38.33.18.1-.02.02.15.04.04.07.11.04v.04s.05-.04.05-.04l-.14-.07"/>
  <path class="cls-4" d="M43.61,8.32l.17-.05h-.03s-.17-.19-.17-.19l-.44-.12h-.43l-.36.04-.31.1-.25.13-.28.21-.11.17v.07s-.08.28-.08.28l-.02.23.02.35.13.3.18.2.36.05.3-.05.36-.17.6-.46.97-1.02.65-.58.48-.58.75-.65,1.11-1.08.93-1.04.33-.3h-.02s.07-.02.07-.02l-.07.02h.04s-.03.01-.03.01l.02.07"/>
  <path class="cls-4" d="M58.65,5.51l.04-.02.03.04v.13s-.1.14-.1.14l-.2.18-.47.27-.34.06h-.5l-.34-.07-.23-.14-.2-.22-.11-.18-.06-.18v-.48s.09-.23.09-.23l.29-.29.31-.1h.34l.49.23.54.31,1.06.71,1.41,1.19.09.16.3.25.36.44.2.19.28.44.42.44.33.39.33.31.07.11.25.18h-.08l.02-.03-.07-.08v-.06"/>
  <path class="cls-4" d="M71.91,4.99l-.05-.15.17.04.11.17.49.42.4.43.45.34.75.76.56.45.05.07.48.35.42.39.14.2.13.1.25.15.23.19.13.06.2.24.16.12.06.1.28.26.13.06v.03s.12.07.12.07l.07.05v.04s.15.1.15.1v-.04h-.07l.07-.99-.1-1.35-.06-.28.1-.74-.02-.34.03-.1v-.34s.04-.25.04-.25v-.1s-.07-.09-.07-.09v-.25s.09-.25.09-.25l-.03-.15.04-.17-.05-.09.03-.14.06-.05h-.08s.05,0,.05,0l-.08-.05-.02-.09v.03s.07-.01.07-.01h-.1s.08.01.08.01h-.06s.03-.09.03-.09l-.02-.08.07.04-.06-.02.02.03-.04.08"/>
  <path class="cls-4" d="M77.87,4.09l1.47.15,1.56.09,1.31.05h2.31l.53.09.03-.02-.09-.04"/>
  <path class="cls-4" d="M71.15,9.3l.16-.17-.03-.12-.12-.08h-.13s-.07.02-.07.02l-.06.12v.18s.07.16.07.16l.11.05.18-.03.11-.12.03-.12v-.15s-.13-.13-.13-.13l-.09-.03-.17.03-.08.08v.09s-.01.14-.01.14l.08.12.12.04.14-.03"/>
  <path class="cls-3" d="M1.18,15.47l-.03.09.02-.08.07-.03.63.04,1.1-.08.46.07.11-.08"/>
  <path class="cls-3" d="M2.44,15.48h-.08s.05-.02.05-.02l.02.04v.25s.11,1.44.11,1.44l.03.76.11.24-.04-.03v-.15"/>
  <path class="cls-1" d="M4.52,17.89l.02.05.06-.07-.06-.76v-1.01s-.05-.44-.05-.44l-.02-.42h.05s-.04.03-.04.03h.24s.43.11.43.11l.57-.02-.02.03v-.03s0,.03,0,.03"/>
  <path class="cls-1" d="M4.73,16.3l.84-.02.42.09.11-.08"/>
  <path class="cls-1" d="M4.61,17.84l.61.13.7.06h.16"/>
  <path class="cls-1" d="M6.84,17.71h.07l.25-.78.12-.76.09-.34.07-.57.09-.18-.05.03.06-.02.17.26.63,1.65.13.24.24.33-.07-.05"/>
  <path class="cls-1" d="M7.15,16.73l.32-.04h.77"/>
  <path class="cls-1" d="M18.91,17.55l-.02.06h.06s-.04-.03-.04-.03v-.57s.21-.79.21-.79l.09-.63.1-.25.06-.4.06-.03.02-.06h-.02s.26.19.26.19l.14.18.14.44.2.49.2.39.3.79.16.13h-.05l-.06-.06"/>
  <path class="cls-1" d="M19.29,16.36h.56s.41-.09.41-.09"/>
  <path class="cls-3" d="M15.2,15.43h.08s.01-.12.01-.12l-.17-.09-.42-.06-.32.05-.23.14-.11.13-.04.23v.22s.1.26.1.26l.23.25.36.2.28.08.44.19.11.13.07.14v.24s-.18.24-.18.24l-.3.14-.2.06-.45.07-.22-.04-.21-.11v.04"/>
  <path class="cls-1" d="M16.49,17.73v.12s.03-.02.03-.02l.03-.44-.03-.45-.06-.39-.12-1.37-.04-.06.91-.04.25-.08.1.04"/>
  <path class="cls-1" d="M16.62,16.33l-.06.04h.04l1.05-.1.23.04.11.06"/>
  <path class="cls-1" d="M16.53,17.75l.67-.05h.78"/>
  <path class="cls-1" d="M30.51,17.76v-.22s.08-.4.08-.4v-.19s0-.53,0-.53l-.11-1.02v-.26s.03-.11.03-.11h-.03s.62.11.62.11l.43.1.2.07.2.02"/>
  <path class="cls-1" d="M30.96,16.51v.04s.88,0,.88,0l.3.06"/>
  <path class="cls-1" d="M30.94,17.68l-.13.04h.11l.2.08.24.03.23-.02.51-.13"/>
  <path class="cls-1" d="M33.02,17.76h-.07l.05-.03.03-.28.15-.52.2-1.31.13-.42.11-.21.02.03-.06.03.02-.02.27.31.35.55.33.89.3.6.09.09-.04-.02"/>
  <path class="cls-1" d="M33.35,16.72l.38.02.76-.11"/>
  <path class="cls-3" d="M27.22,17.69l.02.06.03-.02-.08-.68v-.89s-.06-.37-.06-.37l.04-.17-.02-.22.04-.26v.03s.07,0,.07,0l.17.12.12.14.2.3.26.28.56.86.42.46.16.28.28.23v.03s.06-.19.06-.19l.05-.46.04-1.17-.1-.66.05-.25h.02l-.02.15"/>
  <path class="cls-1" d="M47.35,15.39l-.03-.09h-.07l-.39.26-.2.25-.18.34v.66s.18.28.18.28l.33.27h.26l.68-.41.19-.24.13-.22.03-.38-.06-.17-.25-.4-.24-.2-.25-.08-.19.03.03.03v.11"/>
  <path class="cls-3" d="M42.29,17.78l.12-.08-.05-.28v-1.08s.18-.57.18-.57l.04-.24.27-.3.11-.06.2-.05h.26l.27.07.29.2.06.11v.28s-.09.12-.09.12l-.19.13-.88.35v.04h.03l-.02.06.04.12.17.2,1.08.82.35.32.04.11"/>
  <path class="cls-1" d="M45.34,17.67l.05.03-.04-.03.03-.02.12-1.71-.03-.45-.08-.34.02.03v-.03s0,.03,0,.03l.07.18"/>
  <path class="cls-1" d="M62.1,15.53l.04-.08-.17-.07-.13.03-.19.1-.23.17-.24.35-.12.36v.28s0,.13,0,.13l.12.31.13.18.21.15.28.07h.43l.21-.04.31-.12.19-.11.22-.23.02-.53-.09-.32-.2-.38-.45-.41-.32-.09h-.16"/>
  <path class="cls-3" d="M58.52,15.67l-.12-.09-.24-.06-.44.02-.37.14-.29.24-.11.16-.14.48v.35s.07.22.07.22v.14s.32.34.32.34l.27.18.16.05.44.03.63-.13h.36"/>
  <path class="cls-1" d="M59.79,15.45l.04.21-.03.2.15,1.1.06.73.03.08.02-.02-.05-.1"/>
  <path class="cls-3" d="M73.94,17.35l-.03.03.06-.02.03-.06-.17-.95.02-.24-.05-.29.03-.28v-.51s-.08-.2-.08-.2l.03-.08.06-.02v.06s-.04.02-.04.02l.21.16.31.33.12.09.17.27.1.07.17.22.34.56.5.47.22.26.08.06.03.08.07.03-.05.03.06-.03.03-.07-.03-.13.02-.96-.1-.33v-.14s.04-.23.04-.23l-.02-.15.06-.57v-.02s-.05.01-.05.01v.03"/>
  <path class="cls-3" d="M71.02,17.35v.05s.06,0,.06,0v-.16s-.07-.5-.07-.5v-.25s-.04-.52-.04-.52l.03-.21-.06-.23-.02-.51.06-.02-.03.04.12.13.07.03.31.41.12.21.16.39.22.37.08.08.02.11.21.23.23.34.08.05.04.14.03.02h-.06l.07-.05.04-.1-.02-.11.11-.47v-.93s-.06-.3-.06-.3l.07-.52-.05-.07.03.03-.05.07v.08"/>
  <path class="cls-1" d="M77.91,15.24l.06-.08h.04s-.08,0-.08,0l-.31.14-.18.18-.24.36-.02.28-.08.25.08.56.02.06.37.41.22.13.37.08.4-.05.16-.07.31-.22.19-.17.1-.15.17-.43-.03-.64-.11-.33-.09-.1-.2-.12-.09-.11-.32-.1h-.39s-.09.03-.09.03"/>
  <path class="cls-1" d="M79.89,14.92l.2.12.25.26.26.4.34.44h-.02l.12.27.62-.95.08-.17.13-.15"/>
  <path class="cls-1" d="M81.06,16.16l.04.03.04,1.12"/>
  <path class="cls-3" d="M83.82,15.01l.03-.03-.07-.04-.22-.05-.22.02-.24.08-.41.24-.13.17-.02.14.02.23.14.27.38.26.36.15.24.19.15.32v.34s-.15.18-.15.18l-.27.11-.69.03-.19-.03-.08-.05"/>
  <path class="cls-3" d="M68.28,17.34l.04-.03.39-1.11.27-.61.33-.86h-.02s.07.11.07.11l.21.55.31,1.06.31.86.08.08h-.03s-.06-.07-.06-.07"/>
  <path class="cls-3" d="M68.83,16.68l1.03-.09"/>
  <path class="cls-2" d="M.83,4.94l.34-.16.26-.06.5-.03.31.1.55.28.54.44.37.47.51.94.56,1.58.15.27.47.64.61.55.46.25.36.09.69.03.58.06.13-.09.05-.11"/>
  <path class="cls-2" d="M30.56,3.24l-.03-.15.03.06.49-.04.4.05.18.07.21.2.1.15.05.16.05.35-.04.31-.38.97-.3.54-.28.41-.28.32-.38.51-.36.4-.73,1-.19.21-.12.34-.24.45-.13.69v.24s0,.09,0,.09l.15.27.11.11.33.18.43.07.92.03.03-.04"/>
  <path class="cls-2" d="M16.22,4.08v-.03s-.02.03-.02.03h.04s.51-.18.51-.18h.2s.17,0,.17,0l.56.28.11.13.08.27v.84s-.13.57-.13.57l-.15.33-.14.56-.22.55-.62,2.1-.05.47.02.44.11.13.07.21.15.22.22.21.24.14.28.13.23.06.78.03v-.02"/>
  <path class="cls-2" d="M43.82,4.16l.05-.09v.03s.4.46.4.46l1.05,1.59.21.24.69.95,1.01,1.06.78.66.12.11v.03s-.02,0-.02,0v-.06"/>
  <path class="cls-2" d="M61.22,2.45l-.03.07.07-.02-.04.02.14.11.27.34.09.05.19.32.28.33v.07s.17.37.17.37l.06.26-.02.08.06.07.04.22-.03.36-.07.12-.03.23-.05.05-.04.23-.19.25-.46.43-.82.91-.21.13v.04s-.24.19-.24.19l-.47.57-.28.42.03.25-.07.49.03.18.08.22.33.63.33.36.09.18.14.12.18.1.33.28.05.06-.04-.02.03-.03-.04-.05"/>
  <path class="cls-2" d="M81.61,9.74l.05-.02-.05-.04-.37-.17-.2-.15-.34-.32-.9-.69-1.05-.66-.65-.52-.62-.41-1.35-1.11-.44-.28-.77-.72-.27-.32-.38-.58-.24-.43-.13-.37-.15-.6-.03-.37.04-.55.09-.21.19-.25.47-.22.5-.12h.27l.29.05.15.05.25.16.32.31.14.34.09.64v.75"/>
</svg>