<?xml version="1.0" encoding="UTF-8"?>
<svg id="vector" xmlns="http://www.w3.org/2000/svg" viewBox="0 0 44.89 16.5">
  <defs>
    <style>
      .cls-1 {
        stroke: #60889a;
        stroke-width: .48px;
      }

      .cls-1, .cls-2 {
        fill: none;
        stroke-linecap: round;
        stroke-linejoin: round;
      }

      .cls-2 {
        stroke: #000;
        stroke-width: .72px;
      }
    </style>
  </defs>
  <path class="cls-2" d="M34.89,3.73l.04.05.37.03h1.17s1.4.09,1.4.09l.73-.05,1.06.04,1.81-.08.49.04.57.12.57-.06.86.09h.15s-.08-.02-.08-.02"/>
  <path class="cls-2" d="M19.5.48h-.09s.1.01.1.01l.46.38.77.73.5.54.59.52,2,2.2.8,1.02.47.46.45.52.55.48h-.05s.04,0,.04,0l-.04-.04"/>
  <path class="cls-1" d="M18.54,10.14l-.08-.08-.24-.02-.39.12-.22.2-.06.16v.18s.07.21.07.21l.17.18.41.19.36.25.16.22.04.15-.14.11-.18.05-.7.04-.27-.05"/>
  <path class="cls-1" d="M19.56,10.05h.08s-.04.02-.04.02l.05.71.1.64v.48s-.04.18-.04.18l.27.04h.87"/>
  <path class="cls-1" d="M21.69,12l.36-.98.19-.84v.03s.13.02.13.02l.1.12.29.82.35.79.22.37.09.11h.04"/>
  <path class="cls-1" d="M22.06,11.55v.06s.56-.05.56-.05"/>
  <path class="cls-1" d="M24.06,11.9v.04s.04,0,.04,0l-.1-1.25-.11-.57.19.14.41.59.34.4.45.39.25.29.19.13v-.78s-.21-1.07-.21-1.07l.07-.03"/>
  <path class="cls-1" d="M26.63,9.99l.27.05.87-.04.25.06"/>
  <path class="cls-1" d="M27.3,10.09l-.07.29v.38s.07.54.07.54l-.03.52.03.21h.03"/>
  <path class="cls-2" d="M2.04,7.25l-.02.12.05-.02.59-.61.6-.72.62-.87.53-.54.49-.58.98-1.03,1.01-1.13.7-.69.36-.52h.05s-.05,0-.05,0"/>
  <path class="cls-1" d="M1.31,10.42l.12-.1-.06-.14-.09-.05h-.27s-.2.03-.2.03l-.16.08-.17.16-.03.18.03.21.08.22.17.23.78.52.22.18.02.08-.1.11-.2.09-.28.06h-.42s-.16-.06-.16-.06v-.03"/>
  <path class="cls-1" d="M2.59,10.22l.14.59.12,1.17-.02.11.35.04.83-.09.22.04.14.07"/>
  <path class="cls-1" d="M5.25,12.01l-.04.03.08-.26.57-1.44.07-.3.17.23.39,1.27.21.44.21.24h-.04"/>
  <path class="cls-1" d="M5.5,11.46l.37.1h.46"/>
  <path class="cls-1" d="M7.62,12.14l.08-.13.02-.29-.04-.64-.11-.87h.03s-.03.01-.03.01l.27.25.58.82.7.88.24.2-.03-.03-.03-.65-.09-.48-.03-.66-.04-.13-.04.02h.04"/>
  <path class="cls-1" d="M10.08,10.29l-.03.08.05-.03.49.02.81-.06.41.03"/>
  <path class="cls-1" d="M10.86,10.25l-.07.26.13.94v.71s.02.02.02.02l.03-.03v-.12"/>
  <path class="cls-1" d="M37.62,12.38h-.06s.05.02.05.02v.13s-.03,1.2-.03,1.2l.11.46v.17s-.04,0-.04,0l.54.04.38-.1.37-.02"/>
  <path class="cls-1" d="M39.81,14.17l.05.04.17-.6.31-1.64.05-.11-.03.02h.05s.08.15.08.15l.64,1.51.14.26.32.41"/>
  <path class="cls-1" d="M40.1,13.44l.03.09.08-.04.88-.07"/>
  <path class="cls-1" d="M42.09,12.29l.97-.03.95-.12"/>
  <path class="cls-1" d="M43.28,12.27l-.08.17v.68s.04,1.05.04,1.05l.03.16v-.07"/>
  <path class="cls-1" d="M35.15,14.28l.03-.35-.05-.8-.13-1.03.02.03,1.23.13.27.06"/>
  <path class="cls-1" d="M35.48,13.36v.06s.47-.11.47-.11l.45.02"/>
  <path class="cls-1" d="M18.1,15.83h.03s0-.08,0-.08v-.33s-.21-1.6-.21-1.6l.58.26.31.19.49.42.37.55.04.14-.03.07-.48.37-.41.16-.25-.02-.12.07"/>
  <path class="cls-1" d="M20.81,14.32l-.11-.02h.04s-.21.46-.21.46l-.06.44.04.29.11.17.18.13.26.02.15-.05.29-.2.22-.25.08-.19v-.37s-.12-.34-.12-.34l-.28-.29-.18-.08-.25-.03-.06.04.06.19"/>
  <path class="cls-1" d="M22.56,13.97l-.03.02.07.07.09.37.39,1,.07.02.23-.35.31-1.02.18.13.13.23.23.86.1.25.14.18.08-.46.29-.99.06-.32-.02-.03-.03.04"/>
  <path class="cls-1" d="M25.88,15.6l.04.04v-.16s-.08-1.55-.08-1.55l.13.08.27.31.58.85.47.55.16.14h.1s.07-.15.07-.15l.06-.51.02-1.46"/>
  <path class="cls-1" d="M4.04,13.66l-.04-.05.04.04-.09.47v.27s.06.41.06.41l.09.32.13.26.26.32.12.12.23.08h.23s.17-.15.17-.15l.1-.13.17-.4.07-.62-.09-.51-.07-.22-.06-.07h.05s0,.07,0,.07"/>
  <path class="cls-1" d="M6.52,15.95l-.03.03.03-.39-.12-1.03v-.62s-.06-.11-.06-.11l.53-.07.34.09.24.15.25.23.05.12v.12s-.09.14-.09.14l-.19.11-.72.18-.1.07"/>
</svg>