<?xml version="1.0" encoding="UTF-8"?>
<svg id="vector" xmlns="http://www.w3.org/2000/svg" viewBox="0 0 100.01 149.52">
  <defs>
    <style>
      .cls-1 {
        stroke: #60889a;
      }

      .cls-1, .cls-2, .cls-3, .cls-4, .cls-5 {
        fill: none;
        stroke-linecap: round;
        stroke-linejoin: round;
      }

      .cls-1, .cls-2, .cls-4 {
        stroke-width: .4px;
      }

      .cls-2, .cls-3 {
        stroke: #000;
      }

      .cls-3, .cls-5 {
        stroke-width: .6px;
      }

      .cls-4, .cls-5 {
        stroke: #7fa0af;
      }
    </style>
  </defs>
  <path class="cls-3" d="M2.48,76.56l.06-.07v.04s-.14-.05-.14-.05h-.19s-.37.24-.37.24l-.13.18-.09.41v.32s.13.43.13.43l.17.2.27.16.6.09.24-.05.18-.11.13-.14.07-.13v-.08s.12-.27.12-.27v-.34s-.03-.21-.03-.21l-.16-.39-.07-.07-.26-.13-.3-.07h-.26s.05,0,.05,0l.87-.47.45-.58.1-.21.29-.39.15-.31.22-.71.04-.52v-.47s-.16-.84-.16-.84l-.17-.46-.23-.36-.26-.27-.55-.31-.33-.13-.24-.04-.49.03-.19.08-.2.15-.25.28-.09.16-.17.52-.1.61.03.47.15.39.29.32.33.19.35.07.61-.09.22-.13"/>
  <path class="cls-3" d="M2.9,91.37l-.08-.06-.09-.17-.07-.05-.31-.04-.28.1-.21.14-.24.31-.08.21v.35s.12.41.12.41l.07.08.05.14.28.14.18.03.39-.05.24-.12.27-.28.11-.19.04-.12v-.19s.04-.27.04-.27l-.02-.13-.09-.18-.16-.21-.22-.08-.33-.02-.11.03h.05s-.04-.1-.04-.1l-.02-.36.1-1.01v-.54s.08-.65.08-.65l.04-.99-.11-.96.09-.53.12-.35-.05-.17v.02s-.02,0-.02,0h.04s0,.06,0,.06l-.05.13"/>
  <path class="cls-3" d="M1.97,118.08l-.02.07-.06.05.09-.04.22-.44.3-.33.25-.11.38-.07.28-.09.51.02.45.11.69.22.48.24.66.27.07.06.23.06.31.03.58-.1.52-.18.24-.17.2-.06.19-.11.31-.29.13-.07v-.05s.01.04.01.04h.03s-.02-.04-.02-.04l-.05.03"/>
  <path class="cls-3" d="M2.27,134.36h-.03s.05-.03.05-.03l-.11-.11-.04-.3-.08-.19-.02-.24.02-.23-.04-.31v-.58s.14-.37.14-.37l.05-.25.17-.27.51-.43.27-.28.3-.19.28-.28.16-.06.03-.05.13-.07.02-.05.17-.1.16-.18.44-.89.09-.1.05-.53-.02-.65.06-.09v-.1s0-.31,0-.31l.05.03-.05.02"/>
  <path class="cls-2" d="M21.56,89.2l.07.07.04-.05-.04-.26.1-.85-.08-.59-.14-.31-.12-.2.82.13h.34s.29-.02.29-.02l.06.04"/>
  <path class="cls-2" d="M21.5,88.14l-.02.15.14-.03.82-.02.14.04.13.1"/>
  <path class="cls-2" d="M21.68,89.32l-.02.07.23-.05h.38s.46.06.46.06l.61.04"/>
  <path class="cls-2" d="M24.42,89.25l-.02.12-.05.03.02-.08.31-.61.31-.51.26-.55.41-.62.07-.16"/>
  <path class="cls-2" d="M24.28,87.1l.67,1.01.66,1.07.28.27.11.07.16.03"/>
  <path class="cls-2" d="M27.8,87.08l-.05-.02h.03s-.26.07-.26.07l-.41.36-.22.34-.07.15-.02.27.03.25.11.32.15.19.04.14.17.2.49.21h.18l.27-.06.42-.26"/>
  <path class="cls-2" d="M29.54,86.88l-.11-.05-.04-.07.12.09.09.37.07.7.02.7.1.4v.23s.05.09.05.09h.03s-.01.02-.01.02l.22-.06h.32l.79.08"/>
  <path class="cls-2" d="M31.99,89.49l-.06.07.06-.04v-.09s.12-.24.12-.24l.25-.84v-.44s.09-.48.09-.48v-.22s.07-.12.07-.12l.06-.29v.05s.14.05.14.05l.17.16.15.22.08.16.05.25.07.14.26.8.2.34.1.07.07-.02"/>
  <path class="cls-2" d="M32.31,88.31l.04.15.21.07h.39l.61-.16"/>
  <path class="cls-2" d="M34.57,89.16v.04s.06-.03.06-.03l.06-.4.12-.21.09-.52.09-.22-.03-.38.04-.38h.04s0,.03,0,.03h.04s0,.03,0,.03l.11.15.2.38.15.37.03.19.11.3.06.08.03.11.19.22h.05l.14-.17.24-.5.13-.41.05-.27v-.18s-.05.12-.05.12h.05s.06.1.06.1l.3.78.27.54.13.34.33.47"/>
  <path class="cls-2" d="M38.2,89.31l.03-.05-.07-.19.04-.23.34-.72.18-.51.07-.41-.02-.12.06-.13-.02-.05.02-.04h-.06s-.03.05-.03.05h.07s.26.27.26.27l.56,1.22.15.21.15.12"/>
  <path class="cls-2" d="M38.47,88.17v.09s-.07.09-.07.09l.14-.03.94.11.28-.03.23-.08"/>
  <path class="cls-2" d="M40.51,87.19l-.13.04.71-.08.92-.19"/>
  <path class="cls-2" d="M41.63,87.12l-.12.2v.29s.19.51.19.51l.23,1.16.07.12"/>
  <path class="cls-2" d="M43.02,87.08l-.05.09.05-.02.02.05-.02.43.04.69.15.62.07.06h.06"/>
  <path class="cls-2" d="M45.24,87.29l-.08-.09-.22.05-.11.08-.26.28-.13.44-.03.39.02.09.05.06.02.09.08.05.03.08.16.12.21.02.19-.05.29-.22.22-.36.04-.22v-.31s-.1-.23-.1-.23l-.15-.16-.09-.05-.17-.04h.02s.03,0,.03,0l-.02.03.04.05"/>
  <path class="cls-2" d="M46.76,88.83l.06.03v-.04s0-.16,0-.16l.05-.41-.06-.25-.07-.94-.04-.08h.05l.31.18.33.36.25.31.44.71.2.23.25.42.38.43h.06s-.08-.02-.08-.02l.08-1.12-.03-1.47-.02-.28-.02-.03-.03.02.03.05-.06-.03"/>
  <path class="cls-2" d="M47.39,1.82l.48-.27.24-.06.19.04.11.1.15.29.12.48.04.3-.02.04h-.02"/>
  <path class="cls-2" d="M48.32,2.14l-.34-.08-.08.04-.06.09-.05.09-.02.2.02.14.07.17.07.09.13.08.09.02.23-.02.3-.09.28-.14"/>
  <path class="cls-2" d="M49.75,2.64v.13s-.08-.1-.08-.1l-.16-.32-.1-.28-.13-.7.02-.48.07-.25.06-.07.11-.05h.34s.1.07.1.07l.06.08v.08"/>
  <path class="cls-2" d="M48.93,1.9l.21-.02.66.06.32-.02"/>
  <path class="cls-2" d="M50.73.66l.12.49.1,1.41.06.33.04.12.12.14h.05s.07-.09.07-.09"/>
  <path class="cls-2" d="M50.32,2.01l.21.11.2.03.43-.03.22-.05"/>
  <path class="cls-2" d="M52.09,2.23l.38-.02.18-.09.11-.07.06-.09v-.12s-.07-.03-.07-.03h-.42s-.33.18-.33.18l-.08.18.12.37.28.33.26.09h.35s.17-.05.17-.05l.13-.07.18-.19"/>
  <path class="cls-2" d="M53.7,1.88l-.02.19.07.11.37.4.09.2-.03-.04v-.09s-.03-.16-.03-.16l-.02-.28v-.29s.08-.2.08-.2l.27-.12.22-.03h.77"/>
  <path class="cls-2" d="M61.2,1.51v-.07s0,.05,0,.05l.31.82.16.23.13.08.11-.21.1-.48.17-.57.2.41.16.64.07.12.07.05.1-.09.08-.18.17-.44.14-.52"/>
  <path class="cls-2" d="M64.02,1.68l.02-.09h.03l-.13.11-.11.14-.12.34.03.16.11.26.24.15h.21l.19-.08.15-.15.08-.22-.02-.46-.04-.15-.05-.08-.14-.06h-.23l-.08.06v.11"/>
  <path class="cls-2" d="M65.16,1.53l.13.18.33.6.09.23v.14s-.01-.48-.01-.48l.07-.55.07-.18.09-.12.11-.04h.12s.22.1.22.1"/>
  <path class="cls-2" d="M67.96,2.33l-.15-.39-.03-.77-.1-.72-.03-.04.02.2"/>
  <path class="cls-2" d="M67.4,1.82l-.36-.09-.21.21-.07.15-.02.28.02.2.07.16.12.12.12.06h.18s.37-.06.37-.06l.41-.2"/>
  <path class="cls-2" d="M23.76,3.09l.07.05-.04-.06-.02-.22-.02-.59-.12-.47-.23-.58v-.11s.27-.09.27-.09l.14-.02h.32l.49.05.44-.02"/>
  <path class="cls-2" d="M23.66,2.22v.13s.06-.04.06-.04l.36-.07.65-.04.18.04.03.08"/>
  <path class="cls-2" d="M23.51,3.44l-.05.07.3-.12.38-.09h.31l.23.04.68.27"/>
  <path class="cls-2" d="M26.24,3.48l-.07-.14v-.4s-.06-.37-.06-.37l-.06-.69v-.28s.09-.17.09-.17l.1-.12.39-.34.11-.05.2-.03.27.04.2.19.04.11-.02.25-.15.22-.14.14-.53.24-.02.06.04.16.18.28.14.1.1.14.21.15.52.33.09.03h.19"/>
  <path class="cls-2" d="M28.64,1.26l.03-.07-.04-.08.04.05.1.31-.03.35.07.51v.53s.04.21.04.21l.12.34h.07l.08-.04.13-.11"/>
  <path class="cls-2" d="M30.63,1.03h-.05s.01,0,.01,0l-.11.07-.22.34-.12.25-.1.48-.02.18.04.49.03.1.16.19.25.15h.25l.19-.07.1-.05.18-.17.18-.33.09-.36.03-.38-.06-.46-.15-.24-.18-.13-.3-.13-.15-.02-.1.02.02.05.06.02.1.17.19.13"/>
  <path class="cls-2" d="M38.06,1.73l.1.11.52,1.07.22-.77.12-.29.12.11.09.15.08.17.13.51.12.12.08-.03.08-.12.17-1.14"/>
  <path class="cls-2" d="M40.29.44v.11s.2.51.2.51l.11.38.19,1.18.03.36.07.13.05-.02-.02-.06.04-.09.02-.22.12-.43.09-.23.14-.12h.13l.13.1.22.48.06.2.06.06h.07"/>
  <path class="cls-2" d="M42.76,2.25l.11.06h.14s.17-.08.17-.08l.17-.11.11-.22-.04-.14-.09-.07h-.29s-.18.06-.18.06l-.16.11-.17.48v.26s.05.21.05.21l.15.24.13.07.14.03.21-.02.22-.08.21-.11.18-.16"/>
  <path class="cls-2" d="M44.3,1.77l-.02.09-.06.05.03.12.24.59.14.26.06.05v-.07s.32-.77.32-.77l.14-.25.21.32.25.77"/>
  <path class="cls-2" d="M57.76,1.62l-.02.04.06-.05.75-.19.11.05.09.16.08.5v.32s-.05.05-.05.05h.04l-.47-.25-.23-.02-.1.03-.1.08-.02.13.09.27.13.12.16.07.24-.04.44-.29"/>
  <path class="cls-2" d="M32.52,2.68l.04.13v-.07h.03-.04s0-.16,0-.16l.07-1.7-.02-.13-.11-.17-.04-.02v.02s-.02-.04-.02-.04l.36.22.5.21.54.35.16.11.26.31.04.14-.04.07.03.05v.12s-.1.23-.1.23l-.18.27-.25.26-.24.17-.36.17-.35-.08-.11-.09"/>
  <path class="cls-2" d="M21.25,4.02h-.08l.04.02.06-.03-.08-.22-.08-.63-.1-.38-.08-1.17v-.15s.07-.09.07-.09l.33-.28.16-.06h.39s.32.05.32.05l.3.32.08.32v.28s-.2.37-.2.37l-.2.21-.41.19-.5.02"/>
  <path class="cls-2" d="M13.14.75l-.05-.08h.02l.05.04-.16-.03-.49.09-.44.17-.32.24-.14.18-.14.27-.2.59-.02.22-.1.33-.05.48-.12.6-.08.84-.03,1.32v1.14s.32,5.03.32,5.03v.61s-.11.99-.11.99l-.15.67-.06.07-.07.22-.19.24-.36.35-.22.12-.31.09-.17.11h-.03s.01-.04.01-.04v.04s-.03-.01-.03-.01l.62.07.29.14.5.35.13.16.16.28.16.47.13.26v.1s.16.61.16.61l.04.75-.02.64-.07.86v.32s-.07,1.22-.07,1.22l-.05.34v.37s-.06.12-.06.12l-.13.81-.09.34-.27,1.85-.11,1.67.05.61.22.61.03.2.13.46.15.19.3.22.13.18.19.16.33.08.7.02.16.03-.13-.16"/>
  <path class="cls-3" d="M2.41,14.49l.02.05.05.02.03-.05-.14-.04h-.26l-.14.04-.2.08-.2.19-.11.22-.09.44.03.21.33.74.18.22.17.12.15.07.37.04.39-.05.39-.25.08-.1.16-.35.06-.26-.05-.46-.19-.39-.21-.32-.33-.28-.26-.1h-.35"/>
  <path class="cls-2" d="M77.68,10.21l.2.76.09.18.06.04.12-.06.32-.81.16-.2h.07s-.05.07-.05.07l.08.1.09.27.14.62.06.08.1.02.09-.04.17-.3.17-.49.44-.74"/>
  <path class="cls-2" d="M86.75,10.17l-.08.06.05.16.29.58.18.46h.05s.09-.08.09-.08l.34-.82.04-.22-.02.06h.03s.24.42.24.42l.1.3.08.14.03.18.06.08.05-.04.44-1.22.1-.21h.03"/>
  <path class="cls-2" d="M89.96,10.39l.06-.05h-.27s-.32.2-.32.2l-.04.1v.14s.05.21.05.21l.08.16.13.18.23.14h.2s.25-.25.25-.25l.15-.33v-.48s-.11-.15-.11-.15l-.16-.03-.13.05-.06.11v.09"/>
  <path class="cls-2" d="M91.1,10.41l.18.2.11.23.08.08.11.5-.04-.06.06-.12.07-.41.1-.23.16-.22.12-.11.11-.03.43.18"/>
  <path class="cls-2" d="M94.15,11.53l-.03-.36.04-.58-.1-1,.02-.42.03-.1.02.21"/>
  <path class="cls-2" d="M93.89,10.52h-.37s-.13.08-.13.08l-.24.42v.11s-.08.11-.08.11l-.02.19.17.18.11.05.2.02.42-.11.35-.21"/>
  <path class="cls-2" d="M68.69,12.43l.06-.02.18-.63.46-1.11.82-1.56"/>
  <path class="cls-2" d="M71.22,11.54l-.07-.08-.05-.32v-1.7s-.05-.31-.05-.31l-.05-.05v.16"/>
  <path class="cls-2" d="M71.24,10.92l.08-.15.16-.11.36-.04.13.05.09.06.13.27.03.33-.03.12-.13.16-.19.09h-.43"/>
  <path class="cls-2" d="M73.27,11.21h.07s.1-.11.1-.11l.19-.13.12-.14.09-.18.03-.2v-.05s-.13-.09-.13-.09l-.12-.03-.13.02-.38.25-.11.14-.06.17v.34s.12.38.12.38l.19.19.18.05.21-.03.38-.19"/>
  <path class="cls-2" d="M74.91,11.63l.02-.56-.02-.65-.23-1.15-.02-.34v-.06s.03.03.03.03"/>
  <path class="cls-2" d="M76.12,10.22l-.13.06-.2.2-.09.17-.04.15.07.36.14.2.11.08h.27s.14-.05.14-.05l.19-.2.17-.33.08-.26-.05-.29-.14-.16-.16-.04-.05.02v.03s.02.18.02.18"/>
  <path class="cls-2" d="M60.21,10.6v.06s.03-.04.03-.04l.39-.2.37-.14h.18l.08.04.13.23.09.45.03.42-.31-.11-.4-.02-.05.05v.17s.07.14.07.14l.13.1.16.03h.33"/>
  <path class="cls-2" d="M62.35,11.59l-.06-.18-.1-.57-.12-1.45-.04-.19-.02.07.04.04"/>
  <path class="cls-2" d="M62.26,10.63l.27-.2.28-.07h.14s.13.14.13.14l.11.35-.03.28-.19.31-.31.12-.39.05"/>
  <path class="cls-2" d="M64.03,10.28l-.13.15-.09.61.09.26.09.12.1.05.19-.04.19-.1.18-.24.16-.43v-.16s-.02-.11-.02-.11l-.25-.16h-.05s.03.16.03.16l.04.04"/>
  <path class="cls-2" d="M65.38,10.31v.13s.24.45.24.45l.17.57.06.13h.04s.07-.07.07-.07v-.08s.13-.33.13-.33l.14-.79.05-.14.04.02"/>
  <path class="cls-2" d="M67.12,10.62l.04.03.22-.02.21-.09.17-.16.04-.08v-.16s-.1-.08-.1-.08l-.21-.02-.21.08-.18.14-.06.09-.07.23-.05.42.08.44.13.14.15.03.15-.03.2-.05.25-.12"/>
  <path class="cls-2" d="M82.38,10.29l.02.08.15-.15.12-.06.37-.13.23-.03.1.04.06.31.03.48.11.23h-.02l.02-.03-.09-.07-.38-.04-.29.07-.16.09-.03.06.04.17.15.21.34.12h.23l.16-.04"/>
  <path class="cls-2" d="M45.31,11.25l.07.06.03-.12-.13-1.49.07-.15h-.04s.1,0,.1,0l.28-.05.49.02.34-.06.1.03"/>
  <path class="cls-2" d="M45.78,10.61h.95l.06.02.02.06"/>
  <path class="cls-2" d="M45.54,11.47l-.17.24v-.03s.12-.04.12-.04l.45.03.63-.03.59.1"/>
  <path class="cls-2" d="M42.11,9.59h-.06l.04.04-.03.19.03.26-.03.27.1.75.04.65.1.21.03.02.06-.04"/>
  <path class="cls-2" d="M42.12,10.83l1.27.22.2.08"/>
  <path class="cls-2" d="M44.11,12.03l-.03.02-.03-.02-.07-.15.04-.59-.03-.21.02-.1-.03-.78-.17-.74-.11-.18-.03.02.24.52"/>
  <path class="cls-2" d="M50.24,10.51l.17.32.19.72.06.13.12.13.06-.03.03-.07.14-.65.11-.27.02-.13.06-.02-.02.05.04.04.24.56.15.17.07-.03.09-.12.12-.68.04-.05"/>
  <path class="cls-2" d="M52.48,8.95h-.04l.09.13.16.52.11,1.26.1.47h.05v-.07s.04-.18.04-.18l.17-.37.12-.19.11-.07.08.08.14.22.09.29.11.58.08.05.09-.02"/>
  <path class="cls-2" d="M54.7,10.86v.06s.02.02.02.02l.17-.03.25-.13.12-.12.07-.16v-.24s-.07-.08-.07-.08l-.22.02-.2.09-.33.31-.04.17v.27s.1.38.1.38l.16.19.31.12h.52s.31-.12.31-.12"/>
  <path class="cls-2" d="M56.19,10.39v.16s.11.17.11.17l.06.22.08.1.17.6.03-.02-.03-.04.38-1,.08-.15h.04s.05.22.05.22l.13.35v.16s.13.3.13.3l.06.28.08.15"/>
  <path class="cls-2" d="M31.55,9.82l-.12-.07.57-.07,1.1-.07.09.04"/>
  <path class="cls-2" d="M32.32,9.86l-.08.16-.05.04v.19s.14.41.14.41l.13.59.07.17.24.85.05.06h.04"/>
  <path class="cls-2" d="M34.56,11.77l-.05.02-.07-.04-.06-.18-.19-.27-.13-.75v-.39s.15-.37.15-.37l.16-.16.39-.27.14-.04h.14s.2.14.2.14l.12.12.1.15.05.22v.21s-.12.35-.12.35l-.27.35v.14s.1.24.1.24l.4.5.26.26.25.19.21.11.23.04"/>
  <path class="cls-2" d="M37.79,9.97l-.14.06-.18.02-.08.09-.12.22-.11.33v.74s.09.23.09.23l.13.11.19.07.25-.03.11-.09.13-.21.25-.57.02-.51-.08-.15-.15-.16-.32-.16v.17s.05.22.05.22"/>
  <path class="cls-2" d="M21.31,12.43v.05s0-.03,0-.03h.06l-.02-.2.45-1.58.02-.26-.03-.36.03-.32.03.03v-.02s.06.01.06.01l.12.13.17.27.56,1.71.2.33.29.33h.07l.02-.04"/>
  <path class="cls-2" d="M21.52,11.71l.02.07.28.06.77.09"/>
  <path class="cls-2" d="M24.58,12.22h-.09s.03-.15.03-.15l-.1-.2-.18-.74-.09-.56v-.48s-.02-.37-.02-.37l.08-.13.18-.16.18-.07h.34s.14.03.14.03l.27.17.12.14.05.15-.05.49-.14.25-.16.16-.39.13-.46.02"/>
  <path class="cls-2" d="M27.04,9.98l-.27.22-.04.1-.08.4-.04.47v.21s.08.29.08.29l.13.22.12.14.1.05.15.03.35-.14.36-.44.2-.46.03-.27-.02-.42-.06-.17-.1-.13-.29-.22-.16-.06h-.17l-.1.03-.05.09.06.14.1.1"/>
  <path class="cls-2" d="M30.06,9.44l-.09-.1h-.05s-.67.46-.67.46l-.1.14.02.26.1.24.09.14.1.06.04.07.45.15.18.1.27.22.14.19.09.23-.04.12-.16.16-.27.14-.57.09h-.23l-.15-.03"/>
  <path class="cls-2" d="M39.97,12.1l.02.1-.06.02-.06-.24-.18-.34v-.14s-.09-.18-.09-.18l-.06-.33.03-.65.06-.22.26-.29.11-.06h.18s.21.13.21.13l.08.09.39.31.09.17-.06.1-.15.1-.4.1-.69.08.03.04"/>
  <path class="cls-3" d="M51.48,16.19l-.06-.08.08.07-.07.04.03.08-.03.24.06.3v.35s-.17.59-.17.59l-.04.31"/>
  <path class="cls-3" d="M52,19.52l-.14.19.14-.04.04-.1.2-.23.29-.52.65-.86.23-.22-.05-.03.05.03-.02.02.88.06,2.82.04"/>
  <path class="cls-2" d="M62.16,26.85l.03-.12-.04-.08-.22-.08-.17.02-.09.06-.03.1.07.29.2.22.24.18.47.23.1.08v.05s-.12.09-.12.09l-.14.04h-.46l-.26-.06-.06-.06.03-.05"/>
  <path class="cls-2" d="M63.17,25.52l.05.32v.81s.08.84.08.84l.08.27.1.16.13.07h.09"/>
  <path class="cls-2" d="M62.87,26.82h.23s.76-.09.76-.09"/>
  <path class="cls-2" d="M64.37,26.65l.45-.14h.13l.09.1.14.31.09.49.03.04-.32-.17-.25-.02-.21.07-.07.07v.08s.1.16.1.16l.22.14.32.07h.16s.1-.05.1-.05"/>
  <path class="cls-2" d="M66.02,27.04l.03.14.29.4.06.14-.06-.07v-.13s-.08-.17-.08-.17v-.18s.02-.21.02-.21l.13-.29.14-.18.11-.09.18-.07h.21"/>
  <path class="cls-2" d="M67.7,25.58l.03.2-.04.16.06.12.15,1.18.09.31.1.26.09.1.08.03.14-.08.07-.24"/>
  <path class="cls-2" d="M67.18,26.9l.11.05.24.02.52-.03.29-.05"/>
  <path class="cls-2" d="M71.55,26.73l.05-.02h-.12l-.1.05-.23.23-.08.14v.32s.15.2.15.2l.2.11.17-.02.07-.04.13-.21v-.51s-.03-.17-.03-.17l-.2-.27-.12-.02.04.09"/>
  <path class="cls-2" d="M80.54,27.83l-.13-.05-.08-.09-.06-.32.04-.32-.03-1.38-.06-.6-.05-.22-.05-.04.05.17.11.15"/>
  <path class="cls-2" d="M81.36,27.83l.05-.02v-.04s-.12-.41-.12-.41l.06-.52v-.33"/>
  <path class="cls-4" d="M81.21,25.52l-.03-.06h.04s.14.12.14.12"/>
  <path class="cls-2" d="M82.14,26.75l.21.92.1.07.39-.6.22-.55.08-.1v.07s.16.38.16.38l.05.31.16.36.04.05h.08"/>
  <path class="cls-2" d="M84.31,27.05l-.02.04h.46l.2-.06.11-.08.08-.14.05-.21v-.1s-.07-.05-.07-.05h-.17s-.25.08-.25.08l-.18.12-.18.22-.09.26v.13s.08.21.08.21l.28.2.58.17h.47s.22-.08.22-.08l.08-.06"/>
  <path class="cls-2" d="M73.23,27.81l-.19-.27-.27-.64-.13-.67v-.33s.04-.25.04-.25l.1-.31.14-.17.12-.09.25-.11h.21s.11.08.11.08"/>
  <path class="cls-2" d="M72.28,26.94l-.02-.03.1-.06.28-.08.41-.05h.5"/>
  <path class="cls-2" d="M49.58,27.11l-.05.05.45-.13.22-.02.14.06.08.1.1.82.07.14-.1-.2-.13-.16-.12-.04-.24.02-.09.07-.02.12.04.3.08.1.13.06.27-.03.2-.11.3-.26"/>
  <path class="cls-2" d="M51.44,25.89l-.05.23v.26s.11.79.11.79l.13.63.07.2.07.09.06-.02.03-.06"/>
  <path class="cls-2" d="M51.18,26.96l.04.03.79.02"/>
  <path class="cls-2" d="M55.04,25.92l-.08-.14.1.24.04.29v.71s.06.43.06.43l.08.28.11.2.19.16h.1"/>
  <path class="cls-2" d="M54.64,27.03l.2-.05.17-.09.17-.17.53-.65.23-.23v.07s.1.14.1.14l.07.21.07.8.09.51.08.22.03-.1.56-.9.03.22.21.43.16.21.09.07h.08s.13-.02.13-.02l.11-.14"/>
  <path class="cls-2" d="M58.15,27.26l.17-.03.28-.14.09-.18v-.17s-.07-.07-.07-.07l-.22.02-.18.19-.11.24-.03.22.03.14.13.21.23.14h.36l.3-.1"/>
  <path class="cls-2" d="M76.24,26.59l.13-.08.17-.02h.69l.1.04.06.11.02.14-.05.44-.26-.09-.43-.03-.14.04-.08.07v.22s.05.12.05.12l.12.15.15.11.2.07h.35s.33-.09.33-.09"/>
  <path class="cls-2" d="M34.82,26.71l-.03-.02.03.03.23-.02.73-.21h.82"/>
  <path class="cls-2" d="M35.67,26.55l-.07.17-.16.22.06.18-.03.2.1.91.12.34v.13"/>
  <path class="cls-2" d="M29.66,26.18l-.04.17h-.03l.03.26-.05.79.12.61.18.45.32-.02.49-.2.67-.13"/>
  <path class="cls-2" d="M32.04,28.25l-.02.07-.03-.03.02-.8-.1-.88.04-.3.11-.09.14-.04.39-.04.36.03.43.13"/>
  <path class="cls-2" d="M32.28,27.4h.12s.36-.1.36-.1l.33-.04.28.05v.07"/>
  <path class="cls-2" d="M32.16,28.43v.16s.03.01.03.01l.21-.05.54-.06h1.15"/>
  <path class="cls-2" d="M39.77,27.41v-.02s.14.23.14.23l.31.81.12.15.07-.1.08-.21.17-.67.08-.07.08.03.08.1.23.69.1.12.08-.03.19-.69.19-.51"/>
  <path class="cls-2" d="M42.23,25.86h-.09s.07.32.07.32l.11,1.16.12.32.06.35.07.07.06-.28.21-.52.12-.14.08-.04.27.53.12.52.04.05h.06"/>
  <path class="cls-2" d="M44.19,27.58h.35l.33-.18.07-.13v-.16s-.06-.1-.06-.1l-.13-.11-.13-.02-.09.02-.1.05-.13.17-.07.6.05.28.08.18.18.2.23.08.32-.05.47-.25"/>
  <path class="cls-2" d="M45.94,27.08l.02.1.07.04.1.17.17.68.09.13.21-.38.23-.63.05-.1h.03s-.04.06-.04.06l.12.04.26.4.07.28.02.47"/>
  <path class="cls-2" d="M24.45,26.49l.05.04h-.06s.04.33.04.33l-.04.37.08.72.09.2.12.16.22.15h.11s.12,0,.12,0l.16-.09.13-.17.13-.28.11-.38.07-.38v-.54s-.13-.27-.13-.27l-.09-.12.05.02.24.24"/>
  <path class="cls-2" d="M27.15,26.11l.07.32.03.38-.02,1.39.06.27.04.05.14.04.89-.17h.36"/>
  <path class="cls-2" d="M21.64,28.28l.02.05.04-.03h-.03s-.05-.04-.05-.04l-.1-.31-.02-.22.03-1.2.05-.1.34-.19.42-.02.13.04.07.11.25.21.02.14-.06.21-.5.53v.07s.08.12.08.12l.21.16.28.08.34.21.24.46.02.27-.08.08-.31.14-.49.02-.2-.03-.45-.16.05-.03"/>
  <path class="cls-3" d="M54,19.53l-.15-.02-.14.06-.28.36-.2.41v.17s.07.22.07.22l.24.39.25.16h.12s.26-.04.26-.04l.27-.14.26-.23.19-.33.04-.24v-.26s-.09-.23-.09-.23l-.14-.15-.25-.16-.42-.13h-.2l-.11.04.16.26"/>
  <path class="cls-1" d="M59.93,17.36l-.1-.02.05.05v.28s-.04.4-.04.4l.09.5v.47s0,.04,0,.04h.03"/>
  <path class="cls-1" d="M60.73,17.39l-.11.06v.04s.13-.04.13-.04l.53.02.57-.02.3.08"/>
  <path class="cls-1" d="M61.62,17.46l-.17.2v.08s.03.2.03.2l.05,1.16.04.04v.06"/>
  <path class="cls-1" d="M63,17.82v.07s.05-.06.05-.06l.13-.33.08-.46-.03-.25v-.03s.03.07.03.07"/>
  <path class="cls-1" d="M64.98,17.4l-.05-.06h-.12s-.42.15-.42.15l-.27.19-.08.19.05.16.08.08.71.38.07.08.02.06-.02.12-.09.11-.42.3-.33.11-.23.03h-.19s-.24-.12-.24-.12"/>
  <path class="cls-3" d="M79.16,15.8l-.13-.07-.17.05-.26.29-.07.26v.37s.08.2.08.2l.23.19.33.1h.36l.36-.14.23-.2.17-.21.11-.25-.02-.22-.18-.26-.15-.15-.16-.1-.32-.11h-.17s-.06.05-.06.05l.03.06"/>
  <path class="cls-3" d="M75.44,18.68v-.26s-.02-.08-.02-.08l-.07-.08-.1-.09-.17-.07-.21-.03h-.4s-.31.07-.31.07l-.28.17-.1.18-.05.42.1.28.14.21.41.32.32.18.31.12.27.05h.51s.69-.03.69-.03l.47-.08.19.02.03.02-.02.02-.02-.02h.06l-.1-.03.06-.02-.08-.07.05-.54-.02-.18.04-.7.05-.28.07-.15h-.05l.05.04h-.02l.13.02.18.14.28.14.43.35.21.2.17.12.6.66.22.33.18.17-.02-.05h.03l-.02-.04.08-.26.57-.85.41-.37.89-.91"/>
  <path class="cls-3" d="M75.45,21.16l-.07.16-.12.06v-.03s.1-.06.1-.06h-.05s.02-.06.02-.06l.15-.14"/>
  <path class="cls-1" d="M84.26,17.84l-.03.07.07.05.06.45-.02.39.04.54.14.45"/>
  <path class="cls-1" d="M93.18,17.97l-.03.02v-.07s.1-.5.1-.5l-.06-.22-.04.02"/>
  <path class="cls-1" d="M94.06,17.71l-.09-.06.02-.02.75.23h.57"/>
  <path class="cls-1" d="M94.56,18.05l-.11.04.07.11.09.45v.59s.12.33.12.33l.04.02v-.03"/>
  <path class="cls-1" d="M84.53,18.87l.02-.04.18.04h.61l.24-.1"/>
  <path class="cls-1" d="M85.76,18.08l-.05.08.05.02-.04.04.08.14.04.25.03.95.1.33.06.04"/>
  <path class="cls-1" d="M86.84,19.61l-.04.03.12-.03.05-.26.28-.89.05-.45h.02l.04.06-.07.02.26.36.32,1.05.21.33.08.08.1.02"/>
  <path class="cls-1" d="M86.94,18.95v.04s.36.06.36.06h.3s.32-.02.32-.02"/>
  <path class="cls-1" d="M89.82,18.13l.04-.06-.07-.17-.19-.09-.29-.02-.14.06-.13.14-.02.07.04.2v.12s.14.31.14.31l.8.62.15.15.03.08-.14.12-.53.17-.35.09-.39.02"/>
  <path class="cls-1" d="M91.17,19.59l-.02.12.03-.13-.06-.53v-.15s-.22-.81-.22-.81l-.02.04.06.03.34.32.31.54.36.49.14.11.13-.64v-.64s-.06-.34-.06-.34h-.04s.07-.03.07-.03"/>
  <path class="cls-2" d="M22.23,101.99l.06-.15-.03-.12-.16-.1h-.25s-.17.07-.17.07l-.31.22-.18.3-.08.36v.64s.15.37.15.37l.15.18.17.31.17.2.16.07.28.04.34-.07.25-.15.26-.31.24-.57.06-.36-.03-.33-.09-.22-.22-.32-.16-.19-.23-.18-.28-.13-.15.05.05.34"/>
  <path class="cls-2" d="M22.36,102.88l-.19-.07.23.09.29.2.23.24.36.48.27.25.3.17h.11"/>
  <path class="cls-2" d="M24.67,101.9l-.11.36v.47s.05.41.05.41l.15.39.29.49.09.09.22.12.2-.03.08-.08.09-.18.26-1.45-.04-.5.02-.17-.07-.05.02.2"/>
  <path class="cls-2" d="M27.55,102.03l-.41.13-.13.32v.15s-.09.13-.09.13l-.02.48.2.54.19.24.11.07.15.07h.2s.2-.09.2-.09l.12-.16.09-.18.08-.4.04-.29-.02-.24-.07-.21-.16-.27-.11-.1-.15-.09h-.2s-.01.02-.01.02l.05.07v.08"/>
  <path class="cls-2" d="M29.12,101.67l-.06.18.05-.09,1.11-.2h.53l.32.06.07.05"/>
  <path class="cls-2" d="M30.08,102.04l-.17.34.12.51.12.35.04.65.16.45.1.09h.12"/>
  <path class="cls-2" d="M31.86,103.71l-.07.09.05-.06v-.19s-.11-.5-.11-.5l-.05-.48-.12-.54.43-.1,1.11-.04.22-.14"/>
  <path class="cls-2" d="M31.95,102.94l.06.05h.14s.3-.04.3-.04l.16-.06.56-.06h.15s.02.04.02.04"/>
  <path class="cls-2" d="M32.12,103.92v.19s.3.06.3.06l.47.02.51-.13.69-.37"/>
  <path class="cls-2" d="M35.79,101.8v-.05s-.03-.09-.03-.09h-.15s-.22.15-.22.15l-.1.15-.06.18v.16s.07.16.07.16v.14s.04.1.04.1l.19.17.11.15.35.19.23.24.13.23v.22s-.26.23-.26.23l-.6.31-.78.21h-.47"/>
  <path class="cls-3" d="M13.48,101.54l-.02.05h-.04s-.03-.03-.03-.03l.05-.02.47.06.42.25.33.31.24.45.17.47.11.41.07.66-.02.31-.18.4-.42.32-.36.11-.41-.02-.24-.09-.26-.2-.15-.22.03-.12v-.21s.18-.47.18-.47l.19-.21.31-.2.25-.07.51-.03.34.04.1.04"/>
  <path class="cls-3" d="M2.85,101.3l-.04-.12.04.05-.15.02-.17.08-.48.36-.25.27-.23.34-.23.47-.06.24-.04.64.1.72.08.27.29.52.19.18.12.08.26.06.52-.02.23-.1.21-.29.04-.16v-.21s-.11-.45-.11-.45l-.05-.15-.27-.35-.14-.08-.33-.05-.52.03-.11.04-.15.21-.03.14.08.05"/>
  <path class="cls-4" d="M5.42,103.7l-.05.11-.24.3.12-.12h.15s.17-.08.17-.08l.99-1.01.28-.19-.09.09.07.08.11.23.05.29.03.54.1.12h.13s.2-.16.2-.16l.46-.52.27-.26.48-.39.14-.07h.03s-.02.03-.02.03l-.13.1h.02l.05.16.21.79.11.12.12-.02.16-.13.47-.57.29-.2.14-.05h.05l-.06.04.29.45.07.27.14.24.12.03h.1s.09-.06.09-.06l.12-.14.36-.61.33-.47"/>
  <path class="cls-2" d="M41.45,104.96v-.02s.05.02.05.02l-.03-.05-.12-.04-.32-.25-.44-.49-.17-.31-.06-.54.05-.78.1-.49.2-.68.26-.47.4-.47.09-.07"/>
  <path class="cls-2" d="M42.46,103.75l-.09-.22-.09-.46v-.22s.07-.16.07-.16"/>
  <path class="cls-2" d="M42.37,102.07l-.16.05.02-.04.11-.03"/>
  <path class="cls-2" d="M43.26,102.92h-.05s-.05.11-.05.11l-.03-.03.03-.03.02.02.02.28.06.12v.21s.13.39.13.39v-.12s.1-.21.1-.21l.33-.57h.04s.17.01.17.01l.16.13.09.37.05.11.09.08"/>
  <path class="cls-2" d="M45.26,103.5v.05s.03-.04.03-.04l-.06-.14.02-1.13-.11-1.13-.11-.27-.02.03.02-.03"/>
  <path class="cls-2" d="M46.3,103.33l-.05.04h.03s.02-.03.02-.03l-.08-.24-.02-.54.02-.13"/>
  <path class="cls-2" d="M46.18,101.75h-.14l-.08-.05.07-.06h.1"/>
  <path class="cls-2" d="M47.08,102.46l-.04.04.08.08.1.33v.18s.09.16.09.16v-.04s.15-.32.15-.32l.21-.28v-.15s.24.24.24.24v.12s.08.13.08.13l.09.32.14.18"/>
  <path class="cls-2" d="M48.95,103.01h.3l.25-.14.22-.29h.05s-.07,0-.07,0l-.05-.06-.13-.05h-.12l-.09.04-.22.23-.02.14.03.27.15.38.13.11.17.02.43-.1.25-.11"/>
  <path class="cls-2" d="M50.97,104.65l-.04.21.02.02.09-.08.19-.1.37-.59.1-.26.12-.44.04-.33v-.54s-.04-.29-.04-.29l-.11-.45-.25-.52-.31-.5-.25-.28-.22-.13h-.15l.06.03"/>
  <path class="cls-2" d="M20.87,146.33l.02.13v-.08s-.04,0-.04,0l-.08-.47-.08-1.6.04-.37.06-.12.16-.16.3-.03.22.05.31.15.2.22.1.22.02.5-.1.17-.27.29-.46.15-.2.05-.23.02.17-.04"/>
  <path class="cls-2" d="M22.89,146.36l-.02.06h-.04s.03-.16.03-.16l.3-.76.11-.45.15-1.08.03.06h.03l.24.25.13.25.45,1.16.24.42.03.03h.04"/>
  <path class="cls-2" d="M22.94,145.42l.14.03.22-.04h.4l.49.04"/>
  <path class="cls-2" d="M25.46,146v.02s-.04-.02-.04-.02v-.47s.23-1.95.23-1.95l.07-.22.02.06.29.1.22.13.26.31.12.36-.03.17.05.1v.12s-.11.25-.11.25l-.08.11.08.25.13.22.18.2.28.17.47.22.18.06h.09"/>
  <path class="cls-2" d="M28.55,145.95l.07.12h-.05s.05-1.01.05-1.01l-.07-.58-.16-.53.02.02.32-.11.34-.06.8.02v.03"/>
  <path class="cls-2" d="M28.72,144.91l.25.02.4-.11.33-.02.16.05.04.17"/>
  <path class="cls-2" d="M28.56,146.21l.03.06h.03l.72-.21h.88"/>
  <path class="cls-2" d="M31.52,145.82l-.05.04.04-.07-.07-.76-.24-1.06.05.07.15.03.21.14.43.49.49.65.51.48.08.05-.03-.24.02-.27-.06-.2-.08-.68-.02-.92"/>
  <path class="cls-2" d="M33.83,144.05v-.1s.05.05.05.05h.34s.84-.17.84-.17l.2-.07h.08"/>
  <path class="cls-2" d="M34.82,143.94l-.11.19.05.13.11.77.06.77.04.12-.02.14.07.09.02.09.12.12"/>
  <path class="cls-2" d="M36.28,143.59l-.04.09.23,1.7.12.42.11.18"/>
  <path class="cls-2" d="M36.35,145.19l.06.04.28-.02.6-.15.22-.16.15-.23"/>
  <path class="cls-2" d="M37.54,143.84l-.03.16.12.24.13.83.06.23.12.23.2.24.19.09"/>
  <path class="cls-2" d="M39.36,145.71v.1s-.04,0-.04,0v-.28s-.21-.6-.21-.6v-.29s.03-.35.03-.35l-.03-.08.03-.08.28-.15.31-.09.48-.07h.21"/>
  <path class="cls-2" d="M39.4,144.61h.22s.35-.1.35-.1l.2-.02.48.04.04.02v.05"/>
  <path class="cls-2" d="M39.08,145.77l.03.16.07.04,1.88-.33"/>
  <path class="cls-2" d="M42.25,143.56l-.14-.15v.02s-.13.06-.13.06l-.09.1v.07s-.04.06-.04.06l-.04.41.04.2.26.17.6.2.22.1.16.12.11.25-.1.16-.33.19-.72.14"/>
  <path class="cls-2" d="M44.12,145.38h.07l.06-.29-.24-1.32.04.09.29-.1.47-.07.64-.04.06.03"/>
  <path class="cls-2" d="M44.37,144.8l-.03.1.04.09.03-.03.52-.13.39-.14.42-.1h.05l.03.04"/>
  <path class="cls-2" d="M44.23,145.64l-.05.02v.09s.28,0,.28,0l.73-.15.3-.03.67-.19"/>
  <path class="cls-2" d="M48.06,143.82l-.15-.08-.19.09-.17.23-.04.17.04.23.19.27.03.1.29.18.05.07v.13s.04.13.04.13l-.05.09-.16.12-.58.28-.56.16-.51.03"/>
  <path class="cls-3" d="M13.6,141.25l-.02.03h.05s0,0,0,0l.08.02.02.08.13.14.28.23.03.09.12.13.1.23.42.67.02.08.06.06.02.1.19.33.1.27.13.59.05.45.02.79-.04.33-.05.08-.03.21-.05.08v.2s-.21.42-.21.42l-.18.62-.34.68-.05.21-.2.18.04-.05.05-.35"/>
  <path class="cls-3" d="M3.43,148.29h.05v.04s.02,0,.02,0h-.04s.02,0,.02,0h-.03s-.19-.14-.19-.14l-.17-.28-.62-.69-.29-.5-.2-.44v-.24s-.17-.77-.17-.77v-.62s.13-.82.13-.82l.07-.17.08-.35.14-.25v-.09s.07-.21.07-.21l.1-.23.12-.17.05-.17.16-.25-.03-.07.05-.11.04-.02-.02.02-.02-.02.04.02"/>
  <path class="cls-4" d="M4.65,145.32l-.16.2.02.03.16-.08.79-.6.35-.19.1-.02.03.02-.05.03.11.22v.19s.09.17.09.17l.04.21.07.15.14.08h.33s.16-.08.16-.08l.12-.09.64-.67.38-.33.15-.09-.02.07.04-.02-.02.06.1.27.05.33.14.19.11.07.28-.04.61-.55.28-.22.07-.02v.06s-.06,0-.06,0l.1.09.2.4.17.25.24.11.1-.02.03-.05.69-.52.12-.06h.11l-.06.08.22.78.05.06.14.03.17-.05.24-.17.64-.72"/>
  <path class="cls-2" d="M54.92,130.2l.05-.02h-.03s.01-.05.01-.05l-.17-.09-.37.05-.1.1.04.24.23.21.66.23.19.24.02.26-.14.08-.7.06.11-.03"/>
  <path class="cls-2" d="M56.32,131.42l.03-.29-.12-.41-.06-.4"/>
  <path class="cls-2" d="M56.14,129.32l-.16.03.11.02.09.06.03.07"/>
  <path class="cls-2" d="M57.05,130.39l.04.14.19.25.08.27v.17s.09.11.09.11h.06s.25-.3.25-.3l.13-.31.12-.14.14-.24-.03.09.14.33.15.57.07.13.16.12h.12"/>
  <path class="cls-2" d="M59.79,130.15l.02-.04h-.02s-.24.1-.24.1l-.16.23-.03.14-.05.08-.03.23.05.14v.16s.06.07.06.07l.24.17h.23s.35-.04.35-.04l.44-.16"/>
  <path class="cls-2" d="M61.19,130.63v.04s.21-.08.21-.08l.28-.2.14-.3.02-.14-.02-.06-.19-.09-.2.02-.21.1-.13.11-.08.18.02.8.06.36.12.17.21.02.28-.06.27-.17"/>
  <path class="cls-2" d="M65.31,129.08v.8s.11.96.11.96l.06.29.15.4.12.16.13.04.14-.1"/>
  <path class="cls-2" d="M75.26,129.15h-.19s.29.06.29.06l.66.03,1.57-.23.14-.02.04.03.1-.03"/>
  <path class="cls-2" d="M76.86,129.19l-.16.15-.09.18.11.55.09,1.11v.6s.01.03.01.03h.01s-.01-.1-.01-.1l.05-.09"/>
  <path class="cls-2" d="M64.75,130.4v.04s.14-.03.14-.03l.38-.15.5-.34.46-.44-.03.08.06.06.07.2.14.89.11.53.06.12.04.03.12-.12.21-.35.15-.35-.02.13.36.38.16.22.11.06.19-.06"/>
  <path class="cls-2" d="M68.25,130.3l.06.04.13-.06.59-.13.1.08.07.18.07.3-.03.19.04.03-.02-.03-.39-.03h-.17l-.16.05-.17.11.13.19.3.09h.32s.28-.09.28-.09l.13-.11"/>
  <path class="cls-2" d="M70.02,129.08l.09.02.1.37.05.85.06.51.12.49.08.1.09-.02.09-.09.1-.24"/>
  <path class="cls-2" d="M69.83,129.78h-.16s.42.08.42.08l.74-.04"/>
  <path class="cls-2" d="M71.39,129.8l.22-.77.03-.03v.02"/>
  <path class="cls-2" d="M72.83,130.02l-.27-.06-.28.05-.17.07-.06.05-.03.08.04.13.14.16.24.13.41.08.1.06.05.06v.11s-.11.17-.11.17l-.16.12-.18.06-.75-.05"/>
  <path class="cls-2" d="M21.58,129.29v-.04l-.07-.06-.04-.09-.19-.14-.13-.03-.28.02-.09.06-.05.12v.25s.09.26.09.26l.2.4.2.17.41.21.68.48.03.18-.02.16-.11.16-.3.2-.22.09-.29.05h-.3s-.17-.05-.17-.05l-.05-.11.05-.16"/>
  <path class="cls-2" d="M23.21,129.06l-.1.03.06.06.04.96.08.58.02.53.06.14v.15s.11.13.11.13l-.04.03,1.47-.32"/>
  <path class="cls-2" d="M25.64,131.15v.07s.07-.04.07-.04l.09-.16.13-.39.1-.4.07-.5.22-1.07v.07s.06,0,.06,0l.11.15.09.22.18.47.21.71.41.75.12.04"/>
  <path class="cls-2" d="M25.86,130.14l.63.15.64.05"/>
  <path class="cls-2" d="M28.98,128.92l-.07-.14-.16-.09h-.33s-.26.09-.26.09l-.06.14.09.35.24.42.3.24.9.6.24.26v.12s-.03.08-.03.08l-.15.11-.48.12-.34.03h-.35l-.13-.05.08-.09"/>
  <path class="cls-2" d="M30.56,128.69l.03-.05h.04s0,.5,0,.5l.05.21-.02.15.06.14.02.25.13.35.03.19.16.36.09.13h.03"/>
  <path class="cls-2" d="M30.93,129.88l.06-.03h.83s.31-.15.31-.15l.07-.13"/>
  <path class="cls-2" d="M32.28,128.76l.04.02-.03.36.05.46v.43s.04.71.04.71l-.02.21.06.17v.19s.11.1.11.1l.1-.02"/>
  <path class="cls-2" d="M40.76,130.45v.04s.05-.03.05-.03l.15.47.17.33.12.34h.04s-.01-.07-.01-.07l.05-.19.26-.74.12-.23.12-.15.1.06.09.12.22.43.18.53.05.06h.12"/>
  <path class="cls-2" d="M43.59,130.26l-.19.1-.24.35-.04.32.03.22.18.19.21.02.12-.05.12-.1.23-.27.12-.19.05-.21-.29-.15-.16-.02-.02.03"/>
  <path class="cls-2" d="M44.84,129l.08.02.05.17.08.85.14.84v.26s.17.33.17.33l.13.15.19-.02.22-.2.14-.31"/>
  <path class="cls-2" d="M44.59,130.31h.37l.83-.26"/>
  <path class="cls-2" d="M40.34,132.49l.07.06.03-.04-.04-.02h.03s-.38-.4-.38-.4l-.38-.47-.45-.85-.11-.33-.03-.62.11-.68.18-.39.51-.63.35-.31.12-.12v-.02s-.02.02-.02.02v.02s.01,0,.01,0v-.02s-.03,0-.03,0"/>
  <path class="cls-2" d="M49,132.14l-.07.13h-.03l.05-.07.58-.55.71-.84.32-.49.65-1.18.44-.71-.07.06.08-.08.16-.06h.06s.03.13.03.13"/>
  <path class="cls-2" d="M81.08,130.75l-.04-.06.08-.04.02-.02h-.02s.02.03.02.03l-.2-.04-.15.05-.11.11-.04.27.07.45.08.09.02.08.08.09.1.03h.08s.11-.03.11-.03l.19-.41v-.23s.03-.14.03-.14l-.05-.12-.11-.1-.03-.07-.05-.02.08-.05"/>
  <path class="cls-2" d="M82.22,130.68l-.08.07.05.06.18.55.05.04v.11s-.04-.02-.04-.02h.02l.04-.21v-.21s.17-.39.17-.39l.09-.05h.12s.45.11.45.11"/>
  <path class="cls-2" d="M87.31,129.31l.02-.08h.07s-.2-.02-.2-.02l-.13.02-.22.08-.12.11-.09.15-.09.3-.05.28v.28s.06.25.06.25l.1.25.09.11.06.22.34.31.19.08.23.03.22-.02.3-.08.31-.13.18-.16.13-.38v-.44s-.09-.36-.09-.36l-.14-.28-.2-.25-.45-.38-.24-.12-.35-.1-.08.05.24.16"/>
  <path class="cls-2" d="M89.66,129.16h.1-.05s-.01.05-.01.05l.04.69.11.82.02.46.15.57-.04-.02h.02s-.03-.11-.03-.11"/>
  <path class="cls-2" d="M91.93,132.78h.03s.06-.03.06-.03l.27-.22.24-.25.18-.27.25-.56.04-.26v-.6s-.21-.91-.21-.91l-.27-.55-.25-.42-.24-.33-.33-.32-.21-.1v-.03s.02.05.02.05"/>
  <path class="cls-2" d="M22.55,72.6h.07s0-.06,0-.06l-.15-.12-.17-.04h-.2s-.19.1-.19.1l-.14.22-.13.28-.04.26.02.56.1.25.3.44.21.17.17.06h.33l.18-.06.27-.17.18-.2.14-.22.13-.31v-.21s.03-.14.03-.14v-.24s-.09-.34-.09-.34l-.19-.31-.2-.17-.17-.09-.18-.03h-.27s-.05.19-.05.19l.04.06"/>
  <path class="cls-2" d="M22.66,73.39h-.05s0,.02,0,.02l.13.09.72.72.23.19.3.16"/>
  <path class="cls-2" d="M25.1,72.51h-.14s.07.04.07.04l-.06.99.02.54.21.62.29.31.2.1.24-.03.18-.13.14-.19.17-.43.07-.43v-.42s-.02-.29-.02-.29l-.07-.29-.09-.25-.08-.12.11.22"/>
  <path class="cls-2" d="M27.7,74.26l-.08.09h-.04l-.03-.05.03-.37-.05-.74-.04-.22v-.51s.03-.14.03-.14h-.03l.56-.08.58.06"/>
  <path class="cls-2" d="M27.53,73.33l.05.14h.57s.45-.12.45-.12v.04"/>
  <path class="cls-2" d="M27.63,74.34l-.07.21.16-.04.31.05.36-.02.61-.15"/>
  <path class="cls-2" d="M30.65,72.66l.07-.3v-.12s-.29-.12-.29-.12h-.1l-.21.07-.3.2-.1.1-.08.15v.17s.05.22.05.22l.12.16.2.13.25.1.4.07.43.25.48.5.03.1v.14s-.24.18-.24.18l-.28.07-.43.03-.71-.05"/>
  <path class="cls-2" d="M31.99,72.68v.08s.04-.03.04-.03h.34s1.11,0,1.11,0h.13s.58-.19.58-.19"/>
  <path class="cls-2" d="M33.35,72.64l-.06.15-.19.29-.02.32.08.21.09.5.12.37.03.27.18.2.06.03.09-.02"/>
  <path class="cls-2" d="M35.11,72.38l.03.04-.07.05.02.05-.07,1.34.03.45.06.18.04.03.09.02.16-.04"/>
  <path class="cls-2" d="M36.65,72.59l-.17.15v.07s-.2.56-.2.56l-.07.43.02.27.08.23.18.26.15.14.18.04.24-.08.34-.46.18-.45.03-.2-.03-.33-.16-.29-.12-.15-.17-.13-.24-.13.05.06.09.26.07.11"/>
  <path class="cls-2" d="M39.04,74.33l.02.08v-.02s.05-.03.05-.03l-.04-.06-.03-.17v-.2s-.05-.18-.05-.18l-.06-1.03-.07-.16.06.04h-.04s.09.07.09.07l.42.59.31.34.29.38.33.3.36.17-.07-.07.04-.26-.06-.25v-.25s-.07-.6-.07-.6l-.14-.46-.06-.46h.04"/>
  <path class="cls-2" d="M23.79,47.67l.13-.05-.02-.04h.02s-.03,0-.03,0l-.14-.11-.18-.04h-.27s-.32.13-.32.13l-.2.15-.15.19-.04.22-.06.1-.08.44.03.37.12.35.23.37.26.26.19.1.24.05.29-.04.25-.11.26-.2.28-.3"/>
  <path class="cls-2" d="M26.2,47.57l.03.04v-.03s0,.03,0,.03h-.29s-.33.16-.33.16l-.21.23-.06.13-.11.41-.03.46.08.35.11.2.31.29.23.05h.31s.37-.19.37-.19l.18-.16.35-.4.08-.24v-.26s-.31-.69-.31-.69l-.35-.28-.14-.08h-.2l.11.19"/>
  <path class="cls-2" d="M28.04,47.51l-.06.02-.03-.03.07.02.12.36.12.79.02,1.23.06.06.17-.02.53-.17.38-.04h.31s.21.07.21.07"/>
  <path class="cls-2" d="M31.22,47.73h-.07s.04,0,.04,0l-.04-.02h-.15l-.22.07-.14.15-.11.21-.07.27-.05.47.02.21.12.33.27.28.17.1.21.03h.25l.27-.08.27-.24.1-.2v-.14s-.04-.29-.04-.29l-.2-.51-.23-.39-.16-.12-.18-.05-.06.03.2.37"/>
  <path class="cls-2" d="M33.45,49.96l.1.09-.03-.33-.19-1.11-.07-.69-.03-.08.02-.03h-.04s0,.05,0,.05l.18.08.72.91.38.54.53.39v-.03s-.05-.01-.05-.01l.04-.54-.05-.62.05-1-.02-.09v.03s-.1,0-.1,0"/>
  <path class="cls-5" d="M14.22,47.53l-.03.09-.05.03.07-.06h.08l-.05.02-.02-.02"/>
  <path class="cls-5" d="M14.35,49.39l.04.1v-.03s-.13-.06-.13-.06l-.2-.02h-.11s-.11.07-.11.07l-.11.12-.14.26-.02.09.02.32.05.14.16.27.13.13.19.08.23.05h.38l.17-.05.12-.07.25-.25.06-.19v-.29s-.17-.44-.17-.44l-.11-.14-.13-.1-.61-.18-.08.02-.08.12.02.02"/>
  <path class="cls-3" d="M2.44,46.65v.02s-.02,0-.02,0v-.08s-.08-.03-.08-.03l-.18.02-.61.35-.07.1-.03.12.03.57.09.22.13.15.16.14.24.14h.38s.4-.17.4-.17l.34-.28.06-.09.05-.27v-.22s-.22-.47-.22-.47l-.27-.3-.16-.08h-.18l-.07.04-.03.14"/>
  <path class="cls-3" d="M2.68,49.71v.05s0-.06,0-.06l-.1-.11-.15-.09h-.27l-.22.11-.19.2-.09.52.14.48.18.19.16.12.23.08h.15s.4-.02.4-.02l.23-.14.18-.2.06-.16.04-.58-.21-.3-.18-.16-.25-.13-.21-.03v.08"/>
  <path class="cls-4" d="M7.46,48.37l-.02.03h.04s-.21.06-.21.06l-.17.14-.1.13-.08.24v.33s.05.22.05.22l.08.21.14.16.29.1h.14l.18-.06.09-.09.2-.34.13-.39-.02-.18-.14-.2-.27-.29-.12-.06h-.08l.15.21"/>
  <path class="cls-4" d="M8.99,49.54v.12s.04-.08.04-.08l-.16-.31-.07-.36v-.12s.07-.36.07-.36l.21-.2.14-.08.19-.03.33.02.13.13v.15s-.04.09-.04.09l-.24.23-.29.15v.06s.13.29.13.29l.13.16.22.21.53.35.02.07"/>
  <path class="cls-2" d="M23.32,58.84l.11-.07-.03-.18-.17-.13-.27-.08-.31-.02-.16.03-.29.1-.25.18.03.18.19.38.2.27.81.84.02.07.08.07.02.08.09.12-.21.16-.25.12-.47.12h-.41s-.05,0-.05,0l.29-.04"/>
  <path class="cls-2" d="M24.54,60.74l-.08-.04-.02-.08-.09-.75v-.28s-.07-.41-.07-.41l-.07-.24v-.1s-.01.02-.01.02l.31-.09h.34l.38.07.29.13"/>
  <path class="cls-2" d="M24.42,59.89l.07.04.47-.05h.19s.19.06.19.06l.12.07.04.07"/>
  <path class="cls-2" d="M24.55,60.44l.05.02h.4l.58.11h.25"/>
  <path class="cls-2" d="M26.7,60.4l-.03.07.08-.07-.03-.22.06-.2.05-.57.16-.9.06-.17-.02.05.16.15.09.16.3.82.04.26.15.34.09.11.11-.02.12-.12.09-.16.12-.31.08-.27.14-.79v-.27s.21.71.21.71l.07.48.26.95.11.15.1.05.13-.05.06-.08"/>
  <path class="cls-2" d="M30.23,58.55l-.04.02.03.09-.05.17.09,1.07.08.27.07.04.09-.02"/>
  <path class="cls-2" d="M32.16,58.71l.03.03v-.07s-.08-.06-.08-.06l-.22-.05h-.13s-.19.11-.19.11l-.17.19-.1.24-.06.56.02.39.08.2.19.35.19.14.21.07h.17s.28-.09.28-.09l.55-.35"/>
  <path class="cls-2" d="M34.62,58.76h-.03s-.2-.14-.2-.14l-.25-.02-.11.03-.25.19-.14.23-.1.37v.36s.03.34.03.34l.06.26.12.22.24.27.23.04.2-.02.16-.04.14-.08.26-.26.17-.24.2-.4.03-.14-.03-.22-.07-.12-.36-.37-.16-.04h-.15s.09.2.09.2"/>
  <path class="cls-2" d="M36.5,58.72h-.11.04l.03.09v.26s.07,1.55.07,1.55l.08.21.06.03.07-.08.58-.11h.59"/>
  <path class="cls-2" d="M38.8,59.08v-.07s-.09-.05-.09-.05l.05.04-.08.02-.17.17-.09.42.02.55.08.27.11.13.1.08.19.07.3-.02.25-.18.08-.13.15-.48-.02-.22-.05-.16-.34-.36-.24-.11h-.04l.02.05"/>
  <path class="cls-2" d="M41.08,60.51v.09s.07-.02.07-.02l-.06-.03-.06-.33v-.52s-.1-1.09-.1-1.09v.03s.05.02.05.02l-.04-.03h.03l.18.12.36.36.19.33.67.89.23.21.19.09-.09-.04.06-.08.08-.45.03-.71-.14-1.12-.05.16"/>
  <path class="cls-5" d="M14.4,57.78l-.07.12-.05.02-.04-.04.03-.02.04.05-.07-.03h.06s-.02,0-.02,0l.03-.02"/>
  <path class="cls-5" d="M13.99,62.57l.03.05.25-.44.5-.51.03-.12.2-.29.09-.44.02-.29-.03-.33-.19-.25-.32-.21-.28-.11-.24-.05-.18.02-.04.04-.12.27v.5s.12.32.12.32l.11.11.29.18.17.06.44.07.1-.02.07-.05"/>
  <path class="cls-3" d="M2.05,62.58l-.02.05.07.06.04-.05.19-.07.44-.4.15-.22.24-.54.03-.28.06-.2.03-.44v-.13s-.1-.23-.1-.23l-.17-.27-.11-.11-.21-.12-.24-.05h-.19s-.14.08-.14.08l-.1.14-.11.22-.04.39.05.2.12.16.2.16.39.08.35-.03.05-.12"/>
  <path class="cls-3" d="M2.26,57.18l-.08-.07h-.06s-.26.16-.26.16l-.1.16-.03.13v.21s.18.39.18.39l.19.21.16.09.22.06h.24s.39-.18.39-.18l.15-.2.02-.24-.12-.34-.14-.16-.34-.28-.33-.14h-.03l.04.07"/>
  <path class="cls-4" d="M7.27,59.54l.14-.2v.03s-.23-.05-.23-.05l-.2.12-.09.12-.09.22-.07.33v.18s.06.29.06.29l.22.34.12.06.11.03.2-.04.25-.31.11-.27.04-.22-.02-.15-.21-.4-.32-.26.22.25"/>
  <path class="cls-4" d="M8.9,60.74l-.1.1-.06-.04-.06-.23-.06-.55.04-.43.1-.2.09-.08.09-.05.36-.04.19.15.06.25-.17.26-.13.1-.22.1.09.21.37.35.54.39.27.13v.04"/>
  <path class="cls-3" d="M1.64,39.11l-.05.09h.07l.03.03.22-.18.39-.2.25-.18.2-.21.34-.47.14-.28.08-.19.1-.42v-.86s-.05-.23-.05-.23l-.16-.34-.31-.31-.36-.2-.2-.03-.21.02-.12.06-.1.11-.1.19-.1.48.04.43.04.11.14.2.21.2.38.21.25.05.57-.03"/>
  <path class="cls-2" d="M34.57,38.51v.2s-.01.05-.01.05l-.03-.14.04-.26.14-.39.08-.42.28-.99.13-.31v-.06s-.04-.08-.04-.08l.07-.03.28.22.13.24.2.66.16.67.22.55.33.34.14.06h-.04"/>
  <path class="cls-2" d="M34.99,37.69l.06.06h.05l.74-.21h.53"/>
  <path class="cls-2" d="M26.89,38.61h-.11s.07-.03.07-.03l.05-.38.09-.22.04-.24.06-.11.1-.37.09-.7v-.03s-.04,0-.04,0l.21.3.27.95.26.37h.05s.07-.03.07-.03l.15-.37.22-.86.05-.34.05-.1-.03-.04v.04s.21.42.21.42l.24.9.21.39.25.33"/>
  <path class="cls-2" d="M30.49,38.45l.11.3-.02-.12.04-.18.37-1.46.06-.15-.02-.14-.02.03h.04l.06.12.07.32.14.36.1.49.13.38.22.28.13.03.08-.05.24-.44.14-.4.16-.79.06-.5-.03-.05v.05s.03.03.03.03l-.02.03.08.07.1.26.27,1.14.11.31.18.12h.14"/>
  <path class="cls-2" d="M22.93,36.75l-.04.03-.02-.08-.08-.07-.3-.06-.29.06-.34.26-.15.26-.1.27-.07.29v.39s.08.26.08.26l.33.45.24.19.2.11.22.02.17-.04.26-.13.31-.23"/>
  <path class="cls-2" d="M24.68,36.68v-.04s.06,0,.06,0v.04s-.13.02-.13.02l-.23.26-.13.29-.1.32-.05.59.1.28.1.18.13.12.33.16.17.02.11-.02.33-.17.19-.18.11-.2.08-.24v-.27s-.01-.14-.01-.14l-.1-.24-.14-.14-.33-.19-.33-.12h-.14s.03-.04.03-.04l.13.02"/>
  <path class="cls-2" d="M74.38,115.95h.08s-.05,0-.05,0l-.14-.1-.12-.02-.17.03-.13.08-.13.15-.03.1.03.18.1.18.21.23.5.24.23.15.14.19-.07.09-.12.06-.82.11.23.03"/>
  <path class="cls-2" d="M75.85,117.34l-.1-.13v-.19s-.16-.52-.16-.52l-.04-.37"/>
  <path class="cls-4" d="M75.41,115.1l-.05-.08v.05s.12.05.12.05"/>
  <path class="cls-2" d="M76.4,116.22l.1.14.06.19.09.1.15.35.04.25.07.16.11-.03.1-.16.18-.61.04-.31-.02.04h.04s.06.1.06.1l.19.42.18.29.1.05"/>
  <path class="cls-2" d="M78.72,116.21l.03-.03v-.07s-.06-.03-.06-.03h.04v.1s-.22.25-.22.25l-.1.22.02.51.06.26.05.08.06.06.09.03h.32l.35-.23.16-.16"/>
  <path class="cls-2" d="M80.35,116.51l.06.05.48-.37.15-.21-.02-.08-.22-.02-.14.03-.18.09-.23.18-.1.26.03.37.11.19.13.12.23.09.35-.02.48-.16"/>
  <path class="cls-2" d="M84.04,114.95l-.04.06h.04s0,.04,0,.04l.09,1.48.08.27.03.35.16.49h.07s.15-.08.15-.08"/>
  <path class="cls-2" d="M83.27,116.25l.16.08h.43l.48-.16.27-.17.05-.08.17-.11.33-.52.07-.15v-.09s0,.08,0,.08l.06.24.1.83.17.57.12.09.07-.03.1-.11.09-.19.27-.29-.02.08.14.15.16.33.07.23.17.16h.16l.08-.07"/>
  <path class="cls-2" d="M87.5,116.16l-.03.04h.4s.19.1.19.1l.2.39.04.34-.02.09.02.07h.03s-.12-.14-.12-.14l-.16-.09-.19-.06h-.29s-.11.04-.11.04l-.05.12.06.22.09.13.27.13h.19l.24-.12.2-.25"/>
  <path class="cls-2" d="M88.85,115.08l.03-.03.06.04.11.39.09.84v.88s.06.3.06.3l.02.03h.08s.09-.06.09-.06l.04-.05.04-.17"/>
  <path class="cls-2" d="M88.85,116.33l.09.05.33.06h.24s.21-.11.21-.11"/>
  <path class="cls-2" d="M90.4,115.56l.07-.41v-.23s-.07-.11-.07-.11l.02-.04h-.03s.01-.03.01-.03"/>
  <path class="cls-2" d="M91.55,115.82v.03h.08v-.03s-.36.07-.36.07l-.08.11.02.11.1.14.31.14.19.19.15.32.05.27-.32.17h-.22s-.22-.04-.22-.04"/>
  <path class="cls-2" d="M57.63,116.8v-.05s0,.06,0,.06l.05.04.05.26.08.13.03.17.11.26v-.05h-.04l.17-.31.02-.15.17-.37.16-.2.1.04.09.11.05.15.15.76.08.1.03-.03"/>
  <path class="cls-2" d="M59.87,116.77l-.25.32-.06.24.05.2.13.23.14.1h.11s.2-.1.2-.1l.12-.17.04-.11.06-.37v-.23s-.07-.16-.07-.16l-.18-.07h-.07v.05"/>
  <path class="cls-2" d="M61.34,115.39l.05.29-.03.74.02.59.05.48.12.31.12.19.08.07.13-.04.21-.19"/>
  <path class="cls-2" d="M61.06,116.93l.05.03,1.08-.08"/>
  <path class="cls-2" d="M57.24,118.98v.05s-.04-.02-.04-.02l-.09-.14-.52-.42-.4-.53-.15-.27-.17-.54-.04-.28.05-.71.17-.53.22-.48.25-.27.1-.18.23-.21h-.06v.03"/>
  <path class="cls-2" d="M65.45,116.82l-.05.15.04-.04v.03s.62.07.62.07l.73-.03,1.18-.14,1.13.14.36-.03.15.02h-.04s-.02,0-.02,0h.04s-.03-.03-.03-.03"/>
  <path class="cls-2" d="M96.77,115l.04.02v-.04s-.13-.08-.13-.08l-.23-.07h-.33s-.34.07-.34.07l-.22.09-.11.1v.3s.15.3.15.3l.22.32.62.51.2.1.41.29.31.39.11.28-.13.16-.2.15-.32.1-.43.07h-.41l-.52-.08-.06-.06.02-.14"/>
  <path class="cls-2" d="M98.12,119.28l-.04.08v-.04s.17-.1.17-.1l.28-.26.18-.24.08-.17.24-.63.15-.52.2-1.02v-.39s-.15-.59-.15-.59l-.11-.26-.47-.74-.38-.45-.17-.09"/>
  <path class="cls-2" d="M48.88,115.41l-.02.11.07.09.12.51v.39s.07.3.07.3l.06.72.04.32.06.14"/>
  <path class="cls-2" d="M48.99,116.94l.05.04.17.03.25.02.21-.04.3-.14.12-.1.16-.26"/>
  <path class="cls-2" d="M50.42,115.3l-.1.07.21.62.09.38v.37s.07.39.07.39l.13.43.02-.02"/>
  <path class="cls-2" d="M21.46,115.44v-.09s-.01.02-.01.02l.07.3.06.68-.02.39.04.21.05.68.07.33.14.35"/>
  <path class="cls-2" d="M21.44,116.83l.43.12h.43l.37.04"/>
  <path class="cls-2" d="M22.84,115.69l-.03.1.05.18v.29s-.05.62-.05.62l-.02.99.09.25.13.21.09.03.1-.02"/>
  <path class="cls-2" d="M24.4,118.18l.03-.03v-.07s.2-.68.2-.68l.03-.34-.05-.2-.21-.48-.29-.55-.11-.28h-.03s-.02.02-.02.02l.3.15"/>
  <path class="cls-2" d="M24.72,116.94l.04.11.22-.36.29-.84.12-.28.09-.11"/>
  <path class="cls-2" d="M26.57,118.02l.02.13.02-.07-.05-.04-.1-.53-.18-.72v-.35s-.02-.27-.02-.27l.1-.42.07-.09.25-.15h.36s.41.3.41.3l.02.12-.03.31-.2.38-.17.21-.13.1-.13.04-.37-.03"/>
  <path class="cls-2" d="M28.18,115.45v-.04s.04.02.04.02l.04.2v.81s.06.74.06.74l.1.57v.29s.04.03.04.03h.04"/>
  <path class="cls-2" d="M28.33,116.73l.05.09.08-.02,1.11.08"/>
  <path class="cls-2" d="M30.01,117.77l-.03-.02-.03-.19.03-.59-.09-1.05v-.67s-.06-.29-.06-.29l-.06-.18-.04.06.02.19"/>
  <path class="cls-2" d="M31.07,117.24l.04-.26v-.39s-.02-.19-.02-.19l-.13-.41-.08-.6.04.04.26-.07.38-.02.53.09h.27"/>
  <path class="cls-2" d="M31.32,116.53l.11.03.64-.12.36-.02.12.05.02.09"/>
  <path class="cls-2" d="M31.2,117.55v.1s.04.03.04.03l.72-.21h.42l.56.2"/>
  <path class="cls-2" d="M34.23,117.68l-.08.18.08-.14-.03-.22v-.28s-.06-.6-.06-.6l-.02-.7-.11-.21.04-.17.03.02v.03s.14.07.14.07l.21.19.35.42.17.25.07.17.41.39.44.57-.03-.04.08-1.21.06-.58.05-.17"/>
  <path class="cls-2" d="M37.78,118.56l-.05.03.17-.51.47-1.02.4-.77.31-.85.09-.13h.05"/>
  <path class="cls-2" d="M41.42,117.94h-.09s.04-.02.04-.02l-.04-.1-.02-.23v-.31s-.03-.51-.03-.51v-.58s-.03-.28-.03-.28l-.06-.1.04.06.41-.02.31.07.38.13.31.17.24.23.34.57v.4s-.14.25-.14.25l-.41.3-.39.12-.46.03-.32-.08"/>
  <path class="cls-2" d="M43.97,117.75l.12-.22.21-.56.05-.61.06-.29v-.35s.06-.2.06-.2v.06s.18.15.18.15l.22.32.37.99.26.53.06.22.11.19"/>
  <path class="cls-2" d="M44.54,117.19l.02.03.48-.02.49.05"/>
  <path class="cls-2" d="M47.26,115.74l-.04-.02-.09-.15-.11-.05-.22-.03-.2.07-.16.13-.18.22-.05.14v.23s.09.19.09.19l.12.11.24.16.64.33.32.25.22.24.08.18.04.24-.23.22-.33.09h-.7s-.14-.07-.14-.07l.05-.07"/>
  <path class="cls-2" d="M63.54,104.13l-.05.06-.02-.03-.07-.31-.08-1.2-.25-.88-.04-.11v.11"/>
  <path class="cls-2" d="M63.27,103.03l.1.04h.53l.31.1.25.27.15.28v.33s-.17.12-.17.12h-.34l-.61-.1"/>
  <path class="cls-2" d="M65.49,104.19l-.06-.07-.03-.14v-1.11s-.11-.71-.11-.71l-.06-.2-.03-.02v.12s.07.11.07.11"/>
  <path class="cls-2" d="M66.66,102.92l-.23.24-.17.23-.05.16-.03.26.14.3.15.05.1-.03.15-.12.12-.22.1-.37-.03-.15-.09-.16-.12-.11h-.12s0,.12,0,.12"/>
  <path class="cls-2" d="M68.14,102.85h-.07l.02.02-.23.16-.24.25-.05.16v.29s.07.16.07.16l.23.11.37-.04.27-.11"/>
  <path class="cls-2" d="M69.19,104.09l-.02.07v-.21s-.12-.51-.12-.51l-.37-1.1-.05-.39.1.08"/>
  <path class="cls-2" d="M68.97,102.88l.4-.14.36-.02.07.03-.04.03"/>
  <path class="cls-2" d="M69.2,103.01l.03.18.1.11.32.2.41.4.31.19"/>
  <path class="cls-3" d="M87.61,95.01v-.05s.02,0,.02,0l-.02.02h-.16l-.21.09-.38.28-.17.22-.17.47-.04.3v.41s.07.17.07.17l.22.4.14.16.13.04.22.04.26-.02.29-.19.18-.2.02-.29-.17-.26-.12-.08-.3-.1-.28-.03-.21.08v.06s-.06.03-.06.03l-.02.08"/>
  <path class="cls-4" d="M86.56,100.28l-.07.04.13-.04.62-.39.29-.14.27-.1.28-.02.11.06.08.1.13.43.12.15.11.07.12.02.33-.02.92-.34.62-.31.63-.21h.03s-.07.03-.07.03h.06s.25.55.25.55l.15.1h.46s.88-.38.88-.38l.41-.12.14-.02h.07s-.05.03-.05.03v.08s.13.19.13.19l.2.17.24.1h.32l.19-.05.85-.42.7-.25h.12s-.1.04-.1.04l.21.37.16.07.2-.02,1.07-.47.9-.47"/>
  <path class="cls-4" d="M86.76,102.63l-.06.08.03-.03h.27s1.06-.39,1.06-.39l.29-.03h.08s-.02.04-.02.04l.17.09.3.31.28.16.16.08h.35s.36-.08.36-.08l.18-.1,1.12-.41.51-.11h.06l-.12.02.03.07.21.31.2.1h.35s.58-.22.58-.22l.59-.3.13-.04.03.02-.04.04-.03-.02.16.27.11.28.06.05h.08s.2,0,.2,0l.58-.33.6-.28h.02s-.06.06-.06.06h-.03s.44.39.44.39l.14.05h.37s.43-.1.43-.1l.91-.3.47-.17.26-.13"/>
  <path class="cls-4" d="M86.65,105.32h.07s-.02.04-.02.04l-.05-.02.03.03h.07l1.08-.58.59-.17.19.02.11.04.07.11.07.04.25.4.23.16.21.06.43-.03.57-.24.53-.29.18-.05h.09s0,.04,0,.04l.27.07.09.05v.02s-.05.09-.05.09l.05.07.06.19.14.09.21.03.32-.02.41-.11.62-.27.2-.06.08.03.02.09.06.02.25.24.15.05h.25s.13-.03.13-.03l.43-.27.34-.13"/>
  <path class="cls-3" d="M88.04,109.84v.03s-.17-.07-.17-.07l-.73-.52-.18-.31-.11-.62.09-.37.07-.15.21-.31.13-.11.25-.15.27-.06h.11s.17.11.17.11l.13.14.09.19.05.24-.04.3-.11.15-.23.08-.46.02-.47-.08-.1-.1.02-.05"/>
  <path class="cls-2" d="M73.77,102.92h.04s-.12-.11-.12-.11h-.09s-.32,0-.32,0l-.28.11-.16.17-.03.12.06.32.16.21.16.08.31.02.2-.05.22-.13.24-.23.17-.21v-.17s-.03-.02-.03-.02l-.04.03-.04.22-.02.39.04.24.41,1.45.07.11.1-.04"/>
  <path class="cls-2" d="M74.94,103.17l-.03.12-.04.02.03.02v.06s0,.2,0,.2l.03.14.13.16.1.07.11.02h.08s.13-.1.13-.1l.27-.46.05-.18-.03-.2.16.64.19.43.12.12"/>
  <path class="cls-2" d="M76.86,102.97v.04s-.1.12-.1.12l-.06.29.08.32.16.25.15.04.26-.08.17-.25.07-.18.02-.18-.07-.15-.24-.16h-.17s-.1.07-.1.07"/>
  <path class="cls-2" d="M78.24,101.94l.04.18-.04.68.04.31.14.58.09.17.15.14h.19s.23-.13.23-.13l.21-.19"/>
  <path class="cls-2" d="M78.21,102.96l.03.09.79-.08h.35"/>
  <path class="cls-2" d="M80.09,103.19l.05.02.2-.02.36-.19.08-.13v-.13s-.04-.08-.04-.08l-.1-.05-.22-.02-.16.05-.13.11-.1.16-.07.23.02.26.13.27.31.27.14.04h.17l.33-.08"/>
  <path class="cls-2" d="M81.91,103.8l-.05.04h.1l-.04-.03v-.11"/>
  <path class="cls-2" d="M81.91,102.93h-.09l-.04-.03.02-.02.06.05"/>
</svg>