<?xml version="1.0" encoding="UTF-8"?>
<svg id="vector" xmlns="http://www.w3.org/2000/svg" viewBox="0 0 44.77 8.94">
  <defs>
    <style>
      .cls-1 {
        fill: none;
        stroke: #000;
        stroke-linecap: round;
        stroke-linejoin: round;
        stroke-width: .6px;
      }
    </style>
  </defs>
  <path class="cls-1" d="M.94,6.96l-.08.09-.07.02.05-.02h-.02s.04-.05.04-.05l.12-.3.4-.58.25-.45.45-.96.51-.92.77-1.17.02-.06-.03-.02-.02.02-.02-.12.18-.1h-.09s.07.06.07.06"/>
  <path class="cls-1" d="M9.48,8.04l-.17.12-.27.1.47-.19,1.09-.61,3.5-2.32,2.69-1.59.98-.53,1.47-.71.99-.44,1.02-.4"/>
  <path class="cls-1" d="M37.25,7.39h.05s-.06.04-.06.04h.03s-.03-.01-.03-.01h.03s.58.04.58.04l.4-.09.74-.32,1.14-.65.51-.41,1.63-1.54.67-.69.12-.18.81-.79.25-.37v-.05s-.03,0-.03,0v.07s.06-.02.06-.02v-.04s.03-.02.03-.02l-.03.04-.07-.02"/>
  <path class="cls-1" d="M27.8,7.87l.04-.02.03.08.02-.09v.02s.03.02.03.02l.02-.66.09-.53.39-1.19.24-.59.61-1.2.45-.63.19-.22.5-.5.28-.22.54-.58.44-.37.36-.36.33-.28v.02s0-.04,0-.04l.02.08-.02.04v-.06s-.04.05-.04.05"/>
</svg>