<?xml version="1.0" encoding="UTF-8"?>
<svg id="vector" xmlns="http://www.w3.org/2000/svg" viewBox="0 0 49.22 19.43">
  <defs>
    <style>
      .cls-1 {
        stroke: #60889a;
      }

      .cls-1, .cls-2, .cls-3 {
        fill: none;
        stroke-linecap: round;
        stroke-linejoin: round;
      }

      .cls-1, .cls-3 {
        stroke-width: .4px;
      }

      .cls-2 {
        stroke: #000;
        stroke-width: .6px;
      }

      .cls-3 {
        stroke: #7fa0af;
      }
    </style>
  </defs>
  <path class="cls-3" d="M.71,8.49v.08s0-.02,0-.02l.04-.02.05.04v-.02s-.01.03-.01.03h.28l1.01-.11,2.02-.05,1.47-.14.88.03,1.19.18.93.02h.98s.78-.08.78-.08h.68l1.63.12,1.11-.03,1.09.05h1.7s2.36-.06,2.36-.06l2.06-.15,5.01-.21,1.31.02,1.85-.06,1.19-.07h1.46s.35-.04.35-.04l2.83-.1h2.88s1.17.05,1.17.05l1.7.02,1.95-.03.64.03,1-.02.77.04h1.28s1.63-.1,1.63-.1l.61.03"/>
  <path class="cls-2" d="M18.67,3.74l.08-.07v.04s-.04-.04-.04-.04l-.16-.03-.5.05-.54.19-.29.26-.16.37v.31s.11.3.11.3l.2.26.38.28.31.18.42.09.55.03.31-.06.13-.06.54-.43.14-.18.24-.55.02-.15.15-.42.16-1.31-.03-.61-.07-.43-.05-.1-.02-.6-.02-.11h-.02.06-.04l-.02-.06v-.16s.04.05.04.05l-.02-.06.03-.15v.04s-.03,0-.03,0"/>
  <path class="cls-2" d="M28.04,10.23h-.04s-.08.35-.08.35v.3s.02.25.02.25l.15.46.16.35.22.33.16.13.54.32.38.14.43.02.4-.17.23-.17.16-.32.1-.13.03-.29.12-.47v-.18s.05-.18.05-.18l.02-.62-.1-1.49.03-1.05-.08-.93-.05-.16.02-.81-.2-.82-.11-.72-.08-.2v-.21s-.07-.21-.07-.21v-.4s-.04,0-.04,0v-.05s0-.31,0-.31h-.04s.29.03.29.03h.76l1.01.08h.71l.4.07.03-.02-.04.05"/>
  <path class="cls-2" d="M39.24,10.24v-.06s.02,0,.02,0v.04s-.04,0-.04,0l.02.04-.09.39.06.52.12.44.28.65.34.41.17.15.5.24.19.02.47-.02.15-.04.36-.18.1-.12.24-.2.17-.2.07-.14.06-.19v-.1s.17-.43.17-.43l.07-1-.04-.26.02-.5-.05-.47-.02-.86-.07-.33-.11-1.28.02-.36-.04-.39.03-.49-.06-.13-.03-.3.05-.6.08-.24v-.13s.21-.56.21-.56l.15-.16.36-.26v-.03s.54-.2.54-.2l.23-.03.45-.05h.26s.27.08.27.08h-.04s.01-.04.01-.04l.03.03h-.05"/>
  <path class="cls-1" d="M42.22,18.01l-.07.09.03-.02-.05-.03v-.08s-.11-.1-.11-.1l-.07-.33-.12-1.34.04-.35-.04-.07.11-.09.12-.04.44.05h.12s.26.05.26.05"/>
  <path class="cls-1" d="M42.12,16.95l-.08.11.87-.17.3.05"/>
  <path class="cls-1" d="M42.3,18.05l-.13.17v.03s.13-.08.13-.08l.12.05.18.02.24-.02.4-.1.59-.02"/>
  <path class="cls-1" d="M30.75,18.11l-.05.06.05-.02v-.18s-.08-.73-.08-.73l-.05-.15v-.52s0-.48,0-.48l-.04-.09.04-.03h-.05s.73-.09.73-.09l.46.15.08.08"/>
  <path class="cls-1" d="M30.86,17.24l-.1.05.46-.03.56-.1.22.03"/>
  <path class="cls-1" d="M30.69,18.17l-.05.14.02.03.07-.06v.03s.24-.07.24-.07l.53-.04.4.02.36.12"/>
  <path class="cls-1" d="M29.36,16.06v-.05h.02v.06s-.01.01-.01.01l.03.08-.02.5.07.77v.47s.08.32.08.32"/>
  <path class="cls-1" d="M39.25,16.12v-.09s.02-.01.02-.01l.02.05-.09.29v.27s-.08.29-.08.29l.12.58.15.48.15.28.06.09.13.09.19.06h.21s.23-.12.23-.12l.12-.19.12-.11v-.06s.09-.09.09-.09v-.08s.09-.1.09-.1l.08-.33.05-1.02-.03-.45-.03-.04-.04.04.17.21"/>
  <path class="cls-1" d="M4.52,18.64v.04s.04-.02.04-.02l-.14-.83-.03-.93.03-.3-.08-.49.22-.09.2-.02.64.04.44.09.35-.03"/>
  <path class="cls-1" d="M4.48,17.48l.02-.11.1-.06.36-.09h.59l.15.05.18.12"/>
  <path class="cls-1" d="M4.53,18.4l-.11.12h.06s.15.05.15.05l.3.06h.65s.57.05.57.05l.33-.05"/>
  <path class="cls-1" d="M7.48,18.48l.05.05-.05-.02h.03s.02-.12.02-.12l-.02-.81-.16-.84v-.27s-.13-.53-.13-.53l.25-.08h.39l.67.15.16.07"/>
  <path class="cls-1" d="M7.62,17.14v.16s.03-.03.03-.03l.1-.03.96-.02.15.14"/>
  <path class="cls-1" d="M7.68,18.62l-.06.17.11-.09.55-.21h1.01"/>
  <path class="cls-1" d="M10.11,16.03l-.09.2.06-.02.02.08.05.96.04.23.06.92.02.07h.03s.01-.16.01-.16"/>
  <path class="cls-1" d="M17.96,18.61v.03s.05,0,.05,0l.08-.59v-.29s-.05-.21-.05-.21l-.08-.18-.07-.27-.11-.13-.03-.11-.26-.4-.38-.43v-.03s-.04.02-.04.02l.11.17.12.13"/>
  <path class="cls-1" d="M18.04,17.36v.03s-.06-.02-.06-.02l.09-.03.47-.5.11-.14.22-.42.15-.18v-.04s-.02.02-.02.02h.03-.05s.11-.04.11-.04"/>
  <path class="cls-1" d="M26.67,16.23h.08s-.05,0-.05,0l.02.04-.06.42.11.92.29.58v.08s.11.15.11.15l.27.14h.16s.39-.3.39-.3l.23-.63.03-.62-.08-.43-.02-.49h.06-.06l-.03.03"/>
  <path class="cls-1" d="M20.3,15.94v.05s-.1.04-.1.04h.05s-.11.37-.11.37l-.08.45.03.18-.02.15.02.48-.04.78.06.27.04-.02-.02-.04v.06s.03-.02.03-.02v-.06"/>
  <path class="cls-2" d="M6.6,4.02l.05-.03-.08-.12-.24-.09-.66-.02-.36.08-.67.3-.16.15-.19.41.03.19.13.16.15.13.49.24.7.16.59.05,1.03-.02.37.03.33-.04h.58l.23.07-.05-.03h.04s-.1-.41-.1-.41l-.03-.44.08-.69-.02-1.3-.05-.47.08-1.15-.03-.44.07-.04-.06.02v.03"/>
</svg>