<?xml version="1.0" encoding="UTF-8"?>
<svg id="vector" xmlns="http://www.w3.org/2000/svg" viewBox="0 0 77.32 18.55">
  <defs>
    <style>
      .cls-1, .cls-2 {
        stroke: #000;
      }

      .cls-1, .cls-2, .cls-3, .cls-4 {
        fill: none;
        stroke-linecap: round;
        stroke-linejoin: round;
      }

      .cls-1, .cls-3 {
        stroke-width: .4px;
      }

      .cls-2, .cls-4 {
        stroke-width: .6px;
      }

      .cls-3, .cls-4 {
        stroke: #7fa0af;
      }
    </style>
  </defs>
  <path class="cls-2" d="M4.9,4.36l.03-.05-.04-.07-.21-.17-.24-.07h-.36s-.55.13-.55.13l-.39.14-.26.16-.15.2v.24s.06.27.06.27l.41.44.28.14.19.04h.57l.8-.06.67-.1.76-.02h-.02l-.07-.28-.08-.44-.12-1.29v-.94s.12-1.22.12-1.22v-.46s-.08-.36-.08-.36"/>
  <path class="cls-4" d="M2.3,7.36l-.1.02.69.13.84-.08,1.12.06h.52s.41-.03.41-.03l.97-.13.62-.03h-.05s.05-.03.05-.03l.04.14.21.25,1.5,1.46.47.36h-.04s-.34.21-.34.21l-.7.56-.38.19-.19.14-.21.17-.22.3-.05.06v-.02s.03,0,.03,0h-.03l.16.06h.13l.81-.11h.73l2.69.19v-.03"/>
  <path class="cls-3" d="M35.48,17.77v.03s.04-.02.04-.02v-.19s-.15-.57-.15-.57l-.03-.45.02-.21-.03-.19.06-.36.08-.06-.02-.05.05-.06.27-.08.41-.02.14.06.13.17v.29s-.08.22-.08.22l-.27.21-.46.15.18.13.43.16.18.13.04.07.15.13.05.24-.12.13-.31.18-.35.13h-.19"/>
  <path class="cls-1" d="M37.57,17.67l.03-.04.07-.33-.08-.48-.03-.41.02-.16-.07-.39-.05-.05.28-.04h.4s.38-.07.38-.07l.05.03.02.08"/>
  <path class="cls-1" d="M37.75,16.81l.43-.04h.28s.09.04.09.04"/>
  <path class="cls-1" d="M37.77,17.73l-.07.05.64-.12h.5"/>
  <path class="cls-1" d="M39.66,17.71l-.03-.05.16-.36.06-.21.09-1.06.17-.53v.02s.22.22.22.22l.16.26.37,1.02.3.58.05.05.02-.03"/>
  <path class="cls-1" d="M40.14,16.99l-.12.03h.23s.29-.04.29-.04l.42-.11"/>
  <path class="cls-1" d="M42.06,15.65l.04-.02v.29s-.09.67-.09.67v.37s.08.31.08.31l.04.16.13.27.19.18.2.06h.23l.11-.09.27-.33.09-.2.15-.43.04-.33v-.77s-.02-.03-.02-.03l-.02.02-.03-.02"/>
  <path class="cls-3" d="M44.36,15.77v.02s.48-.09.48-.09l.7-.06.29.02"/>
  <path class="cls-3" d="M45.11,15.85l-.08.05.02.17-.03.51.09.75.07.12-.03.06.04.1-.02.11h.04"/>
  <path class="cls-3" d="M46.46,15.61h-.04s.05,0,.05,0l.31.91.13.28.12.05-.02.02.31-.45.23-.5.15-.23v-.16s.05-.05.05-.05l-.02-.06h-.03"/>
  <path class="cls-3" d="M46.99,16.63l-.05.11.08.57.07.23v.52s.04-.07.04-.07h-.05s0-.02,0-.02"/>
  <path class="cls-3" d="M1.89,15.63l.08-.05.04-.07-.14-.16-.35-.03-.23.06-.19.12-.08.09-.04.17v.26s.18.4.18.4l.79.65.29.35.11.2-.05.17-.11.1-.2.1-.15.03h-.34s-.36-.08-.36-.08l-.34-.17-.2-.07"/>
  <path class="cls-1" d="M3.12,17.7l.02-.09-.04-.1-.02-.38-.06-.29-.08-1.11-.07-.34.21.05.52.06.43-.03.06.02.03.16"/>
  <path class="cls-1" d="M3.14,16.7l.43-.14h.23s.26.05.26.05l.15.1.04.07"/>
  <path class="cls-1" d="M3.26,17.62l-.05.09.02-.02.61.04.71-.03"/>
  <path class="cls-1" d="M5.46,17.54l-.03.04v-.73s-.04-.63-.04-.63l-.06-.63-.05-.23.02-.04.27-.02.45.04.25-.02.05.03"/>
  <path class="cls-1" d="M5.48,16.48v-.03s.26-.05.26-.05l.33-.05h.24l.14.08"/>
  <path class="cls-1" d="M5.49,17.69v.06s.02-.03.02-.03l.37-.06.3-.04h.51s.36-.07.36-.07"/>
  <path class="cls-1" d="M7.7,15.37l.05-.02.02.04v.46s.06.49.06.49l.11.64.05.51.03.08.03-.04h-.04s-.02-.08-.02-.08"/>
  <path class="cls-3" d="M12.89,15.22v-.05s-.15-.05-.15-.05h-.32l-.23.1-.23.22-.2.32-.07.3.03.61.04.1.09.11.28.27.15.09.35.14.57.05.24.07h-.03s0-.16,0-.16l.04-.53-.02-.41-.09-.21-.23-.03-.49.11h-.11"/>
  <path class="cls-3" d="M9.17,17.44l-.03-.04.02-.43-.15-.91-.02-.62-.05-.2.03-.17v.04s.33.4.33.4l.42.67.57.82.21.28.22.19v.04s.03-.71.03-.71l-.05-1.34-.04-.2v-.11s0-.03,0-.03v.02s0,.08,0,.08"/>
  <path class="cls-4" d="M20.52,5.08h.06l-.1.05-.71.67-.31.19-.23.18-.2.18-.12.15v.02s.02,0,.02,0h-.04s.24.18.24.18l.58.29.9.35.99.32.8.4.73.48.41.36.14.19.14.27.07.44-.04.2-.18.35-.25.27-.36.23-.24.06-.3-.03-.27-.06-.18-.07-.12-.1-.16-.26-.05-.19.11-.61.27-.75.35-.72.07-.2.14-.2.49-.85.77-1.18.38-.68.34-.48.11-.26.13-.19v.03s.04,0,.04,0h-.05s.84.12.84.12l.6.02,1.18.15.72.03"/>
  <path class="cls-2" d="M21.55,2.94h-.04.05s.54.7.54.7l.42.46.5.8.4.41.34.42,1.01,1.46.43.49.25.34.02.08.38.43.09.06.13.17.05.02h-.05.02s-.28-.62-.28-.62l-.05-.32v-.41s.05-.26.05-.26l.2-.27.16-.09.17-.05h.18l.28.14.31.28.48.65.24.41.07.18.08.08v.1s.06.02.06.02h-.04"/>
  <path class="cls-4" d="M19.82,9.01l.12.02.04-.02-.02-.18-.08-.08-.09-.02-.1.03-.04.09v.1s.11.19.11.19l.13.06"/>
  <path class="cls-3" d="M17.53,15.44l.02-.1.08.29.06.54.18.64.17.9.14.32.04.04v-.02s-.02,0-.02,0l.02-.08.23-.61.18-.39.18-.59.14-.6.04-.02.04-.17"/>
  <path class="cls-3" d="M19.59,17.71v-.1s.01.04.01.04l.2-.68.34-1.47.23.35.16.66.41.79.09.19.03.17.02.02v-.07"/>
  <path class="cls-3" d="M19.95,16.98l.03.03.48-.02.24.04"/>
  <path class="cls-3" d="M22.01,17.67l-.07.06h-.06s.04-.22.04-.22l-.05-.63-.05-.21-.04-.42v-.45s.07-.18.07-.18l.14-.11.19-.05.29-.02.24.11.16.16.08.17v.21s-.14.18-.14.18l-.63.33h.04s.1.18.1.18l.17.19.43.32.59.54.16.09h-.03"/>
  <path class="cls-1" d="M24.19,15.52h-.07s.08,0,.08,0l-.07,1.11.09.29.07.37.02.29h-.04s.02-.17.02-.17"/>
  <path class="cls-1" d="M25.56,15.66l-.02-.03-.13.05-.07.07-.11.22-.06.3v.21s.05.27.05.27l.12.29.19.2.32.17h.21l.29-.13.18-.22.19-.35.05-.39-.16-.39-.24-.3-.13-.08-.14-.03-.19.02-.11.08"/>
  <path class="cls-1" d="M27.74,15.77l-.07-.04.04.02-.09.1-.07.23-.04.43v.27s.16.41.16.41l.19.28.2.16.18.03.19-.06.12-.1.12-.22.11-.32.05-.59-.1-.54-.03-.14h-.02s.02.06.02.06"/>
  <path class="cls-4" d="M43.8,1.69v.06s.02,0,.02,0l-.03.55.09.27.27.28.38.19.14.03h.22s.22-.09.22-.09l.21-.15.13-.15.11-.16.28-.68.04-.18h-.03"/>
  <path class="cls-4" d="M37.15,6.46l-.04-.64.02-.18.11-.36.22-.24.33-.21.48-.07.38.06.44.17.21.11.29.22.5.57.54.72.32.56.25.51.27.42.29.37.03.08h-.03.04l-.02-.06"/>
  <path class="cls-4" d="M41.69,8.54l.03.05-.03-.02.02-.05,2.23-3.14.35-.44.25-.4.04-.12.04-.03h-.04.05l-.07.03"/>
  <path class="cls-2" d="M39.25,2.28v-.02s.25-.04.25-.04h.29l.26.09.16.1.45.45.08.13.13.34v.48s-.09.47-.09.47l-.15.47-.11.21-.45.73-.73.98-.65,1.12-.19.39-.24.68-.07.34v.62s.1.63.1.63l.23.5.26.29.39.3.5.29v.02s-.15-.41-.15-.41l-.03-.21v-.23s.09-.48.09-.48l.13-.26.23-.2.36-.12.24.03.16.07.27.21.21.27.38.72.14.38.07.25h-.02l-.03-.18"/>
  <path class="cls-3" d="M52.37,15.75l-.05-.02h.04l-.07-.1-.11-.06-.21-.03-.17.04-.06.09-.11.41.03.35.08.18.12.12.54.3.25.22.07.13-.02.06.05.09-.03.14-.17.14-.29.1-.17.02-.56-.05-.29-.13.03-.03"/>
  <path class="cls-1" d="M53.46,17.75l-.02-.02.05-.02.06-.18.05-.32.05-.08v-.05s.19-.62.19-.62l.08-.45.16-.49.15.31.14.48.03.19.13.28.04.19.06.13.2.26.14.41h.02s0,0,0,0v-.11"/>
  <path class="cls-1" d="M53.71,17.2l-.09.02.64-.02.28.05"/>
  <path class="cls-1" d="M55.2,15.74l-.04-.05h.02s.05.15.05.15l.34.57.3.41.12.07.38-.81.08-.38.06-.15.05-.04h-.03v-.02"/>
  <path class="cls-1" d="M56.09,16.93v-.04s.04.14.04.14l-.08.35-.03.37.06.17-.08.13"/>
  <path class="cls-1" d="M57.23,15.77v.08s.06-.02.06-.02v.4s.03.32.03.32l-.04.73.09.81-.03-.06"/>
  <path class="cls-3" d="M62.27,15.5l.02-.05-.04-.08-.19-.07-.24.04-.3.12-.22.19-.2.3-.05.12-.05.36.02.16.06.13v.18s.06.14.06.14l.08.12.17.14.32.14.34.05.35-.03.07-.03-.04-.29v-.21s.1-.54.1-.54h-.29s-.41.06-.41.06l.05-.03"/>
  <path class="cls-3" d="M58.41,17.72v.05s.03-.07.03-.07l-.05-.15-.03-.36.04-.21v-.34s-.02-.21-.02-.21v-.39s-.05-.3-.05-.3l.02-.15.04.02h-.05l.19.14.2.23.44.79.39.54.25.28.11.08h-.03l.03-.02.03-.56-.1-1.24.1-.34-.05.02.04.11"/>
  <path class="cls-4" d="M52.13,7.5l-.1-.02,1.56-.03.67-.07,2.99.07h-.05s.05,0,.05,0h-.05l.18.39.57.8.14.27.28.34.35.34.11.15.09.06.06.12.09.08h-.05s-.92.95-.92.95l-.21.18-.19.22-.45.38-.22.24h.03s-.04-.01-.04-.01l.16.08.24.05.64.07h1.35s.67-.06.67-.06h1.61s.38-.05.38-.05"/>
  <path class="cls-2" d="M52.8,11.93l.33.04.43-.06.34-.11.57-.31.32-.28.23-.3.28-.49.16-.43v-.35s-.07-.46-.07-.46l-.15-.64-.34-.6-.15-.34-.23-.58-.42-1.24-.09-.44-.05-.65.02-.2.1-.42.14-.29.39-.61.14-.07.21-.05h.25l.25.09.14.1.41.53.27.63.16.55.11.57h-.03s0-.13,0-.13l.06-.69.15-.64.77-2.46.35-.82.03-.02v.04"/>
  <path class="cls-3" d="M75.15,15.61l-.04-.03.26.05h.41s.79-.19.79-.19l.32.07"/>
  <path class="cls-3" d="M75.87,15.82h.07l.02.04.04.55.1.56v.63s.04.09.04.09h.06s-.07,0-.07,0"/>
  <path class="cls-1" d="M73.04,17.17h.07l.06-.7v-.46s-.05-.4-.05-.4l.03-.09h-.02l.26-.07.73-.02"/>
  <path class="cls-1" d="M73.23,16.35l-.03.09h.55s.37.06.37.06"/>
  <path class="cls-1" d="M73.21,17.26l-.08.06.02-.03.2.05.63-.04.29.04.17-.02"/>
  <path class="cls-1" d="M72.05,15.34h-.17l.07.02-.04.54.1.79v.5s.03,0,.03,0l-.07-.12"/>
  <path class="cls-3" d="M68,15.48v-.1s-.12-.06-.12-.06h-.14s-.23.09-.23.09l-.39.36-.11.19-.07.22-.05.56.07.39.24.29.16.1.15.06.25.02.27-.08.2-.12.46-.36.12-.15.05-.37-.11-.37-.36-.51-.16-.15-.21-.13h-.12s-.05.15-.05.15"/>
  <path class="cls-3" d="M67.86,16.75l.07.03h-.04s.05.09.05.09l.5.57.2.27.26.26.11.06.09-.18"/>
  <path class="cls-1" d="M69.78,15.46v-.03s.04,0,.04,0h-.05s.04.02.04.02l-.12.23-.07.31.04.25v.14s.09.38.09.38l.15.25.18.18.21.12.18.03.16-.03.09-.1.07-.08.13-.35.07-1.12-.02-.09-.09-.15h.05-.02"/>
  <path class="cls-4" d="M68.32,12.43l.02-.39-.12-.56-.1-1.3-.14-1.01.03-.34h-.03s.32-.16.32-.16l.3-.23.15-.16.27-.15,1.36-1.01.12-.06.74-.68.39-.31.18-.19,1.01-.71.31-.26.29-.18.09-.13.26-.21.02-.03h-.02v.24s-.03.57-.03.57l.1.83.05,1.82.05.26v.42l.08.84-.02.09-.07-.26"/>
  <path class="cls-2" d="M70.21,9.59h-.03v-.03s.02.02.02.02l-.03.16-.08.14-.02.14.02.35.1.62.07.25.09.18.16.23.24.23.19.09h.25l.15-.07.26-.21.23-.25v-.06s.16-.27.16-.27l.11-.36.07-.74-.04-.28.02-.72-.06-1.27-.27-1.66v-.5s-.28-2.14-.28-2.14l-.02-.46-.16-.88-.03-.07h-.03l.91.04.86-.03.42.07h.33l-.03.03"/>
  <path class="cls-3" d="M30.45,15.6v-.05h.04l-.04-.07-.24-.1h-.09s-.19.1-.19.1l-.2.22-.07.22v.18s.11.24.11.24l.31.34.57.3.24.19.05.07.03.15-.04.14-.21.17-.33.07-1.16.04-.09-.05-.02.04"/>
</svg>