<?xml version="1.0" encoding="UTF-8"?>
<svg id="vector" xmlns="http://www.w3.org/2000/svg" viewBox="0 0 53.12 31.55">
  <defs>
    <style>
      .cls-1 {
        stroke: #60889a;
        stroke-width: .4px;
      }

      .cls-1, .cls-2 {
        fill: none;
        stroke-linecap: round;
        stroke-linejoin: round;
      }

      .cls-2 {
        stroke: #000;
        stroke-width: .6px;
      }
    </style>
  </defs>
  <path class="cls-2" d="M42.13,23.86l-.04.08h.04s-.02-.01-.02-.01l.81-.55.28-.34.1-.07,1.11-1.09.04-.09.13-.14.28-.22.34-.32.13-.16.17-.13v-.03s.09-.08.09-.08v-.05s.15-.21.15-.21l.46-.38.06-.09.28-.22h.06s-.08,0-.08,0h.06s.11-.1.11-.1h.06s-.04.02-.04.02v-.03s.08-.06.08-.06l.15-.04.03-.03-.03-.02h.08l.09-.06-.02-.02h-.05l.04.03v.16s-.08.51-.08.51l.07,1.28-.05.48-.08.25.08.18.03.46-.06.27.07.16v.51s.04.08.04.08l-.09.42.02-.04h.05s-.06.02-.06.02h.06-.04l-.02.1h.03s-.04.03-.04.03l.04-.03-.02-.02.52-.28.21-.15.46-.46.21-.15.38-.37.59-.7.61-.55.61-.41.09-.09h.06s.28-.28.28-.28l.3-.38.27-.27.12-.1.07-.03-.04.05.16-.24.1-.04.03-.03-.02-.02.06-.04h-.02l.16-.14h.04s-.02.02-.02.02l-.03-.03.03.02.15-.2-.05.06h-.03s.06-.02.06-.02l-.24.28"/>
  <path class="cls-2" d="M26,19.75l.07.02-.03.03.03-.02-.03.39.04.43-.04.49.06.22v.28s-.02.78-.02.78l.04.27v.29s-.04.45-.04.45v.67s.03.31.03.31l-.03.18.02-.02-.04.04.05-.02h-.06.04v-.04s.16-.06.16-.06l.07-.07.16-.08.12-.14.13-.1.29-.4.02-.08.23-.24.42-.36.43-.44.39-.3.33-.39.73-.69.38-.47.11-.09.08-.02v-.07s.06-.03.06-.03l.03-.07.31-.34.31-.28.11-.03-.06.02.13-.12.02.02h-.05s.03.02.03.02l.04.35.03.45-.02.13.09.89.07.33-.03.72.12.94.06.16-.03.09.04.13v.38s.04.02.04.02v.05s-.07.09-.07.09v.05s.05-.01.05-.01l-.04-.02v.05s.02-.03.02-.03l-.03.02v-.02s-.03.01-.03.01l.06.02-.02-.03h-.03s.05.01.05.01l-.04.17-.03-.03h.08s-.06-.04-.06-.04l.03.04.04-.03.04-.08.19-.15.15-.05.21-.19.32-.19.29-.27.32-.21.08-.11.3-.22.08-.11.5-.5.38-.49.84-.66.36-.42.03-.07.33-.21.15-.17.55-.48.06-.02.03-.07.12-.09.06-.1h.03s-.01.04-.01.04v-.04s-.12.07-.12.07"/>
  <path class="cls-2" d="M.62,19.88l-.04-.05h.03s.01.02.01.02l-.04.03.04.02.02.46-.03.78.13,1.04-.04.71.02.37-.04.17.07.31v.13s-.02,0-.02,0l.07.4v.05s-.03-.01-.03-.01l.02.18.02.05.05-.02h-.05s-.03.02-.03.02h.03s-.03,0-.03,0l.02-.03.59-.31.4-.32.64-.4,1.07-.85.47-.3.19-.15v-.04s.08-.04.08-.04l.06-.1.52-.52,1-.7.22-.24.08-.05.18-.22.17-.11h-.05l.1-.12.25-.17.03-.03h-.04s.08-.01.08-.01h-.06v.02"/>
  <path class="cls-2" d="M12.97,19.9l.02-.07v.05s.09.02.09.02v.09s.03.09.03.09v.12s-.03.24-.03.24l.04.24v.28s.07.76.07.76l.07.23v.05s.03.08.03.08l-.05.22.05.4-.03.18.03.24.07.12-.03.36.09.36v.24s-.06,0-.06,0h.08v.14s-.07-.03-.07-.03h.08s-.03,0-.03,0l.03.02-.07.22v.13s.06-.01.06-.01h-.06s.07,0,.07,0l-.04-.02v-.02s.24-.22.24-.22l.04-.07.32-.26.13-.07.08-.12.3-.29.12-.17.17-.14.06-.09.21-.13.61-.62.07-.12,1.14-1.05.39-.47.28-.18v-.04s.24-.25.24-.25l.06-.11.27-.24.14-.07v-.07s.13-.09.13-.09l-.02-.02.04.03v-.03s.16-.08.16-.08l-.05.02h.05s-.06,0-.06,0l.02.04-.03.16.03.17-.03.61.04.56-.03.18.03.08v.34s.02.29.02.29l.13.81-.06.41v.26s.1.28.1.28l-.03.13.03.09-.02.21.03.33.05.09h-.03s.03-.01.03-.01h-.06s.02.15.02.15l.03-.09v-.18"/>
  <path class="cls-1" d="M49.18,28.06v.05s-.02.01-.02.01l.08-.02.02.02v-.03s-.04.02-.04.02l.07-.03.39.09.28.02.6-.06.64-.02.34.03.18.07h.07s-.17-.07-.17-.07"/>
  <path class="cls-1" d="M50.51,28.28l-.09.07h.05l.03.04-.02.61.04.63-.03.27.05.63.06.13.04.32.02-.04-.06-.02-.03-.2"/>
  <path class="cls-1" d="M46.17,28.24l-.06-.03.07.04.79-.04.91-.13.29.09"/>
  <path class="cls-1" d="M47.46,28.16l-.05.04.03.02v.5s-.02.5-.02.5l.07,1.01.03.09h.02s-.12.25-.12.25"/>
  <path class="cls-1" d="M30.9,28.15h-.04s.2.08.2.08l.33.05.65-.1h.39s.27.05.27.05l.13.08"/>
  <path class="cls-1" d="M32.17,28.31l-.09.6.05.6.13.75.03.34v.13s-.07.06-.07.06l.03-.02-.02-.02.02-.05"/>
  <path class="cls-1" d="M33.81,28.37h1.47s.56-.04.56-.04l.24-.04v.04s-.06-.02-.06-.02l.02-.02"/>
  <path class="cls-1" d="M35.02,28.65l.06-.06-.04.05.04.09v.12s-.04.68-.04.68l.05.32v.53s.04.22.04.22l.08.26-.04-.04.03.03-.02-.02h.06s-.07-.04-.07-.04"/>
  <path class="cls-1" d="M13.24,28.7l-.08-.06.02-.02.08.03.08.1.27.58.19.54.21.35.14.15-.04-.03-.02.02h.03l.07-.19.2-.33.12-.24.1-.34.09-.12.04-.33.1-.12.07-.02-.02.02.13.13.09.13v.06s.06.06.06.06l.31.9.31.55.04-.03.37-1.1.12-.5v-.18s.12-.4.12-.4l-.08.03"/>
  <path class="cls-1" d="M17.21,28.42v-.04h.03l.2.04h.54s.8-.07.8-.07l.42-.08h.1s.05.05.05.05l.08-.03-.09.02-.05.04"/>
  <path class="cls-1" d="M18.49,28.27l-.13.07h.06v.05s-.06.32-.06.32v.34s.16,1.11.16,1.11l-.02.33.07.25.03-.03-.02-.1.03-.12"/>
  <path class="cls-1" d="M42.74,28.36v.11s0-.05,0-.05h.05s.82-.13.82-.13l1.5-.08.16-.04-.05-.03"/>
  <path class="cls-1" d="M44.2,28.31l-.07.04.03.02-.09.39v.34s.19,1.22.19,1.22v.15s.03.12.03.12v-.03s-.03.02-.03.02l.03-.13"/>
  <path class="cls-1" d="M1.65,28.38v-.06s0,.03,0,.03h.05s.15.26.15.26l.31.92.16.28.07.28.17.35.11.16-.04-.04h.05s.25-.41.25-.41l.43-1.22.15-.35.06-.07h-.03v.04s-.01-.03-.01-.03l.12.11.22.28.08.17.06.29.13.4.16.3.15.2v-.03s.2-.24.2-.24l.26-.51.29-1.01.13-.31-.05.04h.05l.1-.11"/>
  <path class="cls-1" d="M26.46,28.38l.03-.04-.04.02.09.13.04.19.1.14.06.17.07.5.26.72.03.15.18.38h.03l.04-.18.15-.29.08-.24v-.16s.08-.12.08-.12l.13-.39.15-.29.2-.25v-.07s.12.06.12.06l.19.16.24.48.07.22.2.39.21.32.23.22h-.03s.25-.46.25-.46l.1-.29.16-.87.03-.26-.02-.2.06.02"/>
  <path class="cls-2" d="M12.24,2.86l.13.04-.44.06-.82-.03-.44-.14-.51-.32-.3-.39-.1-.23-.07-.5.15-.27.29-.22.32-.07h.4s.41.18.41.18l.38.27.52.55.35.47.28.45.15.15.19.3.62.82.62.75.11.19.35.35.17.24.4.41h.05s-.07-.02-.07-.02l.03-.02v-.23s-.04-.46-.04-.46l-.07-.29-.05-1.39-.03-.2.14-1.96-.04-.36.04-.32h-.07s.08,0,.08,0l-.03.03"/>
  <path class="cls-1" d="M11.58,9.24l-.08-.03h.03l-.02-.03-.1-.05-.37-.02-.39.16-.38.26-.11.12-.12.21.04.57.11.42.13.28.18.25.12.09.3.15.15.03h.36s.41-.14.41-.14l.14.02"/>
  <path class="cls-1" d="M12.99,11.23l.05.08v-.04s.03-.01.03-.01l-.03-.44-.14-.71v-.27s-.09-.46-.09-.46v-.17s0-.05,0-.05l-.05-.02.11.06.27.26.2.27.3.32.77.58.52.44v.04s.15.06.15.06l-.02.02h.03s-.03-.04-.03-.04v-.15s.06-.81.06-.81l-.04-.58-.06-.24v-.26s0-.03,0-.03v.03s.04-.02.04-.02h-.03"/>
  <path class="cls-2" d="M24.58,4.54v.16s.03-.05.03-.05h.05l-.05-.02.03-.04-.12-.83v-.31s-.05-.4-.05-.4l.04-1.93-.03-.2-.06-.04.44.06.87-.03,1.9.09.63-.02.97.05h1.84s.11.03.11.03l-.02-.02h.03-.05s-.09,0-.09,0"/>
  <path class="cls-2" d="M38.12,1v.02s.41-.03.41-.03l1.73.03,1.68-.04.38.03.89-.05,1.3.03h-.06.03l-.05.46.03.13-.04.22.03.6-.07.87.05.4h-.06l.05.03.06.46-.05.06-.03-.04v-.02s.06.02.06.02h-.04s0,.14,0,.14v.22s.03-.06.03-.06h-.04s.01.28.01.28l-.03.09v-.05s.04-.02.04-.02l-.06-.02"/>
  <path class="cls-1" d="M26.94,11.8l.05.02h-.03l-.03-.14-.02-.33.03-.37-.02-.43-.08-.48-.05-.89-.03-.02.02-.03-.04-.02.65-.03.72.12h.6s-.06.05-.06.05"/>
  <path class="cls-1" d="M27.01,10.68v-.07s.05.02.05.02l.51-.08,1.07.02.27-.02"/>
  <path class="cls-1" d="M42.28,8.67v-.06s-.04-.08-.04-.08l-.18-.11-.12-.03-.19.02-.23.15-.11.14-.04.38.14.4.12.18.25.24.26.13.18.14.18.2.19.28.06.16-.03.25-.08.09-.11.07-.17.06-.25.04-.68-.07-.14-.07"/>
  <path class="cls-1" d="M39.95,9.07l.08-.18-.1-.12-.25-.11h-.45s-.22.13-.22.13l-.2.21-.02.1.02.27.06.17.12.15.15.07.21.15.72.41.22.17.14.16.05.11v.15s-.22.21-.22.21l-.09.04-.43.13-.24.04-.26-.02-.19-.09-.25-.18.02-.11"/>
</svg>