<?xml version="1.0" encoding="UTF-8"?>
<svg id="vector" xmlns="http://www.w3.org/2000/svg" viewBox="0 0 75.36 27.03">
  <defs>
    <style>
      .cls-1, .cls-2 {
        stroke: #000;
      }

      .cls-1, .cls-2, .cls-3, .cls-4 {
        fill: none;
        stroke-linecap: round;
        stroke-linejoin: round;
      }

      .cls-1, .cls-3 {
        stroke-width: .4px;
      }

      .cls-2, .cls-4 {
        stroke-width: .6px;
      }

      .cls-3, .cls-4 {
        stroke: #7fa0af;
      }
    </style>
  </defs>
  <path class="cls-3" d="M.51,16.53v-.07s.03.03.03.03v-.02s1.16-.14,1.16-.14l1.08.05.65-.04,1.05.03.81-.07,1.05.03h1.79s2.71-.19,2.71-.19l1.55-.04,3.38.07,3.15.21h3.22s2.55.12,2.55.12l1.41-.03.66.02.83-.04,1.53.04h3.8s1.27.07,1.27.07h.48s.14-.07.14-.07"/>
  <path class="cls-3" d="M47.57,16.08l.04.03,1.08-.07h.46l1.05.11.44.1.67.06,1.72.11h.71s.82-.02.82-.02h.76s1.36-.06,1.36-.06l2.97.02,1.75-.07,2.33.02,2.05-.06h1.24s3.26-.14,3.26-.14l1.82.07,1.39-.02,1.23-.07.27.02-.07-.02h.06s-.02-.02-.02-.02"/>
  <path class="cls-2" d="M13.95,13.55v.11s-.03-.04-.03-.04l.05.02v-.03s-.06-.82-.06-.82l.04-.67-.04-.77.04-.14-.05-.12v-.11h.05-.03v.09"/>
  <path class="cls-2" d="M8.49,13.39v.07s.01-.06.01-.06h.08l.08-.06v-.1s-.08-.04-.08-.04h-.17s-.11.04-.11.04l-.02.05.03.26.02.05.12.06h.15s.15-.1.15-.1l.04-.05v-.1s-.06-.17-.06-.17l-.06-.07-.17-.09-.13.02-.06.21v.23s.03.05.03.05l.13.02"/>
  <path class="cls-4" d="M56.29,13.07l-.05.02.58.05h.33s.56.05.56.05l.38-.08.58-.03.34.02.04-.02-.07-.07"/>
  <path class="cls-3" d="M55.25,1.13l.18-.06.02-.03-.05.03-.11-.02-.17.07-.31.31-.11.18-.06.18v.36s.2.52.2.52l.24.25.16.06.2-.03.62-.3"/>
  <path class="cls-3" d="M56.81,2.61l.02.02v-.03s.03-.7.03-.7l-.02-.38-.09-.38.28-.02.45.11.2-.02"/>
  <path class="cls-3" d="M56.83,2.05l.12.02.35-.1.22-.02.18.02.11.06"/>
  <path class="cls-3" d="M56.92,2.77l.03.09.95-.08"/>
  <path class="cls-3" d="M58.78,2.75l.04-.09v-.51s-.03-.18-.03-.18l-.12-.32-.02-.16.02-.19.08-.12.16-.1.14-.03.27.05.28.23.08.13.03.17-.12.2-.35.13-.46.07-.05.03.06.03"/>
  <path class="cls-3" d="M60.21,1.07l-.02-.05.02.04.7-.09h.53s.27.05.27.05"/>
  <path class="cls-3" d="M60.96,1.25l-.04.28.23.68v.28s.05.09.05.09"/>
  <path class="cls-3" d="M62.29,2.49h.04s.25-.77.25-.77l.16-.58v-.24s.08-.08.08-.08l.11-.04.12.02.05.06.58,1.26.25.29.13.05"/>
  <path class="cls-3" d="M62.66,1.93l1.02.02"/>
  <path class="cls-3" d="M64.98,2.32l-.06-.02-.02-.04-.02-.47-.08-.51v-.15s.07-.2.07-.2l.07-.05h.19s.3.04.3.04l.1.06.04.27-.1.18.03.2.12.14.29.22.02.11-.02.11-.08.15-.27.19-.14.03h-.19s-.33-.11-.33-.11"/>
  <path class="cls-3" d="M66.76.7h.02s.04.53.04.53l.03.85.06.26.12.12.14.04h.35s.52.04.52.04"/>
  <path class="cls-3" d="M68.56,2.25v.02s.03-.02.03-.02l-.02-.41-.18-.66v-.34s.07-.1.07-.1l.09-.04.86-.08"/>
  <path class="cls-3" d="M68.75,1.41l.11.04.56-.06h.15s.02.02.02.02"/>
  <path class="cls-3" d="M68.81,2.24v.05h.03l.38-.09.63-.03"/>
  <path class="cls-3" d="M50.48,2.91l.1-.59.21-.85.03-.26.09-.25.05-.05h.07l.07.04.11.25.3.97.26.58.04.18h-.03"/>
  <path class="cls-3" d="M50.72,2.15v.07s.32.04.32.04l.4-.04"/>
  <path class="cls-3" d="M53.54,1.03v-.08s-.05-.04-.05-.04l-.19-.02-.16.05-.27.18-.24.25-.11.21-.04.44.09.36.08.17.16.23.12.09.18.02.17-.04.52-.32"/>
  <path class="cls-3" d="M52.42,4.23h-.03l.06.04.1.3.06.34.29,1.06.16.29.12-.16.23-.48.18-.64.1-.51.07-.22.07-.06"/>
  <path class="cls-3" d="M54.29,6.03l.31-.81.03-.26.18-.69.07-.18.03-.02.11.09.1.16.23.78.21.57.26.43.07.04-.03-.12"/>
  <path class="cls-3" d="M54.59,5.48l.03.02.25-.05.56-.03"/>
  <path class="cls-3" d="M56.9,5.93l-.02.02-.1-.16-.08-.31-.03-.2v-.42s.13-.32.13-.32l.09-.13.16-.12.13-.05h.21s.15.04.15.04l.15.12.04.2-.09.18-.27.16-.31.1.08.26.25.25.39.3.37.19"/>
  <path class="cls-3" d="M58.66,4.32h-.04l.05.42.27.96v.23s.03.04.03.04v-.03"/>
  <path class="cls-3" d="M59.76,5.86v.03s.11-.2.11-.2l.16-.55.22-1.09.14.12.15.26.28.67.49,1"/>
  <path class="cls-3" d="M60.07,5.19l.03.06.24.07.44-.02"/>
  <path class="cls-3" d="M61.99,5.89h.02v-.09s-.05-.81-.05-.81v-.42s-.04-.36-.04-.36l.24.28.17.3.54.72.33.38.12.11.07.02-.04-.52-.26-1.14v-.15s.02.04.02.04h.1"/>
  <path class="cls-3" d="M63.9,4.3l.03.02,1.2-.09"/>
  <path class="cls-3" d="M64.55,4.27l-.07.16.02.22.23.93.06.44.03.03.04-.04"/>
  <path class="cls-3" d="M66.64,4.23l.06-.15-.15-.05h-.23s-.32.12-.32.12l-.15.1-.06.09v.28s.14.26.14.26l.18.19.78.37.16.22.04.11v.07s-.08.08-.08.08l-.11.05-.41.09h-.48l-.12-.05.04-.04"/>
  <path class="cls-3" d="M68.09,4.79h-.11s.07,0,.07,0l.04.12"/>
  <path class="cls-3" d="M68.13,5.56l-.09.08h-.04l.05-.03.02.02"/>
  <path class="cls-4" d="M67.84,13.64v-.05s.04-.01.04-.01l-.03-.06.04-.11v-.27s.09-.38.09-.38l.34-.57.25-.25.31-.18.19-.08.34-.06h.27s.28.06.28.06l.22.15.09.12.26.41.18.22.06.54.03.03h.04s-.08,0-.08,0l.02.18-.06.12.04-.03.02.03-.08-.03.02-.03-.07-.05"/>
  <path class="cls-4" d="M50.67,19.51l-.1-.03.1-.02v.04s0-.02,0-.02l.76.04.36.04.77-.08.67-.02v.03s-.03-.02-.03-.02h.06s-.06,0-.06,0l-.07-.05"/>
  <path class="cls-4" d="M62.42,18.33l.04-.08.05.06-.07.33.06.31.21.54.22.35.12.12.2.08.23.06h.41s.26-.09.26-.09l.36-.24.13-.25.24-.32.11-.29.06-.05v-.06s.04-.06.04-.06l.07-.22.06-.07-.02-.05.05-.07h.04s-.08,0-.08,0l-.05-.05"/>
  <path class="cls-3" d="M57.09,25.94l.09-.03h-.03s0-.23,0-.23l.06-.38v-.65s.02-.09.02-.09l-.09-.62v-.36s-.03-.07-.03-.07h.03s-.03,0-.03,0l.38-.04.38.11.3.02.12-.04h.12s.04-.02.04-.02"/>
  <path class="cls-3" d="M57.26,24.65l.02-.05-.04-.02v.04s.4.03.4.03l.2-.02h.35s.09.08.09.08l.13.05"/>
  <path class="cls-3" d="M57.2,26.09l-.04.02.09-.03h.64l.29-.03.18.04h.27s.24-.02.24-.02l.09-.03.04.02h-.05"/>
  <path class="cls-3" d="M68.22,23.77l.03.04h.03s.14.23.14.23l.19.19.23.36.28.32.06.08v.03s.09.11.09.11h.05l-.03.02.24-.19.19-.22.23-.47.08-.08v-.04s-.01,0-.01,0l.06-.13.05-.08v.03s.04-.02.04-.02l-.03.02"/>
  <path class="cls-3" d="M69.27,25.11v.04s-.04-.04-.04-.04l-.03.05.05.2v.6s.05.48.05.48l.03-.04-.04-.04.02-.15"/>
  <path class="cls-3" d="M50.97,25.82l-.04.05.06-.02.22-.46.12-.5.15-.41.02-.23.22-.48.02-.18.1-.13.02.02h-.04s.02-.02.02-.02l.15.26.3.75.2.68.24.44.15.41.08.13.09.06-.05.02v-.05"/>
  <path class="cls-3" d="M51.65,25.21l-.16.03h.09v-.02s.18.03.18.03l.74-.03.15.02v.04"/>
  <path class="cls-3" d="M63.08,23.82l.04.23-.05.37v.28s.08.63.08.63l.07.21.09.2.14.14.21.09.26.04.23-.02.11-.07.21-.19.13-.23.13-.62v-.22s-.04-.4-.04-.4v-.39s.04-.04.04-.04l-.04.02.06-.02-.03.04"/>
  <path class="cls-2" d="M30.72,12.24h.06s-.02.02-.02.02v.41s.14.38.14.38l.03.24.1.25.07.09.18.14.27.16.16.04.17-.03.57-.2.11-.12.19-.1.07-.08.15-.2.13-.26.05-.41.11-.31-.06-.03.06-.06-.03-.02.03.03-.06.03"/>
  <path class="cls-2" d="M2.97,19.27v-.04s.02.02.02.02l.09-.14v-.11s-.08-.06-.08-.06l-.2-.04-.19.14-.02.13.02.11.11.12.15.07.12.02.14-.06.05-.21-.03-.2-.17-.17-.15-.03-.15.22.03.26.03.05.07.03"/>
  <path class="cls-2" d="M24.48,20.29h.05s-.02-.51-.02-.51l.03-.12.11-.34.23-.36.14-.15.28-.18.6-.11h.17s.08.05.08.05l.39.49.29.64.07.5v.19s.03.03.03.03l-.04-.02v-.02s.03.03.03.03l-.04-.14"/>
  <path class="cls-2" d="M19.3,18.52h-.02s.02-.02.02-.02v.02s.03,0,.03,0v.06s-.07.49-.07.49l.07,1.2-.03.15.02.24-.03.06.03.03-.04.1.02.02v-.03s-.02,0-.02,0v.12s-.02-.04-.02-.04v.02s.02,0,.02,0v-.03s-.04.01-.04.01l.03-.03"/>
  <path class="cls-1" d="M8.17,26.33l.09-.03h-.03s0-.23,0-.23l.06-.38v-.64s.02-.1.02-.1l-.09-.62v-.36s-.03-.06-.03-.06l.03-.02h-.03s.38-.03.38-.03l.38.11.3.02.12-.04h.12s.04-.02.04-.02"/>
  <path class="cls-1" d="M8.35,25.05l.02-.06-.04-.02v.04s.4.04.4.04l.2-.03h.35s.09.08.09.08l.13.05"/>
  <path class="cls-1" d="M8.29,26.48l-.04.02.09-.03h.64l.29-.03.18.04h.27l.25-.02.09-.03.04.02h-.05"/>
  <path class="cls-1" d="M30.06,23.81l.03.04h.03s.14.23.14.23l.19.19.23.36.28.32.06.08v.03s.09.11.09.11h.05l-.03.02.24-.19.19-.22.23-.47.08-.08v-.04s-.01,0-.01,0l.06-.13.05-.08v.03s.04-.02.04-.02l-.03.02"/>
  <path class="cls-1" d="M31.11,25.15v.04s-.04-.05-.04-.05l-.03.06.05.2v.6s.05.48.05.48l.03-.04-.04-.04.02-.15"/>
  <path class="cls-1" d="M2.05,26.22l-.04.04.06-.02.22-.46.12-.5.15-.41.02-.23.22-.48.02-.18.1-.13.02.02h-.04s.02-.02.02-.02l.15.26.3.76.2.67.24.44.15.41.08.13.09.06-.05.02v-.05"/>
  <path class="cls-1" d="M2.74,25.6l-.16.03h.09s0-.02,0-.02l.19.03.74-.03.15.02v.04"/>
  <path class="cls-1" d="M24.92,23.85l.04.24-.05.37v.28s.08.63.08.63l.07.21.09.2.14.14.21.09.26.04.23-.02.11-.07.21-.19.13-.23.13-.62v-.22s-.04-.4-.04-.4v-.39s.04-.04.04-.04l-.04.02.06-.02-.03.04"/>
  <path class="cls-1" d="M19.01,24.01v.04s.04,0,.04,0h-.14s-.07.02-.07.02l-.22.17-.31.55-.06.37.06.38.12.29.26.26.36.15.24.04h.49l.12-.04.16-.12.11-.04.32-.31.06-.72-.09-.32-.05-.06-.02-.12-.12-.16-.42-.3-.2-.04-.13-.07-.17-.03-.32.05"/>
  <path class="cls-1" d="M13.82,23.93l.04.04v-.04s.06.56.06.56l-.03,1.46.03.05-.05.3.06.05h-.05s.01-.06.01-.06l.07-.06"/>
</svg>