<?xml version="1.0" encoding="UTF-8"?>
<svg id="vector" xmlns="http://www.w3.org/2000/svg" viewBox="0 0 35.61 40.12">
  <defs>
    <style>
      .cls-1 {
        stroke: #60889a;
        stroke-width: .4px;
      }

      .cls-1, .cls-2 {
        fill: none;
        stroke-linecap: round;
        stroke-linejoin: round;
      }

      .cls-2 {
        stroke: #000;
        stroke-width: .6px;
      }
    </style>
  </defs>
  <path class="cls-2" d="M1.73,33.45l.03.02.04-.03-.04-.3.03-.31.15-.37.11-.16.2-.07.25-.03.15.02.27.11.21.09.07.09.42.3.38.4.46.59.47.53.2.32.22.22.07.12.14.11h-.02s.04,0,.04,0h-.03s.08-.29.08-.29l-.06-.09v-.78s-.06-.43-.06-.43v-.75s0-.15,0-.15l-.03.02h.04s-.04,0-.04,0h.03s-.03-.15-.03-.15l-.07-.14h.03s-.03,0-.03,0l.18-.17.28-.24.08-.03.2-.26.35-.29.1-.16.17-.15.58-.47.15-.06"/>
  <path class="cls-2" d="M15.34,33.62l.03.02.04-.03-.04-.31.03-.3.15-.38.11-.15.2-.08.25-.03.15.03.27.1.21.1.07.08.42.31.38.39.46.59.47.54.2.31.22.22.07.12.14.12-.02-.02h.04s-.03,0-.03,0l.08-.27-.06-.09v-.78s-.06-.43-.06-.43v-.75s0-.15,0-.15h-.03s.04,0,.04,0h-.04.03l-.03-.15-.07-.13h.03-.03l.18-.17.28-.24.08-.04.2-.26.35-.28.1-.16.17-.15.58-.48.15-.06"/>
  <path class="cls-2" d="M28.14,33.81l.03.02.04-.03-.04-.31.03-.3.15-.38.11-.15.2-.07.25-.04.15.03.27.1.21.1.07.08.42.31.38.39.46.59.47.54.2.31.22.22.07.12.14.12-.02-.02h.04s-.03,0-.03,0l.08-.27-.06-.09v-.78s-.06-.43-.06-.43v-.75s0-.15,0-.15h-.03s.04,0,.04,0h-.04.03l-.03-.15-.07-.13h.03-.03l.18-.17.28-.24.08-.03.2-.27.35-.28.1-.16.17-.15.58-.48.15-.06"/>
  <path class="cls-2" d="M3.42,30.49l.06.03v.05s0,0,0,0v-.02h.08l.04-.03.02-.11-.21-.08h-.1s-.02.14-.02.14l.06.21.08-.03.06-.19-.08-.07-.1.02-.06.19.03.04.08-.02"/>
  <path class="cls-2" d="M33.14,29.78h.03s.06-.06.06-.06v-.08s-.15-.07-.15-.07h-.18s.01.19.01.19l.05.14.07.03.09-.03.05-.05.08-.24-.16-.02-.14.07-.04.11.09.04"/>
  <path class="cls-2" d="M18.87,30.62l.05.02h-.02s.09-.19.09-.19v-.04s-.05-.07-.05-.07l-.13-.03-.07.03-.03.18.07.19.09-.02.1-.18-.13-.02-.05.07"/>
  <path class="cls-1" d="M27.8,39.31l-.11-.82v-.44s.03-.22.03-.22l.12-.15.22-.07h.19s.23.12.23.12l.15.14v.19s-.04.09-.04.09l-.23.18-.45.24.15.1.28.03.21.09.15.15.04.14v.08s-.07.08-.07.08l-.19.1-.47.1-.03.02h.05"/>
  <path class="cls-1" d="M29.56,39.18v.06s.03-.04.03-.04l-.08-.34-.04-.37-.04-.83.24.2.58.67.25.4.16.13.08-.27.04-.38-.04-.64-.07-.24.02-.02h-.03s.02.06.02.06"/>
  <path class="cls-1" d="M31.43,37.45l-.02.06.05-.03.17.07.57.04h.25s.32-.08.32-.08l.03.02"/>
  <path class="cls-1" d="M32.12,37.59l-.09.03h.05s.04.28.04.28l.06.67v.4s.05.04.05.04"/>
  <path class="cls-1" d="M33.59,39.01v.08s0-.04,0-.04l-.03-.02v-.31s.03-.64.03-.64l-.07-.44.22-.04h.4l.38-.06"/>
  <path class="cls-1" d="M33.75,38.53l.48-.08.1.04.09.09"/>
  <path class="cls-1" d="M33.72,39.29l.58-.04h.66"/>
  <path class="cls-1" d="M4.94,38.72l.03.02.02-.49-.07-.41-.03-.51.18.05.21.15,1,1.04.14.06.03-.41-.09-.75v-.16s-.02-.05-.02-.05v.04s.03,0,.03,0"/>
  <path class="cls-1" d="M7.09,37.33l.29-.03.65.09h.33"/>
  <path class="cls-1" d="M7.9,37.41l-.03-.02.04.02-.04.21v.47s.03.65.03.65h.02-.05s0,.03,0,.03"/>
  <path class="cls-1" d="M.98,38.94l-.14-.46-.05-.54.03-.26.11-.24.22-.19.2-.04.18.03.13.14-.02.15-.28.36-.25.14.03.05.09.04.4.08.29.12.15.24v.14s-.04.08-.04.08l-.13.11-.56.22h-.08"/>
  <path class="cls-1" d="M3.02,38.86l-.04-.06-.05-.57-.18-.79.22-.03.81.04"/>
  <path class="cls-1" d="M3.07,38.18l.03.04h.13s.5-.06.5-.06h.19"/>
  <path class="cls-1" d="M3.13,38.91l.05.04.39.04.5-.05"/>
  <path class="cls-1" d="M19.16,38.76l-.11-1.23.24-.03h.23l.14.02.05.05"/>
  <path class="cls-1" d="M19.27,38.35l.47-.04.23.12"/>
  <path class="cls-1" d="M19.28,38.88l-.02.03.64.03.22-.05"/>
  <path class="cls-1" d="M20.66,37.29l.46.06h.54s.19.02.19.02"/>
  <path class="cls-1" d="M21.17,37.55l-.12.09.03.1.1,1.02.03.1.05.03.02-.02-.04.02v.02"/>
  <path class="cls-1" d="M14.83,38.93h.04s-.01-.28-.01-.28l-.06-.19-.08-.54v-.19s.05-.14.05-.14l.12-.13.26-.08.31.03.13.04.1.1v.19s-.17.28-.17.28l-.46.31h.03s.11.06.11.06l.44.07.11.04.15.12.05.08.04.1v.12s-.12.16-.12.16l-.23.12-.3.09-.31.03v-.03"/>
  <path class="cls-1" d="M16.83,39.04l.04.05-.03-.61-.04-.65-.05-.3.37.29.27.33.27.21.45.51.11.03h-.03s.03.01.03.01l-.02-.03.06-.47-.08-.49v-.15s-.08-.33-.08-.33"/>
  <path class="cls-2" d="M16.79,2.19l-.65-.12-.29-.09-.33-.16-.29-.19-.11-.14-.1-.22-.02-.12v-.22s.07-.13.07-.13l.14-.11.36-.12.42-.02.25.07.25.16.54.59.34.48.24.42.68,1.41.29.67v.07s.05,0,.05,0l-.02-.06.05-.17.17-.31.55-.82.67-1.08.54-.71.39-.6.13-.14.04-.04v.02s-.01.02-.01.02l.03-.04h-.06"/>
  <path class="cls-2" d="M16.98,4.52h.05s-.01-.09-.01-.09l-.08-.15-.05-.02h-.11l-.03.03-.1.12-.03.11.08.14.18.03.05-.08.03-.17-.05-.09-.05-.03h-.09l-.18.11-.02.1.07.1.14.05h.08"/>
  <path class="cls-2" d="M1.05,3.38h.05s-.01-.09-.01-.09l-.08-.15-.05-.02h-.11l-.03.03-.1.12-.03.11.08.13.18.04.05-.08.03-.17-.05-.09-.05-.03h-.09l-.18.1-.02.11.07.1.14.05h.08"/>
  <path class="cls-2" d="M3.98,2.3l-.65-.12-.29-.1-.33-.15-.29-.2-.11-.13-.1-.22-.02-.13v-.21s.07-.13.07-.13l.14-.12.36-.11.42-.03.25.07.25.17.54.59.34.48.24.42.68,1.41.29.67v.07s.05-.01.05-.01l-.02-.06.05-.17.17-.31.55-.82.67-1.08.54-.72.39-.59.13-.14.04-.04v.02s-.01.02-.01.02l.03-.05h-.06"/>
  <path class="cls-2" d="M28.45,2.4l-.65-.11-.29-.1-.33-.15-.29-.2-.11-.14-.1-.21-.02-.13v-.22s.07-.12.07-.12l.14-.12.36-.12.42-.02.25.07.25.17.54.58.34.49.24.42.68,1.4.29.68v.06s.05-.01.05-.01l-.02-.06.05-.17.17-.31.55-.81.67-1.08.54-.72.39-.59.13-.15.04-.03h.01s-.02.04-.02.04l.03-.05h-.06"/>
  <path class="cls-2" d="M32.74,4.44h.05v-.08s-.09-.15-.09-.15l-.05-.02h-.11l-.03.03-.1.12-.03.1.08.14.18.04.05-.08.03-.17-.05-.09-.05-.03h-.09l-.18.1-.02.11.07.1.14.05h.08"/>
  <path class="cls-1" d="M1.64,9.87v.03s.05,0,.05,0l.05-.18.28-.62.29-1.04.24.11.22.33.1.2.14.53.13.36.26.54-.07-.1"/>
  <path class="cls-1" d="M2.16,9.29v.02s.21.05.21.05l.24-.02.21-.05h.19"/>
  <path class="cls-1" d="M4.8,8.16l.02-.05-.02-.03-.18-.02-.11.02-.42.24-.15.23-.05.18v.44s.04.17.04.17l.11.17.15.15.23.1h.2l.3-.05.48-.13.21-.09"/>
  <path class="cls-1" d="M5.96,8.19l-.04.03.49.03.59-.1h.51"/>
  <path class="cls-1" d="M6.67,8.34l-.03.09.05.19.07.68.11.39.03.04.06-.04"/>
  <path class="cls-1" d="M28.33,8.18l-.04-.07-.07-.02h-.25s-.23.09-.23.09l-.21.2-.15.33-.04.3.05.3.16.37.17.19.12.08.36.1.36-.04.52-.28"/>
  <path class="cls-1" d="M29.15,8.23l-.05-.05.04.03.39.04,1.16-.09.26.02"/>
  <path class="cls-1" d="M30.31,8.3l-.03-.04-.05.02.02.38.22,1.1.06.22h.03"/>
  <path class="cls-1" d="M31.47,9.74l.05.02.26-.61.04-.21.07-.15.06-.45.07-.23.17.18.15.22.09.21.09.42.24.47.09.14.2.13"/>
  <path class="cls-1" d="M31.96,9.47l.69-.09"/>
  <path class="cls-1" d="M15.79,8.66l-.03-.22-.07-.03-.23.04-.32.24-.09.17-.08.38.03.23.08.21.11.21.13.15.28.14h.42s.4-.18.4-.18"/>
  <path class="cls-1" d="M17.13,10.14l-.03.05.05-.04.11-.26.06-.24.22-.54.15-.59.07-.11.11-.03.25.3.23.61.22.47.16.25.05.06v-.04"/>
  <path class="cls-1" d="M17.67,9.42l-.06.06h.24s.72-.16.72-.16"/>
  <path class="cls-1" d="M19.19,8.45l1.26-.07.37-.08"/>
  <path class="cls-1" d="M20.11,8.38l.02.04-.04.05.02.37.11.5.05.43.07.1.06-.02"/>
  <path class="cls-2" d="M28.85,15.74v.02s.04-.02.04-.02v.04s.2.16.2.16l.34.18.2.16,1.13.66.6.45.56.29.42.32.21.1.16.13h.05-.06s-.19-.07-.19-.07"/>
  <path class="cls-2" d="M30.57,18.68h.04l-.04.06.05.9.06.22.02.34.05.14.03.57.03.1v-.04s-.01.01-.01.01v-.07"/>
  <path class="cls-1" d="M32.2,23.93v-.1s.01.04.01.04l-.04-.02-.19.07-.12.1-.15.33-.04.26v.31s.05.1.05.1l.22.28.14.07.12.03.22-.02.15-.08.09-.1.19-.28.08-.25.06-.4-.08-.27-.08-.09-.3-.14-.35-.02"/>
  <path class="cls-1" d="M29.07,25.57l.03.02-.03-.16-.02-.91-.1-.78h-.03s.03.02.03.02l.03-.02.24.2.6.81.66.6.25.29.09.06h.04s-.02,0-.02,0v-1.68s-.02.02-.02.02v-.03s.03-.08.03-.08"/>
  <path class="cls-2" d="M2.36,15.77v-.03s-.05,0-.05,0l.05.05-.06,1,.06.99.04.17h.03l-.03-.02-.02.04"/>
  <path class="cls-2" d="M4.04,18.3h.03s.18.21.18.21l.47.37.15.16.28.2,1.26.81.49.23.17.12h.07s-.02.02-.02.02l-.02-.05"/>
  <path class="cls-1" d="M4,25.22l.03.02.03-.03-.07-.21-.04-1.31-.02-.09h-.04s.02-.04.02-.04l.29.32.25.44.38.53.22.24.1.17.31.18h-.04s.08-.27.08-.27l.07-.44-.03-1.06-.05-.13v-.19l.04-.03v.05"/>
  <path class="cls-1" d="M2.81,23.75l.02-.02.02.03.02.18-.03.49v.73s.03.26.03.26l.1.13v.06"/>
  <path class="cls-2" d="M16.97,16.55l-.06-.06.02.03h-.03s.18.21.18.21l.19.16.4.22.29.23.99.66.75.38.44.33.18.16-.15-.11"/>
  <path class="cls-2" d="M15.34,17.56l-.05-.02h.06s.03,1.45.03,1.45l.05.42.12.34-.06-.03v.03s-.03-.1-.03-.1"/>
  <path class="cls-1" d="M18.44,25.29v.11s.03-.06.03-.06h.04s-.04,0-.04,0l-.06-.13-.06-.41.03-.32-.05-.32v-.44s-.03-.03-.03-.03l.02-.02.33.29.39.46.23.2.58.61.14.1.15-1.03-.03-.56-.08-.16-.02-.24.02-.07v.07"/>
  <path class="cls-1" d="M16.54,23.95l.03-.09-.25-.07-.19.06-.17.11-.32.44-.04.4.09.38.29.41.28.17.25.04.32-.12.17-.14.21-.29.08-.17.04-.18v-.37s-.17-.36-.17-.36l-.18-.22-.2-.13h-.1s.09.14.09.14"/>
</svg>