<?xml version="1.0" encoding="UTF-8"?>
<svg xmlns="http://www.w3.org/2000/svg" viewBox="0 0 304 304">
  <defs>
    <style>
      .cls-1 {
        stroke: #252525;
      }

      .cls-1, .cls-2, .cls-3 {
        stroke-miterlimit: 10;
        stroke-width: 4px;
      }

      .cls-2 {
        fill: rgba(155, 185, 196, .5);
        stroke: #9bb9c4;
      }

      .cls-3 {
        fill: none;
        stroke: #ebebeb;
      }

      .cls-4 {
        fill: #fff;
      }
    </style>
  </defs>
  <g id="Layer_3" data-name="Layer 3">
    <rect class="cls-4" width="304" height="304"/>
  </g>
  <g id="pixels">
    <rect class="cls-1" x="189.5" y="2" width="37.5" height="37.5"/>
    <rect class="cls-1" x="189.5" y="39.5" width="37.5" height="37.5"/>
    <rect class="cls-1" x="189.5" y="77" width="37.5" height="37.5"/>
    <rect class="cls-1" x="264.5" y="152" width="37.5" height="37.5" transform="translate(454 -112.5) rotate(90)"/>
    <rect class="cls-1" x="227" y="77" width="75" height="75"/>
    <rect class="cls-1" x="227" y="2" width="75" height="75"/>
    <rect class="cls-1" x="170.75" y="2" width="18.75" height="18.75"/>
    <rect class="cls-1" x="170.75" y="20.75" width="18.75" height="18.75"/>
    <rect class="cls-1" x="170.75" y="39.5" width="18.75" height="18.75"/>
    <rect class="cls-1" x="170.75" y="58.25" width="18.75" height="18.75"/>
    <rect class="cls-1" x="208.25" y="114.5" width="18.75" height="18.75"/>
    <rect class="cls-1" x="208.25" y="133.25" width="18.75" height="18.75"/>
    <rect class="cls-1" x="227" y="152" width="18.75" height="18.75"/>
    <rect class="cls-1" x="245.75" y="152" width="18.75" height="18.75"/>
    <rect class="cls-1" x="245.75" y="170.75" width="18.75" height="18.75"/>
    <rect class="cls-1" x="283.25" y="189.5" width="18.75" height="18.75"/>
    <rect class="cls-3" x="189.5" y="189.5" width="37.5" height="37.5" transform="translate(416.5 0) rotate(90)"/>
    <rect class="cls-3" x="152" y="189.5" width="37.5" height="37.5" transform="translate(379 37.5) rotate(90)"/>
    <rect class="cls-3" x="152" y="152" width="37.5" height="37.5" transform="translate(341.5 0) rotate(90)"/>
    <rect class="cls-3" x="2" y="2" width="150" height="150"/>
    <rect class="cls-3" x="2" y="152" width="150" height="150"/>
    <rect class="cls-3" x="152" y="227" width="75" height="75"/>
    <rect class="cls-3" x="227" y="227" width="75" height="75"/>
    <rect class="cls-3" x="152" y="95.75" width="18.75" height="18.75"/>
    <rect class="cls-3" x="152" y="114.5" width="18.75" height="18.75"/>
    <rect class="cls-3" x="152" y="133.25" width="18.75" height="18.75"/>
    <rect class="cls-3" x="170.75" y="133.25" width="18.75" height="18.75"/>
    <rect class="cls-3" x="189.5" y="170.75" width="18.75" height="18.75"/>
    <rect class="cls-3" x="227" y="208.25" width="18.75" height="18.75"/>
    <rect class="cls-3" x="245.75" y="208.25" width="18.75" height="18.75"/>
    <rect class="cls-2" x="152" y="2" width="9.37" height="9.37"/>
    <rect class="cls-2" x="161.37" y="2" width="9.37" height="9.37"/>
    <rect class="cls-2" x="152" y="11.37" width="9.37" height="9.37"/>
    <rect class="cls-2" x="161.37" y="11.37" width="9.37" height="9.37"/>
    <rect class="cls-2" x="152" y="20.75" width="9.37" height="9.37"/>
    <rect class="cls-2" x="161.37" y="20.75" width="9.37" height="9.37"/>
    <rect class="cls-2" x="152" y="30.12" width="9.37" height="9.37"/>
    <rect class="cls-2" x="161.37" y="30.12" width="9.37" height="9.37"/>
    <rect class="cls-2" x="152" y="39.5" width="9.37" height="9.37"/>
    <rect class="cls-2" x="161.37" y="39.5" width="9.37" height="9.37"/>
    <rect class="cls-2" x="152" y="48.87" width="9.37" height="9.37"/>
    <rect class="cls-2" x="161.37" y="48.87" width="9.37" height="9.37"/>
    <rect class="cls-2" x="152" y="58.25" width="9.37" height="9.37"/>
    <rect class="cls-2" x="161.37" y="58.25" width="9.37" height="9.37"/>
    <rect class="cls-2" x="152" y="67.62" width="9.37" height="9.37"/>
    <rect class="cls-2" x="161.37" y="67.62" width="9.37" height="9.37"/>
    <rect class="cls-2" x="152" y="77" width="9.37" height="9.37"/>
    <rect class="cls-2" x="161.37" y="77" width="9.37" height="9.37"/>
    <rect class="cls-2" x="152" y="86.37" width="9.37" height="9.37"/>
    <rect class="cls-2" x="161.37" y="86.37" width="9.37" height="9.37"/>
    <rect class="cls-2" x="170.75" y="77" width="9.37" height="9.37"/>
    <rect class="cls-2" x="180.13" y="77" width="9.37" height="9.37"/>
    <rect class="cls-2" x="170.75" y="86.37" width="9.37" height="9.37"/>
    <rect class="cls-2" x="180.13" y="86.37" width="9.37" height="9.37"/>
    <rect class="cls-2" x="170.75" y="95.75" width="9.37" height="9.37"/>
    <rect class="cls-2" x="180.13" y="95.75" width="9.37" height="9.37"/>
    <rect class="cls-2" x="170.75" y="105.12" width="9.37" height="9.37"/>
    <rect class="cls-2" x="180.13" y="105.12" width="9.37" height="9.37"/>
    <rect class="cls-2" x="170.75" y="114.5" width="9.37" height="9.37"/>
    <rect class="cls-2" x="180.13" y="114.5" width="9.37" height="9.37"/>
    <rect class="cls-2" x="170.75" y="123.87" width="9.37" height="9.37"/>
    <rect class="cls-2" x="180.13" y="123.87" width="9.37" height="9.37"/>
    <rect class="cls-2" x="189.5" y="114.5" width="9.37" height="9.37"/>
    <rect class="cls-2" x="198.88" y="114.5" width="9.37" height="9.37"/>
    <rect class="cls-2" x="189.5" y="123.87" width="9.37" height="9.37"/>
    <rect class="cls-2" x="198.88" y="123.87" width="9.37" height="9.37"/>
    <rect class="cls-2" x="189.5" y="133.25" width="9.37" height="9.37"/>
    <rect class="cls-2" x="198.88" y="133.25" width="9.37" height="9.37"/>
    <rect class="cls-2" x="189.5" y="142.62" width="9.37" height="9.37"/>
    <rect class="cls-2" x="198.88" y="142.62" width="9.37" height="9.37"/>
    <rect class="cls-2" x="189.5" y="152" width="9.37" height="9.37"/>
    <rect class="cls-2" x="198.88" y="152" width="9.37" height="9.37"/>
    <rect class="cls-2" x="189.5" y="161.37" width="9.37" height="9.37"/>
    <rect class="cls-2" x="198.88" y="161.37" width="9.37" height="9.37"/>
    <rect class="cls-2" x="208.25" y="152" width="9.37" height="9.37"/>
    <rect class="cls-2" x="217.63" y="152" width="9.37" height="9.37"/>
    <rect class="cls-2" x="208.25" y="161.37" width="9.37" height="9.37"/>
    <rect class="cls-2" x="217.63" y="161.37" width="9.37" height="9.37"/>
    <rect class="cls-2" x="208.25" y="170.75" width="9.37" height="9.37"/>
    <rect class="cls-2" x="217.63" y="170.75" width="9.37" height="9.37"/>
    <rect class="cls-2" x="208.25" y="180.12" width="9.37" height="9.37"/>
    <rect class="cls-2" x="217.63" y="180.12" width="9.37" height="9.37"/>
    <rect class="cls-2" x="227" y="170.75" width="9.37" height="9.37"/>
    <rect class="cls-2" x="236.38" y="170.75" width="9.37" height="9.37"/>
    <rect class="cls-2" x="227" y="180.12" width="9.37" height="9.37"/>
    <rect class="cls-2" x="236.38" y="180.12" width="9.37" height="9.37"/>
    <rect class="cls-2" x="227" y="189.5" width="9.37" height="9.37"/>
    <rect class="cls-2" x="236.38" y="189.5" width="9.37" height="9.37"/>
    <rect class="cls-2" x="227" y="198.87" width="9.37" height="9.37"/>
    <rect class="cls-2" x="236.38" y="198.87" width="9.37" height="9.37"/>
    <rect class="cls-2" x="245.75" y="189.5" width="9.37" height="9.37"/>
    <rect class="cls-2" x="255.13" y="189.5" width="9.37" height="9.37"/>
    <rect class="cls-2" x="245.75" y="198.87" width="9.37" height="9.37"/>
    <rect class="cls-2" x="255.13" y="198.87" width="9.37" height="9.37"/>
    <rect class="cls-2" x="264.5" y="189.5" width="9.37" height="9.37"/>
    <rect class="cls-2" x="273.88" y="189.5" width="9.37" height="9.37"/>
    <rect class="cls-2" x="264.5" y="198.87" width="9.37" height="9.37"/>
    <rect class="cls-2" x="273.88" y="198.87" width="9.37" height="9.37"/>
    <rect class="cls-2" x="264.5" y="208.25" width="9.37" height="9.37"/>
    <rect class="cls-2" x="273.88" y="208.25" width="9.37" height="9.37"/>
    <rect class="cls-2" x="264.5" y="217.62" width="9.37" height="9.37"/>
    <rect class="cls-2" x="273.88" y="217.62" width="9.37" height="9.37"/>
    <rect class="cls-2" x="283.25" y="208.25" width="9.37" height="9.37"/>
    <rect class="cls-2" x="292.63" y="208.25" width="9.37" height="9.37"/>
    <rect class="cls-2" x="283.25" y="217.62" width="9.37" height="9.37"/>
    <rect class="cls-2" x="292.63" y="217.62" width="9.37" height="9.37"/>
  </g>
</svg>